<?xml version="1.0" standalone="no"?>
<!DOCTYPE svg PUBLIC "-//W3C//DTD SVG 1.1//EN" "http://www.w3.org/Graphics/SVG/1.1/DTD/svg11.dtd" >
<svg xmlns="http://www.w3.org/2000/svg" xmlns:xlink="http://www.w3.org/1999/xlink" version="1.1">
<metadata>
Created by FontForge 20170910 at Fri Sep  7 15:55:03 2018
 By Jimmy Wärting
Copyright 2018 The Mali Project Authors (https://github.com/cadsondemak/Mali)
</metadata>
<defs>
<font id="Mali-BoldItalic" horiz-adv-x="0" >
  <font-face 
    font-family="Mali"
    font-weight="700"
    font-style="italic"
    font-stretch="normal"
    units-per-em="1000"
    panose-1="0 0 8 0 0 0 0 0 0 0"
    ascent="800"
    descent="-200"
    x-height="510"
    cap-height="711"
    bbox="-718 -572.069 1532 1523"
    underline-thickness="50"
    underline-position="-100"
    slope="-10"
    unicode-range="U+000D-FB02"
  />
<missing-glyph horiz-adv-x="522" 
d="M320 11h-61l-134 -1q-14 0 -18 4.5t-5 20.5v324l2 146q3 114 3 179q0 18 10 28t29 10l96 -1q20 -1 58 -1l85 1q23 1 67 1q15 0 23.5 -9t8.5 -25l-4 -324q-1 -100 -1 -326q0 -15 -4.5 -21.5t-19.5 -6.5q-105 0 -135 1zM414 263v101l2 290l-120 -1h-28q-19 1 -89 1
q-4 0 -5.5 -1.5t-1.5 -5.5t-1.5 -97.5t-1.5 -226.5q0 -216 1 -245l117 1q67 -2 128 -2q-1 9 -1 186z" />
    <glyph glyph-name="fi" unicode="fi" horiz-adv-x="766" 
d="M458.5 705.5q45.5 -34.5 45.5 -93.5q0 -17 -2 -26q-7 -42 -27 -60t-56 -18q-32 0 -48.5 12t-16.5 34q0 5 2 15q5 23 5 35q0 11 -4 16t-15 5t-17.5 -7.5t-12.5 -28t-15 -65.5l-18 -96h54q41 0 41 -42q0 -28 -16.5 -46t-44.5 -19l-51 -1q-4 -23 -19 -121l-22 -140
q-5 -28 -25.5 -43.5t-53.5 -15.5q-32 0 -50 14t-14 43q18 126 40 260h-24q-28 0 -40 10.5t-12 33.5q0 31 18 49t49 18h27l17 98q18 106 64 160t125 54q71 0 116.5 -34.5zM591 542q-21 20 -21 52q0 46 31.5 76t77.5 30q35 0 56 -19t21 -51q0 -45 -32 -76.5t-77 -31.5
q-35 0 -56 20zM495.5 19.5q-17.5 13.5 -17.5 34.5q0 7 1 11l74 369q5 27 28 42.5t55 15.5q29 0 46.5 -13.5t17.5 -34.5q0 -8 -1 -12l-73 -368q-5 -27 -28.5 -42.5t-55.5 -15.5q-29 0 -46.5 13.5z" />
    <glyph glyph-name="fl" unicode="fl" horiz-adv-x="698" 
d="M458.5 705.5q45.5 -34.5 45.5 -93.5q0 -17 -2 -26q-7 -42 -27 -60t-56 -18q-32 0 -48.5 12t-16.5 34q0 5 2 15q5 23 5 35q0 11 -4 16t-15 5t-17.5 -7.5t-12.5 -28t-15 -65.5l-18 -96h54q41 0 41 -42q0 -28 -16.5 -46t-44.5 -19l-51 -1q-4 -23 -19 -121l-22 -140
q-5 -28 -25.5 -43.5t-53.5 -15.5q-32 0 -50 14t-14 43q18 126 40 260h-24q-28 0 -40 10.5t-12 33.5q0 31 18 49t49 18h27l17 98q18 106 64 160t125 54q71 0 116.5 -34.5zM478.5 23.5q-17.5 14.5 -15.5 35.5l112 672q4 27 28.5 44t56.5 17q29 0 47.5 -16.5t14.5 -39.5
l-114 -666q-5 -29 -29.5 -45t-54.5 -16q-28 0 -45.5 14.5z" />
    <glyph glyph-name="uni0E240E45" unicode="&#xe24;&#xe45;" horiz-adv-x="944" 
d="M879.5 543.5q40.5 -48.5 40.5 -119.5q0 -36 -9 -81q-23 -126 -43 -240l-15 -84q-36 -210 -51 -289q-4 -23 -27.5 -37.5t-54.5 -14.5t-49 14.5t-14 37.5q14 90 35 200l32 181l25 138l21 117q6 33 6 55q0 33 -11.5 46.5t-35.5 13.5q-37 0 -64 -25t-36 -77l-47 -271
l-66 -374q-4 -25 -29 -40.5t-59 -15.5q-26 0 -40.5 13t-14.5 36q0 9 1 13q11 74 36 193q16 78 33 174l40 236l6 36q2 12 2 18q0 41 -36.5 62t-97.5 21q-51 0 -92 -15t-45 -37l63 -18q27 -8 27 -44q0 -20 -13 -69q-13 -48 -14 -53h5q43 0 73 -32.5t30 -79.5q0 -67 -41.5 -106
t-115.5 -39q-37 0 -66.5 16.5t-45.5 42.5t-16 51q0 20 9 58t28 107q17 63 19 74q1 7 -8 12t-31 14q-33 14 -48.5 25t-12.5 27q8 44 55 85.5t115 67t136 25.5q80 0 133.5 -26.5t72.5 -66.5q25 42 68 67.5t101 25.5q96 0 136.5 -48.5zM283.5 147.5q-10.5 9.5 -29.5 9.5
q-24 0 -39 -17.5t-15 -37.5q0 -17 11.5 -26.5t26.5 -9.5q21 0 38.5 14.5t17.5 40.5q0 17 -10.5 26.5z" />
    <glyph glyph-name="uni0E260E45" unicode="&#xe26;&#xe45;" horiz-adv-x="931" 
d="M865.5 554q45.5 -44 45.5 -127q0 -19 -3 -40t-7 -46l-23 -133l-26 -145q-7 -45 -23 -129t-23 -124l-15 -79q-4 -23 -27 -38.5t-54 -15.5t-50.5 15.5t-15.5 37.5q44 218 63 331q10 64 29 168q6 34 11 62.5t8 49.5q8 56 8 75q0 39 -11 54.5t-37 15.5q-35 0 -61 -24t-35 -74
q-18 -99 -41 -235l-17 -94l-60 -328q-4 -24 -26 -39t-51 -15q-31 0 -50 15.5t-15 38.5l60 329l58 325q2 12 2 26q0 36 -24 56t-72 20q-35 0 -71 -10.5t-60.5 -25.5t-25.5 -29l64 -23q19 -6 28 -23t9 -41q0 -36 -17 -114.5t-30 -117.5q-39 -114 -145 -114q-60 0 -94 33.5
t-34 85.5q0 40 20.5 70.5t53.5 47.5t69 17q9 0 23 -2q13 56 13 72t-17 22q-6 2 -30.5 7.5t-43.5 18t-19 33.5q0 36 42.5 85t114 84t153.5 35q69 0 115 -24.5t65 -58.5q23 35 65.5 59t105.5 24q83 0 128.5 -44zM177.5 84q15.5 16 15.5 38q0 17 -9.5 27t-27.5 10
q-25 0 -40.5 -17.5t-15.5 -37.5q0 -17 11.5 -26.5t28.5 -9.5q22 0 37.5 16z" />
    <glyph glyph-name=".notdef" horiz-adv-x="522" 
d="M320 11h-61l-134 -1q-14 0 -18 4.5t-5 20.5v324l2 146q3 114 3 179q0 18 10 28t29 10l96 -1q20 -1 58 -1l85 1q23 1 67 1q15 0 23.5 -9t8.5 -25l-4 -324q-1 -100 -1 -326q0 -15 -4.5 -21.5t-19.5 -6.5q-105 0 -135 1zM414 263v101l2 290l-120 -1h-28q-19 1 -89 1
q-4 0 -5.5 -1.5t-1.5 -5.5t-1.5 -97.5t-1.5 -226.5q0 -216 1 -245l117 1q67 -2 128 -2q-1 9 -1 186z" />
    <glyph glyph-name="NULL" 
 />
    <glyph glyph-name="NULL" 
 />
    <glyph glyph-name="nonmarkingreturn" unicode="&#xd;" horiz-adv-x="360" 
 />
    <glyph glyph-name="space" unicode=" " horiz-adv-x="360" 
 />
    <glyph glyph-name="A" unicode="A" horiz-adv-x="697" 
d="M630.5 179q-12.5 -22 -32.5 -22h-6l12 -88q1 -4 1 -10q0 -31 -22.5 -50.5t-56.5 -19.5q-27 0 -47.5 11t-22.5 31l-12 127l-201 2l-59 -126q-21 -44 -75 -44q-34 0 -60.5 16.5t-21.5 43.5q2 13 6 20q133 257 263 517q25 49 42.5 75t39 38t52.5 12q45 0 71 -26.5t35 -89.5
q17 -119 37 -280l3 -29h7q60 0 60 -51q0 -35 -12.5 -57zM431 289q0 -4 -7 83l-4 52q-4 46 -7 61.5t-8 15.5q-4 0 -9.5 -10t-12.5 -26l-15 -34l-65 -141z" />
    <glyph glyph-name="Aacute" unicode="&#xc1;" horiz-adv-x="697" 
d="M630.5 179q-12.5 -22 -32.5 -22h-6l12 -88q1 -4 1 -10q0 -31 -22.5 -50.5t-56.5 -19.5q-27 0 -47.5 11t-22.5 31l-12 127l-201 2l-59 -126q-21 -44 -75 -44q-34 0 -60.5 16.5t-21.5 43.5q2 13 6 20q133 257 263 517q25 49 42.5 75t39 38t52.5 12q45 0 71 -26.5t35 -89.5
q17 -119 37 -280l3 -29h7q60 0 60 -51q0 -35 -12.5 -57zM431 289q0 -4 -7 83l-4 52q-4 46 -7 61.5t-8 15.5q-4 0 -9.5 -10t-12.5 -26l-15 -34l-65 -141zM366 775.5q-13 15.5 -13 34.5q0 27 29 49l103 78q26 19 38 26t26 7q20 0 32.5 -15t12.5 -36q0 -33 -34 -56l-110 -79
q-21 -15 -30 -19.5t-22 -4.5q-19 0 -32 15.5z" />
    <glyph glyph-name="Abreve" unicode="&#x102;" horiz-adv-x="697" 
d="M630.5 179q-12.5 -22 -32.5 -22h-6l12 -88q1 -4 1 -10q0 -31 -22.5 -50.5t-56.5 -19.5q-27 0 -47.5 11t-22.5 31l-12 127l-201 2l-59 -126q-21 -44 -75 -44q-34 0 -60.5 16.5t-21.5 43.5q2 13 6 20q133 257 263 517q25 49 42.5 75t39 38t52.5 12q45 0 71 -26.5t35 -89.5
q17 -119 37 -280l3 -29h7q60 0 60 -51q0 -35 -12.5 -57zM431 289q0 -4 -7 83l-4 52q-4 46 -7 61.5t-8 15.5q-4 0 -9.5 -10t-12.5 -26l-15 -34l-65 -141zM362 765.5q-38 16.5 -59.5 46.5t-21.5 67q0 24 10 44q19 33 54 33q18 0 31 -8.5t13 -23.5v-13q3 -70 65 -70q29 0 54 20
t33 59q4 19 21 29t37 10q19 0 32 -12.5t13 -30.5q0 -42 -29 -81t-75.5 -62.5t-93.5 -23.5q-46 0 -84 16.5z" />
    <glyph glyph-name="uni1EAE" unicode="&#x1eae;" horiz-adv-x="697" 
d="M630.5 179q-12.5 -22 -32.5 -22h-6l12 -88q1 -4 1 -10q0 -31 -22.5 -50.5t-56.5 -19.5q-27 0 -47.5 11t-22.5 31l-12 127l-201 2l-59 -126q-21 -44 -75 -44q-34 0 -60.5 16.5t-21.5 43.5q2 13 6 20q133 257 263 517q25 49 42.5 75t39 38t52.5 12q45 0 71 -26.5t35 -89.5
q17 -119 37 -280l3 -29h7q60 0 60 -51q0 -35 -12.5 -57zM431 289q0 -4 -7 83l-4 52q-4 46 -7 61.5t-8 15.5q-4 0 -9.5 -10t-12.5 -26l-15 -34l-65 -141zM438 973.5q-11 11.5 -11 28.5q0 12 8 28.5t20 27.5l42 40q33 32 62 32q20 0 32 -12t12 -31q0 -32 -33 -60l-49 -41
q-28 -24 -53 -24q-19 0 -30 11.5zM360 765.5q-38 16.5 -59.5 46.5t-21.5 67q0 24 10 44q19 33 54 33q18 0 31 -8.5t13 -23.5v-13q3 -70 65 -70q29 0 54 20t33 59q4 19 21 29t37 10q19 0 32 -12.5t13 -30.5q0 -42 -29 -81t-75.5 -62.5t-93.5 -23.5q-46 0 -84 16.5z" />
    <glyph glyph-name="uni1EB6" unicode="&#x1eb6;" horiz-adv-x="697" 
d="M630.5 179q-12.5 -22 -32.5 -22h-6l12 -88q1 -4 1 -10q0 -31 -22.5 -50.5t-56.5 -19.5q-27 0 -47.5 11t-22.5 31l-12 127l-201 2l-59 -126q-21 -44 -75 -44q-34 0 -60.5 16.5t-21.5 43.5q2 13 6 20q133 257 263 517q25 49 42.5 75t39 38t52.5 12q45 0 71 -26.5t35 -89.5
q17 -119 37 -280l3 -29h7q60 0 60 -51q0 -35 -12.5 -57zM431 289q0 -4 -7 83l-4 52q-4 46 -7 61.5t-8 15.5q-4 0 -9.5 -10t-12.5 -26l-15 -34l-65 -141zM217.5 -197.5q-17.5 17.5 -17.5 45.5q0 39 27.5 65.5t65.5 26.5q30 0 47.5 -17t17.5 -44q0 -40 -27.5 -67t-65.5 -27
q-30 0 -47.5 17.5zM362 765.5q-38 16.5 -59.5 46.5t-21.5 67q0 24 10 44q19 33 54 33q18 0 31 -8.5t13 -23.5v-13q3 -70 65 -70q29 0 54 20t33 59q4 19 21 29t37 10q19 0 32 -12.5t13 -30.5q0 -42 -29 -81t-75.5 -62.5t-93.5 -23.5q-46 0 -84 16.5z" />
    <glyph glyph-name="uni1EB0" unicode="&#x1eb0;" horiz-adv-x="697" 
d="M630.5 179q-12.5 -22 -32.5 -22h-6l12 -88q1 -4 1 -10q0 -31 -22.5 -50.5t-56.5 -19.5q-27 0 -47.5 11t-22.5 31l-12 127l-201 2l-59 -126q-21 -44 -75 -44q-34 0 -60.5 16.5t-21.5 43.5q2 13 6 20q133 257 263 517q25 49 42.5 75t39 38t52.5 12q45 0 71 -26.5t35 -89.5
q17 -119 37 -280l3 -29h7q60 0 60 -51q0 -35 -12.5 -57zM431 289q0 -4 -7 83l-4 52q-4 46 -7 61.5t-8 15.5q-4 0 -9.5 -10t-12.5 -26l-15 -34l-65 -141zM452.5 967.5q-9.5 5.5 -20.5 18.5l-35 41q-15 17 -15 39q0 26 18.5 45t43.5 19q28 0 50 -32l28 -40q12 -17 12 -37
q0 -24 -18 -41.5t-41 -17.5q-13 0 -22.5 5.5zM363 765.5q-38 16.5 -59.5 46.5t-21.5 67q0 24 10 44q19 33 54 33q18 0 31 -8.5t13 -23.5v-13q3 -70 65 -70q29 0 54 20t33 59q4 19 21 29t37 10q19 0 32 -12.5t13 -30.5q0 -42 -29 -81t-75.5 -62.5t-93.5 -23.5q-46 0 -84 16.5
z" />
    <glyph glyph-name="uni1EB2" unicode="&#x1eb2;" horiz-adv-x="697" 
d="M630.5 179q-12.5 -22 -32.5 -22h-6l12 -88q1 -4 1 -10q0 -31 -22.5 -50.5t-56.5 -19.5q-27 0 -47.5 11t-22.5 31l-12 127l-201 2l-59 -126q-21 -44 -75 -44q-34 0 -60.5 16.5t-21.5 43.5q2 13 6 20q133 257 263 517q25 49 42.5 75t39 38t52.5 12q45 0 71 -26.5t35 -89.5
q17 -119 37 -280l3 -29h7q60 0 60 -51q0 -35 -12.5 -57zM431 289q0 -4 -7 83l-4 52q-4 46 -7 61.5t-8 15.5q-4 0 -9.5 -10t-12.5 -26l-15 -34l-65 -141zM448.5 957q-10.5 11 -8.5 27l5 27q1 6 12 14t13 10q18 13 28 23t10 20q0 7 -5 12t-15 5q-30 0 -39 -20q-4 -11 -14 -17
t-20 -6q-25 0 -25 27q0 37 35 60.5t79 23.5q36 0 61 -21.5t25 -50.5q0 -21 -11 -34.5t-30 -27.5q-7 -6 -13 -11.5t-8 -10.5l-5 -22q-3 -17 -17 -28t-31 -11q-16 0 -26.5 11zM363 765.5q-38 16.5 -59.5 46.5t-21.5 67q0 24 10 44q19 33 54 33q18 0 31 -8.5t13 -23.5v-13
q3 -70 65 -70q29 0 54 20t33 59q4 19 21 29t37 10q19 0 32 -12.5t13 -30.5q0 -42 -29 -81t-75.5 -62.5t-93.5 -23.5q-46 0 -84 16.5z" />
    <glyph glyph-name="uni1EB4" unicode="&#x1eb4;" horiz-adv-x="697" 
d="M630.5 179q-12.5 -22 -32.5 -22h-6l12 -88q1 -4 1 -10q0 -31 -22.5 -50.5t-56.5 -19.5q-27 0 -47.5 11t-22.5 31l-12 127l-201 2l-59 -126q-21 -44 -75 -44q-34 0 -60.5 16.5t-21.5 43.5q2 13 6 20q133 257 263 517q25 49 42.5 75t39 38t52.5 12q45 0 71 -26.5t35 -89.5
q17 -119 37 -280l3 -29h7q60 0 60 -51q0 -35 -12.5 -57zM431 289q0 -4 -7 83l-4 52q-4 46 -7 61.5t-8 15.5q-4 0 -9.5 -10t-12.5 -26l-15 -34l-65 -141zM312 991.5q-12 11.5 -12 28.5q0 16 12 31q20 24 52 36.5t71 12.5q23 0 36.5 -3t32.5 -10q13 -6 24 -8.5t27 -2.5
q8 0 17.5 2t14.5 5q10 6 17 8.5t17 2.5q21 0 34 -11.5t13 -29.5q0 -11 -4 -22t-12 -17q-20 -18 -45.5 -25.5t-62.5 -7.5q-25 0 -41.5 4t-36.5 11q-27 9 -43 9q-7 0 -15.5 -2t-14.5 -5q-4 -2 -19.5 -10t-26.5 -8q-23 0 -35 11.5zM363 764q-38 15 -59.5 42t-21.5 60
q0 22 10 40q18 29 54 29q18 0 31 -7.5t13 -20.5v-12q3 -63 65 -63q29 0 54 18t33 53q4 17 21 26t37 9q19 0 32 -11t13 -28q0 -38 -29 -72.5t-75.5 -56t-93.5 -21.5q-46 0 -84 15z" />
    <glyph glyph-name="uni01CD" unicode="&#x1cd;" horiz-adv-x="697" 
d="M630.5 179q-12.5 -22 -32.5 -22h-6l12 -88q1 -4 1 -10q0 -31 -22.5 -50.5t-56.5 -19.5q-27 0 -47.5 11t-22.5 31l-12 127l-201 2l-59 -126q-21 -44 -75 -44q-34 0 -60.5 16.5t-21.5 43.5q2 13 6 20q133 257 263 517q25 49 42.5 75t39 38t52.5 12q45 0 71 -26.5t35 -89.5
q17 -119 37 -280l3 -29h7q60 0 60 -51q0 -35 -12.5 -57zM431 289q0 -4 -7 83l-4 52q-4 46 -7 61.5t-8 15.5q-4 0 -9.5 -10t-12.5 -26l-15 -34l-65 -141zM629.5 973q11.5 -12 11.5 -30q0 -13 -5.5 -23.5t-16.5 -23.5l-22 -23q-57 -63 -89 -88t-72 -25q-33 0 -65 37t-69 93
q-10 14 -10 30q0 23 20.5 41.5t44.5 18.5q13 0 22 -6t21 -21q13 -17 34 -47q9 -14 16.5 -23t10.5 -9t13 10.5t24 24.5q21 24 52 55q20 21 49 21q19 0 30.5 -12z" />
    <glyph glyph-name="Acircumflex" unicode="&#xc2;" horiz-adv-x="697" 
d="M630.5 179q-12.5 -22 -32.5 -22h-6l12 -88q1 -4 1 -10q0 -31 -22.5 -50.5t-56.5 -19.5q-27 0 -47.5 11t-22.5 31l-12 127l-201 2l-59 -126q-21 -44 -75 -44q-34 0 -60.5 16.5t-21.5 43.5q2 13 6 20q133 257 263 517q25 49 42.5 75t39 38t52.5 12q45 0 71 -26.5t35 -89.5
q17 -119 37 -280l3 -29h7q60 0 60 -51q0 -35 -12.5 -57zM431 289q0 -4 -7 83l-4 52q-4 46 -7 61.5t-8 15.5q-4 0 -9.5 -10t-12.5 -26l-15 -34l-65 -141zM516 771q-12 19 -34 57q-3 4 -11.5 18.5t-11.5 14.5q-5 0 -41 -34l-48 -45q-17 -15 -28.5 -21t-24.5 -6q-20 0 -33 12.5
t-13 31.5q0 10 6 23t17 23l32 29q50 47 86 74t62 27q30 0 47 -16t42 -55q5 -7 18.5 -27.5t27.5 -37.5q9 -13 9 -27q0 -25 -18 -43.5t-42 -18.5q-29 0 -42 21z" />
    <glyph glyph-name="uni1EA4" unicode="&#x1ea4;" horiz-adv-x="697" 
d="M630.5 179q-12.5 -22 -32.5 -22h-6l12 -88q1 -4 1 -10q0 -31 -22.5 -50.5t-56.5 -19.5q-27 0 -47.5 11t-22.5 31l-12 127l-201 2l-59 -126q-21 -44 -75 -44q-34 0 -60.5 16.5t-21.5 43.5q2 13 6 20q133 257 263 517q25 49 42.5 75t39 38t52.5 12q45 0 71 -26.5t35 -89.5
q17 -119 37 -280l3 -29h7q60 0 60 -51q0 -35 -12.5 -57zM431 289q0 -4 -7 83l-4 52q-4 46 -7 61.5t-8 15.5q-4 0 -9.5 -10t-12.5 -26l-15 -34l-65 -141zM598.5 954.5q-11.5 12.5 -11.5 30.5q0 27 28 53l42 40q18 17 32 24.5t29 7.5q20 0 32 -12t12 -31t-10 -34.5t-23 -25.5
l-49 -41q-28 -24 -52 -24q-18 0 -29.5 12.5zM517 772q-12 19 -34 57q-3 4 -11.5 18.5t-11.5 14.5q-5 0 -41 -34l-48 -45q-17 -15 -28.5 -21t-24.5 -6q-20 0 -33 12.5t-13 31.5q0 10 6 23t17 23l32 29q50 47 86 74t62 27q30 0 47 -16t42 -55q5 -7 18.5 -27.5t27.5 -37.5
q9 -13 9 -27q0 -25 -18 -43.5t-42 -18.5q-29 0 -42 21z" />
    <glyph glyph-name="uni1EAC" unicode="&#x1eac;" horiz-adv-x="697" 
d="M630.5 179q-12.5 -22 -32.5 -22h-6l12 -88q1 -4 1 -10q0 -31 -22.5 -50.5t-56.5 -19.5q-27 0 -47.5 11t-22.5 31l-12 127l-201 2l-59 -126q-21 -44 -75 -44q-34 0 -60.5 16.5t-21.5 43.5q2 13 6 20q133 257 263 517q25 49 42.5 75t39 38t52.5 12q45 0 71 -26.5t35 -89.5
q17 -119 37 -280l3 -29h7q60 0 60 -51q0 -35 -12.5 -57zM431 289q0 -4 -7 83l-4 52q-4 46 -7 61.5t-8 15.5q-4 0 -9.5 -10t-12.5 -26l-15 -34l-65 -141zM217.5 -197.5q-17.5 17.5 -17.5 45.5q0 39 27.5 65.5t65.5 26.5q30 0 47.5 -17t17.5 -44q0 -40 -27.5 -67t-65.5 -27
q-30 0 -47.5 17.5zM516 771q-12 19 -34 57q-3 4 -11.5 18.5t-11.5 14.5q-5 0 -41 -34l-48 -45q-17 -15 -28.5 -21t-24.5 -6q-20 0 -33 12.5t-13 31.5q0 10 6 23t17 23l32 29q50 47 86 74t62 27q30 0 47 -16t42 -55q5 -7 18.5 -27.5t27.5 -37.5q9 -13 9 -27q0 -25 -18 -43.5
t-42 -18.5q-29 0 -42 21z" />
    <glyph glyph-name="uni1EA6" unicode="&#x1ea6;" horiz-adv-x="697" 
d="M630.5 179q-12.5 -22 -32.5 -22h-6l12 -88q1 -4 1 -10q0 -31 -22.5 -50.5t-56.5 -19.5q-27 0 -47.5 11t-22.5 31l-12 127l-201 2l-59 -126q-21 -44 -75 -44q-34 0 -60.5 16.5t-21.5 43.5q2 13 6 20q133 257 263 517q25 49 42.5 75t39 38t52.5 12q45 0 71 -26.5t35 -89.5
q17 -119 37 -280l3 -29h7q60 0 60 -51q0 -35 -12.5 -57zM431 289q0 -4 -7 83l-4 52q-4 46 -7 61.5t-8 15.5q-4 0 -9.5 -10t-12.5 -26l-15 -34l-65 -141zM589 966l-34 41q-16 18 -16 40q0 26 19 44.5t44 18.5q28 0 50 -32l28 -40q12 -17 12 -37q0 -24 -18 -41.5t-41 -17.5
q-24 0 -44 24zM517 772q-12 19 -34 57q-3 4 -11.5 18.5t-11.5 14.5q-5 0 -41 -34l-48 -45q-17 -15 -28.5 -21t-24.5 -6q-20 0 -33 12.5t-13 31.5q0 10 6 23t17 23l32 29q50 47 86 74t62 27q30 0 47 -16t42 -55q5 -7 18.5 -27.5t27.5 -37.5q9 -13 9 -27q0 -25 -18 -43.5
t-42 -18.5q-29 0 -42 21z" />
    <glyph glyph-name="uni1EA8" unicode="&#x1ea8;" horiz-adv-x="697" 
d="M630.5 179q-12.5 -22 -32.5 -22h-6l12 -88q1 -4 1 -10q0 -31 -22.5 -50.5t-56.5 -19.5q-27 0 -47.5 11t-22.5 31l-12 127l-201 2l-59 -126q-21 -44 -75 -44q-34 0 -60.5 16.5t-21.5 43.5q2 13 6 20q133 257 263 517q25 49 42.5 75t39 38t52.5 12q45 0 71 -26.5t35 -89.5
q17 -119 37 -280l3 -29h7q60 0 60 -51q0 -35 -12.5 -57zM431 289q0 -4 -7 83l-4 52q-4 46 -7 61.5t-8 15.5q-4 0 -9.5 -10t-12.5 -26l-15 -34l-65 -141zM611.5 952.5q-10.5 9.5 -10.5 22.5q0 11 5 33q1 7 10.5 14.5t19.5 14.5q16 10 25 19t9 18q0 7 -5 12.5t-16 5.5
q-31 0 -38 -20q-4 -11 -14 -17t-20 -6q-13 0 -19.5 8t-6.5 20q0 36 34.5 59.5t77.5 23.5q37 0 62.5 -18.5t25.5 -49.5q0 -20 -11 -34.5t-30 -30.5q-8 -6 -14 -12.5t-7 -11.5l-4 -24q-2 -17 -16.5 -26.5t-32.5 -9.5q-14 0 -24.5 9.5zM517 772q-12 19 -34 57q-3 4 -11.5 18.5
t-11.5 14.5q-5 0 -41 -34l-48 -45q-17 -15 -28.5 -21t-24.5 -6q-20 0 -33 12.5t-13 31.5q0 10 6 23t17 23l32 29q50 47 86 74t62 27q30 0 47 -16t42 -55q5 -7 18.5 -27.5t27.5 -37.5q9 -13 9 -27q0 -25 -18 -43.5t-42 -18.5q-29 0 -42 21z" />
    <glyph glyph-name="uni1EAA" unicode="&#x1eaa;" horiz-adv-x="697" 
d="M630.5 179q-12.5 -22 -32.5 -22h-6l12 -88q1 -4 1 -10q0 -31 -22.5 -50.5t-56.5 -19.5q-27 0 -47.5 11t-22.5 31l-12 127l-201 2l-59 -126q-21 -44 -75 -44q-34 0 -60.5 16.5t-21.5 43.5q2 13 6 20q133 257 263 517q25 49 42.5 75t39 38t52.5 12q45 0 71 -26.5t35 -89.5
q17 -119 37 -280l3 -29h7q60 0 60 -51q0 -35 -12.5 -57zM431 289q0 -4 -7 83l-4 52q-4 46 -7 61.5t-8 15.5q-4 0 -9.5 -10t-12.5 -26l-15 -34l-65 -141zM320.5 1027q-11.5 11 -11.5 27q0 21 22 40q33 28 56.5 38.5t54.5 10.5q43 0 85 -21q11 -6 25 -11t22 -5q11 0 22 7
q7 4 16 10.5t15.5 9.5t14.5 3q17 0 29.5 -13t12.5 -29q0 -11 -6 -21.5t-16 -17.5q-58 -39 -101 -39q-19 0 -36 5.5t-30 11.5t-18 8q-7 3 -19.5 9t-20.5 6q-7 0 -15.5 -4.5t-22.5 -15.5q-25 -20 -47 -20q-20 0 -31.5 11zM517 772q-12 19 -34 57q-3 4 -11.5 18.5t-11.5 14.5
q-5 0 -41 -34l-48 -45q-17 -15 -28.5 -21t-24.5 -6q-20 0 -33 12.5t-13 31.5q0 10 6 23t17 23l32 29q50 47 86 74t62 27q30 0 47 -16t42 -55q5 -7 18.5 -27.5t27.5 -37.5q9 -13 9 -27q0 -25 -18 -43.5t-42 -18.5q-29 0 -42 21z" />
    <glyph glyph-name="Adieresis" unicode="&#xc4;" horiz-adv-x="697" 
d="M630.5 179q-12.5 -22 -32.5 -22h-6l12 -88q1 -4 1 -10q0 -31 -22.5 -50.5t-56.5 -19.5q-27 0 -47.5 11t-22.5 31l-12 127l-201 2l-59 -126q-21 -44 -75 -44q-34 0 -60.5 16.5t-21.5 43.5q2 13 6 20q133 257 263 517q25 49 42.5 75t39 38t52.5 12q45 0 71 -26.5t35 -89.5
q17 -119 37 -280l3 -29h7q60 0 60 -51q0 -35 -12.5 -57zM431 289q0 -4 -7 83l-4 52q-4 46 -7 61.5t-8 15.5q-4 0 -9.5 -10t-12.5 -26l-15 -34l-65 -141zM254.5 779q-18.5 19 -18.5 46q0 35 28.5 62.5t63.5 27.5q28 0 47.5 -19.5t19.5 -45.5q0 -34 -29.5 -62t-64.5 -28
q-28 0 -46.5 19zM530.5 779q-18.5 19 -18.5 46q0 35 28.5 62.5t63.5 27.5q28 0 47 -19t19 -46q0 -34 -29 -62t-64 -28q-28 0 -46.5 19z" />
    <glyph glyph-name="uni1EA0" unicode="&#x1ea0;" horiz-adv-x="697" 
d="M630.5 179q-12.5 -22 -32.5 -22h-6l12 -88q1 -4 1 -10q0 -31 -22.5 -50.5t-56.5 -19.5q-27 0 -47.5 11t-22.5 31l-12 127l-201 2l-59 -126q-21 -44 -75 -44q-34 0 -60.5 16.5t-21.5 43.5q2 13 6 20q133 257 263 517q25 49 42.5 75t39 38t52.5 12q45 0 71 -26.5t35 -89.5
q17 -119 37 -280l3 -29h7q60 0 60 -51q0 -35 -12.5 -57zM431 289q0 -4 -7 83l-4 52q-4 46 -7 61.5t-8 15.5q-4 0 -9.5 -10t-12.5 -26l-15 -34l-65 -141zM217.5 -197.5q-17.5 17.5 -17.5 45.5q0 39 27.5 65.5t65.5 26.5q30 0 47.5 -17t17.5 -44q0 -40 -27.5 -67t-65.5 -27
q-30 0 -47.5 17.5z" />
    <glyph glyph-name="Agrave" unicode="&#xc0;" horiz-adv-x="697" 
d="M630.5 179q-12.5 -22 -32.5 -22h-6l12 -88q1 -4 1 -10q0 -31 -22.5 -50.5t-56.5 -19.5q-27 0 -47.5 11t-22.5 31l-12 127l-201 2l-59 -126q-21 -44 -75 -44q-34 0 -60.5 16.5t-21.5 43.5q2 13 6 20q133 257 263 517q25 49 42.5 75t39 38t52.5 12q45 0 71 -26.5t35 -89.5
q17 -119 37 -280l3 -29h7q60 0 60 -51q0 -35 -12.5 -57zM431 289q0 -4 -7 83l-4 52q-4 46 -7 61.5t-8 15.5q-4 0 -9.5 -10t-12.5 -26l-15 -34l-65 -141zM446 755.5q-10 5.5 -20 18.5l-64 86q-15 20 -15 42q0 25 19 43t44 18q15 0 26.5 -7.5t22.5 -24.5l58 -85q12 -19 12 -37
q0 -24 -18 -41.5t-41 -17.5q-14 0 -24 5.5z" />
    <glyph glyph-name="uni1EA2" unicode="&#x1ea2;" horiz-adv-x="697" 
d="M630.5 179q-12.5 -22 -32.5 -22h-6l12 -88q1 -4 1 -10q0 -31 -22.5 -50.5t-56.5 -19.5q-27 0 -47.5 11t-22.5 31l-12 127l-201 2l-59 -126q-21 -44 -75 -44q-34 0 -60.5 16.5t-21.5 43.5q2 13 6 20q133 257 263 517q25 49 42.5 75t39 38t52.5 12q45 0 71 -26.5t35 -89.5
q17 -119 37 -280l3 -29h7q60 0 60 -51q0 -35 -12.5 -57zM431 289q0 -4 -7 83l-4 52q-4 46 -7 61.5t-8 15.5q-4 0 -9.5 -10t-12.5 -26l-15 -34l-65 -141zM394.5 762.5q-14.5 13.5 -11.5 32.5l9 50q2 11 12 19.5t29 20.5q22 14 34 25t12 26q0 11 -7.5 20t-22.5 9q-18 0 -30 -8
t-25 -25q-22 -29 -47 -29q-15 0 -25.5 11.5t-10.5 23.5q0 18 17 40q30 39 63.5 57.5t77.5 18.5q54 0 90 -26.5t36 -68.5q0 -32 -15 -51t-43 -38q-11 -8 -20 -16t-12 -16l-6 -41q-4 -24 -22.5 -36t-45.5 -12q-22 0 -36.5 13.5z" />
    <glyph glyph-name="Amacron" unicode="&#x100;" horiz-adv-x="697" 
d="M630.5 179q-12.5 -22 -32.5 -22h-6l12 -88q1 -4 1 -10q0 -31 -22.5 -50.5t-56.5 -19.5q-27 0 -47.5 11t-22.5 31l-12 127l-201 2l-59 -126q-21 -44 -75 -44q-34 0 -60.5 16.5t-21.5 43.5q2 13 6 20q133 257 263 517q25 49 42.5 75t39 38t52.5 12q45 0 71 -26.5t35 -89.5
q17 -119 37 -280l3 -29h7q60 0 60 -51q0 -35 -12.5 -57zM431 289q0 -4 -7 83l-4 52q-4 46 -7 61.5t-8 15.5q-4 0 -9.5 -10t-12.5 -26l-15 -34l-65 -141zM356.5 788q-11.5 -1 -21.5 -1q-25 0 -53 11q-29 11 -29 41q0 27 18.5 46t44.5 19l20 -2q35 -5 56 -5t65 4q50 4 80 4
q38 0 66 -4q17 -2 29.5 -15t12.5 -32q0 -17 -11.5 -32.5t-28 -23.5t-29.5 -5q-16 4 -52 4q-27 0 -71 -4t-69 -4q-16 0 -27.5 -1z" />
    <glyph glyph-name="Aogonek" unicode="&#x104;" horiz-adv-x="697" 
d="M630.5 179q-12.5 -22 -32.5 -22h-6l12 -88q1 -4 1 -10q0 -24 -14 -41.5t-38 -24.5l-10 -9q-29 -21 -45 -37t-16 -31q0 -10 7 -13.5t20 -3.5q5 0 21 4q15 5 23 5q10 0 17 -7.5t7 -21.5q0 -34 -23 -52.5t-64 -18.5q-49 0 -78 26t-29 66q0 34 19 64.5t56 59.5q-2 4 -2 7
l-12 127l-201 2l-59 -126q-21 -44 -75 -44q-34 0 -60.5 16.5t-21.5 43.5q2 13 6 20q133 257 263 517q25 49 42.5 75t39 38t52.5 12q45 0 71 -26.5t35 -89.5q17 -119 37 -280l3 -29h7q60 0 60 -51q0 -35 -12.5 -57zM431 289q0 -4 -7 83l-4 52q-4 46 -7 61.5t-8 15.5
q-4 0 -9.5 -10t-12.5 -26l-15 -34l-65 -141z" />
    <glyph glyph-name="Aring" unicode="&#xc5;" horiz-adv-x="697" 
d="M630.5 179q-12.5 -22 -32.5 -22h-6l12 -88q1 -4 1 -10q0 -31 -22.5 -50.5t-56.5 -19.5q-27 0 -47.5 11t-22.5 31l-12 127l-201 2l-59 -126q-21 -44 -75 -44q-34 0 -60.5 16.5t-21.5 43.5q2 13 6 20q133 257 263 517q25 49 42.5 75t39 38t52.5 12q45 0 71 -26.5t35 -89.5
q17 -119 37 -280l3 -29h7q60 0 60 -51q0 -35 -12.5 -57zM431 289q0 -4 -7 83l-4 52q-4 46 -7 61.5t-8 15.5q-4 0 -9.5 -10t-12.5 -26l-15 -34l-65 -141zM358.5 770.5q-33.5 33.5 -33.5 82.5q0 38 21.5 72t57.5 54.5t77 20.5q48 0 80.5 -33.5t32.5 -78.5q0 -41 -20.5 -75.5
t-56 -55t-76.5 -20.5q-49 0 -82.5 33.5zM487 837q15 13 19 34q3 17 -7.5 30t-30.5 13q-22 0 -38.5 -15t-16.5 -36q0 -17 11 -28t28 -11q20 0 35 13z" />
    <glyph glyph-name="Aringacute" unicode="&#x1fa;" horiz-adv-x="697" 
d="M460.5 1049q-11.5 12 -11.5 30q0 12 7.5 27t20.5 27l46 45q18 17 32 24.5t29 7.5q20 0 32 -12t12 -31q0 -29 -33 -60l-53 -46q-28 -24 -52 -24q-18 0 -29.5 12zM358.5 770.5q-33.5 33.5 -33.5 82.5q0 38 21.5 72t57.5 54.5t77 20.5q48 0 80.5 -33.5t32.5 -78.5
q0 -41 -20.5 -75.5t-56 -55t-76.5 -20.5q-49 0 -82.5 33.5zM429.5 899q-16.5 -15 -16.5 -36q0 -17 11 -28t28 -11q20 0 35 13t19 34q3 17 -7.5 30t-30.5 13q-22 0 -38.5 -15zM630.5 179q-12.5 -22 -32.5 -22h-6l12 -88q1 -4 1 -10q0 -31 -22.5 -50.5t-56.5 -19.5
q-27 0 -47.5 11t-22.5 31l-12 127l-201 2l-59 -126q-21 -44 -75 -44q-34 0 -60.5 16.5t-21.5 43.5q2 13 6 20q133 257 263 517q25 49 42.5 75t39 38t52.5 12q45 0 71 -26.5t35 -89.5q17 -119 37 -280l3 -29h7q60 0 60 -51q0 -35 -12.5 -57zM431 289q0 -4 -7 83l-4 52
q-4 46 -7 61.5t-8 15.5q-4 0 -9.5 -10t-12.5 -26l-15 -34l-65 -141z" />
    <glyph glyph-name="Atilde" unicode="&#xc3;" horiz-adv-x="697" 
d="M630.5 179q-12.5 -22 -32.5 -22h-6l12 -88q1 -4 1 -10q0 -31 -22.5 -50.5t-56.5 -19.5q-27 0 -47.5 11t-22.5 31l-12 127l-201 2l-59 -126q-21 -44 -75 -44q-34 0 -60.5 16.5t-21.5 43.5q2 13 6 20q133 257 263 517q25 49 42.5 75t39 38t52.5 12q45 0 71 -26.5t35 -89.5
q17 -119 37 -280l3 -29h7q60 0 60 -51q0 -35 -12.5 -57zM431 289q0 -4 -7 83l-4 52q-4 46 -7 61.5t-8 15.5q-4 0 -9.5 -10t-12.5 -26l-15 -34l-65 -141zM275.5 783.5q-12.5 13.5 -12.5 30.5q0 24 21 45q34 34 60.5 48t57.5 14q24 0 49 -6.5t45 -18.5q17 -10 26 -14.5
t13 -4.5q7 0 15 8q13 13 23.5 18.5t22.5 5.5q18 0 32 -14t14 -33q0 -25 -24 -46q-53 -46 -102 -46q-23 0 -42 8t-41 21q-2 1 -16.5 9.5t-24.5 8.5q-6 0 -14.5 -6.5t-20.5 -17.5q-26 -23 -50 -23q-19 0 -31.5 13.5z" />
    <glyph glyph-name="AE" unicode="&#xc6;" horiz-adv-x="879" 
d="M903.5 677q7.5 -8 7.5 -24q0 -4 -2 -18q-7 -41 -23.5 -53.5t-38.5 -10.5q-42 3 -92 3q-65 0 -105 -3q-7 -59 -25 -163l45 -1q89 -2 104 -3q19 -1 19 -27q0 -6 -2 -18q-4 -25 -18 -37.5t-44 -12.5l-71 2h-51q-9 -53 -16.5 -82.5t-22.5 -81.5l-6 -22q26 -4 69 -4h51
q17 0 34 1.5t46 5.5q13 2 27.5 -9t14.5 -36q0 -9 -1 -15q-6 -32 -23 -47.5t-34 -20.5q-14 -4 -35 -5t-48 -1h-259q-56 0 -56 45q0 9 1 14q6 31 21.5 46.5t37.5 15.5q12 40 20 74l-147 1q-35 -52 -108 -161q-9 -12 -20 -20.5t-32 -8.5q-31 0 -62 18t-31 38q0 7 3 11
q143 227 276 412.5t202 208.5q6 3 10 3q34 0 66 1t55 2l75 2q63 0 165 -9q16 -2 23.5 -10zM451 289q9 42 26 139l9 48q-54 -67 -136 -186z" />
    <glyph glyph-name="AEacute" unicode="&#x1fc;" horiz-adv-x="879" 
d="M903.5 677q7.5 -8 7.5 -24q0 -4 -2 -18q-7 -41 -23.5 -53.5t-38.5 -10.5q-42 3 -92 3q-65 0 -105 -3q-7 -59 -25 -163l45 -1q89 -2 104 -3q19 -1 19 -27q0 -6 -2 -18q-4 -25 -18 -37.5t-44 -12.5l-71 2h-51q-9 -53 -16.5 -82.5t-22.5 -81.5l-6 -22q26 -4 69 -4h51
q17 0 34 1.5t46 5.5q13 2 27.5 -9t14.5 -36q0 -9 -1 -15q-6 -32 -23 -47.5t-34 -20.5q-14 -4 -35 -5t-48 -1h-259q-56 0 -56 45q0 9 1 14q6 31 21.5 46.5t37.5 15.5q12 40 20 74l-147 1q-35 -52 -108 -161q-9 -12 -20 -20.5t-32 -8.5q-31 0 -62 18t-31 38q0 7 3 11
q143 227 276 412.5t202 208.5q6 3 10 3q34 0 66 1t55 2l75 2q63 0 165 -9q16 -2 23.5 -10zM451 289q9 42 26 139l9 48q-54 -67 -136 -186zM621 771.5q-13 15.5 -13 34.5q0 27 29 49l103 78q26 19 38 26t26 7q20 0 32.5 -15t12.5 -36q0 -33 -34 -56l-110 -79
q-21 -15 -30 -19.5t-22 -4.5q-19 0 -32 15.5z" />
    <glyph glyph-name="B" unicode="B" horiz-adv-x="674" 
d="M70 4h-6q-34 0 -34 42q0 34 16.5 61t42.5 26h10q29 117 53 251l14 81l14 84l-10 -2q-11 0 -18.5 10.5t-7.5 24.5q0 32 22.5 53.5t62.5 37.5q90 35 192 35q75 0 133.5 -24t91 -66.5t32.5 -94.5q0 -71 -52 -118.5t-137 -59.5q67 -21 95.5 -60.5t28.5 -82.5
q0 -103 -84.5 -154.5t-213.5 -51.5q-44 0 -111 5q-25 -34 -79 -34q-46 0 -55 37zM429.5 146q40.5 26 40.5 79q0 39 -29 54.5t-67 15.5q-35 0 -50.5 7.5t-15.5 31.5q0 74 83 74q61 0 100 27t39 81q0 35 -34 54t-100 19q-28 0 -66 -9q-9 -58 -20 -118l-13 -78
q-11 -66 -22 -113.5t-37 -147.5q39 -3 82 -3q69 0 109.5 26z" />
    <glyph glyph-name="C" unicode="C" horiz-adv-x="742" 
d="M737 696q16 -14 16 -35q0 -8 -1 -12l-22 -116q-13 -69 -81 -69q-18 0 -32.5 6t-20.5 17q-17 33 -30 51t-37 32t-60 14q-65 0 -125.5 -44t-98 -111.5t-37.5 -134.5q0 -76 48.5 -122t124.5 -46q61 0 114.5 31.5t70.5 96.5q7 29 25 48.5t57 19.5q66 0 66 -60
q0 -50 -38.5 -113t-114 -108t-180.5 -45q-93 0 -166 38t-113.5 107t-40.5 157q0 106 56 202t150 155t202 59q100 0 149 -52l1 4q4 20 23 32t49 12t46 -14z" />
    <glyph glyph-name="Cacute" unicode="&#x106;" horiz-adv-x="742" 
d="M737 696q16 -14 16 -35q0 -8 -1 -12l-22 -116q-13 -69 -81 -69q-18 0 -32.5 6t-20.5 17q-17 33 -30 51t-37 32t-60 14q-65 0 -125.5 -44t-98 -111.5t-37.5 -134.5q0 -76 48.5 -122t124.5 -46q61 0 114.5 31.5t70.5 96.5q7 29 25 48.5t57 19.5q66 0 66 -60
q0 -50 -38.5 -113t-114 -108t-180.5 -45q-93 0 -166 38t-113.5 107t-40.5 157q0 106 56 202t150 155t202 59q100 0 149 -52l1 4q4 20 23 32t49 12t46 -14zM410 775.5q-13 15.5 -13 34.5q0 27 29 49l103 78q26 19 38 26t26 7q20 0 32.5 -15t12.5 -36q0 -33 -34 -56l-110 -79
q-21 -15 -30 -19.5t-22 -4.5q-19 0 -32 15.5z" />
    <glyph glyph-name="Ccaron" unicode="&#x10c;" horiz-adv-x="742" 
d="M737 696q16 -14 16 -35q0 -8 -1 -12l-22 -116q-13 -69 -81 -69q-18 0 -32.5 6t-20.5 17q-17 33 -30 51t-37 32t-60 14q-65 0 -125.5 -44t-98 -111.5t-37.5 -134.5q0 -76 48.5 -122t124.5 -46q61 0 114.5 31.5t70.5 96.5q7 29 25 48.5t57 19.5q66 0 66 -60
q0 -50 -38.5 -113t-114 -108t-180.5 -45q-93 0 -166 38t-113.5 107t-40.5 157q0 106 56 202t150 155t202 59q100 0 149 -52l1 4q4 20 23 32t49 12t46 -14zM673.5 973q11.5 -12 11.5 -30q0 -13 -5.5 -23.5t-16.5 -23.5l-22 -23q-57 -63 -89 -88t-72 -25q-33 0 -65 37t-69 93
q-10 14 -10 30q0 23 20.5 41.5t44.5 18.5q13 0 22 -6t21 -21q13 -17 34 -47q9 -14 16.5 -23t10.5 -9t13 10.5t24 24.5q21 24 52 55q20 21 49 21q19 0 30.5 -12z" />
    <glyph glyph-name="Ccedilla" unicode="&#xc7;" horiz-adv-x="742" 
d="M737 696q16 -14 16 -35q0 -8 -1 -12l-22 -116q-13 -69 -81 -69q-18 0 -32.5 6t-20.5 17q-17 33 -30 51t-37 32t-60 14q-65 0 -125.5 -44t-98 -111.5t-37.5 -134.5q0 -76 48.5 -122t124.5 -46q61 0 114.5 31.5t70.5 96.5q7 29 25 48.5t57 19.5q66 0 66 -60
q0 -50 -38.5 -113t-114 -108t-180.5 -45l-46 -53q71 -19 71 -66q0 -46 -41.5 -76t-99.5 -30q-42 0 -74 15q-15 7 -22 13.5t-7 16.5q0 18 12.5 31t32.5 13q11 0 32 -7q28 -8 43 -8q21 0 31.5 7t10.5 16q0 18 -48 26q-17 3 -26.5 12.5t-9.5 23.5q0 9 7 25l42 52
q-104 25 -166 103t-62 188q0 106 56 202t150 155t202 59q100 0 149 -52l1 4q4 20 23 32t49 12t46 -14z" />
    <glyph glyph-name="Ccircumflex" unicode="&#x108;" horiz-adv-x="742" 
d="M737 696q16 -14 16 -35q0 -8 -1 -12l-22 -116q-13 -69 -81 -69q-18 0 -32.5 6t-20.5 17q-17 33 -30 51t-37 32t-60 14q-65 0 -125.5 -44t-98 -111.5t-37.5 -134.5q0 -76 48.5 -122t124.5 -46q61 0 114.5 31.5t70.5 96.5q7 29 25 48.5t57 19.5q66 0 66 -60
q0 -50 -38.5 -113t-114 -108t-180.5 -45q-93 0 -166 38t-113.5 107t-40.5 157q0 106 56 202t150 155t202 59q100 0 149 -52l1 4q4 20 23 32t49 12t46 -14zM560 771q-12 19 -34 57q-3 4 -11.5 18.5t-11.5 14.5q-5 0 -41 -34l-48 -45q-17 -15 -28.5 -21t-24.5 -6
q-20 0 -33 12.5t-13 31.5q0 10 6 23t17 23l32 29q50 47 86 74t62 27q30 0 47 -16t42 -55q5 -7 18.5 -27.5t27.5 -37.5q9 -13 9 -27q0 -25 -18 -43.5t-42 -18.5q-29 0 -42 21z" />
    <glyph glyph-name="Cdotaccent" unicode="&#x10a;" horiz-adv-x="742" 
d="M737 696q16 -14 16 -35q0 -8 -1 -12l-22 -116q-13 -69 -81 -69q-18 0 -32.5 6t-20.5 17q-17 33 -30 51t-37 32t-60 14q-65 0 -125.5 -44t-98 -111.5t-37.5 -134.5q0 -76 48.5 -122t124.5 -46q61 0 114.5 31.5t70.5 96.5q7 29 25 48.5t57 19.5q66 0 66 -60
q0 -50 -38.5 -113t-114 -108t-180.5 -45q-93 0 -166 38t-113.5 107t-40.5 157q0 106 56 202t150 155t202 59q100 0 149 -52l1 4q4 20 23 32t49 12t46 -14zM437 778q-19 19 -19 48q0 34 29 61t64 27q27 0 46 -18.5t19 -44.5q0 -35 -28.5 -63.5t-63.5 -28.5q-28 0 -47 19z" />
    <glyph glyph-name="D" unicode="D" horiz-adv-x="717" 
d="M602 599q92 -77 92 -209q0 -117 -67.5 -204.5t-183 -134t-256.5 -46.5h-75q-40 0 -56 11.5t-16 39.5q0 32 18 54.5t51 22.5h9l66 441h-6q-21 0 -30 9t-9 33q0 43 20.5 65t49.5 22h12q19 16 58 16q23 0 36.5 -5.5t19.5 -17.5q175 -20 267 -97zM404 179.5q65 35.5 104 91
t39 119.5q0 143 -220 175l-64 -430q76 9 141 44.5z" />
    <glyph glyph-name="Eth" unicode="&#xd0;" horiz-adv-x="720" 
d="M594 612q97 -78 97 -215q0 -116 -70 -205.5t-188 -138t-258 -48.5h-65q-38 0 -55 11.5t-17 40.5q0 32 18 50.5t50 23.5l24 161h-9q-39 1 -60 16.5t-21 45.5q0 36 30.5 61t79.5 24h1l22 144q-35 14 -35 50q0 53 69 65q22 19 64 19q39 0 60 -16q166 -11 263 -89zM404 185.5
q58 35.5 90.5 89.5t32.5 119q0 87 -53.5 125.5t-137.5 48.5l-20 -134l28 -1q38 -1 57.5 -18t19.5 -46q0 -36 -28.5 -59t-74.5 -23l-24 1l-22 -150q74 12 132 47.5z" />
    <glyph glyph-name="Dcaron" unicode="&#x10e;" horiz-adv-x="717" 
d="M602 599q92 -77 92 -209q0 -117 -67.5 -204.5t-183 -134t-256.5 -46.5h-75q-40 0 -56 11.5t-16 39.5q0 32 18 54.5t51 22.5h9l66 441h-6q-21 0 -30 9t-9 33q0 43 20.5 65t49.5 22h12q19 16 58 16q23 0 36.5 -5.5t19.5 -17.5q175 -20 267 -97zM404 179.5q65 35.5 104 91
t39 119.5q0 143 -220 175l-64 -430q76 9 141 44.5zM628.5 973q11.5 -12 11.5 -30q0 -13 -5.5 -23.5t-16.5 -23.5l-22 -23q-57 -63 -89 -88t-72 -25q-33 0 -65 37t-69 93q-10 14 -10 30q0 23 20.5 41.5t44.5 18.5q13 0 22 -6t21 -21q13 -17 34 -47q9 -14 16.5 -23t10.5 -9
t13 10.5t24 24.5q21 24 52 55q20 21 49 21q19 0 30.5 -12z" />
    <glyph glyph-name="Dcroat" unicode="&#x110;" horiz-adv-x="720" 
d="M594 612q97 -78 97 -215q0 -116 -70 -205.5t-188 -138t-258 -48.5h-65q-38 0 -55 11.5t-17 40.5q0 32 18 50.5t50 23.5l24 161h-9q-39 1 -60 16.5t-21 45.5q0 36 30.5 61t79.5 24h1l22 144q-35 14 -35 50q0 53 69 65q22 19 64 19q39 0 60 -16q166 -11 263 -89zM404 185.5
q58 35.5 90.5 89.5t32.5 119q0 87 -53.5 125.5t-137.5 48.5l-20 -134l28 -1q38 -1 57.5 -18t19.5 -46q0 -36 -28.5 -59t-74.5 -23l-24 1l-22 -150q74 12 132 47.5z" />
    <glyph glyph-name="uni1E0C" unicode="&#x1e0c;" horiz-adv-x="717" 
d="M602 599q92 -77 92 -209q0 -117 -67.5 -204.5t-183 -134t-256.5 -46.5h-75q-40 0 -56 11.5t-16 39.5q0 32 18 54.5t51 22.5h9l66 441h-6q-21 0 -30 9t-9 33q0 43 20.5 65t49.5 22h12q19 16 58 16q23 0 36.5 -5.5t19.5 -17.5q175 -20 267 -97zM404 179.5q65 35.5 104 91
t39 119.5q0 143 -220 175l-64 -430q76 9 141 44.5zM216.5 -197.5q-17.5 17.5 -17.5 45.5q0 39 27.5 65.5t65.5 26.5q30 0 47.5 -17t17.5 -44q0 -40 -27.5 -67t-65.5 -27q-30 0 -47.5 17.5z" />
    <glyph glyph-name="uni1E0E" unicode="&#x1e0e;" horiz-adv-x="717" 
d="M602 599q92 -77 92 -209q0 -117 -67.5 -204.5t-183 -134t-256.5 -46.5h-75q-40 0 -56 11.5t-16 39.5q0 32 18 54.5t51 22.5h9l66 441h-6q-21 0 -30 9t-9 33q0 43 20.5 65t49.5 22h12q19 16 58 16q23 0 36.5 -5.5t19.5 -17.5q175 -20 267 -97zM404 179.5q65 35.5 104 91
t39 119.5q0 143 -220 175l-64 -430q76 9 141 44.5zM104.5 -187.5q-11.5 12.5 -11.5 32.5q0 24 16 43t39 21q75 9 188 9q37 0 75 -2q11 -1 27 -1q22 0 35 -12t13 -32q0 -27 -19.5 -45.5t-46.5 -18.5l-28 1q-54 3 -76 3q-47 0 -140 -8q-29 -3 -41 -3q-19 0 -30.5 12.5z" />
    <glyph glyph-name="E" unicode="E" horiz-adv-x="640" 
d="M670 646q0 -33 -20 -57.5t-48 -22.5q-90 8 -161 8q-34 0 -84 -2l-24 -1l-16 -99l-6 -41h12q154 0 191 -4q16 -2 26 -10t10 -31q0 -32 -16.5 -59t-41.5 -27q-44 0 -61 1l-120 1h-22q-15 -83 -41 -162q38 -4 95 -4q58 0 93 2t72 7q5 1 13 1q46 0 46 -49q0 -65 -66 -79
q-50 -9 -201 -9q-55 0 -104 3t-120 12q-35 4 -35 42q0 33 13.5 57t38.5 24h11q25 76 39 156h-8q-18 0 -28 11t-10 33q0 38 16 62t42 24h10q9 43 24 132h-3q-14 0 -21 13t-7 30q0 80 83 88q41 5 132 5h45q135 0 199 -8q53 -5 53 -47z" />
    <glyph glyph-name="Eacute" unicode="&#xc9;" horiz-adv-x="640" 
d="M670 646q0 -33 -20 -57.5t-48 -22.5q-90 8 -161 8q-34 0 -84 -2l-24 -1l-16 -99l-6 -41h12q154 0 191 -4q16 -2 26 -10t10 -31q0 -32 -16.5 -59t-41.5 -27q-44 0 -61 1l-120 1h-22q-15 -83 -41 -162q38 -4 95 -4q58 0 93 2t72 7q5 1 13 1q46 0 46 -49q0 -65 -66 -79
q-50 -9 -201 -9q-55 0 -104 3t-120 12q-35 4 -35 42q0 33 13.5 57t38.5 24h11q25 76 39 156h-8q-18 0 -28 11t-10 33q0 38 16 62t42 24h10q9 43 24 132h-3q-14 0 -21 13t-7 30q0 80 83 88q41 5 132 5h45q135 0 199 -8q53 -5 53 -47zM366 775.5q-13 15.5 -13 34.5q0 27 29 49
l103 78q26 19 38 26t26 7q20 0 32.5 -15t12.5 -36q0 -33 -34 -56l-110 -79q-21 -15 -30 -19.5t-22 -4.5q-19 0 -32 15.5z" />
    <glyph glyph-name="Ebreve" unicode="&#x114;" horiz-adv-x="640" 
d="M670 646q0 -33 -20 -57.5t-48 -22.5q-90 8 -161 8q-34 0 -84 -2l-24 -1l-16 -99l-6 -41h12q154 0 191 -4q16 -2 26 -10t10 -31q0 -32 -16.5 -59t-41.5 -27q-44 0 -61 1l-120 1h-22q-15 -83 -41 -162q38 -4 95 -4q58 0 93 2t72 7q5 1 13 1q46 0 46 -49q0 -65 -66 -79
q-50 -9 -201 -9q-55 0 -104 3t-120 12q-35 4 -35 42q0 33 13.5 57t38.5 24h11q25 76 39 156h-8q-18 0 -28 11t-10 33q0 38 16 62t42 24h10q9 43 24 132h-3q-14 0 -21 13t-7 30q0 80 83 88q41 5 132 5h45q135 0 199 -8q53 -5 53 -47zM362 765.5q-38 16.5 -59.5 46.5t-21.5 67
q0 24 10 44q19 33 54 33q18 0 31 -8.5t13 -23.5v-13q3 -70 65 -70q29 0 54 20t33 59q4 19 21 29t37 10q19 0 32 -12.5t13 -30.5q0 -42 -29 -81t-75.5 -62.5t-93.5 -23.5q-46 0 -84 16.5z" />
    <glyph glyph-name="Ecaron" unicode="&#x11a;" horiz-adv-x="640" 
d="M670 646q0 -33 -20 -57.5t-48 -22.5q-90 8 -161 8q-34 0 -84 -2l-24 -1l-16 -99l-6 -41h12q154 0 191 -4q16 -2 26 -10t10 -31q0 -32 -16.5 -59t-41.5 -27q-44 0 -61 1l-120 1h-22q-15 -83 -41 -162q38 -4 95 -4q58 0 93 2t72 7q5 1 13 1q46 0 46 -49q0 -65 -66 -79
q-50 -9 -201 -9q-55 0 -104 3t-120 12q-35 4 -35 42q0 33 13.5 57t38.5 24h11q25 76 39 156h-8q-18 0 -28 11t-10 33q0 38 16 62t42 24h10q9 43 24 132h-3q-14 0 -21 13t-7 30q0 80 83 88q41 5 132 5h45q135 0 199 -8q53 -5 53 -47zM629.5 973q11.5 -12 11.5 -30
q0 -13 -5.5 -23.5t-16.5 -23.5l-22 -23q-57 -63 -89 -88t-72 -25q-33 0 -65 37t-69 93q-10 14 -10 30q0 23 20.5 41.5t44.5 18.5q13 0 22 -6t21 -21q13 -17 34 -47q9 -14 16.5 -23t10.5 -9t13 10.5t24 24.5q21 24 52 55q20 21 49 21q19 0 30.5 -12z" />
    <glyph glyph-name="Ecircumflex" unicode="&#xca;" horiz-adv-x="640" 
d="M670 646q0 -33 -20 -57.5t-48 -22.5q-90 8 -161 8q-34 0 -84 -2l-24 -1l-16 -99l-6 -41h12q154 0 191 -4q16 -2 26 -10t10 -31q0 -32 -16.5 -59t-41.5 -27q-44 0 -61 1l-120 1h-22q-15 -83 -41 -162q38 -4 95 -4q58 0 93 2t72 7q5 1 13 1q46 0 46 -49q0 -65 -66 -79
q-50 -9 -201 -9q-55 0 -104 3t-120 12q-35 4 -35 42q0 33 13.5 57t38.5 24h11q25 76 39 156h-8q-18 0 -28 11t-10 33q0 38 16 62t42 24h10q9 43 24 132h-3q-14 0 -21 13t-7 30q0 80 83 88q41 5 132 5h45q135 0 199 -8q53 -5 53 -47zM516 771q-12 19 -34 57q-3 4 -11.5 18.5
t-11.5 14.5q-5 0 -41 -34l-48 -45q-17 -15 -28.5 -21t-24.5 -6q-20 0 -33 12.5t-13 31.5q0 10 6 23t17 23l32 29q50 47 86 74t62 27q30 0 47 -16t42 -55q5 -7 18.5 -27.5t27.5 -37.5q9 -13 9 -27q0 -25 -18 -43.5t-42 -18.5q-29 0 -42 21z" />
    <glyph glyph-name="uni1EBE" unicode="&#x1ebe;" horiz-adv-x="640" 
d="M670 646q0 -33 -20 -57.5t-48 -22.5q-90 8 -161 8q-34 0 -84 -2l-24 -1l-16 -99l-6 -41h12q154 0 191 -4q16 -2 26 -10t10 -31q0 -32 -16.5 -59t-41.5 -27q-44 0 -61 1l-120 1h-22q-15 -83 -41 -162q38 -4 95 -4q58 0 93 2t72 7q5 1 13 1q46 0 46 -49q0 -65 -66 -79
q-50 -9 -201 -9q-55 0 -104 3t-120 12q-35 4 -35 42q0 33 13.5 57t38.5 24h11q25 76 39 156h-8q-18 0 -28 11t-10 33q0 38 16 62t42 24h10q9 43 24 132h-3q-14 0 -21 13t-7 30q0 80 83 88q41 5 132 5h45q135 0 199 -8q53 -5 53 -47zM598.5 954.5q-11.5 12.5 -11.5 30.5
q0 27 28 53l42 40q18 17 32 24.5t29 7.5q20 0 32 -12t12 -31t-10 -34.5t-23 -25.5l-49 -41q-28 -24 -52 -24q-18 0 -29.5 12.5zM517 772q-12 19 -34 57q-3 4 -11.5 18.5t-11.5 14.5q-5 0 -41 -34l-48 -45q-17 -15 -28.5 -21t-24.5 -6q-20 0 -33 12.5t-13 31.5q0 10 6 23
t17 23l32 29q50 47 86 74t62 27q30 0 47 -16t42 -55q5 -7 18.5 -27.5t27.5 -37.5q9 -13 9 -27q0 -25 -18 -43.5t-42 -18.5q-29 0 -42 21z" />
    <glyph glyph-name="uni1EC6" unicode="&#x1ec6;" horiz-adv-x="640" 
d="M670 646q0 -33 -20 -57.5t-48 -22.5q-90 8 -161 8q-34 0 -84 -2l-24 -1l-16 -99l-6 -41h12q154 0 191 -4q16 -2 26 -10t10 -31q0 -32 -16.5 -59t-41.5 -27q-44 0 -61 1l-120 1h-22q-15 -83 -41 -162q38 -4 95 -4q58 0 93 2t72 7q5 1 13 1q46 0 46 -49q0 -65 -66 -79
q-50 -9 -201 -9q-55 0 -104 3t-120 12q-35 4 -35 42q0 33 13.5 57t38.5 24h11q25 76 39 156h-8q-18 0 -28 11t-10 33q0 38 16 62t42 24h10q9 43 24 132h-3q-14 0 -21 13t-7 30q0 80 83 88q41 5 132 5h45q135 0 199 -8q53 -5 53 -47zM217.5 -197.5q-17.5 17.5 -17.5 45.5
q0 39 27.5 65.5t65.5 26.5q30 0 47.5 -17t17.5 -44q0 -40 -27.5 -67t-65.5 -27q-30 0 -47.5 17.5zM516 771q-12 19 -34 57q-3 4 -11.5 18.5t-11.5 14.5q-5 0 -41 -34l-48 -45q-17 -15 -28.5 -21t-24.5 -6q-20 0 -33 12.5t-13 31.5q0 10 6 23t17 23l32 29q50 47 86 74t62 27
q30 0 47 -16t42 -55q5 -7 18.5 -27.5t27.5 -37.5q9 -13 9 -27q0 -25 -18 -43.5t-42 -18.5q-29 0 -42 21z" />
    <glyph glyph-name="uni1EC0" unicode="&#x1ec0;" horiz-adv-x="640" 
d="M670 646q0 -33 -20 -57.5t-48 -22.5q-90 8 -161 8q-34 0 -84 -2l-24 -1l-16 -99l-6 -41h12q154 0 191 -4q16 -2 26 -10t10 -31q0 -32 -16.5 -59t-41.5 -27q-44 0 -61 1l-120 1h-22q-15 -83 -41 -162q38 -4 95 -4q58 0 93 2t72 7q5 1 13 1q46 0 46 -49q0 -65 -66 -79
q-50 -9 -201 -9q-55 0 -104 3t-120 12q-35 4 -35 42q0 33 13.5 57t38.5 24h11q25 76 39 156h-8q-18 0 -28 11t-10 33q0 38 16 62t42 24h10q9 43 24 132h-3q-14 0 -21 13t-7 30q0 80 83 88q41 5 132 5h45q135 0 199 -8q53 -5 53 -47zM589 966l-34 41q-16 18 -16 40
q0 26 19 44.5t44 18.5q28 0 50 -32l28 -40q12 -17 12 -37q0 -24 -18 -41.5t-41 -17.5q-24 0 -44 24zM517 772q-12 19 -34 57q-3 4 -11.5 18.5t-11.5 14.5q-5 0 -41 -34l-48 -45q-17 -15 -28.5 -21t-24.5 -6q-20 0 -33 12.5t-13 31.5q0 10 6 23t17 23l32 29q50 47 86 74
t62 27q30 0 47 -16t42 -55q5 -7 18.5 -27.5t27.5 -37.5q9 -13 9 -27q0 -25 -18 -43.5t-42 -18.5q-29 0 -42 21z" />
    <glyph glyph-name="uni1EC2" unicode="&#x1ec2;" horiz-adv-x="640" 
d="M670 646q0 -33 -20 -57.5t-48 -22.5q-90 8 -161 8q-34 0 -84 -2l-24 -1l-16 -99l-6 -41h12q154 0 191 -4q16 -2 26 -10t10 -31q0 -32 -16.5 -59t-41.5 -27q-44 0 -61 1l-120 1h-22q-15 -83 -41 -162q38 -4 95 -4q58 0 93 2t72 7q5 1 13 1q46 0 46 -49q0 -65 -66 -79
q-50 -9 -201 -9q-55 0 -104 3t-120 12q-35 4 -35 42q0 33 13.5 57t38.5 24h11q25 76 39 156h-8q-18 0 -28 11t-10 33q0 38 16 62t42 24h10q9 43 24 132h-3q-14 0 -21 13t-7 30q0 80 83 88q41 5 132 5h45q135 0 199 -8q53 -5 53 -47zM611.5 952.5q-10.5 9.5 -10.5 22.5
q0 11 5 33q1 7 10.5 14.5t19.5 14.5q16 10 25 19t9 18q0 7 -5 12.5t-16 5.5q-31 0 -38 -20q-4 -11 -14 -17t-20 -6q-13 0 -19.5 8t-6.5 20q0 36 34.5 59.5t77.5 23.5q37 0 62.5 -18.5t25.5 -49.5q0 -20 -11 -34.5t-30 -30.5q-8 -6 -14 -12.5t-7 -11.5l-4 -24
q-2 -17 -16.5 -26.5t-32.5 -9.5q-14 0 -24.5 9.5zM517 772q-12 19 -34 57q-3 4 -11.5 18.5t-11.5 14.5q-5 0 -41 -34l-48 -45q-17 -15 -28.5 -21t-24.5 -6q-20 0 -33 12.5t-13 31.5q0 10 6 23t17 23l32 29q50 47 86 74t62 27q30 0 47 -16t42 -55q5 -7 18.5 -27.5t27.5 -37.5
q9 -13 9 -27q0 -25 -18 -43.5t-42 -18.5q-29 0 -42 21z" />
    <glyph glyph-name="uni1EC4" unicode="&#x1ec4;" horiz-adv-x="640" 
d="M670 646q0 -33 -20 -57.5t-48 -22.5q-90 8 -161 8q-34 0 -84 -2l-24 -1l-16 -99l-6 -41h12q154 0 191 -4q16 -2 26 -10t10 -31q0 -32 -16.5 -59t-41.5 -27q-44 0 -61 1l-120 1h-22q-15 -83 -41 -162q38 -4 95 -4q58 0 93 2t72 7q5 1 13 1q46 0 46 -49q0 -65 -66 -79
q-50 -9 -201 -9q-55 0 -104 3t-120 12q-35 4 -35 42q0 33 13.5 57t38.5 24h11q25 76 39 156h-8q-18 0 -28 11t-10 33q0 38 16 62t42 24h10q9 43 24 132h-3q-14 0 -21 13t-7 30q0 80 83 88q41 5 132 5h45q135 0 199 -8q53 -5 53 -47zM320.5 1027q-11.5 11 -11.5 27
q0 21 22 40q33 28 56.5 38.5t54.5 10.5q43 0 85 -21q11 -6 25 -11t22 -5q11 0 22 7q7 4 16 10.5t15.5 9.5t14.5 3q17 0 29.5 -13t12.5 -29q0 -11 -6 -21.5t-16 -17.5q-58 -39 -101 -39q-19 0 -36 5.5t-30 11.5t-18 8q-7 3 -19.5 9t-20.5 6q-7 0 -15.5 -4.5t-22.5 -15.5
q-25 -20 -47 -20q-20 0 -31.5 11zM517 772q-12 19 -34 57q-3 4 -11.5 18.5t-11.5 14.5q-5 0 -41 -34l-48 -45q-17 -15 -28.5 -21t-24.5 -6q-20 0 -33 12.5t-13 31.5q0 10 6 23t17 23l32 29q50 47 86 74t62 27q30 0 47 -16t42 -55q5 -7 18.5 -27.5t27.5 -37.5q9 -13 9 -27
q0 -25 -18 -43.5t-42 -18.5q-29 0 -42 21z" />
    <glyph glyph-name="Edieresis" unicode="&#xcb;" horiz-adv-x="640" 
d="M670 646q0 -33 -20 -57.5t-48 -22.5q-90 8 -161 8q-34 0 -84 -2l-24 -1l-16 -99l-6 -41h12q154 0 191 -4q16 -2 26 -10t10 -31q0 -32 -16.5 -59t-41.5 -27q-44 0 -61 1l-120 1h-22q-15 -83 -41 -162q38 -4 95 -4q58 0 93 2t72 7q5 1 13 1q46 0 46 -49q0 -65 -66 -79
q-50 -9 -201 -9q-55 0 -104 3t-120 12q-35 4 -35 42q0 33 13.5 57t38.5 24h11q25 76 39 156h-8q-18 0 -28 11t-10 33q0 38 16 62t42 24h10q9 43 24 132h-3q-14 0 -21 13t-7 30q0 80 83 88q41 5 132 5h45q135 0 199 -8q53 -5 53 -47zM254.5 779q-18.5 19 -18.5 46
q0 35 28.5 62.5t63.5 27.5q28 0 47.5 -19.5t19.5 -45.5q0 -34 -29.5 -62t-64.5 -28q-28 0 -46.5 19zM530.5 779q-18.5 19 -18.5 46q0 35 28.5 62.5t63.5 27.5q28 0 47 -19t19 -46q0 -34 -29 -62t-64 -28q-28 0 -46.5 19z" />
    <glyph glyph-name="Edotaccent" unicode="&#x116;" horiz-adv-x="640" 
d="M670 646q0 -33 -20 -57.5t-48 -22.5q-90 8 -161 8q-34 0 -84 -2l-24 -1l-16 -99l-6 -41h12q154 0 191 -4q16 -2 26 -10t10 -31q0 -32 -16.5 -59t-41.5 -27q-44 0 -61 1l-120 1h-22q-15 -83 -41 -162q38 -4 95 -4q58 0 93 2t72 7q5 1 13 1q46 0 46 -49q0 -65 -66 -79
q-50 -9 -201 -9q-55 0 -104 3t-120 12q-35 4 -35 42q0 33 13.5 57t38.5 24h11q25 76 39 156h-8q-18 0 -28 11t-10 33q0 38 16 62t42 24h10q9 43 24 132h-3q-14 0 -21 13t-7 30q0 80 83 88q41 5 132 5h45q135 0 199 -8q53 -5 53 -47zM393 778q-19 19 -19 48q0 34 29 61t64 27
q27 0 46 -18.5t19 -44.5q0 -35 -28.5 -63.5t-63.5 -28.5q-28 0 -47 19z" />
    <glyph glyph-name="uni1EB8" unicode="&#x1eb8;" horiz-adv-x="640" 
d="M670 646q0 -33 -20 -57.5t-48 -22.5q-90 8 -161 8q-34 0 -84 -2l-24 -1l-16 -99l-6 -41h12q154 0 191 -4q16 -2 26 -10t10 -31q0 -32 -16.5 -59t-41.5 -27q-44 0 -61 1l-120 1h-22q-15 -83 -41 -162q38 -4 95 -4q58 0 93 2t72 7q5 1 13 1q46 0 46 -49q0 -65 -66 -79
q-50 -9 -201 -9q-55 0 -104 3t-120 12q-35 4 -35 42q0 33 13.5 57t38.5 24h11q25 76 39 156h-8q-18 0 -28 11t-10 33q0 38 16 62t42 24h10q9 43 24 132h-3q-14 0 -21 13t-7 30q0 80 83 88q41 5 132 5h45q135 0 199 -8q53 -5 53 -47zM217.5 -197.5q-17.5 17.5 -17.5 45.5
q0 39 27.5 65.5t65.5 26.5q30 0 47.5 -17t17.5 -44q0 -40 -27.5 -67t-65.5 -27q-30 0 -47.5 17.5z" />
    <glyph glyph-name="Egrave" unicode="&#xc8;" horiz-adv-x="640" 
d="M670 646q0 -33 -20 -57.5t-48 -22.5q-90 8 -161 8q-34 0 -84 -2l-24 -1l-16 -99l-6 -41h12q154 0 191 -4q16 -2 26 -10t10 -31q0 -32 -16.5 -59t-41.5 -27q-44 0 -61 1l-120 1h-22q-15 -83 -41 -162q38 -4 95 -4q58 0 93 2t72 7q5 1 13 1q46 0 46 -49q0 -65 -66 -79
q-50 -9 -201 -9q-55 0 -104 3t-120 12q-35 4 -35 42q0 33 13.5 57t38.5 24h11q25 76 39 156h-8q-18 0 -28 11t-10 33q0 38 16 62t42 24h10q9 43 24 132h-3q-14 0 -21 13t-7 30q0 80 83 88q41 5 132 5h45q135 0 199 -8q53 -5 53 -47zM446 755.5q-10 5.5 -20 18.5l-64 86
q-15 20 -15 42q0 25 19 43t44 18q15 0 26.5 -7.5t22.5 -24.5l58 -85q12 -19 12 -37q0 -24 -18 -41.5t-41 -17.5q-14 0 -24 5.5z" />
    <glyph glyph-name="uni1EBA" unicode="&#x1eba;" horiz-adv-x="640" 
d="M670 646q0 -33 -20 -57.5t-48 -22.5q-90 8 -161 8q-34 0 -84 -2l-24 -1l-16 -99l-6 -41h12q154 0 191 -4q16 -2 26 -10t10 -31q0 -32 -16.5 -59t-41.5 -27q-44 0 -61 1l-120 1h-22q-15 -83 -41 -162q38 -4 95 -4q58 0 93 2t72 7q5 1 13 1q46 0 46 -49q0 -65 -66 -79
q-50 -9 -201 -9q-55 0 -104 3t-120 12q-35 4 -35 42q0 33 13.5 57t38.5 24h11q25 76 39 156h-8q-18 0 -28 11t-10 33q0 38 16 62t42 24h10q9 43 24 132h-3q-14 0 -21 13t-7 30q0 80 83 88q41 5 132 5h45q135 0 199 -8q53 -5 53 -47zM394.5 762.5q-14.5 13.5 -11.5 32.5l9 50
q2 11 12 19.5t29 20.5q22 14 34 25t12 26q0 11 -7.5 20t-22.5 9q-18 0 -30 -8t-25 -25q-22 -29 -47 -29q-15 0 -25.5 11.5t-10.5 23.5q0 18 17 40q30 39 63.5 57.5t77.5 18.5q54 0 90 -26.5t36 -68.5q0 -32 -15 -51t-43 -38q-11 -8 -20 -16t-12 -16l-6 -41q-4 -24 -22.5 -36
t-45.5 -12q-22 0 -36.5 13.5z" />
    <glyph glyph-name="Emacron" unicode="&#x112;" horiz-adv-x="640" 
d="M670 646q0 -33 -20 -57.5t-48 -22.5q-90 8 -161 8q-34 0 -84 -2l-24 -1l-16 -99l-6 -41h12q154 0 191 -4q16 -2 26 -10t10 -31q0 -32 -16.5 -59t-41.5 -27q-44 0 -61 1l-120 1h-22q-15 -83 -41 -162q38 -4 95 -4q58 0 93 2t72 7q5 1 13 1q46 0 46 -49q0 -65 -66 -79
q-50 -9 -201 -9q-55 0 -104 3t-120 12q-35 4 -35 42q0 33 13.5 57t38.5 24h11q25 76 39 156h-8q-18 0 -28 11t-10 33q0 38 16 62t42 24h10q9 43 24 132h-3q-14 0 -21 13t-7 30q0 80 83 88q41 5 132 5h45q135 0 199 -8q53 -5 53 -47zM244 789q-10 12 -10 31q0 29 16.5 46.5
t44.5 22.5q40 7 77.5 11t91.5 4l147 1q22 0 34.5 -13t12.5 -34q0 -28 -18.5 -46t-47.5 -18l-43 1q-38 3 -86 3q-54 0 -98 -5t-93 -13q-18 -3 -28 9z" />
    <glyph glyph-name="Eogonek" unicode="&#x118;" horiz-adv-x="640" 
d="M670 646q0 -33 -20 -57.5t-48 -22.5q-90 8 -161 8q-34 0 -84 -2l-24 -1l-16 -99l-6 -41h12q154 0 191 -4q16 -2 26 -10t10 -31q0 -32 -16.5 -59t-41.5 -27q-44 0 -61 1l-120 1h-22q-15 -83 -41 -162q38 -4 95 -4q58 0 93 2t72 7q5 1 13 1q46 0 46 -49q0 -41 -27 -62
l-9 -8q-29 -21 -45 -37t-16 -31q0 -10 7 -13.5t20 -3.5q5 0 21 4q15 5 23 5q10 0 17 -7.5t7 -21.5q0 -34 -23 -52.5t-64 -18.5q-49 0 -78 26t-29 66q0 37 21 67q-29 -1 -92 -1q-55 0 -104 3t-120 12q-35 4 -35 42q0 33 13.5 57t38.5 24h11q25 76 39 156h-8q-18 0 -28 11
t-10 33q0 38 16 62t42 24h10q9 43 24 132h-3q-14 0 -21 13t-7 30q0 80 83 88q41 5 132 5h45q135 0 199 -8q53 -5 53 -47z" />
    <glyph glyph-name="uni1EBC" unicode="&#x1ebc;" horiz-adv-x="640" 
d="M670 646q0 -33 -20 -57.5t-48 -22.5q-90 8 -161 8q-34 0 -84 -2l-24 -1l-16 -99l-6 -41h12q154 0 191 -4q16 -2 26 -10t10 -31q0 -32 -16.5 -59t-41.5 -27q-44 0 -61 1l-120 1h-22q-15 -83 -41 -162q38 -4 95 -4q58 0 93 2t72 7q5 1 13 1q46 0 46 -49q0 -65 -66 -79
q-50 -9 -201 -9q-55 0 -104 3t-120 12q-35 4 -35 42q0 33 13.5 57t38.5 24h11q25 76 39 156h-8q-18 0 -28 11t-10 33q0 38 16 62t42 24h10q9 43 24 132h-3q-14 0 -21 13t-7 30q0 80 83 88q41 5 132 5h45q135 0 199 -8q53 -5 53 -47zM275.5 783.5q-12.5 13.5 -12.5 30.5
q0 24 21 45q34 34 60.5 48t57.5 14q24 0 49 -6.5t45 -18.5q17 -10 26 -14.5t13 -4.5q7 0 15 8q13 13 23.5 18.5t22.5 5.5q18 0 32 -14t14 -33q0 -25 -24 -46q-53 -46 -102 -46q-23 0 -42 8t-41 21q-2 1 -16.5 9.5t-24.5 8.5q-6 0 -14.5 -6.5t-20.5 -17.5q-26 -23 -50 -23
q-19 0 -31.5 13.5z" />
    <glyph glyph-name="F" unicode="F" horiz-adv-x="641" 
d="M672 647q0 -35 -21 -59t-52 -20q-102 11 -195 11q-40 0 -64 -1q-9 -102 -17 -156h45q114 0 159 -11q44 -12 44 -48q0 -33 -19 -56.5t-56 -20.5q-78 8 -146 8q-33 0 -48 -1q-18 -95 -50 -228q-6 -27 -27.5 -43.5t-55.5 -16.5q-28 0 -45.5 12.5t-17.5 35.5q0 9 1 13
q-1 -3 17 79q20 85 30 137q-7 0 -14 -1t-13 -1q-17 0 -27 13t-10 34q0 38 19.5 56.5t56.5 25.5l10 2q8 55 17 164h-8q-23 0 -35 10t-12 34q0 39 17.5 59t45.5 23q4 0 6 1q0 5 1 8q4 21 28.5 35t59.5 14q60 0 60 -40q0 -7 -1 -10v-2h51q57 0 126.5 -3.5t92.5 -8.5
q47 -10 47 -48z" />
    <glyph glyph-name="G" unicode="G" horiz-adv-x="770" 
d="M756 336q0 -31 -17.5 -55t-49.5 -23h-12q-32 -124 -110.5 -191.5t-198.5 -67.5q-93 0 -162 39.5t-106 109t-37 156.5q0 107 52.5 196t141.5 140.5t194 51.5q72 0 117.5 -26.5t66.5 -62.5l3 15q5 25 17.5 37.5t40.5 12.5q31 0 51.5 -13t20.5 -37q0 -22 -10.5 -59.5
t-23.5 -55.5q-13 -17 -29.5 -24.5t-39.5 -7.5q-18 0 -35 7.5t-36 28.5q-22 25 -48.5 39.5t-76.5 14.5q-71 0 -130.5 -35t-94 -93.5t-34.5 -125.5q0 -54 22.5 -94t61 -62t85.5 -22q56 0 96.5 32.5t61.5 97.5l-101 2q-58 1 -58 51q0 35 20.5 58t56.5 22l234 -5q67 -1 67 -51z
" />
    <glyph glyph-name="Gbreve" unicode="&#x11e;" horiz-adv-x="770" 
d="M756 336q0 -31 -17.5 -55t-49.5 -23h-12q-32 -124 -110.5 -191.5t-198.5 -67.5q-93 0 -162 39.5t-106 109t-37 156.5q0 107 52.5 196t141.5 140.5t194 51.5q72 0 117.5 -26.5t66.5 -62.5l3 15q5 25 17.5 37.5t40.5 12.5q31 0 51.5 -13t20.5 -37q0 -22 -10.5 -59.5
t-23.5 -55.5q-13 -17 -29.5 -24.5t-39.5 -7.5q-18 0 -35 7.5t-36 28.5q-22 25 -48.5 39.5t-76.5 14.5q-71 0 -130.5 -35t-94 -93.5t-34.5 -125.5q0 -54 22.5 -94t61 -62t85.5 -22q56 0 96.5 32.5t61.5 97.5l-101 2q-58 1 -58 51q0 35 20.5 58t56.5 22l234 -5q67 -1 67 -51z
M414 765.5q-38 16.5 -59.5 46.5t-21.5 67q0 24 10 44q19 33 54 33q18 0 31 -8.5t13 -23.5v-13q3 -70 65 -70q29 0 54 20t33 59q4 19 21 29t37 10q19 0 32 -12.5t13 -30.5q0 -42 -29 -81t-75.5 -62.5t-93.5 -23.5q-46 0 -84 16.5z" />
    <glyph glyph-name="Gcaron" unicode="&#x1e6;" horiz-adv-x="770" 
d="M756 336q0 -31 -17.5 -55t-49.5 -23h-12q-32 -124 -110.5 -191.5t-198.5 -67.5q-93 0 -162 39.5t-106 109t-37 156.5q0 107 52.5 196t141.5 140.5t194 51.5q72 0 117.5 -26.5t66.5 -62.5l3 15q5 25 17.5 37.5t40.5 12.5q31 0 51.5 -13t20.5 -37q0 -22 -10.5 -59.5
t-23.5 -55.5q-13 -17 -29.5 -24.5t-39.5 -7.5q-18 0 -35 7.5t-36 28.5q-22 25 -48.5 39.5t-76.5 14.5q-71 0 -130.5 -35t-94 -93.5t-34.5 -125.5q0 -54 22.5 -94t61 -62t85.5 -22q56 0 96.5 32.5t61.5 97.5l-101 2q-58 1 -58 51q0 35 20.5 58t56.5 22l234 -5q67 -1 67 -51z
M681.5 973q11.5 -12 11.5 -30q0 -13 -5.5 -23.5t-16.5 -23.5l-22 -23q-57 -63 -89 -88t-72 -25q-33 0 -65 37t-69 93q-10 14 -10 30q0 23 20.5 41.5t44.5 18.5q13 0 22 -6t21 -21q13 -17 34 -47q9 -14 16.5 -23t10.5 -9t13 10.5t24 24.5q21 24 52 55q20 21 49 21
q19 0 30.5 -12z" />
    <glyph glyph-name="Gcircumflex" unicode="&#x11c;" horiz-adv-x="770" 
d="M756 336q0 -31 -17.5 -55t-49.5 -23h-12q-32 -124 -110.5 -191.5t-198.5 -67.5q-93 0 -162 39.5t-106 109t-37 156.5q0 107 52.5 196t141.5 140.5t194 51.5q72 0 117.5 -26.5t66.5 -62.5l3 15q5 25 17.5 37.5t40.5 12.5q31 0 51.5 -13t20.5 -37q0 -22 -10.5 -59.5
t-23.5 -55.5q-13 -17 -29.5 -24.5t-39.5 -7.5q-18 0 -35 7.5t-36 28.5q-22 25 -48.5 39.5t-76.5 14.5q-71 0 -130.5 -35t-94 -93.5t-34.5 -125.5q0 -54 22.5 -94t61 -62t85.5 -22q56 0 96.5 32.5t61.5 97.5l-101 2q-58 1 -58 51q0 35 20.5 58t56.5 22l234 -5q67 -1 67 -51z
M568 771q-12 19 -34 57q-3 4 -11.5 18.5t-11.5 14.5q-5 0 -41 -34l-48 -45q-17 -15 -28.5 -21t-24.5 -6q-20 0 -33 12.5t-13 31.5q0 10 6 23t17 23l32 29q50 47 86 74t62 27q30 0 47 -16t42 -55q5 -7 18.5 -27.5t27.5 -37.5q9 -13 9 -27q0 -25 -18 -43.5t-42 -18.5
q-29 0 -42 21z" />
    <glyph glyph-name="uni0122" unicode="&#x122;" horiz-adv-x="770" 
d="M756 336q0 -31 -17.5 -55t-49.5 -23h-12q-32 -124 -110.5 -191.5t-198.5 -67.5q-93 0 -162 39.5t-106 109t-37 156.5q0 107 52.5 196t141.5 140.5t194 51.5q72 0 117.5 -26.5t66.5 -62.5l3 15q5 25 17.5 37.5t40.5 12.5q31 0 51.5 -13t20.5 -37q0 -22 -10.5 -59.5
t-23.5 -55.5q-13 -17 -29.5 -24.5t-39.5 -7.5q-18 0 -35 7.5t-36 28.5q-22 25 -48.5 39.5t-76.5 14.5q-71 0 -130.5 -35t-94 -93.5t-34.5 -125.5q0 -54 22.5 -94t61 -62t85.5 -22q56 0 96.5 32.5t61.5 97.5l-101 2q-58 1 -58 51q0 35 20.5 58t56.5 22l234 -5q67 -1 67 -51z
M407.5 -81q18.5 -21 18.5 -51q0 -43 -36 -87.5t-88 -82.5q-16 -11 -36 -11q-15 0 -26 9t-11 25q0 9 3.5 18t8.5 14l19 17l31 29q-14 6 -23 21t-9 32q0 37 27 62.5t69 25.5q34 0 52.5 -21z" />
    <glyph glyph-name="Gdotaccent" unicode="&#x120;" horiz-adv-x="770" 
d="M756 336q0 -31 -17.5 -55t-49.5 -23h-12q-32 -124 -110.5 -191.5t-198.5 -67.5q-93 0 -162 39.5t-106 109t-37 156.5q0 107 52.5 196t141.5 140.5t194 51.5q72 0 117.5 -26.5t66.5 -62.5l3 15q5 25 17.5 37.5t40.5 12.5q31 0 51.5 -13t20.5 -37q0 -22 -10.5 -59.5
t-23.5 -55.5q-13 -17 -29.5 -24.5t-39.5 -7.5q-18 0 -35 7.5t-36 28.5q-22 25 -48.5 39.5t-76.5 14.5q-71 0 -130.5 -35t-94 -93.5t-34.5 -125.5q0 -54 22.5 -94t61 -62t85.5 -22q56 0 96.5 32.5t61.5 97.5l-101 2q-58 1 -58 51q0 35 20.5 58t56.5 22l234 -5q67 -1 67 -51z
M445 778q-19 19 -19 48q0 34 29 61t64 27q27 0 46 -18.5t19 -44.5q0 -35 -28.5 -63.5t-63.5 -28.5q-28 0 -47 19z" />
    <glyph glyph-name="uni1E20" unicode="&#x1e20;" horiz-adv-x="770" 
d="M756 336q0 -31 -17.5 -55t-49.5 -23h-12q-32 -124 -110.5 -191.5t-198.5 -67.5q-93 0 -162 39.5t-106 109t-37 156.5q0 107 52.5 196t141.5 140.5t194 51.5q72 0 117.5 -26.5t66.5 -62.5l3 15q5 25 17.5 37.5t40.5 12.5q31 0 51.5 -13t20.5 -37q0 -22 -10.5 -59.5
t-23.5 -55.5q-13 -17 -29.5 -24.5t-39.5 -7.5q-18 0 -35 7.5t-36 28.5q-22 25 -48.5 39.5t-76.5 14.5q-71 0 -130.5 -35t-94 -93.5t-34.5 -125.5q0 -54 22.5 -94t61 -62t85.5 -22q56 0 96.5 32.5t61.5 97.5l-101 2q-58 1 -58 51q0 35 20.5 58t56.5 22l234 -5q67 -1 67 -51z
M296 789q-10 12 -10 31q0 29 16.5 46.5t44.5 22.5q40 7 77.5 11t91.5 4l147 1q22 0 34.5 -13t12.5 -34q0 -28 -18.5 -46t-47.5 -18l-43 1q-38 3 -86 3q-54 0 -98 -5t-93 -13q-18 -3 -28 9z" />
    <glyph glyph-name="H" unicode="H" horiz-adv-x="805" 
d="M740 372.5q13 -12.5 13 -38.5q0 -41 -19.5 -60.5t-50.5 -19.5h-5l-27 -187q-5 -32 -27.5 -50.5t-56.5 -18.5q-30 0 -47 15.5t-17 39.5l1 10l28 193l-254 4l-55 -215q-13 -52 -81 -52q-31 0 -48.5 11t-17.5 33q0 8 3 18l53 207h-7q-22 0 -31 10.5t-9 36.5q0 39 18 61.5
t49 21.5h13l69 270q7 27 30.5 44t56.5 17q29 0 44.5 -14t15.5 -37q0 -10 -3 -21l-67 -261l240 -3l39 268q5 30 27.5 49t57.5 19q32 0 48 -13.5t16 -37.5q0 -8 -1 -13l-40 -274h9q20 0 33 -12.5z" />
    <glyph glyph-name="Hbar" unicode="&#x126;" horiz-adv-x="843" 
d="M727 474l-13 -89h9q20 0 33 -12.5t13 -38.5q0 -41 -19.5 -60.5t-50.5 -19.5h-5l-27 -187q-5 -32 -27.5 -50.5t-56.5 -18.5q-30 0 -47 15.5t-17 39.5l1 10l28 193l-254 4l-55 -215q-13 -52 -81 -52q-31 0 -48.5 11t-17.5 33q0 8 3 18l53 207h-7q-22 0 -31 10.5t-9 36.5
q0 39 18 61.5t49 21.5h13l23 91h-10q-32 1 -52 13.5t-20 34.5q0 30 28.5 48t66.5 17h16l17 66q7 27 30.5 44t56.5 17q29 0 44.5 -14t15.5 -37q0 -10 -3 -21l-15 -57l218 -3l9 64q5 30 27.5 49t57.5 19q32 0 48 -13.5t16 -37.5q0 -8 -1 -13l-10 -70h9q34 -1 54.5 -13
t20.5 -34q0 -33 -27.5 -50.5t-68.5 -17.5h-5zM580 477l-230 3l-23 -90l240 -3z" />
    <glyph glyph-name="uni1E2A" unicode="&#x1e2a;" horiz-adv-x="805" 
d="M740 372.5q13 -12.5 13 -38.5q0 -41 -19.5 -60.5t-50.5 -19.5h-5l-27 -187q-5 -32 -27.5 -50.5t-56.5 -18.5q-30 0 -47 15.5t-17 39.5l1 10l28 193l-254 4l-55 -215q-13 -52 -81 -52q-31 0 -48.5 11t-17.5 33q0 8 3 18l53 207h-7q-22 0 -31 10.5t-9 36.5q0 39 18 61.5
t49 21.5h13l69 270q7 27 30.5 44t56.5 17q29 0 44.5 -14t15.5 -37q0 -10 -3 -21l-67 -261l240 -3l39 268q5 30 27.5 49t57.5 19q32 0 48 -13.5t16 -37.5q0 -8 -1 -13l-40 -274h9q20 0 33 -12.5zM247 -239.5q-38 16.5 -59.5 46.5t-21.5 67q0 24 10 44q19 33 54 33
q18 0 31 -8.5t13 -23.5v-13q3 -70 65 -70q29 0 54 20t33 59q4 19 21 29t37 10q19 0 32 -12.5t13 -30.5q0 -42 -29 -81t-75.5 -62.5t-93.5 -23.5q-46 0 -84 16.5z" />
    <glyph glyph-name="Hcircumflex" unicode="&#x124;" horiz-adv-x="805" 
d="M740 372.5q13 -12.5 13 -38.5q0 -41 -19.5 -60.5t-50.5 -19.5h-5l-27 -187q-5 -32 -27.5 -50.5t-56.5 -18.5q-30 0 -47 15.5t-17 39.5l1 10l28 193l-254 4l-55 -215q-13 -52 -81 -52q-31 0 -48.5 11t-17.5 33q0 8 3 18l53 207h-7q-22 0 -31 10.5t-9 36.5q0 39 18 61.5
t49 21.5h13l69 270q7 27 30.5 44t56.5 17q29 0 44.5 -14t15.5 -37q0 -10 -3 -21l-67 -261l240 -3l39 268q5 30 27.5 49t57.5 19q32 0 48 -13.5t16 -37.5q0 -8 -1 -13l-40 -274h9q20 0 33 -12.5zM581 771q-12 19 -34 57q-3 4 -11.5 18.5t-11.5 14.5q-5 0 -41 -34l-48 -45
q-17 -15 -28.5 -21t-24.5 -6q-20 0 -33 12.5t-13 31.5q0 10 6 23t17 23l32 29q50 47 86 74t62 27q30 0 47 -16t42 -55q5 -7 18.5 -27.5t27.5 -37.5q9 -13 9 -27q0 -25 -18 -43.5t-42 -18.5q-29 0 -42 21z" />
    <glyph glyph-name="uni1E24" unicode="&#x1e24;" horiz-adv-x="805" 
d="M740 372.5q13 -12.5 13 -38.5q0 -41 -19.5 -60.5t-50.5 -19.5h-5l-27 -187q-5 -32 -27.5 -50.5t-56.5 -18.5q-30 0 -47 15.5t-17 39.5l1 10l28 193l-254 4l-55 -215q-13 -52 -81 -52q-31 0 -48.5 11t-17.5 33q0 8 3 18l53 207h-7q-22 0 -31 10.5t-9 36.5q0 39 18 61.5
t49 21.5h13l69 270q7 27 30.5 44t56.5 17q29 0 44.5 -14t15.5 -37q0 -10 -3 -21l-67 -261l240 -3l39 268q5 30 27.5 49t57.5 19q32 0 48 -13.5t16 -37.5q0 -8 -1 -13l-40 -274h9q20 0 33 -12.5zM269.5 -197.5q-17.5 17.5 -17.5 45.5q0 39 27.5 65.5t65.5 26.5q30 0 47.5 -17
t17.5 -44q0 -40 -27.5 -67t-65.5 -27q-30 0 -47.5 17.5z" />
    <glyph glyph-name="I" unicode="I" horiz-adv-x="510" 
d="M542 656q0 -35 -19 -57t-57 -22l-59 2q-46 -246 -95 -445l75 -1q55 -1 55 -46q0 -38 -21 -61.5t-58 -23.5l-299 4q-50 1 -50 48q0 34 20 58.5t53 24.5l83 -1q47 203 92 443q-54 -3 -79 -6q-24 -2 -27 -2q-24 0 -36 12.5t-12 34.5q0 35 18 57t53 27q22 3 78 6t113 3
q55 0 125 -6q47 -4 47 -49z" />
    <glyph glyph-name="IJ" unicode="&#x132;" horiz-adv-x="1169" 
d="M542 656q0 -35 -19 -57t-57 -22l-59 2q-46 -246 -95 -445l75 -1q55 -1 55 -46q0 -38 -21 -61.5t-58 -23.5l-299 4q-50 1 -50 48q0 34 20 58.5t53 24.5l83 -1q47 203 92 443q-54 -3 -79 -6q-24 -2 -27 -2q-24 0 -36 12.5t-12 34.5q0 35 18 57t53 27q22 3 78 6t113 3
q55 0 125 -6q47 -4 47 -49zM1181 655q0 -33 -19 -56t-54 -23h-27q-17 -78 -36 -198q-4 -21 -8 -47.5t-10 -58.5q-24 -132 -91.5 -203t-175.5 -71q-96 0 -153.5 54.5t-57.5 150.5q0 23 5 56q6 36 28.5 55.5t60.5 19.5q30 0 44.5 -15t14.5 -40q0 -10 -1 -15q-4 -23 -4 -47
q0 -88 65 -88q40 0 72 36t44 106l7 40q36 195 50 265h-40q-29 0 -42 10.5t-13 32.5q0 37 17 59t42 23q72 3 127 3q63 0 103 -2q52 -4 52 -47z" />
    <glyph glyph-name="Iacute" unicode="&#xcd;" horiz-adv-x="510" 
d="M542 656q0 -35 -19 -57t-57 -22l-59 2q-46 -246 -95 -445l75 -1q55 -1 55 -46q0 -38 -21 -61.5t-58 -23.5l-299 4q-50 1 -50 48q0 34 20 58.5t53 24.5l83 -1q47 203 92 443q-54 -3 -79 -6q-24 -2 -27 -2q-24 0 -36 12.5t-12 34.5q0 35 18 57t53 27q22 3 78 6t113 3
q55 0 125 -6q47 -4 47 -49zM283 775.5q-13 15.5 -13 34.5q0 27 29 49l103 78q26 19 38 26t26 7q20 0 32.5 -15t12.5 -36q0 -33 -34 -56l-110 -79q-21 -15 -30 -19.5t-22 -4.5q-19 0 -32 15.5z" />
    <glyph glyph-name="Ibreve" unicode="&#x12c;" horiz-adv-x="510" 
d="M542 656q0 -35 -19 -57t-57 -22l-59 2q-46 -246 -95 -445l75 -1q55 -1 55 -46q0 -38 -21 -61.5t-58 -23.5l-299 4q-50 1 -50 48q0 34 20 58.5t53 24.5l83 -1q47 203 92 443q-54 -3 -79 -6q-24 -2 -27 -2q-24 0 -36 12.5t-12 34.5q0 35 18 57t53 27q22 3 78 6t113 3
q55 0 125 -6q47 -4 47 -49zM279 765.5q-38 16.5 -59.5 46.5t-21.5 67q0 24 10 44q19 33 54 33q18 0 31 -8.5t13 -23.5v-13q3 -70 65 -70q29 0 54 20t33 59q4 19 21 29t37 10q19 0 32 -12.5t13 -30.5q0 -42 -29 -81t-75.5 -62.5t-93.5 -23.5q-46 0 -84 16.5z" />
    <glyph glyph-name="uni01CF" unicode="&#x1cf;" horiz-adv-x="510" 
d="M542 656q0 -35 -19 -57t-57 -22l-59 2q-46 -246 -95 -445l75 -1q55 -1 55 -46q0 -38 -21 -61.5t-58 -23.5l-299 4q-50 1 -50 48q0 34 20 58.5t53 24.5l83 -1q47 203 92 443q-54 -3 -79 -6q-24 -2 -27 -2q-24 0 -36 12.5t-12 34.5q0 35 18 57t53 27q22 3 78 6t113 3
q55 0 125 -6q47 -4 47 -49zM546.5 973q11.5 -12 11.5 -30q0 -13 -5.5 -23.5t-16.5 -23.5l-22 -23q-57 -63 -89 -88t-72 -25q-33 0 -65 37t-69 93q-10 14 -10 30q0 23 20.5 41.5t44.5 18.5q13 0 22 -6t21 -21q13 -17 34 -47q9 -14 16.5 -23t10.5 -9t13 10.5t24 24.5
q21 24 52 55q20 21 49 21q19 0 30.5 -12z" />
    <glyph glyph-name="Icircumflex" unicode="&#xce;" horiz-adv-x="510" 
d="M542 656q0 -35 -19 -57t-57 -22l-59 2q-46 -246 -95 -445l75 -1q55 -1 55 -46q0 -38 -21 -61.5t-58 -23.5l-299 4q-50 1 -50 48q0 34 20 58.5t53 24.5l83 -1q47 203 92 443q-54 -3 -79 -6q-24 -2 -27 -2q-24 0 -36 12.5t-12 34.5q0 35 18 57t53 27q22 3 78 6t113 3
q55 0 125 -6q47 -4 47 -49zM433 771q-12 19 -34 57q-3 4 -11.5 18.5t-11.5 14.5q-5 0 -41 -34l-48 -45q-17 -15 -28.5 -21t-24.5 -6q-20 0 -33 12.5t-13 31.5q0 10 6 23t17 23l32 29q50 47 86 74t62 27q30 0 47 -16t42 -55q5 -7 18.5 -27.5t27.5 -37.5q9 -13 9 -27
q0 -25 -18 -43.5t-42 -18.5q-29 0 -42 21z" />
    <glyph glyph-name="Idieresis" unicode="&#xcf;" horiz-adv-x="510" 
d="M542 656q0 -35 -19 -57t-57 -22l-59 2q-46 -246 -95 -445l75 -1q55 -1 55 -46q0 -38 -21 -61.5t-58 -23.5l-299 4q-50 1 -50 48q0 34 20 58.5t53 24.5l83 -1q47 203 92 443q-54 -3 -79 -6q-24 -2 -27 -2q-24 0 -36 12.5t-12 34.5q0 35 18 57t53 27q22 3 78 6t113 3
q55 0 125 -6q47 -4 47 -49zM171.5 779q-18.5 19 -18.5 46q0 35 28.5 62.5t63.5 27.5q28 0 47.5 -19.5t19.5 -45.5q0 -34 -29.5 -62t-64.5 -28q-28 0 -46.5 19zM447.5 779q-18.5 19 -18.5 46q0 35 28.5 62.5t63.5 27.5q28 0 47 -19t19 -46q0 -34 -29 -62t-64 -28
q-28 0 -46.5 19z" />
    <glyph glyph-name="Idotaccent" unicode="&#x130;" horiz-adv-x="510" 
d="M542 656q0 -35 -19 -57t-57 -22l-59 2q-46 -246 -95 -445l75 -1q55 -1 55 -46q0 -38 -21 -61.5t-58 -23.5l-299 4q-50 1 -50 48q0 34 20 58.5t53 24.5l83 -1q47 203 92 443q-54 -3 -79 -6q-24 -2 -27 -2q-24 0 -36 12.5t-12 34.5q0 35 18 57t53 27q22 3 78 6t113 3
q55 0 125 -6q47 -4 47 -49zM310 778q-19 19 -19 48q0 34 29 61t64 27q27 0 46 -18.5t19 -44.5q0 -35 -28.5 -63.5t-63.5 -28.5q-28 0 -47 19z" />
    <glyph glyph-name="uni1ECA" unicode="&#x1eca;" horiz-adv-x="510" 
d="M542 656q0 -35 -19 -57t-57 -22l-59 2q-46 -246 -95 -445l75 -1q55 -1 55 -46q0 -38 -21 -61.5t-58 -23.5l-299 4q-50 1 -50 48q0 34 20 58.5t53 24.5l83 -1q47 203 92 443q-54 -3 -79 -6q-24 -2 -27 -2q-24 0 -36 12.5t-12 34.5q0 35 18 57t53 27q22 3 78 6t113 3
q55 0 125 -6q47 -4 47 -49zM134.5 -197.5q-17.5 17.5 -17.5 45.5q0 39 27.5 65.5t65.5 26.5q30 0 47.5 -17t17.5 -44q0 -40 -27.5 -67t-65.5 -27q-30 0 -47.5 17.5z" />
    <glyph glyph-name="Igrave" unicode="&#xcc;" horiz-adv-x="510" 
d="M542 656q0 -35 -19 -57t-57 -22l-59 2q-46 -246 -95 -445l75 -1q55 -1 55 -46q0 -38 -21 -61.5t-58 -23.5l-299 4q-50 1 -50 48q0 34 20 58.5t53 24.5l83 -1q47 203 92 443q-54 -3 -79 -6q-24 -2 -27 -2q-24 0 -36 12.5t-12 34.5q0 35 18 57t53 27q22 3 78 6t113 3
q55 0 125 -6q47 -4 47 -49zM363 755.5q-10 5.5 -20 18.5l-64 86q-15 20 -15 42q0 25 19 43t44 18q15 0 26.5 -7.5t22.5 -24.5l58 -85q12 -19 12 -37q0 -24 -18 -41.5t-41 -17.5q-14 0 -24 5.5z" />
    <glyph glyph-name="uni1EC8" unicode="&#x1ec8;" horiz-adv-x="510" 
d="M542 656q0 -35 -19 -57t-57 -22l-59 2q-46 -246 -95 -445l75 -1q55 -1 55 -46q0 -38 -21 -61.5t-58 -23.5l-299 4q-50 1 -50 48q0 34 20 58.5t53 24.5l83 -1q47 203 92 443q-54 -3 -79 -6q-24 -2 -27 -2q-24 0 -36 12.5t-12 34.5q0 35 18 57t53 27q22 3 78 6t113 3
q55 0 125 -6q47 -4 47 -49zM311.5 762.5q-14.5 13.5 -11.5 32.5l9 50q2 11 12 19.5t29 20.5q22 14 34 25t12 26q0 11 -7.5 20t-22.5 9q-18 0 -30 -8t-25 -25q-22 -29 -47 -29q-15 0 -25.5 11.5t-10.5 23.5q0 18 17 40q30 39 63.5 57.5t77.5 18.5q54 0 90 -26.5t36 -68.5
q0 -32 -15 -51t-43 -38q-11 -8 -20 -16t-12 -16l-6 -41q-4 -24 -22.5 -36t-45.5 -12q-22 0 -36.5 13.5z" />
    <glyph glyph-name="Imacron" unicode="&#x12a;" horiz-adv-x="510" 
d="M542 656q0 -35 -19 -57t-57 -22l-59 2q-46 -246 -95 -445l75 -1q55 -1 55 -46q0 -38 -21 -61.5t-58 -23.5l-299 4q-50 1 -50 48q0 34 20 58.5t53 24.5l83 -1q47 203 92 443q-54 -3 -79 -6q-24 -2 -27 -2q-24 0 -36 12.5t-12 34.5q0 35 18 57t53 27q22 3 78 6t113 3
q55 0 125 -6q47 -4 47 -49zM161 789q-10 12 -10 31q0 29 16.5 46.5t44.5 22.5q40 7 77.5 11t91.5 4l147 1q22 0 34.5 -13t12.5 -34q0 -28 -18.5 -46t-47.5 -18l-43 1q-38 3 -86 3q-54 0 -98 -5t-93 -13q-18 -3 -28 9z" />
    <glyph glyph-name="Iogonek" unicode="&#x12e;" horiz-adv-x="510" 
d="M542 656q0 -35 -19 -57t-57 -22l-59 2q-46 -246 -95 -445l75 -1q55 -1 55 -46q0 -46 -29 -69l-6 -5q-29 -21 -45 -37t-16 -31q0 -10 7 -13.5t20 -3.5q5 0 21 4q15 5 23 5q10 0 17 -7.5t7 -21.5q0 -34 -23 -52.5t-64 -18.5q-49 0 -78 26t-29 66t26 74l-209 3q-50 1 -50 48
q0 34 20 58.5t53 24.5l83 -1q47 203 92 443q-54 -3 -79 -6q-24 -2 -27 -2q-24 0 -36 12.5t-12 34.5q0 35 18 57t53 27q22 3 78 6t113 3q55 0 125 -6q47 -4 47 -49z" />
    <glyph glyph-name="Itilde" unicode="&#x128;" horiz-adv-x="510" 
d="M542 656q0 -35 -19 -57t-57 -22l-59 2q-46 -246 -95 -445l75 -1q55 -1 55 -46q0 -38 -21 -61.5t-58 -23.5l-299 4q-50 1 -50 48q0 34 20 58.5t53 24.5l83 -1q47 203 92 443q-54 -3 -79 -6q-24 -2 -27 -2q-24 0 -36 12.5t-12 34.5q0 35 18 57t53 27q22 3 78 6t113 3
q55 0 125 -6q47 -4 47 -49zM192.5 783.5q-12.5 13.5 -12.5 30.5q0 24 21 45q34 34 60.5 48t57.5 14q24 0 49 -6.5t45 -18.5q17 -10 26 -14.5t13 -4.5q7 0 15 8q13 13 23.5 18.5t22.5 5.5q18 0 32 -14t14 -33q0 -25 -24 -46q-53 -46 -102 -46q-23 0 -42 8t-41 21
q-2 1 -16.5 9.5t-24.5 8.5q-6 0 -14.5 -6.5t-20.5 -17.5q-26 -23 -50 -23q-19 0 -31.5 13.5z" />
    <glyph glyph-name="J" unicode="J" horiz-adv-x="659" 
d="M671 655q0 -33 -19 -56t-54 -23h-27q-17 -78 -36 -198q-4 -21 -8 -47.5t-10 -58.5q-24 -132 -91.5 -203t-175.5 -71q-96 0 -153.5 54.5t-57.5 150.5q0 23 5 56q6 36 28.5 55.5t60.5 19.5q30 0 44.5 -15t14.5 -40q0 -10 -1 -15q-4 -23 -4 -47q0 -88 65 -88q40 0 72 36
t44 106l7 40q36 195 50 265h-40q-29 0 -42 10.5t-13 32.5q0 37 17 59t42 23q72 3 127 3q63 0 103 -2q52 -4 52 -47z" />
    <glyph glyph-name="Jcircumflex" unicode="&#x134;" horiz-adv-x="659" 
d="M671 655q0 -33 -19 -56t-54 -23h-27q-17 -78 -36 -198q-4 -21 -8 -47.5t-10 -58.5q-24 -132 -91.5 -203t-175.5 -71q-96 0 -153.5 54.5t-57.5 150.5q0 23 5 56q6 36 28.5 55.5t60.5 19.5q30 0 44.5 -15t14.5 -40q0 -10 -1 -15q-4 -23 -4 -47q0 -88 65 -88q40 0 72 36
t44 106l7 40q36 195 50 265h-40q-29 0 -42 10.5t-13 32.5q0 37 17 59t42 23q72 3 127 3q63 0 103 -2q52 -4 52 -47zM603 771q-12 19 -34 57q-3 4 -11.5 18.5t-11.5 14.5q-5 0 -41 -34l-48 -45q-17 -15 -28.5 -21t-24.5 -6q-20 0 -33 12.5t-13 31.5q0 10 6 23t17 23l32 29
q50 47 86 74t62 27q30 0 47 -16t42 -55q5 -7 18.5 -27.5t27.5 -37.5q9 -13 9 -27q0 -25 -18 -43.5t-42 -18.5q-29 0 -42 21z" />
    <glyph glyph-name="K" unicode="K" horiz-adv-x="658" 
d="M671.5 684.5q17.5 -17.5 17.5 -38.5q0 -18 -8.5 -34.5t-23.5 -25.5q-39 -25 -164 -98l-27 -16l-176 -101q50 -45 127 -120l58 -57q15 -15 34 -33.5t43 -41.5q20 -20 20 -43q0 -31 -26.5 -55.5t-60.5 -24.5q-23 0 -42 14l-124 131l-100 105q-9 -43 -14 -71.5t-9 -48.5
l-10 -54q-6 -33 -29.5 -53.5t-56.5 -20.5q-29 0 -45.5 12.5t-16.5 34.5q0 6 1 10q21 118 56 298q11 57 20 113t13 79l14 92q5 28 29 46t57 18q29 0 45 -15t16 -39q0 -8 -1 -13l-25 -149l135 87l180 116q21 14 49 14q27 0 44.5 -17.5z" />
    <glyph glyph-name="uni0136" unicode="&#x136;" horiz-adv-x="658" 
d="M671.5 684.5q17.5 -17.5 17.5 -38.5q0 -18 -8.5 -34.5t-23.5 -25.5q-39 -25 -164 -98l-27 -16l-176 -101q50 -45 127 -120l58 -57q15 -15 34 -33.5t43 -41.5q20 -20 20 -43q0 -31 -26.5 -55.5t-60.5 -24.5q-23 0 -42 14l-124 131l-100 105q-9 -43 -14 -71.5t-9 -48.5
l-10 -54q-6 -33 -29.5 -53.5t-56.5 -20.5q-29 0 -45.5 12.5t-16.5 34.5q0 6 1 10q21 118 56 298q11 57 20 113t13 79l14 92q5 28 29 46t57 18q29 0 45 -15t16 -39q0 -8 -1 -13l-25 -149l135 87l180 116q21 14 49 14q27 0 44.5 -17.5zM336.5 -81q18.5 -21 18.5 -51
q0 -43 -36 -87.5t-88 -82.5q-16 -11 -36 -11q-15 0 -26 9t-11 25q0 9 3.5 18t8.5 14l19 17l31 29q-14 6 -23 21t-9 32q0 37 27 62.5t69 25.5q34 0 52.5 -21z" />
    <glyph glyph-name="L" unicode="L" horiz-adv-x="580" 
d="M124.5 13.5q-38.5 16.5 -54 53t-15.5 101.5q0 145 117 484q8 24 31 38.5t55 14.5q26 0 43.5 -12.5t17.5 -29.5q0 -3 -2 -11l-10 -27q-57 -159 -86.5 -262.5t-29.5 -194.5q0 -27 12 -36.5t44 -9.5q48 0 90.5 5.5t100.5 16.5l39 7q3 1 8 1q19 0 29 -15.5t10 -36.5
q0 -35 -15.5 -55t-47.5 -26q-116 -22 -225 -22q-73 0 -111.5 16.5z" />
    <glyph glyph-name="Lacute" unicode="&#x139;" horiz-adv-x="580" 
d="M124.5 13.5q-38.5 16.5 -54 53t-15.5 101.5q0 145 117 484q8 24 31 38.5t55 14.5q26 0 43.5 -12.5t17.5 -29.5q0 -3 -2 -11l-10 -27q-57 -159 -86.5 -262.5t-29.5 -194.5q0 -27 12 -36.5t44 -9.5q48 0 90.5 5.5t100.5 16.5l39 7q3 1 8 1q19 0 29 -15.5t10 -36.5
q0 -35 -15.5 -55t-47.5 -26q-116 -22 -225 -22q-73 0 -111.5 16.5zM195 775.5q-13 15.5 -13 34.5q0 27 29 49l103 78q26 19 38 26t26 7q20 0 32.5 -15t12.5 -36q0 -33 -34 -56l-110 -79q-21 -15 -30 -19.5t-22 -4.5q-19 0 -32 15.5z" />
    <glyph glyph-name="Lcaron" unicode="&#x13d;" horiz-adv-x="580" 
d="M124.5 13.5q-38.5 16.5 -54 53t-15.5 101.5q0 145 117 484q8 24 31 38.5t55 14.5q26 0 43.5 -12.5t17.5 -29.5q0 -3 -2 -11l-10 -27q-57 -159 -86.5 -262.5t-29.5 -194.5q0 -27 12 -36.5t44 -9.5q48 0 90.5 5.5t100.5 16.5l39 7q3 1 8 1q19 0 29 -15.5t10 -36.5
q0 -35 -15.5 -55t-47.5 -26q-116 -22 -225 -22q-73 0 -111.5 16.5zM586 696q21 -18 21 -49q0 -42 -37.5 -91.5t-85.5 -83.5q-17 -11 -30 -11q-17 0 -29.5 12t-12.5 26q0 16 17 33q6 6 20 17.5t22 20.5q-13 5 -22 19t-9 30q0 38 28.5 66.5t65.5 28.5q31 0 52 -18z" />
    <glyph glyph-name="uni013B" unicode="&#x13b;" horiz-adv-x="580" 
d="M124.5 13.5q-38.5 16.5 -54 53t-15.5 101.5q0 145 117 484q8 24 31 38.5t55 14.5q26 0 43.5 -12.5t17.5 -29.5q0 -3 -2 -11l-10 -27q-57 -159 -86.5 -262.5t-29.5 -194.5q0 -27 12 -36.5t44 -9.5q48 0 90.5 5.5t100.5 16.5l39 7q3 1 8 1q19 0 29 -15.5t10 -36.5
q0 -35 -15.5 -55t-47.5 -26q-116 -22 -225 -22q-73 0 -111.5 16.5zM287.5 -81q18.5 -21 18.5 -51q0 -43 -36 -87.5t-88 -82.5q-16 -11 -36 -11q-15 0 -26 9t-11 25q0 9 3.5 18t8.5 14l19 17l31 29q-14 6 -23 21t-9 32q0 37 27 62.5t69 25.5q34 0 52.5 -21z" />
    <glyph glyph-name="Ldot" unicode="&#x13f;" horiz-adv-x="580" 
d="M124.5 13.5q-38.5 16.5 -54 53t-15.5 101.5q0 145 117 484q8 24 31 38.5t55 14.5q26 0 43.5 -12.5t17.5 -29.5q0 -3 -2 -11l-10 -27q-57 -159 -86.5 -262.5t-29.5 -194.5q0 -27 12 -36.5t44 -9.5q48 0 90.5 5.5t100.5 16.5l39 7q3 1 8 1q19 0 29 -15.5t10 -36.5
q0 -35 -15.5 -55t-47.5 -26q-116 -22 -225 -22q-73 0 -111.5 16.5zM316 275q-23 22 -23 58q0 50 31.5 80.5t84.5 30.5q37 0 59 -22t22 -57q0 -50 -31.5 -81t-82.5 -31q-37 0 -60 22z" />
    <glyph glyph-name="uni1E36" unicode="&#x1e36;" horiz-adv-x="580" 
d="M124.5 13.5q-38.5 16.5 -54 53t-15.5 101.5q0 145 117 484q8 24 31 38.5t55 14.5q26 0 43.5 -12.5t17.5 -29.5q0 -3 -2 -11l-10 -27q-57 -159 -86.5 -262.5t-29.5 -194.5q0 -27 12 -36.5t44 -9.5q48 0 90.5 5.5t100.5 16.5l39 7q3 1 8 1q19 0 29 -15.5t10 -36.5
q0 -35 -15.5 -55t-47.5 -26q-116 -22 -225 -22q-73 0 -111.5 16.5zM149.5 -197.5q-17.5 17.5 -17.5 45.5q0 39 27.5 65.5t65.5 26.5q30 0 47.5 -17t17.5 -44q0 -40 -27.5 -67t-65.5 -27q-30 0 -47.5 17.5z" />
    <glyph glyph-name="uni1E38" unicode="&#x1e38;" horiz-adv-x="580" 
d="M124.5 13.5q-38.5 16.5 -54 53t-15.5 101.5q0 145 117 484q8 24 31 38.5t55 14.5q26 0 43.5 -12.5t17.5 -29.5q0 -3 -2 -11l-10 -27q-57 -159 -86.5 -262.5t-29.5 -194.5q0 -27 12 -36.5t44 -9.5q48 0 90.5 5.5t100.5 16.5l39 7q3 1 8 1q19 0 29 -15.5t10 -36.5
q0 -35 -15.5 -55t-47.5 -26q-116 -22 -225 -22q-73 0 -111.5 16.5zM149.5 -197.5q-17.5 17.5 -17.5 45.5q0 39 27.5 65.5t65.5 26.5q30 0 47.5 -17t17.5 -44q0 -40 -27.5 -67t-65.5 -27q-30 0 -47.5 17.5zM73 789q-10 12 -10 31q0 29 16.5 46.5t44.5 22.5q40 7 77.5 11
t91.5 4l147 1q22 0 34.5 -13t12.5 -34q0 -28 -18.5 -46t-47.5 -18l-43 1q-38 3 -86 3q-54 0 -98 -5t-93 -13q-18 -3 -28 9z" />
    <glyph glyph-name="uni1E3A" unicode="&#x1e3a;" horiz-adv-x="580" 
d="M124.5 13.5q-38.5 16.5 -54 53t-15.5 101.5q0 145 117 484q8 24 31 38.5t55 14.5q26 0 43.5 -12.5t17.5 -29.5q0 -3 -2 -11l-10 -27q-57 -159 -86.5 -262.5t-29.5 -194.5q0 -27 12 -36.5t44 -9.5q48 0 90.5 5.5t100.5 16.5l39 7q3 1 8 1q19 0 29 -15.5t10 -36.5
q0 -35 -15.5 -55t-47.5 -26q-116 -22 -225 -22q-73 0 -111.5 16.5zM37.5 -187.5q-11.5 12.5 -11.5 32.5q0 24 16 43t39 21q75 9 188 9q37 0 75 -2q11 -1 27 -1q22 0 35 -12t13 -32q0 -27 -19.5 -45.5t-46.5 -18.5l-28 1q-54 3 -76 3q-47 0 -140 -8q-29 -3 -41 -3
q-19 0 -30.5 12.5z" />
    <glyph glyph-name="Lslash" unicode="&#x141;" horiz-adv-x="580" 
d="M485 152q19 0 29 -15.5t10 -36.5q0 -35 -15.5 -55t-47.5 -26q-116 -22 -225 -22q-73 0 -111.5 16.5t-54 53t-15.5 101.5q0 17 4 63q-13 0 -23.5 4.5t-15.5 11.5q-12 18 -12 35q0 37 51 73l29 20q29 120 84 277q8 24 31 38.5t55 14.5q26 0 43.5 -12.5t17.5 -29.5
q0 -3 -2 -11q-33 -91 -56 -158l72 50q21 15 46 15q16 0 30 -6.5t21 -18.5q10 -14 10 -31q0 -21 -14.5 -42.5t-39.5 -38.5l-181 -124q-14 -70 -14 -130q0 -27 12 -36.5t44 -9.5q48 0 90.5 5.5t100.5 16.5l39 7q3 1 8 1z" />
    <glyph glyph-name="M" unicode="M" horiz-adv-x="809" 
d="M755 676q21 -37 21 -112q0 -63 -19.5 -202t-48.5 -298q-6 -34 -26.5 -52.5t-54.5 -18.5q-31 0 -49 16t-18 40q0 7 1 10q19 114 43 234q18 92 26 141t8 75q0 12 -0.5 19.5t-3.5 7.5q-12 0 -75 -125q-14 -30 -37 -76q-19 -37 -27 -54q-13 -27 -35 -40t-55 -13t-50 12
t-22 37q-7 36 -12 81q-4 38 -7 57q-5 34 -15.5 77.5t-15.5 43.5q-6 0 -18.5 -55t-31.5 -148q-12 -59 -31 -170l-18 -106q-5 -27 -27 -43.5t-57 -16.5q-61 0 -61 53q0 12 3 27q15 85 35 191l13 68q26 137 54.5 219t65 120t84.5 38q59 0 89 -47t38.5 -104.5t13.5 -142.5
q32 77 65 138t81 108.5t105 47.5q48 0 69 -37z" />
    <glyph glyph-name="uni1E42" unicode="&#x1e42;" horiz-adv-x="809" 
d="M755 676q21 -37 21 -112q0 -63 -19.5 -202t-48.5 -298q-6 -34 -26.5 -52.5t-54.5 -18.5q-31 0 -49 16t-18 40q0 7 1 10q19 114 43 234q18 92 26 141t8 75q0 12 -0.5 19.5t-3.5 7.5q-12 0 -75 -125q-14 -30 -37 -76q-19 -37 -27 -54q-13 -27 -35 -40t-55 -13t-50 12
t-22 37q-7 36 -12 81q-4 38 -7 57q-5 34 -15.5 77.5t-15.5 43.5q-6 0 -18.5 -55t-31.5 -148q-12 -59 -31 -170l-18 -106q-5 -27 -27 -43.5t-57 -16.5q-61 0 -61 53q0 12 3 27q15 85 35 191l13 68q26 137 54.5 219t65 120t84.5 38q59 0 89 -47t38.5 -104.5t13.5 -142.5
q32 77 65 138t81 108.5t105 47.5q48 0 69 -37zM281.5 -197.5q-17.5 17.5 -17.5 45.5q0 39 27.5 65.5t65.5 26.5q30 0 47.5 -17t17.5 -44q0 -40 -27.5 -67t-65.5 -27q-30 0 -47.5 17.5z" />
    <glyph glyph-name="N" unicode="N" horiz-adv-x="759" 
d="M747 701.5q14 -13.5 14 -40.5q0 -6 -2 -24q-14 -79 -42 -232q-2 -15 -11 -61q-24 -130 -44.5 -199.5t-49 -102t-74.5 -32.5q-37 0 -64 23t-55.5 75t-78.5 164q-49 108 -84 190q-2 -16 -4 -24q-7 -50 -20 -124q-7 -41 -13.5 -76t-11.5 -64q-4 -21 -9 -47t-10 -57
q-5 -26 -28.5 -44t-55.5 -18q-31 0 -48.5 19t-13.5 43l28 162l18 99l32 188q14 76 27 115t33.5 56.5t55.5 17.5q37 0 63.5 -21.5t56.5 -77t80 -174.5q65 -156 100 -229q16 86 29 164q5 32 32 177l19 106q5 27 26 44.5t59 17.5q32 0 46 -13.5z" />
    <glyph glyph-name="Nacute" unicode="&#x143;" horiz-adv-x="759" 
d="M747 701.5q14 -13.5 14 -40.5q0 -6 -2 -24q-14 -79 -42 -232q-2 -15 -11 -61q-24 -130 -44.5 -199.5t-49 -102t-74.5 -32.5q-37 0 -64 23t-55.5 75t-78.5 164q-49 108 -84 190q-2 -16 -4 -24q-7 -50 -20 -124q-7 -41 -13.5 -76t-11.5 -64q-4 -21 -9 -47t-10 -57
q-5 -26 -28.5 -44t-55.5 -18q-31 0 -48.5 19t-13.5 43l28 162l18 99l32 188q14 76 27 115t33.5 56.5t55.5 17.5q37 0 63.5 -21.5t56.5 -77t80 -174.5q65 -156 100 -229q16 86 29 164q5 32 32 177l19 106q5 27 26 44.5t59 17.5q32 0 46 -13.5zM406 775.5q-13 15.5 -13 34.5
q0 27 29 49l103 78q26 19 38 26t26 7q20 0 32.5 -15t12.5 -36q0 -33 -34 -56l-110 -79q-21 -15 -30 -19.5t-22 -4.5q-19 0 -32 15.5z" />
    <glyph glyph-name="Ncaron" unicode="&#x147;" horiz-adv-x="759" 
d="M747 701.5q14 -13.5 14 -40.5q0 -6 -2 -24q-14 -79 -42 -232q-2 -15 -11 -61q-24 -130 -44.5 -199.5t-49 -102t-74.5 -32.5q-37 0 -64 23t-55.5 75t-78.5 164q-49 108 -84 190q-2 -16 -4 -24q-7 -50 -20 -124q-7 -41 -13.5 -76t-11.5 -64q-4 -21 -9 -47t-10 -57
q-5 -26 -28.5 -44t-55.5 -18q-31 0 -48.5 19t-13.5 43l28 162l18 99l32 188q14 76 27 115t33.5 56.5t55.5 17.5q37 0 63.5 -21.5t56.5 -77t80 -174.5q65 -156 100 -229q16 86 29 164q5 32 32 177l19 106q5 27 26 44.5t59 17.5q32 0 46 -13.5zM669.5 973q11.5 -12 11.5 -30
q0 -13 -5.5 -23.5t-16.5 -23.5l-22 -23q-57 -63 -89 -88t-72 -25q-33 0 -65 37t-69 93q-10 14 -10 30q0 23 20.5 41.5t44.5 18.5q13 0 22 -6t21 -21q13 -17 34 -47q9 -14 16.5 -23t10.5 -9t13 10.5t24 24.5q21 24 52 55q20 21 49 21q19 0 30.5 -12z" />
    <glyph glyph-name="uni0145" unicode="&#x145;" horiz-adv-x="759" 
d="M747 701.5q14 -13.5 14 -40.5q0 -6 -2 -24q-14 -79 -42 -232q-2 -15 -11 -61q-24 -130 -44.5 -199.5t-49 -102t-74.5 -32.5q-37 0 -64 23t-55.5 75t-78.5 164q-49 108 -84 190q-2 -16 -4 -24q-7 -50 -20 -124q-7 -41 -13.5 -76t-11.5 -64q-4 -21 -9 -47t-10 -57
q-5 -26 -28.5 -44t-55.5 -18q-31 0 -48.5 19t-13.5 43l28 162l18 99l32 188q14 76 27 115t33.5 56.5t55.5 17.5q37 0 63.5 -21.5t56.5 -77t80 -174.5q65 -156 100 -229q16 86 29 164q5 32 32 177l19 106q5 27 26 44.5t59 17.5q32 0 46 -13.5zM395.5 -81q18.5 -21 18.5 -51
q0 -43 -36 -87.5t-88 -82.5q-16 -11 -36 -11q-15 0 -26 9t-11 25q0 9 3.5 18t8.5 14l19 17l31 29q-14 6 -23 21t-9 32q0 37 27 62.5t69 25.5q34 0 52.5 -21z" />
    <glyph glyph-name="uni1E44" unicode="&#x1e44;" horiz-adv-x="759" 
d="M747 701.5q14 -13.5 14 -40.5q0 -6 -2 -24q-14 -79 -42 -232q-2 -15 -11 -61q-24 -130 -44.5 -199.5t-49 -102t-74.5 -32.5q-37 0 -64 23t-55.5 75t-78.5 164q-49 108 -84 190q-2 -16 -4 -24q-7 -50 -20 -124q-7 -41 -13.5 -76t-11.5 -64q-4 -21 -9 -47t-10 -57
q-5 -26 -28.5 -44t-55.5 -18q-31 0 -48.5 19t-13.5 43l28 162l18 99l32 188q14 76 27 115t33.5 56.5t55.5 17.5q37 0 63.5 -21.5t56.5 -77t80 -174.5q65 -156 100 -229q16 86 29 164q5 32 32 177l19 106q5 27 26 44.5t59 17.5q32 0 46 -13.5zM433 778q-19 19 -19 48
q0 34 29 61t64 27q27 0 46 -18.5t19 -44.5q0 -35 -28.5 -63.5t-63.5 -28.5q-28 0 -47 19z" />
    <glyph glyph-name="uni1E46" unicode="&#x1e46;" horiz-adv-x="759" 
d="M747 701.5q14 -13.5 14 -40.5q0 -6 -2 -24q-14 -79 -42 -232q-2 -15 -11 -61q-24 -130 -44.5 -199.5t-49 -102t-74.5 -32.5q-37 0 -64 23t-55.5 75t-78.5 164q-49 108 -84 190q-2 -16 -4 -24q-7 -50 -20 -124q-7 -41 -13.5 -76t-11.5 -64q-4 -21 -9 -47t-10 -57
q-5 -26 -28.5 -44t-55.5 -18q-31 0 -48.5 19t-13.5 43l28 162l18 99l32 188q14 76 27 115t33.5 56.5t55.5 17.5q37 0 63.5 -21.5t56.5 -77t80 -174.5q65 -156 100 -229q16 86 29 164q5 32 32 177l19 106q5 27 26 44.5t59 17.5q32 0 46 -13.5zM257.5 -197.5
q-17.5 17.5 -17.5 45.5q0 39 27.5 65.5t65.5 26.5q30 0 47.5 -17t17.5 -44q0 -40 -27.5 -67t-65.5 -27q-30 0 -47.5 17.5z" />
    <glyph glyph-name="Eng" unicode="&#x14a;" horiz-adv-x="760" 
d="M747 701.5q14 -13.5 14 -40.5q0 -6 -2 -24q-18 -103 -32 -179l-14 -77l-66 -384q-24 -138 -91.5 -199.5t-158.5 -61.5q-75 0 -117 36.5t-42 94.5q0 23 7 40q11 27 33.5 40.5t50.5 13.5q26 0 42 -11.5t16 -32.5q0 -9 -1 -17t-1 -15q0 -37 27 -37t51.5 42t36.5 108l3 18
q-26 9 -48.5 37t-48 77.5t-66.5 141.5q-49 108 -84 190q-2 -16 -4 -24q-7 -50 -20 -124q-7 -41 -13.5 -76t-11.5 -64q-4 -21 -9 -47t-10 -57q-5 -26 -28.5 -44t-55.5 -18q-31 0 -48.5 19t-13.5 43l28 162l18 99l32 188q14 76 27 115t33.5 56.5t55.5 17.5q37 0 63.5 -21.5
t56.5 -77t80 -174.5q65 -156 100 -229q16 86 29 164q5 32 32 177l19 106q5 27 26 44.5t59 17.5q32 0 46 -13.5z" />
    <glyph glyph-name="uni1E48" unicode="&#x1e48;" horiz-adv-x="759" 
d="M747 701.5q14 -13.5 14 -40.5q0 -6 -2 -24q-14 -79 -42 -232q-2 -15 -11 -61q-24 -130 -44.5 -199.5t-49 -102t-74.5 -32.5q-37 0 -64 23t-55.5 75t-78.5 164q-49 108 -84 190q-2 -16 -4 -24q-7 -50 -20 -124q-7 -41 -13.5 -76t-11.5 -64q-4 -21 -9 -47t-10 -57
q-5 -26 -28.5 -44t-55.5 -18q-31 0 -48.5 19t-13.5 43l28 162l18 99l32 188q14 76 27 115t33.5 56.5t55.5 17.5q37 0 63.5 -21.5t56.5 -77t80 -174.5q65 -156 100 -229q16 86 29 164q5 32 32 177l19 106q5 27 26 44.5t59 17.5q32 0 46 -13.5zM145.5 -187.5
q-11.5 12.5 -11.5 32.5q0 24 16 43t39 21q75 9 188 9q37 0 75 -2q11 -1 27 -1q22 0 35 -12t13 -32q0 -27 -19.5 -45.5t-46.5 -18.5l-28 1q-54 3 -76 3q-47 0 -140 -8q-29 -3 -41 -3q-19 0 -30.5 12.5z" />
    <glyph glyph-name="Ntilde" unicode="&#xd1;" horiz-adv-x="759" 
d="M747 701.5q14 -13.5 14 -40.5q0 -6 -2 -24q-14 -79 -42 -232q-2 -15 -11 -61q-24 -130 -44.5 -199.5t-49 -102t-74.5 -32.5q-37 0 -64 23t-55.5 75t-78.5 164q-49 108 -84 190q-2 -16 -4 -24q-7 -50 -20 -124q-7 -41 -13.5 -76t-11.5 -64q-4 -21 -9 -47t-10 -57
q-5 -26 -28.5 -44t-55.5 -18q-31 0 -48.5 19t-13.5 43l28 162l18 99l32 188q14 76 27 115t33.5 56.5t55.5 17.5q37 0 63.5 -21.5t56.5 -77t80 -174.5q65 -156 100 -229q16 86 29 164q5 32 32 177l19 106q5 27 26 44.5t59 17.5q32 0 46 -13.5zM315.5 783.5
q-12.5 13.5 -12.5 30.5q0 24 21 45q34 34 60.5 48t57.5 14q24 0 49 -6.5t45 -18.5q17 -10 26 -14.5t13 -4.5q7 0 15 8q13 13 23.5 18.5t22.5 5.5q18 0 32 -14t14 -33q0 -25 -24 -46q-53 -46 -102 -46q-23 0 -42 8t-41 21q-2 1 -16.5 9.5t-24.5 8.5q-6 0 -14.5 -6.5
t-20.5 -17.5q-26 -23 -50 -23q-19 0 -31.5 13.5z" />
    <glyph glyph-name="O" unicode="O" horiz-adv-x="812" 
d="M213.5 43.5q-72.5 37.5 -112 106.5t-39.5 162q0 107 51 198t141 145t202 54q96 0 171 -40t117 -113t42 -168q0 -108 -53.5 -195t-146 -137t-204.5 -50q-96 0 -168.5 37.5zM519 171q58 35 90 94.5t32 129.5q0 85 -47 134.5t-130 49.5q-73 0 -131 -38.5t-90.5 -101.5
t-32.5 -133q0 -85 47.5 -127.5t128.5 -42.5q75 0 133 35z" />
    <glyph glyph-name="Oacute" unicode="&#xd3;" horiz-adv-x="812" 
d="M213.5 43.5q-72.5 37.5 -112 106.5t-39.5 162q0 107 51 198t141 145t202 54q96 0 171 -40t117 -113t42 -168q0 -108 -53.5 -195t-146 -137t-204.5 -50q-96 0 -168.5 37.5zM519 171q58 35 90 94.5t32 129.5q0 85 -47 134.5t-130 49.5q-73 0 -131 -38.5t-90.5 -101.5
t-32.5 -133q0 -85 47.5 -127.5t128.5 -42.5q75 0 133 35zM419 775.5q-13 15.5 -13 34.5q0 27 29 49l103 78q26 19 38 26t26 7q20 0 32.5 -15t12.5 -36q0 -33 -34 -56l-110 -79q-21 -15 -30 -19.5t-22 -4.5q-19 0 -32 15.5z" />
    <glyph glyph-name="Obreve" unicode="&#x14e;" horiz-adv-x="812" 
d="M213.5 43.5q-72.5 37.5 -112 106.5t-39.5 162q0 107 51 198t141 145t202 54q96 0 171 -40t117 -113t42 -168q0 -108 -53.5 -195t-146 -137t-204.5 -50q-96 0 -168.5 37.5zM519 171q58 35 90 94.5t32 129.5q0 85 -47 134.5t-130 49.5q-73 0 -131 -38.5t-90.5 -101.5
t-32.5 -133q0 -85 47.5 -127.5t128.5 -42.5q75 0 133 35zM415 765.5q-38 16.5 -59.5 46.5t-21.5 67q0 24 10 44q19 33 54 33q18 0 31 -8.5t13 -23.5v-13q3 -70 65 -70q29 0 54 20t33 59q4 19 21 29t37 10q19 0 32 -12.5t13 -30.5q0 -42 -29 -81t-75.5 -62.5t-93.5 -23.5
q-46 0 -84 16.5z" />
    <glyph glyph-name="uni01D1" unicode="&#x1d1;" horiz-adv-x="812" 
d="M213.5 43.5q-72.5 37.5 -112 106.5t-39.5 162q0 107 51 198t141 145t202 54q96 0 171 -40t117 -113t42 -168q0 -108 -53.5 -195t-146 -137t-204.5 -50q-96 0 -168.5 37.5zM519 171q58 35 90 94.5t32 129.5q0 85 -47 134.5t-130 49.5q-73 0 -131 -38.5t-90.5 -101.5
t-32.5 -133q0 -85 47.5 -127.5t128.5 -42.5q75 0 133 35zM682.5 973q11.5 -12 11.5 -30q0 -13 -5.5 -23.5t-16.5 -23.5l-22 -23q-57 -63 -89 -88t-72 -25q-33 0 -65 37t-69 93q-10 14 -10 30q0 23 20.5 41.5t44.5 18.5q13 0 22 -6t21 -21q13 -17 34 -47q9 -14 16.5 -23
t10.5 -9t13 10.5t24 24.5q21 24 52 55q20 21 49 21q19 0 30.5 -12z" />
    <glyph glyph-name="Ocircumflex" unicode="&#xd4;" horiz-adv-x="812" 
d="M213.5 43.5q-72.5 37.5 -112 106.5t-39.5 162q0 107 51 198t141 145t202 54q96 0 171 -40t117 -113t42 -168q0 -108 -53.5 -195t-146 -137t-204.5 -50q-96 0 -168.5 37.5zM519 171q58 35 90 94.5t32 129.5q0 85 -47 134.5t-130 49.5q-73 0 -131 -38.5t-90.5 -101.5
t-32.5 -133q0 -85 47.5 -127.5t128.5 -42.5q75 0 133 35zM569 771q-12 19 -34 57q-3 4 -11.5 18.5t-11.5 14.5q-5 0 -41 -34l-48 -45q-17 -15 -28.5 -21t-24.5 -6q-20 0 -33 12.5t-13 31.5q0 10 6 23t17 23l32 29q50 47 86 74t62 27q30 0 47 -16t42 -55q5 -7 18.5 -27.5
t27.5 -37.5q9 -13 9 -27q0 -25 -18 -43.5t-42 -18.5q-29 0 -42 21z" />
    <glyph glyph-name="uni1ED0" unicode="&#x1ed0;" horiz-adv-x="812" 
d="M213.5 43.5q-72.5 37.5 -112 106.5t-39.5 162q0 107 51 198t141 145t202 54q96 0 171 -40t117 -113t42 -168q0 -108 -53.5 -195t-146 -137t-204.5 -50q-96 0 -168.5 37.5zM519 171q58 35 90 94.5t32 129.5q0 85 -47 134.5t-130 49.5q-73 0 -131 -38.5t-90.5 -101.5
t-32.5 -133q0 -85 47.5 -127.5t128.5 -42.5q75 0 133 35zM651.5 954.5q-11.5 12.5 -11.5 30.5q0 27 28 53l42 40q18 17 32 24.5t29 7.5q20 0 32 -12t12 -31t-10 -34.5t-23 -25.5l-49 -41q-28 -24 -52 -24q-18 0 -29.5 12.5zM570 772q-12 19 -34 57q-3 4 -11.5 18.5
t-11.5 14.5q-5 0 -41 -34l-48 -45q-17 -15 -28.5 -21t-24.5 -6q-20 0 -33 12.5t-13 31.5q0 10 6 23t17 23l32 29q50 47 86 74t62 27q30 0 47 -16t42 -55q5 -7 18.5 -27.5t27.5 -37.5q9 -13 9 -27q0 -25 -18 -43.5t-42 -18.5q-29 0 -42 21z" />
    <glyph glyph-name="uni1ED8" unicode="&#x1ed8;" horiz-adv-x="812" 
d="M213.5 43.5q-72.5 37.5 -112 106.5t-39.5 162q0 107 51 198t141 145t202 54q96 0 171 -40t117 -113t42 -168q0 -108 -53.5 -195t-146 -137t-204.5 -50q-96 0 -168.5 37.5zM519 171q58 35 90 94.5t32 129.5q0 85 -47 134.5t-130 49.5q-73 0 -131 -38.5t-90.5 -101.5
t-32.5 -133q0 -85 47.5 -127.5t128.5 -42.5q75 0 133 35zM270.5 -197.5q-17.5 17.5 -17.5 45.5q0 39 27.5 65.5t65.5 26.5q30 0 47.5 -17t17.5 -44q0 -40 -27.5 -67t-65.5 -27q-30 0 -47.5 17.5zM569 771q-12 19 -34 57q-3 4 -11.5 18.5t-11.5 14.5q-5 0 -41 -34l-48 -45
q-17 -15 -28.5 -21t-24.5 -6q-20 0 -33 12.5t-13 31.5q0 10 6 23t17 23l32 29q50 47 86 74t62 27q30 0 47 -16t42 -55q5 -7 18.5 -27.5t27.5 -37.5q9 -13 9 -27q0 -25 -18 -43.5t-42 -18.5q-29 0 -42 21z" />
    <glyph glyph-name="uni1ED2" unicode="&#x1ed2;" horiz-adv-x="812" 
d="M213.5 43.5q-72.5 37.5 -112 106.5t-39.5 162q0 107 51 198t141 145t202 54q96 0 171 -40t117 -113t42 -168q0 -108 -53.5 -195t-146 -137t-204.5 -50q-96 0 -168.5 37.5zM519 171q58 35 90 94.5t32 129.5q0 85 -47 134.5t-130 49.5q-73 0 -131 -38.5t-90.5 -101.5
t-32.5 -133q0 -85 47.5 -127.5t128.5 -42.5q75 0 133 35zM642 966l-34 41q-16 18 -16 40q0 26 19 44.5t44 18.5q28 0 50 -32l28 -40q12 -17 12 -37q0 -24 -18 -41.5t-41 -17.5q-24 0 -44 24zM570 772q-12 19 -34 57q-3 4 -11.5 18.5t-11.5 14.5q-5 0 -41 -34l-48 -45
q-17 -15 -28.5 -21t-24.5 -6q-20 0 -33 12.5t-13 31.5q0 10 6 23t17 23l32 29q50 47 86 74t62 27q30 0 47 -16t42 -55q5 -7 18.5 -27.5t27.5 -37.5q9 -13 9 -27q0 -25 -18 -43.5t-42 -18.5q-29 0 -42 21z" />
    <glyph glyph-name="uni1ED4" unicode="&#x1ed4;" horiz-adv-x="812" 
d="M213.5 43.5q-72.5 37.5 -112 106.5t-39.5 162q0 107 51 198t141 145t202 54q96 0 171 -40t117 -113t42 -168q0 -108 -53.5 -195t-146 -137t-204.5 -50q-96 0 -168.5 37.5zM519 171q58 35 90 94.5t32 129.5q0 85 -47 134.5t-130 49.5q-73 0 -131 -38.5t-90.5 -101.5
t-32.5 -133q0 -85 47.5 -127.5t128.5 -42.5q75 0 133 35zM664.5 952.5q-10.5 9.5 -10.5 22.5q0 11 5 33q1 7 10.5 14.5t19.5 14.5q16 10 25 19t9 18q0 7 -5 12.5t-16 5.5q-31 0 -38 -20q-4 -11 -14 -17t-20 -6q-13 0 -19.5 8t-6.5 20q0 36 34.5 59.5t77.5 23.5
q37 0 62.5 -18.5t25.5 -49.5q0 -20 -11 -34.5t-30 -30.5q-8 -6 -14 -12.5t-7 -11.5l-4 -24q-2 -17 -16.5 -26.5t-32.5 -9.5q-14 0 -24.5 9.5zM570 772q-12 19 -34 57q-3 4 -11.5 18.5t-11.5 14.5q-5 0 -41 -34l-48 -45q-17 -15 -28.5 -21t-24.5 -6q-20 0 -33 12.5t-13 31.5
q0 10 6 23t17 23l32 29q50 47 86 74t62 27q30 0 47 -16t42 -55q5 -7 18.5 -27.5t27.5 -37.5q9 -13 9 -27q0 -25 -18 -43.5t-42 -18.5q-29 0 -42 21z" />
    <glyph glyph-name="uni1ED6" unicode="&#x1ed6;" horiz-adv-x="812" 
d="M213.5 43.5q-72.5 37.5 -112 106.5t-39.5 162q0 107 51 198t141 145t202 54q96 0 171 -40t117 -113t42 -168q0 -108 -53.5 -195t-146 -137t-204.5 -50q-96 0 -168.5 37.5zM519 171q58 35 90 94.5t32 129.5q0 85 -47 134.5t-130 49.5q-73 0 -131 -38.5t-90.5 -101.5
t-32.5 -133q0 -85 47.5 -127.5t128.5 -42.5q75 0 133 35zM373.5 1027q-11.5 11 -11.5 27q0 21 22 40q33 28 56.5 38.5t54.5 10.5q43 0 85 -21q11 -6 25 -11t22 -5q11 0 22 7q7 4 16 10.5t15.5 9.5t14.5 3q17 0 29.5 -13t12.5 -29q0 -11 -6 -21.5t-16 -17.5q-58 -39 -101 -39
q-19 0 -36 5.5t-30 11.5t-18 8q-7 3 -19.5 9t-20.5 6q-7 0 -15.5 -4.5t-22.5 -15.5q-25 -20 -47 -20q-20 0 -31.5 11zM570 772q-12 19 -34 57q-3 4 -11.5 18.5t-11.5 14.5q-5 0 -41 -34l-48 -45q-17 -15 -28.5 -21t-24.5 -6q-20 0 -33 12.5t-13 31.5q0 10 6 23t17 23l32 29
q50 47 86 74t62 27q30 0 47 -16t42 -55q5 -7 18.5 -27.5t27.5 -37.5q9 -13 9 -27q0 -25 -18 -43.5t-42 -18.5q-29 0 -42 21z" />
    <glyph glyph-name="Odieresis" unicode="&#xd6;" horiz-adv-x="812" 
d="M213.5 43.5q-72.5 37.5 -112 106.5t-39.5 162q0 107 51 198t141 145t202 54q96 0 171 -40t117 -113t42 -168q0 -108 -53.5 -195t-146 -137t-204.5 -50q-96 0 -168.5 37.5zM519 171q58 35 90 94.5t32 129.5q0 85 -47 134.5t-130 49.5q-73 0 -131 -38.5t-90.5 -101.5
t-32.5 -133q0 -85 47.5 -127.5t128.5 -42.5q75 0 133 35zM307.5 779q-18.5 19 -18.5 46q0 35 28.5 62.5t63.5 27.5q28 0 47.5 -19.5t19.5 -45.5q0 -34 -29.5 -62t-64.5 -28q-28 0 -46.5 19zM583.5 779q-18.5 19 -18.5 46q0 35 28.5 62.5t63.5 27.5q28 0 47 -19t19 -46
q0 -34 -29 -62t-64 -28q-28 0 -46.5 19z" />
    <glyph glyph-name="uni1ECC" unicode="&#x1ecc;" horiz-adv-x="812" 
d="M213.5 43.5q-72.5 37.5 -112 106.5t-39.5 162q0 107 51 198t141 145t202 54q96 0 171 -40t117 -113t42 -168q0 -108 -53.5 -195t-146 -137t-204.5 -50q-96 0 -168.5 37.5zM519 171q58 35 90 94.5t32 129.5q0 85 -47 134.5t-130 49.5q-73 0 -131 -38.5t-90.5 -101.5
t-32.5 -133q0 -85 47.5 -127.5t128.5 -42.5q75 0 133 35zM270.5 -197.5q-17.5 17.5 -17.5 45.5q0 39 27.5 65.5t65.5 26.5q30 0 47.5 -17t17.5 -44q0 -40 -27.5 -67t-65.5 -27q-30 0 -47.5 17.5z" />
    <glyph glyph-name="Ograve" unicode="&#xd2;" horiz-adv-x="812" 
d="M213.5 43.5q-72.5 37.5 -112 106.5t-39.5 162q0 107 51 198t141 145t202 54q96 0 171 -40t117 -113t42 -168q0 -108 -53.5 -195t-146 -137t-204.5 -50q-96 0 -168.5 37.5zM519 171q58 35 90 94.5t32 129.5q0 85 -47 134.5t-130 49.5q-73 0 -131 -38.5t-90.5 -101.5
t-32.5 -133q0 -85 47.5 -127.5t128.5 -42.5q75 0 133 35zM499 755.5q-10 5.5 -20 18.5l-64 86q-15 20 -15 42q0 25 19 43t44 18q15 0 26.5 -7.5t22.5 -24.5l58 -85q12 -19 12 -37q0 -24 -18 -41.5t-41 -17.5q-14 0 -24 5.5z" />
    <glyph glyph-name="uni1ECE" unicode="&#x1ece;" horiz-adv-x="812" 
d="M213.5 43.5q-72.5 37.5 -112 106.5t-39.5 162q0 107 51 198t141 145t202 54q96 0 171 -40t117 -113t42 -168q0 -108 -53.5 -195t-146 -137t-204.5 -50q-96 0 -168.5 37.5zM519 171q58 35 90 94.5t32 129.5q0 85 -47 134.5t-130 49.5q-73 0 -131 -38.5t-90.5 -101.5
t-32.5 -133q0 -85 47.5 -127.5t128.5 -42.5q75 0 133 35zM447.5 762.5q-14.5 13.5 -11.5 32.5l9 50q2 11 12 19.5t29 20.5q22 14 34 25t12 26q0 11 -7.5 20t-22.5 9q-18 0 -30 -8t-25 -25q-22 -29 -47 -29q-15 0 -25.5 11.5t-10.5 23.5q0 18 17 40q30 39 63.5 57.5
t77.5 18.5q54 0 90 -26.5t36 -68.5q0 -32 -15 -51t-43 -38q-11 -8 -20 -16t-12 -16l-6 -41q-4 -24 -22.5 -36t-45.5 -12q-22 0 -36.5 13.5z" />
    <glyph glyph-name="Ohorn" unicode="&#x1a0;" horiz-adv-x="894" 
d="M889.5 552q-42.5 -57 -112.5 -82q9 -39 9 -82q0 -108 -53.5 -195t-146 -137t-204.5 -50q-96 0 -168.5 37.5t-112 106.5t-39.5 162q0 107 51 198t141 145t202 54q100 0 177 -43.5t117 -120.5q32 12 57.5 42.5t33.5 80.5q8 48 52 48q39 0 39 -36q0 -71 -42.5 -128zM519 171
q58 35 90 94.5t32 129.5q0 85 -47 134.5t-130 49.5q-73 0 -131 -38.5t-90.5 -101.5t-32.5 -133q0 -85 47.5 -127.5t128.5 -42.5q75 0 133 35z" />
    <glyph glyph-name="uni1EDA" unicode="&#x1eda;" horiz-adv-x="894" 
d="M889.5 552q-42.5 -57 -112.5 -82q9 -39 9 -82q0 -108 -53.5 -195t-146 -137t-204.5 -50q-96 0 -168.5 37.5t-112 106.5t-39.5 162q0 107 51 198t141 145t202 54q100 0 177 -43.5t117 -120.5q32 12 57.5 42.5t33.5 80.5q8 48 52 48q39 0 39 -36q0 -71 -42.5 -128zM519 171
q58 35 90 94.5t32 129.5q0 85 -47 134.5t-130 49.5q-73 0 -131 -38.5t-90.5 -101.5t-32.5 -133q0 -85 47.5 -127.5t128.5 -42.5q75 0 133 35zM419 775.5q-13 15.5 -13 34.5q0 27 29 49l103 78q26 19 38 26t26 7q20 0 32.5 -15t12.5 -36q0 -33 -34 -56l-110 -79
q-21 -15 -30 -19.5t-22 -4.5q-19 0 -32 15.5z" />
    <glyph glyph-name="uni1EE2" unicode="&#x1ee2;" horiz-adv-x="894" 
d="M889.5 552q-42.5 -57 -112.5 -82q9 -39 9 -82q0 -108 -53.5 -195t-146 -137t-204.5 -50q-96 0 -168.5 37.5t-112 106.5t-39.5 162q0 107 51 198t141 145t202 54q100 0 177 -43.5t117 -120.5q32 12 57.5 42.5t33.5 80.5q8 48 52 48q39 0 39 -36q0 -71 -42.5 -128zM519 171
q58 35 90 94.5t32 129.5q0 85 -47 134.5t-130 49.5q-73 0 -131 -38.5t-90.5 -101.5t-32.5 -133q0 -85 47.5 -127.5t128.5 -42.5q75 0 133 35zM270.5 -197.5q-17.5 17.5 -17.5 45.5q0 39 27.5 65.5t65.5 26.5q30 0 47.5 -17t17.5 -44q0 -40 -27.5 -67t-65.5 -27
q-30 0 -47.5 17.5z" />
    <glyph glyph-name="uni1EDC" unicode="&#x1edc;" horiz-adv-x="894" 
d="M889.5 552q-42.5 -57 -112.5 -82q9 -39 9 -82q0 -108 -53.5 -195t-146 -137t-204.5 -50q-96 0 -168.5 37.5t-112 106.5t-39.5 162q0 107 51 198t141 145t202 54q100 0 177 -43.5t117 -120.5q32 12 57.5 42.5t33.5 80.5q8 48 52 48q39 0 39 -36q0 -71 -42.5 -128zM519 171
q58 35 90 94.5t32 129.5q0 85 -47 134.5t-130 49.5q-73 0 -131 -38.5t-90.5 -101.5t-32.5 -133q0 -85 47.5 -127.5t128.5 -42.5q75 0 133 35zM499 755.5q-10 5.5 -20 18.5l-64 86q-15 20 -15 42q0 25 19 43t44 18q15 0 26.5 -7.5t22.5 -24.5l58 -85q12 -19 12 -37
q0 -24 -18 -41.5t-41 -17.5q-14 0 -24 5.5z" />
    <glyph glyph-name="uni1EDE" unicode="&#x1ede;" horiz-adv-x="894" 
d="M889.5 552q-42.5 -57 -112.5 -82q9 -39 9 -82q0 -108 -53.5 -195t-146 -137t-204.5 -50q-96 0 -168.5 37.5t-112 106.5t-39.5 162q0 107 51 198t141 145t202 54q100 0 177 -43.5t117 -120.5q32 12 57.5 42.5t33.5 80.5q8 48 52 48q39 0 39 -36q0 -71 -42.5 -128zM519 171
q58 35 90 94.5t32 129.5q0 85 -47 134.5t-130 49.5q-73 0 -131 -38.5t-90.5 -101.5t-32.5 -133q0 -85 47.5 -127.5t128.5 -42.5q75 0 133 35zM447.5 762.5q-14.5 13.5 -11.5 32.5l9 50q2 11 12 19.5t29 20.5q22 14 34 25t12 26q0 11 -7.5 20t-22.5 9q-18 0 -30 -8t-25 -25
q-22 -29 -47 -29q-15 0 -25.5 11.5t-10.5 23.5q0 18 17 40q30 39 63.5 57.5t77.5 18.5q54 0 90 -26.5t36 -68.5q0 -32 -15 -51t-43 -38q-11 -8 -20 -16t-12 -16l-6 -41q-4 -24 -22.5 -36t-45.5 -12q-22 0 -36.5 13.5z" />
    <glyph glyph-name="uni1EE0" unicode="&#x1ee0;" horiz-adv-x="894" 
d="M889.5 552q-42.5 -57 -112.5 -82q9 -39 9 -82q0 -108 -53.5 -195t-146 -137t-204.5 -50q-96 0 -168.5 37.5t-112 106.5t-39.5 162q0 107 51 198t141 145t202 54q100 0 177 -43.5t117 -120.5q32 12 57.5 42.5t33.5 80.5q8 48 52 48q39 0 39 -36q0 -71 -42.5 -128zM519 171
q58 35 90 94.5t32 129.5q0 85 -47 134.5t-130 49.5q-73 0 -131 -38.5t-90.5 -101.5t-32.5 -133q0 -85 47.5 -127.5t128.5 -42.5q75 0 133 35zM328.5 783.5q-12.5 13.5 -12.5 30.5q0 24 21 45q34 34 60.5 48t57.5 14q24 0 49 -6.5t45 -18.5q17 -10 26 -14.5t13 -4.5q7 0 15 8
q13 13 23.5 18.5t22.5 5.5q18 0 32 -14t14 -33q0 -25 -24 -46q-53 -46 -102 -46q-23 0 -42 8t-41 21q-2 1 -16.5 9.5t-24.5 8.5q-6 0 -14.5 -6.5t-20.5 -17.5q-26 -23 -50 -23q-19 0 -31.5 13.5z" />
    <glyph glyph-name="Ohungarumlaut" unicode="&#x150;" horiz-adv-x="812" 
d="M213.5 43.5q-72.5 37.5 -112 106.5t-39.5 162q0 107 51 198t141 145t202 54q96 0 171 -40t117 -113t42 -168q0 -108 -53.5 -195t-146 -137t-204.5 -50q-96 0 -168.5 37.5zM519 171q58 35 90 94.5t32 129.5q0 85 -47 134.5t-130 49.5q-73 0 -131 -38.5t-90.5 -101.5
t-32.5 -133q0 -85 47.5 -127.5t128.5 -42.5q75 0 133 35zM315 761.5q-11 11.5 -11 28.5q0 28 28 56l87 85q33 32 62 32q20 0 31.5 -12t11.5 -31q0 -29 -33 -60l-95 -87q-24 -23 -51 -23q-19 0 -30 11.5zM545.5 761.5q-11.5 11.5 -11.5 28.5q0 28 28 56l87 85q33 32 62 32
q20 0 31.5 -12t11.5 -31q0 -29 -33 -60l-94 -86q-25 -24 -52 -24q-18 0 -29.5 11.5z" />
    <glyph glyph-name="Omacron" unicode="&#x14c;" horiz-adv-x="812" 
d="M213.5 43.5q-72.5 37.5 -112 106.5t-39.5 162q0 107 51 198t141 145t202 54q96 0 171 -40t117 -113t42 -168q0 -108 -53.5 -195t-146 -137t-204.5 -50q-96 0 -168.5 37.5zM519 171q58 35 90 94.5t32 129.5q0 85 -47 134.5t-130 49.5q-73 0 -131 -38.5t-90.5 -101.5
t-32.5 -133q0 -85 47.5 -127.5t128.5 -42.5q75 0 133 35zM297 789q-10 12 -10 31q0 29 16.5 46.5t44.5 22.5q40 7 77.5 11t91.5 4l147 1q22 0 34.5 -13t12.5 -34q0 -28 -18.5 -46t-47.5 -18l-43 1q-38 3 -86 3q-54 0 -98 -5t-93 -13q-18 -3 -28 9z" />
    <glyph glyph-name="Oslash" unicode="&#xd8;" horiz-adv-x="837" 
d="M861.5 753q13.5 -13 13.5 -32l-1 -9q-5 -21 -25 -40l-110 -108q47 -77 47 -176q0 -108 -53.5 -195t-146 -137t-204.5 -50q-97 0 -172 39l-66 -65q-10 -12 -24.5 -19.5t-29.5 -7.5q-20 0 -34 12.5t-14 31.5l1 8q1 7 3.5 13t10.5 16l75 73q-70 81 -70 205q0 107 51 198
t141 145t202 54q128 0 217 -70l101 99q12 14 27 21t28 7q19 0 32.5 -13zM234 208l343 337q-45 34 -113 34q-73 0 -131 -38.5t-90.5 -101.5t-32.5 -133q0 -58 24 -98zM633 460l-319 -314q30 -10 72 -10q75 0 133 35t90 94.5t32 129.5q0 33 -8 65z" />
    <glyph glyph-name="Oslashacute" unicode="&#x1fe;" horiz-adv-x="837" 
d="M861.5 753q13.5 -13 13.5 -32l-1 -9q-5 -21 -25 -40l-110 -108q47 -77 47 -176q0 -108 -53.5 -195t-146 -137t-204.5 -50q-97 0 -172 39l-66 -65q-10 -12 -24.5 -19.5t-29.5 -7.5q-20 0 -34 12.5t-14 31.5l1 8q1 7 3.5 13t10.5 16l75 73q-70 81 -70 205q0 107 51 198
t141 145t202 54q128 0 217 -70l101 99q12 14 27 21t28 7q19 0 32.5 -13zM234 208l343 337q-45 34 -113 34q-73 0 -131 -38.5t-90.5 -101.5t-32.5 -133q0 -58 24 -98zM633 460l-319 -314q30 -10 72 -10q75 0 133 35t90 94.5t32 129.5q0 33 -8 65zM419 775.5
q-13 15.5 -13 34.5q0 27 29 49l103 78q26 19 38 26t26 7q20 0 32.5 -15t12.5 -36q0 -33 -34 -56l-110 -79q-21 -15 -30 -19.5t-22 -4.5q-19 0 -32 15.5z" />
    <glyph glyph-name="Otilde" unicode="&#xd5;" horiz-adv-x="812" 
d="M213.5 43.5q-72.5 37.5 -112 106.5t-39.5 162q0 107 51 198t141 145t202 54q96 0 171 -40t117 -113t42 -168q0 -108 -53.5 -195t-146 -137t-204.5 -50q-96 0 -168.5 37.5zM519 171q58 35 90 94.5t32 129.5q0 85 -47 134.5t-130 49.5q-73 0 -131 -38.5t-90.5 -101.5
t-32.5 -133q0 -85 47.5 -127.5t128.5 -42.5q75 0 133 35zM328.5 783.5q-12.5 13.5 -12.5 30.5q0 24 21 45q34 34 60.5 48t57.5 14q24 0 49 -6.5t45 -18.5q17 -10 26 -14.5t13 -4.5q7 0 15 8q13 13 23.5 18.5t22.5 5.5q18 0 32 -14t14 -33q0 -25 -24 -46q-53 -46 -102 -46
q-23 0 -42 8t-41 21q-2 1 -16.5 9.5t-24.5 8.5q-6 0 -14.5 -6.5t-20.5 -17.5q-26 -23 -50 -23q-19 0 -31.5 13.5z" />
    <glyph glyph-name="OE" unicode="&#x152;" horiz-adv-x="1018" 
d="M1042.5 681.5q5.5 -9.5 5.5 -31.5q0 -35 -15.5 -51.5t-51.5 -16.5q-7 0 -32.5 1t-78.5 1q-49 0 -65 -1l-27 -1l-15 -95q-2 -15 -4.5 -25t-3.5 -18q-6 -22 -8 -38l119 2q35 0 50.5 -10.5t15.5 -36.5q0 -32 -18.5 -52.5t-50.5 -20.5l-110 -1q-10 -1 -34 -1l-19 -92l-16 -80
q1 0 7.5 -0.5t23.5 -0.5l72 1q41 1 84 6q20 2 28 2q25 0 34.5 -9.5t9.5 -30.5q0 -30 -14.5 -44.5t-34.5 -18.5q-24 -5 -126 -5q-110 -2 -151 -4l-52 -1q-39 0 -53.5 8.5t-14.5 26.5q0 24 18 42t40 18q3 20 4 25l4 31q-38 -56 -109.5 -103t-160.5 -47q-113 0 -172.5 78
t-59.5 210q0 112 46.5 206.5t127.5 149.5t180 55q65 0 114.5 -23.5t78.5 -63t35 -86.5l7 32q1 3 1.5 8.5t2.5 13.5q-23 0 -23 35q0 27 15.5 45.5t46.5 19.5q126 6 197 6q42 0 134 -4q13 -1 18.5 -10.5zM461 176q52 46 81 115.5t29 133.5q0 79 -44 127t-112 48
q-61 0 -110.5 -39.5t-78 -105.5t-28.5 -142q0 -93 42 -138t104 -45q65 0 117 46z" />
    <glyph glyph-name="P" unicode="P" horiz-adv-x="683" 
d="M560.5 669q58.5 -28 92 -76.5t33.5 -107.5q0 -73 -42.5 -129t-113 -86t-151.5 -30q-34 0 -66 5.5t-51 11.5l-38 -200q-5 -29 -28.5 -47.5t-57.5 -18.5q-29 0 -46 13t-17 39q0 6 2 18l10 52q26 128 35 181q17 95 34 217l-4 -2q-10 -5 -19 -5q-14 0 -22 13t-8 33
q0 28 14.5 44t46.5 33q2 1 4.5 2.5t4.5 2.5l2 13q5 32 26 48.5t61 16.5t54 -7t13 -16v-1q50 11 100 11q73 0 131.5 -28zM447.5 375.5q33.5 17.5 53 47t19.5 62.5q0 40 -32.5 62.5t-85.5 22.5q-38 0 -91 -12l-8 -43q-6 -31 -10 -60.5t-5 -39.5l-5 -38q13 -7 40.5 -13t51.5 -6
q39 0 72.5 17.5z" />
    <glyph glyph-name="Thorn" unicode="&#xde;" horiz-adv-x="686" 
d="M556 619.5q60 -28.5 91.5 -78.5t31.5 -113q0 -77 -47 -134.5t-122 -87.5t-157 -30q-44 0 -83 12l-29 -130q-6 -28 -32 -47t-62 -19q-32 0 -52 17.5t-20 41.5q0 7 1 11q16 84 39 188l9 43q9 42 30 169l-12 -5q-14 -6 -26 -6q-22 0 -39 18t-17 40q0 35 41 63q29 20 76 35
l13 88q4 27 26.5 46.5t57.5 19.5q33 0 58.5 -17t21.5 -49l-9 -51q50 4 69 4q82 0 142 -28.5zM471 337.5q42 31.5 42 86.5q0 93 -136 93q-31 0 -54 -4q-4 -24 -15 -94l-14 -102q40 -11 74 -11q61 0 103 31.5z" />
    <glyph glyph-name="Q" unicode="Q" horiz-adv-x="803" 
d="M701 133q15 -17 15 -37q0 -33 -28 -60.5t-61 -27.5q-31 0 -49 21l-25 30q-93 -48 -195 -48q-92 0 -159 40.5t-101.5 110t-34.5 153.5q0 108 55 199.5t147 145t199 53.5q92 0 164 -41t112 -111t40 -156q0 -70 -26 -133.5t-74 -115.5zM466 161l-34 40q-13 16 -13 34
q0 17 16 37.5t39 34.5t43 14q18 0 28 -12l42 -47q46 68 46 146t-46.5 126.5t-125.5 48.5q-71 0 -128 -39t-89 -102t-32 -132q0 -81 44 -125t116 -44q48 0 94 20z" />
    <glyph glyph-name="R" unicode="R" horiz-adv-x="692" 
d="M642 365.5q-46 -49.5 -122 -73t-167 -23.5q-15 0 -39 2l247 -145q28 -16 28 -38q0 -32 -17.5 -55.5t-48.5 -23.5q-27 0 -53 17l-231 148l-21 -116q-5 -30 -26.5 -47.5t-55.5 -17.5q-32 0 -47.5 15.5t-15.5 41.5q0 6 2 18l11 65l36 207q13 66 26 160l-4 -1q-9 -3 -16 -3
q-15 0 -23 7.5t-8 30.5q0 32 9.5 54.5t36.5 36.5q9 5 26 11v2q4 30 29 48t60 18q61 0 58 -20v-2q65 17 106 17q85 0 145 -27.5t90.5 -75.5t30.5 -107q0 -74 -46 -123.5zM299 555l-23 -172q27 -4 84 -4q70 0 116 31t46 81q0 38 -29 59t-82 21q-55 0 -112 -16z" />
    <glyph glyph-name="Racute" unicode="&#x154;" horiz-adv-x="692" 
d="M642 365.5q-46 -49.5 -122 -73t-167 -23.5q-15 0 -39 2l247 -145q28 -16 28 -38q0 -32 -17.5 -55.5t-48.5 -23.5q-27 0 -53 17l-231 148l-21 -116q-5 -30 -26.5 -47.5t-55.5 -17.5q-32 0 -47.5 15.5t-15.5 41.5q0 6 2 18l11 65l36 207q13 66 26 160l-4 -1q-9 -3 -16 -3
q-15 0 -23 7.5t-8 30.5q0 32 9.5 54.5t36.5 36.5q9 5 26 11v2q4 30 29 48t60 18q61 0 58 -20v-2q65 17 106 17q85 0 145 -27.5t90.5 -75.5t30.5 -107q0 -74 -46 -123.5zM299 555l-23 -172q27 -4 84 -4q70 0 116 31t46 81q0 38 -29 59t-82 21q-55 0 -112 -16zM369 775.5
q-13 15.5 -13 34.5q0 27 29 49l103 78q26 19 38 26t26 7q20 0 32.5 -15t12.5 -36q0 -33 -34 -56l-110 -79q-21 -15 -30 -19.5t-22 -4.5q-19 0 -32 15.5z" />
    <glyph glyph-name="Rcaron" unicode="&#x158;" horiz-adv-x="692" 
d="M642 365.5q-46 -49.5 -122 -73t-167 -23.5q-15 0 -39 2l247 -145q28 -16 28 -38q0 -32 -17.5 -55.5t-48.5 -23.5q-27 0 -53 17l-231 148l-21 -116q-5 -30 -26.5 -47.5t-55.5 -17.5q-32 0 -47.5 15.5t-15.5 41.5q0 6 2 18l11 65l36 207q13 66 26 160l-4 -1q-9 -3 -16 -3
q-15 0 -23 7.5t-8 30.5q0 32 9.5 54.5t36.5 36.5q9 5 26 11v2q4 30 29 48t60 18q61 0 58 -20v-2q65 17 106 17q85 0 145 -27.5t90.5 -75.5t30.5 -107q0 -74 -46 -123.5zM299 555l-23 -172q27 -4 84 -4q70 0 116 31t46 81q0 38 -29 59t-82 21q-55 0 -112 -16zM632.5 973
q11.5 -12 11.5 -30q0 -13 -5.5 -23.5t-16.5 -23.5l-22 -23q-57 -63 -89 -88t-72 -25q-33 0 -65 37t-69 93q-10 14 -10 30q0 23 20.5 41.5t44.5 18.5q13 0 22 -6t21 -21q13 -17 34 -47q9 -14 16.5 -23t10.5 -9t13 10.5t24 24.5q21 24 52 55q20 21 49 21q19 0 30.5 -12z" />
    <glyph glyph-name="uni0156" unicode="&#x156;" horiz-adv-x="692" 
d="M642 365.5q-46 -49.5 -122 -73t-167 -23.5q-15 0 -39 2l247 -145q28 -16 28 -38q0 -32 -17.5 -55.5t-48.5 -23.5q-27 0 -53 17l-231 148l-21 -116q-5 -30 -26.5 -47.5t-55.5 -17.5q-32 0 -47.5 15.5t-15.5 41.5q0 6 2 18l11 65l36 207q13 66 26 160l-4 -1q-9 -3 -16 -3
q-15 0 -23 7.5t-8 30.5q0 32 9.5 54.5t36.5 36.5q9 5 26 11v2q4 30 29 48t60 18q61 0 58 -20v-2q65 17 106 17q85 0 145 -27.5t90.5 -75.5t30.5 -107q0 -74 -46 -123.5zM299 555l-23 -172q27 -4 84 -4q70 0 116 31t46 81q0 38 -29 59t-82 21q-55 0 -112 -16zM358.5 -81
q18.5 -21 18.5 -51q0 -43 -36 -87.5t-88 -82.5q-16 -11 -36 -11q-15 0 -26 9t-11 25q0 9 3.5 18t8.5 14l19 17l31 29q-14 6 -23 21t-9 32q0 37 27 62.5t69 25.5q34 0 52.5 -21z" />
    <glyph glyph-name="uni1E5A" unicode="&#x1e5a;" horiz-adv-x="692" 
d="M642 365.5q-46 -49.5 -122 -73t-167 -23.5q-15 0 -39 2l247 -145q28 -16 28 -38q0 -32 -17.5 -55.5t-48.5 -23.5q-27 0 -53 17l-231 148l-21 -116q-5 -30 -26.5 -47.5t-55.5 -17.5q-32 0 -47.5 15.5t-15.5 41.5q0 6 2 18l11 65l36 207q13 66 26 160l-4 -1q-9 -3 -16 -3
q-15 0 -23 7.5t-8 30.5q0 32 9.5 54.5t36.5 36.5q9 5 26 11v2q4 30 29 48t60 18q61 0 58 -20v-2q65 17 106 17q85 0 145 -27.5t90.5 -75.5t30.5 -107q0 -74 -46 -123.5zM299 555l-23 -172q27 -4 84 -4q70 0 116 31t46 81q0 38 -29 59t-82 21q-55 0 -112 -16zM220.5 -197.5
q-17.5 17.5 -17.5 45.5q0 39 27.5 65.5t65.5 26.5q30 0 47.5 -17t17.5 -44q0 -40 -27.5 -67t-65.5 -27q-30 0 -47.5 17.5z" />
    <glyph glyph-name="uni1E5C" unicode="&#x1e5c;" horiz-adv-x="692" 
d="M642 365.5q-46 -49.5 -122 -73t-167 -23.5q-15 0 -39 2l247 -145q28 -16 28 -38q0 -32 -17.5 -55.5t-48.5 -23.5q-27 0 -53 17l-231 148l-21 -116q-5 -30 -26.5 -47.5t-55.5 -17.5q-32 0 -47.5 15.5t-15.5 41.5q0 6 2 18l11 65l36 207q13 66 26 160l-4 -1q-9 -3 -16 -3
q-15 0 -23 7.5t-8 30.5q0 32 9.5 54.5t36.5 36.5q9 5 26 11v2q4 30 29 48t60 18q61 0 58 -20v-2q65 17 106 17q85 0 145 -27.5t90.5 -75.5t30.5 -107q0 -74 -46 -123.5zM299 555l-23 -172q27 -4 84 -4q70 0 116 31t46 81q0 38 -29 59t-82 21q-55 0 -112 -16zM220.5 -197.5
q-17.5 17.5 -17.5 45.5q0 39 27.5 65.5t65.5 26.5q30 0 47.5 -17t17.5 -44q0 -40 -27.5 -67t-65.5 -27q-30 0 -47.5 17.5zM247 789q-10 12 -10 31q0 29 16.5 46.5t44.5 22.5q40 7 77.5 11t91.5 4l147 1q22 0 34.5 -13t12.5 -34q0 -28 -18.5 -46t-47.5 -18l-43 1q-38 3 -86 3
q-54 0 -98 -5t-93 -13q-18 -3 -28 9z" />
    <glyph glyph-name="uni1E5E" unicode="&#x1e5e;" horiz-adv-x="692" 
d="M642 365.5q-46 -49.5 -122 -73t-167 -23.5q-15 0 -39 2l247 -145q28 -16 28 -38q0 -32 -17.5 -55.5t-48.5 -23.5q-27 0 -53 17l-231 148l-21 -116q-5 -30 -26.5 -47.5t-55.5 -17.5q-32 0 -47.5 15.5t-15.5 41.5q0 6 2 18l11 65l36 207q13 66 26 160l-4 -1q-9 -3 -16 -3
q-15 0 -23 7.5t-8 30.5q0 32 9.5 54.5t36.5 36.5q9 5 26 11v2q4 30 29 48t60 18q61 0 58 -20v-2q65 17 106 17q85 0 145 -27.5t90.5 -75.5t30.5 -107q0 -74 -46 -123.5zM299 555l-23 -172q27 -4 84 -4q70 0 116 31t46 81q0 38 -29 59t-82 21q-55 0 -112 -16zM108.5 -187.5
q-11.5 12.5 -11.5 32.5q0 24 16 43t39 21q75 9 188 9q37 0 75 -2q11 -1 27 -1q22 0 35 -12t13 -32q0 -27 -19.5 -45.5t-46.5 -18.5l-28 1q-54 3 -76 3q-47 0 -140 -8q-29 -3 -41 -3q-19 0 -30.5 12.5z" />
    <glyph glyph-name="S" unicode="S" horiz-adv-x="626" 
d="M172.5 24.5q-55.5 25.5 -86 71t-30.5 103.5q0 97 89 97q39 0 51 -15.5t12 -36.5q0 -36 5.5 -60t26 -39.5t60.5 -15.5q48 0 81.5 21t33.5 55q0 24 -17 39t-36.5 22.5t-65.5 22.5q-194 63 -194 199q0 63 37.5 113.5t100 79t135.5 28.5q67 0 120.5 -24.5t84 -67t30.5 -96.5
q0 -46 -22 -67.5t-67 -21.5q-35 0 -46.5 12t-11.5 39q0 46 -23 71.5t-68 25.5q-33 0 -61.5 -13t-45 -35t-16.5 -47q0 -17 10.5 -27.5t32 -18.5t83.5 -29q48 -16 87 -37t69.5 -61.5t30.5 -102.5q0 -66 -36 -113.5t-96 -72t-130 -24.5q-72 0 -127.5 25.5z" />
    <glyph glyph-name="Sacute" unicode="&#x15a;" horiz-adv-x="626" 
d="M172.5 24.5q-55.5 25.5 -86 71t-30.5 103.5q0 97 89 97q39 0 51 -15.5t12 -36.5q0 -36 5.5 -60t26 -39.5t60.5 -15.5q48 0 81.5 21t33.5 55q0 24 -17 39t-36.5 22.5t-65.5 22.5q-194 63 -194 199q0 63 37.5 113.5t100 79t135.5 28.5q67 0 120.5 -24.5t84 -67t30.5 -96.5
q0 -46 -22 -67.5t-67 -21.5q-35 0 -46.5 12t-11.5 39q0 46 -23 71.5t-68 25.5q-33 0 -61.5 -13t-45 -35t-16.5 -47q0 -17 10.5 -27.5t32 -18.5t83.5 -29q48 -16 87 -37t69.5 -61.5t30.5 -102.5q0 -66 -36 -113.5t-96 -72t-130 -24.5q-72 0 -127.5 25.5zM336 775.5
q-13 15.5 -13 34.5q0 27 29 49l103 78q26 19 38 26t26 7q20 0 32.5 -15t12.5 -36q0 -33 -34 -56l-110 -79q-21 -15 -30 -19.5t-22 -4.5q-19 0 -32 15.5z" />
    <glyph glyph-name="Scaron" unicode="&#x160;" horiz-adv-x="626" 
d="M172.5 24.5q-55.5 25.5 -86 71t-30.5 103.5q0 97 89 97q39 0 51 -15.5t12 -36.5q0 -36 5.5 -60t26 -39.5t60.5 -15.5q48 0 81.5 21t33.5 55q0 24 -17 39t-36.5 22.5t-65.5 22.5q-194 63 -194 199q0 63 37.5 113.5t100 79t135.5 28.5q67 0 120.5 -24.5t84 -67t30.5 -96.5
q0 -46 -22 -67.5t-67 -21.5q-35 0 -46.5 12t-11.5 39q0 46 -23 71.5t-68 25.5q-33 0 -61.5 -13t-45 -35t-16.5 -47q0 -17 10.5 -27.5t32 -18.5t83.5 -29q48 -16 87 -37t69.5 -61.5t30.5 -102.5q0 -66 -36 -113.5t-96 -72t-130 -24.5q-72 0 -127.5 25.5zM599.5 973
q11.5 -12 11.5 -30q0 -13 -5.5 -23.5t-16.5 -23.5l-22 -23q-57 -63 -89 -88t-72 -25q-33 0 -65 37t-69 93q-10 14 -10 30q0 23 20.5 41.5t44.5 18.5q13 0 22 -6t21 -21q13 -17 34 -47q9 -14 16.5 -23t10.5 -9t13 10.5t24 24.5q21 24 52 55q20 21 49 21q19 0 30.5 -12z" />
    <glyph glyph-name="Scedilla" unicode="&#x15e;" horiz-adv-x="626" 
d="M310.5 567q-28.5 -13 -45 -35t-16.5 -47q0 -17 10.5 -27.5t32 -18.5t83.5 -29q48 -16 87 -37t69.5 -61.5t30.5 -102.5q0 -83 -55.5 -136t-142.5 -68l-53 -62q71 -19 71 -66q0 -46 -41.5 -76t-99.5 -30q-42 0 -74 15q-15 7 -22 13.5t-7 16.5q0 18 12.5 31t32.5 13
q11 0 32 -7q28 -8 43 -8q21 0 31.5 7t10.5 16q0 18 -48 26q-17 3 -26.5 12.5t-9.5 23.5q0 9 7 25l38 46q-94 10 -149.5 64t-55.5 134q0 97 89 97q39 0 51 -15.5t12 -36.5q0 -36 5.5 -60t26 -39.5t60.5 -15.5q48 0 81.5 21t33.5 55q0 24 -17 39t-36.5 22.5t-65.5 22.5
q-194 63 -194 199q0 63 37.5 113.5t100 79t135.5 28.5q67 0 120.5 -24.5t84 -67t30.5 -96.5q0 -46 -22 -67.5t-67 -21.5q-35 0 -46.5 12t-11.5 39q0 46 -23 71.5t-68 25.5q-33 0 -61.5 -13z" />
    <glyph glyph-name="Scircumflex" unicode="&#x15c;" horiz-adv-x="626" 
d="M172.5 24.5q-55.5 25.5 -86 71t-30.5 103.5q0 97 89 97q39 0 51 -15.5t12 -36.5q0 -36 5.5 -60t26 -39.5t60.5 -15.5q48 0 81.5 21t33.5 55q0 24 -17 39t-36.5 22.5t-65.5 22.5q-194 63 -194 199q0 63 37.5 113.5t100 79t135.5 28.5q67 0 120.5 -24.5t84 -67t30.5 -96.5
q0 -46 -22 -67.5t-67 -21.5q-35 0 -46.5 12t-11.5 39q0 46 -23 71.5t-68 25.5q-33 0 -61.5 -13t-45 -35t-16.5 -47q0 -17 10.5 -27.5t32 -18.5t83.5 -29q48 -16 87 -37t69.5 -61.5t30.5 -102.5q0 -66 -36 -113.5t-96 -72t-130 -24.5q-72 0 -127.5 25.5zM486 771
q-12 19 -34 57q-3 4 -11.5 18.5t-11.5 14.5q-5 0 -41 -34l-48 -45q-17 -15 -28.5 -21t-24.5 -6q-20 0 -33 12.5t-13 31.5q0 10 6 23t17 23l32 29q50 47 86 74t62 27q30 0 47 -16t42 -55q5 -7 18.5 -27.5t27.5 -37.5q9 -13 9 -27q0 -25 -18 -43.5t-42 -18.5q-29 0 -42 21z
" />
    <glyph glyph-name="uni0218" unicode="&#x218;" horiz-adv-x="626" 
d="M172.5 24.5q-55.5 25.5 -86 71t-30.5 103.5q0 97 89 97q39 0 51 -15.5t12 -36.5q0 -36 5.5 -60t26 -39.5t60.5 -15.5q48 0 81.5 21t33.5 55q0 24 -17 39t-36.5 22.5t-65.5 22.5q-194 63 -194 199q0 63 37.5 113.5t100 79t135.5 28.5q67 0 120.5 -24.5t84 -67t30.5 -96.5
q0 -46 -22 -67.5t-67 -21.5q-35 0 -46.5 12t-11.5 39q0 46 -23 71.5t-68 25.5q-33 0 -61.5 -13t-45 -35t-16.5 -47q0 -17 10.5 -27.5t32 -18.5t83.5 -29q48 -16 87 -37t69.5 -61.5t30.5 -102.5q0 -66 -36 -113.5t-96 -72t-130 -24.5q-72 0 -127.5 25.5zM365.5 -81
q18.5 -21 18.5 -51q0 -43 -36 -87.5t-88 -82.5q-16 -11 -36 -11q-15 0 -26 9t-11 25q0 9 3.5 18t8.5 14l19 17l31 29q-14 6 -23 21t-9 32q0 37 27 62.5t69 25.5q34 0 52.5 -21z" />
    <glyph glyph-name="uni1E60" unicode="&#x1e60;" horiz-adv-x="626" 
d="M172.5 24.5q-55.5 25.5 -86 71t-30.5 103.5q0 97 89 97q39 0 51 -15.5t12 -36.5q0 -36 5.5 -60t26 -39.5t60.5 -15.5q48 0 81.5 21t33.5 55q0 24 -17 39t-36.5 22.5t-65.5 22.5q-194 63 -194 199q0 63 37.5 113.5t100 79t135.5 28.5q67 0 120.5 -24.5t84 -67t30.5 -96.5
q0 -46 -22 -67.5t-67 -21.5q-35 0 -46.5 12t-11.5 39q0 46 -23 71.5t-68 25.5q-33 0 -61.5 -13t-45 -35t-16.5 -47q0 -17 10.5 -27.5t32 -18.5t83.5 -29q48 -16 87 -37t69.5 -61.5t30.5 -102.5q0 -66 -36 -113.5t-96 -72t-130 -24.5q-72 0 -127.5 25.5zM363 778
q-19 19 -19 48q0 34 29 61t64 27q27 0 46 -18.5t19 -44.5q0 -35 -28.5 -63.5t-63.5 -28.5q-28 0 -47 19z" />
    <glyph glyph-name="uni1E62" unicode="&#x1e62;" horiz-adv-x="626" 
d="M172.5 24.5q-55.5 25.5 -86 71t-30.5 103.5q0 97 89 97q39 0 51 -15.5t12 -36.5q0 -36 5.5 -60t26 -39.5t60.5 -15.5q48 0 81.5 21t33.5 55q0 24 -17 39t-36.5 22.5t-65.5 22.5q-194 63 -194 199q0 63 37.5 113.5t100 79t135.5 28.5q67 0 120.5 -24.5t84 -67t30.5 -96.5
q0 -46 -22 -67.5t-67 -21.5q-35 0 -46.5 12t-11.5 39q0 46 -23 71.5t-68 25.5q-33 0 -61.5 -13t-45 -35t-16.5 -47q0 -17 10.5 -27.5t32 -18.5t83.5 -29q48 -16 87 -37t69.5 -61.5t30.5 -102.5q0 -66 -36 -113.5t-96 -72t-130 -24.5q-72 0 -127.5 25.5zM227.5 -197.5
q-17.5 17.5 -17.5 45.5q0 39 27.5 65.5t65.5 26.5q30 0 47.5 -17t17.5 -44q0 -40 -27.5 -67t-65.5 -27q-30 0 -47.5 17.5z" />
    <glyph glyph-name="uni1E9E" unicode="&#x1e9e;" horiz-adv-x="764" 
d="M276 89q-12 17 -24.5 44t-12.5 38q0 28 27.5 50t56.5 22q23 0 31.5 -6t17.5 -23q4 -8 14 -24q19 -27 47 -46t50 -19t38.5 11.5t16.5 34.5q0 19 -13.5 35.5t-41.5 42.5q-39 36 -59.5 65t-20.5 69q0 36 14.5 66.5t39.5 68.5q15 22 22 35.5t7 24.5q0 25 -20.5 45t-60.5 20
q-43 0 -83 -38.5t-54 -117.5q-16 -98 -22 -140q-28 -190 -44 -278q-6 -35 -28.5 -52.5t-68.5 -17.5q-34 0 -53 18.5t-15 47.5l68 430q14 89 58.5 150t107.5 90.5t134 29.5q57 0 115 -23.5t96 -65.5t38 -94q0 -40 -14.5 -67t-39.5 -54q-17 -19 -24 -31t-7 -26q0 -17 12 -33.5
t38 -42.5q41 -40 63 -74t22 -84q0 -87 -62 -130t-159 -43q-139 0 -207 92z" />
    <glyph glyph-name="uni018F" unicode="&#x18f;" horiz-adv-x="778" 
d="M196.5 22q-72.5 32 -114 88.5t-41.5 126.5q0 73 28.5 107t87.5 35l445 1q6 0 8.5 3.5t4.5 12.5t2 26q0 64 -51 103t-132 39q-43 0 -73.5 -11.5t-51.5 -28.5t-48 -45l-17 -18q-2 -2 -13 -13.5t-24.5 -18.5t-28.5 -7q-27 0 -53 17t-26 40q0 22 24 55q54 75 136.5 118
t182.5 43q85 0 158 -34t117 -103t44 -169q0 -108 -52.5 -200t-145 -145.5t-205.5 -53.5q-89 0 -161.5 32zM460.5 128.5q52.5 23.5 87 60t34.5 71.5q0 6 -4.5 8t-15.5 2l-343 -4q-19 0 -25 -10.5t-6 -36.5q0 -29 22 -55t61 -42.5t87 -16.5q50 0 102.5 23.5z" />
    <glyph glyph-name="T" unicode="T" horiz-adv-x="591" 
d="M617 678q14 -11 14 -38q0 -36 -24 -59t-64 -20q-65 4 -116 5q-18 -66 -29 -115t-23 -111q-23 -121 -53 -284q-6 -37 -23.5 -51.5t-60.5 -14.5q-33 0 -51 12.5t-18 36.5q0 4 2 16l18 89q23 120 41 196l51 226q-34 -1 -110 -7l-22 -2q-24 -2 -38 14t-14 44q0 60 71 72
q28 5 97.5 8t126.5 3q44 0 101 -1.5t84 -4.5q26 -3 40 -14z" />
    <glyph glyph-name="Tbar" unicode="&#x166;" horiz-adv-x="591" 
d="M617 678q14 -11 14 -38q0 -36 -24 -59t-64 -20q-65 4 -116 5q-23 -84 -35 -144l65 -2q23 -1 35.5 -12t12.5 -30q0 -29 -20 -48.5t-48 -19.5l-67 2q-24 -121 -34 -180l-14 -76q-6 -37 -23.5 -51.5t-60.5 -14.5q-33 0 -51 12.5t-18 36.5q0 4 2 16q16 74 21 107
q24 117 33 156l-69 2q-20 1 -33 13t-13 31q0 26 20 45.5t47 18.5l72 -2l32 140q-34 -1 -110 -7l-22 -2q-24 -2 -38 14t-14 44q0 60 71 72q28 5 97.5 8t126.5 3q44 0 101 -1.5t84 -4.5q26 -3 40 -14z" />
    <glyph glyph-name="Tcaron" unicode="&#x164;" horiz-adv-x="591" 
d="M617 678q14 -11 14 -38q0 -36 -24 -59t-64 -20q-65 4 -116 5q-18 -66 -29 -115t-23 -111q-23 -121 -53 -284q-6 -37 -23.5 -51.5t-60.5 -14.5q-33 0 -51 12.5t-18 36.5q0 4 2 16l18 89q23 120 41 196l51 226q-34 -1 -110 -7l-22 -2q-24 -2 -38 14t-14 44q0 60 71 72
q28 5 97.5 8t126.5 3q44 0 101 -1.5t84 -4.5q26 -3 40 -14zM561.5 973q11.5 -12 11.5 -30q0 -13 -5.5 -23.5t-16.5 -23.5l-22 -23q-57 -63 -89 -88t-72 -25q-33 0 -65 37t-69 93q-10 14 -10 30q0 23 20.5 41.5t44.5 18.5q13 0 22 -6t21 -21q13 -17 34 -47q9 -14 16.5 -23
t10.5 -9t13 10.5t24 24.5q21 24 52 55q20 21 49 21q19 0 30.5 -12z" />
    <glyph glyph-name="uni0162" unicode="&#x162;" horiz-adv-x="591" 
d="M617 678q14 -11 14 -38q0 -36 -24 -59t-64 -20q-65 4 -116 5q-18 -66 -29 -115t-23 -111q-23 -121 -53 -284q-5 -27 -14.5 -41.5t-29.5 -20.5l-45 -51q71 -19 71 -66q0 -46 -41.5 -76t-99.5 -30q-42 0 -74 15q-15 7 -22 13.5t-7 16.5q0 18 12.5 31t32.5 13q11 0 32 -7
q28 -8 43 -8q21 0 31.5 7t10.5 16q0 18 -48 26q-17 3 -26.5 12.5t-9.5 23.5q0 9 7 25l40 49q-16 13 -16 34q0 5 2 17l18 89q23 120 41 196l51 226q-34 -1 -110 -7l-22 -2q-24 -2 -38 14t-14 44q0 60 71 72q28 5 97.5 8t126.5 3q44 0 101 -1.5t84 -4.5q26 -3 40 -14z" />
    <glyph glyph-name="uni021A" unicode="&#x21a;" horiz-adv-x="591" 
d="M617 678q14 -11 14 -38q0 -36 -24 -59t-64 -20q-65 4 -116 5q-18 -66 -29 -115t-23 -111q-23 -121 -53 -284q-6 -37 -23.5 -51.5t-60.5 -14.5q-33 0 -51 12.5t-18 36.5q0 4 2 16l18 89q23 120 41 196l51 226q-34 -1 -110 -7l-22 -2q-24 -2 -38 14t-14 44q0 60 71 72
q28 5 97.5 8t126.5 3q44 0 101 -1.5t84 -4.5q26 -3 40 -14zM287.5 -81q18.5 -21 18.5 -51q0 -43 -36 -87.5t-88 -82.5q-16 -11 -36 -11q-15 0 -26 9t-11 25q0 9 3.5 18t8.5 14l19 17l31 29q-14 6 -23 21t-9 32q0 37 27 62.5t69 25.5q34 0 52.5 -21z" />
    <glyph glyph-name="uni1E6C" unicode="&#x1e6c;" horiz-adv-x="591" 
d="M617 678q14 -11 14 -38q0 -36 -24 -59t-64 -20q-65 4 -116 5q-18 -66 -29 -115t-23 -111q-23 -121 -53 -284q-6 -37 -23.5 -51.5t-60.5 -14.5q-33 0 -51 12.5t-18 36.5q0 4 2 16l18 89q23 120 41 196l51 226q-34 -1 -110 -7l-22 -2q-24 -2 -38 14t-14 44q0 60 71 72
q28 5 97.5 8t126.5 3q44 0 101 -1.5t84 -4.5q26 -3 40 -14zM149.5 -197.5q-17.5 17.5 -17.5 45.5q0 39 27.5 65.5t65.5 26.5q30 0 47.5 -17t17.5 -44q0 -40 -27.5 -67t-65.5 -27q-30 0 -47.5 17.5z" />
    <glyph glyph-name="uni1E6E" unicode="&#x1e6e;" horiz-adv-x="591" 
d="M617 678q14 -11 14 -38q0 -36 -24 -59t-64 -20q-65 4 -116 5q-18 -66 -29 -115t-23 -111q-23 -121 -53 -284q-6 -37 -23.5 -51.5t-60.5 -14.5q-33 0 -51 12.5t-18 36.5q0 4 2 16l18 89q23 120 41 196l51 226q-34 -1 -110 -7l-22 -2q-24 -2 -38 14t-14 44q0 60 71 72
q28 5 97.5 8t126.5 3q44 0 101 -1.5t84 -4.5q26 -3 40 -14zM37.5 -187.5q-11.5 12.5 -11.5 32.5q0 24 16 43t39 21q75 9 188 9q37 0 75 -2q11 -1 27 -1q22 0 35 -12t13 -32q0 -27 -19.5 -45.5t-46.5 -18.5l-28 1q-54 3 -76 3q-47 0 -140 -8q-29 -3 -41 -3q-19 0 -30.5 12.5z
" />
    <glyph glyph-name="U" unicode="U" horiz-adv-x="704" 
d="M684.5 695q17.5 -15 17.5 -38q0 -8 -1 -12l-19 -108l-16 -96l-62 -366q-8 -44 -25.5 -61.5t-54.5 -17.5q-69 0 -69 52q0 9 1 13l2 14q-29 -34 -70 -54.5t-89 -20.5q-108 0 -167 57.5t-59 156.5q0 49 15.5 136.5t58.5 292.5q6 28 27 44.5t59 16.5q31 0 45 -10.5t14 -32.5
q0 -13 -2 -20q-43 -207 -57.5 -295.5t-14.5 -120.5q0 -43 25 -68.5t62 -25.5q39 0 81.5 27.5t75 75t42.5 104.5l14 83q5 27 13 76.5t26 147.5q11 65 79 65q31 0 48.5 -15z" />
    <glyph glyph-name="Uacute" unicode="&#xda;" horiz-adv-x="704" 
d="M684.5 695q17.5 -15 17.5 -38q0 -8 -1 -12l-19 -108l-16 -96l-62 -366q-8 -44 -25.5 -61.5t-54.5 -17.5q-69 0 -69 52q0 9 1 13l2 14q-29 -34 -70 -54.5t-89 -20.5q-108 0 -167 57.5t-59 156.5q0 49 15.5 136.5t58.5 292.5q6 28 27 44.5t59 16.5q31 0 45 -10.5t14 -32.5
q0 -13 -2 -20q-43 -207 -57.5 -295.5t-14.5 -120.5q0 -43 25 -68.5t62 -25.5q39 0 81.5 27.5t75 75t42.5 104.5l14 83q5 27 13 76.5t26 147.5q11 65 79 65q31 0 48.5 -15zM367 775.5q-13 15.5 -13 34.5q0 27 29 49l103 78q26 19 38 26t26 7q20 0 32.5 -15t12.5 -36
q0 -33 -34 -56l-110 -79q-21 -15 -30 -19.5t-22 -4.5q-19 0 -32 15.5z" />
    <glyph glyph-name="Ubreve" unicode="&#x16c;" horiz-adv-x="704" 
d="M684.5 695q17.5 -15 17.5 -38q0 -8 -1 -12l-19 -108l-16 -96l-62 -366q-8 -44 -25.5 -61.5t-54.5 -17.5q-69 0 -69 52q0 9 1 13l2 14q-29 -34 -70 -54.5t-89 -20.5q-108 0 -167 57.5t-59 156.5q0 49 15.5 136.5t58.5 292.5q6 28 27 44.5t59 16.5q31 0 45 -10.5t14 -32.5
q0 -13 -2 -20q-43 -207 -57.5 -295.5t-14.5 -120.5q0 -43 25 -68.5t62 -25.5q39 0 81.5 27.5t75 75t42.5 104.5l14 83q5 27 13 76.5t26 147.5q11 65 79 65q31 0 48.5 -15zM363 765.5q-38 16.5 -59.5 46.5t-21.5 67q0 24 10 44q19 33 54 33q18 0 31 -8.5t13 -23.5v-13
q3 -70 65 -70q29 0 54 20t33 59q4 19 21 29t37 10q19 0 32 -12.5t13 -30.5q0 -42 -29 -81t-75.5 -62.5t-93.5 -23.5q-46 0 -84 16.5z" />
    <glyph glyph-name="uni01D3" unicode="&#x1d3;" horiz-adv-x="704" 
d="M684.5 695q17.5 -15 17.5 -38q0 -8 -1 -12l-19 -108l-16 -96l-62 -366q-8 -44 -25.5 -61.5t-54.5 -17.5q-69 0 -69 52q0 9 1 13l2 14q-29 -34 -70 -54.5t-89 -20.5q-108 0 -167 57.5t-59 156.5q0 49 15.5 136.5t58.5 292.5q6 28 27 44.5t59 16.5q31 0 45 -10.5t14 -32.5
q0 -13 -2 -20q-43 -207 -57.5 -295.5t-14.5 -120.5q0 -43 25 -68.5t62 -25.5q39 0 81.5 27.5t75 75t42.5 104.5l14 83q5 27 13 76.5t26 147.5q11 65 79 65q31 0 48.5 -15zM630.5 973q11.5 -12 11.5 -30q0 -13 -5.5 -23.5t-16.5 -23.5l-22 -23q-57 -63 -89 -88t-72 -25
q-33 0 -65 37t-69 93q-10 14 -10 30q0 23 20.5 41.5t44.5 18.5q13 0 22 -6t21 -21q13 -17 34 -47q9 -14 16.5 -23t10.5 -9t13 10.5t24 24.5q21 24 52 55q20 21 49 21q19 0 30.5 -12z" />
    <glyph glyph-name="Ucircumflex" unicode="&#xdb;" horiz-adv-x="704" 
d="M684.5 695q17.5 -15 17.5 -38q0 -8 -1 -12l-19 -108l-16 -96l-62 -366q-8 -44 -25.5 -61.5t-54.5 -17.5q-69 0 -69 52q0 9 1 13l2 14q-29 -34 -70 -54.5t-89 -20.5q-108 0 -167 57.5t-59 156.5q0 49 15.5 136.5t58.5 292.5q6 28 27 44.5t59 16.5q31 0 45 -10.5t14 -32.5
q0 -13 -2 -20q-43 -207 -57.5 -295.5t-14.5 -120.5q0 -43 25 -68.5t62 -25.5q39 0 81.5 27.5t75 75t42.5 104.5l14 83q5 27 13 76.5t26 147.5q11 65 79 65q31 0 48.5 -15zM517 771q-12 19 -34 57q-3 4 -11.5 18.5t-11.5 14.5q-5 0 -41 -34l-48 -45q-17 -15 -28.5 -21
t-24.5 -6q-20 0 -33 12.5t-13 31.5q0 10 6 23t17 23l32 29q50 47 86 74t62 27q30 0 47 -16t42 -55q5 -7 18.5 -27.5t27.5 -37.5q9 -13 9 -27q0 -25 -18 -43.5t-42 -18.5q-29 0 -42 21z" />
    <glyph glyph-name="Udieresis" unicode="&#xdc;" horiz-adv-x="704" 
d="M684.5 695q17.5 -15 17.5 -38q0 -8 -1 -12l-19 -108l-16 -96l-62 -366q-8 -44 -25.5 -61.5t-54.5 -17.5q-69 0 -69 52q0 9 1 13l2 14q-29 -34 -70 -54.5t-89 -20.5q-108 0 -167 57.5t-59 156.5q0 49 15.5 136.5t58.5 292.5q6 28 27 44.5t59 16.5q31 0 45 -10.5t14 -32.5
q0 -13 -2 -20q-43 -207 -57.5 -295.5t-14.5 -120.5q0 -43 25 -68.5t62 -25.5q39 0 81.5 27.5t75 75t42.5 104.5l14 83q5 27 13 76.5t26 147.5q11 65 79 65q31 0 48.5 -15zM255.5 779q-18.5 19 -18.5 46q0 35 28.5 62.5t63.5 27.5q28 0 47.5 -19.5t19.5 -45.5
q0 -34 -29.5 -62t-64.5 -28q-28 0 -46.5 19zM531.5 779q-18.5 19 -18.5 46q0 35 28.5 62.5t63.5 27.5q28 0 47 -19t19 -46q0 -34 -29 -62t-64 -28q-28 0 -46.5 19z" />
    <glyph glyph-name="uni01D7" unicode="&#x1d7;" horiz-adv-x="704" 
d="M684.5 695q17.5 -15 17.5 -38q0 -8 -1 -12l-19 -108l-16 -96l-62 -366q-8 -44 -25.5 -61.5t-54.5 -17.5q-69 0 -69 52q0 9 1 13l2 14q-29 -34 -70 -54.5t-89 -20.5q-108 0 -167 57.5t-59 156.5q0 49 15.5 136.5t58.5 292.5q6 28 27 44.5t59 16.5q31 0 45 -10.5t14 -32.5
q0 -13 -2 -20q-43 -207 -57.5 -295.5t-14.5 -120.5q0 -43 25 -68.5t62 -25.5q39 0 81.5 27.5t75 75t42.5 104.5l14 83q5 27 13 76.5t26 147.5q11 65 79 65q31 0 48.5 -15zM260.5 779q-18.5 19 -18.5 46q0 35 28.5 62.5t63.5 27.5q28 0 47.5 -19.5t19.5 -45.5
q0 -34 -29.5 -62t-64.5 -28q-28 0 -46.5 19zM536.5 779q-18.5 19 -18.5 46q0 35 28.5 62.5t63.5 27.5q28 0 47 -19t19 -46q0 -34 -29 -62t-64 -28q-28 0 -46.5 19zM429 952.5q-13 15.5 -13 34.5q0 27 29 49l103 78q26 19 38 26t26 7q20 0 32.5 -15t12.5 -36q0 -33 -34 -56
l-110 -79q-21 -15 -30 -19.5t-22 -4.5q-19 0 -32 15.5z" />
    <glyph glyph-name="uni01D9" unicode="&#x1d9;" horiz-adv-x="704" 
d="M684.5 695q17.5 -15 17.5 -38q0 -8 -1 -12l-19 -108l-16 -96l-62 -366q-8 -44 -25.5 -61.5t-54.5 -17.5q-69 0 -69 52q0 9 1 13l2 14q-29 -34 -70 -54.5t-89 -20.5q-108 0 -167 57.5t-59 156.5q0 49 15.5 136.5t58.5 292.5q6 28 27 44.5t59 16.5q31 0 45 -10.5t14 -32.5
q0 -13 -2 -20q-43 -207 -57.5 -295.5t-14.5 -120.5q0 -43 25 -68.5t62 -25.5q39 0 81.5 27.5t75 75t42.5 104.5l14 83q5 27 13 76.5t26 147.5q11 65 79 65q31 0 48.5 -15zM260.5 779q-18.5 19 -18.5 46q0 35 28.5 62.5t63.5 27.5q28 0 47.5 -19.5t19.5 -45.5
q0 -34 -29.5 -62t-64.5 -28q-28 0 -46.5 19zM536.5 779q-18.5 19 -18.5 46q0 35 28.5 62.5t63.5 27.5q28 0 47 -19t19 -46q0 -34 -29 -62t-64 -28q-28 0 -46.5 19zM657.5 1148q11.5 -12 11.5 -30q0 -13 -5.5 -23.5t-16.5 -23.5l-22 -23q-57 -63 -89 -88t-72 -25
q-33 0 -65 37t-69 93q-10 14 -10 30q0 23 20.5 41.5t44.5 18.5q13 0 22 -6t21 -21q13 -17 34 -47q9 -14 16.5 -23t10.5 -9t13 10.5t24 24.5q21 24 52 55q20 21 49 21q19 0 30.5 -12z" />
    <glyph glyph-name="uni01DB" unicode="&#x1db;" horiz-adv-x="704" 
d="M684.5 695q17.5 -15 17.5 -38q0 -8 -1 -12l-19 -108l-16 -96l-62 -366q-8 -44 -25.5 -61.5t-54.5 -17.5q-69 0 -69 52q0 9 1 13l2 14q-29 -34 -70 -54.5t-89 -20.5q-108 0 -167 57.5t-59 156.5q0 49 15.5 136.5t58.5 292.5q6 28 27 44.5t59 16.5q31 0 45 -10.5t14 -32.5
q0 -13 -2 -20q-43 -207 -57.5 -295.5t-14.5 -120.5q0 -43 25 -68.5t62 -25.5q39 0 81.5 27.5t75 75t42.5 104.5l14 83q5 27 13 76.5t26 147.5q11 65 79 65q31 0 48.5 -15zM260.5 779q-18.5 19 -18.5 46q0 35 28.5 62.5t63.5 27.5q28 0 47.5 -19.5t19.5 -45.5
q0 -34 -29.5 -62t-64.5 -28q-28 0 -46.5 19zM536.5 779q-18.5 19 -18.5 46q0 35 28.5 62.5t63.5 27.5q28 0 47 -19t19 -46q0 -34 -29 -62t-64 -28q-28 0 -46.5 19zM452 943.5q-10 5.5 -20 18.5l-64 86q-15 20 -15 42q0 25 19 43t44 18q15 0 26.5 -7.5t22.5 -24.5l58 -85
q12 -19 12 -37q0 -24 -18 -41.5t-41 -17.5q-14 0 -24 5.5z" />
    <glyph glyph-name="uni01D5" unicode="&#x1d5;" horiz-adv-x="704" 
d="M684.5 695q17.5 -15 17.5 -38q0 -8 -1 -12l-19 -108l-16 -96l-62 -366q-8 -44 -25.5 -61.5t-54.5 -17.5q-69 0 -69 52q0 9 1 13l2 14q-29 -34 -70 -54.5t-89 -20.5q-108 0 -167 57.5t-59 156.5q0 49 15.5 136.5t58.5 292.5q6 28 27 44.5t59 16.5q31 0 45 -10.5t14 -32.5
q0 -13 -2 -20q-43 -207 -57.5 -295.5t-14.5 -120.5q0 -43 25 -68.5t62 -25.5q39 0 81.5 27.5t75 75t42.5 104.5l14 83q5 27 13 76.5t26 147.5q11 65 79 65q31 0 48.5 -15zM260.5 779q-18.5 19 -18.5 46q0 35 28.5 62.5t63.5 27.5q28 0 47.5 -19.5t19.5 -45.5
q0 -34 -29.5 -62t-64.5 -28q-28 0 -46.5 19zM536.5 779q-18.5 19 -18.5 46q0 35 28.5 62.5t63.5 27.5q28 0 47 -19t19 -46q0 -34 -29 -62t-64 -28q-28 0 -46.5 19zM390.5 963q-11.5 -1 -21.5 -1q-25 0 -53 11q-29 11 -29 41q0 27 18.5 46t44.5 19l20 -2q35 -5 56 -5t65 4
q50 4 80 4q38 0 66 -4q17 -2 29.5 -15t12.5 -32q0 -17 -11.5 -32.5t-28 -23.5t-29.5 -5q-16 4 -52 4q-27 0 -71 -4t-69 -4q-16 0 -27.5 -1z" />
    <glyph glyph-name="uni1EE4" unicode="&#x1ee4;" horiz-adv-x="704" 
d="M684.5 695q17.5 -15 17.5 -38q0 -8 -1 -12l-19 -108l-16 -96l-62 -366q-8 -44 -25.5 -61.5t-54.5 -17.5q-69 0 -69 52q0 9 1 13l2 14q-29 -34 -70 -54.5t-89 -20.5q-108 0 -167 57.5t-59 156.5q0 49 15.5 136.5t58.5 292.5q6 28 27 44.5t59 16.5q31 0 45 -10.5t14 -32.5
q0 -13 -2 -20q-43 -207 -57.5 -295.5t-14.5 -120.5q0 -43 25 -68.5t62 -25.5q39 0 81.5 27.5t75 75t42.5 104.5l14 83q5 27 13 76.5t26 147.5q11 65 79 65q31 0 48.5 -15zM218.5 -197.5q-17.5 17.5 -17.5 45.5q0 39 27.5 65.5t65.5 26.5q30 0 47.5 -17t17.5 -44
q0 -40 -27.5 -67t-65.5 -27q-30 0 -47.5 17.5z" />
    <glyph glyph-name="Ugrave" unicode="&#xd9;" horiz-adv-x="704" 
d="M684.5 695q17.5 -15 17.5 -38q0 -8 -1 -12l-19 -108l-16 -96l-62 -366q-8 -44 -25.5 -61.5t-54.5 -17.5q-69 0 -69 52q0 9 1 13l2 14q-29 -34 -70 -54.5t-89 -20.5q-108 0 -167 57.5t-59 156.5q0 49 15.5 136.5t58.5 292.5q6 28 27 44.5t59 16.5q31 0 45 -10.5t14 -32.5
q0 -13 -2 -20q-43 -207 -57.5 -295.5t-14.5 -120.5q0 -43 25 -68.5t62 -25.5q39 0 81.5 27.5t75 75t42.5 104.5l14 83q5 27 13 76.5t26 147.5q11 65 79 65q31 0 48.5 -15zM447 755.5q-10 5.5 -20 18.5l-64 86q-15 20 -15 42q0 25 19 43t44 18q15 0 26.5 -7.5t22.5 -24.5
l58 -85q12 -19 12 -37q0 -24 -18 -41.5t-41 -17.5q-14 0 -24 5.5z" />
    <glyph glyph-name="uni1EE6" unicode="&#x1ee6;" horiz-adv-x="704" 
d="M684.5 695q17.5 -15 17.5 -38q0 -8 -1 -12l-19 -108l-16 -96l-62 -366q-8 -44 -25.5 -61.5t-54.5 -17.5q-69 0 -69 52q0 9 1 13l2 14q-29 -34 -70 -54.5t-89 -20.5q-108 0 -167 57.5t-59 156.5q0 49 15.5 136.5t58.5 292.5q6 28 27 44.5t59 16.5q31 0 45 -10.5t14 -32.5
q0 -13 -2 -20q-43 -207 -57.5 -295.5t-14.5 -120.5q0 -43 25 -68.5t62 -25.5q39 0 81.5 27.5t75 75t42.5 104.5l14 83q5 27 13 76.5t26 147.5q11 65 79 65q31 0 48.5 -15zM395.5 762.5q-14.5 13.5 -11.5 32.5l9 50q2 11 12 19.5t29 20.5q22 14 34 25t12 26q0 11 -7.5 20
t-22.5 9q-18 0 -30 -8t-25 -25q-22 -29 -47 -29q-15 0 -25.5 11.5t-10.5 23.5q0 18 17 40q30 39 63.5 57.5t77.5 18.5q54 0 90 -26.5t36 -68.5q0 -32 -15 -51t-43 -38q-11 -8 -20 -16t-12 -16l-6 -41q-4 -24 -22.5 -36t-45.5 -12q-22 0 -36.5 13.5z" />
    <glyph glyph-name="Uhorn" unicode="&#x1af;" horiz-adv-x="800" 
d="M848 576.5q-27 -47.5 -74 -79t-105 -40.5l-3 -16l-62 -366q-8 -44 -25.5 -61.5t-54.5 -17.5q-69 0 -69 52q0 9 1 13l2 14q-29 -34 -70 -54.5t-89 -20.5q-108 0 -167 57.5t-59 156.5q0 49 15.5 136.5t58.5 292.5q6 28 27 44.5t59 16.5q31 0 45 -10.5t14 -32.5
q0 -13 -2 -20q-43 -207 -57.5 -295.5t-14.5 -120.5q0 -43 25 -68.5t62 -25.5q39 0 81.5 27.5t75 75t42.5 104.5l14 83q5 27 13 76.5t26 147.5q11 65 79 65q31 0 48.5 -15t17.5 -38q0 -8 -1 -12q-10 -53 -18 -103q35 8 63.5 40t37.5 86q8 48 52 48q39 0 39 -36
q0 -56 -27 -103.5z" />
    <glyph glyph-name="uni1EE8" unicode="&#x1ee8;" horiz-adv-x="800" 
d="M848 576.5q-27 -47.5 -74 -79t-105 -40.5l-3 -16l-62 -366q-8 -44 -25.5 -61.5t-54.5 -17.5q-69 0 -69 52q0 9 1 13l2 14q-29 -34 -70 -54.5t-89 -20.5q-108 0 -167 57.5t-59 156.5q0 49 15.5 136.5t58.5 292.5q6 28 27 44.5t59 16.5q31 0 45 -10.5t14 -32.5
q0 -13 -2 -20q-43 -207 -57.5 -295.5t-14.5 -120.5q0 -43 25 -68.5t62 -25.5q39 0 81.5 27.5t75 75t42.5 104.5l14 83q5 27 13 76.5t26 147.5q11 65 79 65q31 0 48.5 -15t17.5 -38q0 -8 -1 -12q-10 -53 -18 -103q35 8 63.5 40t37.5 86q8 48 52 48q39 0 39 -36
q0 -56 -27 -103.5zM367 775.5q-13 15.5 -13 34.5q0 27 29 49l103 78q26 19 38 26t26 7q20 0 32.5 -15t12.5 -36q0 -33 -34 -56l-110 -79q-21 -15 -30 -19.5t-22 -4.5q-19 0 -32 15.5z" />
    <glyph glyph-name="uni1EF0" unicode="&#x1ef0;" horiz-adv-x="800" 
d="M848 576.5q-27 -47.5 -74 -79t-105 -40.5l-3 -16l-62 -366q-8 -44 -25.5 -61.5t-54.5 -17.5q-69 0 -69 52q0 9 1 13l2 14q-29 -34 -70 -54.5t-89 -20.5q-108 0 -167 57.5t-59 156.5q0 49 15.5 136.5t58.5 292.5q6 28 27 44.5t59 16.5q31 0 45 -10.5t14 -32.5
q0 -13 -2 -20q-43 -207 -57.5 -295.5t-14.5 -120.5q0 -43 25 -68.5t62 -25.5q39 0 81.5 27.5t75 75t42.5 104.5l14 83q5 27 13 76.5t26 147.5q11 65 79 65q31 0 48.5 -15t17.5 -38q0 -8 -1 -12q-10 -53 -18 -103q35 8 63.5 40t37.5 86q8 48 52 48q39 0 39 -36
q0 -56 -27 -103.5zM218.5 -197.5q-17.5 17.5 -17.5 45.5q0 39 27.5 65.5t65.5 26.5q30 0 47.5 -17t17.5 -44q0 -40 -27.5 -67t-65.5 -27q-30 0 -47.5 17.5z" />
    <glyph glyph-name="uni1EEA" unicode="&#x1eea;" horiz-adv-x="800" 
d="M848 576.5q-27 -47.5 -74 -79t-105 -40.5l-3 -16l-62 -366q-8 -44 -25.5 -61.5t-54.5 -17.5q-69 0 -69 52q0 9 1 13l2 14q-29 -34 -70 -54.5t-89 -20.5q-108 0 -167 57.5t-59 156.5q0 49 15.5 136.5t58.5 292.5q6 28 27 44.5t59 16.5q31 0 45 -10.5t14 -32.5
q0 -13 -2 -20q-43 -207 -57.5 -295.5t-14.5 -120.5q0 -43 25 -68.5t62 -25.5q39 0 81.5 27.5t75 75t42.5 104.5l14 83q5 27 13 76.5t26 147.5q11 65 79 65q31 0 48.5 -15t17.5 -38q0 -8 -1 -12q-10 -53 -18 -103q35 8 63.5 40t37.5 86q8 48 52 48q39 0 39 -36
q0 -56 -27 -103.5zM447 755.5q-10 5.5 -20 18.5l-64 86q-15 20 -15 42q0 25 19 43t44 18q15 0 26.5 -7.5t22.5 -24.5l58 -85q12 -19 12 -37q0 -24 -18 -41.5t-41 -17.5q-14 0 -24 5.5z" />
    <glyph glyph-name="uni1EEC" unicode="&#x1eec;" horiz-adv-x="800" 
d="M848 576.5q-27 -47.5 -74 -79t-105 -40.5l-3 -16l-62 -366q-8 -44 -25.5 -61.5t-54.5 -17.5q-69 0 -69 52q0 9 1 13l2 14q-29 -34 -70 -54.5t-89 -20.5q-108 0 -167 57.5t-59 156.5q0 49 15.5 136.5t58.5 292.5q6 28 27 44.5t59 16.5q31 0 45 -10.5t14 -32.5
q0 -13 -2 -20q-43 -207 -57.5 -295.5t-14.5 -120.5q0 -43 25 -68.5t62 -25.5q39 0 81.5 27.5t75 75t42.5 104.5l14 83q5 27 13 76.5t26 147.5q11 65 79 65q31 0 48.5 -15t17.5 -38q0 -8 -1 -12q-10 -53 -18 -103q35 8 63.5 40t37.5 86q8 48 52 48q39 0 39 -36
q0 -56 -27 -103.5zM395.5 762.5q-14.5 13.5 -11.5 32.5l9 50q2 11 12 19.5t29 20.5q22 14 34 25t12 26q0 11 -7.5 20t-22.5 9q-18 0 -30 -8t-25 -25q-22 -29 -47 -29q-15 0 -25.5 11.5t-10.5 23.5q0 18 17 40q30 39 63.5 57.5t77.5 18.5q54 0 90 -26.5t36 -68.5
q0 -32 -15 -51t-43 -38q-11 -8 -20 -16t-12 -16l-6 -41q-4 -24 -22.5 -36t-45.5 -12q-22 0 -36.5 13.5z" />
    <glyph glyph-name="uni1EEE" unicode="&#x1eee;" horiz-adv-x="800" 
d="M848 576.5q-27 -47.5 -74 -79t-105 -40.5l-3 -16l-62 -366q-8 -44 -25.5 -61.5t-54.5 -17.5q-69 0 -69 52q0 9 1 13l2 14q-29 -34 -70 -54.5t-89 -20.5q-108 0 -167 57.5t-59 156.5q0 49 15.5 136.5t58.5 292.5q6 28 27 44.5t59 16.5q31 0 45 -10.5t14 -32.5
q0 -13 -2 -20q-43 -207 -57.5 -295.5t-14.5 -120.5q0 -43 25 -68.5t62 -25.5q39 0 81.5 27.5t75 75t42.5 104.5l14 83q5 27 13 76.5t26 147.5q11 65 79 65q31 0 48.5 -15t17.5 -38q0 -8 -1 -12q-10 -53 -18 -103q35 8 63.5 40t37.5 86q8 48 52 48q39 0 39 -36
q0 -56 -27 -103.5zM276.5 783.5q-12.5 13.5 -12.5 30.5q0 24 21 45q34 34 60.5 48t57.5 14q24 0 49 -6.5t45 -18.5q17 -10 26 -14.5t13 -4.5q7 0 15 8q13 13 23.5 18.5t22.5 5.5q18 0 32 -14t14 -33q0 -25 -24 -46q-53 -46 -102 -46q-23 0 -42 8t-41 21q-2 1 -16.5 9.5
t-24.5 8.5q-6 0 -14.5 -6.5t-20.5 -17.5q-26 -23 -50 -23q-19 0 -31.5 13.5z" />
    <glyph glyph-name="Uhungarumlaut" unicode="&#x170;" horiz-adv-x="704" 
d="M684.5 695q17.5 -15 17.5 -38q0 -8 -1 -12l-19 -108l-16 -96l-62 -366q-8 -44 -25.5 -61.5t-54.5 -17.5q-69 0 -69 52q0 9 1 13l2 14q-29 -34 -70 -54.5t-89 -20.5q-108 0 -167 57.5t-59 156.5q0 49 15.5 136.5t58.5 292.5q6 28 27 44.5t59 16.5q31 0 45 -10.5t14 -32.5
q0 -13 -2 -20q-43 -207 -57.5 -295.5t-14.5 -120.5q0 -43 25 -68.5t62 -25.5q39 0 81.5 27.5t75 75t42.5 104.5l14 83q5 27 13 76.5t26 147.5q11 65 79 65q31 0 48.5 -15zM263 761.5q-11 11.5 -11 28.5q0 28 28 56l87 85q33 32 62 32q20 0 31.5 -12t11.5 -31q0 -29 -33 -60
l-95 -87q-24 -23 -51 -23q-19 0 -30 11.5zM493.5 761.5q-11.5 11.5 -11.5 28.5q0 28 28 56l87 85q33 32 62 32q20 0 31.5 -12t11.5 -31q0 -29 -33 -60l-94 -86q-25 -24 -52 -24q-18 0 -29.5 11.5z" />
    <glyph glyph-name="Umacron" unicode="&#x16a;" horiz-adv-x="704" 
d="M684.5 695q17.5 -15 17.5 -38q0 -8 -1 -12l-19 -108l-16 -96l-62 -366q-8 -44 -25.5 -61.5t-54.5 -17.5q-69 0 -69 52q0 9 1 13l2 14q-29 -34 -70 -54.5t-89 -20.5q-108 0 -167 57.5t-59 156.5q0 49 15.5 136.5t58.5 292.5q6 28 27 44.5t59 16.5q31 0 45 -10.5t14 -32.5
q0 -13 -2 -20q-43 -207 -57.5 -295.5t-14.5 -120.5q0 -43 25 -68.5t62 -25.5q39 0 81.5 27.5t75 75t42.5 104.5l14 83q5 27 13 76.5t26 147.5q11 65 79 65q31 0 48.5 -15zM245 789q-10 12 -10 31q0 29 16.5 46.5t44.5 22.5q40 7 77.5 11t91.5 4l147 1q22 0 34.5 -13
t12.5 -34q0 -28 -18.5 -46t-47.5 -18l-43 1q-38 3 -86 3q-54 0 -98 -5t-93 -13q-18 -3 -28 9z" />
    <glyph glyph-name="Uogonek" unicode="&#x172;" horiz-adv-x="704" 
d="M684.5 695q17.5 -15 17.5 -38q0 -8 -1 -12l-19 -108l-16 -96l-62 -366q-5 -32 -15.5 -49.5t-28.5 -24.5q-25 -18 -39 -33t-14 -29q0 -10 7 -13.5t20 -3.5q5 0 21 4q15 5 23 5q10 0 17 -7.5t7 -21.5q0 -34 -23 -52.5t-64 -18.5q-49 0 -78 26t-29 66q0 54 51 103
q-4 9 -4 22q0 9 1 13l2 14q-29 -34 -70 -54.5t-89 -20.5q-108 0 -167 57.5t-59 156.5q0 49 15.5 136.5t58.5 292.5q6 28 27 44.5t59 16.5q31 0 45 -10.5t14 -32.5q0 -13 -2 -20q-43 -207 -57.5 -295.5t-14.5 -120.5q0 -43 25 -68.5t62 -25.5q39 0 81.5 27.5t75 75
t42.5 104.5l14 83q5 27 13 76.5t26 147.5q11 65 79 65q31 0 48.5 -15z" />
    <glyph glyph-name="Uring" unicode="&#x16e;" horiz-adv-x="704" 
d="M684.5 695q17.5 -15 17.5 -38q0 -8 -1 -12l-19 -108l-16 -96l-62 -366q-8 -44 -25.5 -61.5t-54.5 -17.5q-69 0 -69 52q0 9 1 13l2 14q-29 -34 -70 -54.5t-89 -20.5q-108 0 -167 57.5t-59 156.5q0 49 15.5 136.5t58.5 292.5q6 28 27 44.5t59 16.5q31 0 45 -10.5t14 -32.5
q0 -13 -2 -20q-43 -207 -57.5 -295.5t-14.5 -120.5q0 -43 25 -68.5t62 -25.5q39 0 81.5 27.5t75 75t42.5 104.5l14 83q5 27 13 76.5t26 147.5q11 65 79 65q31 0 48.5 -15zM359.5 770.5q-33.5 33.5 -33.5 82.5q0 38 21.5 72t57.5 54.5t77 20.5q48 0 80.5 -33.5t32.5 -78.5
q0 -41 -20.5 -75.5t-56 -55t-76.5 -20.5q-49 0 -82.5 33.5zM488 837q15 13 19 34q3 17 -7.5 30t-30.5 13q-22 0 -38.5 -15t-16.5 -36q0 -17 11 -28t28 -11q20 0 35 13z" />
    <glyph glyph-name="Utilde" unicode="&#x168;" horiz-adv-x="704" 
d="M684.5 695q17.5 -15 17.5 -38q0 -8 -1 -12l-19 -108l-16 -96l-62 -366q-8 -44 -25.5 -61.5t-54.5 -17.5q-69 0 -69 52q0 9 1 13l2 14q-29 -34 -70 -54.5t-89 -20.5q-108 0 -167 57.5t-59 156.5q0 49 15.5 136.5t58.5 292.5q6 28 27 44.5t59 16.5q31 0 45 -10.5t14 -32.5
q0 -13 -2 -20q-43 -207 -57.5 -295.5t-14.5 -120.5q0 -43 25 -68.5t62 -25.5q39 0 81.5 27.5t75 75t42.5 104.5l14 83q5 27 13 76.5t26 147.5q11 65 79 65q31 0 48.5 -15zM276.5 783.5q-12.5 13.5 -12.5 30.5q0 24 21 45q34 34 60.5 48t57.5 14q24 0 49 -6.5t45 -18.5
q17 -10 26 -14.5t13 -4.5q7 0 15 8q13 13 23.5 18.5t22.5 5.5q18 0 32 -14t14 -33q0 -25 -24 -46q-53 -46 -102 -46q-23 0 -42 8t-41 21q-2 1 -16.5 9.5t-24.5 8.5q-6 0 -14.5 -6.5t-20.5 -17.5q-26 -23 -50 -23q-19 0 -31.5 13.5z" />
    <glyph glyph-name="V" unicode="V" horiz-adv-x="664" 
d="M232.5 14.5q-27.5 16.5 -37.5 44.5q-8 24 -24 118t-27 187l-22 178l-11 83q-1 5 -1 15q0 69 88 69q49 0 55 -35q8 -57 22 -198q1 -20 8 -83q11 -113 19.5 -160.5t20.5 -47.5t38.5 50.5t71.5 157.5q36 86 63 147.5t60 133.5q16 35 64 35q34 0 54.5 -14.5t20.5 -39.5
q0 -15 -7 -30q-60 -137 -118 -260q-122 -261 -150 -304q-19 -28 -53 -45.5t-71 -17.5q-36 0 -63.5 16.5z" />
    <glyph glyph-name="W" unicode="W" horiz-adv-x="852" 
d="M181 16.5q-23 16.5 -25 41.5l-3 72q-2 65 -5.5 117t-12.5 127q-5 40 -10 100q-5 76 -15 144l-1 10q0 35 29 56.5t68 21.5q50 0 53 -46q3 -47 9 -104q10 -89 12 -149l2 -86q1 -44 2.5 -82t4.5 -38q5 0 41 72q8 15 17 32.5t20 37.5q29 53 49 77.5t48 24.5t42 -25.5
t23 -78.5q9 -54 19 -96t16 -42t42 109q6 16 16 45t17 48q39 104 99 254q18 46 75 46q32 0 51.5 -15t19.5 -40q0 -9 -8 -28q-41 -96 -71 -170q-10 -22 -17.5 -41.5t-14.5 -35.5q-26 -62 -90 -232l-30 -79q-11 -30 -37 -46t-62 -16t-57 17t-35 54q-5 13 -18 59q-6 23 -12 42
t-9 19t-29 -48q-29 -53 -41 -71q-48 -74 -115 -74q-34 0 -57 16.5z" />
    <glyph glyph-name="Wacute" unicode="&#x1e82;" horiz-adv-x="852" 
d="M181 16.5q-23 16.5 -25 41.5l-3 72q-2 65 -5.5 117t-12.5 127q-5 40 -10 100q-5 76 -15 144l-1 10q0 35 29 56.5t68 21.5q50 0 53 -46q3 -47 9 -104q10 -89 12 -149l2 -86q1 -44 2.5 -82t4.5 -38q5 0 41 72q8 15 17 32.5t20 37.5q29 53 49 77.5t48 24.5t42 -25.5
t23 -78.5q9 -54 19 -96t16 -42t42 109q6 16 16 45t17 48q39 104 99 254q18 46 75 46q32 0 51.5 -15t19.5 -40q0 -9 -8 -28q-41 -96 -71 -170q-10 -22 -17.5 -41.5t-14.5 -35.5q-26 -62 -90 -232l-30 -79q-11 -30 -37 -46t-62 -16t-57 17t-35 54q-5 13 -18 59q-6 23 -12 42
t-9 19t-29 -48q-29 -53 -41 -71q-48 -74 -115 -74q-34 0 -57 16.5zM450 775.5q-13 15.5 -13 34.5q0 27 29 49l103 78q26 19 38 26t26 7q20 0 32.5 -15t12.5 -36q0 -33 -34 -56l-110 -79q-21 -15 -30 -19.5t-22 -4.5q-19 0 -32 15.5z" />
    <glyph glyph-name="Wcircumflex" unicode="&#x174;" horiz-adv-x="852" 
d="M181 16.5q-23 16.5 -25 41.5l-3 72q-2 65 -5.5 117t-12.5 127q-5 40 -10 100q-5 76 -15 144l-1 10q0 35 29 56.5t68 21.5q50 0 53 -46q3 -47 9 -104q10 -89 12 -149l2 -86q1 -44 2.5 -82t4.5 -38q5 0 41 72q8 15 17 32.5t20 37.5q29 53 49 77.5t48 24.5t42 -25.5
t23 -78.5q9 -54 19 -96t16 -42t42 109q6 16 16 45t17 48q39 104 99 254q18 46 75 46q32 0 51.5 -15t19.5 -40q0 -9 -8 -28q-41 -96 -71 -170q-10 -22 -17.5 -41.5t-14.5 -35.5q-26 -62 -90 -232l-30 -79q-11 -30 -37 -46t-62 -16t-57 17t-35 54q-5 13 -18 59q-6 23 -12 42
t-9 19t-29 -48q-29 -53 -41 -71q-48 -74 -115 -74q-34 0 -57 16.5zM600 771q-12 19 -34 57q-3 4 -11.5 18.5t-11.5 14.5q-5 0 -41 -34l-48 -45q-17 -15 -28.5 -21t-24.5 -6q-20 0 -33 12.5t-13 31.5q0 10 6 23t17 23l32 29q50 47 86 74t62 27q30 0 47 -16t42 -55
q5 -7 18.5 -27.5t27.5 -37.5q9 -13 9 -27q0 -25 -18 -43.5t-42 -18.5q-29 0 -42 21z" />
    <glyph glyph-name="Wdieresis" unicode="&#x1e84;" horiz-adv-x="852" 
d="M181 16.5q-23 16.5 -25 41.5l-3 72q-2 65 -5.5 117t-12.5 127q-5 40 -10 100q-5 76 -15 144l-1 10q0 35 29 56.5t68 21.5q50 0 53 -46q3 -47 9 -104q10 -89 12 -149l2 -86q1 -44 2.5 -82t4.5 -38q5 0 41 72q8 15 17 32.5t20 37.5q29 53 49 77.5t48 24.5t42 -25.5
t23 -78.5q9 -54 19 -96t16 -42t42 109q6 16 16 45t17 48q39 104 99 254q18 46 75 46q32 0 51.5 -15t19.5 -40q0 -9 -8 -28q-41 -96 -71 -170q-10 -22 -17.5 -41.5t-14.5 -35.5q-26 -62 -90 -232l-30 -79q-11 -30 -37 -46t-62 -16t-57 17t-35 54q-5 13 -18 59q-6 23 -12 42
t-9 19t-29 -48q-29 -53 -41 -71q-48 -74 -115 -74q-34 0 -57 16.5zM338.5 779q-18.5 19 -18.5 46q0 35 28.5 62.5t63.5 27.5q28 0 47.5 -19.5t19.5 -45.5q0 -34 -29.5 -62t-64.5 -28q-28 0 -46.5 19zM614.5 779q-18.5 19 -18.5 46q0 35 28.5 62.5t63.5 27.5q28 0 47 -19
t19 -46q0 -34 -29 -62t-64 -28q-28 0 -46.5 19z" />
    <glyph glyph-name="Wgrave" unicode="&#x1e80;" horiz-adv-x="852" 
d="M181 16.5q-23 16.5 -25 41.5l-3 72q-2 65 -5.5 117t-12.5 127q-5 40 -10 100q-5 76 -15 144l-1 10q0 35 29 56.5t68 21.5q50 0 53 -46q3 -47 9 -104q10 -89 12 -149l2 -86q1 -44 2.5 -82t4.5 -38q5 0 41 72q8 15 17 32.5t20 37.5q29 53 49 77.5t48 24.5t42 -25.5
t23 -78.5q9 -54 19 -96t16 -42t42 109q6 16 16 45t17 48q39 104 99 254q18 46 75 46q32 0 51.5 -15t19.5 -40q0 -9 -8 -28q-41 -96 -71 -170q-10 -22 -17.5 -41.5t-14.5 -35.5q-26 -62 -90 -232l-30 -79q-11 -30 -37 -46t-62 -16t-57 17t-35 54q-5 13 -18 59q-6 23 -12 42
t-9 19t-29 -48q-29 -53 -41 -71q-48 -74 -115 -74q-34 0 -57 16.5zM530 755.5q-10 5.5 -20 18.5l-64 86q-15 20 -15 42q0 25 19 43t44 18q15 0 26.5 -7.5t22.5 -24.5l58 -85q12 -19 12 -37q0 -24 -18 -41.5t-41 -17.5q-14 0 -24 5.5z" />
    <glyph glyph-name="X" unicode="X" horiz-adv-x="684" 
d="M687 582q-138 -142 -239 -249l124 -224q9 -16 12.5 -25t3.5 -17q0 -16 -13.5 -34t-35.5 -30.5t-45 -12.5q-16 0 -23.5 6t-15.5 20q-40 67 -115 204q-90 -96 -172 -181q-23 -24 -35.5 -32t-31.5 -8q-32 0 -53 19t-21 44q0 15 6.5 25.5t17.5 21.5l222 233q-72 128 -146 254
q-5 8 -7 13.5t-2 12.5q0 31 30 55t65 24q20 0 30 -9.5t25 -35.5l112 -201l200 214q17 18 26.5 25t24.5 7q28 0 52.5 -24.5t24.5 -53.5q0 -20 -21 -41z" />
    <glyph glyph-name="Y" unicode="Y" horiz-adv-x="655" 
d="M243.5 14.5q-17.5 13.5 -17.5 37.5q0 4 2 16l44 264q-14 0 -44.5 39t-45.5 71q-24 54 -40 94.5t-26 87.5q-1 4 -1 12q0 30 31 48t69 18q24 0 38 -12.5t22 -39.5q27 -94 48 -145q13 -29 23 -47.5t19 -18.5t28 20.5t37 45.5q38 53 63 92l38 57q4 6 12.5 19.5t20 20
t28.5 6.5q34 0 59.5 -21.5t25.5 -47.5q0 -11 -9 -29q-11 -23 -52 -80.5t-67 -89.5q-30 -36 -73.5 -68t-58.5 -32l-43 -261q-6 -33 -28 -51.5t-57 -18.5q-28 0 -45.5 13.5z" />
    <glyph glyph-name="Yacute" unicode="&#xdd;" horiz-adv-x="655" 
d="M243.5 14.5q-17.5 13.5 -17.5 37.5q0 4 2 16l44 264q-14 0 -44.5 39t-45.5 71q-24 54 -40 94.5t-26 87.5q-1 4 -1 12q0 30 31 48t69 18q24 0 38 -12.5t22 -39.5q27 -94 48 -145q13 -29 23 -47.5t19 -18.5t28 20.5t37 45.5q38 53 63 92l38 57q4 6 12.5 19.5t20 20
t28.5 6.5q34 0 59.5 -21.5t25.5 -47.5q0 -11 -9 -29q-11 -23 -52 -80.5t-67 -89.5q-30 -36 -73.5 -68t-58.5 -32l-43 -261q-6 -33 -28 -51.5t-57 -18.5q-28 0 -45.5 13.5zM342 775.5q-13 15.5 -13 34.5q0 27 29 49l103 78q26 19 38 26t26 7q20 0 32.5 -15t12.5 -36
q0 -33 -34 -56l-110 -79q-21 -15 -30 -19.5t-22 -4.5q-19 0 -32 15.5z" />
    <glyph glyph-name="Ycircumflex" unicode="&#x176;" horiz-adv-x="655" 
d="M243.5 14.5q-17.5 13.5 -17.5 37.5q0 4 2 16l44 264q-14 0 -44.5 39t-45.5 71q-24 54 -40 94.5t-26 87.5q-1 4 -1 12q0 30 31 48t69 18q24 0 38 -12.5t22 -39.5q27 -94 48 -145q13 -29 23 -47.5t19 -18.5t28 20.5t37 45.5q38 53 63 92l38 57q4 6 12.5 19.5t20 20
t28.5 6.5q34 0 59.5 -21.5t25.5 -47.5q0 -11 -9 -29q-11 -23 -52 -80.5t-67 -89.5q-30 -36 -73.5 -68t-58.5 -32l-43 -261q-6 -33 -28 -51.5t-57 -18.5q-28 0 -45.5 13.5zM492 771q-12 19 -34 57q-3 4 -11.5 18.5t-11.5 14.5q-5 0 -41 -34l-48 -45q-17 -15 -28.5 -21
t-24.5 -6q-20 0 -33 12.5t-13 31.5q0 10 6 23t17 23l32 29q50 47 86 74t62 27q30 0 47 -16t42 -55q5 -7 18.5 -27.5t27.5 -37.5q9 -13 9 -27q0 -25 -18 -43.5t-42 -18.5q-29 0 -42 21z" />
    <glyph glyph-name="Ydieresis" unicode="&#x178;" horiz-adv-x="655" 
d="M243.5 14.5q-17.5 13.5 -17.5 37.5q0 4 2 16l44 264q-14 0 -44.5 39t-45.5 71q-24 54 -40 94.5t-26 87.5q-1 4 -1 12q0 30 31 48t69 18q24 0 38 -12.5t22 -39.5q27 -94 48 -145q13 -29 23 -47.5t19 -18.5t28 20.5t37 45.5q38 53 63 92l38 57q4 6 12.5 19.5t20 20
t28.5 6.5q34 0 59.5 -21.5t25.5 -47.5q0 -11 -9 -29q-11 -23 -52 -80.5t-67 -89.5q-30 -36 -73.5 -68t-58.5 -32l-43 -261q-6 -33 -28 -51.5t-57 -18.5q-28 0 -45.5 13.5zM230.5 779q-18.5 19 -18.5 46q0 35 28.5 62.5t63.5 27.5q28 0 47.5 -19.5t19.5 -45.5
q0 -34 -29.5 -62t-64.5 -28q-28 0 -46.5 19zM506.5 779q-18.5 19 -18.5 46q0 35 28.5 62.5t63.5 27.5q28 0 47 -19t19 -46q0 -34 -29 -62t-64 -28q-28 0 -46.5 19z" />
    <glyph glyph-name="uni1E8E" unicode="&#x1e8e;" horiz-adv-x="655" 
d="M243.5 14.5q-17.5 13.5 -17.5 37.5q0 4 2 16l44 264q-14 0 -44.5 39t-45.5 71q-24 54 -40 94.5t-26 87.5q-1 4 -1 12q0 30 31 48t69 18q24 0 38 -12.5t22 -39.5q27 -94 48 -145q13 -29 23 -47.5t19 -18.5t28 20.5t37 45.5q38 53 63 92l38 57q4 6 12.5 19.5t20 20
t28.5 6.5q34 0 59.5 -21.5t25.5 -47.5q0 -11 -9 -29q-11 -23 -52 -80.5t-67 -89.5q-30 -36 -73.5 -68t-58.5 -32l-43 -261q-6 -33 -28 -51.5t-57 -18.5q-28 0 -45.5 13.5zM369 778q-19 19 -19 48q0 34 29 61t64 27q27 0 46 -18.5t19 -44.5q0 -35 -28.5 -63.5t-63.5 -28.5
q-28 0 -47 19z" />
    <glyph glyph-name="uni1EF4" unicode="&#x1ef4;" horiz-adv-x="655" 
d="M243.5 14.5q-17.5 13.5 -17.5 37.5q0 4 2 16l44 264q-14 0 -44.5 39t-45.5 71q-24 54 -40 94.5t-26 87.5q-1 4 -1 12q0 30 31 48t69 18q24 0 38 -12.5t22 -39.5q27 -94 48 -145q13 -29 23 -47.5t19 -18.5t28 20.5t37 45.5q38 53 63 92l38 57q4 6 12.5 19.5t20 20
t28.5 6.5q34 0 59.5 -21.5t25.5 -47.5q0 -11 -9 -29q-11 -23 -52 -80.5t-67 -89.5q-30 -36 -73.5 -68t-58.5 -32l-43 -261q-6 -33 -28 -51.5t-57 -18.5q-28 0 -45.5 13.5zM203.5 -197.5q-17.5 17.5 -17.5 45.5q0 39 27.5 65.5t65.5 26.5q30 0 47.5 -17t17.5 -44
q0 -40 -27.5 -67t-65.5 -27q-30 0 -47.5 17.5z" />
    <glyph glyph-name="Ygrave" unicode="&#x1ef2;" horiz-adv-x="655" 
d="M243.5 14.5q-17.5 13.5 -17.5 37.5q0 4 2 16l44 264q-14 0 -44.5 39t-45.5 71q-24 54 -40 94.5t-26 87.5q-1 4 -1 12q0 30 31 48t69 18q24 0 38 -12.5t22 -39.5q27 -94 48 -145q13 -29 23 -47.5t19 -18.5t28 20.5t37 45.5q38 53 63 92l38 57q4 6 12.5 19.5t20 20
t28.5 6.5q34 0 59.5 -21.5t25.5 -47.5q0 -11 -9 -29q-11 -23 -52 -80.5t-67 -89.5q-30 -36 -73.5 -68t-58.5 -32l-43 -261q-6 -33 -28 -51.5t-57 -18.5q-28 0 -45.5 13.5zM422 755.5q-10 5.5 -20 18.5l-64 86q-15 20 -15 42q0 25 19 43t44 18q15 0 26.5 -7.5t22.5 -24.5
l58 -85q12 -19 12 -37q0 -24 -18 -41.5t-41 -17.5q-14 0 -24 5.5z" />
    <glyph glyph-name="uni1EF6" unicode="&#x1ef6;" horiz-adv-x="655" 
d="M243.5 14.5q-17.5 13.5 -17.5 37.5q0 4 2 16l44 264q-14 0 -44.5 39t-45.5 71q-24 54 -40 94.5t-26 87.5q-1 4 -1 12q0 30 31 48t69 18q24 0 38 -12.5t22 -39.5q27 -94 48 -145q13 -29 23 -47.5t19 -18.5t28 20.5t37 45.5q38 53 63 92l38 57q4 6 12.5 19.5t20 20
t28.5 6.5q34 0 59.5 -21.5t25.5 -47.5q0 -11 -9 -29q-11 -23 -52 -80.5t-67 -89.5q-30 -36 -73.5 -68t-58.5 -32l-43 -261q-6 -33 -28 -51.5t-57 -18.5q-28 0 -45.5 13.5zM370.5 762.5q-14.5 13.5 -11.5 32.5l9 50q2 11 12 19.5t29 20.5q22 14 34 25t12 26q0 11 -7.5 20
t-22.5 9q-18 0 -30 -8t-25 -25q-22 -29 -47 -29q-15 0 -25.5 11.5t-10.5 23.5q0 18 17 40q30 39 63.5 57.5t77.5 18.5q54 0 90 -26.5t36 -68.5q0 -32 -15 -51t-43 -38q-11 -8 -20 -16t-12 -16l-6 -41q-4 -24 -22.5 -36t-45.5 -12q-22 0 -36.5 13.5z" />
    <glyph glyph-name="uni1EF8" unicode="&#x1ef8;" horiz-adv-x="655" 
d="M243.5 14.5q-17.5 13.5 -17.5 37.5q0 4 2 16l44 264q-14 0 -44.5 39t-45.5 71q-24 54 -40 94.5t-26 87.5q-1 4 -1 12q0 30 31 48t69 18q24 0 38 -12.5t22 -39.5q27 -94 48 -145q13 -29 23 -47.5t19 -18.5t28 20.5t37 45.5q38 53 63 92l38 57q4 6 12.5 19.5t20 20
t28.5 6.5q34 0 59.5 -21.5t25.5 -47.5q0 -11 -9 -29q-11 -23 -52 -80.5t-67 -89.5q-30 -36 -73.5 -68t-58.5 -32l-43 -261q-6 -33 -28 -51.5t-57 -18.5q-28 0 -45.5 13.5zM251.5 783.5q-12.5 13.5 -12.5 30.5q0 24 21 45q34 34 60.5 48t57.5 14q24 0 49 -6.5t45 -18.5
q17 -10 26 -14.5t13 -4.5q7 0 15 8q13 13 23.5 18.5t22.5 5.5q18 0 32 -14t14 -33q0 -25 -24 -46q-53 -46 -102 -46q-23 0 -42 8t-41 21q-2 1 -16.5 9.5t-24.5 8.5q-6 0 -14.5 -6.5t-20.5 -17.5q-26 -23 -50 -23q-19 0 -31.5 13.5z" />
    <glyph glyph-name="Z" unicode="Z" horiz-adv-x="710" 
d="M494 18q-105 7 -186 7q-71 0 -167 -4l-60 -2q-71 0 -71 52q0 35 67.5 100t205.5 180l64 54q79 67 155 135l28 24l-25 -2q-48 -5 -98 -5q-54 0 -115 5.5t-93 12.5q-31 7 -44 20.5t-13 34.5q0 31 21.5 52.5t52.5 21.5q5 0 45 -4q107 -13 186 -13q36 0 81.5 3t115.5 9
q19 2 39.5 -3.5t33.5 -15.5q11 -8 16.5 -20t5.5 -25q0 -37 -46.5 -85.5t-154.5 -139.5q-25 -20 -67 -57q-120 -104 -185 -163l-50 -44l27 2q66 5 125 5q50 0 81 -2.5t91 -9.5q27 -3 40.5 -16t13.5 -39q0 -34 -21.5 -53.5t-52.5 -17.5z" />
    <glyph glyph-name="Zacute" unicode="&#x179;" horiz-adv-x="710" 
d="M494 18q-105 7 -186 7q-71 0 -167 -4l-60 -2q-71 0 -71 52q0 35 67.5 100t205.5 180l64 54q79 67 155 135l28 24l-25 -2q-48 -5 -98 -5q-54 0 -115 5.5t-93 12.5q-31 7 -44 20.5t-13 34.5q0 31 21.5 52.5t52.5 21.5q5 0 45 -4q107 -13 186 -13q36 0 81.5 3t115.5 9
q19 2 39.5 -3.5t33.5 -15.5q11 -8 16.5 -20t5.5 -25q0 -37 -46.5 -85.5t-154.5 -139.5q-25 -20 -67 -57q-120 -104 -185 -163l-50 -44l27 2q66 5 125 5q50 0 81 -2.5t91 -9.5q27 -3 40.5 -16t13.5 -39q0 -34 -21.5 -53.5t-52.5 -17.5zM370 775.5q-13 15.5 -13 34.5
q0 27 29 49l103 78q26 19 38 26t26 7q20 0 32.5 -15t12.5 -36q0 -33 -34 -56l-110 -79q-21 -15 -30 -19.5t-22 -4.5q-19 0 -32 15.5z" />
    <glyph glyph-name="Zcaron" unicode="&#x17d;" horiz-adv-x="710" 
d="M494 18q-105 7 -186 7q-71 0 -167 -4l-60 -2q-71 0 -71 52q0 35 67.5 100t205.5 180l64 54q79 67 155 135l28 24l-25 -2q-48 -5 -98 -5q-54 0 -115 5.5t-93 12.5q-31 7 -44 20.5t-13 34.5q0 31 21.5 52.5t52.5 21.5q5 0 45 -4q107 -13 186 -13q36 0 81.5 3t115.5 9
q19 2 39.5 -3.5t33.5 -15.5q11 -8 16.5 -20t5.5 -25q0 -37 -46.5 -85.5t-154.5 -139.5q-25 -20 -67 -57q-120 -104 -185 -163l-50 -44l27 2q66 5 125 5q50 0 81 -2.5t91 -9.5q27 -3 40.5 -16t13.5 -39q0 -34 -21.5 -53.5t-52.5 -17.5zM633.5 973q11.5 -12 11.5 -30
q0 -13 -5.5 -23.5t-16.5 -23.5l-22 -23q-57 -63 -89 -88t-72 -25q-33 0 -65 37t-69 93q-10 14 -10 30q0 23 20.5 41.5t44.5 18.5q13 0 22 -6t21 -21q13 -17 34 -47q9 -14 16.5 -23t10.5 -9t13 10.5t24 24.5q21 24 52 55q20 21 49 21q19 0 30.5 -12z" />
    <glyph glyph-name="Zdotaccent" unicode="&#x17b;" horiz-adv-x="710" 
d="M494 18q-105 7 -186 7q-71 0 -167 -4l-60 -2q-71 0 -71 52q0 35 67.5 100t205.5 180l64 54q79 67 155 135l28 24l-25 -2q-48 -5 -98 -5q-54 0 -115 5.5t-93 12.5q-31 7 -44 20.5t-13 34.5q0 31 21.5 52.5t52.5 21.5q5 0 45 -4q107 -13 186 -13q36 0 81.5 3t115.5 9
q19 2 39.5 -3.5t33.5 -15.5q11 -8 16.5 -20t5.5 -25q0 -37 -46.5 -85.5t-154.5 -139.5q-25 -20 -67 -57q-120 -104 -185 -163l-50 -44l27 2q66 5 125 5q50 0 81 -2.5t91 -9.5q27 -3 40.5 -16t13.5 -39q0 -34 -21.5 -53.5t-52.5 -17.5zM397 778q-19 19 -19 48q0 34 29 61
t64 27q27 0 46 -18.5t19 -44.5q0 -35 -28.5 -63.5t-63.5 -28.5q-28 0 -47 19z" />
    <glyph glyph-name="uni1E92" unicode="&#x1e92;" horiz-adv-x="710" 
d="M494 18q-105 7 -186 7q-71 0 -167 -4l-60 -2q-71 0 -71 52q0 35 67.5 100t205.5 180l64 54q79 67 155 135l28 24l-25 -2q-48 -5 -98 -5q-54 0 -115 5.5t-93 12.5q-31 7 -44 20.5t-13 34.5q0 31 21.5 52.5t52.5 21.5q5 0 45 -4q107 -13 186 -13q36 0 81.5 3t115.5 9
q19 2 39.5 -3.5t33.5 -15.5q11 -8 16.5 -20t5.5 -25q0 -37 -46.5 -85.5t-154.5 -139.5q-25 -20 -67 -57q-120 -104 -185 -163l-50 -44l27 2q66 5 125 5q50 0 81 -2.5t91 -9.5q27 -3 40.5 -16t13.5 -39q0 -34 -21.5 -53.5t-52.5 -17.5zM221.5 -197.5q-17.5 17.5 -17.5 45.5
q0 39 27.5 65.5t65.5 26.5q30 0 47.5 -17t17.5 -44q0 -40 -27.5 -67t-65.5 -27q-30 0 -47.5 17.5z" />
    <glyph glyph-name="a" unicode="a" horiz-adv-x="614" 
d="M525 107.5q10 -2.5 14.5 -11t4.5 -24.5q0 -30 -17 -51t-59 -21q-29 0 -48 11.5t-32 34.5q-22 -29 -59 -43t-82 -14q-62 0 -110.5 25.5t-76 74.5t-27.5 117q0 79 36 145t97.5 105t135.5 39q45 0 78.5 -14.5t51.5 -37.5l3 10q13 37 58 37q31 0 51 -12t20 -30t-21 -68
l-8 -21q-18 -48 -30.5 -111t-12.5 -100q0 -21 4.5 -27.5t15.5 -9.5q3 -1 13 -3.5zM324 121q26 21 33 59q24 122 24 145q0 25 -18.5 42t-47.5 17q-38 0 -69 -28.5t-48 -72.5t-17 -88q0 -45 20 -70t60 -25q37 0 63 21z" />
    <glyph glyph-name="aacute" unicode="&#xe1;" horiz-adv-x="614" 
d="M525 107.5q10 -2.5 14.5 -11t4.5 -24.5q0 -30 -17 -51t-59 -21q-29 0 -48 11.5t-32 34.5q-22 -29 -59 -43t-82 -14q-62 0 -110.5 25.5t-76 74.5t-27.5 117q0 79 36 145t97.5 105t135.5 39q45 0 78.5 -14.5t51.5 -37.5l3 10q13 37 58 37q31 0 51 -12t20 -30t-21 -68
l-8 -21q-18 -48 -30.5 -111t-12.5 -100q0 -21 4.5 -27.5t15.5 -9.5q3 -1 13 -3.5zM324 121q26 21 33 59q24 122 24 145q0 25 -18.5 42t-47.5 17q-38 0 -69 -28.5t-48 -72.5t-17 -88q0 -45 20 -70t60 -25q37 0 63 21zM270 575.5q-13 15.5 -13 34.5q0 27 29 49l103 78
q26 19 38 26t26 7q20 0 32.5 -15t12.5 -36q0 -33 -34 -56l-110 -79q-21 -15 -30 -19.5t-22 -4.5q-19 0 -32 15.5z" />
    <glyph glyph-name="abreve" unicode="&#x103;" horiz-adv-x="614" 
d="M525 107.5q10 -2.5 14.5 -11t4.5 -24.5q0 -30 -17 -51t-59 -21q-29 0 -48 11.5t-32 34.5q-22 -29 -59 -43t-82 -14q-62 0 -110.5 25.5t-76 74.5t-27.5 117q0 79 36 145t97.5 105t135.5 39q45 0 78.5 -14.5t51.5 -37.5l3 10q13 37 58 37q31 0 51 -12t20 -30t-21 -68
l-8 -21q-18 -48 -30.5 -111t-12.5 -100q0 -21 4.5 -27.5t15.5 -9.5q3 -1 13 -3.5zM324 121q26 21 33 59q24 122 24 145q0 25 -18.5 42t-47.5 17q-38 0 -69 -28.5t-48 -72.5t-17 -88q0 -45 20 -70t60 -25q37 0 63 21zM266 565.5q-38 16.5 -59.5 46.5t-21.5 67q0 24 10 44
q19 33 54 33q18 0 31 -8.5t13 -23.5v-13q3 -70 65 -70q29 0 54 20t33 59q4 19 21 29t37 10q19 0 32 -12.5t13 -30.5q0 -42 -29 -81t-75.5 -62.5t-93.5 -23.5q-46 0 -84 16.5z" />
    <glyph glyph-name="uni1EAF" unicode="&#x1eaf;" horiz-adv-x="614" 
d="M525 107.5q10 -2.5 14.5 -11t4.5 -24.5q0 -30 -17 -51t-59 -21q-29 0 -48 11.5t-32 34.5q-22 -29 -59 -43t-82 -14q-62 0 -110.5 25.5t-76 74.5t-27.5 117q0 79 36 145t97.5 105t135.5 39q45 0 78.5 -14.5t51.5 -37.5l3 10q13 37 58 37q31 0 51 -12t20 -30t-21 -68
l-8 -21q-18 -48 -30.5 -111t-12.5 -100q0 -21 4.5 -27.5t15.5 -9.5q3 -1 13 -3.5zM324 121q26 21 33 59q24 122 24 145q0 25 -18.5 42t-47.5 17q-38 0 -69 -28.5t-48 -72.5t-17 -88q0 -45 20 -70t60 -25q37 0 63 21zM342 773.5q-11 11.5 -11 28.5q0 12 8 28.5t20 27.5l42 40
q33 32 62 32q20 0 32 -12t12 -31q0 -32 -33 -60l-49 -41q-28 -24 -53 -24q-19 0 -30 11.5zM264 565.5q-38 16.5 -59.5 46.5t-21.5 67q0 24 10 44q19 33 54 33q18 0 31 -8.5t13 -23.5v-13q3 -70 65 -70q29 0 54 20t33 59q4 19 21 29t37 10q19 0 32 -12.5t13 -30.5
q0 -42 -29 -81t-75.5 -62.5t-93.5 -23.5q-46 0 -84 16.5z" />
    <glyph glyph-name="uni1EB7" unicode="&#x1eb7;" horiz-adv-x="614" 
d="M525 107.5q10 -2.5 14.5 -11t4.5 -24.5q0 -30 -17 -51t-59 -21q-29 0 -48 11.5t-32 34.5q-22 -29 -59 -43t-82 -14q-62 0 -110.5 25.5t-76 74.5t-27.5 117q0 79 36 145t97.5 105t135.5 39q45 0 78.5 -14.5t51.5 -37.5l3 10q13 37 58 37q31 0 51 -12t20 -30t-21 -68
l-8 -21q-18 -48 -30.5 -111t-12.5 -100q0 -21 4.5 -27.5t15.5 -9.5q3 -1 13 -3.5zM324 121q26 21 33 59q24 122 24 145q0 25 -18.5 42t-47.5 17q-38 0 -69 -28.5t-48 -72.5t-17 -88q0 -45 20 -70t60 -25q37 0 63 21zM156.5 -197.5q-17.5 17.5 -17.5 45.5q0 39 27.5 65.5
t65.5 26.5q30 0 47.5 -17t17.5 -44q0 -40 -27.5 -67t-65.5 -27q-30 0 -47.5 17.5zM266 565.5q-38 16.5 -59.5 46.5t-21.5 67q0 24 10 44q19 33 54 33q18 0 31 -8.5t13 -23.5v-13q3 -70 65 -70q29 0 54 20t33 59q4 19 21 29t37 10q19 0 32 -12.5t13 -30.5q0 -42 -29 -81
t-75.5 -62.5t-93.5 -23.5q-46 0 -84 16.5z" />
    <glyph glyph-name="uni1EB1" unicode="&#x1eb1;" horiz-adv-x="614" 
d="M525 107.5q10 -2.5 14.5 -11t4.5 -24.5q0 -30 -17 -51t-59 -21q-29 0 -48 11.5t-32 34.5q-22 -29 -59 -43t-82 -14q-62 0 -110.5 25.5t-76 74.5t-27.5 117q0 79 36 145t97.5 105t135.5 39q45 0 78.5 -14.5t51.5 -37.5l3 10q13 37 58 37q31 0 51 -12t20 -30t-21 -68
l-8 -21q-18 -48 -30.5 -111t-12.5 -100q0 -21 4.5 -27.5t15.5 -9.5q3 -1 13 -3.5zM324 121q26 21 33 59q24 122 24 145q0 25 -18.5 42t-47.5 17q-38 0 -69 -28.5t-48 -72.5t-17 -88q0 -45 20 -70t60 -25q37 0 63 21zM356.5 767.5q-9.5 5.5 -20.5 18.5l-35 41q-15 17 -15 39
q0 26 18.5 45t43.5 19q28 0 50 -32l28 -40q12 -17 12 -37q0 -24 -18 -41.5t-41 -17.5q-13 0 -22.5 5.5zM267 565.5q-38 16.5 -59.5 46.5t-21.5 67q0 24 10 44q19 33 54 33q18 0 31 -8.5t13 -23.5v-13q3 -70 65 -70q29 0 54 20t33 59q4 19 21 29t37 10q19 0 32 -12.5
t13 -30.5q0 -42 -29 -81t-75.5 -62.5t-93.5 -23.5q-46 0 -84 16.5z" />
    <glyph glyph-name="uni1EB3" unicode="&#x1eb3;" horiz-adv-x="614" 
d="M525 107.5q10 -2.5 14.5 -11t4.5 -24.5q0 -30 -17 -51t-59 -21q-29 0 -48 11.5t-32 34.5q-22 -29 -59 -43t-82 -14q-62 0 -110.5 25.5t-76 74.5t-27.5 117q0 79 36 145t97.5 105t135.5 39q45 0 78.5 -14.5t51.5 -37.5l3 10q13 37 58 37q31 0 51 -12t20 -30t-21 -68
l-8 -21q-18 -48 -30.5 -111t-12.5 -100q0 -21 4.5 -27.5t15.5 -9.5q3 -1 13 -3.5zM324 121q26 21 33 59q24 122 24 145q0 25 -18.5 42t-47.5 17q-38 0 -69 -28.5t-48 -72.5t-17 -88q0 -45 20 -70t60 -25q37 0 63 21zM352.5 757q-10.5 11 -8.5 27l5 27q1 6 12 14t13 10
q18 13 28 23t10 20q0 7 -5 12t-15 5q-30 0 -39 -20q-4 -11 -14 -17t-20 -6q-25 0 -25 27q0 37 35 60.5t79 23.5q36 0 61 -21.5t25 -50.5q0 -21 -11 -34.5t-30 -27.5q-7 -6 -13 -11.5t-8 -10.5l-5 -22q-3 -17 -17 -28t-31 -11q-16 0 -26.5 11zM267 565.5q-38 16.5 -59.5 46.5
t-21.5 67q0 24 10 44q19 33 54 33q18 0 31 -8.5t13 -23.5v-13q3 -70 65 -70q29 0 54 20t33 59q4 19 21 29t37 10q19 0 32 -12.5t13 -30.5q0 -42 -29 -81t-75.5 -62.5t-93.5 -23.5q-46 0 -84 16.5z" />
    <glyph glyph-name="uni1EB5" unicode="&#x1eb5;" horiz-adv-x="614" 
d="M525 107.5q10 -2.5 14.5 -11t4.5 -24.5q0 -30 -17 -51t-59 -21q-29 0 -48 11.5t-32 34.5q-22 -29 -59 -43t-82 -14q-62 0 -110.5 25.5t-76 74.5t-27.5 117q0 79 36 145t97.5 105t135.5 39q45 0 78.5 -14.5t51.5 -37.5l3 10q13 37 58 37q31 0 51 -12t20 -30t-21 -68
l-8 -21q-18 -48 -30.5 -111t-12.5 -100q0 -21 4.5 -27.5t15.5 -9.5q3 -1 13 -3.5zM324 121q26 21 33 59q24 122 24 145q0 25 -18.5 42t-47.5 17q-38 0 -69 -28.5t-48 -72.5t-17 -88q0 -45 20 -70t60 -25q37 0 63 21zM216 791.5q-12 11.5 -12 28.5q0 16 12 31q20 24 52 36.5
t71 12.5q23 0 36.5 -3t32.5 -10q13 -6 24 -8.5t27 -2.5q8 0 17.5 2t14.5 5q10 6 17 8.5t17 2.5q21 0 34 -11.5t13 -29.5q0 -11 -4 -22t-12 -17q-20 -18 -45.5 -25.5t-62.5 -7.5q-25 0 -41.5 4t-36.5 11q-27 9 -43 9q-7 0 -15.5 -2t-14.5 -5q-4 -2 -19.5 -10t-26.5 -8
q-23 0 -35 11.5zM267 564q-38 15 -59.5 42t-21.5 60q0 22 10 40q18 29 54 29q18 0 31 -7.5t13 -20.5v-12q3 -63 65 -63q29 0 54 18t33 53q4 17 21 26t37 9q19 0 32 -11t13 -28q0 -38 -29 -72.5t-75.5 -56t-93.5 -21.5q-46 0 -84 15z" />
    <glyph glyph-name="uni01CE" unicode="&#x1ce;" horiz-adv-x="614" 
d="M525 107.5q10 -2.5 14.5 -11t4.5 -24.5q0 -30 -17 -51t-59 -21q-29 0 -48 11.5t-32 34.5q-22 -29 -59 -43t-82 -14q-62 0 -110.5 25.5t-76 74.5t-27.5 117q0 79 36 145t97.5 105t135.5 39q45 0 78.5 -14.5t51.5 -37.5l3 10q13 37 58 37q31 0 51 -12t20 -30t-21 -68
l-8 -21q-18 -48 -30.5 -111t-12.5 -100q0 -21 4.5 -27.5t15.5 -9.5q3 -1 13 -3.5zM324 121q26 21 33 59q24 122 24 145q0 25 -18.5 42t-47.5 17q-38 0 -69 -28.5t-48 -72.5t-17 -88q0 -45 20 -70t60 -25q37 0 63 21zM533.5 773q11.5 -12 11.5 -30q0 -13 -5.5 -23.5
t-16.5 -23.5l-22 -23q-57 -63 -89 -88t-72 -25q-33 0 -65 37t-69 93q-10 14 -10 30q0 23 20.5 41.5t44.5 18.5q13 0 22 -6t21 -21q13 -17 34 -47q9 -14 16.5 -23t10.5 -9t13 10.5t24 24.5q21 24 52 55q20 21 49 21q19 0 30.5 -12z" />
    <glyph glyph-name="acircumflex" unicode="&#xe2;" horiz-adv-x="614" 
d="M525 107.5q10 -2.5 14.5 -11t4.5 -24.5q0 -30 -17 -51t-59 -21q-29 0 -48 11.5t-32 34.5q-22 -29 -59 -43t-82 -14q-62 0 -110.5 25.5t-76 74.5t-27.5 117q0 79 36 145t97.5 105t135.5 39q45 0 78.5 -14.5t51.5 -37.5l3 10q13 37 58 37q31 0 51 -12t20 -30t-21 -68
l-8 -21q-18 -48 -30.5 -111t-12.5 -100q0 -21 4.5 -27.5t15.5 -9.5q3 -1 13 -3.5zM324 121q26 21 33 59q24 122 24 145q0 25 -18.5 42t-47.5 17q-38 0 -69 -28.5t-48 -72.5t-17 -88q0 -45 20 -70t60 -25q37 0 63 21zM420 571q-12 19 -34 57q-3 4 -11.5 18.5t-11.5 14.5
q-5 0 -41 -34l-48 -45q-17 -15 -28.5 -21t-24.5 -6q-20 0 -33 12.5t-13 31.5q0 10 6 23t17 23l32 29q50 47 86 74t62 27q30 0 47 -16t42 -55q5 -7 18.5 -27.5t27.5 -37.5q9 -13 9 -27q0 -25 -18 -43.5t-42 -18.5q-29 0 -42 21z" />
    <glyph glyph-name="uni1EA5" unicode="&#x1ea5;" horiz-adv-x="614" 
d="M525 107.5q10 -2.5 14.5 -11t4.5 -24.5q0 -30 -17 -51t-59 -21q-29 0 -48 11.5t-32 34.5q-22 -29 -59 -43t-82 -14q-62 0 -110.5 25.5t-76 74.5t-27.5 117q0 79 36 145t97.5 105t135.5 39q45 0 78.5 -14.5t51.5 -37.5l3 10q13 37 58 37q31 0 51 -12t20 -30t-21 -68
l-8 -21q-18 -48 -30.5 -111t-12.5 -100q0 -21 4.5 -27.5t15.5 -9.5q3 -1 13 -3.5zM324 121q26 21 33 59q24 122 24 145q0 25 -18.5 42t-47.5 17q-38 0 -69 -28.5t-48 -72.5t-17 -88q0 -45 20 -70t60 -25q37 0 63 21zM502.5 754.5q-11.5 12.5 -11.5 30.5q0 27 28 53l42 40
q18 17 32 24.5t29 7.5q20 0 32 -12t12 -31t-10 -34.5t-23 -25.5l-49 -41q-28 -24 -52 -24q-18 0 -29.5 12.5zM421 572q-12 19 -34 57q-3 4 -11.5 18.5t-11.5 14.5q-5 0 -41 -34l-48 -45q-17 -15 -28.5 -21t-24.5 -6q-20 0 -33 12.5t-13 31.5q0 10 6 23t17 23l32 29
q50 47 86 74t62 27q30 0 47 -16t42 -55q5 -7 18.5 -27.5t27.5 -37.5q9 -13 9 -27q0 -25 -18 -43.5t-42 -18.5q-29 0 -42 21z" />
    <glyph glyph-name="uni1EAD" unicode="&#x1ead;" horiz-adv-x="614" 
d="M525 107.5q10 -2.5 14.5 -11t4.5 -24.5q0 -30 -17 -51t-59 -21q-29 0 -48 11.5t-32 34.5q-22 -29 -59 -43t-82 -14q-62 0 -110.5 25.5t-76 74.5t-27.5 117q0 79 36 145t97.5 105t135.5 39q45 0 78.5 -14.5t51.5 -37.5l3 10q13 37 58 37q31 0 51 -12t20 -30t-21 -68
l-8 -21q-18 -48 -30.5 -111t-12.5 -100q0 -21 4.5 -27.5t15.5 -9.5q3 -1 13 -3.5zM324 121q26 21 33 59q24 122 24 145q0 25 -18.5 42t-47.5 17q-38 0 -69 -28.5t-48 -72.5t-17 -88q0 -45 20 -70t60 -25q37 0 63 21zM156.5 -197.5q-17.5 17.5 -17.5 45.5q0 39 27.5 65.5
t65.5 26.5q30 0 47.5 -17t17.5 -44q0 -40 -27.5 -67t-65.5 -27q-30 0 -47.5 17.5zM420 571q-12 19 -34 57q-3 4 -11.5 18.5t-11.5 14.5q-5 0 -41 -34l-48 -45q-17 -15 -28.5 -21t-24.5 -6q-20 0 -33 12.5t-13 31.5q0 10 6 23t17 23l32 29q50 47 86 74t62 27q30 0 47 -16
t42 -55q5 -7 18.5 -27.5t27.5 -37.5q9 -13 9 -27q0 -25 -18 -43.5t-42 -18.5q-29 0 -42 21z" />
    <glyph glyph-name="uni1EA7" unicode="&#x1ea7;" horiz-adv-x="614" 
d="M525 107.5q10 -2.5 14.5 -11t4.5 -24.5q0 -30 -17 -51t-59 -21q-29 0 -48 11.5t-32 34.5q-22 -29 -59 -43t-82 -14q-62 0 -110.5 25.5t-76 74.5t-27.5 117q0 79 36 145t97.5 105t135.5 39q45 0 78.5 -14.5t51.5 -37.5l3 10q13 37 58 37q31 0 51 -12t20 -30t-21 -68
l-8 -21q-18 -48 -30.5 -111t-12.5 -100q0 -21 4.5 -27.5t15.5 -9.5q3 -1 13 -3.5zM324 121q26 21 33 59q24 122 24 145q0 25 -18.5 42t-47.5 17q-38 0 -69 -28.5t-48 -72.5t-17 -88q0 -45 20 -70t60 -25q37 0 63 21zM493 766l-34 41q-16 18 -16 40q0 26 19 44.5t44 18.5
q28 0 50 -32l28 -40q12 -17 12 -37q0 -24 -18 -41.5t-41 -17.5q-24 0 -44 24zM421 572q-12 19 -34 57q-3 4 -11.5 18.5t-11.5 14.5q-5 0 -41 -34l-48 -45q-17 -15 -28.5 -21t-24.5 -6q-20 0 -33 12.5t-13 31.5q0 10 6 23t17 23l32 29q50 47 86 74t62 27q30 0 47 -16t42 -55
q5 -7 18.5 -27.5t27.5 -37.5q9 -13 9 -27q0 -25 -18 -43.5t-42 -18.5q-29 0 -42 21z" />
    <glyph glyph-name="uni1EA9" unicode="&#x1ea9;" horiz-adv-x="614" 
d="M525 107.5q10 -2.5 14.5 -11t4.5 -24.5q0 -30 -17 -51t-59 -21q-29 0 -48 11.5t-32 34.5q-22 -29 -59 -43t-82 -14q-62 0 -110.5 25.5t-76 74.5t-27.5 117q0 79 36 145t97.5 105t135.5 39q45 0 78.5 -14.5t51.5 -37.5l3 10q13 37 58 37q31 0 51 -12t20 -30t-21 -68
l-8 -21q-18 -48 -30.5 -111t-12.5 -100q0 -21 4.5 -27.5t15.5 -9.5q3 -1 13 -3.5zM324 121q26 21 33 59q24 122 24 145q0 25 -18.5 42t-47.5 17q-38 0 -69 -28.5t-48 -72.5t-17 -88q0 -45 20 -70t60 -25q37 0 63 21zM515.5 752.5q-10.5 9.5 -10.5 22.5q0 11 5 33
q1 7 10.5 14.5t19.5 14.5q16 10 25 19t9 18q0 7 -5 12.5t-16 5.5q-31 0 -38 -20q-4 -11 -14 -17t-20 -6q-13 0 -19.5 8t-6.5 20q0 36 34.5 59.5t77.5 23.5q37 0 62.5 -18.5t25.5 -49.5q0 -20 -11 -34.5t-30 -30.5q-8 -6 -14 -12.5t-7 -11.5l-4 -24q-2 -17 -16.5 -26.5
t-32.5 -9.5q-14 0 -24.5 9.5zM421 572q-12 19 -34 57q-3 4 -11.5 18.5t-11.5 14.5q-5 0 -41 -34l-48 -45q-17 -15 -28.5 -21t-24.5 -6q-20 0 -33 12.5t-13 31.5q0 10 6 23t17 23l32 29q50 47 86 74t62 27q30 0 47 -16t42 -55q5 -7 18.5 -27.5t27.5 -37.5q9 -13 9 -27
q0 -25 -18 -43.5t-42 -18.5q-29 0 -42 21z" />
    <glyph glyph-name="uni1EAB" unicode="&#x1eab;" horiz-adv-x="614" 
d="M525 107.5q10 -2.5 14.5 -11t4.5 -24.5q0 -30 -17 -51t-59 -21q-29 0 -48 11.5t-32 34.5q-22 -29 -59 -43t-82 -14q-62 0 -110.5 25.5t-76 74.5t-27.5 117q0 79 36 145t97.5 105t135.5 39q45 0 78.5 -14.5t51.5 -37.5l3 10q13 37 58 37q31 0 51 -12t20 -30t-21 -68
l-8 -21q-18 -48 -30.5 -111t-12.5 -100q0 -21 4.5 -27.5t15.5 -9.5q3 -1 13 -3.5zM324 121q26 21 33 59q24 122 24 145q0 25 -18.5 42t-47.5 17q-38 0 -69 -28.5t-48 -72.5t-17 -88q0 -45 20 -70t60 -25q37 0 63 21zM224.5 827q-11.5 11 -11.5 27q0 21 22 40
q33 28 56.5 38.5t54.5 10.5q43 0 85 -21q11 -6 25 -11t22 -5q11 0 22 7q7 4 16 10.5t15.5 9.5t14.5 3q17 0 29.5 -13t12.5 -29q0 -11 -6 -21.5t-16 -17.5q-58 -39 -101 -39q-19 0 -36 5.5t-30 11.5t-18 8q-7 3 -19.5 9t-20.5 6q-7 0 -15.5 -4.5t-22.5 -15.5q-25 -20 -47 -20
q-20 0 -31.5 11zM421 572q-12 19 -34 57q-3 4 -11.5 18.5t-11.5 14.5q-5 0 -41 -34l-48 -45q-17 -15 -28.5 -21t-24.5 -6q-20 0 -33 12.5t-13 31.5q0 10 6 23t17 23l32 29q50 47 86 74t62 27q30 0 47 -16t42 -55q5 -7 18.5 -27.5t27.5 -37.5q9 -13 9 -27q0 -25 -18 -43.5
t-42 -18.5q-29 0 -42 21z" />
    <glyph glyph-name="adieresis" unicode="&#xe4;" horiz-adv-x="614" 
d="M525 107.5q10 -2.5 14.5 -11t4.5 -24.5q0 -30 -17 -51t-59 -21q-29 0 -48 11.5t-32 34.5q-22 -29 -59 -43t-82 -14q-62 0 -110.5 25.5t-76 74.5t-27.5 117q0 79 36 145t97.5 105t135.5 39q45 0 78.5 -14.5t51.5 -37.5l3 10q13 37 58 37q31 0 51 -12t20 -30t-21 -68
l-8 -21q-18 -48 -30.5 -111t-12.5 -100q0 -21 4.5 -27.5t15.5 -9.5q3 -1 13 -3.5zM324 121q26 21 33 59q24 122 24 145q0 25 -18.5 42t-47.5 17q-38 0 -69 -28.5t-48 -72.5t-17 -88q0 -45 20 -70t60 -25q37 0 63 21zM158.5 579q-18.5 19 -18.5 46q0 35 28.5 62.5t63.5 27.5
q28 0 47.5 -19.5t19.5 -45.5q0 -34 -29.5 -62t-64.5 -28q-28 0 -46.5 19zM434.5 579q-18.5 19 -18.5 46q0 35 28.5 62.5t63.5 27.5q28 0 47 -19t19 -46q0 -34 -29 -62t-64 -28q-28 0 -46.5 19z" />
    <glyph glyph-name="uni1EA1" unicode="&#x1ea1;" horiz-adv-x="614" 
d="M525 107.5q10 -2.5 14.5 -11t4.5 -24.5q0 -30 -17 -51t-59 -21q-29 0 -48 11.5t-32 34.5q-22 -29 -59 -43t-82 -14q-62 0 -110.5 25.5t-76 74.5t-27.5 117q0 79 36 145t97.5 105t135.5 39q45 0 78.5 -14.5t51.5 -37.5l3 10q13 37 58 37q31 0 51 -12t20 -30t-21 -68
l-8 -21q-18 -48 -30.5 -111t-12.5 -100q0 -21 4.5 -27.5t15.5 -9.5q3 -1 13 -3.5zM324 121q26 21 33 59q24 122 24 145q0 25 -18.5 42t-47.5 17q-38 0 -69 -28.5t-48 -72.5t-17 -88q0 -45 20 -70t60 -25q37 0 63 21zM156.5 -197.5q-17.5 17.5 -17.5 45.5q0 39 27.5 65.5
t65.5 26.5q30 0 47.5 -17t17.5 -44q0 -40 -27.5 -67t-65.5 -27q-30 0 -47.5 17.5z" />
    <glyph glyph-name="agrave" unicode="&#xe0;" horiz-adv-x="614" 
d="M525 107.5q10 -2.5 14.5 -11t4.5 -24.5q0 -30 -17 -51t-59 -21q-29 0 -48 11.5t-32 34.5q-22 -29 -59 -43t-82 -14q-62 0 -110.5 25.5t-76 74.5t-27.5 117q0 79 36 145t97.5 105t135.5 39q45 0 78.5 -14.5t51.5 -37.5l3 10q13 37 58 37q31 0 51 -12t20 -30t-21 -68
l-8 -21q-18 -48 -30.5 -111t-12.5 -100q0 -21 4.5 -27.5t15.5 -9.5q3 -1 13 -3.5zM324 121q26 21 33 59q24 122 24 145q0 25 -18.5 42t-47.5 17q-38 0 -69 -28.5t-48 -72.5t-17 -88q0 -45 20 -70t60 -25q37 0 63 21zM350 555.5q-10 5.5 -20 18.5l-64 86q-15 20 -15 42
q0 25 19 43t44 18q15 0 26.5 -7.5t22.5 -24.5l58 -85q12 -19 12 -37q0 -24 -18 -41.5t-41 -17.5q-14 0 -24 5.5z" />
    <glyph glyph-name="uni1EA3" unicode="&#x1ea3;" horiz-adv-x="614" 
d="M525 107.5q10 -2.5 14.5 -11t4.5 -24.5q0 -30 -17 -51t-59 -21q-29 0 -48 11.5t-32 34.5q-22 -29 -59 -43t-82 -14q-62 0 -110.5 25.5t-76 74.5t-27.5 117q0 79 36 145t97.5 105t135.5 39q45 0 78.5 -14.5t51.5 -37.5l3 10q13 37 58 37q31 0 51 -12t20 -30t-21 -68
l-8 -21q-18 -48 -30.5 -111t-12.5 -100q0 -21 4.5 -27.5t15.5 -9.5q3 -1 13 -3.5zM324 121q26 21 33 59q24 122 24 145q0 25 -18.5 42t-47.5 17q-38 0 -69 -28.5t-48 -72.5t-17 -88q0 -45 20 -70t60 -25q37 0 63 21zM298.5 562.5q-14.5 13.5 -11.5 32.5l9 50q2 11 12 19.5
t29 20.5q22 14 34 25t12 26q0 11 -7.5 20t-22.5 9q-18 0 -30 -8t-25 -25q-22 -29 -47 -29q-15 0 -25.5 11.5t-10.5 23.5q0 18 17 40q30 39 63.5 57.5t77.5 18.5q54 0 90 -26.5t36 -68.5q0 -32 -15 -51t-43 -38q-11 -8 -20 -16t-12 -16l-6 -41q-4 -24 -22.5 -36t-45.5 -12
q-22 0 -36.5 13.5z" />
    <glyph glyph-name="uni0251" unicode="&#x251;" horiz-adv-x="614" 
d="M525 107.5q10 -2.5 14.5 -11t4.5 -24.5q0 -30 -17 -51t-59 -21q-29 0 -48 11.5t-32 34.5q-22 -29 -59 -43t-82 -14q-62 0 -110.5 25.5t-76 74.5t-27.5 117q0 79 36 145t97.5 105t135.5 39q45 0 78.5 -14.5t51.5 -37.5l3 10q13 37 58 37q31 0 51 -12t20 -30t-21 -68
l-8 -21q-18 -48 -30.5 -111t-12.5 -100q0 -21 4.5 -27.5t15.5 -9.5q3 -1 13 -3.5zM324 121q26 21 33 59q24 122 24 145q0 25 -18.5 42t-47.5 17q-38 0 -69 -28.5t-48 -72.5t-17 -88q0 -45 20 -70t60 -25q37 0 63 21z" />
    <glyph glyph-name="amacron" unicode="&#x101;" horiz-adv-x="614" 
d="M525 107.5q10 -2.5 14.5 -11t4.5 -24.5q0 -30 -17 -51t-59 -21q-29 0 -48 11.5t-32 34.5q-22 -29 -59 -43t-82 -14q-62 0 -110.5 25.5t-76 74.5t-27.5 117q0 79 36 145t97.5 105t135.5 39q45 0 78.5 -14.5t51.5 -37.5l3 10q13 37 58 37q31 0 51 -12t20 -30t-21 -68
l-8 -21q-18 -48 -30.5 -111t-12.5 -100q0 -21 4.5 -27.5t15.5 -9.5q3 -1 13 -3.5zM324 121q26 21 33 59q24 122 24 145q0 25 -18.5 42t-47.5 17q-38 0 -69 -28.5t-48 -72.5t-17 -88q0 -45 20 -70t60 -25q37 0 63 21zM148 589q-10 12 -10 31q0 29 16.5 46.5t44.5 22.5
q40 7 77.5 11t91.5 4l147 1q22 0 34.5 -13t12.5 -34q0 -28 -18.5 -46t-47.5 -18l-43 1q-38 3 -86 3q-54 0 -98 -5t-93 -13q-18 -3 -28 9z" />
    <glyph glyph-name="aogonek" unicode="&#x105;" horiz-adv-x="614" 
d="M461 -35q-16 -16 -16 -31q0 -10 7 -13.5t20 -3.5q5 0 21 4q15 5 23 5q10 0 17 -7.5t7 -21.5q0 -34 -23 -52.5t-64 -18.5q-49 0 -78 26t-29 66q0 57 56 108q-10 12 -14 20q-22 -29 -59 -43t-82 -14q-62 0 -110.5 25.5t-76 74.5t-27.5 117q0 79 36 145t97.5 105t135.5 39
q45 0 78.5 -14.5t51.5 -37.5l3 10q13 37 58 37q31 0 51 -12t20 -30t-21 -68l-8 -21q-18 -48 -30.5 -111t-12.5 -100q0 -21 4.5 -27.5t15.5 -9.5q3 -1 13 -3.5t14.5 -11t4.5 -24.5q0 -40 -25 -58l-13 -12q-29 -21 -45 -37zM324 121q26 21 33 59q24 122 24 145q0 25 -18.5 42
t-47.5 17q-38 0 -69 -28.5t-48 -72.5t-17 -88q0 -45 20 -70t60 -25q37 0 63 21z" />
    <glyph glyph-name="aring" unicode="&#xe5;" horiz-adv-x="614" 
d="M525 107.5q10 -2.5 14.5 -11t4.5 -24.5q0 -30 -17 -51t-59 -21q-29 0 -48 11.5t-32 34.5q-22 -29 -59 -43t-82 -14q-62 0 -110.5 25.5t-76 74.5t-27.5 117q0 79 36 145t97.5 105t135.5 39q45 0 78.5 -14.5t51.5 -37.5l3 10q13 37 58 37q31 0 51 -12t20 -30t-21 -68
l-8 -21q-18 -48 -30.5 -111t-12.5 -100q0 -21 4.5 -27.5t15.5 -9.5q3 -1 13 -3.5zM324 121q26 21 33 59q24 122 24 145q0 25 -18.5 42t-47.5 17q-38 0 -69 -28.5t-48 -72.5t-17 -88q0 -45 20 -70t60 -25q37 0 63 21zM262.5 570.5q-33.5 33.5 -33.5 82.5q0 38 21.5 72
t57.5 54.5t77 20.5q48 0 80.5 -33.5t32.5 -78.5q0 -41 -20.5 -75.5t-56 -55t-76.5 -20.5q-49 0 -82.5 33.5zM391 637q15 13 19 34q3 17 -7.5 30t-30.5 13q-22 0 -38.5 -15t-16.5 -36q0 -17 11 -28t28 -11q20 0 35 13z" />
    <glyph glyph-name="aringacute" unicode="&#x1fb;" horiz-adv-x="614" 
d="M525 107.5q10 -2.5 14.5 -11t4.5 -24.5q0 -30 -17 -51t-59 -21q-29 0 -48 11.5t-32 34.5q-22 -29 -59 -43t-82 -14q-62 0 -110.5 25.5t-76 74.5t-27.5 117q0 79 36 145t97.5 105t135.5 39q45 0 78.5 -14.5t51.5 -37.5l3 10q13 37 58 37q31 0 51 -12t20 -30t-21 -68
l-8 -21q-18 -48 -30.5 -111t-12.5 -100q0 -21 4.5 -27.5t15.5 -9.5q3 -1 13 -3.5zM324 121q26 21 33 59q24 122 24 145q0 25 -18.5 42t-47.5 17q-38 0 -69 -28.5t-48 -72.5t-17 -88q0 -45 20 -70t60 -25q37 0 63 21zM262.5 570.5q-33.5 33.5 -33.5 82.5q0 38 21.5 72
t57.5 54.5t77 20.5q48 0 80.5 -33.5t32.5 -78.5q0 -41 -20.5 -75.5t-56 -55t-76.5 -20.5q-49 0 -82.5 33.5zM391 637q15 13 19 34q3 17 -7.5 30t-30.5 13q-22 0 -38.5 -15t-16.5 -36q0 -17 11 -28t28 -11q20 0 35 13zM323 875.5q-13 15.5 -13 34.5q0 27 29 49l103 78
q26 19 38 26t26 7q20 0 32.5 -15t12.5 -36q0 -33 -34 -56l-110 -79q-21 -15 -30 -19.5t-22 -4.5q-19 0 -32 15.5z" />
    <glyph glyph-name="atilde" unicode="&#xe3;" horiz-adv-x="614" 
d="M525 107.5q10 -2.5 14.5 -11t4.5 -24.5q0 -30 -17 -51t-59 -21q-29 0 -48 11.5t-32 34.5q-22 -29 -59 -43t-82 -14q-62 0 -110.5 25.5t-76 74.5t-27.5 117q0 79 36 145t97.5 105t135.5 39q45 0 78.5 -14.5t51.5 -37.5l3 10q13 37 58 37q31 0 51 -12t20 -30t-21 -68
l-8 -21q-18 -48 -30.5 -111t-12.5 -100q0 -21 4.5 -27.5t15.5 -9.5q3 -1 13 -3.5zM324 121q26 21 33 59q24 122 24 145q0 25 -18.5 42t-47.5 17q-38 0 -69 -28.5t-48 -72.5t-17 -88q0 -45 20 -70t60 -25q37 0 63 21zM179.5 583.5q-12.5 13.5 -12.5 30.5q0 24 21 45
q34 34 60.5 48t57.5 14q24 0 49 -6.5t45 -18.5q17 -10 26 -14.5t13 -4.5q7 0 15 8q13 13 23.5 18.5t22.5 5.5q18 0 32 -14t14 -33q0 -25 -24 -46q-53 -46 -102 -46q-23 0 -42 8t-41 21q-2 1 -16.5 9.5t-24.5 8.5q-6 0 -14.5 -6.5t-20.5 -17.5q-26 -23 -50 -23
q-19 0 -31.5 13.5z" />
    <glyph glyph-name="ae" unicode="&#xe6;" horiz-adv-x="930" 
d="M796.5 493.5q50.5 -24.5 80.5 -66.5t30 -92q0 -15 -3 -32q-8 -46 -31 -61.5t-63 -16.5l-300 -7l-1 -6q-2 -10 -2 -26q0 -49 26.5 -67t80.5 -18t86.5 15t63.5 51q24 28 52 28q17 0 36 -17t19 -35q0 -24 -20 -49q-41 -52 -99 -78t-138 -26q-69 0 -121.5 23.5t-68.5 68.5
q-27 -44 -80 -68t-122 -24q-104 0 -153.5 33.5t-49.5 104.5q0 185 258 191l109 3l3 14q1 3 1 9q0 26 -26.5 42t-66.5 16q-85 0 -141 -40q-34 -24 -56 -24q-15 0 -27.5 15.5t-12.5 31.5q0 12 8.5 23.5t24.5 25.5q47 41 99.5 60t114.5 19q64 0 110 -27.5t57 -73.5
q32 46 89.5 75.5t122.5 29.5q60 0 110.5 -24.5zM596 383.5q-38 -23.5 -59 -58.5l236 5l1 7q1 3 1 10q0 29 -30 44.5t-69 15.5q-42 0 -80 -23.5zM325.5 122.5q30.5 23.5 39.5 77.5l2 14l-90 -3q-57 -1 -85.5 -21t-28.5 -52q0 -20 17.5 -29.5t55.5 -9.5q59 0 89.5 23.5z" />
    <glyph glyph-name="aeacute" unicode="&#x1fd;" horiz-adv-x="930" 
d="M796.5 493.5q50.5 -24.5 80.5 -66.5t30 -92q0 -15 -3 -32q-8 -46 -31 -61.5t-63 -16.5l-300 -7l-1 -6q-2 -10 -2 -26q0 -49 26.5 -67t80.5 -18t86.5 15t63.5 51q24 28 52 28q17 0 36 -17t19 -35q0 -24 -20 -49q-41 -52 -99 -78t-138 -26q-69 0 -121.5 23.5t-68.5 68.5
q-27 -44 -80 -68t-122 -24q-104 0 -153.5 33.5t-49.5 104.5q0 185 258 191l109 3l3 14q1 3 1 9q0 26 -26.5 42t-66.5 16q-85 0 -141 -40q-34 -24 -56 -24q-15 0 -27.5 15.5t-12.5 31.5q0 12 8.5 23.5t24.5 25.5q47 41 99.5 60t114.5 19q64 0 110 -27.5t57 -73.5
q32 46 89.5 75.5t122.5 29.5q60 0 110.5 -24.5zM596 383.5q-38 -23.5 -59 -58.5l236 5l1 7q1 3 1 10q0 29 -30 44.5t-69 15.5q-42 0 -80 -23.5zM325.5 122.5q30.5 23.5 39.5 77.5l2 14l-90 -3q-57 -1 -85.5 -21t-28.5 -52q0 -20 17.5 -29.5t55.5 -9.5q59 0 89.5 23.5z
M442.5 573q-11.5 12 -11.5 31q0 27 23 50l106 106q17 17 32 24.5t32 7.5q21 0 33.5 -12.5t12.5 -32.5q0 -33 -37 -66l-105 -94q-16 -15 -28 -20.5t-27 -5.5q-19 0 -30.5 12z" />
    <glyph glyph-name="b" unicode="b" horiz-adv-x="636" 
d="M495.5 486q50.5 -28 79.5 -77.5t29 -111.5q0 -85 -39.5 -153t-109 -106.5t-156.5 -38.5q-43 1 -90.5 20t-62.5 40q-14 -15 -31.5 -26.5t-28.5 -16.5q-19 -9 -31 -9q-23 0 -39 16t-16 37q0 26 24 47q17 14 21 20q8 11 17.5 62t29.5 188q22 150 72 435q5 27 29.5 43
t55.5 16q29 0 46.5 -14t13.5 -38q-3 -26 -25 -160l-29 -184q21 17 54 28t75 11q61 0 111.5 -28zM379 137.5q36 26.5 57.5 69.5t21.5 90q0 51 -27 78.5t-75 27.5q-40 0 -72 -17.5t-50 -37.5l-12 -69q-6 -37 -12 -86q-5 -32 21.5 -57t68.5 -25q43 0 79 26.5z" />
    <glyph glyph-name="c" unicode="c" horiz-adv-x="598" 
d="M154 26.5q-54 27.5 -85.5 75.5t-31.5 107q0 85 38 155t106 110.5t152 40.5q55 0 109 -21.5t88 -59t34 -81.5q0 -29 -23.5 -43.5t-55.5 -14.5q-21 0 -32 11.5t-20 33.5q-8 22 -32.5 43t-58.5 21q-44 0 -80.5 -28t-57.5 -73t-21 -94q0 -47 26.5 -73t79.5 -26q41 0 71.5 15
t46.5 39t16 48q0 16 20.5 29.5t48.5 13.5q30 0 45.5 -9.5t15.5 -33.5q0 -62 -37 -110.5t-100.5 -75.5t-141.5 -27q-66 0 -120 27.5z" />
    <glyph glyph-name="cacute" unicode="&#x107;" horiz-adv-x="598" 
d="M154 26.5q-54 27.5 -85.5 75.5t-31.5 107q0 85 38 155t106 110.5t152 40.5q55 0 109 -21.5t88 -59t34 -81.5q0 -29 -23.5 -43.5t-55.5 -14.5q-21 0 -32 11.5t-20 33.5q-8 22 -32.5 43t-58.5 21q-44 0 -80.5 -28t-57.5 -73t-21 -94q0 -47 26.5 -73t79.5 -26q41 0 71.5 15
t46.5 39t16 48q0 16 20.5 29.5t48.5 13.5q30 0 45.5 -9.5t15.5 -33.5q0 -62 -37 -110.5t-100.5 -75.5t-141.5 -27q-66 0 -120 27.5zM284 575.5q-13 15.5 -13 34.5q0 27 29 49l103 78q26 19 38 26t26 7q20 0 32.5 -15t12.5 -36q0 -33 -34 -56l-110 -79q-21 -15 -30 -19.5
t-22 -4.5q-19 0 -32 15.5z" />
    <glyph glyph-name="ccaron" unicode="&#x10d;" horiz-adv-x="598" 
d="M154 26.5q-54 27.5 -85.5 75.5t-31.5 107q0 85 38 155t106 110.5t152 40.5q55 0 109 -21.5t88 -59t34 -81.5q0 -29 -23.5 -43.5t-55.5 -14.5q-21 0 -32 11.5t-20 33.5q-8 22 -32.5 43t-58.5 21q-44 0 -80.5 -28t-57.5 -73t-21 -94q0 -47 26.5 -73t79.5 -26q41 0 71.5 15
t46.5 39t16 48q0 16 20.5 29.5t48.5 13.5q30 0 45.5 -9.5t15.5 -33.5q0 -62 -37 -110.5t-100.5 -75.5t-141.5 -27q-66 0 -120 27.5zM547.5 773q11.5 -12 11.5 -30q0 -13 -5.5 -23.5t-16.5 -23.5l-22 -23q-57 -63 -89 -88t-72 -25q-33 0 -65 37t-69 93q-10 14 -10 30
q0 23 20.5 41.5t44.5 18.5q13 0 22 -6t21 -21q13 -17 34 -47q9 -14 16.5 -23t10.5 -9t13 10.5t24 24.5q21 24 52 55q20 21 49 21q19 0 30.5 -12z" />
    <glyph glyph-name="ccedilla" unicode="&#xe7;" horiz-adv-x="598" 
d="M537.5 245.5q15.5 -9.5 15.5 -33.5q0 -58 -32.5 -104.5t-89.5 -74.5t-128 -33l-49 -57q71 -19 71 -66q0 -46 -41.5 -76t-99.5 -30q-42 0 -74 15q-15 7 -22 13.5t-7 16.5q0 18 12.5 31t32.5 13q11 0 32 -7q28 -8 43 -8q21 0 31.5 7t10.5 16q0 18 -48 26q-17 3 -26.5 12.5
t-9.5 23.5q0 9 7 25l42 52q-76 18 -123.5 73.5t-47.5 128.5q0 85 38 155t106 110.5t152 40.5q55 0 109 -21.5t88 -59t34 -81.5q0 -29 -23.5 -43.5t-55.5 -14.5q-21 0 -32 11.5t-20 33.5q-8 22 -32.5 43t-58.5 21q-44 0 -80.5 -28t-57.5 -73t-21 -94q0 -47 26.5 -73t79.5 -26
q41 0 71.5 15t46.5 39t16 48q0 16 20.5 29.5t48.5 13.5q30 0 45.5 -9.5z" />
    <glyph glyph-name="ccircumflex" unicode="&#x109;" horiz-adv-x="598" 
d="M154 26.5q-54 27.5 -85.5 75.5t-31.5 107q0 85 38 155t106 110.5t152 40.5q55 0 109 -21.5t88 -59t34 -81.5q0 -29 -23.5 -43.5t-55.5 -14.5q-21 0 -32 11.5t-20 33.5q-8 22 -32.5 43t-58.5 21q-44 0 -80.5 -28t-57.5 -73t-21 -94q0 -47 26.5 -73t79.5 -26q41 0 71.5 15
t46.5 39t16 48q0 16 20.5 29.5t48.5 13.5q30 0 45.5 -9.5t15.5 -33.5q0 -62 -37 -110.5t-100.5 -75.5t-141.5 -27q-66 0 -120 27.5zM434 571q-12 19 -34 57q-3 4 -11.5 18.5t-11.5 14.5q-5 0 -41 -34l-48 -45q-17 -15 -28.5 -21t-24.5 -6q-20 0 -33 12.5t-13 31.5q0 10 6 23
t17 23l32 29q50 47 86 74t62 27q30 0 47 -16t42 -55q5 -7 18.5 -27.5t27.5 -37.5q9 -13 9 -27q0 -25 -18 -43.5t-42 -18.5q-29 0 -42 21z" />
    <glyph glyph-name="cdotaccent" unicode="&#x10b;" horiz-adv-x="598" 
d="M154 26.5q-54 27.5 -85.5 75.5t-31.5 107q0 85 38 155t106 110.5t152 40.5q55 0 109 -21.5t88 -59t34 -81.5q0 -29 -23.5 -43.5t-55.5 -14.5q-21 0 -32 11.5t-20 33.5q-8 22 -32.5 43t-58.5 21q-44 0 -80.5 -28t-57.5 -73t-21 -94q0 -47 26.5 -73t79.5 -26q41 0 71.5 15
t46.5 39t16 48q0 16 20.5 29.5t48.5 13.5q30 0 45.5 -9.5t15.5 -33.5q0 -62 -37 -110.5t-100.5 -75.5t-141.5 -27q-66 0 -120 27.5zM311 578q-19 19 -19 48q0 34 29 61t64 27q27 0 46 -18.5t19 -44.5q0 -35 -28.5 -63.5t-63.5 -28.5q-28 0 -47 19z" />
    <glyph glyph-name="d" unicode="d" horiz-adv-x="633" 
d="M151 10.5q-52 22.5 -83 69.5t-31 115q0 83 37 156.5t104.5 118.5t153.5 45q43 0 82 -9.5t58 -23.5l63 312q4 23 27.5 38t53.5 15q29 0 48 -14t15 -35l-111 -577q-11 -59 -11 -96q0 -17 3.5 -25.5t10.5 -16.5q3 -4 5.5 -9t2.5 -12q0 -17 -15 -34t-37.5 -27.5t-44.5 -10.5
q-27 0 -47.5 18.5t-28.5 50.5q-26 -28 -43.5 -42t-40.5 -21.5t-57 -7.5q-62 0 -114 22.5zM373.5 136.5q36.5 34.5 43.5 77.5l26 149q-8 14 -39 27.5t-64 13.5q-46 0 -81.5 -28.5t-55 -72.5t-19.5 -90q0 -55 30 -83t73 -28q50 0 86.5 34.5z" />
    <glyph glyph-name="eth" unicode="&#xf0;" horiz-adv-x="607" 
d="M558.5 454q15.5 -60 15.5 -118q0 -97 -38 -173t-107 -119t-160 -43q-66 0 -119 27t-82.5 74t-29.5 105q0 81 39.5 146t107 102t146.5 37q34 0 61 -7q-5 9 -17 25q-13 18 -25 30l-51 -26q-9 -4 -23 -8.5t-27 -4.5q-19 0 -33 14.5t-14 34.5q0 28 36 46l23 12l-11 6
q-18 9 -25.5 17t-7.5 22q0 29 21.5 51.5t49.5 22.5q24 0 57 -18q38 -20 53 -30l76 40q8 4 20 4q20 0 36 -15t16 -40q0 -18 -8.5 -27t-32.5 -22l-24 -12q17 -20 32 -44q30 -49 45.5 -109zM383.5 170.5q38.5 56.5 44.5 143.5q-31 67 -98 67q-42 0 -76 -23.5t-52.5 -61.5
t-18.5 -80q0 -46 25 -74t70 -28q67 0 105.5 56.5z" />
    <glyph glyph-name="dcaron" unicode="&#x10f;" horiz-adv-x="817" 
d="M151 10.5q-52 22.5 -83 69.5t-31 115q0 83 37 156.5t104.5 118.5t153.5 45q43 0 82 -9.5t58 -23.5l63 312q4 23 27.5 38t53.5 15q29 0 48 -14t15 -35l-111 -577q-11 -59 -11 -96q0 -17 3.5 -25.5t10.5 -16.5q3 -4 5.5 -9t2.5 -12q0 -17 -15 -34t-37.5 -27.5t-44.5 -10.5
q-27 0 -47.5 18.5t-28.5 50.5q-26 -28 -43.5 -42t-40.5 -21.5t-57 -7.5q-62 0 -114 22.5zM373.5 136.5q36.5 34.5 43.5 77.5l26 149q-8 14 -39 27.5t-64 13.5q-46 0 -81.5 -28.5t-55 -72.5t-19.5 -90q0 -55 30 -83t73 -28q50 0 86.5 34.5zM877 825q21 -18 21 -49
q0 -42 -37.5 -91.5t-85.5 -83.5q-17 -11 -30 -11q-17 0 -29.5 12t-12.5 26q0 16 17 33q6 6 20 17.5t22 20.5q-13 5 -22 19t-9 30q0 38 28.5 66.5t65.5 28.5q31 0 52 -18z" />
    <glyph glyph-name="dcroat" unicode="&#x111;" horiz-adv-x="700" 
d="M737 724.5q14 -11.5 14 -31.5q0 -27 -21 -46.5t-50 -20.5l-34 -1l-78 -404q-11 -59 -11 -96q0 -17 3.5 -25.5t10.5 -16.5q3 -4 5.5 -9t2.5 -12q0 -17 -15 -34t-37.5 -27.5t-44.5 -10.5q-27 0 -47.5 18.5t-28.5 50.5q-26 -28 -43.5 -42t-40.5 -21.5t-57 -7.5
q-62 0 -114 22.5t-83 69.5t-31 115q0 83 37 156.5t104.5 118.5t153.5 45q43 0 82 -9.5t58 -23.5l28 141l-47 -1q-23 -1 -36.5 11t-13.5 32q0 28 19.5 45.5t48.5 18.5l51 1l13 64q4 23 27.5 38t53.5 15q29 0 48 -14t15 -35l-12 -64l31 1q25 1 39 -10.5zM443 363
q-8 14 -39 27.5t-64 13.5q-46 0 -81.5 -28.5t-55 -72.5t-19.5 -90q0 -55 30 -83t73 -28q50 0 86.5 34.5t43.5 77.5z" />
    <glyph glyph-name="uni1E0D" unicode="&#x1e0d;" horiz-adv-x="633" 
d="M151 10.5q-52 22.5 -83 69.5t-31 115q0 83 37 156.5t104.5 118.5t153.5 45q43 0 82 -9.5t58 -23.5l63 312q4 23 27.5 38t53.5 15q29 0 48 -14t15 -35l-111 -577q-11 -59 -11 -96q0 -17 3.5 -25.5t10.5 -16.5q3 -4 5.5 -9t2.5 -12q0 -17 -15 -34t-37.5 -27.5t-44.5 -10.5
q-27 0 -47.5 18.5t-28.5 50.5q-26 -28 -43.5 -42t-40.5 -21.5t-57 -7.5q-62 0 -114 22.5zM373.5 136.5q36.5 34.5 43.5 77.5l26 149q-8 14 -39 27.5t-64 13.5q-46 0 -81.5 -28.5t-55 -72.5t-19.5 -90q0 -55 30 -83t73 -28q50 0 86.5 34.5zM179.5 -197.5
q-17.5 17.5 -17.5 45.5q0 39 27.5 65.5t65.5 26.5q30 0 47.5 -17t17.5 -44q0 -40 -27.5 -67t-65.5 -27q-30 0 -47.5 17.5z" />
    <glyph glyph-name="uni1E0F" unicode="&#x1e0f;" horiz-adv-x="633" 
d="M151 10.5q-52 22.5 -83 69.5t-31 115q0 83 37 156.5t104.5 118.5t153.5 45q43 0 82 -9.5t58 -23.5l63 312q4 23 27.5 38t53.5 15q29 0 48 -14t15 -35l-111 -577q-11 -59 -11 -96q0 -17 3.5 -25.5t10.5 -16.5q3 -4 5.5 -9t2.5 -12q0 -17 -15 -34t-37.5 -27.5t-44.5 -10.5
q-27 0 -47.5 18.5t-28.5 50.5q-26 -28 -43.5 -42t-40.5 -21.5t-57 -7.5q-62 0 -114 22.5zM373.5 136.5q36.5 34.5 43.5 77.5l26 149q-8 14 -39 27.5t-64 13.5q-46 0 -81.5 -28.5t-55 -72.5t-19.5 -90q0 -55 30 -83t73 -28q50 0 86.5 34.5zM67.5 -187.5
q-11.5 12.5 -11.5 32.5q0 24 16 43t39 21q75 9 188 9q37 0 75 -2q11 -1 27 -1q22 0 35 -12t13 -32q0 -27 -19.5 -45.5t-46.5 -18.5l-28 1q-54 3 -76 3q-47 0 -140 -8q-29 -3 -41 -3q-19 0 -30.5 12.5z" />
    <glyph glyph-name="e" unicode="e" horiz-adv-x="596" 
d="M154 19.5q-56 29.5 -86 81.5t-30 118q0 80 38.5 148t105.5 108t150 40q61 0 115 -22.5t88 -68t34 -111.5q0 -101 -86 -101l-323 -2l-1 -11q0 -41 34.5 -67.5t91.5 -26.5q43 0 72 13.5t58 36.5q23 17 42 17q21 0 37.5 -14.5t16.5 -34.5t-19 -43q-28 -34 -78 -62t-129 -28
q-75 0 -131 29.5zM426 302q17 0 22 3.5t5 15.5q0 44 -33.5 65t-80.5 21q-45 0 -81 -17.5t-57 -42.5t-25 -47z" />
    <glyph glyph-name="eacute" unicode="&#xe9;" horiz-adv-x="596" 
d="M154 19.5q-56 29.5 -86 81.5t-30 118q0 80 38.5 148t105.5 108t150 40q61 0 115 -22.5t88 -68t34 -111.5q0 -101 -86 -101l-323 -2l-1 -11q0 -41 34.5 -67.5t91.5 -26.5q43 0 72 13.5t58 36.5q23 17 42 17q21 0 37.5 -14.5t16.5 -34.5t-19 -43q-28 -34 -78 -62t-129 -28
q-75 0 -131 29.5zM426 302q17 0 22 3.5t5 15.5q0 44 -33.5 65t-80.5 21q-45 0 -81 -17.5t-57 -42.5t-25 -47zM287.5 573q-11.5 12 -11.5 31q0 27 23 50l106 106q17 17 32 24.5t32 7.5q21 0 33.5 -12.5t12.5 -32.5q0 -33 -37 -66l-105 -94q-16 -15 -28 -20.5t-27 -5.5
q-19 0 -30.5 12z" />
    <glyph glyph-name="ebreve" unicode="&#x115;" horiz-adv-x="596" 
d="M154 19.5q-56 29.5 -86 81.5t-30 118q0 80 38.5 148t105.5 108t150 40q61 0 115 -22.5t88 -68t34 -111.5q0 -101 -86 -101l-323 -2l-1 -11q0 -41 34.5 -67.5t91.5 -26.5q43 0 72 13.5t58 36.5q23 17 42 17q21 0 37.5 -14.5t16.5 -34.5t-19 -43q-28 -34 -78 -62t-129 -28
q-75 0 -131 29.5zM426 302q17 0 22 3.5t5 15.5q0 44 -33.5 65t-80.5 21q-45 0 -81 -17.5t-57 -42.5t-25 -47zM288 565.5q-38 16.5 -59.5 46.5t-21.5 67q0 24 10 44q19 33 54 33q18 0 31 -8.5t13 -23.5v-13q3 -70 65 -70q29 0 54 20t33 59q4 19 21 29t37 10q19 0 32 -12.5
t13 -30.5q0 -42 -29 -81t-75.5 -62.5t-93.5 -23.5q-46 0 -84 16.5z" />
    <glyph glyph-name="ecaron" unicode="&#x11b;" horiz-adv-x="596" 
d="M154 19.5q-56 29.5 -86 81.5t-30 118q0 80 38.5 148t105.5 108t150 40q61 0 115 -22.5t88 -68t34 -111.5q0 -101 -86 -101l-323 -2l-1 -11q0 -41 34.5 -67.5t91.5 -26.5q43 0 72 13.5t58 36.5q23 17 42 17q21 0 37.5 -14.5t16.5 -34.5t-19 -43q-28 -34 -78 -62t-129 -28
q-75 0 -131 29.5zM426 302q17 0 22 3.5t5 15.5q0 44 -33.5 65t-80.5 21q-45 0 -81 -17.5t-57 -42.5t-25 -47zM555.5 773q11.5 -12 11.5 -30q0 -13 -5.5 -23.5t-16.5 -23.5l-22 -23q-57 -63 -89 -88t-72 -25q-33 0 -65 37t-69 93q-10 14 -10 30q0 23 20.5 41.5t44.5 18.5
q13 0 22 -6t21 -21q13 -17 34 -47q9 -14 16.5 -23t10.5 -9t13 10.5t24 24.5q21 24 52 55q20 21 49 21q19 0 30.5 -12z" />
    <glyph glyph-name="ecircumflex" unicode="&#xea;" horiz-adv-x="596" 
d="M154 19.5q-56 29.5 -86 81.5t-30 118q0 80 38.5 148t105.5 108t150 40q61 0 115 -22.5t88 -68t34 -111.5q0 -101 -86 -101l-323 -2l-1 -11q0 -41 34.5 -67.5t91.5 -26.5q43 0 72 13.5t58 36.5q23 17 42 17q21 0 37.5 -14.5t16.5 -34.5t-19 -43q-28 -34 -78 -62t-129 -28
q-75 0 -131 29.5zM426 302q17 0 22 3.5t5 15.5q0 44 -33.5 65t-80.5 21q-45 0 -81 -17.5t-57 -42.5t-25 -47zM442 571q-12 19 -34 57q-3 4 -11.5 18.5t-11.5 14.5q-5 0 -41 -34l-48 -45q-17 -15 -28.5 -21t-24.5 -6q-20 0 -33 12.5t-13 31.5q0 10 6 23t17 23l32 29
q50 47 86 74t62 27q30 0 47 -16t42 -55q5 -7 18.5 -27.5t27.5 -37.5q9 -13 9 -27q0 -25 -18 -43.5t-42 -18.5q-29 0 -42 21z" />
    <glyph glyph-name="uni1EBF" unicode="&#x1ebf;" horiz-adv-x="596" 
d="M154 19.5q-56 29.5 -86 81.5t-30 118q0 80 38.5 148t105.5 108t150 40q61 0 115 -22.5t88 -68t34 -111.5q0 -101 -86 -101l-323 -2l-1 -11q0 -41 34.5 -67.5t91.5 -26.5q43 0 72 13.5t58 36.5q23 17 42 17q21 0 37.5 -14.5t16.5 -34.5t-19 -43q-28 -34 -78 -62t-129 -28
q-75 0 -131 29.5zM426 302q17 0 22 3.5t5 15.5q0 44 -33.5 65t-80.5 21q-45 0 -81 -17.5t-57 -42.5t-25 -47zM524.5 754.5q-11.5 12.5 -11.5 30.5q0 27 28 53l42 40q18 17 32 24.5t29 7.5q20 0 32 -12t12 -31t-10 -34.5t-23 -25.5l-49 -41q-28 -24 -52 -24q-18 0 -29.5 12.5
zM443 572q-12 19 -34 57q-3 4 -11.5 18.5t-11.5 14.5q-5 0 -41 -34l-48 -45q-17 -15 -28.5 -21t-24.5 -6q-20 0 -33 12.5t-13 31.5q0 10 6 23t17 23l32 29q50 47 86 74t62 27q30 0 47 -16t42 -55q5 -7 18.5 -27.5t27.5 -37.5q9 -13 9 -27q0 -25 -18 -43.5t-42 -18.5
q-29 0 -42 21z" />
    <glyph glyph-name="uni1EC7" unicode="&#x1ec7;" horiz-adv-x="596" 
d="M154 19.5q-56 29.5 -86 81.5t-30 118q0 80 38.5 148t105.5 108t150 40q61 0 115 -22.5t88 -68t34 -111.5q0 -101 -86 -101l-323 -2l-1 -11q0 -41 34.5 -67.5t91.5 -26.5q43 0 72 13.5t58 36.5q23 17 42 17q21 0 37.5 -14.5t16.5 -34.5t-19 -43q-28 -34 -78 -62t-129 -28
q-75 0 -131 29.5zM426 302q17 0 22 3.5t5 15.5q0 44 -33.5 65t-80.5 21q-45 0 -81 -17.5t-57 -42.5t-25 -47zM178.5 -197.5q-17.5 17.5 -17.5 45.5q0 39 27.5 65.5t65.5 26.5q30 0 47.5 -17t17.5 -44q0 -40 -27.5 -67t-65.5 -27q-30 0 -47.5 17.5zM442 571q-12 19 -34 57
q-3 4 -11.5 18.5t-11.5 14.5q-5 0 -41 -34l-48 -45q-17 -15 -28.5 -21t-24.5 -6q-20 0 -33 12.5t-13 31.5q0 10 6 23t17 23l32 29q50 47 86 74t62 27q30 0 47 -16t42 -55q5 -7 18.5 -27.5t27.5 -37.5q9 -13 9 -27q0 -25 -18 -43.5t-42 -18.5q-29 0 -42 21z" />
    <glyph glyph-name="uni1EC1" unicode="&#x1ec1;" horiz-adv-x="596" 
d="M154 19.5q-56 29.5 -86 81.5t-30 118q0 80 38.5 148t105.5 108t150 40q61 0 115 -22.5t88 -68t34 -111.5q0 -101 -86 -101l-323 -2l-1 -11q0 -41 34.5 -67.5t91.5 -26.5q43 0 72 13.5t58 36.5q23 17 42 17q21 0 37.5 -14.5t16.5 -34.5t-19 -43q-28 -34 -78 -62t-129 -28
q-75 0 -131 29.5zM426 302q17 0 22 3.5t5 15.5q0 44 -33.5 65t-80.5 21q-45 0 -81 -17.5t-57 -42.5t-25 -47zM515 766l-34 41q-16 18 -16 40q0 26 19 44.5t44 18.5q28 0 50 -32l28 -40q12 -17 12 -37q0 -24 -18 -41.5t-41 -17.5q-24 0 -44 24zM443 572q-12 19 -34 57
q-3 4 -11.5 18.5t-11.5 14.5q-5 0 -41 -34l-48 -45q-17 -15 -28.5 -21t-24.5 -6q-20 0 -33 12.5t-13 31.5q0 10 6 23t17 23l32 29q50 47 86 74t62 27q30 0 47 -16t42 -55q5 -7 18.5 -27.5t27.5 -37.5q9 -13 9 -27q0 -25 -18 -43.5t-42 -18.5q-29 0 -42 21z" />
    <glyph glyph-name="uni1EC3" unicode="&#x1ec3;" horiz-adv-x="596" 
d="M154 19.5q-56 29.5 -86 81.5t-30 118q0 80 38.5 148t105.5 108t150 40q61 0 115 -22.5t88 -68t34 -111.5q0 -101 -86 -101l-323 -2l-1 -11q0 -41 34.5 -67.5t91.5 -26.5q43 0 72 13.5t58 36.5q23 17 42 17q21 0 37.5 -14.5t16.5 -34.5t-19 -43q-28 -34 -78 -62t-129 -28
q-75 0 -131 29.5zM426 302q17 0 22 3.5t5 15.5q0 44 -33.5 65t-80.5 21q-45 0 -81 -17.5t-57 -42.5t-25 -47zM537.5 752.5q-10.5 9.5 -10.5 22.5q0 11 5 33q1 7 10.5 14.5t19.5 14.5q16 10 25 19t9 18q0 7 -5 12.5t-16 5.5q-31 0 -38 -20q-4 -11 -14 -17t-20 -6
q-13 0 -19.5 8t-6.5 20q0 36 34.5 59.5t77.5 23.5q37 0 62.5 -18.5t25.5 -49.5q0 -20 -11 -34.5t-30 -30.5q-8 -6 -14 -12.5t-7 -11.5l-4 -24q-2 -17 -16.5 -26.5t-32.5 -9.5q-14 0 -24.5 9.5zM443 572q-12 19 -34 57q-3 4 -11.5 18.5t-11.5 14.5q-5 0 -41 -34l-48 -45
q-17 -15 -28.5 -21t-24.5 -6q-20 0 -33 12.5t-13 31.5q0 10 6 23t17 23l32 29q50 47 86 74t62 27q30 0 47 -16t42 -55q5 -7 18.5 -27.5t27.5 -37.5q9 -13 9 -27q0 -25 -18 -43.5t-42 -18.5q-29 0 -42 21z" />
    <glyph glyph-name="uni1EC5" unicode="&#x1ec5;" horiz-adv-x="596" 
d="M154 19.5q-56 29.5 -86 81.5t-30 118q0 80 38.5 148t105.5 108t150 40q61 0 115 -22.5t88 -68t34 -111.5q0 -101 -86 -101l-323 -2l-1 -11q0 -41 34.5 -67.5t91.5 -26.5q43 0 72 13.5t58 36.5q23 17 42 17q21 0 37.5 -14.5t16.5 -34.5t-19 -43q-28 -34 -78 -62t-129 -28
q-75 0 -131 29.5zM426 302q17 0 22 3.5t5 15.5q0 44 -33.5 65t-80.5 21q-45 0 -81 -17.5t-57 -42.5t-25 -47zM246.5 827q-11.5 11 -11.5 27q0 21 22 40q33 28 56.5 38.5t54.5 10.5q43 0 85 -21q11 -6 25 -11t22 -5q11 0 22 7q7 4 16 10.5t15.5 9.5t14.5 3q17 0 29.5 -13
t12.5 -29q0 -11 -6 -21.5t-16 -17.5q-58 -39 -101 -39q-19 0 -36 5.5t-30 11.5t-18 8q-7 3 -19.5 9t-20.5 6q-7 0 -15.5 -4.5t-22.5 -15.5q-25 -20 -47 -20q-20 0 -31.5 11zM443 572q-12 19 -34 57q-3 4 -11.5 18.5t-11.5 14.5q-5 0 -41 -34l-48 -45q-17 -15 -28.5 -21
t-24.5 -6q-20 0 -33 12.5t-13 31.5q0 10 6 23t17 23l32 29q50 47 86 74t62 27q30 0 47 -16t42 -55q5 -7 18.5 -27.5t27.5 -37.5q9 -13 9 -27q0 -25 -18 -43.5t-42 -18.5q-29 0 -42 21z" />
    <glyph glyph-name="edieresis" unicode="&#xeb;" horiz-adv-x="596" 
d="M154 19.5q-56 29.5 -86 81.5t-30 118q0 80 38.5 148t105.5 108t150 40q61 0 115 -22.5t88 -68t34 -111.5q0 -101 -86 -101l-323 -2l-1 -11q0 -41 34.5 -67.5t91.5 -26.5q43 0 72 13.5t58 36.5q23 17 42 17q21 0 37.5 -14.5t16.5 -34.5t-19 -43q-28 -34 -78 -62t-129 -28
q-75 0 -131 29.5zM426 302q17 0 22 3.5t5 15.5q0 44 -33.5 65t-80.5 21q-45 0 -81 -17.5t-57 -42.5t-25 -47zM180.5 579q-18.5 19 -18.5 46q0 35 28.5 62.5t63.5 27.5q28 0 47.5 -19.5t19.5 -45.5q0 -34 -29.5 -62t-64.5 -28q-28 0 -46.5 19zM456.5 579q-18.5 19 -18.5 46
q0 35 28.5 62.5t63.5 27.5q28 0 47 -19t19 -46q0 -34 -29 -62t-64 -28q-28 0 -46.5 19z" />
    <glyph glyph-name="edotaccent" unicode="&#x117;" horiz-adv-x="596" 
d="M154 19.5q-56 29.5 -86 81.5t-30 118q0 80 38.5 148t105.5 108t150 40q61 0 115 -22.5t88 -68t34 -111.5q0 -101 -86 -101l-323 -2l-1 -11q0 -41 34.5 -67.5t91.5 -26.5q43 0 72 13.5t58 36.5q23 17 42 17q21 0 37.5 -14.5t16.5 -34.5t-19 -43q-28 -34 -78 -62t-129 -28
q-75 0 -131 29.5zM426 302q17 0 22 3.5t5 15.5q0 44 -33.5 65t-80.5 21q-45 0 -81 -17.5t-57 -42.5t-25 -47zM319 578q-19 19 -19 48q0 34 29 61t64 27q27 0 46 -18.5t19 -44.5q0 -35 -28.5 -63.5t-63.5 -28.5q-28 0 -47 19z" />
    <glyph glyph-name="uni1EB9" unicode="&#x1eb9;" horiz-adv-x="596" 
d="M154 19.5q-56 29.5 -86 81.5t-30 118q0 80 38.5 148t105.5 108t150 40q61 0 115 -22.5t88 -68t34 -111.5q0 -101 -86 -101l-323 -2l-1 -11q0 -41 34.5 -67.5t91.5 -26.5q43 0 72 13.5t58 36.5q23 17 42 17q21 0 37.5 -14.5t16.5 -34.5t-19 -43q-28 -34 -78 -62t-129 -28
q-75 0 -131 29.5zM426 302q17 0 22 3.5t5 15.5q0 44 -33.5 65t-80.5 21q-45 0 -81 -17.5t-57 -42.5t-25 -47zM178.5 -197.5q-17.5 17.5 -17.5 45.5q0 39 27.5 65.5t65.5 26.5q30 0 47.5 -17t17.5 -44q0 -40 -27.5 -67t-65.5 -27q-30 0 -47.5 17.5z" />
    <glyph glyph-name="egrave" unicode="&#xe8;" horiz-adv-x="596" 
d="M154 19.5q-56 29.5 -86 81.5t-30 118q0 80 38.5 148t105.5 108t150 40q61 0 115 -22.5t88 -68t34 -111.5q0 -101 -86 -101l-323 -2l-1 -11q0 -41 34.5 -67.5t91.5 -26.5q43 0 72 13.5t58 36.5q23 17 42 17q21 0 37.5 -14.5t16.5 -34.5t-19 -43q-28 -34 -78 -62t-129 -28
q-75 0 -131 29.5zM426 302q17 0 22 3.5t5 15.5q0 44 -33.5 65t-80.5 21q-45 0 -81 -17.5t-57 -42.5t-25 -47zM372 555.5q-10 5.5 -20 18.5l-64 86q-15 20 -15 42q0 25 19 43t44 18q15 0 26.5 -7.5t22.5 -24.5l58 -85q12 -19 12 -37q0 -24 -18 -41.5t-41 -17.5q-14 0 -24 5.5
z" />
    <glyph glyph-name="uni1EBB" unicode="&#x1ebb;" horiz-adv-x="596" 
d="M154 19.5q-56 29.5 -86 81.5t-30 118q0 80 38.5 148t105.5 108t150 40q61 0 115 -22.5t88 -68t34 -111.5q0 -101 -86 -101l-323 -2l-1 -11q0 -41 34.5 -67.5t91.5 -26.5q43 0 72 13.5t58 36.5q23 17 42 17q21 0 37.5 -14.5t16.5 -34.5t-19 -43q-28 -34 -78 -62t-129 -28
q-75 0 -131 29.5zM426 302q17 0 22 3.5t5 15.5q0 44 -33.5 65t-80.5 21q-45 0 -81 -17.5t-57 -42.5t-25 -47zM320.5 562.5q-14.5 13.5 -11.5 32.5l9 50q2 11 12 19.5t29 20.5q22 14 34 25t12 26q0 11 -7.5 20t-22.5 9q-18 0 -30 -8t-25 -25q-22 -29 -47 -29
q-15 0 -25.5 11.5t-10.5 23.5q0 18 17 40q30 39 63.5 57.5t77.5 18.5q54 0 90 -26.5t36 -68.5q0 -32 -15 -51t-43 -38q-11 -8 -20 -16t-12 -16l-6 -41q-4 -24 -22.5 -36t-45.5 -12q-22 0 -36.5 13.5z" />
    <glyph glyph-name="emacron" unicode="&#x113;" horiz-adv-x="596" 
d="M154 19.5q-56 29.5 -86 81.5t-30 118q0 80 38.5 148t105.5 108t150 40q61 0 115 -22.5t88 -68t34 -111.5q0 -101 -86 -101l-323 -2l-1 -11q0 -41 34.5 -67.5t91.5 -26.5q43 0 72 13.5t58 36.5q23 17 42 17q21 0 37.5 -14.5t16.5 -34.5t-19 -43q-28 -34 -78 -62t-129 -28
q-75 0 -131 29.5zM426 302q17 0 22 3.5t5 15.5q0 44 -33.5 65t-80.5 21q-45 0 -81 -17.5t-57 -42.5t-25 -47zM170 589q-10 12 -10 31q0 29 16.5 46.5t44.5 22.5q40 7 77.5 11t91.5 4l147 1q22 0 34.5 -13t12.5 -34q0 -28 -18.5 -46t-47.5 -18l-43 1q-38 3 -86 3
q-54 0 -98 -5t-93 -13q-18 -3 -28 9z" />
    <glyph glyph-name="eogonek" unicode="&#x119;" horiz-adv-x="596" 
d="M160 210l-1 -11q0 -41 34.5 -67.5t91.5 -26.5q43 0 72 13.5t58 36.5q23 17 42 17q21 0 37.5 -14.5t16.5 -34.5t-19 -43q-25 -31 -62 -53q-25 -22 -25 -40q0 -10 7 -13.5t20 -3.5q5 0 21 4q15 5 23 5q10 0 17 -7.5t7 -21.5q0 -34 -23 -52.5t-64 -18.5q-49 0 -78 26t-29 66
q0 6 2 20q-8 -1 -23 -1q-75 0 -131 29.5t-86 81.5t-30 118q0 80 38.5 148t105.5 108t150 40q61 0 115 -22.5t88 -68t34 -111.5q0 -101 -86 -101zM258 389.5q-36 -17.5 -57 -42.5t-25 -47l250 2q17 0 22 3.5t5 15.5q0 44 -33.5 65t-80.5 21q-45 0 -81 -17.5z" />
    <glyph glyph-name="uni1EBD" unicode="&#x1ebd;" horiz-adv-x="596" 
d="M154 19.5q-56 29.5 -86 81.5t-30 118q0 80 38.5 148t105.5 108t150 40q61 0 115 -22.5t88 -68t34 -111.5q0 -101 -86 -101l-323 -2l-1 -11q0 -41 34.5 -67.5t91.5 -26.5q43 0 72 13.5t58 36.5q23 17 42 17q21 0 37.5 -14.5t16.5 -34.5t-19 -43q-28 -34 -78 -62t-129 -28
q-75 0 -131 29.5zM426 302q17 0 22 3.5t5 15.5q0 44 -33.5 65t-80.5 21q-45 0 -81 -17.5t-57 -42.5t-25 -47zM201.5 583.5q-12.5 13.5 -12.5 30.5q0 24 21 45q34 34 60.5 48t57.5 14q24 0 49 -6.5t45 -18.5q17 -10 26 -14.5t13 -4.5q7 0 15 8q13 13 23.5 18.5t22.5 5.5
q18 0 32 -14t14 -33q0 -25 -24 -46q-53 -46 -102 -46q-23 0 -42 8t-41 21q-2 1 -16.5 9.5t-24.5 8.5q-6 0 -14.5 -6.5t-20.5 -17.5q-26 -23 -50 -23q-19 0 -31.5 13.5z" />
    <glyph glyph-name="uni0259" unicode="&#x259;" horiz-adv-x="596" 
d="M442 480.5q56 -29.5 86 -81.5t30 -118q0 -80 -38.5 -148t-105.5 -108t-150 -40q-61 0 -115 22.5t-88 68t-34 111.5q0 101 86 101l323 2l1 11q0 41 -34.5 67.5t-91.5 26.5q-43 0 -72 -13.5t-58 -36.5q-23 -17 -42 -17q-21 0 -37.5 14.5t-16.5 34.5t19 43q28 34 78 62
t129 28q75 0 131 -29.5zM170 198q-17 0 -22 -3.5t-5 -15.5q0 -44 33.5 -65t80.5 -21q45 0 81 17.5t57 42.5t25 47z" />
    <glyph glyph-name="f" unicode="f" horiz-adv-x="428" 
d="M458.5 705.5q45.5 -34.5 45.5 -93.5q0 -17 -2 -26q-7 -42 -27 -60t-56 -18q-32 0 -48.5 12t-16.5 34q0 5 2 15q5 23 5 35q0 11 -4 16t-15 5t-17.5 -7.5t-12.5 -28t-15 -65.5l-18 -96h54q41 0 41 -42q0 -28 -16.5 -46t-44.5 -19l-51 -1q-4 -23 -19 -121l-22 -140
q-5 -28 -25.5 -43.5t-53.5 -15.5q-32 0 -50 14t-14 43q18 126 40 260h-24q-28 0 -40 10.5t-12 33.5q0 31 18 49t49 18h27l17 98q18 106 64 160t125 54q71 0 116.5 -34.5z" />
    <glyph glyph-name="g" unicode="g" horiz-adv-x="596" 
d="M548.5 516.5q22.5 -12.5 22.5 -34.5q0 -11 -5 -20q-21 -41 -27 -53q-6 -165 -10 -237l-3 -44q-1 -14 -3.5 -55t-8.5 -72q-24 -133 -96.5 -192t-192.5 -59q-58 0 -104 19t-71.5 53t-25.5 77q0 41 18 60.5t55 19.5q26 0 38.5 -9t12.5 -29q0 -75 78 -75q42 0 69.5 9t47 39
t29.5 90q2 12 4 31q-25 -18 -58 -28.5t-71 -10.5q-61 0 -109 28.5t-74.5 79t-26.5 114.5q0 76 38 142t104 105t146 39q75 0 109 -34q11 23 22 40q7 11 16 15t28 4q26 0 48.5 -12.5zM205 135q23 -30 69 -30q34 0 69.5 16t46.5 37q0 58 1 88l1 111q-8 16 -25 26t-41 10
q-40 0 -73 -26.5t-52 -68.5t-19 -86q0 -47 23 -77z" />
    <glyph glyph-name="gbreve" unicode="&#x11f;" horiz-adv-x="596" 
d="M548.5 516.5q22.5 -12.5 22.5 -34.5q0 -11 -5 -20q-21 -41 -27 -53q-6 -165 -10 -237l-3 -44q-1 -14 -3.5 -55t-8.5 -72q-24 -133 -96.5 -192t-192.5 -59q-58 0 -104 19t-71.5 53t-25.5 77q0 41 18 60.5t55 19.5q26 0 38.5 -9t12.5 -29q0 -75 78 -75q42 0 69.5 9t47 39
t29.5 90q2 12 4 31q-25 -18 -58 -28.5t-71 -10.5q-61 0 -109 28.5t-74.5 79t-26.5 114.5q0 76 38 142t104 105t146 39q75 0 109 -34q11 23 22 40q7 11 16 15t28 4q26 0 48.5 -12.5zM205 135q23 -30 69 -30q34 0 69.5 16t46.5 37q0 58 1 88l1 111q-8 16 -25 26t-41 10
q-40 0 -73 -26.5t-52 -68.5t-19 -86q0 -47 23 -77zM280 565.5q-38 16.5 -59.5 46.5t-21.5 67q0 24 10 44q19 33 54 33q18 0 31 -8.5t13 -23.5v-13q3 -70 65 -70q29 0 54 20t33 59q4 19 21 29t37 10q19 0 32 -12.5t13 -30.5q0 -42 -29 -81t-75.5 -62.5t-93.5 -23.5
q-46 0 -84 16.5z" />
    <glyph glyph-name="gcaron" unicode="&#x1e7;" horiz-adv-x="596" 
d="M548.5 516.5q22.5 -12.5 22.5 -34.5q0 -11 -5 -20q-21 -41 -27 -53q-6 -165 -10 -237l-3 -44q-1 -14 -3.5 -55t-8.5 -72q-24 -133 -96.5 -192t-192.5 -59q-58 0 -104 19t-71.5 53t-25.5 77q0 41 18 60.5t55 19.5q26 0 38.5 -9t12.5 -29q0 -75 78 -75q42 0 69.5 9t47 39
t29.5 90q2 12 4 31q-25 -18 -58 -28.5t-71 -10.5q-61 0 -109 28.5t-74.5 79t-26.5 114.5q0 76 38 142t104 105t146 39q75 0 109 -34q11 23 22 40q7 11 16 15t28 4q26 0 48.5 -12.5zM205 135q23 -30 69 -30q34 0 69.5 16t46.5 37q0 58 1 88l1 111q-8 16 -25 26t-41 10
q-40 0 -73 -26.5t-52 -68.5t-19 -86q0 -47 23 -77zM547.5 773q11.5 -12 11.5 -30q0 -13 -5.5 -23.5t-16.5 -23.5l-22 -23q-57 -63 -89 -88t-72 -25q-33 0 -65 37t-69 93q-10 14 -10 30q0 23 20.5 41.5t44.5 18.5q13 0 22 -6t21 -21q13 -17 34 -47q9 -14 16.5 -23t10.5 -9
t13 10.5t24 24.5q21 24 52 55q20 21 49 21q19 0 30.5 -12z" />
    <glyph glyph-name="gcircumflex" unicode="&#x11d;" horiz-adv-x="596" 
d="M548.5 516.5q22.5 -12.5 22.5 -34.5q0 -11 -5 -20q-21 -41 -27 -53q-6 -165 -10 -237l-3 -44q-1 -14 -3.5 -55t-8.5 -72q-24 -133 -96.5 -192t-192.5 -59q-58 0 -104 19t-71.5 53t-25.5 77q0 41 18 60.5t55 19.5q26 0 38.5 -9t12.5 -29q0 -75 78 -75q42 0 69.5 9t47 39
t29.5 90q2 12 4 31q-25 -18 -58 -28.5t-71 -10.5q-61 0 -109 28.5t-74.5 79t-26.5 114.5q0 76 38 142t104 105t146 39q75 0 109 -34q11 23 22 40q7 11 16 15t28 4q26 0 48.5 -12.5zM205 135q23 -30 69 -30q34 0 69.5 16t46.5 37q0 58 1 88l1 111q-8 16 -25 26t-41 10
q-40 0 -73 -26.5t-52 -68.5t-19 -86q0 -47 23 -77zM434 571q-12 19 -34 57q-3 4 -11.5 18.5t-11.5 14.5q-5 0 -41 -34l-48 -45q-17 -15 -28.5 -21t-24.5 -6q-20 0 -33 12.5t-13 31.5q0 10 6 23t17 23l32 29q50 47 86 74t62 27q30 0 47 -16t42 -55q5 -7 18.5 -27.5
t27.5 -37.5q9 -13 9 -27q0 -25 -18 -43.5t-42 -18.5q-29 0 -42 21z" />
    <glyph glyph-name="uni0123" unicode="&#x123;" horiz-adv-x="596" 
d="M548.5 516.5q22.5 -12.5 22.5 -34.5q0 -11 -5 -20q-21 -41 -27 -53q-6 -165 -10 -237l-3 -44q-1 -14 -3.5 -55t-8.5 -72q-24 -133 -96.5 -192t-192.5 -59q-58 0 -104 19t-71.5 53t-25.5 77q0 41 18 60.5t55 19.5q26 0 38.5 -9t12.5 -29q0 -75 78 -75q42 0 69.5 9t47 39
t29.5 90q2 12 4 31q-25 -18 -58 -28.5t-71 -10.5q-61 0 -109 28.5t-74.5 79t-26.5 114.5q0 76 38 142t104 105t146 39q75 0 109 -34q11 23 22 40q7 11 16 15t28 4q26 0 48.5 -12.5zM205 135q23 -30 69 -30q34 0 69.5 16t46.5 37q0 58 1 88l1 111q-8 16 -25 26t-41 10
q-40 0 -73 -26.5t-52 -68.5t-19 -86q0 -47 23 -77zM471 791q11 -12 11 -27q0 -10 -5.5 -19.5t-15.5 -16.5l-44 -38q17 -6 27 -19t10 -32q0 -39 -29.5 -64.5t-68.5 -25.5q-30 0 -49.5 19.5t-19.5 48.5q0 45 38 95t90 81q17 10 31 10t25 -12z" />
    <glyph glyph-name="gdotaccent" unicode="&#x121;" horiz-adv-x="596" 
d="M548.5 516.5q22.5 -12.5 22.5 -34.5q0 -11 -5 -20q-21 -41 -27 -53q-6 -165 -10 -237l-3 -44q-1 -14 -3.5 -55t-8.5 -72q-24 -133 -96.5 -192t-192.5 -59q-58 0 -104 19t-71.5 53t-25.5 77q0 41 18 60.5t55 19.5q26 0 38.5 -9t12.5 -29q0 -75 78 -75q42 0 69.5 9t47 39
t29.5 90q2 12 4 31q-25 -18 -58 -28.5t-71 -10.5q-61 0 -109 28.5t-74.5 79t-26.5 114.5q0 76 38 142t104 105t146 39q75 0 109 -34q11 23 22 40q7 11 16 15t28 4q26 0 48.5 -12.5zM205 135q23 -30 69 -30q34 0 69.5 16t46.5 37q0 58 1 88l1 111q-8 16 -25 26t-41 10
q-40 0 -73 -26.5t-52 -68.5t-19 -86q0 -47 23 -77zM311 578q-19 19 -19 48q0 34 29 61t64 27q27 0 46 -18.5t19 -44.5q0 -35 -28.5 -63.5t-63.5 -28.5q-28 0 -47 19z" />
    <glyph glyph-name="uni1E21" unicode="&#x1e21;" horiz-adv-x="596" 
d="M548.5 516.5q22.5 -12.5 22.5 -34.5q0 -11 -5 -20q-21 -41 -27 -53q-6 -165 -10 -237l-3 -44q-1 -14 -3.5 -55t-8.5 -72q-24 -133 -96.5 -192t-192.5 -59q-58 0 -104 19t-71.5 53t-25.5 77q0 41 18 60.5t55 19.5q26 0 38.5 -9t12.5 -29q0 -75 78 -75q42 0 69.5 9t47 39
t29.5 90q2 12 4 31q-25 -18 -58 -28.5t-71 -10.5q-61 0 -109 28.5t-74.5 79t-26.5 114.5q0 76 38 142t104 105t146 39q75 0 109 -34q11 23 22 40q7 11 16 15t28 4q26 0 48.5 -12.5zM205 135q23 -30 69 -30q34 0 69.5 16t46.5 37q0 58 1 88l1 111q-8 16 -25 26t-41 10
q-40 0 -73 -26.5t-52 -68.5t-19 -86q0 -47 23 -77zM162 589q-10 12 -10 31q0 29 16.5 46.5t44.5 22.5q40 7 77.5 11t91.5 4l147 1q22 0 34.5 -13t12.5 -34q0 -28 -18.5 -46t-47.5 -18l-43 1q-38 3 -86 3q-54 0 -98 -5t-93 -13q-18 -3 -28 9z" />
    <glyph glyph-name="h" unicode="h" horiz-adv-x="581" 
d="M496.5 487.5q47.5 -34.5 47.5 -104.5q0 -25 -5 -46q-6 -26 -13.5 -72t-11.5 -71l-23 -136q-4 -24 -27.5 -39t-52.5 -15q-32 0 -50.5 18.5t-14.5 42.5q34 199 52 278q3 14 3 24q0 23 -13 33.5t-33 10.5q-34 0 -68 -25t-52 -73q-6 -15 -10.5 -38t-7.5 -40.5t-4 -26.5
q-13 -80 -27 -153q-4 -22 -28.5 -36.5t-53.5 -14.5q-30 0 -48.5 15t-14.5 37q25 153 72 382q22 106 65 289q6 26 28.5 42.5t55.5 16.5q27 0 41.5 -11.5t14.5 -31.5q0 -8 -1 -12q-38 -177 -56 -247q50 38 121 38q67 0 114.5 -34.5z" />
    <glyph glyph-name="hbar" unicode="&#x127;" horiz-adv-x="594" 
d="M509.5 487.5q47.5 -34.5 47.5 -104.5q0 -25 -5 -46q-6 -26 -13.5 -72t-11.5 -71l-23 -136q-4 -24 -27.5 -39t-52.5 -15q-32 0 -50.5 18.5t-14.5 42.5q34 199 52 278q3 14 3 24q0 23 -13 33.5t-33 10.5q-34 0 -68 -25t-52 -73q-6 -15 -10.5 -38t-7.5 -40.5t-4 -26.5
q-13 -80 -27 -153q-4 -22 -28.5 -36.5t-53.5 -14.5q-30 0 -48.5 15t-14.5 37q25 153 72 382l8 37q8 42 21 94l-22 1q-20 0 -33 13t-13 33q0 25 21 43.5t48 18.5l23 -1l12 50q6 26 28.5 42.5t55.5 16.5q27 0 41.5 -11.5t14.5 -31.5q0 -8 -1 -12q-2 -12 -8 -36l-5 -23l65 -2
q23 0 36.5 -12.5t13.5 -32.5q0 -27 -20 -45t-48 -18l-71 2l-14 -60l-5 -20q50 38 121 38q67 0 114.5 -34.5z" />
    <glyph glyph-name="uni1E2B" unicode="&#x1e2b;" horiz-adv-x="581" 
d="M496.5 487.5q47.5 -34.5 47.5 -104.5q0 -25 -5 -46q-6 -26 -13.5 -72t-11.5 -71l-23 -136q-4 -24 -27.5 -39t-52.5 -15q-32 0 -50.5 18.5t-14.5 42.5q34 199 52 278q3 14 3 24q0 23 -13 33.5t-33 10.5q-34 0 -68 -25t-52 -73q-6 -15 -10.5 -38t-7.5 -40.5t-4 -26.5
q-13 -80 -27 -153q-4 -22 -28.5 -36.5t-53.5 -14.5q-30 0 -48.5 15t-14.5 37q25 153 72 382q22 106 65 289q6 26 28.5 42.5t55.5 16.5q27 0 41.5 -11.5t14.5 -31.5q0 -8 -1 -12q-38 -177 -56 -247q50 38 121 38q67 0 114.5 -34.5zM170 -239.5q-38 16.5 -59.5 46.5t-21.5 67
q0 24 10 44q19 33 54 33q18 0 31 -8.5t13 -23.5v-13q3 -70 65 -70q29 0 54 20t33 59q4 19 21 29t37 10q19 0 32 -12.5t13 -30.5q0 -42 -29 -81t-75.5 -62.5t-93.5 -23.5q-46 0 -84 16.5z" />
    <glyph glyph-name="hcircumflex" unicode="&#x125;" horiz-adv-x="581" 
d="M496.5 487.5q47.5 -34.5 47.5 -104.5q0 -25 -5 -46q-6 -26 -13.5 -72t-11.5 -71l-23 -136q-4 -24 -27.5 -39t-52.5 -15q-32 0 -50.5 18.5t-14.5 42.5q34 199 52 278q3 14 3 24q0 23 -13 33.5t-33 10.5q-34 0 -68 -25t-52 -73q-6 -15 -10.5 -38t-7.5 -40.5t-4 -26.5
q-13 -80 -27 -153q-4 -22 -28.5 -36.5t-53.5 -14.5q-30 0 -48.5 15t-14.5 37q25 153 72 382q22 106 65 289q6 26 28.5 42.5t55.5 16.5q27 0 41.5 -11.5t14.5 -31.5q0 -8 -1 -12q-38 -177 -56 -247q50 38 121 38q67 0 114.5 -34.5zM355 857q-12 19 -34 57q-3 4 -11.5 18.5
t-11.5 14.5q-5 0 -41 -34l-48 -45q-17 -15 -28.5 -21t-24.5 -6q-20 0 -33 12.5t-13 31.5q0 10 6 23t17 23l32 29q50 47 86 74t62 27q30 0 47 -16t42 -55q5 -7 18.5 -27.5t27.5 -37.5q9 -13 9 -27q0 -25 -18 -43.5t-42 -18.5q-29 0 -42 21z" />
    <glyph glyph-name="uni1E25" unicode="&#x1e25;" horiz-adv-x="581" 
d="M496.5 487.5q47.5 -34.5 47.5 -104.5q0 -25 -5 -46q-6 -26 -13.5 -72t-11.5 -71l-23 -136q-4 -24 -27.5 -39t-52.5 -15q-32 0 -50.5 18.5t-14.5 42.5q34 199 52 278q3 14 3 24q0 23 -13 33.5t-33 10.5q-34 0 -68 -25t-52 -73q-6 -15 -10.5 -38t-7.5 -40.5t-4 -26.5
q-13 -80 -27 -153q-4 -22 -28.5 -36.5t-53.5 -14.5q-30 0 -48.5 15t-14.5 37q25 153 72 382q22 106 65 289q6 26 28.5 42.5t55.5 16.5q27 0 41.5 -11.5t14.5 -31.5q0 -8 -1 -12q-38 -177 -56 -247q50 38 121 38q67 0 114.5 -34.5zM192.5 -197.5q-17.5 17.5 -17.5 45.5
q0 39 27.5 65.5t65.5 26.5q30 0 47.5 -17t17.5 -44q0 -40 -27.5 -67t-65.5 -27q-30 0 -47.5 17.5z" />
    <glyph glyph-name="i" unicode="i" horiz-adv-x="338" 
d="M163 542q-21 20 -21 52q0 46 31.5 76t77.5 30q35 0 56 -19t21 -51q0 -45 -32 -76.5t-77 -31.5q-35 0 -56 20zM67.5 19.5q-17.5 13.5 -17.5 34.5q0 7 1 11l74 369q5 27 28 42.5t55 15.5q29 0 46.5 -13.5t17.5 -34.5q0 -8 -1 -12l-73 -368q-5 -27 -28.5 -42.5t-55.5 -15.5
q-29 0 -46.5 13.5z" />
    <glyph glyph-name="dotlessi" unicode="&#x131;" horiz-adv-x="350" 
d="M81 16q-17 14 -17 37q0 6 1 10l76 385q4 27 28 43.5t56 16.5q29 0 46.5 -14t17.5 -37q0 -7 -1 -11l-80 -385q-5 -25 -27 -42t-54 -17q-29 0 -46 14z" />
    <glyph glyph-name="iacute" unicode="&#xed;" horiz-adv-x="350" 
d="M81 16q-17 14 -17 37q0 6 1 10l76 385q4 27 28 43.5t56 16.5q29 0 46.5 -14t17.5 -37q0 -7 -1 -11l-80 -385q-5 -25 -27 -42t-54 -17q-29 0 -46 14zM156 575.5q-13 15.5 -13 34.5q0 27 29 49l103 78q26 19 38 26t26 7q20 0 32.5 -15t12.5 -36q0 -33 -34 -56l-110 -79
q-21 -15 -30 -19.5t-22 -4.5q-19 0 -32 15.5z" />
    <glyph glyph-name="ibreve" unicode="&#x12d;" horiz-adv-x="350" 
d="M81 16q-17 14 -17 37q0 6 1 10l76 385q4 27 28 43.5t56 16.5q29 0 46.5 -14t17.5 -37q0 -7 -1 -11l-80 -385q-5 -25 -27 -42t-54 -17q-29 0 -46 14zM152 565.5q-38 16.5 -59.5 46.5t-21.5 67q0 24 10 44q19 33 54 33q18 0 31 -8.5t13 -23.5v-13q3 -70 65 -70q29 0 54 20
t33 59q4 19 21 29t37 10q19 0 32 -12.5t13 -30.5q0 -42 -29 -81t-75.5 -62.5t-93.5 -23.5q-46 0 -84 16.5z" />
    </font>
</defs>
</svg>
