<?xml version="1.0" standalone="no"?>
<!DOCTYPE svg PUBLIC "-//W3C//DTD SVG 1.1//EN" "http://www.w3.org/Graphics/SVG/1.1/DTD/svg11.dtd" >
<svg xmlns="http://www.w3.org/2000/svg" xmlns:xlink="http://www.w3.org/1999/xlink" version="1.1">
<metadata>
Created by FontForge 20170910 at Fri Sep  7 15:55:03 2018
 By Jimmy Wärting
Copyright 2018 The Mali Project Authors (https://github.com/cadsondemak/Mali)
</metadata>
<defs>
<font id="Mali-LightItalic" horiz-adv-x="0" >
  <font-face 
    font-family="Mali Light"
    font-weight="300"
    font-style="italic"
    font-stretch="normal"
    units-per-em="1000"
    panose-1="0 0 4 0 0 0 0 0 0 0"
    ascent="800"
    descent="-200"
    x-height="505"
    cap-height="709"
    bbox="-648 -504 1532 1373"
    underline-thickness="50"
    underline-position="-100"
    slope="-10"
    unicode-range="U+000D-FB02"
  />
<missing-glyph horiz-adv-x="522" 
d="M322 11h-63l-141 -1q-9 0 -12 2.5t-4 9.5v57v280l2 144q3 126 3 200q0 19 24 19l90 -1q24 -1 79 -1q62 0 136 2h35q13 0 13 -14l-5 -344v-340q0 -15 -13 -15q-70 2 -144 2zM452 364l3 328h-159l-153 1q-9 0 -9 -13q0 -4 -1.5 -113t-1.5 -244v-283q26 -1 99 1h39
q17 -1 156 -3h28z" />
    <glyph glyph-name="fi" unicode="fi" horiz-adv-x="655" 
d="M429.5 709.5q30.5 -30.5 30.5 -80.5q0 -15 -3 -33q-4 -21 -11 -29t-22 -8t-20 8t-2 19q6 24 6 45q0 61 -64 61q-52 0 -79.5 -42.5t-42.5 -131.5l-20 -122q34 1 86 1q23 0 23 -18q0 -27 -27 -27q-23 0 -89 -2q-21 -134 -53 -324q-4 -26 -31 -26q-25 0 -21 25
q8 48 14.5 88.5t11.5 73.5l26 162l-72 -3q-22 0 -22 17q0 13 6 21t22 9q10 1 36 1l37 1l20 127q17 106 59 162t116 56q55 0 85.5 -30.5zM557.5 593q-12.5 12 -12.5 31q0 25 19.5 44t46.5 19q20 0 32 -11.5t12 -31.5q0 -27 -20 -45t-45 -18q-20 0 -32.5 12zM454 12.5
q-6 6.5 -4 17.5l88 444q2 14 10.5 21t21.5 7q14 0 19.5 -8t3.5 -20l-89 -443q-2 -12 -10.5 -18.5t-20.5 -6.5q-13 0 -19 6.5z" />
    <glyph glyph-name="fl" unicode="fl" horiz-adv-x="622" 
d="M429.5 709.5q30.5 -30.5 30.5 -80.5q0 -15 -3 -33q-4 -21 -11 -29t-22 -8t-20 8t-2 19q6 24 6 45q0 61 -64 61q-52 0 -79.5 -42.5t-42.5 -131.5l-20 -122q34 1 86 1q23 0 23 -18q0 -27 -27 -27q-23 0 -89 -2q-21 -134 -53 -324q-4 -26 -31 -26q-25 0 -21 25
q8 48 14.5 88.5t11.5 73.5l26 162l-72 -3q-22 0 -22 17q0 13 6 21t22 9q10 1 36 1l37 1l20 127q17 106 59 162t116 56q55 0 85.5 -30.5zM445.5 15.5q-6.5 6.5 -3.5 20.5l122 729q2 13 11.5 20t22.5 7q25 0 21 -23l-124 -733q-4 -27 -31 -27q-12 0 -18.5 6.5z" />
    <glyph glyph-name="uni0E240E45" unicode="&#xe24;&#xe45;" horiz-adv-x="969" 
d="M859 556q40 -39 40 -112q0 -25 -8 -75l-50 -278q-18 -101 -36 -192q-19 -96 -33 -175q-1 -10 -9.5 -15t-19.5 -5q-12 0 -19.5 6t-5.5 15q3 16 7 38.5t11 52.5q35 186 51 278l34 184q13 65 18 95q7 47 7 71q0 57 -25 81t-76 24q-65 0 -107 -40t-55 -116q-36 -203 -52 -298
l-20 -113l-45 -254q-2 -12 -11.5 -18t-21.5 -6q-9 0 -16 6t-5 18q24 141 46 259l20 108q20 108 29 168l23 131q2 20 2 28q0 60 -46 93.5t-126 33.5q-69 0 -120 -21.5t-78.5 -49t-30.5 -43.5l101 -35q15 -7 15 -27q0 -3 -23 -93l-24 -94q26 14 52 14q38 0 65 -24t27 -62
q0 -53 -34.5 -86t-90.5 -33q-43 0 -68 25t-25 55q0 36 44 192l22 88q1 9 -11.5 16t-38.5 14q-33 10 -51 20.5t-15 27.5q5 27 41 65.5t99 67.5t146 29q85 0 141.5 -32.5t64.5 -83.5q21 52 64.5 84t112.5 32q74 0 114 -39zM288 148q-15 12 -42 12q-35 0 -57 -24t-22 -56
q0 -23 15 -35.5t38 -12.5q34 0 58.5 22.5t24.5 57.5q0 24 -15 36z" />
    <glyph glyph-name="uni0E260E45" unicode="&#xe26;&#xe45;" horiz-adv-x="969" 
d="M903 445q0 -39 -10 -95q-40 -215 -60 -328q-39 -222 -53 -296q-2 -11 -10.5 -16.5t-19.5 -5.5t-17.5 5.5t-5.5 15.5q4 35 28 155l26 140l14 75l46 256q10 62 10 95q0 57 -24 83t-79 26q-65 0 -106 -43t-52 -109q-41 -227 -67 -382l-52 -295q-1 -10 -9.5 -16t-19.5 -6
t-17.5 6t-5.5 16l52 296q45 248 67 379q3 17 3 31q0 55 -34.5 89t-101.5 34q-63 0 -117 -23.5t-87.5 -52.5t-35.5 -42l101 -30q18 -6 18 -45q0 -45 -19 -136.5t-37 -139.5q-32 -91 -121 -91q-42 0 -67.5 26t-25.5 62q0 51 34.5 83.5t83.5 32.5q21 0 39 -8t28 -22
q13 52 22 104t9 78q0 22 -7 23l-36 10q-41 10 -60 18t-19 22q0 25 41 68t110 76t152 33q65 0 110 -31t57 -75q23 44 69 75t104 31q152 0 152 -156zM163.5 54q22.5 21 22.5 54q0 23 -15 37.5t-39 14.5q-31 0 -54 -22t-23 -54q0 -22 14 -36.5t39 -14.5q33 0 55.5 21z" />
    <glyph glyph-name=".notdef" horiz-adv-x="522" 
d="M322 11h-63l-141 -1q-9 0 -12 2.5t-4 9.5v57v280l2 144q3 126 3 200q0 19 24 19l90 -1q24 -1 79 -1q62 0 136 2h35q13 0 13 -14l-5 -344v-340q0 -15 -13 -15q-70 2 -144 2zM452 364l3 328h-159l-153 1q-9 0 -9 -13q0 -4 -1.5 -113t-1.5 -244v-283q26 -1 99 1h39
q17 -1 156 -3h28z" />
    <glyph glyph-name="NULL" 
 />
    <glyph glyph-name="NULL" 
 />
    <glyph glyph-name="nonmarkingreturn" unicode="&#xd;" horiz-adv-x="300" 
 />
    <glyph glyph-name="space" unicode=" " horiz-adv-x="300" 
 />
    <glyph glyph-name="A" unicode="A" horiz-adv-x="662" 
d="M566 188q-8 -10 -21 -10h-13l19 -155l1 -8q0 -13 -10 -19t-23 -6q-9 0 -15.5 4.5t-7.5 11.5l-20 172l-308 2q-44 -89 -87 -170q-9 -18 -29 -18q-13 0 -19 6.5t-5 14.5v2q0 5 3 8l101 198q155 304 193 381q30 61 48.5 85t42.5 24q23 0 38 -23t21 -76q20 -144 39 -300
q8 -54 11 -81h28q10 0 15.5 -6t5.5 -15q0 -12 -8 -22zM470 232l-41 339q-9 75 -20 75q-10 0 -47 -76l-37 -74q-52 -109 -129 -261z" />
    <glyph glyph-name="Aacute" unicode="&#xc1;" horiz-adv-x="662" 
d="M566 188q-8 -10 -21 -10h-13l19 -155l1 -8q0 -13 -10 -19t-23 -6q-9 0 -15.5 4.5t-7.5 11.5l-20 172l-308 2q-44 -89 -87 -170q-9 -18 -29 -18q-13 0 -19 6.5t-5 14.5v2q0 5 3 8l101 198q155 304 193 381q30 61 48.5 85t42.5 24q23 0 38 -23t21 -76q20 -144 39 -300
q8 -54 11 -81h28q10 0 15.5 -6t5.5 -15q0 -12 -8 -22zM470 232l-41 339q-9 75 -20 75q-10 0 -47 -76l-37 -74q-52 -109 -129 -261zM382.5 767q-5.5 5 -5.5 12q0 13 17 27l86 80q14 12 21.5 17t14.5 5q8 0 14 -5.5t6 -14.5t-5.5 -16t-16.5 -16l-94 -80q-10 -8 -15 -11t-11 -3
t-11.5 5z" />
    <glyph glyph-name="Abreve" unicode="&#x102;" horiz-adv-x="662" 
d="M566 188q-8 -10 -21 -10h-13l19 -155l1 -8q0 -13 -10 -19t-23 -6q-9 0 -15.5 4.5t-7.5 11.5l-20 172l-308 2q-44 -89 -87 -170q-9 -18 -29 -18q-13 0 -19 6.5t-5 14.5v2q0 5 3 8l101 198q155 304 193 381q30 61 48.5 85t42.5 24q23 0 38 -23t21 -76q20 -144 39 -300
q8 -54 11 -81h28q10 0 15.5 -6t5.5 -15q0 -12 -8 -22zM470 232l-41 339q-9 75 -20 75q-10 0 -47 -76l-37 -74q-52 -109 -129 -261zM365.5 786.5q-30.5 14.5 -47.5 39t-17 52.5q0 11 1 16q2 10 8.5 15.5t14.5 5.5q22 0 21 -15q-1 -4 -1 -13q1 -34 27 -54.5t66 -20.5
q42 0 75.5 26t39.5 60q1 10 9 15t17 5t14.5 -5.5t4.5 -14.5q-5 -32 -28.5 -61.5t-59 -47t-74.5 -17.5q-40 0 -70.5 14.5z" />
    <glyph glyph-name="uni1EAE" unicode="&#x1eae;" horiz-adv-x="662" 
d="M566 188q-8 -10 -21 -10h-13l19 -155l1 -8q0 -13 -10 -19t-23 -6q-9 0 -15.5 4.5t-7.5 11.5l-20 172l-308 2q-44 -89 -87 -170q-9 -18 -29 -18q-13 0 -19 6.5t-5 14.5v2q0 5 3 8l101 198q155 304 193 381q30 61 48.5 85t42.5 24q23 0 38 -23t21 -76q20 -144 39 -300
q8 -54 11 -81h28q10 0 15.5 -6t5.5 -15q0 -12 -8 -22zM470 232l-41 339q-9 75 -20 75q-10 0 -47 -76l-37 -74q-52 -109 -129 -261zM432 927q-5 5 -4 14q0 9 16 24l62 54q23 20 34 20q7 0 12 -5t5 -13q0 -9 -4.5 -15.5t-14.5 -14.5l-69 -56q-8 -7 -14 -10t-11 -3q-7 0 -12 5z
M365.5 786.5q-30.5 14.5 -47.5 39t-17 52.5q0 11 1 16q2 10 8.5 15.5t14.5 5.5q22 0 21 -15q-1 -4 -1 -13q1 -34 27 -54.5t66 -20.5q42 0 75.5 26t38.5 60q2 10 9.5 15t17.5 5q8 0 14 -5.5t5 -14.5q-6 -33 -29.5 -62t-58.5 -46.5t-75 -17.5q-39 0 -69.5 14.5z" />
    <glyph glyph-name="uni1EB6" unicode="&#x1eb6;" horiz-adv-x="662" 
d="M566 188q-8 -10 -21 -10h-13l19 -155l1 -8q0 -13 -10 -19t-23 -6q-9 0 -15.5 4.5t-7.5 11.5l-20 172l-308 2q-44 -89 -87 -170q-9 -18 -29 -18q-13 0 -19 6.5t-5 14.5v2q0 5 3 8l101 198q155 304 193 381q30 61 48.5 85t42.5 24q23 0 38 -23t21 -76q20 -144 39 -300
q8 -54 11 -81h28q10 0 15.5 -6t5.5 -15q0 -12 -8 -22zM470 232l-41 339q-9 75 -20 75q-10 0 -47 -76l-37 -74q-52 -109 -129 -261zM226.5 -156.5q-10.5 10.5 -10.5 27.5q0 22 16 37.5t39 15.5q18 0 28.5 -10t10.5 -26q0 -23 -16 -39t-39 -16q-18 0 -28.5 10.5zM365.5 786.5
q-30.5 14.5 -47.5 39t-17 52.5q0 11 1 16q2 10 8.5 15.5t14.5 5.5q22 0 21 -15q-1 -4 -1 -13q1 -34 27 -54.5t66 -20.5q42 0 75.5 26t39.5 60q1 10 9 15t17 5t14.5 -5.5t4.5 -14.5q-5 -32 -28.5 -61.5t-59 -47t-74.5 -17.5q-40 0 -70.5 14.5z" />
    <glyph glyph-name="uni1EB0" unicode="&#x1eb0;" horiz-adv-x="662" 
d="M566 188q-8 -10 -21 -10h-13l19 -155l1 -8q0 -13 -10 -19t-23 -6q-9 0 -15.5 4.5t-7.5 11.5l-20 172l-308 2q-44 -89 -87 -170q-9 -18 -29 -18q-13 0 -19 6.5t-5 14.5v2q0 5 3 8l101 198q155 304 193 381q30 61 48.5 85t42.5 24q23 0 38 -23t21 -76q20 -144 39 -300
q8 -54 11 -81h28q10 0 15.5 -6t5.5 -15q0 -12 -8 -22zM470 232l-41 339q-9 75 -20 75q-10 0 -47 -76l-37 -74q-52 -109 -129 -261zM455 932.5q-4 2.5 -10 10.5l-49 56q-1 2 -6 8t-5 14q0 11 8 18.5t18 7.5q11 0 27 -20l42 -54q9 -13 9 -21q-1 -10 -8.5 -16t-15.5 -6
q-6 0 -10 2.5zM365.5 786.5q-30.5 14.5 -47.5 39t-17 52.5q0 11 1 16q2 10 8.5 15.5t14.5 5.5q22 0 21 -15q-1 -4 -1 -13q1 -34 27 -54.5t66 -20.5q42 0 75.5 26t38.5 60q2 10 9.5 15t17.5 5q8 0 14 -5.5t5 -14.5q-6 -33 -29.5 -62t-58.5 -46.5t-75 -17.5q-39 0 -69.5 14.5z
" />
    <glyph glyph-name="uni1EB2" unicode="&#x1eb2;" horiz-adv-x="662" 
d="M566 188q-8 -10 -21 -10h-13l19 -155l1 -8q0 -13 -10 -19t-23 -6q-9 0 -15.5 4.5t-7.5 11.5l-20 172l-308 2q-44 -89 -87 -170q-9 -18 -29 -18q-13 0 -19 6.5t-5 14.5v2q0 5 3 8l101 198q155 304 193 381q30 61 48.5 85t42.5 24q23 0 38 -23t21 -76q20 -144 39 -300
q8 -54 11 -81h28q10 0 15.5 -6t5.5 -15q0 -12 -8 -22zM470 232l-41 339q-9 75 -20 75q-10 0 -47 -76l-37 -74q-52 -109 -129 -261zM441 917.5q-4 4.5 -3 11.5l5 28q1 9 8 15.5t21 17.5q29 19 29 34q0 11 -7.5 16t-25.5 5q-31 0 -48 -27q-5 -9 -15 -9q-13 0 -13 11
q0 20 23 37.5t58 17.5q29 0 46 -13t17 -35q0 -18 -9.5 -28.5t-26.5 -22.5q-20 -13 -22 -21l-5 -25q-3 -17 -22 -17q-6 0 -10 4.5zM366.5 786.5q-30.5 14.5 -47.5 39t-17 52.5q0 11 1 16q2 10 8.5 15.5t14.5 5.5q22 0 21 -15q-1 -4 -1 -13q1 -34 27 -54.5t66 -20.5
q42 0 75.5 26t38.5 60q2 10 9.5 15t17.5 5q8 0 14 -5.5t5 -14.5q-6 -33 -29.5 -62t-58.5 -46.5t-75 -17.5q-39 0 -69.5 14.5z" />
    <glyph glyph-name="uni1EB4" unicode="&#x1eb4;" horiz-adv-x="662" 
d="M566 188q-8 -10 -21 -10h-13l19 -155l1 -8q0 -13 -10 -19t-23 -6q-9 0 -15.5 4.5t-7.5 11.5l-20 172l-308 2q-44 -89 -87 -170q-9 -18 -29 -18q-13 0 -19 6.5t-5 14.5v2q0 5 3 8l101 198q155 304 193 381q30 61 48.5 85t42.5 24q23 0 38 -23t21 -76q20 -144 39 -300
q8 -54 11 -81h28q10 0 15.5 -6t5.5 -15q0 -12 -8 -22zM470 232l-41 339q-9 75 -20 75q-10 0 -47 -76l-37 -74q-52 -109 -129 -261zM324.5 956q-4.5 4 -4.5 9q-1 2 -1 7q0 4 3 10q29 35 94 35q20 0 33.5 -3.5t30.5 -10.5q18 -7 30.5 -10t31.5 -3q11 0 23.5 4t20.5 11
q10 9 18 9q7 0 12.5 -5.5t5.5 -13.5q0 -6 -8 -14q-26 -28 -80 -28q-19 0 -34 3.5t-36 10.5q-35 13 -58 13q-26 0 -49 -18q-2 -2 -8.5 -6t-11.5 -4q-8 0 -12.5 4zM368.5 786.5q-30.5 14.5 -47.5 39t-17 52.5q0 11 1 16q2 10 8.5 15.5t14.5 5.5q22 0 21 -15q-1 -4 -1 -13
q1 -34 27 -54.5t66 -20.5q42 0 75.5 26t38.5 60q2 10 9.5 15t17.5 5q8 0 14 -5.5t5 -14.5q-6 -33 -29.5 -62t-58.5 -46.5t-75 -17.5q-39 0 -69.5 14.5z" />
    <glyph glyph-name="uni01CD" unicode="&#x1cd;" horiz-adv-x="662" 
d="M566 188q-8 -10 -21 -10h-13l19 -155l1 -8q0 -13 -10 -19t-23 -6q-9 0 -15.5 4.5t-7.5 11.5l-20 172l-308 2q-44 -89 -87 -170q-9 -18 -29 -18q-13 0 -19 6.5t-5 14.5v2q0 5 3 8l101 198q155 304 193 381q30 61 48.5 85t42.5 24q23 0 38 -23t21 -76q20 -144 39 -300
q8 -54 11 -81h28q10 0 15.5 -6t5.5 -15q0 -12 -8 -22zM470 232l-41 339q-9 75 -20 75q-10 0 -47 -76l-37 -74q-52 -109 -129 -261zM583 923q5 -5 5 -13q0 -6 -4 -10.5t-6 -6.5q-57 -62 -92.5 -94t-62.5 -32q-16 0 -36.5 21t-51.5 61q-16 23 -27 35q-5 6 -5 13q0 9 8.5 17.5
t17.5 8.5q10 0 22 -18q64 -94 81 -94q11 0 44 30t74 77q8 10 21 10q7 0 12 -5z" />
    <glyph glyph-name="Acircumflex" unicode="&#xc2;" horiz-adv-x="662" 
d="M566 188q-8 -10 -21 -10h-13l19 -155l1 -8q0 -13 -10 -19t-23 -6q-9 0 -15.5 4.5t-7.5 11.5l-20 172l-308 2q-44 -89 -87 -170q-9 -18 -29 -18q-13 0 -19 6.5t-5 14.5v2q0 5 3 8l101 198q155 304 193 381q30 61 48.5 85t42.5 24q23 0 38 -23t21 -76q20 -144 39 -300
q8 -54 11 -81h28q10 0 15.5 -6t5.5 -15q0 -12 -8 -22zM470 232l-41 339q-9 75 -20 75q-10 0 -47 -76l-37 -74q-52 -109 -129 -261zM531 778q-24 46 -46 76t-33 30q-16 0 -115 -94q-17 -17 -28 -17q-8 0 -13.5 6t-5.5 13q0 9 11 20l31 28q46 42 76.5 65.5t48.5 23.5
q27 0 51.5 -32.5t60.5 -94.5q4 -6 4 -11q0 -9 -7.5 -16t-16.5 -7q-13 0 -18 10z" />
    <glyph glyph-name="uni1EA4" unicode="&#x1ea4;" horiz-adv-x="662" 
d="M566 188q-8 -10 -21 -10h-13l19 -155l1 -8q0 -13 -10 -19t-23 -6q-9 0 -15.5 4.5t-7.5 11.5l-20 172l-308 2q-44 -89 -87 -170q-9 -18 -29 -18q-13 0 -19 6.5t-5 14.5v2q0 5 3 8l101 198q155 304 193 381q30 61 48.5 85t42.5 24q23 0 38 -23t21 -76q20 -144 39 -300
q8 -54 11 -81h28q10 0 15.5 -6t5.5 -15q0 -12 -8 -22zM470 232l-41 339q-9 75 -20 75q-10 0 -47 -76l-37 -74q-52 -109 -129 -261zM556.5 897.5q-4.5 4.5 -4.5 11.5q0 11 15 26l63 55q13 11 20 15.5t14 4.5q8 0 13 -5t5 -14t-4.5 -15t-15.5 -14l-69 -57q-14 -12 -25 -12
q-7 0 -11.5 4.5zM531 779q-24 46 -46 76t-33 30q-16 0 -114 -94q-17 -17 -29 -17q-7 0 -12.5 5.5t-5.5 13.5q0 10 11 20q24 21 32 29q47 43 76 65.5t47 22.5q27 0 51.5 -32.5t60.5 -94.5q4 -6 4 -11q0 -9 -7.5 -16t-16.5 -7q-13 0 -18 10z" />
    <glyph glyph-name="uni1EAC" unicode="&#x1eac;" horiz-adv-x="662" 
d="M566 188q-8 -10 -21 -10h-13l19 -155l1 -8q0 -13 -10 -19t-23 -6q-9 0 -15.5 4.5t-7.5 11.5l-20 172l-308 2q-44 -89 -87 -170q-9 -18 -29 -18q-13 0 -19 6.5t-5 14.5v2q0 5 3 8l101 198q155 304 193 381q30 61 48.5 85t42.5 24q23 0 38 -23t21 -76q20 -144 39 -300
q8 -54 11 -81h28q10 0 15.5 -6t5.5 -15q0 -12 -8 -22zM470 232l-41 339q-9 75 -20 75q-10 0 -47 -76l-37 -74q-52 -109 -129 -261zM226.5 -156.5q-10.5 10.5 -10.5 27.5q0 22 16 37.5t39 15.5q18 0 28.5 -10t10.5 -26q0 -23 -16 -39t-39 -16q-18 0 -28.5 10.5zM531 778
q-24 46 -46 76t-33 30q-16 0 -115 -94q-17 -17 -28 -17q-8 0 -13.5 6t-5.5 13q0 9 11 20l31 28q46 42 76.5 65.5t48.5 23.5q27 0 51.5 -32.5t60.5 -94.5q4 -6 4 -11q0 -9 -7.5 -16t-16.5 -7q-13 0 -18 10z" />
    <glyph glyph-name="uni1EA6" unicode="&#x1ea6;" horiz-adv-x="662" 
d="M566 188q-8 -10 -21 -10h-13l19 -155l1 -8q0 -13 -10 -19t-23 -6q-9 0 -15.5 4.5t-7.5 11.5l-20 172l-308 2q-44 -89 -87 -170q-9 -18 -29 -18q-13 0 -19 6.5t-5 14.5v2q0 5 3 8l101 198q155 304 193 381q30 61 48.5 85t42.5 24q23 0 38 -23t21 -76q20 -144 39 -300
q8 -54 11 -81h28q10 0 15.5 -6t5.5 -15q0 -12 -8 -22zM470 232l-41 339q-9 75 -20 75q-10 0 -47 -76l-37 -74q-52 -109 -129 -261zM591 905l-49 57q-11 13 -11 22q0 11 8 18.5t19 7.5q6 0 11.5 -4.5t14.5 -15.5l43 -55q8 -9 8 -18q0 -10 -7 -17t-16 -7q-10 0 -21 12z
M531 779q-25 47 -47 76.5t-32 29.5q-17 0 -115 -94q-17 -17 -28 -17q-8 0 -13.5 6t-5.5 13q0 9 11 20l32 28q41 39 73 64t51 25q25 0 48 -29t41 -59.5t23 -38.5q4 -6 4 -11q0 -9 -8 -16t-17 -7q-12 0 -17 10z" />
    <glyph glyph-name="uni1EA8" unicode="&#x1ea8;" horiz-adv-x="662" 
d="M566 188q-8 -10 -21 -10h-13l19 -155l1 -8q0 -13 -10 -19t-23 -6q-9 0 -15.5 4.5t-7.5 11.5l-20 172l-308 2q-44 -89 -87 -170q-9 -18 -29 -18q-13 0 -19 6.5t-5 14.5v2q0 5 3 8l101 198q155 304 193 381q30 61 48.5 85t42.5 24q23 0 38 -23t21 -76q20 -144 39 -300
q8 -54 11 -81h28q10 0 15.5 -6t5.5 -15q0 -12 -8 -22zM470 232l-41 339q-9 75 -20 75q-10 0 -47 -76l-37 -74q-52 -109 -129 -261zM590.5 892q-4.5 4 -4.5 10q0 5 2 14t3 16q3 14 31 34q14 11 21 18.5t7 16.5q0 19 -34 19q-33 0 -49 -27q-3 -9 -14 -9q-14 0 -14 12
q0 20 23.5 37.5t55.5 17.5q29 0 47.5 -13.5t18.5 -33.5q0 -18 -9.5 -29t-26.5 -23q-7 -5 -13.5 -10.5t-7.5 -11.5q-4 -19 -5 -25q-4 -17 -21 -17q-6 0 -10.5 4zM531 779q-25 47 -47 76.5t-32 29.5q-17 0 -115 -94q-17 -17 -28 -17q-8 0 -13.5 6t-5.5 13q0 9 11 20l32 28
q41 39 73 64t51 25q25 0 48 -29t41 -59.5t23 -38.5q4 -6 4 -11q0 -9 -8 -16t-17 -7q-12 0 -17 10z" />
    <glyph glyph-name="uni1EAA" unicode="&#x1eaa;" horiz-adv-x="662" 
d="M566 188q-8 -10 -21 -10h-13l19 -155l1 -8q0 -13 -10 -19t-23 -6q-9 0 -15.5 4.5t-7.5 11.5l-20 172l-308 2q-44 -89 -87 -170q-9 -18 -29 -18q-13 0 -19 6.5t-5 14.5v2q0 5 3 8l101 198q155 304 193 381q30 61 48.5 85t42.5 24q23 0 38 -23t21 -76q20 -144 39 -300
q8 -54 11 -81h28q10 0 15.5 -6t5.5 -15q0 -12 -8 -22zM470 232l-41 339q-9 75 -20 75q-10 0 -47 -76l-37 -74q-52 -109 -129 -261zM320 962.5q-4 4.5 -4 11.5q0 9 9 18q27 26 46.5 37t43.5 11q32 0 78 -22q4 -2 22.5 -11.5t33.5 -9.5q16 0 39 19q4 3 10.5 7.5t12.5 4.5
q8 0 13 -5.5t5 -12.5q0 -9 -11 -18q-22 -18 -40 -26t-37 -8q-15 0 -27.5 4.5t-25 11t-19.5 10.5q-13 6 -30.5 12t-28.5 6t-21 -6.5t-19 -14t-13 -10.5q-14 -13 -25 -13q-8 0 -12 4.5zM531 779q-25 47 -47 76.5t-32 29.5q-17 0 -115 -94q-17 -17 -28 -17q-8 0 -13.5 6
t-5.5 13q0 9 11 20l32 28q41 39 73 64t51 25q25 0 48 -29t41 -59.5t23 -38.5q4 -6 4 -11q0 -9 -8 -16t-17 -7q-12 0 -17 10z" />
    <glyph glyph-name="Adieresis" unicode="&#xc4;" horiz-adv-x="662" 
d="M566 188q-8 -10 -21 -10h-13l19 -155l1 -8q0 -13 -10 -19t-23 -6q-9 0 -15.5 4.5t-7.5 11.5l-20 172l-308 2q-44 -89 -87 -170q-9 -18 -29 -18q-13 0 -19 6.5t-5 14.5v2q0 5 3 8l101 198q155 304 193 381q30 61 48.5 85t42.5 24q23 0 38 -23t21 -76q20 -144 39 -300
q8 -54 11 -81h28q10 0 15.5 -6t5.5 -15q0 -12 -8 -22zM470 232l-41 339q-9 75 -20 75q-10 0 -47 -76l-37 -74q-52 -109 -129 -261zM290 792.5q-11 10.5 -11 27.5q0 23 16 38t39 15q18 0 29.5 -10t11.5 -26q0 -22 -17 -38.5t-39 -16.5q-18 0 -29 10.5zM518.5 792.5
q-10.5 10.5 -10.5 27.5q0 23 16 38t39 15q17 0 28 -10t11 -26q0 -22 -16 -38.5t-39 -16.5q-18 0 -28.5 10.5z" />
    <glyph glyph-name="uni1EA0" unicode="&#x1ea0;" horiz-adv-x="662" 
d="M566 188q-8 -10 -21 -10h-13l19 -155l1 -8q0 -13 -10 -19t-23 -6q-9 0 -15.5 4.5t-7.5 11.5l-20 172l-308 2q-44 -89 -87 -170q-9 -18 -29 -18q-13 0 -19 6.5t-5 14.5v2q0 5 3 8l101 198q155 304 193 381q30 61 48.5 85t42.5 24q23 0 38 -23t21 -76q20 -144 39 -300
q8 -54 11 -81h28q10 0 15.5 -6t5.5 -15q0 -12 -8 -22zM470 232l-41 339q-9 75 -20 75q-10 0 -47 -76l-37 -74q-52 -109 -129 -261zM226.5 -156.5q-10.5 10.5 -10.5 27.5q0 22 16 37.5t39 15.5q18 0 28.5 -10t10.5 -26q0 -23 -16 -39t-39 -16q-18 0 -28.5 10.5z" />
    <glyph glyph-name="Agrave" unicode="&#xc0;" horiz-adv-x="662" 
d="M566 188q-8 -10 -21 -10h-13l19 -155l1 -8q0 -13 -10 -19t-23 -6q-9 0 -15.5 4.5t-7.5 11.5l-20 172l-308 2q-44 -89 -87 -170q-9 -18 -29 -18q-13 0 -19 6.5t-5 14.5v2q0 5 3 8l101 198q155 304 193 381q30 61 48.5 85t42.5 24q23 0 38 -23t21 -76q20 -144 39 -300
q8 -54 11 -81h28q10 0 15.5 -6t5.5 -15q0 -12 -8 -22zM470 232l-41 339q-9 75 -20 75q-10 0 -47 -76l-37 -74q-52 -109 -129 -261zM469 762.5q-5 2.5 -11 10.5l-64 86q-10 13 -10 22q0 12 7.5 19.5t17.5 7.5q13 0 27 -21l58 -85q9 -10 9 -19t-7 -16t-16 -7q-6 0 -11 2.5z
" />
    <glyph glyph-name="uni1EA2" unicode="&#x1ea2;" horiz-adv-x="662" 
d="M566 188q-8 -10 -21 -10h-13l19 -155l1 -8q0 -13 -10 -19t-23 -6q-9 0 -15.5 4.5t-7.5 11.5l-20 172l-308 2q-44 -89 -87 -170q-9 -18 -29 -18q-13 0 -19 6.5t-5 14.5v2q0 5 3 8l101 198q155 304 193 381q30 61 48.5 85t42.5 24q23 0 38 -23t21 -76q20 -144 39 -300
q8 -54 11 -81h28q10 0 15.5 -6t5.5 -15q0 -12 -8 -22zM470 232l-41 339q-9 75 -20 75q-10 0 -47 -76l-37 -74q-52 -109 -129 -261zM419 769.5q-5 6.5 -4 16.5q1 7 7 38q2 12 13 22.5t31 24.5q21 16 32 27t12 23q3 41 -55 41q-24 0 -41 -12t-37 -34q-10 -11 -18 -11t-14 5.5
t-6 11.5t8 18q26 29 51 45t62 16q44 0 70.5 -19.5t26.5 -53.5q0 -26 -15.5 -43.5t-43.5 -35.5q-27 -16 -29 -27l-6 -33q-4 -26 -28 -26q-11 0 -16 6.5z" />
    <glyph glyph-name="Amacron" unicode="&#x100;" horiz-adv-x="662" 
d="M566 188q-8 -10 -21 -10h-13l19 -155l1 -8q0 -13 -10 -19t-23 -6q-9 0 -15.5 4.5t-7.5 11.5l-20 172l-308 2q-44 -89 -87 -170q-9 -18 -29 -18q-13 0 -19 6.5t-5 14.5v2q0 5 3 8l101 198q155 304 193 381q30 61 48.5 85t42.5 24q23 0 38 -23t21 -76q20 -144 39 -300
q8 -54 11 -81h28q10 0 15.5 -6t5.5 -15q0 -12 -8 -22zM470 232l-41 339q-9 75 -20 75q-10 0 -47 -76l-37 -74q-52 -109 -129 -261zM338 816q-29 0 -48 8q-14 5 -14 18q0 14 10 21t22 5q30 -7 70 -7q23 0 69 4q48 4 76 4q12 0 36 -2q16 -2 25 -2t14 -5.5t5 -13.5
q0 -11 -8 -18t-18 -7l-28 2q-20 2 -28 2q-31 0 -75 -4q-42 -4 -65 -4z" />
    <glyph glyph-name="Aogonek" unicode="&#x104;" horiz-adv-x="662" 
d="M566 188q-8 -10 -21 -10h-13l19 -155l1 -8q0 -14 -13 -21l-2 -1q-34 -25 -53 -46t-19 -45q0 -28 42 -28q8 0 18 3t14 3q10 0 10 -12q0 -32 -45 -32q-36 0 -60 17.5t-24 48.5q0 32 19.5 57t56.5 51l-20 168l-308 2q-44 -89 -87 -170q-9 -18 -29 -18q-13 0 -19 6.5t-5 14.5
v2q0 5 3 8l101 198q155 304 193 381q30 61 48.5 85t42.5 24q23 0 38 -23t21 -76q20 -144 39 -300q8 -54 11 -81h28q10 0 15.5 -6t5.5 -15q0 -12 -8 -22zM470 232l-41 339q-9 75 -20 75q-10 0 -47 -76l-37 -74q-52 -109 -129 -261z" />
    <glyph glyph-name="Aring" unicode="&#xc5;" horiz-adv-x="662" 
d="M566 188q-8 -10 -21 -10h-13l19 -155l1 -8q0 -13 -10 -19t-23 -6q-9 0 -15.5 4.5t-7.5 11.5l-20 172l-308 2q-44 -89 -87 -170q-9 -18 -29 -18q-13 0 -19 6.5t-5 14.5v2q0 5 3 8l101 198q155 304 193 381q30 61 48.5 85t42.5 24q23 0 38 -23t21 -76q20 -144 39 -300
q8 -54 11 -81h28q10 0 15.5 -6t5.5 -15q0 -12 -8 -22zM470 232l-41 339q-9 75 -20 75q-10 0 -47 -76l-37 -74q-52 -109 -129 -261zM366.5 762q-25.5 25 -25.5 61q0 47 35 80t84 33q36 0 60.5 -26t24.5 -60q0 -47 -34 -80t-81 -33q-38 0 -63.5 25zM484.5 797.5
q22.5 21.5 22.5 50.5q0 21 -15 35.5t-38 14.5q-30 0 -51.5 -22.5t-21.5 -48.5q0 -22 14.5 -36.5t37.5 -14.5q29 0 51.5 21.5z" />
    <glyph glyph-name="Aringacute" unicode="&#x1fa;" horiz-adv-x="662" 
d="M450 968.5q-4 4.5 -2 13.5q2 12 15 25l51 51q21 21 35 21q17 0 17 -17q0 -9 -5 -16t-15 -16l-57 -53q-14 -13 -27 -13q-8 0 -12 4.5zM366.5 762q-25.5 25 -25.5 61q0 47 35 80t84 33q36 0 60.5 -26t24.5 -60q0 -47 -34 -80t-81 -33q-38 0 -63.5 25zM402.5 875.5
q-21.5 -22.5 -21.5 -48.5q0 -22 14.5 -36.5t37.5 -14.5q29 0 51.5 21.5t22.5 50.5q0 21 -15 35.5t-38 14.5q-30 0 -51.5 -22.5zM566 188q-8 -10 -21 -10h-13l19 -155l1 -8q0 -13 -10 -19t-23 -6q-9 0 -15.5 4.5t-7.5 11.5l-20 172l-308 2q-44 -89 -87 -170q-9 -18 -29 -18
q-13 0 -19 6.5t-5 14.5v2q0 5 3 8l101 198q155 304 193 381q30 61 48.5 85t42.5 24q23 0 38 -23t21 -76q20 -144 39 -300q8 -54 11 -81h28q10 0 15.5 -6t5.5 -15q0 -12 -8 -22zM470 232l-41 339q-9 75 -20 75q-10 0 -47 -76l-37 -74q-52 -109 -129 -261z" />
    <glyph glyph-name="Atilde" unicode="&#xc3;" horiz-adv-x="662" 
d="M566 188q-8 -10 -21 -10h-13l19 -155l1 -8q0 -13 -10 -19t-23 -6q-9 0 -15.5 4.5t-7.5 11.5l-20 172l-308 2q-44 -89 -87 -170q-9 -18 -29 -18q-13 0 -19 6.5t-5 14.5v2q0 5 3 8l101 198q155 304 193 381q30 61 48.5 85t42.5 24q23 0 38 -23t21 -76q20 -144 39 -300
q8 -54 11 -81h28q10 0 15.5 -6t5.5 -15q0 -12 -8 -22zM470 232l-41 339q-9 75 -20 75q-10 0 -47 -76l-37 -74q-52 -109 -129 -261zM285.5 776.5q-4.5 4.5 -4.5 12.5q0 10 9 19q27 28 46.5 39.5t44.5 11.5q42 0 81 -21q3 -2 15 -9t22 -10.5t18 -3.5q9 0 17.5 5t19.5 14
q13 13 22 13q7 0 12.5 -6t5.5 -14q0 -11 -8 -19q-23 -19 -41.5 -27.5t-37.5 -8.5q-13 0 -23.5 4t-25.5 12q-12 7 -23 11q-6 2 -25.5 11t-33.5 9q-10 0 -19.5 -6.5t-19 -15.5t-13.5 -12q-16 -13 -26 -13q-8 0 -12.5 4.5z" />
    <glyph glyph-name="AE" unicode="&#xc6;" horiz-adv-x="916" 
d="M952 666q-3 -14 -10.5 -20t-15.5 -6l-23 1q-92 5 -168 5q-89 0 -129 -3q-9 -78 -25 -162q-2 -7 -4 -25l-13 -66l128 -3q96 -2 113 -3q5 0 8 -4.5t3 -11.5q0 -27 -34 -27q-37 0 -92 3l-72 2h-63q-11 -47 -35 -146l-35 -147l31 -3q108 -9 168 -9q34 0 56.5 2t66.5 8
q12 2 20.5 -4t6.5 -19q-4 -19 -30 -26q-24 -8 -103 -8q-53 0 -107 3q-86 4 -162 4q-32 0 -41 5t-7 18q3 17 12 22t31 5q20 67 36 138l-265 2q-42 -63 -59 -90q-14 -22 -28.5 -43.5t-26.5 -39.5q-6 -10 -11 -13.5t-12 -3.5q-15 0 -25.5 9t-4.5 18q174 270 315 465.5
t202 196.5q3 1 9 1q133 5 196 5q35 0 98.5 -3.5t88.5 -5.5q15 0 12 -21zM473 231q38 170 57 281q15 84 18 123q-40 -15 -124.5 -125t-196.5 -275z" />
    <glyph glyph-name="AEacute" unicode="&#x1fc;" horiz-adv-x="916" 
d="M952 666q-3 -14 -10.5 -20t-15.5 -6l-23 1q-92 5 -168 5q-89 0 -129 -3q-9 -78 -25 -162q-2 -7 -4 -25l-13 -66l128 -3q96 -2 113 -3q5 0 8 -4.5t3 -11.5q0 -27 -34 -27q-37 0 -92 3l-72 2h-63q-11 -47 -35 -146l-35 -147l31 -3q108 -9 168 -9q34 0 56.5 2t66.5 8
q12 2 20.5 -4t6.5 -19q-4 -19 -30 -26q-24 -8 -103 -8q-53 0 -107 3q-86 4 -162 4q-32 0 -41 5t-7 18q3 17 12 22t31 5q20 67 36 138l-265 2q-42 -63 -59 -90q-14 -22 -28.5 -43.5t-26.5 -39.5q-6 -10 -11 -13.5t-12 -3.5q-15 0 -25.5 9t-4.5 18q174 270 315 465.5
t202 196.5q3 1 9 1q133 5 196 5q35 0 98.5 -3.5t88.5 -5.5q15 0 12 -21zM473 231q38 170 57 281q15 84 18 123q-40 -15 -124.5 -125t-196.5 -275zM664.5 766q-5.5 5 -5.5 12q0 13 17 27l86 80q14 12 21.5 17t14.5 5q8 0 14 -5.5t6 -14.5t-5.5 -16t-16.5 -16l-94 -80
q-10 -8 -15 -11t-11 -3t-11.5 5z" />
    <glyph glyph-name="B" unicode="B" horiz-adv-x="603" 
d="M49 4l-20 1q-21 1 -21 17q0 14 8.5 23t23.5 8h21q40 147 73 329q26 139 39 235q-12 -5 -20 -5q-16 0 -16 16q0 15 10.5 24t35.5 19q92 36 188 36q102 0 168 -44t66 -124q0 -78 -59 -125t-158 -60q73 -14 111 -55.5t38 -96.5q0 -66 -40.5 -113t-108 -70t-145.5 -21
q-51 1 -78 3l-63 2q-5 -13 -11.5 -17.5t-17.5 -4.5q-24 0 -24 23zM416 86q66 38 66 116q0 72 -61.5 97.5t-156.5 30.5q-16 1 -23.5 4.5t-7.5 15.5q0 31 37 33q121 3 200.5 36t79.5 120q0 61 -49.5 90t-135.5 29q-34 0 -71 -4.5t-63 -14.5q-13 -87 -42 -256
q-34 -189 -76 -332l53 -1q48 -2 76 -2q108 0 174 38z" />
    <glyph glyph-name="C" unicode="C" horiz-adv-x="701" 
d="M711 682l-23 -121q-5 -30 -34 -30q-15 0 -23 13q-25 42 -43 65t-48 38t-75 15q-90 0 -171 -58t-130 -149t-49 -184q0 -76 33 -125.5t87 -73t117 -23.5q62 0 118.5 25t95.5 69t50 99q4 28 32 28q13 0 18.5 -4.5t5.5 -15.5q0 -7 -1 -11q-11 -64 -55 -119.5t-112.5 -89
t-151.5 -33.5q-75 0 -141.5 29t-108.5 90.5t-42 152.5q0 109 56.5 212t150 167.5t198.5 64.5q64 0 109.5 -28t70.5 -77l13 75q2 11 9.5 18t21.5 7q27 0 22 -26z" />
    <glyph glyph-name="Cacute" unicode="&#x106;" horiz-adv-x="701" 
d="M711 682l-23 -121q-5 -30 -34 -30q-15 0 -23 13q-25 42 -43 65t-48 38t-75 15q-90 0 -171 -58t-130 -149t-49 -184q0 -76 33 -125.5t87 -73t117 -23.5q62 0 118.5 25t95.5 69t50 99q4 28 32 28q13 0 18.5 -4.5t5.5 -15.5q0 -7 -1 -11q-11 -64 -55 -119.5t-112.5 -89
t-151.5 -33.5q-75 0 -141.5 29t-108.5 90.5t-42 152.5q0 109 56.5 212t150 167.5t198.5 64.5q64 0 109.5 -28t70.5 -77l13 75q2 11 9.5 18t21.5 7q27 0 22 -26zM432.5 767q-5.5 5 -5.5 12q0 13 17 27l86 80q14 12 21.5 17t14.5 5q8 0 14 -5.5t6 -14.5t-5.5 -16t-16.5 -16
l-94 -80q-10 -8 -15 -11t-11 -3t-11.5 5z" />
    <glyph glyph-name="Ccaron" unicode="&#x10c;" horiz-adv-x="701" 
d="M711 682l-23 -121q-5 -30 -34 -30q-15 0 -23 13q-25 42 -43 65t-48 38t-75 15q-90 0 -171 -58t-130 -149t-49 -184q0 -76 33 -125.5t87 -73t117 -23.5q62 0 118.5 25t95.5 69t50 99q4 28 32 28q13 0 18.5 -4.5t5.5 -15.5q0 -7 -1 -11q-11 -64 -55 -119.5t-112.5 -89
t-151.5 -33.5q-75 0 -141.5 29t-108.5 90.5t-42 152.5q0 109 56.5 212t150 167.5t198.5 64.5q64 0 109.5 -28t70.5 -77l13 75q2 11 9.5 18t21.5 7q27 0 22 -26zM633 923q5 -5 5 -13q0 -6 -4 -10.5t-6 -6.5q-57 -62 -92.5 -94t-62.5 -32q-16 0 -36.5 21t-51.5 61
q-16 23 -27 35q-5 6 -5 13q0 9 8.5 17.5t17.5 8.5q10 0 22 -18q64 -94 81 -94q11 0 44 30t74 77q8 10 21 10q7 0 12 -5z" />
    <glyph glyph-name="Ccedilla" unicode="&#xc7;" horiz-adv-x="701" 
d="M711 682l-23 -121q-5 -30 -34 -30q-15 0 -23 13q-25 42 -43 65t-48 38t-75 15q-90 0 -171 -58t-130 -149t-49 -184q0 -76 33 -125.5t87 -73t117 -23.5q62 0 118.5 25t95.5 69t50 99q4 28 32 28q13 0 18.5 -4.5t5.5 -15.5q0 -7 -1 -11q-11 -64 -55 -119.5t-112.5 -89
t-151.5 -33.5h-18l-45 -56q34 -8 55 -27.5t21 -48.5q0 -45 -37 -68.5t-96 -23.5q-18 0 -40 4t-38 10q-12 4 -12 18q0 12 8.5 19t19.5 5q5 -1 26 -6.5t39 -5.5q81 0 81 48q0 19 -17.5 27t-56.5 15q-10 1 -15.5 5.5t-5.5 10.5q0 4 3 9l59 71q-97 19 -160 86t-63 180
q0 109 56.5 212t150 167.5t198.5 64.5q64 0 109.5 -28t70.5 -77l13 75q2 11 9.5 18t21.5 7q27 0 22 -26z" />
    <glyph glyph-name="Ccircumflex" unicode="&#x108;" horiz-adv-x="701" 
d="M711 682l-23 -121q-5 -30 -34 -30q-15 0 -23 13q-25 42 -43 65t-48 38t-75 15q-90 0 -171 -58t-130 -149t-49 -184q0 -76 33 -125.5t87 -73t117 -23.5q62 0 118.5 25t95.5 69t50 99q4 28 32 28q13 0 18.5 -4.5t5.5 -15.5q0 -7 -1 -11q-11 -64 -55 -119.5t-112.5 -89
t-151.5 -33.5q-75 0 -141.5 29t-108.5 90.5t-42 152.5q0 109 56.5 212t150 167.5t198.5 64.5q64 0 109.5 -28t70.5 -77l13 75q2 11 9.5 18t21.5 7q27 0 22 -26zM581 778q-24 46 -46 76t-33 30q-16 0 -115 -94q-17 -17 -28 -17q-8 0 -13.5 6t-5.5 13q0 9 11 20l31 28
q46 42 76.5 65.5t48.5 23.5q27 0 51.5 -32.5t60.5 -94.5q4 -6 4 -11q0 -9 -7.5 -16t-16.5 -7q-13 0 -18 10z" />
    <glyph glyph-name="Cdotaccent" unicode="&#x10a;" horiz-adv-x="701" 
d="M711 682l-23 -121q-5 -30 -34 -30q-15 0 -23 13q-25 42 -43 65t-48 38t-75 15q-90 0 -171 -58t-130 -149t-49 -184q0 -76 33 -125.5t87 -73t117 -23.5q62 0 118.5 25t95.5 69t50 99q4 28 32 28q13 0 18.5 -4.5t5.5 -15.5q0 -7 -1 -11q-11 -64 -55 -119.5t-112.5 -89
t-151.5 -33.5q-75 0 -141.5 29t-108.5 90.5t-42 152.5q0 109 56.5 212t150 167.5t198.5 64.5q64 0 109.5 -28t70.5 -77l13 75q2 11 9.5 18t21.5 7q27 0 22 -26zM453.5 792.5q-10.5 10.5 -10.5 27.5q0 22 16 37.5t39 15.5q17 0 28 -10t11 -26q0 -23 -16 -39t-39 -16
q-18 0 -28.5 10.5z" />
    <glyph glyph-name="D" unicode="D" horiz-adv-x="665" 
d="M537.5 616q103.5 -71 103.5 -215q0 -116 -65.5 -205.5t-180 -138.5t-256.5 -49h-81q-14 0 -20 4.5t-6 14.5q0 13 7.5 21.5t21.5 8.5h43l88 592h-15q-16 0 -24 3.5t-8 15.5q0 19 9 25t28 6h21q7 15 28 15q11 0 16 -4t6 -13q181 -10 284.5 -81zM374.5 104.5
q98.5 44.5 155.5 122t57 176.5q0 129 -94 183t-246 61l-90 -590q119 3 217.5 47.5z" />
    <glyph glyph-name="Eth" unicode="&#xd0;" horiz-adv-x="709" 
d="M577 616q102 -72 102 -215q0 -117 -67.5 -206.5t-183.5 -138t-257 -48.5h-75q-26 0 -26 18q0 30 31 30h40l41 282l-97 2q-35 0 -35 21q0 14 11.5 22.5t32.5 7.5l96 -2l38 261h-13q-31 2 -31 22q0 16 10.5 21.5t34.5 5.5h10q8 14 28 14q22 0 25 -16q183 -9 285 -81z
M414.5 104q96.5 44 152.5 123.5t56 186.5q0 113 -91 168.5t-246 65.5l-39 -260l139 -3q13 0 20.5 -5.5t7.5 -15.5q0 -29 -37 -29l-138 2l-42 -281q121 4 217.5 48z" />
    <glyph glyph-name="Dcaron" unicode="&#x10e;" horiz-adv-x="665" 
d="M537.5 616q103.5 -71 103.5 -215q0 -116 -65.5 -205.5t-180 -138.5t-256.5 -49h-81q-14 0 -20 4.5t-6 14.5q0 13 7.5 21.5t21.5 8.5h43l88 592h-15q-16 0 -24 3.5t-8 15.5q0 19 9 25t28 6h21q7 15 28 15q11 0 16 -4t6 -13q181 -10 284.5 -81zM374.5 104.5
q98.5 44.5 155.5 122t57 176.5q0 129 -94 183t-246 61l-90 -590q119 3 217.5 47.5zM572 923q5 -5 5 -13q0 -6 -4 -10.5t-6 -6.5q-57 -62 -92.5 -94t-62.5 -32q-16 0 -36.5 21t-51.5 61q-16 23 -27 35q-5 6 -5 13q0 9 8.5 17.5t17.5 8.5q10 0 22 -18q64 -94 81 -94
q11 0 44 30t74 77q8 10 21 10q7 0 12 -5z" />
    <glyph glyph-name="Dcroat" unicode="&#x110;" horiz-adv-x="709" 
d="M577 616q102 -72 102 -215q0 -117 -67.5 -206.5t-183.5 -138t-257 -48.5h-75q-26 0 -26 18q0 30 31 30h40l41 282l-97 2q-35 0 -35 21q0 14 11.5 22.5t32.5 7.5l96 -2l38 261h-13q-31 2 -31 22q0 16 10.5 21.5t34.5 5.5h10q8 14 28 14q22 0 25 -16q183 -9 285 -81z
M414.5 104q96.5 44 152.5 123.5t56 186.5q0 113 -91 168.5t-246 65.5l-39 -260l139 -3q13 0 20.5 -5.5t7.5 -15.5q0 -29 -37 -29l-138 2l-42 -281q121 4 217.5 48z" />
    <glyph glyph-name="uni1E0C" unicode="&#x1e0c;" horiz-adv-x="665" 
d="M537.5 616q103.5 -71 103.5 -215q0 -116 -65.5 -205.5t-180 -138.5t-256.5 -49h-81q-14 0 -20 4.5t-6 14.5q0 13 7.5 21.5t21.5 8.5h43l88 592h-15q-16 0 -24 3.5t-8 15.5q0 19 9 25t28 6h21q7 15 28 15q11 0 16 -4t6 -13q181 -10 284.5 -81zM374.5 104.5
q98.5 44.5 155.5 122t57 176.5q0 129 -94 183t-246 61l-90 -590q119 3 217.5 47.5zM223.5 -156.5q-10.5 10.5 -10.5 27.5q0 22 16 37.5t39 15.5q18 0 28.5 -10t10.5 -26q0 -23 -16 -39t-39 -16q-18 0 -28.5 10.5z" />
    <glyph glyph-name="uni1E0E" unicode="&#x1e0e;" horiz-adv-x="665" 
d="M537.5 616q103.5 -71 103.5 -215q0 -116 -65.5 -205.5t-180 -138.5t-256.5 -49h-81q-14 0 -20 4.5t-6 14.5q0 13 7.5 21.5t21.5 8.5h43l88 592h-15q-16 0 -24 3.5t-8 15.5q0 19 9 25t28 6h21q7 15 28 15q11 0 16 -4t6 -13q181 -10 284.5 -81zM374.5 104.5
q98.5 44.5 155.5 122t57 176.5q0 129 -94 183t-246 61l-90 -590q119 3 217.5 47.5zM112 -146.5q-4 4.5 -4 12.5q0 11 5.5 19t15.5 9q75 9 183 9q35 0 73 -2q12 -1 30 -1q10 0 15.5 -5t5.5 -13q0 -13 -8 -19.5t-20 -6.5l-26 1q-57 3 -79 3q-52 0 -145 -8q-25 -3 -36 -3
q-6 0 -10 4.5z" />
    <glyph glyph-name="E" unicode="E" horiz-adv-x="574" 
d="M605 682.5q5 -3.5 5 -12.5q0 -15 -8.5 -23.5t-20.5 -7.5q-92 9 -187 9q-85 0 -148 -5q-16 -118 -40 -244q0 -3 -1 -4q26 -1 84 -1q72 -2 100 -2l65 -2q19 0 19 -20q0 -13 -7.5 -22t-19.5 -9t-58 2l-111 3l-81 1q-14 -71 -29.5 -134t-31.5 -120l-6 -22q72 -6 168 -6
q102 0 174 9h5q20 0 20 -18q0 -29 -27 -33q-47 -8 -185 -8q-123 0 -235 11q-18 3 -18 18q0 14 7.5 23t18.5 9q12 0 18 -1q36 106 68 273h-20q-22 0 -22 19q0 13 8 22t20 9h23q1 1 1 3l14 80q20 120 26 162h-6q-16 0 -16 17q0 18 9.5 25t26.5 8q68 6 176 6q138 0 206 -9
q11 -2 16 -5.5z" />
    <glyph glyph-name="Eacute" unicode="&#xc9;" horiz-adv-x="574" 
d="M605 682.5q5 -3.5 5 -12.5q0 -15 -8.5 -23.5t-20.5 -7.5q-92 9 -187 9q-85 0 -148 -5q-16 -118 -40 -244q0 -3 -1 -4q26 -1 84 -1q72 -2 100 -2l65 -2q19 0 19 -20q0 -13 -7.5 -22t-19.5 -9t-58 2l-111 3l-81 1q-14 -71 -29.5 -134t-31.5 -120l-6 -22q72 -6 168 -6
q102 0 174 9h5q20 0 20 -18q0 -29 -27 -33q-47 -8 -185 -8q-123 0 -235 11q-18 3 -18 18q0 14 7.5 23t18.5 9q12 0 18 -1q36 106 68 273h-20q-22 0 -22 19q0 13 8 22t20 9h23q1 1 1 3l14 80q20 120 26 162h-6q-16 0 -16 17q0 18 9.5 25t26.5 8q68 6 176 6q138 0 206 -9
q11 -2 16 -5.5zM351.5 767q-5.5 5 -5.5 12q0 13 17 27l86 80q14 12 21.5 17t14.5 5q8 0 14 -5.5t6 -14.5t-5.5 -16t-16.5 -16l-94 -80q-10 -8 -15 -11t-11 -3t-11.5 5z" />
    <glyph glyph-name="Ebreve" unicode="&#x114;" horiz-adv-x="574" 
d="M605 682.5q5 -3.5 5 -12.5q0 -15 -8.5 -23.5t-20.5 -7.5q-92 9 -187 9q-85 0 -148 -5q-16 -118 -40 -244q0 -3 -1 -4q26 -1 84 -1q72 -2 100 -2l65 -2q19 0 19 -20q0 -13 -7.5 -22t-19.5 -9t-58 2l-111 3l-81 1q-14 -71 -29.5 -134t-31.5 -120l-6 -22q72 -6 168 -6
q102 0 174 9h5q20 0 20 -18q0 -29 -27 -33q-47 -8 -185 -8q-123 0 -235 11q-18 3 -18 18q0 14 7.5 23t18.5 9q12 0 18 -1q36 106 68 273h-20q-22 0 -22 19q0 13 8 22t20 9h23q1 1 1 3l14 80q20 120 26 162h-6q-16 0 -16 17q0 18 9.5 25t26.5 8q68 6 176 6q138 0 206 -9
q11 -2 16 -5.5zM334.5 786.5q-30.5 14.5 -47.5 39t-17 52.5q0 11 1 16q2 10 8.5 15.5t14.5 5.5q22 0 21 -15q-1 -4 -1 -13q1 -34 27 -54.5t66 -20.5q42 0 75.5 26t39.5 60q1 10 9 15t17 5t14.5 -5.5t4.5 -14.5q-5 -32 -28.5 -61.5t-59 -47t-74.5 -17.5q-40 0 -70.5 14.5z
" />
    <glyph glyph-name="Ecaron" unicode="&#x11a;" horiz-adv-x="574" 
d="M605 682.5q5 -3.5 5 -12.5q0 -15 -8.5 -23.5t-20.5 -7.5q-92 9 -187 9q-85 0 -148 -5q-16 -118 -40 -244q0 -3 -1 -4q26 -1 84 -1q72 -2 100 -2l65 -2q19 0 19 -20q0 -13 -7.5 -22t-19.5 -9t-58 2l-111 3l-81 1q-14 -71 -29.5 -134t-31.5 -120l-6 -22q72 -6 168 -6
q102 0 174 9h5q20 0 20 -18q0 -29 -27 -33q-47 -8 -185 -8q-123 0 -235 11q-18 3 -18 18q0 14 7.5 23t18.5 9q12 0 18 -1q36 106 68 273h-20q-22 0 -22 19q0 13 8 22t20 9h23q1 1 1 3l14 80q20 120 26 162h-6q-16 0 -16 17q0 18 9.5 25t26.5 8q68 6 176 6q138 0 206 -9
q11 -2 16 -5.5zM552 923q5 -5 5 -13q0 -6 -4 -10.5t-6 -6.5q-57 -62 -92.5 -94t-62.5 -32q-16 0 -36.5 21t-51.5 61q-16 23 -27 35q-5 6 -5 13q0 9 8.5 17.5t17.5 8.5q10 0 22 -18q64 -94 81 -94q11 0 44 30t74 77q8 10 21 10q7 0 12 -5z" />
    <glyph glyph-name="Ecircumflex" unicode="&#xca;" horiz-adv-x="574" 
d="M605 682.5q5 -3.5 5 -12.5q0 -15 -8.5 -23.5t-20.5 -7.5q-92 9 -187 9q-85 0 -148 -5q-16 -118 -40 -244q0 -3 -1 -4q26 -1 84 -1q72 -2 100 -2l65 -2q19 0 19 -20q0 -13 -7.5 -22t-19.5 -9t-58 2l-111 3l-81 1q-14 -71 -29.5 -134t-31.5 -120l-6 -22q72 -6 168 -6
q102 0 174 9h5q20 0 20 -18q0 -29 -27 -33q-47 -8 -185 -8q-123 0 -235 11q-18 3 -18 18q0 14 7.5 23t18.5 9q12 0 18 -1q36 106 68 273h-20q-22 0 -22 19q0 13 8 22t20 9h23q1 1 1 3l14 80q20 120 26 162h-6q-16 0 -16 17q0 18 9.5 25t26.5 8q68 6 176 6q138 0 206 -9
q11 -2 16 -5.5zM500 778q-24 46 -46 76t-33 30q-16 0 -115 -94q-17 -17 -28 -17q-8 0 -13.5 6t-5.5 13q0 9 11 20l31 28q46 42 76.5 65.5t48.5 23.5q27 0 51.5 -32.5t60.5 -94.5q4 -6 4 -11q0 -9 -7.5 -16t-16.5 -7q-13 0 -18 10z" />
    <glyph glyph-name="uni1EBE" unicode="&#x1ebe;" horiz-adv-x="574" 
d="M605 682.5q5 -3.5 5 -12.5q0 -15 -8.5 -23.5t-20.5 -7.5q-92 9 -187 9q-85 0 -148 -5q-16 -118 -40 -244q0 -3 -1 -4q26 -1 84 -1q72 -2 100 -2l65 -2q19 0 19 -20q0 -13 -7.5 -22t-19.5 -9t-58 2l-111 3l-81 1q-14 -71 -29.5 -134t-31.5 -120l-6 -22q72 -6 168 -6
q102 0 174 9h5q20 0 20 -18q0 -29 -27 -33q-47 -8 -185 -8q-123 0 -235 11q-18 3 -18 18q0 14 7.5 23t18.5 9q12 0 18 -1q36 106 68 273h-20q-22 0 -22 19q0 13 8 22t20 9h23q1 1 1 3l14 80q20 120 26 162h-6q-16 0 -16 17q0 18 9.5 25t26.5 8q68 6 176 6q138 0 206 -9
q11 -2 16 -5.5zM525.5 897.5q-4.5 4.5 -4.5 11.5q0 11 15 26l63 55q13 11 20 15.5t14 4.5q8 0 13 -5t5 -14t-4.5 -15t-15.5 -14l-69 -57q-14 -12 -25 -12q-7 0 -11.5 4.5zM500 779q-24 46 -46 76t-33 30q-16 0 -114 -94q-17 -17 -29 -17q-7 0 -12.5 5.5t-5.5 13.5
q0 10 11 20q24 21 32 29q47 43 76 65.5t47 22.5q27 0 51.5 -32.5t60.5 -94.5q4 -6 4 -11q0 -9 -7.5 -16t-16.5 -7q-13 0 -18 10z" />
    <glyph glyph-name="uni1EC6" unicode="&#x1ec6;" horiz-adv-x="574" 
d="M605 682.5q5 -3.5 5 -12.5q0 -15 -8.5 -23.5t-20.5 -7.5q-92 9 -187 9q-85 0 -148 -5q-16 -118 -40 -244q0 -3 -1 -4q26 -1 84 -1q72 -2 100 -2l65 -2q19 0 19 -20q0 -13 -7.5 -22t-19.5 -9t-58 2l-111 3l-81 1q-14 -71 -29.5 -134t-31.5 -120l-6 -22q72 -6 168 -6
q102 0 174 9h5q20 0 20 -18q0 -29 -27 -33q-47 -8 -185 -8q-123 0 -235 11q-18 3 -18 18q0 14 7.5 23t18.5 9q12 0 18 -1q36 106 68 273h-20q-22 0 -22 19q0 13 8 22t20 9h23q1 1 1 3l14 80q20 120 26 162h-6q-16 0 -16 17q0 18 9.5 25t26.5 8q68 6 176 6q138 0 206 -9
q11 -2 16 -5.5zM203.5 -156.5q-10.5 10.5 -10.5 27.5q0 22 16 37.5t39 15.5q18 0 28.5 -10t10.5 -26q0 -23 -16 -39t-39 -16q-18 0 -28.5 10.5zM500 778q-24 46 -46 76t-33 30q-16 0 -115 -94q-17 -17 -28 -17q-8 0 -13.5 6t-5.5 13q0 9 11 20l31 28q46 42 76.5 65.5
t48.5 23.5q27 0 51.5 -32.5t60.5 -94.5q4 -6 4 -11q0 -9 -7.5 -16t-16.5 -7q-13 0 -18 10z" />
    <glyph glyph-name="uni1EC0" unicode="&#x1ec0;" horiz-adv-x="574" 
d="M605 682.5q5 -3.5 5 -12.5q0 -15 -8.5 -23.5t-20.5 -7.5q-92 9 -187 9q-85 0 -148 -5q-16 -118 -40 -244q0 -3 -1 -4q26 -1 84 -1q72 -2 100 -2l65 -2q19 0 19 -20q0 -13 -7.5 -22t-19.5 -9t-58 2l-111 3l-81 1q-14 -71 -29.5 -134t-31.5 -120l-6 -22q72 -6 168 -6
q102 0 174 9h5q20 0 20 -18q0 -29 -27 -33q-47 -8 -185 -8q-123 0 -235 11q-18 3 -18 18q0 14 7.5 23t18.5 9q12 0 18 -1q36 106 68 273h-20q-22 0 -22 19q0 13 8 22t20 9h23q1 1 1 3l14 80q20 120 26 162h-6q-16 0 -16 17q0 18 9.5 25t26.5 8q68 6 176 6q138 0 206 -9
q11 -2 16 -5.5zM560 905l-49 57q-11 13 -11 22q0 11 8 18.5t19 7.5q6 0 11.5 -4.5t14.5 -15.5l43 -55q8 -9 8 -18q0 -10 -7 -17t-16 -7q-10 0 -21 12zM500 779q-25 47 -47 76.5t-32 29.5q-17 0 -115 -94q-17 -17 -28 -17q-8 0 -13.5 6t-5.5 13q0 9 11 20l32 28q41 39 73 64
t51 25q25 0 48 -29t41 -59.5t23 -38.5q4 -6 4 -11q0 -9 -8 -16t-17 -7q-12 0 -17 10z" />
    <glyph glyph-name="uni1EC2" unicode="&#x1ec2;" horiz-adv-x="574" 
d="M605 682.5q5 -3.5 5 -12.5q0 -15 -8.5 -23.5t-20.5 -7.5q-92 9 -187 9q-85 0 -148 -5q-16 -118 -40 -244q0 -3 -1 -4q26 -1 84 -1q72 -2 100 -2l65 -2q19 0 19 -20q0 -13 -7.5 -22t-19.5 -9t-58 2l-111 3l-81 1q-14 -71 -29.5 -134t-31.5 -120l-6 -22q72 -6 168 -6
q102 0 174 9h5q20 0 20 -18q0 -29 -27 -33q-47 -8 -185 -8q-123 0 -235 11q-18 3 -18 18q0 14 7.5 23t18.5 9q12 0 18 -1q36 106 68 273h-20q-22 0 -22 19q0 13 8 22t20 9h23q1 1 1 3l14 80q20 120 26 162h-6q-16 0 -16 17q0 18 9.5 25t26.5 8q68 6 176 6q138 0 206 -9
q11 -2 16 -5.5zM559.5 892q-4.5 4 -4.5 10q0 5 2 14t3 16q3 14 31 34q14 11 21 18.5t7 16.5q0 19 -34 19q-33 0 -49 -27q-3 -9 -14 -9q-14 0 -14 12q0 20 23.5 37.5t55.5 17.5q29 0 47.5 -13.5t18.5 -33.5q0 -18 -9.5 -29t-26.5 -23q-7 -5 -13.5 -10.5t-7.5 -11.5
q-4 -19 -5 -25q-4 -17 -21 -17q-6 0 -10.5 4zM500 779q-25 47 -47 76.5t-32 29.5q-17 0 -115 -94q-17 -17 -28 -17q-8 0 -13.5 6t-5.5 13q0 9 11 20l32 28q41 39 73 64t51 25q25 0 48 -29t41 -59.5t23 -38.5q4 -6 4 -11q0 -9 -8 -16t-17 -7q-12 0 -17 10z" />
    <glyph glyph-name="uni1EC4" unicode="&#x1ec4;" horiz-adv-x="574" 
d="M605 682.5q5 -3.5 5 -12.5q0 -15 -8.5 -23.5t-20.5 -7.5q-92 9 -187 9q-85 0 -148 -5q-16 -118 -40 -244q0 -3 -1 -4q26 -1 84 -1q72 -2 100 -2l65 -2q19 0 19 -20q0 -13 -7.5 -22t-19.5 -9t-58 2l-111 3l-81 1q-14 -71 -29.5 -134t-31.5 -120l-6 -22q72 -6 168 -6
q102 0 174 9h5q20 0 20 -18q0 -29 -27 -33q-47 -8 -185 -8q-123 0 -235 11q-18 3 -18 18q0 14 7.5 23t18.5 9q12 0 18 -1q36 106 68 273h-20q-22 0 -22 19q0 13 8 22t20 9h23q1 1 1 3l14 80q20 120 26 162h-6q-16 0 -16 17q0 18 9.5 25t26.5 8q68 6 176 6q138 0 206 -9
q11 -2 16 -5.5zM289 962.5q-4 4.5 -4 11.5q0 9 9 18q27 26 46.5 37t43.5 11q32 0 78 -22q4 -2 22.5 -11.5t33.5 -9.5q16 0 39 19q4 3 10.5 7.5t12.5 4.5q8 0 13 -5.5t5 -12.5q0 -9 -11 -18q-22 -18 -40 -26t-37 -8q-15 0 -27.5 4.5t-25 11t-19.5 10.5q-13 6 -30.5 12
t-28.5 6t-21 -6.5t-19 -14t-13 -10.5q-14 -13 -25 -13q-8 0 -12 4.5zM500 779q-25 47 -47 76.5t-32 29.5q-17 0 -115 -94q-17 -17 -28 -17q-8 0 -13.5 6t-5.5 13q0 9 11 20l32 28q41 39 73 64t51 25q25 0 48 -29t41 -59.5t23 -38.5q4 -6 4 -11q0 -9 -8 -16t-17 -7
q-12 0 -17 10z" />
    <glyph glyph-name="Edieresis" unicode="&#xcb;" horiz-adv-x="574" 
d="M605 682.5q5 -3.5 5 -12.5q0 -15 -8.5 -23.5t-20.5 -7.5q-92 9 -187 9q-85 0 -148 -5q-16 -118 -40 -244q0 -3 -1 -4q26 -1 84 -1q72 -2 100 -2l65 -2q19 0 19 -20q0 -13 -7.5 -22t-19.5 -9t-58 2l-111 3l-81 1q-14 -71 -29.5 -134t-31.5 -120l-6 -22q72 -6 168 -6
q102 0 174 9h5q20 0 20 -18q0 -29 -27 -33q-47 -8 -185 -8q-123 0 -235 11q-18 3 -18 18q0 14 7.5 23t18.5 9q12 0 18 -1q36 106 68 273h-20q-22 0 -22 19q0 13 8 22t20 9h23q1 1 1 3l14 80q20 120 26 162h-6q-16 0 -16 17q0 18 9.5 25t26.5 8q68 6 176 6q138 0 206 -9
q11 -2 16 -5.5zM259 792.5q-11 10.5 -11 27.5q0 23 16 38t39 15q18 0 29.5 -10t11.5 -26q0 -22 -17 -38.5t-39 -16.5q-18 0 -29 10.5zM487.5 792.5q-10.5 10.5 -10.5 27.5q0 23 16 38t39 15q17 0 28 -10t11 -26q0 -22 -16 -38.5t-39 -16.5q-18 0 -28.5 10.5z" />
    <glyph glyph-name="Edotaccent" unicode="&#x116;" horiz-adv-x="574" 
d="M605 682.5q5 -3.5 5 -12.5q0 -15 -8.5 -23.5t-20.5 -7.5q-92 9 -187 9q-85 0 -148 -5q-16 -118 -40 -244q0 -3 -1 -4q26 -1 84 -1q72 -2 100 -2l65 -2q19 0 19 -20q0 -13 -7.5 -22t-19.5 -9t-58 2l-111 3l-81 1q-14 -71 -29.5 -134t-31.5 -120l-6 -22q72 -6 168 -6
q102 0 174 9h5q20 0 20 -18q0 -29 -27 -33q-47 -8 -185 -8q-123 0 -235 11q-18 3 -18 18q0 14 7.5 23t18.5 9q12 0 18 -1q36 106 68 273h-20q-22 0 -22 19q0 13 8 22t20 9h23q1 1 1 3l14 80q20 120 26 162h-6q-16 0 -16 17q0 18 9.5 25t26.5 8q68 6 176 6q138 0 206 -9
q11 -2 16 -5.5zM372.5 792.5q-10.5 10.5 -10.5 27.5q0 22 16 37.5t39 15.5q17 0 28 -10t11 -26q0 -23 -16 -39t-39 -16q-18 0 -28.5 10.5z" />
    <glyph glyph-name="uni1EB8" unicode="&#x1eb8;" horiz-adv-x="574" 
d="M605 682.5q5 -3.5 5 -12.5q0 -15 -8.5 -23.5t-20.5 -7.5q-92 9 -187 9q-85 0 -148 -5q-16 -118 -40 -244q0 -3 -1 -4q26 -1 84 -1q72 -2 100 -2l65 -2q19 0 19 -20q0 -13 -7.5 -22t-19.5 -9t-58 2l-111 3l-81 1q-14 -71 -29.5 -134t-31.5 -120l-6 -22q72 -6 168 -6
q102 0 174 9h5q20 0 20 -18q0 -29 -27 -33q-47 -8 -185 -8q-123 0 -235 11q-18 3 -18 18q0 14 7.5 23t18.5 9q12 0 18 -1q36 106 68 273h-20q-22 0 -22 19q0 13 8 22t20 9h23q1 1 1 3l14 80q20 120 26 162h-6q-16 0 -16 17q0 18 9.5 25t26.5 8q68 6 176 6q138 0 206 -9
q11 -2 16 -5.5zM203.5 -156.5q-10.5 10.5 -10.5 27.5q0 22 16 37.5t39 15.5q18 0 28.5 -10t10.5 -26q0 -23 -16 -39t-39 -16q-18 0 -28.5 10.5z" />
    <glyph glyph-name="Egrave" unicode="&#xc8;" horiz-adv-x="574" 
d="M605 682.5q5 -3.5 5 -12.5q0 -15 -8.5 -23.5t-20.5 -7.5q-92 9 -187 9q-85 0 -148 -5q-16 -118 -40 -244q0 -3 -1 -4q26 -1 84 -1q72 -2 100 -2l65 -2q19 0 19 -20q0 -13 -7.5 -22t-19.5 -9t-58 2l-111 3l-81 1q-14 -71 -29.5 -134t-31.5 -120l-6 -22q72 -6 168 -6
q102 0 174 9h5q20 0 20 -18q0 -29 -27 -33q-47 -8 -185 -8q-123 0 -235 11q-18 3 -18 18q0 14 7.5 23t18.5 9q12 0 18 -1q36 106 68 273h-20q-22 0 -22 19q0 13 8 22t20 9h23q1 1 1 3l14 80q20 120 26 162h-6q-16 0 -16 17q0 18 9.5 25t26.5 8q68 6 176 6q138 0 206 -9
q11 -2 16 -5.5zM438 762.5q-5 2.5 -11 10.5l-64 86q-10 13 -10 22q0 12 7.5 19.5t17.5 7.5q13 0 27 -21l58 -85q9 -10 9 -19t-7 -16t-16 -7q-6 0 -11 2.5z" />
    <glyph glyph-name="uni1EBA" unicode="&#x1eba;" horiz-adv-x="574" 
d="M605 682.5q5 -3.5 5 -12.5q0 -15 -8.5 -23.5t-20.5 -7.5q-92 9 -187 9q-85 0 -148 -5q-16 -118 -40 -244q0 -3 -1 -4q26 -1 84 -1q72 -2 100 -2l65 -2q19 0 19 -20q0 -13 -7.5 -22t-19.5 -9t-58 2l-111 3l-81 1q-14 -71 -29.5 -134t-31.5 -120l-6 -22q72 -6 168 -6
q102 0 174 9h5q20 0 20 -18q0 -29 -27 -33q-47 -8 -185 -8q-123 0 -235 11q-18 3 -18 18q0 14 7.5 23t18.5 9q12 0 18 -1q36 106 68 273h-20q-22 0 -22 19q0 13 8 22t20 9h23q1 1 1 3l14 80q20 120 26 162h-6q-16 0 -16 17q0 18 9.5 25t26.5 8q68 6 176 6q138 0 206 -9
q11 -2 16 -5.5zM388 769.5q-5 6.5 -4 16.5q1 7 7 38q2 12 13 22.5t31 24.5q21 16 32 27t12 23q3 41 -55 41q-24 0 -41 -12t-37 -34q-10 -11 -18 -11t-14 5.5t-6 11.5t8 18q26 29 51 45t62 16q44 0 70.5 -19.5t26.5 -53.5q0 -26 -15.5 -43.5t-43.5 -35.5q-27 -16 -29 -27
l-6 -33q-4 -26 -28 -26q-11 0 -16 6.5z" />
    <glyph glyph-name="Emacron" unicode="&#x112;" horiz-adv-x="574" 
d="M605 682.5q5 -3.5 5 -12.5q0 -15 -8.5 -23.5t-20.5 -7.5q-92 9 -187 9q-85 0 -148 -5q-16 -118 -40 -244q0 -3 -1 -4q26 -1 84 -1q72 -2 100 -2l65 -2q19 0 19 -20q0 -13 -7.5 -22t-19.5 -9t-58 2l-111 3l-81 1q-14 -71 -29.5 -134t-31.5 -120l-6 -22q72 -6 168 -6
q102 0 174 9h5q20 0 20 -18q0 -29 -27 -33q-47 -8 -185 -8q-123 0 -235 11q-18 3 -18 18q0 14 7.5 23t18.5 9q12 0 18 -1q36 106 68 273h-20q-22 0 -22 19q0 13 8 22t20 9h23q1 1 1 3l14 80q20 120 26 162h-6q-16 0 -16 17q0 18 9.5 25t26.5 8q68 6 176 6q138 0 206 -9
q11 -2 16 -5.5zM226 797q0 11 6.5 19.5t17.5 9.5q63 14 176 14h139q22 0 22 -19q0 -26 -28 -26q-17 0 -30 1l-115 1q-60 0 -103 -6t-48 -7q-15 -3 -21 -3q-16 0 -16 16z" />
    <glyph glyph-name="Eogonek" unicode="&#x118;" horiz-adv-x="574" 
d="M605 682.5q5 -3.5 5 -12.5q0 -15 -8.5 -23.5t-20.5 -7.5q-92 9 -187 9q-85 0 -148 -5q-16 -118 -40 -244q0 -3 -1 -4q26 -1 84 -1q72 -2 100 -2l65 -2q19 0 19 -20q0 -13 -7.5 -22t-19.5 -9t-58 2l-111 3l-81 1q-14 -71 -29.5 -134t-31.5 -120l-6 -22q72 -6 168 -6
q102 0 174 9h5q20 0 20 -18q0 -21 -13 -28l-3 -3q-34 -25 -53 -46t-19 -46q0 -28 41 -28q8 0 18 3.5t15 3.5q4 0 7 -3.5t3 -8.5q0 -32 -46 -32q-36 0 -59.5 17t-23.5 48q0 45 44 84q-72 -2 -123 -2q-123 0 -235 11q-18 3 -18 18q0 14 7.5 23t18.5 9q12 0 18 -1
q36 106 68 273h-20q-22 0 -22 19q0 13 8 22t20 9h23q1 1 1 3l14 80q20 120 26 162h-6q-16 0 -16 17q0 18 9.5 25t26.5 8q68 6 176 6q138 0 206 -9q11 -2 16 -5.5z" />
    <glyph glyph-name="uni1EBC" unicode="&#x1ebc;" horiz-adv-x="574" 
d="M605 682.5q5 -3.5 5 -12.5q0 -15 -8.5 -23.5t-20.5 -7.5q-92 9 -187 9q-85 0 -148 -5q-16 -118 -40 -244q0 -3 -1 -4q26 -1 84 -1q72 -2 100 -2l65 -2q19 0 19 -20q0 -13 -7.5 -22t-19.5 -9t-58 2l-111 3l-81 1q-14 -71 -29.5 -134t-31.5 -120l-6 -22q72 -6 168 -6
q102 0 174 9h5q20 0 20 -18q0 -29 -27 -33q-47 -8 -185 -8q-123 0 -235 11q-18 3 -18 18q0 14 7.5 23t18.5 9q12 0 18 -1q36 106 68 273h-20q-22 0 -22 19q0 13 8 22t20 9h23q1 1 1 3l14 80q20 120 26 162h-6q-16 0 -16 17q0 18 9.5 25t26.5 8q68 6 176 6q138 0 206 -9
q11 -2 16 -5.5zM254.5 776.5q-4.5 4.5 -4.5 12.5q0 10 9 19q27 28 46.5 39.5t44.5 11.5q42 0 81 -21q3 -2 15 -9t22 -10.5t18 -3.5q9 0 17.5 5t19.5 14q13 13 22 13q7 0 12.5 -6t5.5 -14q0 -11 -8 -19q-23 -19 -41.5 -27.5t-37.5 -8.5q-13 0 -23.5 4t-25.5 12q-12 7 -23 11
q-6 2 -25.5 11t-33.5 9q-10 0 -19.5 -6.5t-19 -15.5t-13.5 -12q-16 -13 -26 -13q-8 0 -12.5 4.5z" />
    <glyph glyph-name="F" unicode="F" horiz-adv-x="566" 
d="M606 670q0 -14 -8 -23t-22 -8q-87 13 -187 13q-59 0 -137 -5q-8 -109 -35 -268q43 4 108 4q106 0 147 -5q20 -3 20 -21q0 -14 -7 -21.5t-22 -6.5q-55 4 -137 4q-70 0 -118 -4q-33 -191 -63 -301q-3 -10 -11.5 -16t-20.5 -6t-18 6.5t-4 16.5q34 131 64 294l-55 -7h-2
q-16 0 -16 18q0 13 7.5 22.5t20.5 10.5l53 6q25 143 34 271q-12 0 -38 -2h-3q-19 0 -19 17q0 30 30 33l34 2l2 24q1 13 9.5 20t22.5 7q26 0 23 -27q0 -7 -2 -21q77 5 137 5q137 0 194 -13q19 -5 19 -19z" />
    <glyph glyph-name="G" unicode="G" horiz-adv-x="736" 
d="M282 588.5q-77 -49.5 -121.5 -131t-44.5 -171.5q0 -67 27.5 -120t80.5 -83t126 -30q102 0 160.5 61.5t83.5 181.5l-154 3q-23 0 -23 20q0 15 9 23t21 8l244 -5q23 0 23 -19q0 -14 -8 -22.5t-21 -8.5l-39 1q-29 -144 -100.5 -219t-195.5 -75q-90 0 -155.5 38t-99.5 102.5
t-34 143.5q0 105 52.5 198t142 149t194.5 56q132 0 205 -97q5 19 10 42q4 14 10.5 19t19.5 5q12 0 18.5 -5t5.5 -14q-10 -62 -26 -88q-11 -18 -33 -18q-9 0 -15.5 3.5t-15.5 13.5q-39 43 -77 65.5t-102 22.5q-91 0 -168 -49.5z" />
    <glyph glyph-name="Gbreve" unicode="&#x11e;" horiz-adv-x="736" 
d="M282 588.5q-77 -49.5 -121.5 -131t-44.5 -171.5q0 -67 27.5 -120t80.5 -83t126 -30q102 0 160.5 61.5t83.5 181.5l-154 3q-23 0 -23 20q0 15 9 23t21 8l244 -5q23 0 23 -19q0 -14 -8 -22.5t-21 -8.5l-39 1q-29 -144 -100.5 -219t-195.5 -75q-90 0 -155.5 38t-99.5 102.5
t-34 143.5q0 105 52.5 198t142 149t194.5 56q132 0 205 -97q5 19 10 42q4 14 10.5 19t19.5 5q12 0 18.5 -5t5.5 -14q-10 -62 -26 -88q-11 -18 -33 -18q-9 0 -15.5 3.5t-15.5 13.5q-39 43 -77 65.5t-102 22.5q-91 0 -168 -49.5zM398.5 786.5q-30.5 14.5 -47.5 39t-17 52.5
q0 11 1 16q2 10 8.5 15.5t14.5 5.5q22 0 21 -15q-1 -4 -1 -13q1 -34 27 -54.5t66 -20.5q42 0 75.5 26t39.5 60q1 10 9 15t17 5t14.5 -5.5t4.5 -14.5q-5 -32 -28.5 -61.5t-59 -47t-74.5 -17.5q-40 0 -70.5 14.5z" />
    <glyph glyph-name="Gcaron" unicode="&#x1e6;" horiz-adv-x="736" 
d="M282 588.5q-77 -49.5 -121.5 -131t-44.5 -171.5q0 -67 27.5 -120t80.5 -83t126 -30q102 0 160.5 61.5t83.5 181.5l-154 3q-23 0 -23 20q0 15 9 23t21 8l244 -5q23 0 23 -19q0 -14 -8 -22.5t-21 -8.5l-39 1q-29 -144 -100.5 -219t-195.5 -75q-90 0 -155.5 38t-99.5 102.5
t-34 143.5q0 105 52.5 198t142 149t194.5 56q132 0 205 -97q5 19 10 42q4 14 10.5 19t19.5 5q12 0 18.5 -5t5.5 -14q-10 -62 -26 -88q-11 -18 -33 -18q-9 0 -15.5 3.5t-15.5 13.5q-39 43 -77 65.5t-102 22.5q-91 0 -168 -49.5zM616 923q5 -5 5 -13q0 -6 -4 -10.5t-6 -6.5
q-57 -62 -92.5 -94t-62.5 -32q-16 0 -36.5 21t-51.5 61q-16 23 -27 35q-5 6 -5 13q0 9 8.5 17.5t17.5 8.5q10 0 22 -18q64 -94 81 -94q11 0 44 30t74 77q8 10 21 10q7 0 12 -5z" />
    <glyph glyph-name="Gcircumflex" unicode="&#x11c;" horiz-adv-x="736" 
d="M282 588.5q-77 -49.5 -121.5 -131t-44.5 -171.5q0 -67 27.5 -120t80.5 -83t126 -30q102 0 160.5 61.5t83.5 181.5l-154 3q-23 0 -23 20q0 15 9 23t21 8l244 -5q23 0 23 -19q0 -14 -8 -22.5t-21 -8.5l-39 1q-29 -144 -100.5 -219t-195.5 -75q-90 0 -155.5 38t-99.5 102.5
t-34 143.5q0 105 52.5 198t142 149t194.5 56q132 0 205 -97q5 19 10 42q4 14 10.5 19t19.5 5q12 0 18.5 -5t5.5 -14q-10 -62 -26 -88q-11 -18 -33 -18q-9 0 -15.5 3.5t-15.5 13.5q-39 43 -77 65.5t-102 22.5q-91 0 -168 -49.5zM564 778q-24 46 -46 76t-33 30q-16 0 -115 -94
q-17 -17 -28 -17q-8 0 -13.5 6t-5.5 13q0 9 11 20l31 28q46 42 76.5 65.5t48.5 23.5q27 0 51.5 -32.5t60.5 -94.5q4 -6 4 -11q0 -9 -7.5 -16t-16.5 -7q-13 0 -18 10z" />
    <glyph glyph-name="uni0122" unicode="&#x122;" horiz-adv-x="736" 
d="M282 588.5q-77 -49.5 -121.5 -131t-44.5 -171.5q0 -67 27.5 -120t80.5 -83t126 -30q102 0 160.5 61.5t83.5 181.5l-154 3q-23 0 -23 20q0 15 9 23t21 8l244 -5q23 0 23 -19q0 -14 -8 -22.5t-21 -8.5l-39 1q-29 -144 -100.5 -219t-195.5 -75q-90 0 -155.5 38t-99.5 102.5
t-34 143.5q0 105 52.5 198t142 149t194.5 56q132 0 205 -97q5 19 10 42q4 14 10.5 19t19.5 5q12 0 18.5 -5t5.5 -14q-10 -62 -26 -88q-11 -18 -33 -18q-9 0 -15.5 3.5t-15.5 13.5q-39 43 -77 65.5t-102 22.5q-91 0 -168 -49.5zM345.5 -87.5q12.5 -11.5 12.5 -31.5
q0 -63 -107 -142q-6 -6 -13 -6q-6 0 -11.5 5t-5.5 12q0 4 5 11l16 15q36 29 52 52h-2q-15 0 -26 11t-11 28q0 24 18.5 40.5t40.5 16.5q19 0 31.5 -11.5z" />
    <glyph glyph-name="Gdotaccent" unicode="&#x120;" horiz-adv-x="736" 
d="M282 588.5q-77 -49.5 -121.5 -131t-44.5 -171.5q0 -67 27.5 -120t80.5 -83t126 -30q102 0 160.5 61.5t83.5 181.5l-154 3q-23 0 -23 20q0 15 9 23t21 8l244 -5q23 0 23 -19q0 -14 -8 -22.5t-21 -8.5l-39 1q-29 -144 -100.5 -219t-195.5 -75q-90 0 -155.5 38t-99.5 102.5
t-34 143.5q0 105 52.5 198t142 149t194.5 56q132 0 205 -97q5 19 10 42q4 14 10.5 19t19.5 5q12 0 18.5 -5t5.5 -14q-10 -62 -26 -88q-11 -18 -33 -18q-9 0 -15.5 3.5t-15.5 13.5q-39 43 -77 65.5t-102 22.5q-91 0 -168 -49.5zM436.5 792.5q-10.5 10.5 -10.5 27.5
q0 22 16 37.5t39 15.5q17 0 28 -10t11 -26q0 -23 -16 -39t-39 -16q-18 0 -28.5 10.5z" />
    <glyph glyph-name="uni1E20" unicode="&#x1e20;" horiz-adv-x="736" 
d="M282 588.5q-77 -49.5 -121.5 -131t-44.5 -171.5q0 -67 27.5 -120t80.5 -83t126 -30q102 0 160.5 61.5t83.5 181.5l-154 3q-23 0 -23 20q0 15 9 23t21 8l244 -5q23 0 23 -19q0 -14 -8 -22.5t-21 -8.5l-39 1q-29 -144 -100.5 -219t-195.5 -75q-90 0 -155.5 38t-99.5 102.5
t-34 143.5q0 105 52.5 198t142 149t194.5 56q132 0 205 -97q5 19 10 42q4 14 10.5 19t19.5 5q12 0 18.5 -5t5.5 -14q-10 -62 -26 -88q-11 -18 -33 -18q-9 0 -15.5 3.5t-15.5 13.5q-39 43 -77 65.5t-102 22.5q-91 0 -168 -49.5zM290 797q0 11 6.5 19.5t17.5 9.5q63 14 176 14
h139q22 0 22 -19q0 -26 -28 -26q-17 0 -30 1l-115 1q-60 0 -103 -6t-48 -7q-15 -3 -21 -3q-16 0 -16 16z" />
    <glyph glyph-name="H" unicode="H" horiz-adv-x="699" 
d="M652 335.5q6 -4.5 6 -16.5q0 -14 -9 -22t-25 -8l-33 1l-38 -263q-5 -28 -30 -28q-29 0 -24 27l39 264l-354 6l-72 -282q-5 -20 -30 -20q-15 0 -20.5 6.5t-2.5 18.5l71 278l-36 1q-21 0 -21 21q0 13 8.5 21t22.5 8l39 -1l89 349q4 13 13 19.5t20 6.5q22 0 22 -21
q0 -6 -1 -9l-89 -345l348 -6l52 353q2 13 10 20.5t21 7.5t19 -7.5t4 -18.5l-52 -355l34 -1q13 0 19 -4.5z" />
    <glyph glyph-name="Hbar" unicode="&#x126;" horiz-adv-x="708" 
d="M703 522q0 -14 -9.5 -21.5t-25.5 -7.5l-40 1l-22 -153l33 -1q13 0 19 -4.5t6 -16.5q0 -14 -9 -22t-25 -8l-32 1l-38 -263q-2 -13 -10 -20.5t-21 -7.5q-27 0 -24 27l39 264l-354 6l-72 -282q-5 -20 -30 -20q-15 0 -20.5 6.5t-2.5 18.5l72 278l-36 1q-21 0 -21 21
q0 13 8.5 21t22.5 8l38 -1l40 154l-53 1q-12 1 -18.5 6.5t-6.5 13.5q0 12 11 19.5t24 7.5l55 -1l38 148q7 26 33 26q22 0 22 -20q0 -2 -2 -10l-37 -145l327 -5l22 152q2 13 9.5 20.5t21.5 7.5q13 0 19 -7.5t4 -18.5l-23 -154l41 -1q27 0 27 -19zM574 495l-331 5l-40 -153
l349 -6z" />
    <glyph glyph-name="uni1E2A" unicode="&#x1e2a;" horiz-adv-x="699" 
d="M652 335.5q6 -4.5 6 -16.5q0 -14 -9 -22t-25 -8l-33 1l-38 -263q-5 -28 -30 -28q-29 0 -24 27l39 264l-354 6l-72 -282q-5 -20 -30 -20q-15 0 -20.5 6.5t-2.5 18.5l71 278l-36 1q-21 0 -21 21q0 13 8.5 21t22.5 8l39 -1l89 349q4 13 13 19.5t20 6.5q22 0 22 -21
q0 -6 -1 -9l-89 -345l348 -6l52 353q2 13 10 20.5t21 7.5t19 -7.5t4 -18.5l-52 -355l34 -1q13 0 19 -4.5zM212.5 -166.5q-30.5 14.5 -47.5 39t-17 52.5q0 11 1 16q2 10 8.5 15.5t14.5 5.5q22 0 21 -15q-1 -4 -1 -13q1 -34 27 -54.5t66 -20.5q42 0 75.5 26t39.5 60q1 10 9 15
t17 5t14.5 -5.5t4.5 -14.5q-5 -32 -28.5 -61.5t-59 -47t-74.5 -17.5q-40 0 -70.5 14.5z" />
    <glyph glyph-name="Hcircumflex" unicode="&#x124;" horiz-adv-x="699" 
d="M652 335.5q6 -4.5 6 -16.5q0 -14 -9 -22t-25 -8l-33 1l-38 -263q-5 -28 -30 -28q-29 0 -24 27l39 264l-354 6l-72 -282q-5 -20 -30 -20q-15 0 -20.5 6.5t-2.5 18.5l71 278l-36 1q-21 0 -21 21q0 13 8.5 21t22.5 8l39 -1l89 349q4 13 13 19.5t20 6.5q22 0 22 -21
q0 -6 -1 -9l-89 -345l348 -6l52 353q2 13 10 20.5t21 7.5t19 -7.5t4 -18.5l-52 -355l34 -1q13 0 19 -4.5zM550 778q-24 46 -46 76t-33 30q-16 0 -115 -94q-17 -17 -28 -17q-8 0 -13.5 6t-5.5 13q0 9 11 20l31 28q46 42 76.5 65.5t48.5 23.5q27 0 51.5 -32.5t60.5 -94.5
q4 -6 4 -11q0 -9 -7.5 -16t-16.5 -7q-13 0 -18 10z" />
    <glyph glyph-name="uni1E24" unicode="&#x1e24;" horiz-adv-x="699" 
d="M652 335.5q6 -4.5 6 -16.5q0 -14 -9 -22t-25 -8l-33 1l-38 -263q-5 -28 -30 -28q-29 0 -24 27l39 264l-354 6l-72 -282q-5 -20 -30 -20q-15 0 -20.5 6.5t-2.5 18.5l71 278l-36 1q-21 0 -21 21q0 13 8.5 21t22.5 8l39 -1l89 349q4 13 13 19.5t20 6.5q22 0 22 -21
q0 -6 -1 -9l-89 -345l348 -6l52 353q2 13 10 20.5t21 7.5t19 -7.5t4 -18.5l-52 -355l34 -1q13 0 19 -4.5zM243.5 -156.5q-10.5 10.5 -10.5 27.5q0 22 16 37.5t39 15.5q18 0 28.5 -10t10.5 -26q0 -23 -16 -39t-39 -16q-18 0 -28.5 10.5z" />
    <glyph glyph-name="I" unicode="I" horiz-adv-x="438" 
d="M471 697.5q4 -4.5 4 -13.5q0 -15 -9 -23.5t-22 -7.5q-52 5 -102 5q-31 -176 -59 -311.5t-67 -288.5l125 -2q11 0 15.5 -4.5t4.5 -14.5q0 -15 -7.5 -23.5t-22.5 -8.5l-303 4q-18 2 -18 21q0 15 8.5 22.5t20.5 7.5l124 -2q37 155 65.5 292t59.5 308q-8 0 -94 -6
q-54 -4 -60 -4q-7 0 -12 5.5t-5 15.5q0 13 8.5 20.5t20.5 9.5q17 3 67.5 6.5t91.5 3.5q107 0 152 -6q10 -1 14 -5.5z" />
    <glyph glyph-name="IJ" unicode="&#x132;" horiz-adv-x="1006" 
d="M471 697.5q4 -4.5 4 -13.5q0 -15 -9 -23.5t-22 -7.5q-52 5 -102 5q-31 -176 -59 -311.5t-67 -288.5l125 -2q11 0 15.5 -4.5t4.5 -14.5q0 -15 -7.5 -23.5t-22.5 -8.5l-303 4q-18 2 -18 21q0 15 8.5 22.5t20.5 7.5l124 -2q37 155 65.5 292t59.5 308q-8 0 -94 -6
q-54 -4 -60 -4q-7 0 -12 5.5t-5 15.5q0 13 8.5 20.5t20.5 9.5q17 3 67.5 6.5t91.5 3.5q107 0 152 -6q10 -1 14 -5.5zM1054 682q0 -14 -7.5 -23t-22.5 -9h-65q-22 -113 -58 -311l-14 -80q-22 -127 -84.5 -192.5t-158.5 -65.5q-87 0 -131 48t-44 132q0 37 7 72q3 17 10 24
t23 7q23 0 23 -21q0 -6 -1 -9q-8 -43 -8 -75q0 -127 116 -127q70 0 122 50t70 159l16 86q36 196 59 302l-84 -2q-10 0 -15.5 5t-5.5 13q0 14 7.5 22t17.5 9q41 4 128 4q70 0 81 -1q19 -1 19 -17z" />
    <glyph glyph-name="Iacute" unicode="&#xcd;" horiz-adv-x="438" 
d="M471 697.5q4 -4.5 4 -13.5q0 -15 -9 -23.5t-22 -7.5q-52 5 -102 5q-31 -176 -59 -311.5t-67 -288.5l125 -2q11 0 15.5 -4.5t4.5 -14.5q0 -15 -7.5 -23.5t-22.5 -8.5l-303 4q-18 2 -18 21q0 15 8.5 22.5t20.5 7.5l124 -2q37 155 65.5 292t59.5 308q-8 0 -94 -6
q-54 -4 -60 -4q-7 0 -12 5.5t-5 15.5q0 13 8.5 20.5t20.5 9.5q17 3 67.5 6.5t91.5 3.5q107 0 152 -6q10 -1 14 -5.5zM269.5 767q-5.5 5 -5.5 12q0 13 17 27l86 80q14 12 21.5 17t14.5 5q8 0 14 -5.5t6 -14.5t-5.5 -16t-16.5 -16l-94 -80q-10 -8 -15 -11t-11 -3t-11.5 5z" />
    <glyph glyph-name="Ibreve" unicode="&#x12c;" horiz-adv-x="438" 
d="M471 697.5q4 -4.5 4 -13.5q0 -15 -9 -23.5t-22 -7.5q-52 5 -102 5q-31 -176 -59 -311.5t-67 -288.5l125 -2q11 0 15.5 -4.5t4.5 -14.5q0 -15 -7.5 -23.5t-22.5 -8.5l-303 4q-18 2 -18 21q0 15 8.5 22.5t20.5 7.5l124 -2q37 155 65.5 292t59.5 308q-8 0 -94 -6
q-54 -4 -60 -4q-7 0 -12 5.5t-5 15.5q0 13 8.5 20.5t20.5 9.5q17 3 67.5 6.5t91.5 3.5q107 0 152 -6q10 -1 14 -5.5zM252.5 786.5q-30.5 14.5 -47.5 39t-17 52.5q0 11 1 16q2 10 8.5 15.5t14.5 5.5q22 0 21 -15q-1 -4 -1 -13q1 -34 27 -54.5t66 -20.5q42 0 75.5 26t39.5 60
q1 10 9 15t17 5t14.5 -5.5t4.5 -14.5q-5 -32 -28.5 -61.5t-59 -47t-74.5 -17.5q-40 0 -70.5 14.5z" />
    <glyph glyph-name="uni01CF" unicode="&#x1cf;" horiz-adv-x="438" 
d="M471 697.5q4 -4.5 4 -13.5q0 -15 -9 -23.5t-22 -7.5q-52 5 -102 5q-31 -176 -59 -311.5t-67 -288.5l125 -2q11 0 15.5 -4.5t4.5 -14.5q0 -15 -7.5 -23.5t-22.5 -8.5l-303 4q-18 2 -18 21q0 15 8.5 22.5t20.5 7.5l124 -2q37 155 65.5 292t59.5 308q-8 0 -94 -6
q-54 -4 -60 -4q-7 0 -12 5.5t-5 15.5q0 13 8.5 20.5t20.5 9.5q17 3 67.5 6.5t91.5 3.5q107 0 152 -6q10 -1 14 -5.5zM470 923q5 -5 5 -13q0 -6 -4 -10.5t-6 -6.5q-57 -62 -92.5 -94t-62.5 -32q-16 0 -36.5 21t-51.5 61q-16 23 -27 35q-5 6 -5 13q0 9 8.5 17.5t17.5 8.5
q10 0 22 -18q64 -94 81 -94q11 0 44 30t74 77q8 10 21 10q7 0 12 -5z" />
    <glyph glyph-name="Icircumflex" unicode="&#xce;" horiz-adv-x="438" 
d="M471 697.5q4 -4.5 4 -13.5q0 -15 -9 -23.5t-22 -7.5q-52 5 -102 5q-31 -176 -59 -311.5t-67 -288.5l125 -2q11 0 15.5 -4.5t4.5 -14.5q0 -15 -7.5 -23.5t-22.5 -8.5l-303 4q-18 2 -18 21q0 15 8.5 22.5t20.5 7.5l124 -2q37 155 65.5 292t59.5 308q-8 0 -94 -6
q-54 -4 -60 -4q-7 0 -12 5.5t-5 15.5q0 13 8.5 20.5t20.5 9.5q17 3 67.5 6.5t91.5 3.5q107 0 152 -6q10 -1 14 -5.5zM418 778q-24 46 -46 76t-33 30q-16 0 -115 -94q-17 -17 -28 -17q-8 0 -13.5 6t-5.5 13q0 9 11 20l31 28q46 42 76.5 65.5t48.5 23.5q27 0 51.5 -32.5
t60.5 -94.5q4 -6 4 -11q0 -9 -7.5 -16t-16.5 -7q-13 0 -18 10z" />
    <glyph glyph-name="Idieresis" unicode="&#xcf;" horiz-adv-x="438" 
d="M471 697.5q4 -4.5 4 -13.5q0 -15 -9 -23.5t-22 -7.5q-52 5 -102 5q-31 -176 -59 -311.5t-67 -288.5l125 -2q11 0 15.5 -4.5t4.5 -14.5q0 -15 -7.5 -23.5t-22.5 -8.5l-303 4q-18 2 -18 21q0 15 8.5 22.5t20.5 7.5l124 -2q37 155 65.5 292t59.5 308q-8 0 -94 -6
q-54 -4 -60 -4q-7 0 -12 5.5t-5 15.5q0 13 8.5 20.5t20.5 9.5q17 3 67.5 6.5t91.5 3.5q107 0 152 -6q10 -1 14 -5.5zM177 792.5q-11 10.5 -11 27.5q0 23 16 38t39 15q18 0 29.5 -10t11.5 -26q0 -22 -17 -38.5t-39 -16.5q-18 0 -29 10.5zM405.5 792.5q-10.5 10.5 -10.5 27.5
q0 23 16 38t39 15q17 0 28 -10t11 -26q0 -22 -16 -38.5t-39 -16.5q-18 0 -28.5 10.5z" />
    <glyph glyph-name="Idotaccent" unicode="&#x130;" horiz-adv-x="438" 
d="M471 697.5q4 -4.5 4 -13.5q0 -15 -9 -23.5t-22 -7.5q-52 5 -102 5q-31 -176 -59 -311.5t-67 -288.5l125 -2q11 0 15.5 -4.5t4.5 -14.5q0 -15 -7.5 -23.5t-22.5 -8.5l-303 4q-18 2 -18 21q0 15 8.5 22.5t20.5 7.5l124 -2q37 155 65.5 292t59.5 308q-8 0 -94 -6
q-54 -4 -60 -4q-7 0 -12 5.5t-5 15.5q0 13 8.5 20.5t20.5 9.5q17 3 67.5 6.5t91.5 3.5q107 0 152 -6q10 -1 14 -5.5zM290.5 792.5q-10.5 10.5 -10.5 27.5q0 22 16 37.5t39 15.5q17 0 28 -10t11 -26q0 -23 -16 -39t-39 -16q-18 0 -28.5 10.5z" />
    <glyph glyph-name="uni1ECA" unicode="&#x1eca;" horiz-adv-x="438" 
d="M471 697.5q4 -4.5 4 -13.5q0 -15 -9 -23.5t-22 -7.5q-52 5 -102 5q-31 -176 -59 -311.5t-67 -288.5l125 -2q11 0 15.5 -4.5t4.5 -14.5q0 -15 -7.5 -23.5t-22.5 -8.5l-303 4q-18 2 -18 21q0 15 8.5 22.5t20.5 7.5l124 -2q37 155 65.5 292t59.5 308q-8 0 -94 -6
q-54 -4 -60 -4q-7 0 -12 5.5t-5 15.5q0 13 8.5 20.5t20.5 9.5q17 3 67.5 6.5t91.5 3.5q107 0 152 -6q10 -1 14 -5.5zM121.5 -156.5q-10.5 10.5 -10.5 27.5q0 22 16 37.5t39 15.5q18 0 28.5 -10t10.5 -26q0 -23 -16 -39t-39 -16q-18 0 -28.5 10.5z" />
    <glyph glyph-name="Igrave" unicode="&#xcc;" horiz-adv-x="438" 
d="M471 697.5q4 -4.5 4 -13.5q0 -15 -9 -23.5t-22 -7.5q-52 5 -102 5q-31 -176 -59 -311.5t-67 -288.5l125 -2q11 0 15.5 -4.5t4.5 -14.5q0 -15 -7.5 -23.5t-22.5 -8.5l-303 4q-18 2 -18 21q0 15 8.5 22.5t20.5 7.5l124 -2q37 155 65.5 292t59.5 308q-8 0 -94 -6
q-54 -4 -60 -4q-7 0 -12 5.5t-5 15.5q0 13 8.5 20.5t20.5 9.5q17 3 67.5 6.5t91.5 3.5q107 0 152 -6q10 -1 14 -5.5zM356 762.5q-5 2.5 -11 10.5l-64 86q-10 13 -10 22q0 12 7.5 19.5t17.5 7.5q13 0 27 -21l58 -85q9 -10 9 -19t-7 -16t-16 -7q-6 0 -11 2.5z" />
    <glyph glyph-name="uni1EC8" unicode="&#x1ec8;" horiz-adv-x="438" 
d="M471 697.5q4 -4.5 4 -13.5q0 -15 -9 -23.5t-22 -7.5q-52 5 -102 5q-31 -176 -59 -311.5t-67 -288.5l125 -2q11 0 15.5 -4.5t4.5 -14.5q0 -15 -7.5 -23.5t-22.5 -8.5l-303 4q-18 2 -18 21q0 15 8.5 22.5t20.5 7.5l124 -2q37 155 65.5 292t59.5 308q-8 0 -94 -6
q-54 -4 -60 -4q-7 0 -12 5.5t-5 15.5q0 13 8.5 20.5t20.5 9.5q17 3 67.5 6.5t91.5 3.5q107 0 152 -6q10 -1 14 -5.5zM306 769.5q-5 6.5 -4 16.5q1 7 7 38q2 12 13 22.5t31 24.5q21 16 32 27t12 23q3 41 -55 41q-24 0 -41 -12t-37 -34q-10 -11 -18 -11t-14 5.5t-6 11.5t8 18
q26 29 51 45t62 16q44 0 70.5 -19.5t26.5 -53.5q0 -26 -15.5 -43.5t-43.5 -35.5q-27 -16 -29 -27l-6 -33q-4 -26 -28 -26q-11 0 -16 6.5z" />
    <glyph glyph-name="Imacron" unicode="&#x12a;" horiz-adv-x="438" 
d="M471 697.5q4 -4.5 4 -13.5q0 -15 -9 -23.5t-22 -7.5q-52 5 -102 5q-31 -176 -59 -311.5t-67 -288.5l125 -2q11 0 15.5 -4.5t4.5 -14.5q0 -15 -7.5 -23.5t-22.5 -8.5l-303 4q-18 2 -18 21q0 15 8.5 22.5t20.5 7.5l124 -2q37 155 65.5 292t59.5 308q-8 0 -94 -6
q-54 -4 -60 -4q-7 0 -12 5.5t-5 15.5q0 13 8.5 20.5t20.5 9.5q17 3 67.5 6.5t91.5 3.5q107 0 152 -6q10 -1 14 -5.5zM144 797q0 11 6.5 19.5t17.5 9.5q63 14 176 14h139q22 0 22 -19q0 -26 -28 -26q-17 0 -30 1l-115 1q-60 0 -103 -6t-48 -7q-15 -3 -21 -3q-16 0 -16 16z
" />
    <glyph glyph-name="Iogonek" unicode="&#x12e;" horiz-adv-x="438" 
d="M471 697.5q4 -4.5 4 -13.5q0 -15 -9 -23.5t-22 -7.5q-52 5 -102 5q-31 -176 -59 -311.5t-67 -288.5l125 -2q11 0 15.5 -4.5t4.5 -14.5q0 -21 -14 -29h-1q-35 -26 -53.5 -47t-18.5 -45q0 -28 41 -28q8 0 18 3t15 3q4 0 7 -3t3 -9q0 -32 -46 -32q-35 0 -59 17.5t-24 48.5
q0 47 51 90l-252 3q-18 2 -18 21q0 15 8.5 22.5t20.5 7.5l124 -2q37 155 65.5 292t59.5 308q-8 0 -94 -6q-54 -4 -60 -4q-7 0 -12 5.5t-5 15.5q0 13 8.5 20.5t20.5 9.5q17 3 67.5 6.5t91.5 3.5q107 0 152 -6q10 -1 14 -5.5z" />
    <glyph glyph-name="Itilde" unicode="&#x128;" horiz-adv-x="438" 
d="M471 697.5q4 -4.5 4 -13.5q0 -15 -9 -23.5t-22 -7.5q-52 5 -102 5q-31 -176 -59 -311.5t-67 -288.5l125 -2q11 0 15.5 -4.5t4.5 -14.5q0 -15 -7.5 -23.5t-22.5 -8.5l-303 4q-18 2 -18 21q0 15 8.5 22.5t20.5 7.5l124 -2q37 155 65.5 292t59.5 308q-8 0 -94 -6
q-54 -4 -60 -4q-7 0 -12 5.5t-5 15.5q0 13 8.5 20.5t20.5 9.5q17 3 67.5 6.5t91.5 3.5q107 0 152 -6q10 -1 14 -5.5zM172.5 776.5q-4.5 4.5 -4.5 12.5q0 10 9 19q27 28 46.5 39.5t44.5 11.5q42 0 81 -21q3 -2 15 -9t22 -10.5t18 -3.5q9 0 17.5 5t19.5 14q13 13 22 13
q7 0 12.5 -6t5.5 -14q0 -11 -8 -19q-23 -19 -41.5 -27.5t-37.5 -8.5q-13 0 -23.5 4t-25.5 12q-12 7 -23 11q-6 2 -25.5 11t-33.5 9q-10 0 -19.5 -6.5t-19 -15.5t-13.5 -12q-16 -13 -26 -13q-8 0 -12.5 4.5z" />
    <glyph glyph-name="J" unicode="J" horiz-adv-x="568" 
d="M616 682q0 -14 -7.5 -23t-22.5 -9h-65q-22 -113 -58 -311l-14 -80q-22 -127 -84.5 -192.5t-158.5 -65.5q-87 0 -131 48t-44 132q0 37 7 72q3 17 10 24t23 7q23 0 23 -21q0 -6 -1 -9q-8 -43 -8 -75q0 -127 116 -127q70 0 122 50t70 159l16 86q36 196 59 302l-84 -2
q-10 0 -15.5 5t-5.5 13q0 14 7.5 22t17.5 9q41 4 128 4q70 0 81 -1q19 -1 19 -17z" />
    <glyph glyph-name="Jcircumflex" unicode="&#x134;" horiz-adv-x="568" 
d="M616 682q0 -14 -7.5 -23t-22.5 -9h-65q-22 -113 -58 -311l-14 -80q-22 -127 -84.5 -192.5t-158.5 -65.5q-87 0 -131 48t-44 132q0 37 7 72q3 17 10 24t23 7q23 0 23 -21q0 -6 -1 -9q-8 -43 -8 -75q0 -127 116 -127q70 0 122 50t70 159l16 86q36 196 59 302l-84 -2
q-10 0 -15.5 5t-5.5 13q0 14 7.5 22t17.5 9q41 4 128 4q70 0 81 -1q19 -1 19 -17zM610 778q-24 46 -46 76t-33 30q-16 0 -115 -94q-17 -17 -28 -17q-8 0 -13.5 6t-5.5 13q0 9 11 20l31 28q46 42 76.5 65.5t48.5 23.5q27 0 51.5 -32.5t60.5 -94.5q4 -6 4 -11q0 -9 -7.5 -16
t-16.5 -7q-13 0 -18 10z" />
    <glyph glyph-name="K" unicode="K" horiz-adv-x="613" 
d="M648.5 684.5q6.5 -6.5 6.5 -16.5q0 -15 -14 -24q-73 -51 -237 -149q-47 -29 -170 -98l-48 -27l33 -39q32 -38 54.5 -63t58.5 -59q54 -54 89.5 -84.5t92.5 -74.5q7 -7 7 -17q0 -12 -8.5 -20.5t-18.5 -9.5q-2 -1 -6 -1q-5 0 -13 5q-40 30 -76.5 62.5t-87.5 83.5l-17 16
q-46 45 -76 78.5t-66 79.5l-56 -297q-4 -29 -32 -29q-12 0 -18 5.5t-5 16.5l10 53q30 156 58 309l7 42t9 55l33 192q2 11 11 17.5t21 6.5q13 0 18.5 -7.5t3.5 -19.5q-18 -104 -29 -171q-2 -13 -5 -33.5t-9 -53.5q107 58 206 120q163 100 240 153q8 5 17 5q10 0 16.5 -6.5z
" />
    <glyph glyph-name="uni0136" unicode="&#x136;" horiz-adv-x="613" 
d="M648.5 684.5q6.5 -6.5 6.5 -16.5q0 -15 -14 -24q-73 -51 -237 -149q-47 -29 -170 -98l-48 -27l33 -39q32 -38 54.5 -63t58.5 -59q54 -54 89.5 -84.5t92.5 -74.5q7 -7 7 -17q0 -12 -8.5 -20.5t-18.5 -9.5q-2 -1 -6 -1q-5 0 -13 5q-40 30 -76.5 62.5t-87.5 83.5l-17 16
q-46 45 -76 78.5t-66 79.5l-56 -297q-4 -29 -32 -29q-12 0 -18 5.5t-5 16.5l10 53q30 156 58 309l7 42t9 55l33 192q2 11 11 17.5t21 6.5q13 0 18.5 -7.5t3.5 -19.5q-18 -104 -29 -171q-2 -13 -5 -33.5t-9 -53.5q107 58 206 120q163 100 240 153q8 5 17 5q10 0 16.5 -6.5z
M269.5 -87.5q12.5 -11.5 12.5 -31.5q0 -63 -107 -142q-6 -6 -13 -6q-6 0 -11.5 5t-5.5 12q0 4 5 11l16 15q36 29 52 52h-2q-15 0 -26 11t-11 28q0 24 18.5 40.5t40.5 16.5q19 0 31.5 -11.5z" />
    <glyph glyph-name="L" unicode="L" horiz-adv-x="517" 
d="M107 11q-35 12 -49 38t-14 71q0 147 139 559q8 24 33 24q9 0 15.5 -4.5t6.5 -13.5l-2 -8q-65 -194 -102 -330.5t-37 -226.5q0 -30 9 -44.5t31.5 -20t67.5 -5.5q50 0 92 5.5t94 14.5q10 1 19.5 3t17.5 3h5q19 0 19 -19q0 -29 -34 -35q-71 -13 -117.5 -18t-95.5 -5
q-63 0 -98 12z" />
    <glyph glyph-name="Lacute" unicode="&#x139;" horiz-adv-x="517" 
d="M107 11q-35 12 -49 38t-14 71q0 147 139 559q8 24 33 24q9 0 15.5 -4.5t6.5 -13.5l-2 -8q-65 -194 -102 -330.5t-37 -226.5q0 -30 9 -44.5t31.5 -20t67.5 -5.5q50 0 92 5.5t94 14.5q10 1 19.5 3t17.5 3h5q19 0 19 -19q0 -29 -34 -35q-71 -13 -117.5 -18t-95.5 -5
q-63 0 -98 12zM188.5 767q-5.5 5 -5.5 12q0 13 17 27l86 80q14 12 21.5 17t14.5 5q8 0 14 -5.5t6 -14.5t-5.5 -16t-16.5 -16l-94 -80q-10 -8 -15 -11t-11 -3t-11.5 5z" />
    <glyph glyph-name="Lcaron" unicode="&#x13d;" horiz-adv-x="517" 
d="M107 11q-35 12 -49 38t-14 71q0 147 139 559q8 24 33 24q9 0 15.5 -4.5t6.5 -13.5l-2 -8q-65 -194 -102 -330.5t-37 -226.5q0 -30 9 -44.5t31.5 -20t67.5 -5.5q50 0 92 5.5t94 14.5q10 1 19.5 3t17.5 3h5q19 0 19 -19q0 -29 -34 -35q-71 -13 -117.5 -18t-95.5 -5
q-63 0 -98 12zM511 698.5q12 -12.5 12 -31.5q0 -30 -34 -70.5t-73 -70.5q-8 -5 -12 -5q-7 0 -12 5t-5 13q0 4 2.5 6.5l3.5 3.5q52 40 68 66h-4q-15 0 -25.5 11.5t-10.5 27.5q0 23 18.5 40t40.5 17q19 0 31 -12.5z" />
    <glyph glyph-name="uni013B" unicode="&#x13b;" horiz-adv-x="517" 
d="M107 11q-35 12 -49 38t-14 71q0 147 139 559q8 24 33 24q9 0 15.5 -4.5t6.5 -13.5l-2 -8q-65 -194 -102 -330.5t-37 -226.5q0 -30 9 -44.5t31.5 -20t67.5 -5.5q50 0 92 5.5t94 14.5q10 1 19.5 3t17.5 3h5q19 0 19 -19q0 -29 -34 -35q-71 -13 -117.5 -18t-95.5 -5
q-63 0 -98 12zM231.5 -87.5q12.5 -11.5 12.5 -31.5q0 -63 -107 -142q-6 -6 -13 -6q-6 0 -11.5 5t-5.5 12q0 4 5 11l16 15q36 29 52 52h-2q-15 0 -26 11t-11 28q0 24 18.5 40.5t40.5 16.5q19 0 31.5 -11.5z" />
    <glyph glyph-name="Ldot" unicode="&#x13f;" horiz-adv-x="517" 
d="M107 11q-35 12 -49 38t-14 71q0 147 139 559q8 24 33 24q9 0 15.5 -4.5t6.5 -13.5l-2 -8q-65 -194 -102 -330.5t-37 -226.5q0 -30 9 -44.5t31.5 -20t67.5 -5.5q50 0 92 5.5t94 14.5q10 1 19.5 3t17.5 3h5q19 0 19 -19q0 -29 -34 -35q-71 -13 -117.5 -18t-95.5 -5
q-63 0 -98 12zM254.5 284.5q-17.5 16.5 -17.5 43.5q0 38 24 61.5t64 23.5q27 0 43.5 -16.5t16.5 -43.5q0 -38 -23.5 -61.5t-61.5 -23.5q-28 0 -45.5 16.5z" />
    <glyph glyph-name="uni1E36" unicode="&#x1e36;" horiz-adv-x="517" 
d="M107 11q-35 12 -49 38t-14 71q0 147 139 559q8 24 33 24q9 0 15.5 -4.5t6.5 -13.5l-2 -8q-65 -194 -102 -330.5t-37 -226.5q0 -30 9 -44.5t31.5 -20t67.5 -5.5q50 0 92 5.5t94 14.5q10 1 19.5 3t17.5 3h5q19 0 19 -19q0 -29 -34 -35q-71 -13 -117.5 -18t-95.5 -5
q-63 0 -98 12zM154.5 -156.5q-10.5 10.5 -10.5 27.5q0 22 16 37.5t39 15.5q18 0 28.5 -10t10.5 -26q0 -23 -16 -39t-39 -16q-18 0 -28.5 10.5z" />
    <glyph glyph-name="uni1E38" unicode="&#x1e38;" horiz-adv-x="517" 
d="M107 11q-35 12 -49 38t-14 71q0 147 139 559q8 24 33 24q9 0 15.5 -4.5t6.5 -13.5l-2 -8q-65 -194 -102 -330.5t-37 -226.5q0 -30 9 -44.5t31.5 -20t67.5 -5.5q50 0 92 5.5t94 14.5q10 1 19.5 3t17.5 3h5q19 0 19 -19q0 -29 -34 -35q-71 -13 -117.5 -18t-95.5 -5
q-63 0 -98 12zM154.5 -156.5q-10.5 10.5 -10.5 27.5q0 22 16 37.5t39 15.5q18 0 28.5 -10t10.5 -26q0 -23 -16 -39t-39 -16q-18 0 -28.5 10.5zM63 797q0 11 6.5 19.5t17.5 9.5q63 14 176 14h139q22 0 22 -19q0 -26 -28 -26q-17 0 -30 1l-115 1q-60 0 -103 -6t-48 -7
q-15 -3 -21 -3q-16 0 -16 16z" />
    <glyph glyph-name="uni1E3A" unicode="&#x1e3a;" horiz-adv-x="517" 
d="M107 11q-35 12 -49 38t-14 71q0 147 139 559q8 24 33 24q9 0 15.5 -4.5t6.5 -13.5l-2 -8q-65 -194 -102 -330.5t-37 -226.5q0 -30 9 -44.5t31.5 -20t67.5 -5.5q50 0 92 5.5t94 14.5q10 1 19.5 3t17.5 3h5q19 0 19 -19q0 -29 -34 -35q-71 -13 -117.5 -18t-95.5 -5
q-63 0 -98 12zM43 -146.5q-4 4.5 -4 12.5q0 11 5.5 19t15.5 9q75 9 183 9q35 0 73 -2q12 -1 30 -1q10 0 15.5 -5t5.5 -13q0 -13 -8 -19.5t-20 -6.5l-26 1q-57 3 -79 3q-52 0 -145 -8q-25 -3 -36 -3q-6 0 -10 4.5z" />
    <glyph glyph-name="Lslash" unicode="&#x141;" horiz-adv-x="517" 
d="M433 76q19 0 19 -19q0 -29 -34 -35q-71 -13 -117.5 -18t-95.5 -5q-63 0 -98 12t-49 38t-14 71q0 52 20 150q-16 -11 -32 -11q-10 0 -17 7q-4 8 -4 12q0 14 25 33l46 32q36 144 101 336q8 24 33 24q9 0 15.5 -4.5t6.5 -13.5l-2 -8q-59 -173 -91 -289l171 120q13 8 23 8
q12 0 18 -9q2 -3 2 -10q0 -18 -21 -34l-212 -150q-29 -119 -29 -193q0 -30 9 -44.5t31.5 -20t67.5 -5.5q50 0 92 5.5t94 14.5q10 1 19.5 3t17.5 3h5z" />
    <glyph glyph-name="M" unicode="M" horiz-adv-x="786" 
d="M732.5 680.5q13.5 -31.5 13.5 -94.5q0 -141 -79 -564q-5 -28 -31 -28q-14 0 -19.5 8t-3.5 20q82 430 82 559q0 36 -4.5 53t-15.5 17q-19 0 -59.5 -45.5t-72.5 -94.5q-31 -48 -54 -98t-54 -131q-9 -22 -34 -22q-13 0 -19 5t-8 16l-8 70q-7 88 -22 151q-14 59 -35.5 105
t-40.5 46q-27 0 -59 -95.5t-58 -232.5q-36 -184 -55 -302q-4 -24 -31 -24q-12 0 -18.5 7.5t-4.5 19.5q8 51 19 108.5t16 86.5q3 14 20 104q39 204 79 295.5t93 91.5q41 0 72 -50t48.5 -132t20.5 -178q34 92 85 175.5t103.5 134t91.5 50.5q29 0 42.5 -31.5z" />
    <glyph glyph-name="uni1E42" unicode="&#x1e42;" horiz-adv-x="786" 
d="M732.5 680.5q13.5 -31.5 13.5 -94.5q0 -141 -79 -564q-5 -28 -31 -28q-14 0 -19.5 8t-3.5 20q82 430 82 559q0 36 -4.5 53t-15.5 17q-19 0 -59.5 -45.5t-72.5 -94.5q-31 -48 -54 -98t-54 -131q-9 -22 -34 -22q-13 0 -19 5t-8 16l-8 70q-7 88 -22 151q-14 59 -35.5 105
t-40.5 46q-27 0 -59 -95.5t-58 -232.5q-36 -184 -55 -302q-4 -24 -31 -24q-12 0 -18.5 7.5t-4.5 19.5q8 51 19 108.5t16 86.5q3 14 20 104q39 204 79 295.5t93 91.5q41 0 72 -50t48.5 -132t20.5 -178q34 92 85 175.5t103.5 134t91.5 50.5q29 0 42.5 -31.5zM296.5 -156.5
q-10.5 10.5 -10.5 27.5q0 22 16 37.5t39 15.5q18 0 28.5 -10t10.5 -26q0 -23 -16 -39t-39 -16q-18 0 -28.5 10.5z" />
    <glyph glyph-name="N" unicode="N" horiz-adv-x="724" 
d="M718 703.5q6 -8.5 4 -21.5l-51 -286l-22 -120q-19 -104 -35 -161.5t-32 -79.5t-35 -22q-34 0 -79 76.5t-123 245.5q-76 163 -101.5 215t-41.5 77q-14 -77 -22 -124.5t-13 -76.5l-12 -74q-29 -177 -55 -319q-2 -8 -11 -15t-20 -7t-18 6.5t-6 15.5q9 45 45 254l11 64
l26 153q6 41 25 149q10 52 42 52q22 0 44.5 -27.5t46 -74.5t68.5 -145l33 -73q106 -228 159 -306q22 59 53 223l47 263l21 121q2 13 10.5 19.5t21.5 6.5q14 0 20 -8.5z" />
    <glyph glyph-name="Nacute" unicode="&#x143;" horiz-adv-x="724" 
d="M718 703.5q6 -8.5 4 -21.5l-51 -286l-22 -120q-19 -104 -35 -161.5t-32 -79.5t-35 -22q-34 0 -79 76.5t-123 245.5q-76 163 -101.5 215t-41.5 77q-14 -77 -22 -124.5t-13 -76.5l-12 -74q-29 -177 -55 -319q-2 -8 -11 -15t-20 -7t-18 6.5t-6 15.5q9 45 45 254l11 64
l26 153q6 41 25 149q10 52 42 52q22 0 44.5 -27.5t46 -74.5t68.5 -145l33 -73q106 -228 159 -306q22 59 53 223l47 263l21 121q2 13 10.5 19.5t21.5 6.5q14 0 20 -8.5zM412.5 767q-5.5 5 -5.5 12q0 13 17 27l86 80q14 12 21.5 17t14.5 5q8 0 14 -5.5t6 -14.5t-5.5 -16
t-16.5 -16l-94 -80q-10 -8 -15 -11t-11 -3t-11.5 5z" />
    <glyph glyph-name="Ncaron" unicode="&#x147;" horiz-adv-x="724" 
d="M718 703.5q6 -8.5 4 -21.5l-51 -286l-22 -120q-19 -104 -35 -161.5t-32 -79.5t-35 -22q-34 0 -79 76.5t-123 245.5q-76 163 -101.5 215t-41.5 77q-14 -77 -22 -124.5t-13 -76.5l-12 -74q-29 -177 -55 -319q-2 -8 -11 -15t-20 -7t-18 6.5t-6 15.5q9 45 45 254l11 64
l26 153q6 41 25 149q10 52 42 52q22 0 44.5 -27.5t46 -74.5t68.5 -145l33 -73q106 -228 159 -306q22 59 53 223l47 263l21 121q2 13 10.5 19.5t21.5 6.5q14 0 20 -8.5zM613 923q5 -5 5 -13q0 -6 -4 -10.5t-6 -6.5q-57 -62 -92.5 -94t-62.5 -32q-16 0 -36.5 21t-51.5 61
q-16 23 -27 35q-5 6 -5 13q0 9 8.5 17.5t17.5 8.5q10 0 22 -18q64 -94 81 -94q11 0 44 30t74 77q8 10 21 10q7 0 12 -5z" />
    <glyph glyph-name="uni0145" unicode="&#x145;" horiz-adv-x="724" 
d="M718 703.5q6 -8.5 4 -21.5l-51 -286l-22 -120q-19 -104 -35 -161.5t-32 -79.5t-35 -22q-34 0 -79 76.5t-123 245.5q-76 163 -101.5 215t-41.5 77q-14 -77 -22 -124.5t-13 -76.5l-12 -74q-29 -177 -55 -319q-2 -8 -11 -15t-20 -7t-18 6.5t-6 15.5q9 45 45 254l11 64
l26 153q6 41 25 149q10 52 42 52q22 0 44.5 -27.5t46 -74.5t68.5 -145l33 -73q106 -228 159 -306q22 59 53 223l47 263l21 121q2 13 10.5 19.5t21.5 6.5q14 0 20 -8.5zM341.5 -87.5q12.5 -11.5 12.5 -31.5q0 -63 -107 -142q-6 -6 -13 -6q-6 0 -11.5 5t-5.5 12q0 4 5 11
l16 15q36 29 52 52h-2q-15 0 -26 11t-11 28q0 24 18.5 40.5t40.5 16.5q19 0 31.5 -11.5z" />
    <glyph glyph-name="uni1E44" unicode="&#x1e44;" horiz-adv-x="724" 
d="M718 703.5q6 -8.5 4 -21.5l-51 -286l-22 -120q-19 -104 -35 -161.5t-32 -79.5t-35 -22q-34 0 -79 76.5t-123 245.5q-76 163 -101.5 215t-41.5 77q-14 -77 -22 -124.5t-13 -76.5l-12 -74q-29 -177 -55 -319q-2 -8 -11 -15t-20 -7t-18 6.5t-6 15.5q9 45 45 254l11 64
l26 153q6 41 25 149q10 52 42 52q22 0 44.5 -27.5t46 -74.5t68.5 -145l33 -73q106 -228 159 -306q22 59 53 223l47 263l21 121q2 13 10.5 19.5t21.5 6.5q14 0 20 -8.5zM433.5 792.5q-10.5 10.5 -10.5 27.5q0 22 16 37.5t39 15.5q17 0 28 -10t11 -26q0 -23 -16 -39t-39 -16
q-18 0 -28.5 10.5z" />
    <glyph glyph-name="uni1E46" unicode="&#x1e46;" horiz-adv-x="724" 
d="M718 703.5q6 -8.5 4 -21.5l-51 -286l-22 -120q-19 -104 -35 -161.5t-32 -79.5t-35 -22q-34 0 -79 76.5t-123 245.5q-76 163 -101.5 215t-41.5 77q-14 -77 -22 -124.5t-13 -76.5l-12 -74q-29 -177 -55 -319q-2 -8 -11 -15t-20 -7t-18 6.5t-6 15.5q9 45 45 254l11 64
l26 153q6 41 25 149q10 52 42 52q22 0 44.5 -27.5t46 -74.5t68.5 -145l33 -73q106 -228 159 -306q22 59 53 223l47 263l21 121q2 13 10.5 19.5t21.5 6.5q14 0 20 -8.5zM264.5 -156.5q-10.5 10.5 -10.5 27.5q0 22 16 37.5t39 15.5q18 0 28.5 -10t10.5 -26q0 -23 -16 -39
t-39 -16q-18 0 -28.5 10.5z" />
    <glyph glyph-name="Eng" unicode="&#x14a;" horiz-adv-x="724" 
d="M718 703.5q6 -8.5 4 -21.5l-51 -286l-22 -120q-13 -77 -27 -131l-28 -148q-22 -117 -80 -178t-130 -61q-51 0 -84 28.5t-33 76.5q0 15 3 26q4 15 11.5 21t20.5 6q25 0 22 -26q-2 -14 -2 -23q0 -32 19.5 -47.5t48.5 -15.5q54 0 92.5 51.5t55.5 141.5l3 17q-34 6 -77 81.5
t-119 239.5q-76 163 -101.5 215t-41.5 77q-14 -77 -22 -124.5t-13 -76.5l-12 -74q-29 -177 -55 -319q-2 -8 -11 -15t-20 -7t-18 6.5t-6 15.5q9 45 45 254l11 64l26 153q6 41 25 149q10 52 42 52q22 0 44.5 -27.5t46 -74.5t68.5 -145l33 -73q106 -228 159 -306q13 33 28 100
l38 191l55 316q2 13 10.5 19.5t21.5 6.5q14 0 20 -8.5z" />
    <glyph glyph-name="uni1E48" unicode="&#x1e48;" horiz-adv-x="724" 
d="M718 703.5q6 -8.5 4 -21.5l-51 -286l-22 -120q-19 -104 -35 -161.5t-32 -79.5t-35 -22q-34 0 -79 76.5t-123 245.5q-76 163 -101.5 215t-41.5 77q-14 -77 -22 -124.5t-13 -76.5l-12 -74q-29 -177 -55 -319q-2 -8 -11 -15t-20 -7t-18 6.5t-6 15.5q9 45 45 254l11 64
l26 153q6 41 25 149q10 52 42 52q22 0 44.5 -27.5t46 -74.5t68.5 -145l33 -73q106 -228 159 -306q22 59 53 223l47 263l21 121q2 13 10.5 19.5t21.5 6.5q14 0 20 -8.5zM153 -146.5q-4 4.5 -4 12.5q0 11 5.5 19t15.5 9q75 9 183 9q35 0 73 -2q12 -1 30 -1q10 0 15.5 -5
t5.5 -13q0 -13 -8 -19.5t-20 -6.5l-26 1q-57 3 -79 3q-52 0 -145 -8q-25 -3 -36 -3q-6 0 -10 4.5z" />
    <glyph glyph-name="Ntilde" unicode="&#xd1;" horiz-adv-x="724" 
d="M718 703.5q6 -8.5 4 -21.5l-51 -286l-22 -120q-19 -104 -35 -161.5t-32 -79.5t-35 -22q-34 0 -79 76.5t-123 245.5q-76 163 -101.5 215t-41.5 77q-14 -77 -22 -124.5t-13 -76.5l-12 -74q-29 -177 -55 -319q-2 -8 -11 -15t-20 -7t-18 6.5t-6 15.5q9 45 45 254l11 64
l26 153q6 41 25 149q10 52 42 52q22 0 44.5 -27.5t46 -74.5t68.5 -145l33 -73q106 -228 159 -306q22 59 53 223l47 263l21 121q2 13 10.5 19.5t21.5 6.5q14 0 20 -8.5zM315.5 776.5q-4.5 4.5 -4.5 12.5q0 10 9 19q27 28 46.5 39.5t44.5 11.5q42 0 81 -21q3 -2 15 -9
t22 -10.5t18 -3.5q9 0 17.5 5t19.5 14q13 13 22 13q7 0 12.5 -6t5.5 -14q0 -11 -8 -19q-23 -19 -41.5 -27.5t-37.5 -8.5q-13 0 -23.5 4t-25.5 12q-12 7 -23 11q-6 2 -25.5 11t-33.5 9q-10 0 -19.5 -6.5t-19 -15.5t-13.5 -12q-16 -13 -26 -13q-8 0 -12.5 4.5z" />
    <glyph glyph-name="O" unicode="O" horiz-adv-x="779" 
d="M212.5 42.5q-67.5 33.5 -108.5 97.5t-41 151q0 115 50 210t138 150t197 55q87 0 156.5 -39.5t108.5 -109.5t39 -157q0 -116 -50 -204.5t-140 -137.5t-206 -49q-76 0 -143.5 33.5zM533 103.5q77 43.5 120.5 121t43.5 175.5q0 73 -31.5 131t-88 91t-128.5 33
q-95 0 -171 -49.5t-118 -133t-42 -180.5q0 -78 36.5 -130.5t92 -77t113.5 -24.5q96 0 173 43.5z" />
    <glyph glyph-name="Oacute" unicode="&#xd3;" horiz-adv-x="779" 
d="M212.5 42.5q-67.5 33.5 -108.5 97.5t-41 151q0 115 50 210t138 150t197 55q87 0 156.5 -39.5t108.5 -109.5t39 -157q0 -116 -50 -204.5t-140 -137.5t-206 -49q-76 0 -143.5 33.5zM533 103.5q77 43.5 120.5 121t43.5 175.5q0 73 -31.5 131t-88 91t-128.5 33
q-95 0 -171 -49.5t-118 -133t-42 -180.5q0 -78 36.5 -130.5t92 -77t113.5 -24.5q96 0 173 43.5zM434.5 767q-5.5 5 -5.5 12q0 13 17 27l86 80q14 12 21.5 17t14.5 5q8 0 14 -5.5t6 -14.5t-5.5 -16t-16.5 -16l-94 -80q-10 -8 -15 -11t-11 -3t-11.5 5z" />
    <glyph glyph-name="Obreve" unicode="&#x14e;" horiz-adv-x="779" 
d="M212.5 42.5q-67.5 33.5 -108.5 97.5t-41 151q0 115 50 210t138 150t197 55q87 0 156.5 -39.5t108.5 -109.5t39 -157q0 -116 -50 -204.5t-140 -137.5t-206 -49q-76 0 -143.5 33.5zM533 103.5q77 43.5 120.5 121t43.5 175.5q0 73 -31.5 131t-88 91t-128.5 33
q-95 0 -171 -49.5t-118 -133t-42 -180.5q0 -78 36.5 -130.5t92 -77t113.5 -24.5q96 0 173 43.5zM417.5 786.5q-30.5 14.5 -47.5 39t-17 52.5q0 11 1 16q2 10 8.5 15.5t14.5 5.5q22 0 21 -15q-1 -4 -1 -13q1 -34 27 -54.5t66 -20.5q42 0 75.5 26t39.5 60q1 10 9 15t17 5
t14.5 -5.5t4.5 -14.5q-5 -32 -28.5 -61.5t-59 -47t-74.5 -17.5q-40 0 -70.5 14.5z" />
    <glyph glyph-name="uni01D1" unicode="&#x1d1;" horiz-adv-x="779" 
d="M212.5 42.5q-67.5 33.5 -108.5 97.5t-41 151q0 115 50 210t138 150t197 55q87 0 156.5 -39.5t108.5 -109.5t39 -157q0 -116 -50 -204.5t-140 -137.5t-206 -49q-76 0 -143.5 33.5zM533 103.5q77 43.5 120.5 121t43.5 175.5q0 73 -31.5 131t-88 91t-128.5 33
q-95 0 -171 -49.5t-118 -133t-42 -180.5q0 -78 36.5 -130.5t92 -77t113.5 -24.5q96 0 173 43.5zM635 923q5 -5 5 -13q0 -6 -4 -10.5t-6 -6.5q-57 -62 -92.5 -94t-62.5 -32q-16 0 -36.5 21t-51.5 61q-16 23 -27 35q-5 6 -5 13q0 9 8.5 17.5t17.5 8.5q10 0 22 -18
q64 -94 81 -94q11 0 44 30t74 77q8 10 21 10q7 0 12 -5z" />
    <glyph glyph-name="Ocircumflex" unicode="&#xd4;" horiz-adv-x="779" 
d="M212.5 42.5q-67.5 33.5 -108.5 97.5t-41 151q0 115 50 210t138 150t197 55q87 0 156.5 -39.5t108.5 -109.5t39 -157q0 -116 -50 -204.5t-140 -137.5t-206 -49q-76 0 -143.5 33.5zM533 103.5q77 43.5 120.5 121t43.5 175.5q0 73 -31.5 131t-88 91t-128.5 33
q-95 0 -171 -49.5t-118 -133t-42 -180.5q0 -78 36.5 -130.5t92 -77t113.5 -24.5q96 0 173 43.5zM583 778q-24 46 -46 76t-33 30q-16 0 -115 -94q-17 -17 -28 -17q-8 0 -13.5 6t-5.5 13q0 9 11 20l31 28q46 42 76.5 65.5t48.5 23.5q27 0 51.5 -32.5t60.5 -94.5q4 -6 4 -11
q0 -9 -7.5 -16t-16.5 -7q-13 0 -18 10z" />
    <glyph glyph-name="uni1ED0" unicode="&#x1ed0;" horiz-adv-x="779" 
d="M212.5 42.5q-67.5 33.5 -108.5 97.5t-41 151q0 115 50 210t138 150t197 55q87 0 156.5 -39.5t108.5 -109.5t39 -157q0 -116 -50 -204.5t-140 -137.5t-206 -49q-76 0 -143.5 33.5zM533 103.5q77 43.5 120.5 121t43.5 175.5q0 73 -31.5 131t-88 91t-128.5 33
q-95 0 -171 -49.5t-118 -133t-42 -180.5q0 -78 36.5 -130.5t92 -77t113.5 -24.5q96 0 173 43.5zM608.5 897.5q-4.5 4.5 -4.5 11.5q0 11 15 26l63 55q13 11 20 15.5t14 4.5q8 0 13 -5t5 -14t-4.5 -15t-15.5 -14l-69 -57q-14 -12 -25 -12q-7 0 -11.5 4.5zM583 779
q-24 46 -46 76t-33 30q-16 0 -114 -94q-17 -17 -29 -17q-7 0 -12.5 5.5t-5.5 13.5q0 10 11 20q24 21 32 29q47 43 76 65.5t47 22.5q27 0 51.5 -32.5t60.5 -94.5q4 -6 4 -11q0 -9 -7.5 -16t-16.5 -7q-13 0 -18 10z" />
    <glyph glyph-name="uni1ED8" unicode="&#x1ed8;" horiz-adv-x="779" 
d="M212.5 42.5q-67.5 33.5 -108.5 97.5t-41 151q0 115 50 210t138 150t197 55q87 0 156.5 -39.5t108.5 -109.5t39 -157q0 -116 -50 -204.5t-140 -137.5t-206 -49q-76 0 -143.5 33.5zM533 103.5q77 43.5 120.5 121t43.5 175.5q0 73 -31.5 131t-88 91t-128.5 33
q-95 0 -171 -49.5t-118 -133t-42 -180.5q0 -78 36.5 -130.5t92 -77t113.5 -24.5q96 0 173 43.5zM286.5 -156.5q-10.5 10.5 -10.5 27.5q0 22 16 37.5t39 15.5q18 0 28.5 -10t10.5 -26q0 -23 -16 -39t-39 -16q-18 0 -28.5 10.5zM583 778q-24 46 -46 76t-33 30q-16 0 -115 -94
q-17 -17 -28 -17q-8 0 -13.5 6t-5.5 13q0 9 11 20l31 28q46 42 76.5 65.5t48.5 23.5q27 0 51.5 -32.5t60.5 -94.5q4 -6 4 -11q0 -9 -7.5 -16t-16.5 -7q-13 0 -18 10z" />
    <glyph glyph-name="uni1ED2" unicode="&#x1ed2;" horiz-adv-x="779" 
d="M212.5 42.5q-67.5 33.5 -108.5 97.5t-41 151q0 115 50 210t138 150t197 55q87 0 156.5 -39.5t108.5 -109.5t39 -157q0 -116 -50 -204.5t-140 -137.5t-206 -49q-76 0 -143.5 33.5zM533 103.5q77 43.5 120.5 121t43.5 175.5q0 73 -31.5 131t-88 91t-128.5 33
q-95 0 -171 -49.5t-118 -133t-42 -180.5q0 -78 36.5 -130.5t92 -77t113.5 -24.5q96 0 173 43.5zM643 905l-49 57q-11 13 -11 22q0 11 8 18.5t19 7.5q6 0 11.5 -4.5t14.5 -15.5l43 -55q8 -9 8 -18q0 -10 -7 -17t-16 -7q-10 0 -21 12zM583 779q-25 47 -47 76.5t-32 29.5
q-17 0 -115 -94q-17 -17 -28 -17q-8 0 -13.5 6t-5.5 13q0 9 11 20l32 28q41 39 73 64t51 25q25 0 48 -29t41 -59.5t23 -38.5q4 -6 4 -11q0 -9 -8 -16t-17 -7q-12 0 -17 10z" />
    <glyph glyph-name="uni1ED4" unicode="&#x1ed4;" horiz-adv-x="779" 
d="M212.5 42.5q-67.5 33.5 -108.5 97.5t-41 151q0 115 50 210t138 150t197 55q87 0 156.5 -39.5t108.5 -109.5t39 -157q0 -116 -50 -204.5t-140 -137.5t-206 -49q-76 0 -143.5 33.5zM533 103.5q77 43.5 120.5 121t43.5 175.5q0 73 -31.5 131t-88 91t-128.5 33
q-95 0 -171 -49.5t-118 -133t-42 -180.5q0 -78 36.5 -130.5t92 -77t113.5 -24.5q96 0 173 43.5zM642.5 892q-4.5 4 -4.5 10q0 5 2 14t3 16q3 14 31 34q14 11 21 18.5t7 16.5q0 19 -34 19q-33 0 -49 -27q-3 -9 -14 -9q-14 0 -14 12q0 20 23.5 37.5t55.5 17.5q29 0 47.5 -13.5
t18.5 -33.5q0 -18 -9.5 -29t-26.5 -23q-7 -5 -13.5 -10.5t-7.5 -11.5q-4 -19 -5 -25q-4 -17 -21 -17q-6 0 -10.5 4zM583 779q-25 47 -47 76.5t-32 29.5q-17 0 -115 -94q-17 -17 -28 -17q-8 0 -13.5 6t-5.5 13q0 9 11 20l32 28q41 39 73 64t51 25q25 0 48 -29t41 -59.5
t23 -38.5q4 -6 4 -11q0 -9 -8 -16t-17 -7q-12 0 -17 10z" />
    <glyph glyph-name="uni1ED6" unicode="&#x1ed6;" horiz-adv-x="779" 
d="M212.5 42.5q-67.5 33.5 -108.5 97.5t-41 151q0 115 50 210t138 150t197 55q87 0 156.5 -39.5t108.5 -109.5t39 -157q0 -116 -50 -204.5t-140 -137.5t-206 -49q-76 0 -143.5 33.5zM533 103.5q77 43.5 120.5 121t43.5 175.5q0 73 -31.5 131t-88 91t-128.5 33
q-95 0 -171 -49.5t-118 -133t-42 -180.5q0 -78 36.5 -130.5t92 -77t113.5 -24.5q96 0 173 43.5zM372 962.5q-4 4.5 -4 11.5q0 9 9 18q27 26 46.5 37t43.5 11q32 0 78 -22q4 -2 22.5 -11.5t33.5 -9.5q16 0 39 19q4 3 10.5 7.5t12.5 4.5q8 0 13 -5.5t5 -12.5q0 -9 -11 -18
q-22 -18 -40 -26t-37 -8q-15 0 -27.5 4.5t-25 11t-19.5 10.5q-13 6 -30.5 12t-28.5 6t-21 -6.5t-19 -14t-13 -10.5q-14 -13 -25 -13q-8 0 -12 4.5zM583 779q-25 47 -47 76.5t-32 29.5q-17 0 -115 -94q-17 -17 -28 -17q-8 0 -13.5 6t-5.5 13q0 9 11 20l32 28q41 39 73 64
t51 25q25 0 48 -29t41 -59.5t23 -38.5q4 -6 4 -11q0 -9 -8 -16t-17 -7q-12 0 -17 10z" />
    <glyph glyph-name="Odieresis" unicode="&#xd6;" horiz-adv-x="779" 
d="M212.5 42.5q-67.5 33.5 -108.5 97.5t-41 151q0 115 50 210t138 150t197 55q87 0 156.5 -39.5t108.5 -109.5t39 -157q0 -116 -50 -204.5t-140 -137.5t-206 -49q-76 0 -143.5 33.5zM533 103.5q77 43.5 120.5 121t43.5 175.5q0 73 -31.5 131t-88 91t-128.5 33
q-95 0 -171 -49.5t-118 -133t-42 -180.5q0 -78 36.5 -130.5t92 -77t113.5 -24.5q96 0 173 43.5zM342 792.5q-11 10.5 -11 27.5q0 23 16 38t39 15q18 0 29.5 -10t11.5 -26q0 -22 -17 -38.5t-39 -16.5q-18 0 -29 10.5zM570.5 792.5q-10.5 10.5 -10.5 27.5q0 23 16 38t39 15
q17 0 28 -10t11 -26q0 -22 -16 -38.5t-39 -16.5q-18 0 -28.5 10.5z" />
    <glyph glyph-name="uni1ECC" unicode="&#x1ecc;" horiz-adv-x="779" 
d="M212.5 42.5q-67.5 33.5 -108.5 97.5t-41 151q0 115 50 210t138 150t197 55q87 0 156.5 -39.5t108.5 -109.5t39 -157q0 -116 -50 -204.5t-140 -137.5t-206 -49q-76 0 -143.5 33.5zM533 103.5q77 43.5 120.5 121t43.5 175.5q0 73 -31.5 131t-88 91t-128.5 33
q-95 0 -171 -49.5t-118 -133t-42 -180.5q0 -78 36.5 -130.5t92 -77t113.5 -24.5q96 0 173 43.5zM286.5 -156.5q-10.5 10.5 -10.5 27.5q0 22 16 37.5t39 15.5q18 0 28.5 -10t10.5 -26q0 -23 -16 -39t-39 -16q-18 0 -28.5 10.5z" />
    <glyph glyph-name="Ograve" unicode="&#xd2;" horiz-adv-x="779" 
d="M212.5 42.5q-67.5 33.5 -108.5 97.5t-41 151q0 115 50 210t138 150t197 55q87 0 156.5 -39.5t108.5 -109.5t39 -157q0 -116 -50 -204.5t-140 -137.5t-206 -49q-76 0 -143.5 33.5zM533 103.5q77 43.5 120.5 121t43.5 175.5q0 73 -31.5 131t-88 91t-128.5 33
q-95 0 -171 -49.5t-118 -133t-42 -180.5q0 -78 36.5 -130.5t92 -77t113.5 -24.5q96 0 173 43.5zM521 762.5q-5 2.5 -11 10.5l-64 86q-10 13 -10 22q0 12 7.5 19.5t17.5 7.5q13 0 27 -21l58 -85q9 -10 9 -19t-7 -16t-16 -7q-6 0 -11 2.5z" />
    <glyph glyph-name="uni1ECE" unicode="&#x1ece;" horiz-adv-x="779" 
d="M212.5 42.5q-67.5 33.5 -108.5 97.5t-41 151q0 115 50 210t138 150t197 55q87 0 156.5 -39.5t108.5 -109.5t39 -157q0 -116 -50 -204.5t-140 -137.5t-206 -49q-76 0 -143.5 33.5zM533 103.5q77 43.5 120.5 121t43.5 175.5q0 73 -31.5 131t-88 91t-128.5 33
q-95 0 -171 -49.5t-118 -133t-42 -180.5q0 -78 36.5 -130.5t92 -77t113.5 -24.5q96 0 173 43.5zM471 769.5q-5 6.5 -4 16.5q1 7 7 38q2 12 13 22.5t31 24.5q21 16 32 27t12 23q3 41 -55 41q-24 0 -41 -12t-37 -34q-10 -11 -18 -11t-14 5.5t-6 11.5t8 18q26 29 51 45t62 16
q44 0 70.5 -19.5t26.5 -53.5q0 -26 -15.5 -43.5t-43.5 -35.5q-27 -16 -29 -27l-6 -33q-4 -26 -28 -26q-11 0 -16 6.5z" />
    <glyph glyph-name="Ohorn" unicode="&#x1a0;" horiz-adv-x="798" 
d="M861.5 693.5q4.5 -5.5 3.5 -15.5q-10 -54 -39.5 -103t-88.5 -74q15 -46 15 -101q0 -116 -50 -204.5t-140 -137.5t-206 -49q-76 0 -143.5 33.5t-108.5 97.5t-41 151q0 115 50 210t138 150t197 55q94 0 166.5 -45.5t108.5 -123.5q42 18 66.5 56t33.5 86q1 10 8 15t17 5
q9 0 13.5 -5.5zM533 103.5q77 43.5 120.5 121t43.5 175.5q0 73 -31.5 131t-88 91t-128.5 33q-95 0 -171 -49.5t-118 -133t-42 -180.5q0 -78 36.5 -130.5t92 -77t113.5 -24.5q96 0 173 43.5z" />
    <glyph glyph-name="uni1EDA" unicode="&#x1eda;" horiz-adv-x="798" 
d="M861.5 693.5q4.5 -5.5 3.5 -15.5q-10 -54 -39.5 -103t-88.5 -74q15 -46 15 -101q0 -116 -50 -204.5t-140 -137.5t-206 -49q-76 0 -143.5 33.5t-108.5 97.5t-41 151q0 115 50 210t138 150t197 55q94 0 166.5 -45.5t108.5 -123.5q42 18 66.5 56t33.5 86q1 10 8 15t17 5
q9 0 13.5 -5.5zM533 103.5q77 43.5 120.5 121t43.5 175.5q0 73 -31.5 131t-88 91t-128.5 33q-95 0 -171 -49.5t-118 -133t-42 -180.5q0 -78 36.5 -130.5t92 -77t113.5 -24.5q96 0 173 43.5zM434.5 767q-5.5 5 -5.5 12q0 13 17 27l86 80q14 12 21.5 17t14.5 5q8 0 14 -5.5
t6 -14.5t-5.5 -16t-16.5 -16l-94 -80q-10 -8 -15 -11t-11 -3t-11.5 5z" />
    <glyph glyph-name="uni1EE2" unicode="&#x1ee2;" horiz-adv-x="798" 
d="M861.5 693.5q4.5 -5.5 3.5 -15.5q-10 -54 -39.5 -103t-88.5 -74q15 -46 15 -101q0 -116 -50 -204.5t-140 -137.5t-206 -49q-76 0 -143.5 33.5t-108.5 97.5t-41 151q0 115 50 210t138 150t197 55q94 0 166.5 -45.5t108.5 -123.5q42 18 66.5 56t33.5 86q1 10 8 15t17 5
q9 0 13.5 -5.5zM533 103.5q77 43.5 120.5 121t43.5 175.5q0 73 -31.5 131t-88 91t-128.5 33q-95 0 -171 -49.5t-118 -133t-42 -180.5q0 -78 36.5 -130.5t92 -77t113.5 -24.5q96 0 173 43.5zM286.5 -156.5q-10.5 10.5 -10.5 27.5q0 22 16 37.5t39 15.5q18 0 28.5 -10
t10.5 -26q0 -23 -16 -39t-39 -16q-18 0 -28.5 10.5z" />
    <glyph glyph-name="uni1EDC" unicode="&#x1edc;" horiz-adv-x="798" 
d="M861.5 693.5q4.5 -5.5 3.5 -15.5q-10 -54 -39.5 -103t-88.5 -74q15 -46 15 -101q0 -116 -50 -204.5t-140 -137.5t-206 -49q-76 0 -143.5 33.5t-108.5 97.5t-41 151q0 115 50 210t138 150t197 55q94 0 166.5 -45.5t108.5 -123.5q42 18 66.5 56t33.5 86q1 10 8 15t17 5
q9 0 13.5 -5.5zM533 103.5q77 43.5 120.5 121t43.5 175.5q0 73 -31.5 131t-88 91t-128.5 33q-95 0 -171 -49.5t-118 -133t-42 -180.5q0 -78 36.5 -130.5t92 -77t113.5 -24.5q96 0 173 43.5zM521 762.5q-5 2.5 -11 10.5l-64 86q-10 13 -10 22q0 12 7.5 19.5t17.5 7.5
q13 0 27 -21l58 -85q9 -10 9 -19t-7 -16t-16 -7q-6 0 -11 2.5z" />
    <glyph glyph-name="uni1EDE" unicode="&#x1ede;" horiz-adv-x="798" 
d="M861.5 693.5q4.5 -5.5 3.5 -15.5q-10 -54 -39.5 -103t-88.5 -74q15 -46 15 -101q0 -116 -50 -204.5t-140 -137.5t-206 -49q-76 0 -143.5 33.5t-108.5 97.5t-41 151q0 115 50 210t138 150t197 55q94 0 166.5 -45.5t108.5 -123.5q42 18 66.5 56t33.5 86q1 10 8 15t17 5
q9 0 13.5 -5.5zM533 103.5q77 43.5 120.5 121t43.5 175.5q0 73 -31.5 131t-88 91t-128.5 33q-95 0 -171 -49.5t-118 -133t-42 -180.5q0 -78 36.5 -130.5t92 -77t113.5 -24.5q96 0 173 43.5zM471 769.5q-5 6.5 -4 16.5q1 7 7 38q2 12 13 22.5t31 24.5q21 16 32 27t12 23
q3 41 -55 41q-24 0 -41 -12t-37 -34q-10 -11 -18 -11t-14 5.5t-6 11.5t8 18q26 29 51 45t62 16q44 0 70.5 -19.5t26.5 -53.5q0 -26 -15.5 -43.5t-43.5 -35.5q-27 -16 -29 -27l-6 -33q-4 -26 -28 -26q-11 0 -16 6.5z" />
    <glyph glyph-name="uni1EE0" unicode="&#x1ee0;" horiz-adv-x="798" 
d="M861.5 693.5q4.5 -5.5 3.5 -15.5q-10 -54 -39.5 -103t-88.5 -74q15 -46 15 -101q0 -116 -50 -204.5t-140 -137.5t-206 -49q-76 0 -143.5 33.5t-108.5 97.5t-41 151q0 115 50 210t138 150t197 55q94 0 166.5 -45.5t108.5 -123.5q42 18 66.5 56t33.5 86q1 10 8 15t17 5
q9 0 13.5 -5.5zM533 103.5q77 43.5 120.5 121t43.5 175.5q0 73 -31.5 131t-88 91t-128.5 33q-95 0 -171 -49.5t-118 -133t-42 -180.5q0 -78 36.5 -130.5t92 -77t113.5 -24.5q96 0 173 43.5zM337.5 776.5q-4.5 4.5 -4.5 12.5q0 10 9 19q27 28 46.5 39.5t44.5 11.5
q42 0 81 -21q3 -2 15 -9t22 -10.5t18 -3.5q9 0 17.5 5t19.5 14q13 13 22 13q7 0 12.5 -6t5.5 -14q0 -11 -8 -19q-23 -19 -41.5 -27.5t-37.5 -8.5q-13 0 -23.5 4t-25.5 12q-12 7 -23 11q-6 2 -25.5 11t-33.5 9q-10 0 -19.5 -6.5t-19 -15.5t-13.5 -12q-16 -13 -26 -13
q-8 0 -12.5 4.5z" />
    <glyph glyph-name="Ohungarumlaut" unicode="&#x150;" horiz-adv-x="779" 
d="M212.5 42.5q-67.5 33.5 -108.5 97.5t-41 151q0 115 50 210t138 150t197 55q87 0 156.5 -39.5t108.5 -109.5t39 -157q0 -116 -50 -204.5t-140 -137.5t-206 -49q-76 0 -143.5 33.5zM533 103.5q77 43.5 120.5 121t43.5 175.5q0 73 -31.5 131t-88 91t-128.5 33
q-95 0 -171 -49.5t-118 -133t-42 -180.5q0 -78 36.5 -130.5t92 -77t113.5 -24.5q96 0 173 43.5zM357.5 764.5q-4.5 4.5 -4.5 11.5q0 10 16 26l89 85q21 21 34 21q8 0 13 -5t5 -14q0 -14 -20 -30l-95 -87q-14 -12 -26 -12q-7 0 -11.5 4.5zM483.5 764.5q-4.5 4.5 -4.5 11.5
q0 11 16 26l88 85q21 21 35 21q8 0 13 -5t5 -14q0 -8 -5.5 -15t-15.5 -15l-94 -86q-9 -8 -15 -10.5t-12 -2.5t-10.5 4.5z" />
    <glyph glyph-name="Omacron" unicode="&#x14c;" horiz-adv-x="779" 
d="M212.5 42.5q-67.5 33.5 -108.5 97.5t-41 151q0 115 50 210t138 150t197 55q87 0 156.5 -39.5t108.5 -109.5t39 -157q0 -116 -50 -204.5t-140 -137.5t-206 -49q-76 0 -143.5 33.5zM533 103.5q77 43.5 120.5 121t43.5 175.5q0 73 -31.5 131t-88 91t-128.5 33
q-95 0 -171 -49.5t-118 -133t-42 -180.5q0 -78 36.5 -130.5t92 -77t113.5 -24.5q96 0 173 43.5zM309 797q0 11 6.5 19.5t17.5 9.5q63 14 176 14h139q22 0 22 -19q0 -26 -28 -26q-17 0 -30 1l-115 1q-60 0 -103 -6t-48 -7q-15 -3 -21 -3q-16 0 -16 16z" />
    <glyph glyph-name="Oslash" unicode="&#xd8;" horiz-adv-x="779" 
d="M777 728.5q5 -5.5 5 -13.5q0 -9 -13 -22l-90 -88q35 -40 54 -92.5t19 -112.5q0 -116 -50 -204.5t-140 -137.5t-206 -49q-58 0 -111.5 19.5t-94.5 56.5l-86 -84q-10 -9 -15.5 -12.5t-12.5 -3.5t-14 5t-7 13q0 5 3 9.5t9 10.5l95 93q-59 72 -59 175q0 115 50 210t138 150
t197 55q59 0 110.5 -19t92.5 -53l85 83q17 17 28 17q8 0 13 -5.5zM160 153l453 444q-66 58 -164 58q-95 0 -171 -49.5t-118 -133t-42 -180.5q0 -82 42 -139zM641 568l-453 -445q35 -31 81 -47t91 -16q96 0 173 43.5t120.5 121t43.5 175.5q0 100 -56 168z" />
    <glyph glyph-name="Oslashacute" unicode="&#x1fe;" horiz-adv-x="779" 
d="M777 728.5q5 -5.5 5 -13.5q0 -9 -13 -22l-90 -88q35 -40 54 -92.5t19 -112.5q0 -116 -50 -204.5t-140 -137.5t-206 -49q-58 0 -111.5 19.5t-94.5 56.5l-86 -84q-10 -9 -15.5 -12.5t-12.5 -3.5t-14 5t-7 13q0 5 3 9.5t9 10.5l95 93q-59 72 -59 175q0 115 50 210t138 150
t197 55q59 0 110.5 -19t92.5 -53l85 83q17 17 28 17q8 0 13 -5.5zM160 153l453 444q-66 58 -164 58q-95 0 -171 -49.5t-118 -133t-42 -180.5q0 -82 42 -139zM641 568l-453 -445q35 -31 81 -47t91 -16q96 0 173 43.5t120.5 121t43.5 175.5q0 100 -56 168zM434.5 767
q-5.5 5 -5.5 12q0 13 17 27l86 80q14 12 21.5 17t14.5 5q8 0 14 -5.5t6 -14.5t-5.5 -16t-16.5 -16l-94 -80q-10 -8 -15 -11t-11 -3t-11.5 5z" />
    <glyph glyph-name="Otilde" unicode="&#xd5;" horiz-adv-x="779" 
d="M212.5 42.5q-67.5 33.5 -108.5 97.5t-41 151q0 115 50 210t138 150t197 55q87 0 156.5 -39.5t108.5 -109.5t39 -157q0 -116 -50 -204.5t-140 -137.5t-206 -49q-76 0 -143.5 33.5zM533 103.5q77 43.5 120.5 121t43.5 175.5q0 73 -31.5 131t-88 91t-128.5 33
q-95 0 -171 -49.5t-118 -133t-42 -180.5q0 -78 36.5 -130.5t92 -77t113.5 -24.5q96 0 173 43.5zM337.5 776.5q-4.5 4.5 -4.5 12.5q0 10 9 19q27 28 46.5 39.5t44.5 11.5q42 0 81 -21q3 -2 15 -9t22 -10.5t18 -3.5q9 0 17.5 5t19.5 14q13 13 22 13q7 0 12.5 -6t5.5 -14
q0 -11 -8 -19q-23 -19 -41.5 -27.5t-37.5 -8.5q-13 0 -23.5 4t-25.5 12q-12 7 -23 11q-6 2 -25.5 11t-33.5 9q-10 0 -19.5 -6.5t-19 -15.5t-13.5 -12q-16 -13 -26 -13q-8 0 -12.5 4.5z" />
    <glyph glyph-name="OE" unicode="&#x152;" horiz-adv-x="965" 
d="M1001 671q0 -15 -8.5 -22.5t-20.5 -6.5q-41 5 -69 6.5t-69 1.5q-110 0 -137 -3q-2 -30 -7 -71.5t-10 -69.5q-8 -52 -21 -117q45 0 121 -2l65 -2q21 0 21 -17q0 -11 -8 -20t-21 -9l-93 1q-60 2 -96 2q-12 -57 -27.5 -127t-36.5 -146l42 -3q92 -8 149 -8q22 0 52 3
q35 4 37 4h3q23 0 18 -20q-2 -12 -9 -17t-19 -7q-18 -3 -55.5 -4.5t-66.5 -0.5q-46 2 -54 2q-53 3 -162 5q-19 1 -26 4.5t-7 12.5q0 13 9.5 19.5t32.5 6.5q8 28 26 98q-32 -71 -104.5 -112.5t-156.5 -41.5q-62 0 -114 32.5t-83 97t-31 156.5q0 112 44 208.5t121.5 153.5
t172.5 57q62 0 111.5 -28.5t79 -77.5t32.5 -110l4 27q7 51 13 122q-15 0 -15 15q0 28 32 28q12 0 56 2q117 3 118 3q103 0 155 -8q12 -1 12 -17zM457.5 114q64.5 54 98.5 139t34 175q0 109 -51 174t-138 65q-77 0 -140.5 -51t-100 -136t-36.5 -181q0 -82 25.5 -135.5
t67 -78.5t88.5 -25q88 0 152.5 54z" />
    <glyph glyph-name="P" unicode="P" horiz-adv-x="596" 
d="M491.5 680.5q54.5 -24.5 87 -70t32.5 -105.5q0 -72 -41.5 -125t-111 -81.5t-151.5 -28.5q-90 0 -145 35l-53 -282q-3 -15 -12 -22.5t-21 -7.5q-24 0 -24 23q0 5 1 8q9 53 22 116q23 115 36 189q16 92 31 195l10 64l-13 -6q-6 -3 -11 -3q-8 0 -13.5 7.5t-5.5 17.5
q0 11 5.5 17t18.5 12l28 14l4 26q2 17 10.5 25t24.5 8q26 0 23 -19l-2 -13q81 31 152 31q64 0 118.5 -24.5zM428.5 342q56.5 24 90.5 67t34 97q0 66 -53 107t-133 41q-67 0 -154 -37q-9 -52 -18 -111l-25 -152q57 -36 135 -36q67 0 123.5 24z" />
    <glyph glyph-name="Thorn" unicode="&#xde;" horiz-adv-x="624" 
d="M502.5 591.5q54.5 -23.5 88 -68t33.5 -103.5q0 -70 -39.5 -125t-107 -85.5t-148.5 -30.5q-87 0 -159 28l-36 -187q-2 -11 -12 -19t-21 -8q-14 0 -21.5 7t-5.5 18l18 96q30 155 35 183q15 89 38 208l-16 -9q-7 -4 -15 -4t-13.5 7t-5.5 14q0 12 15 21q12 8 44 25
q23 129 32 185q2 12 11 19t22 7q12 0 18.5 -7t5.5 -19l-26 -159q85 30 151 30q60 0 114.5 -23.5zM447 253.5q54 23.5 86.5 66.5t32.5 99q0 43 -25 76t-67.5 51t-93.5 18q-68 0 -151 -30l-22 -130q-9 -59 -27 -145q78 -29 152 -29q61 0 115 23.5z" />
    <glyph glyph-name="Q" unicode="Q" horiz-adv-x="768" 
d="M668 70q6 -7 6 -15q0 -13 -10.5 -23.5t-23.5 -10.5q-10 0 -18 8l-49 58q-51 -35 -113 -54t-129 -19q-84 0 -144 36.5t-91.5 100t-31.5 142.5q0 113 54 208.5t144.5 152t194.5 56.5q81 0 146.5 -38.5t102.5 -106.5t37 -155q0 -83 -32 -156.5t-90 -127.5zM442.5 81.5
q52.5 16.5 96.5 47.5l-72 86q-4 5 -4 12q0 12 13.5 22.5t24.5 10.5q8 0 12 -4l73 -88q49 47 76 110t27 132q0 73 -30.5 129.5t-83.5 88t-119 31.5q-90 0 -167.5 -51.5t-123.5 -136t-46 -178.5q0 -66 26 -118t74.5 -81t114.5 -29q56 0 108.5 16.5z" />
    <glyph glyph-name="R" unicode="R" horiz-adv-x="628" 
d="M578 394q-44 -52 -116.5 -79t-155.5 -27q-61 0 -118 18l328 -239q10 -7 10 -18q0 -13 -9 -24t-23 -11q-10 0 -23 10l-315 240q-28 -149 -44 -243q-2 -13 -10.5 -19.5t-20.5 -6.5q-24 0 -24 24q0 5 1 8q26 125 60 321q17 97 36 236l-9 -3q-6 -2 -9 -2q-9 0 -12 7t-3 18
q0 10 5 16.5t18 13.5q16 6 18 7q2 22 4 33q3 28 31 28q23 0 23 -17q0 -6 -1 -11t-1 -9q49 20 86 27.5t78 7.5q110 0 175 -49t65 -134q0 -71 -44 -123zM301.5 639q-40.5 -10 -91.5 -31q-15 -123 -36 -248q26 -10 61 -16t73 -6q66 0 124.5 20t94.5 60.5t36 98.5q0 60 -49 96
t-132 36q-40 0 -80.5 -10z" />
    <glyph glyph-name="Racute" unicode="&#x154;" horiz-adv-x="628" 
d="M578 394q-44 -52 -116.5 -79t-155.5 -27q-61 0 -118 18l328 -239q10 -7 10 -18q0 -13 -9 -24t-23 -11q-10 0 -23 10l-315 240q-28 -149 -44 -243q-2 -13 -10.5 -19.5t-20.5 -6.5q-24 0 -24 24q0 5 1 8q26 125 60 321q17 97 36 236l-9 -3q-6 -2 -9 -2q-9 0 -12 7t-3 18
q0 10 5 16.5t18 13.5q16 6 18 7q2 22 4 33q3 28 31 28q23 0 23 -17q0 -6 -1 -11t-1 -9q49 20 86 27.5t78 7.5q110 0 175 -49t65 -134q0 -71 -44 -123zM301.5 639q-40.5 -10 -91.5 -31q-15 -123 -36 -248q26 -10 61 -16t73 -6q66 0 124.5 20t94.5 60.5t36 98.5q0 60 -49 96
t-132 36q-40 0 -80.5 -10zM370.5 767q-5.5 5 -5.5 12q0 13 17 27l86 80q14 12 21.5 17t14.5 5q8 0 14 -5.5t6 -14.5t-5.5 -16t-16.5 -16l-94 -80q-10 -8 -15 -11t-11 -3t-11.5 5z" />
    <glyph glyph-name="Rcaron" unicode="&#x158;" horiz-adv-x="628" 
d="M578 394q-44 -52 -116.5 -79t-155.5 -27q-61 0 -118 18l328 -239q10 -7 10 -18q0 -13 -9 -24t-23 -11q-10 0 -23 10l-315 240q-28 -149 -44 -243q-2 -13 -10.5 -19.5t-20.5 -6.5q-24 0 -24 24q0 5 1 8q26 125 60 321q17 97 36 236l-9 -3q-6 -2 -9 -2q-9 0 -12 7t-3 18
q0 10 5 16.5t18 13.5q16 6 18 7q2 22 4 33q3 28 31 28q23 0 23 -17q0 -6 -1 -11t-1 -9q49 20 86 27.5t78 7.5q110 0 175 -49t65 -134q0 -71 -44 -123zM301.5 639q-40.5 -10 -91.5 -31q-15 -123 -36 -248q26 -10 61 -16t73 -6q66 0 124.5 20t94.5 60.5t36 98.5q0 60 -49 96
t-132 36q-40 0 -80.5 -10zM571 923q5 -5 5 -13q0 -6 -4 -10.5t-6 -6.5q-57 -62 -92.5 -94t-62.5 -32q-16 0 -36.5 21t-51.5 61q-16 23 -27 35q-5 6 -5 13q0 9 8.5 17.5t17.5 8.5q10 0 22 -18q64 -94 81 -94q11 0 44 30t74 77q8 10 21 10q7 0 12 -5z" />
    <glyph glyph-name="uni0156" unicode="&#x156;" horiz-adv-x="628" 
d="M578 394q-44 -52 -116.5 -79t-155.5 -27q-61 0 -118 18l328 -239q10 -7 10 -18q0 -13 -9 -24t-23 -11q-10 0 -23 10l-315 240q-28 -149 -44 -243q-2 -13 -10.5 -19.5t-20.5 -6.5q-24 0 -24 24q0 5 1 8q26 125 60 321q17 97 36 236l-9 -3q-6 -2 -9 -2q-9 0 -12 7t-3 18
q0 10 5 16.5t18 13.5q16 6 18 7q2 22 4 33q3 28 31 28q23 0 23 -17q0 -6 -1 -11t-1 -9q49 20 86 27.5t78 7.5q110 0 175 -49t65 -134q0 -71 -44 -123zM301.5 639q-40.5 -10 -91.5 -31q-15 -123 -36 -248q26 -10 61 -16t73 -6q66 0 124.5 20t94.5 60.5t36 98.5q0 60 -49 96
t-132 36q-40 0 -80.5 -10zM299.5 -87.5q12.5 -11.5 12.5 -31.5q0 -63 -107 -142q-6 -6 -13 -6q-6 0 -11.5 5t-5.5 12q0 4 5 11l16 15q36 29 52 52h-2q-15 0 -26 11t-11 28q0 24 18.5 40.5t40.5 16.5q19 0 31.5 -11.5z" />
    <glyph glyph-name="uni1E5A" unicode="&#x1e5a;" horiz-adv-x="628" 
d="M578 394q-44 -52 -116.5 -79t-155.5 -27q-61 0 -118 18l328 -239q10 -7 10 -18q0 -13 -9 -24t-23 -11q-10 0 -23 10l-315 240q-28 -149 -44 -243q-2 -13 -10.5 -19.5t-20.5 -6.5q-24 0 -24 24q0 5 1 8q26 125 60 321q17 97 36 236l-9 -3q-6 -2 -9 -2q-9 0 -12 7t-3 18
q0 10 5 16.5t18 13.5q16 6 18 7q2 22 4 33q3 28 31 28q23 0 23 -17q0 -6 -1 -11t-1 -9q49 20 86 27.5t78 7.5q110 0 175 -49t65 -134q0 -71 -44 -123zM301.5 639q-40.5 -10 -91.5 -31q-15 -123 -36 -248q26 -10 61 -16t73 -6q66 0 124.5 20t94.5 60.5t36 98.5q0 60 -49 96
t-132 36q-40 0 -80.5 -10zM222.5 -156.5q-10.5 10.5 -10.5 27.5q0 22 16 37.5t39 15.5q18 0 28.5 -10t10.5 -26q0 -23 -16 -39t-39 -16q-18 0 -28.5 10.5z" />
    <glyph glyph-name="uni1E5C" unicode="&#x1e5c;" horiz-adv-x="628" 
d="M578 394q-44 -52 -116.5 -79t-155.5 -27q-61 0 -118 18l328 -239q10 -7 10 -18q0 -13 -9 -24t-23 -11q-10 0 -23 10l-315 240q-28 -149 -44 -243q-2 -13 -10.5 -19.5t-20.5 -6.5q-24 0 -24 24q0 5 1 8q26 125 60 321q17 97 36 236l-9 -3q-6 -2 -9 -2q-9 0 -12 7t-3 18
q0 10 5 16.5t18 13.5q16 6 18 7q2 22 4 33q3 28 31 28q23 0 23 -17q0 -6 -1 -11t-1 -9q49 20 86 27.5t78 7.5q110 0 175 -49t65 -134q0 -71 -44 -123zM301.5 639q-40.5 -10 -91.5 -31q-15 -123 -36 -248q26 -10 61 -16t73 -6q66 0 124.5 20t94.5 60.5t36 98.5q0 60 -49 96
t-132 36q-40 0 -80.5 -10zM222.5 -156.5q-10.5 10.5 -10.5 27.5q0 22 16 37.5t39 15.5q18 0 28.5 -10t10.5 -26q0 -23 -16 -39t-39 -16q-18 0 -28.5 10.5zM245 797q0 11 6.5 19.5t17.5 9.5q63 14 176 14h139q22 0 22 -19q0 -26 -28 -26q-17 0 -30 1l-115 1q-60 0 -103 -6
t-48 -7q-15 -3 -21 -3q-16 0 -16 16z" />
    <glyph glyph-name="uni1E5E" unicode="&#x1e5e;" horiz-adv-x="628" 
d="M578 394q-44 -52 -116.5 -79t-155.5 -27q-61 0 -118 18l328 -239q10 -7 10 -18q0 -13 -9 -24t-23 -11q-10 0 -23 10l-315 240q-28 -149 -44 -243q-2 -13 -10.5 -19.5t-20.5 -6.5q-24 0 -24 24q0 5 1 8q26 125 60 321q17 97 36 236l-9 -3q-6 -2 -9 -2q-9 0 -12 7t-3 18
q0 10 5 16.5t18 13.5q16 6 18 7q2 22 4 33q3 28 31 28q23 0 23 -17q0 -6 -1 -11t-1 -9q49 20 86 27.5t78 7.5q110 0 175 -49t65 -134q0 -71 -44 -123zM301.5 639q-40.5 -10 -91.5 -31q-15 -123 -36 -248q26 -10 61 -16t73 -6q66 0 124.5 20t94.5 60.5t36 98.5q0 60 -49 96
t-132 36q-40 0 -80.5 -10zM111 -146.5q-4 4.5 -4 12.5q0 11 5.5 19t15.5 9q75 9 183 9q35 0 73 -2q12 -1 30 -1q10 0 15.5 -5t5.5 -13q0 -13 -8 -19.5t-20 -6.5l-26 1q-57 3 -79 3q-52 0 -145 -8q-25 -3 -36 -3q-6 0 -10 4.5z" />
    <glyph glyph-name="S" unicode="S" horiz-adv-x="534" 
d="M100.5 53.5q-51.5 51.5 -51.5 142.5q0 25 6.5 35t24.5 10q17 0 21 -9t4 -34q0 -75 37 -110.5t103 -35.5q76 0 124.5 40.5t48.5 104.5q0 37 -18 60.5t-48 38t-82 31.5q-46 14 -81 31t-61.5 51t-26.5 87q0 59 33 107t88 76t119 28q57 0 99.5 -22.5t64.5 -62t22 -88.5
q0 -25 -8.5 -34t-24.5 -9t-19.5 6t-3.5 15.5v14.5q-1 60 -34 94.5t-95 34.5q-51 0 -93.5 -22t-67.5 -58.5t-25 -79.5q0 -37 20 -59.5t47.5 -34.5t86.5 -31q70 -23 116 -62.5t46 -114.5q0 -57 -29 -100.5t-80.5 -67.5t-116.5 -24q-94 0 -145.5 51.5z" />
    <glyph glyph-name="Sacute" unicode="&#x15a;" horiz-adv-x="534" 
d="M100.5 53.5q-51.5 51.5 -51.5 142.5q0 25 6.5 35t24.5 10q17 0 21 -9t4 -34q0 -75 37 -110.5t103 -35.5q76 0 124.5 40.5t48.5 104.5q0 37 -18 60.5t-48 38t-82 31.5q-46 14 -81 31t-61.5 51t-26.5 87q0 59 33 107t88 76t119 28q57 0 99.5 -22.5t64.5 -62t22 -88.5
q0 -25 -8.5 -34t-24.5 -9t-19.5 6t-3.5 15.5v14.5q-1 60 -34 94.5t-95 34.5q-51 0 -93.5 -22t-67.5 -58.5t-25 -79.5q0 -37 20 -59.5t47.5 -34.5t86.5 -31q70 -23 116 -62.5t46 -114.5q0 -57 -29 -100.5t-80.5 -67.5t-116.5 -24q-94 0 -145.5 51.5zM319.5 767
q-5.5 5 -5.5 12q0 13 17 27l86 80q14 12 21.5 17t14.5 5q8 0 14 -5.5t6 -14.5t-5.5 -16t-16.5 -16l-94 -80q-10 -8 -15 -11t-11 -3t-11.5 5z" />
    <glyph glyph-name="Scaron" unicode="&#x160;" horiz-adv-x="534" 
d="M100.5 53.5q-51.5 51.5 -51.5 142.5q0 25 6.5 35t24.5 10q17 0 21 -9t4 -34q0 -75 37 -110.5t103 -35.5q76 0 124.5 40.5t48.5 104.5q0 37 -18 60.5t-48 38t-82 31.5q-46 14 -81 31t-61.5 51t-26.5 87q0 59 33 107t88 76t119 28q57 0 99.5 -22.5t64.5 -62t22 -88.5
q0 -25 -8.5 -34t-24.5 -9t-19.5 6t-3.5 15.5v14.5q-1 60 -34 94.5t-95 34.5q-51 0 -93.5 -22t-67.5 -58.5t-25 -79.5q0 -37 20 -59.5t47.5 -34.5t86.5 -31q70 -23 116 -62.5t46 -114.5q0 -57 -29 -100.5t-80.5 -67.5t-116.5 -24q-94 0 -145.5 51.5zM520 923q5 -5 5 -13
q0 -6 -4 -10.5t-6 -6.5q-57 -62 -92.5 -94t-62.5 -32q-16 0 -36.5 21t-51.5 61q-16 23 -27 35q-5 6 -5 13q0 9 8.5 17.5t17.5 8.5q10 0 22 -18q64 -94 81 -94q11 0 44 30t74 77q8 10 21 10q7 0 12 -5z" />
    <glyph glyph-name="Scedilla" unicode="&#x15e;" horiz-adv-x="534" 
d="M440.5 684.5q42.5 -22.5 64.5 -62t22 -88.5q0 -25 -8.5 -34t-24.5 -9t-19.5 6t-3.5 15.5v14.5q-1 60 -34 94.5t-95 34.5q-51 0 -93.5 -22t-67.5 -58.5t-25 -79.5q0 -37 20 -59.5t47.5 -34.5t86.5 -31q70 -23 116 -62.5t46 -114.5q0 -77 -51.5 -128t-135.5 -62l-2 -2
l-49 -61q34 -8 55.5 -27.5t21.5 -48.5q0 -45 -37.5 -68.5t-95.5 -23.5q-18 0 -40.5 4t-37.5 10q-12 4 -12 18q0 12 8 19t20 5q5 -1 26 -6.5t38 -5.5q81 0 81 48q0 19 -17.5 27t-56.5 15q-9 1 -14.5 5.5t-5.5 10.5q0 3 2 9l59 70q-86 5 -132.5 56t-46.5 138q0 25 6.5 35
t24.5 10q17 0 21 -9t4 -34q0 -75 37 -110.5t103 -35.5q76 0 124.5 40.5t48.5 104.5q0 37 -18 60.5t-48 38t-82 31.5q-46 14 -81 31t-61.5 51t-26.5 87q0 59 33 107t88 76t119 28q57 0 99.5 -22.5z" />
    <glyph glyph-name="Scircumflex" unicode="&#x15c;" horiz-adv-x="534" 
d="M100.5 53.5q-51.5 51.5 -51.5 142.5q0 25 6.5 35t24.5 10q17 0 21 -9t4 -34q0 -75 37 -110.5t103 -35.5q76 0 124.5 40.5t48.5 104.5q0 37 -18 60.5t-48 38t-82 31.5q-46 14 -81 31t-61.5 51t-26.5 87q0 59 33 107t88 76t119 28q57 0 99.5 -22.5t64.5 -62t22 -88.5
q0 -25 -8.5 -34t-24.5 -9t-19.5 6t-3.5 15.5v14.5q-1 60 -34 94.5t-95 34.5q-51 0 -93.5 -22t-67.5 -58.5t-25 -79.5q0 -37 20 -59.5t47.5 -34.5t86.5 -31q70 -23 116 -62.5t46 -114.5q0 -57 -29 -100.5t-80.5 -67.5t-116.5 -24q-94 0 -145.5 51.5zM468 778q-24 46 -46 76
t-33 30q-16 0 -115 -94q-17 -17 -28 -17q-8 0 -13.5 6t-5.5 13q0 9 11 20l31 28q46 42 76.5 65.5t48.5 23.5q27 0 51.5 -32.5t60.5 -94.5q4 -6 4 -11q0 -9 -7.5 -16t-16.5 -7q-13 0 -18 10z" />
    <glyph glyph-name="uni0218" unicode="&#x218;" horiz-adv-x="534" 
d="M100.5 53.5q-51.5 51.5 -51.5 142.5q0 25 6.5 35t24.5 10q17 0 21 -9t4 -34q0 -75 37 -110.5t103 -35.5q76 0 124.5 40.5t48.5 104.5q0 37 -18 60.5t-48 38t-82 31.5q-46 14 -81 31t-61.5 51t-26.5 87q0 59 33 107t88 76t119 28q57 0 99.5 -22.5t64.5 -62t22 -88.5
q0 -25 -8.5 -34t-24.5 -9t-19.5 6t-3.5 15.5v14.5q-1 60 -34 94.5t-95 34.5q-51 0 -93.5 -22t-67.5 -58.5t-25 -79.5q0 -37 20 -59.5t47.5 -34.5t86.5 -31q70 -23 116 -62.5t46 -114.5q0 -57 -29 -100.5t-80.5 -67.5t-116.5 -24q-94 0 -145.5 51.5zM271.5 -87.5
q12.5 -11.5 12.5 -31.5q0 -63 -107 -142q-6 -6 -13 -6q-6 0 -11.5 5t-5.5 12q0 4 5 11l16 15q36 29 52 52h-2q-15 0 -26 11t-11 28q0 24 18.5 40.5t40.5 16.5q19 0 31.5 -11.5z" />
    <glyph glyph-name="uni1E60" unicode="&#x1e60;" horiz-adv-x="534" 
d="M100.5 53.5q-51.5 51.5 -51.5 142.5q0 25 6.5 35t24.5 10q17 0 21 -9t4 -34q0 -75 37 -110.5t103 -35.5q76 0 124.5 40.5t48.5 104.5q0 37 -18 60.5t-48 38t-82 31.5q-46 14 -81 31t-61.5 51t-26.5 87q0 59 33 107t88 76t119 28q57 0 99.5 -22.5t64.5 -62t22 -88.5
q0 -25 -8.5 -34t-24.5 -9t-19.5 6t-3.5 15.5v14.5q-1 60 -34 94.5t-95 34.5q-51 0 -93.5 -22t-67.5 -58.5t-25 -79.5q0 -37 20 -59.5t47.5 -34.5t86.5 -31q70 -23 116 -62.5t46 -114.5q0 -57 -29 -100.5t-80.5 -67.5t-116.5 -24q-94 0 -145.5 51.5zM340.5 792.5
q-10.5 10.5 -10.5 27.5q0 22 16 37.5t39 15.5q17 0 28 -10t11 -26q0 -23 -16 -39t-39 -16q-18 0 -28.5 10.5z" />
    <glyph glyph-name="uni1E62" unicode="&#x1e62;" horiz-adv-x="534" 
d="M100.5 53.5q-51.5 51.5 -51.5 142.5q0 25 6.5 35t24.5 10q17 0 21 -9t4 -34q0 -75 37 -110.5t103 -35.5q76 0 124.5 40.5t48.5 104.5q0 37 -18 60.5t-48 38t-82 31.5q-46 14 -81 31t-61.5 51t-26.5 87q0 59 33 107t88 76t119 28q57 0 99.5 -22.5t64.5 -62t22 -88.5
q0 -25 -8.5 -34t-24.5 -9t-19.5 6t-3.5 15.5v14.5q-1 60 -34 94.5t-95 34.5q-51 0 -93.5 -22t-67.5 -58.5t-25 -79.5q0 -37 20 -59.5t47.5 -34.5t86.5 -31q70 -23 116 -62.5t46 -114.5q0 -57 -29 -100.5t-80.5 -67.5t-116.5 -24q-94 0 -145.5 51.5zM194.5 -156.5
q-10.5 10.5 -10.5 27.5q0 22 16 37.5t39 15.5q18 0 28.5 -10t10.5 -26q0 -23 -16 -39t-39 -16q-18 0 -28.5 10.5z" />
    <glyph glyph-name="uni1E9E" unicode="&#x1e9e;" horiz-adv-x="643" 
d="M272.5 34.5q-43.5 36.5 -61.5 75.5q-10 20 -10 33q0 11 9.5 19.5t21.5 8.5q10 0 15 -5.5t10 -16t10 -18.5q19 -36 47.5 -59.5t73.5 -23.5q52 0 88.5 30.5t36.5 73.5q0 28 -17.5 51.5t-52.5 55.5q-41 39 -61.5 68t-20.5 68q0 34 16 59.5t47 61.5q26 29 39 49t13 43
q0 35 -33.5 61.5t-86.5 26.5q-72 0 -110 -53t-55 -148q-9 -48 -23 -148q-27 -189 -50 -316q-2 -16 -10.5 -23.5t-25.5 -7.5q-13 0 -18.5 7.5t-3.5 19.5l76 479q15 97 67.5 168t152.5 71q75 0 126 -38t51 -99q0 -35 -16 -61.5t-45 -57.5q-27 -31 -39 -50t-12 -44
q0 -29 17 -51.5t52 -54.5q40 -36 61 -66t21 -71q0 -46 -24.5 -81t-66.5 -54t-92 -19q-73 0 -116.5 36.5z" />
    <glyph glyph-name="uni018F" unicode="&#x18f;" horiz-adv-x="771" 
d="M191.5 25.5q-64.5 32.5 -100 86.5t-35.5 116q0 55 14 81t46 27l555 11q7 0 9 10q5 20 5 58q0 104 -66 164.5t-179 60.5q-72 0 -125.5 -24t-84.5 -53.5t-61 -66.5q-8 -11 -19 -11q-9 0 -18.5 7t-9.5 16q0 11 13 27q121 157 306 157q93 0 160.5 -37.5t102.5 -100.5t35 -139
q0 -116 -53 -212.5t-144.5 -153t-203.5 -56.5q-82 0 -146.5 32.5zM499 81.5q76 44.5 122 107t46 108.5q0 7 -10 7l-531 -11q-10 0 -15.5 -20.5t-5.5 -43.5q0 -51 30.5 -95t84 -70.5t118.5 -26.5q85 0 161 44.5z" />
    <glyph glyph-name="T" unicode="T" horiz-adv-x="537" 
d="M580 668q0 -13 -8.5 -23t-22.5 -9q-104 8 -177 8q-27 -113 -70 -311q-38 -181 -62 -307q-3 -16 -10.5 -23.5t-24.5 -7.5q-25 0 -25 22q0 4 2 14l65 301q25 110 32 144q24 103 38 168q-100 -1 -188 -11h-5q-17 0 -17 20q0 13 7 21t19 9q105 12 229 12q130 0 196 -7
q22 -2 22 -20z" />
    <glyph glyph-name="Tbar" unicode="&#x166;" horiz-adv-x="537" 
d="M580 668q0 -13 -8.5 -23t-22.5 -9q-104 8 -177 8q-25 -101 -47 -208l111 -3q12 -1 17.5 -4.5t5.5 -12.5q0 -14 -8.5 -21.5t-21.5 -7.5l-114 4l-13 -58q-38 -181 -62 -307q-3 -16 -10.5 -23.5t-24.5 -7.5q-25 0 -25 22q0 4 2 14l65 301l14 61l-113 4q-9 0 -14 5.5t-5 13.5
q0 12 9 18.5t20 6.5l113 -3q7 29 11 49t7 33q15 63 28 124q-100 -1 -188 -11h-5q-17 0 -17 20q0 13 7 21t19 9q105 12 229 12q130 0 196 -7q22 -2 22 -20z" />
    <glyph glyph-name="Tcaron" unicode="&#x164;" horiz-adv-x="537" 
d="M580 668q0 -13 -8.5 -23t-22.5 -9q-104 8 -177 8q-27 -113 -70 -311q-38 -181 -62 -307q-3 -16 -10.5 -23.5t-24.5 -7.5q-25 0 -25 22q0 4 2 14l65 301q25 110 32 144q24 103 38 168q-100 -1 -188 -11h-5q-17 0 -17 20q0 13 7 21t19 9q105 12 229 12q130 0 196 -7
q22 -2 22 -20zM511 923q5 -5 5 -13q0 -6 -4 -10.5t-6 -6.5q-57 -62 -92.5 -94t-62.5 -32q-16 0 -36.5 21t-51.5 61q-16 23 -27 35q-5 6 -5 13q0 9 8.5 17.5t17.5 8.5q10 0 22 -18q64 -94 81 -94q11 0 44 30t74 77q8 10 21 10q7 0 12 -5z" />
    <glyph glyph-name="uni0162" unicode="&#x162;" horiz-adv-x="537" 
d="M580 668q0 -13 -8.5 -23t-22.5 -9q-104 8 -177 8q-27 -113 -70 -311q-38 -181 -62 -307q-3 -15 -10 -22l-1 -2l-49 -61q34 -8 55.5 -27.5t21.5 -48.5q0 -45 -37.5 -68.5t-95.5 -23.5q-18 0 -40.5 4t-37.5 10q-12 4 -12 18q0 12 8 19t20 5q5 -1 26 -6.5t38 -5.5
q81 0 81 48q0 19 -17.5 27t-56.5 15q-9 1 -14.5 5.5t-5.5 10.5q0 3 2 9l66 78l-1 8q0 3 2 13l65 301q25 110 32 144q24 103 38 168q-100 -1 -188 -11h-5q-17 0 -17 20q0 13 7 21t19 9q105 12 229 12q130 0 196 -7q22 -2 22 -20z" />
    <glyph glyph-name="uni021A" unicode="&#x21a;" horiz-adv-x="537" 
d="M580 668q0 -13 -8.5 -23t-22.5 -9q-104 8 -177 8q-27 -113 -70 -311q-38 -181 -62 -307q-3 -16 -10.5 -23.5t-24.5 -7.5q-25 0 -25 22q0 4 2 14l65 301q25 110 32 144q24 103 38 168q-100 -1 -188 -11h-5q-17 0 -17 20q0 13 7 21t19 9q105 12 229 12q130 0 196 -7
q22 -2 22 -20zM217.5 -87.5q12.5 -11.5 12.5 -31.5q0 -63 -107 -142q-6 -6 -13 -6q-6 0 -11.5 5t-5.5 12q0 4 5 11l16 15q36 29 52 52h-2q-15 0 -26 11t-11 28q0 24 18.5 40.5t40.5 16.5q19 0 31.5 -11.5z" />
    <glyph glyph-name="uni1E6C" unicode="&#x1e6c;" horiz-adv-x="537" 
d="M580 668q0 -13 -8.5 -23t-22.5 -9q-104 8 -177 8q-27 -113 -70 -311q-38 -181 -62 -307q-3 -16 -10.5 -23.5t-24.5 -7.5q-25 0 -25 22q0 4 2 14l65 301q25 110 32 144q24 103 38 168q-100 -1 -188 -11h-5q-17 0 -17 20q0 13 7 21t19 9q105 12 229 12q130 0 196 -7
q22 -2 22 -20zM140.5 -156.5q-10.5 10.5 -10.5 27.5q0 22 16 37.5t39 15.5q18 0 28.5 -10t10.5 -26q0 -23 -16 -39t-39 -16q-18 0 -28.5 10.5z" />
    <glyph glyph-name="uni1E6E" unicode="&#x1e6e;" horiz-adv-x="537" 
d="M580 668q0 -13 -8.5 -23t-22.5 -9q-104 8 -177 8q-27 -113 -70 -311q-38 -181 -62 -307q-3 -16 -10.5 -23.5t-24.5 -7.5q-25 0 -25 22q0 4 2 14l65 301q25 110 32 144q24 103 38 168q-100 -1 -188 -11h-5q-17 0 -17 20q0 13 7 21t19 9q105 12 229 12q130 0 196 -7
q22 -2 22 -20zM29 -146.5q-4 4.5 -4 12.5q0 11 5.5 19t15.5 9q75 9 183 9q35 0 73 -2q12 -1 30 -1q10 0 15.5 -5t5.5 -13q0 -13 -8 -19.5t-20 -6.5l-26 1q-57 3 -79 3q-52 0 -145 -8q-25 -3 -36 -3q-6 0 -10 4.5z" />
    <glyph glyph-name="U" unicode="U" horiz-adv-x="640" 
d="M642 700.5q6 -7.5 4 -20.5q-21 -121 -45 -275q-14 -90 -38 -228q-8 -43 -14 -82t-12 -72q-5 -25 -31 -25q-23 0 -23 20q0 6 1 9q8 49 17 99q-39 -56 -100.5 -89.5t-138.5 -33.5q-68 0 -112 28.5t-64 73t-20 94.5q0 34 19 134t58 294l10 51q5 23 30 23q27 0 23 -25
q-84 -397 -84 -477q0 -68 36 -106.5t104 -38.5q69 0 125.5 35t91.5 85t43 90q11 56 32.5 181t38.5 236q5 27 29 27q14 0 20 -7.5z" />
    <glyph glyph-name="Uacute" unicode="&#xda;" horiz-adv-x="640" 
d="M642 700.5q6 -7.5 4 -20.5q-21 -121 -45 -275q-14 -90 -38 -228q-8 -43 -14 -82t-12 -72q-5 -25 -31 -25q-23 0 -23 20q0 6 1 9q8 49 17 99q-39 -56 -100.5 -89.5t-138.5 -33.5q-68 0 -112 28.5t-64 73t-20 94.5q0 34 19 134t58 294l10 51q5 23 30 23q27 0 23 -25
q-84 -397 -84 -477q0 -68 36 -106.5t104 -38.5q69 0 125.5 35t91.5 85t43 90q11 56 32.5 181t38.5 236q5 27 29 27q14 0 20 -7.5zM365.5 767q-5.5 5 -5.5 12q0 13 17 27l86 80q14 12 21.5 17t14.5 5q8 0 14 -5.5t6 -14.5t-5.5 -16t-16.5 -16l-94 -80q-10 -8 -15 -11t-11 -3
t-11.5 5z" />
    <glyph glyph-name="Ubreve" unicode="&#x16c;" horiz-adv-x="640" 
d="M642 700.5q6 -7.5 4 -20.5q-21 -121 -45 -275q-14 -90 -38 -228q-8 -43 -14 -82t-12 -72q-5 -25 -31 -25q-23 0 -23 20q0 6 1 9q8 49 17 99q-39 -56 -100.5 -89.5t-138.5 -33.5q-68 0 -112 28.5t-64 73t-20 94.5q0 34 19 134t58 294l10 51q5 23 30 23q27 0 23 -25
q-84 -397 -84 -477q0 -68 36 -106.5t104 -38.5q69 0 125.5 35t91.5 85t43 90q11 56 32.5 181t38.5 236q5 27 29 27q14 0 20 -7.5zM348.5 786.5q-30.5 14.5 -47.5 39t-17 52.5q0 11 1 16q2 10 8.5 15.5t14.5 5.5q22 0 21 -15q-1 -4 -1 -13q1 -34 27 -54.5t66 -20.5
q42 0 75.5 26t39.5 60q1 10 9 15t17 5t14.5 -5.5t4.5 -14.5q-5 -32 -28.5 -61.5t-59 -47t-74.5 -17.5q-40 0 -70.5 14.5z" />
    <glyph glyph-name="uni01D3" unicode="&#x1d3;" horiz-adv-x="640" 
d="M642 700.5q6 -7.5 4 -20.5q-21 -121 -45 -275q-14 -90 -38 -228q-8 -43 -14 -82t-12 -72q-5 -25 -31 -25q-23 0 -23 20q0 6 1 9q8 49 17 99q-39 -56 -100.5 -89.5t-138.5 -33.5q-68 0 -112 28.5t-64 73t-20 94.5q0 34 19 134t58 294l10 51q5 23 30 23q27 0 23 -25
q-84 -397 -84 -477q0 -68 36 -106.5t104 -38.5q69 0 125.5 35t91.5 85t43 90q11 56 32.5 181t38.5 236q5 27 29 27q14 0 20 -7.5zM566 923q5 -5 5 -13q0 -6 -4 -10.5t-6 -6.5q-57 -62 -92.5 -94t-62.5 -32q-16 0 -36.5 21t-51.5 61q-16 23 -27 35q-5 6 -5 13q0 9 8.5 17.5
t17.5 8.5q10 0 22 -18q64 -94 81 -94q11 0 44 30t74 77q8 10 21 10q7 0 12 -5z" />
    <glyph glyph-name="Ucircumflex" unicode="&#xdb;" horiz-adv-x="640" 
d="M642 700.5q6 -7.5 4 -20.5q-21 -121 -45 -275q-14 -90 -38 -228q-8 -43 -14 -82t-12 -72q-5 -25 -31 -25q-23 0 -23 20q0 6 1 9q8 49 17 99q-39 -56 -100.5 -89.5t-138.5 -33.5q-68 0 -112 28.5t-64 73t-20 94.5q0 34 19 134t58 294l10 51q5 23 30 23q27 0 23 -25
q-84 -397 -84 -477q0 -68 36 -106.5t104 -38.5q69 0 125.5 35t91.5 85t43 90q11 56 32.5 181t38.5 236q5 27 29 27q14 0 20 -7.5zM514 778q-24 46 -46 76t-33 30q-16 0 -115 -94q-17 -17 -28 -17q-8 0 -13.5 6t-5.5 13q0 9 11 20l31 28q46 42 76.5 65.5t48.5 23.5
q27 0 51.5 -32.5t60.5 -94.5q4 -6 4 -11q0 -9 -7.5 -16t-16.5 -7q-13 0 -18 10z" />
    <glyph glyph-name="Udieresis" unicode="&#xdc;" horiz-adv-x="640" 
d="M642 700.5q6 -7.5 4 -20.5q-21 -121 -45 -275q-14 -90 -38 -228q-8 -43 -14 -82t-12 -72q-5 -25 -31 -25q-23 0 -23 20q0 6 1 9q8 49 17 99q-39 -56 -100.5 -89.5t-138.5 -33.5q-68 0 -112 28.5t-64 73t-20 94.5q0 34 19 134t58 294l10 51q5 23 30 23q27 0 23 -25
q-84 -397 -84 -477q0 -68 36 -106.5t104 -38.5q69 0 125.5 35t91.5 85t43 90q11 56 32.5 181t38.5 236q5 27 29 27q14 0 20 -7.5zM273 792.5q-11 10.5 -11 27.5q0 23 16 38t39 15q18 0 29.5 -10t11.5 -26q0 -22 -17 -38.5t-39 -16.5q-18 0 -29 10.5zM501.5 792.5
q-10.5 10.5 -10.5 27.5q0 23 16 38t39 15q17 0 28 -10t11 -26q0 -22 -16 -38.5t-39 -16.5q-18 0 -28.5 10.5z" />
    <glyph glyph-name="uni01D7" unicode="&#x1d7;" horiz-adv-x="640" 
d="M642 700.5q6 -7.5 4 -20.5q-21 -121 -45 -275q-14 -90 -38 -228q-8 -43 -14 -82t-12 -72q-5 -25 -31 -25q-23 0 -23 20q0 6 1 9q8 49 17 99q-39 -56 -100.5 -89.5t-138.5 -33.5q-68 0 -112 28.5t-64 73t-20 94.5q0 34 19 134t58 294l10 51q5 23 30 23q27 0 23 -25
q-84 -397 -84 -477q0 -68 36 -106.5t104 -38.5q69 0 125.5 35t91.5 85t43 90q11 56 32.5 181t38.5 236q5 27 29 27q14 0 20 -7.5zM272 792.5q-11 10.5 -11 27.5q0 23 16 38t39 15q18 0 29.5 -10t11.5 -26q0 -22 -17 -38.5t-39 -16.5q-18 0 -29 10.5zM500.5 792.5
q-10.5 10.5 -10.5 27.5q0 23 16 38t39 15q17 0 28 -10t11 -26q0 -22 -16 -38.5t-39 -16.5q-18 0 -28.5 10.5zM396.5 885q-5.5 5 -5.5 12q0 13 17 27l86 80q14 12 21.5 17t14.5 5q8 0 14 -5.5t6 -14.5t-5.5 -16t-16.5 -16l-94 -80q-10 -8 -15 -11t-11 -3t-11.5 5z" />
    <glyph glyph-name="uni01D9" unicode="&#x1d9;" horiz-adv-x="640" 
d="M642 700.5q6 -7.5 4 -20.5q-21 -121 -45 -275q-14 -90 -38 -228q-8 -43 -14 -82t-12 -72q-5 -25 -31 -25q-23 0 -23 20q0 6 1 9q8 49 17 99q-39 -56 -100.5 -89.5t-138.5 -33.5q-68 0 -112 28.5t-64 73t-20 94.5q0 34 19 134t58 294l10 51q5 23 30 23q27 0 23 -25
q-84 -397 -84 -477q0 -68 36 -106.5t104 -38.5q69 0 125.5 35t91.5 85t43 90q11 56 32.5 181t38.5 236q5 27 29 27q14 0 20 -7.5zM272 792.5q-11 10.5 -11 27.5q0 23 16 38t39 15q18 0 29.5 -10t11.5 -26q0 -22 -17 -38.5t-39 -16.5q-18 0 -29 10.5zM500.5 792.5
q-10.5 10.5 -10.5 27.5q0 23 16 38t39 15q17 0 28 -10t11 -26q0 -22 -16 -38.5t-39 -16.5q-18 0 -28.5 10.5zM581 1042q5 -5 5 -13q0 -6 -4 -10.5t-6 -6.5q-57 -62 -92.5 -94t-62.5 -32q-16 0 -36.5 21t-51.5 61q-16 23 -27 35q-5 6 -5 13q0 9 8.5 17.5t17.5 8.5
q10 0 22 -18q64 -94 81 -94q11 0 44 30t74 77q8 10 21 10q7 0 12 -5z" />
    <glyph glyph-name="uni01DB" unicode="&#x1db;" horiz-adv-x="640" 
d="M642 700.5q6 -7.5 4 -20.5q-21 -121 -45 -275q-14 -90 -38 -228q-8 -43 -14 -82t-12 -72q-5 -25 -31 -25q-23 0 -23 20q0 6 1 9q8 49 17 99q-39 -56 -100.5 -89.5t-138.5 -33.5q-68 0 -112 28.5t-64 73t-20 94.5q0 34 19 134t58 294l10 51q5 23 30 23q27 0 23 -25
q-84 -397 -84 -477q0 -68 36 -106.5t104 -38.5q69 0 125.5 35t91.5 85t43 90q11 56 32.5 181t38.5 236q5 27 29 27q14 0 20 -7.5zM272 792.5q-11 10.5 -11 27.5q0 23 16 38t39 15q18 0 29.5 -10t11.5 -26q0 -22 -17 -38.5t-39 -16.5q-18 0 -29 10.5zM500.5 792.5
q-10.5 10.5 -10.5 27.5q0 23 16 38t39 15q17 0 28 -10t11 -26q0 -22 -16 -38.5t-39 -16.5q-18 0 -28.5 10.5zM415 887.5q-5 2.5 -11 10.5l-64 86q-10 13 -10 22q0 12 7.5 19.5t17.5 7.5q13 0 27 -21l58 -85q9 -10 9 -19t-7 -16t-16 -7q-6 0 -11 2.5z" />
    <glyph glyph-name="uni01D5" unicode="&#x1d5;" horiz-adv-x="640" 
d="M642 700.5q6 -7.5 4 -20.5q-21 -121 -45 -275q-14 -90 -38 -228q-8 -43 -14 -82t-12 -72q-5 -25 -31 -25q-23 0 -23 20q0 6 1 9q8 49 17 99q-39 -56 -100.5 -89.5t-138.5 -33.5q-68 0 -112 28.5t-64 73t-20 94.5q0 34 19 134t58 294l10 51q5 23 30 23q27 0 23 -25
q-84 -397 -84 -477q0 -68 36 -106.5t104 -38.5q69 0 125.5 35t91.5 85t43 90q11 56 32.5 181t38.5 236q5 27 29 27q14 0 20 -7.5zM272 792.5q-11 10.5 -11 27.5q0 23 16 38t39 15q18 0 29.5 -10t11.5 -26q0 -22 -17 -38.5t-39 -16.5q-18 0 -29 10.5zM500.5 792.5
q-10.5 10.5 -10.5 27.5q0 23 16 38t39 15q17 0 28 -10t11 -26q0 -22 -16 -38.5t-39 -16.5q-18 0 -28.5 10.5zM346 931q-29 0 -48 8q-14 5 -14 18q0 14 10 21t22 5q30 -7 70 -7q23 0 69 4q48 4 76 4q12 0 36 -2q16 -2 25 -2t14 -5.5t5 -13.5q0 -11 -8 -18t-18 -7l-28 2
q-20 2 -28 2q-31 0 -75 -4q-42 -4 -65 -4z" />
    <glyph glyph-name="uni1EE4" unicode="&#x1ee4;" horiz-adv-x="640" 
d="M642 700.5q6 -7.5 4 -20.5q-21 -121 -45 -275q-14 -90 -38 -228q-8 -43 -14 -82t-12 -72q-5 -25 -31 -25q-23 0 -23 20q0 6 1 9q8 49 17 99q-39 -56 -100.5 -89.5t-138.5 -33.5q-68 0 -112 28.5t-64 73t-20 94.5q0 34 19 134t58 294l10 51q5 23 30 23q27 0 23 -25
q-84 -397 -84 -477q0 -68 36 -106.5t104 -38.5q69 0 125.5 35t91.5 85t43 90q11 56 32.5 181t38.5 236q5 27 29 27q14 0 20 -7.5zM217.5 -156.5q-10.5 10.5 -10.5 27.5q0 22 16 37.5t39 15.5q18 0 28.5 -10t10.5 -26q0 -23 -16 -39t-39 -16q-18 0 -28.5 10.5z" />
    <glyph glyph-name="Ugrave" unicode="&#xd9;" horiz-adv-x="640" 
d="M642 700.5q6 -7.5 4 -20.5q-21 -121 -45 -275q-14 -90 -38 -228q-8 -43 -14 -82t-12 -72q-5 -25 -31 -25q-23 0 -23 20q0 6 1 9q8 49 17 99q-39 -56 -100.5 -89.5t-138.5 -33.5q-68 0 -112 28.5t-64 73t-20 94.5q0 34 19 134t58 294l10 51q5 23 30 23q27 0 23 -25
q-84 -397 -84 -477q0 -68 36 -106.5t104 -38.5q69 0 125.5 35t91.5 85t43 90q11 56 32.5 181t38.5 236q5 27 29 27q14 0 20 -7.5zM452 762.5q-5 2.5 -11 10.5l-64 86q-10 13 -10 22q0 12 7.5 19.5t17.5 7.5q13 0 27 -21l58 -85q9 -10 9 -19t-7 -16t-16 -7q-6 0 -11 2.5z" />
    <glyph glyph-name="uni1EE6" unicode="&#x1ee6;" horiz-adv-x="640" 
d="M642 700.5q6 -7.5 4 -20.5q-21 -121 -45 -275q-14 -90 -38 -228q-8 -43 -14 -82t-12 -72q-5 -25 -31 -25q-23 0 -23 20q0 6 1 9q8 49 17 99q-39 -56 -100.5 -89.5t-138.5 -33.5q-68 0 -112 28.5t-64 73t-20 94.5q0 34 19 134t58 294l10 51q5 23 30 23q27 0 23 -25
q-84 -397 -84 -477q0 -68 36 -106.5t104 -38.5q69 0 125.5 35t91.5 85t43 90q11 56 32.5 181t38.5 236q5 27 29 27q14 0 20 -7.5zM402 769.5q-5 6.5 -4 16.5q1 7 7 38q2 12 13 22.5t31 24.5q21 16 32 27t12 23q3 41 -55 41q-24 0 -41 -12t-37 -34q-10 -11 -18 -11t-14 5.5
t-6 11.5t8 18q26 29 51 45t62 16q44 0 70.5 -19.5t26.5 -53.5q0 -26 -15.5 -43.5t-43.5 -35.5q-27 -16 -29 -27l-6 -33q-4 -26 -28 -26q-11 0 -16 6.5z" />
    <glyph glyph-name="Uhorn" unicode="&#x1af;" horiz-adv-x="693" 
d="M757.5 706.5q4.5 -5.5 3.5 -15.5q-10 -57 -43.5 -108.5t-100.5 -74.5l-16 -103q-14 -90 -38 -228q-8 -43 -14 -82t-12 -72q-5 -25 -31 -25q-23 0 -23 20q0 6 1 9q8 49 17 99q-39 -56 -100.5 -89.5t-138.5 -33.5q-68 0 -112 28.5t-64 73t-20 94.5q0 34 19 134t58 294
l10 51q5 23 30 23q27 0 23 -25q-84 -397 -84 -477q0 -68 36 -106.5t104 -38.5q69 0 125.5 35t91.5 85t43 90q11 56 32.5 181t38.5 236q5 27 29 27q14 0 20 -7.5t4 -20.5l-22 -128q74 35 95 140q1 10 8 15t17 5q9 0 13.5 -5.5z" />
    <glyph glyph-name="uni1EE8" unicode="&#x1ee8;" horiz-adv-x="693" 
d="M757.5 706.5q4.5 -5.5 3.5 -15.5q-10 -57 -43.5 -108.5t-100.5 -74.5l-16 -103q-14 -90 -38 -228q-8 -43 -14 -82t-12 -72q-5 -25 -31 -25q-23 0 -23 20q0 6 1 9q8 49 17 99q-39 -56 -100.5 -89.5t-138.5 -33.5q-68 0 -112 28.5t-64 73t-20 94.5q0 34 19 134t58 294
l10 51q5 23 30 23q27 0 23 -25q-84 -397 -84 -477q0 -68 36 -106.5t104 -38.5q69 0 125.5 35t91.5 85t43 90q11 56 32.5 181t38.5 236q5 27 29 27q14 0 20 -7.5t4 -20.5l-22 -128q74 35 95 140q1 10 8 15t17 5q9 0 13.5 -5.5zM365.5 767q-5.5 5 -5.5 12q0 13 17 27l86 80
q14 12 21.5 17t14.5 5q8 0 14 -5.5t6 -14.5t-5.5 -16t-16.5 -16l-94 -80q-10 -8 -15 -11t-11 -3t-11.5 5z" />
    <glyph glyph-name="uni1EF0" unicode="&#x1ef0;" horiz-adv-x="693" 
d="M757.5 706.5q4.5 -5.5 3.5 -15.5q-10 -57 -43.5 -108.5t-100.5 -74.5l-16 -103q-14 -90 -38 -228q-8 -43 -14 -82t-12 -72q-5 -25 -31 -25q-23 0 -23 20q0 6 1 9q8 49 17 99q-39 -56 -100.5 -89.5t-138.5 -33.5q-68 0 -112 28.5t-64 73t-20 94.5q0 34 19 134t58 294
l10 51q5 23 30 23q27 0 23 -25q-84 -397 -84 -477q0 -68 36 -106.5t104 -38.5q69 0 125.5 35t91.5 85t43 90q11 56 32.5 181t38.5 236q5 27 29 27q14 0 20 -7.5t4 -20.5l-22 -128q74 35 95 140q1 10 8 15t17 5q9 0 13.5 -5.5zM217.5 -156.5q-10.5 10.5 -10.5 27.5
q0 22 16 37.5t39 15.5q18 0 28.5 -10t10.5 -26q0 -23 -16 -39t-39 -16q-18 0 -28.5 10.5z" />
    <glyph glyph-name="uni1EEA" unicode="&#x1eea;" horiz-adv-x="693" 
d="M757.5 706.5q4.5 -5.5 3.5 -15.5q-10 -57 -43.5 -108.5t-100.5 -74.5l-16 -103q-14 -90 -38 -228q-8 -43 -14 -82t-12 -72q-5 -25 -31 -25q-23 0 -23 20q0 6 1 9q8 49 17 99q-39 -56 -100.5 -89.5t-138.5 -33.5q-68 0 -112 28.5t-64 73t-20 94.5q0 34 19 134t58 294
l10 51q5 23 30 23q27 0 23 -25q-84 -397 -84 -477q0 -68 36 -106.5t104 -38.5q69 0 125.5 35t91.5 85t43 90q11 56 32.5 181t38.5 236q5 27 29 27q14 0 20 -7.5t4 -20.5l-22 -128q74 35 95 140q1 10 8 15t17 5q9 0 13.5 -5.5zM452 762.5q-5 2.5 -11 10.5l-64 86
q-10 13 -10 22q0 12 7.5 19.5t17.5 7.5q13 0 27 -21l58 -85q9 -10 9 -19t-7 -16t-16 -7q-6 0 -11 2.5z" />
    <glyph glyph-name="uni1EEC" unicode="&#x1eec;" horiz-adv-x="693" 
d="M757.5 706.5q4.5 -5.5 3.5 -15.5q-10 -57 -43.5 -108.5t-100.5 -74.5l-16 -103q-14 -90 -38 -228q-8 -43 -14 -82t-12 -72q-5 -25 -31 -25q-23 0 -23 20q0 6 1 9q8 49 17 99q-39 -56 -100.5 -89.5t-138.5 -33.5q-68 0 -112 28.5t-64 73t-20 94.5q0 34 19 134t58 294
l10 51q5 23 30 23q27 0 23 -25q-84 -397 -84 -477q0 -68 36 -106.5t104 -38.5q69 0 125.5 35t91.5 85t43 90q11 56 32.5 181t38.5 236q5 27 29 27q14 0 20 -7.5t4 -20.5l-22 -128q74 35 95 140q1 10 8 15t17 5q9 0 13.5 -5.5zM402 769.5q-5 6.5 -4 16.5q1 7 7 38
q2 12 13 22.5t31 24.5q21 16 32 27t12 23q3 41 -55 41q-24 0 -41 -12t-37 -34q-10 -11 -18 -11t-14 5.5t-6 11.5t8 18q26 29 51 45t62 16q44 0 70.5 -19.5t26.5 -53.5q0 -26 -15.5 -43.5t-43.5 -35.5q-27 -16 -29 -27l-6 -33q-4 -26 -28 -26q-11 0 -16 6.5z" />
    <glyph glyph-name="uni1EEE" unicode="&#x1eee;" horiz-adv-x="693" 
d="M757.5 706.5q4.5 -5.5 3.5 -15.5q-10 -57 -43.5 -108.5t-100.5 -74.5l-16 -103q-14 -90 -38 -228q-8 -43 -14 -82t-12 -72q-5 -25 -31 -25q-23 0 -23 20q0 6 1 9q8 49 17 99q-39 -56 -100.5 -89.5t-138.5 -33.5q-68 0 -112 28.5t-64 73t-20 94.5q0 34 19 134t58 294
l10 51q5 23 30 23q27 0 23 -25q-84 -397 -84 -477q0 -68 36 -106.5t104 -38.5q69 0 125.5 35t91.5 85t43 90q11 56 32.5 181t38.5 236q5 27 29 27q14 0 20 -7.5t4 -20.5l-22 -128q74 35 95 140q1 10 8 15t17 5q9 0 13.5 -5.5zM268.5 776.5q-4.5 4.5 -4.5 12.5q0 10 9 19
q27 28 46.5 39.5t44.5 11.5q42 0 81 -21q3 -2 15 -9t22 -10.5t18 -3.5q9 0 17.5 5t19.5 14q13 13 22 13q7 0 12.5 -6t5.5 -14q0 -11 -8 -19q-23 -19 -41.5 -27.5t-37.5 -8.5q-13 0 -23.5 4t-25.5 12q-12 7 -23 11q-6 2 -25.5 11t-33.5 9q-10 0 -19.5 -6.5t-19 -15.5
t-13.5 -12q-16 -13 -26 -13q-8 0 -12.5 4.5z" />
    <glyph glyph-name="Uhungarumlaut" unicode="&#x170;" horiz-adv-x="640" 
d="M642 700.5q6 -7.5 4 -20.5q-21 -121 -45 -275q-14 -90 -38 -228q-8 -43 -14 -82t-12 -72q-5 -25 -31 -25q-23 0 -23 20q0 6 1 9q8 49 17 99q-39 -56 -100.5 -89.5t-138.5 -33.5q-68 0 -112 28.5t-64 73t-20 94.5q0 34 19 134t58 294l10 51q5 23 30 23q27 0 23 -25
q-84 -397 -84 -477q0 -68 36 -106.5t104 -38.5q69 0 125.5 35t91.5 85t43 90q11 56 32.5 181t38.5 236q5 27 29 27q14 0 20 -7.5zM288.5 764.5q-4.5 4.5 -4.5 11.5q0 10 16 26l89 85q21 21 34 21q8 0 13 -5t5 -14q0 -14 -20 -30l-95 -87q-14 -12 -26 -12q-7 0 -11.5 4.5z
M414.5 764.5q-4.5 4.5 -4.5 11.5q0 11 16 26l88 85q21 21 35 21q8 0 13 -5t5 -14q0 -8 -5.5 -15t-15.5 -15l-94 -86q-9 -8 -15 -10.5t-12 -2.5t-10.5 4.5z" />
    <glyph glyph-name="Umacron" unicode="&#x16a;" horiz-adv-x="640" 
d="M642 700.5q6 -7.5 4 -20.5q-21 -121 -45 -275q-14 -90 -38 -228q-8 -43 -14 -82t-12 -72q-5 -25 -31 -25q-23 0 -23 20q0 6 1 9q8 49 17 99q-39 -56 -100.5 -89.5t-138.5 -33.5q-68 0 -112 28.5t-64 73t-20 94.5q0 34 19 134t58 294l10 51q5 23 30 23q27 0 23 -25
q-84 -397 -84 -477q0 -68 36 -106.5t104 -38.5q69 0 125.5 35t91.5 85t43 90q11 56 32.5 181t38.5 236q5 27 29 27q14 0 20 -7.5zM240 797q0 11 6.5 19.5t17.5 9.5q63 14 176 14h139q22 0 22 -19q0 -26 -28 -26q-17 0 -30 1l-115 1q-60 0 -103 -6t-48 -7q-15 -3 -21 -3
q-16 0 -16 16z" />
    <glyph glyph-name="Uogonek" unicode="&#x172;" horiz-adv-x="640" 
d="M642 700.5q6 -7.5 4 -20.5q-21 -121 -45 -275q-14 -90 -38 -228q-8 -43 -14 -82t-12 -72q-3 -19 -19 -23q-33 -25 -51.5 -46t-18.5 -45q0 -28 41 -28q8 0 18 3.5t15 3.5q4 0 7 -3.5t3 -8.5q0 -32 -46 -32q-36 0 -59.5 17t-23.5 48q0 33 20.5 59t59.5 53l1 6q8 49 17 99
q-39 -56 -100.5 -89.5t-138.5 -33.5q-68 0 -112 28.5t-64 73t-20 94.5q0 34 19 134t58 294l10 51q5 23 30 23q27 0 23 -25q-84 -397 -84 -477q0 -68 36 -106.5t104 -38.5q69 0 125.5 35t91.5 85t43 90q11 56 32.5 181t38.5 236q5 27 29 27q14 0 20 -7.5z" />
    <glyph glyph-name="Uring" unicode="&#x16e;" horiz-adv-x="640" 
d="M642 700.5q6 -7.5 4 -20.5q-21 -121 -45 -275q-14 -90 -38 -228q-8 -43 -14 -82t-12 -72q-5 -25 -31 -25q-23 0 -23 20q0 6 1 9q8 49 17 99q-39 -56 -100.5 -89.5t-138.5 -33.5q-68 0 -112 28.5t-64 73t-20 94.5q0 34 19 134t58 294l10 51q5 23 30 23q27 0 23 -25
q-84 -397 -84 -477q0 -68 36 -106.5t104 -38.5q69 0 125.5 35t91.5 85t43 90q11 56 32.5 181t38.5 236q5 27 29 27q14 0 20 -7.5zM349.5 762q-25.5 25 -25.5 61q0 47 35 80t84 33q36 0 60.5 -26t24.5 -60q0 -47 -34 -80t-81 -33q-38 0 -63.5 25zM467.5 797.5
q22.5 21.5 22.5 50.5q0 21 -15 35.5t-38 14.5q-30 0 -51.5 -22.5t-21.5 -48.5q0 -22 14.5 -36.5t37.5 -14.5q29 0 51.5 21.5z" />
    <glyph glyph-name="Utilde" unicode="&#x168;" horiz-adv-x="640" 
d="M642 700.5q6 -7.5 4 -20.5q-21 -121 -45 -275q-14 -90 -38 -228q-8 -43 -14 -82t-12 -72q-5 -25 -31 -25q-23 0 -23 20q0 6 1 9q8 49 17 99q-39 -56 -100.5 -89.5t-138.5 -33.5q-68 0 -112 28.5t-64 73t-20 94.5q0 34 19 134t58 294l10 51q5 23 30 23q27 0 23 -25
q-84 -397 -84 -477q0 -68 36 -106.5t104 -38.5q69 0 125.5 35t91.5 85t43 90q11 56 32.5 181t38.5 236q5 27 29 27q14 0 20 -7.5zM268.5 776.5q-4.5 4.5 -4.5 12.5q0 10 9 19q27 28 46.5 39.5t44.5 11.5q42 0 81 -21q3 -2 15 -9t22 -10.5t18 -3.5q9 0 17.5 5t19.5 14
q13 13 22 13q7 0 12.5 -6t5.5 -14q0 -11 -8 -19q-23 -19 -41.5 -27.5t-37.5 -8.5q-13 0 -23.5 4t-25.5 12q-12 7 -23 11q-6 2 -25.5 11t-33.5 9q-10 0 -19.5 -6.5t-19 -15.5t-13.5 -12q-16 -13 -26 -13q-8 0 -12.5 4.5z" />
    <glyph glyph-name="V" unicode="V" horiz-adv-x="654" 
d="M255.5 12q-16.5 11 -23.5 32q-9 27 -21.5 95.5t-34.5 236.5q-17 127 -37 303l-1 10q0 9 9.5 14t21.5 5q10 0 15.5 -5.5t6.5 -12.5q7 -49 20 -172l16 -134q19 -149 29.5 -214.5t19 -88.5t22.5 -23q15 1 32 24t49.5 88.5t100.5 213.5l50 111l88 196q7 14 22 14
q12 0 21 -5.5t9 -13.5q0 -6 -2 -10q-49 -112 -90 -198l-44 -98q-78 -170 -113 -239t-53 -97q-13 -21 -32 -32t-42 -11q-22 0 -38.5 11z" />
    <glyph glyph-name="W" unicode="W" horiz-adv-x="865" 
d="M198.5 10.5q-9.5 7.5 -11.5 21.5q-7 51 -13.5 155t-10.5 202q-2 29 -6 64t-5 48q-1 9 -7 62t-6 106q0 2 -0.5 5.5t0.5 5.5q7 22 33 22q11 0 15.5 -4.5t5.5 -16.5q19 -195 24 -280l6 -115q5 -96 9.5 -151.5t10.5 -55.5t28 33.5t69 111.5l33 55q42 69 60 95t29 26
q14 0 26.5 -31t36.5 -109l12 -39l14 -45q17 -57 24.5 -77.5t11.5 -20.5q6 0 77 193l49 129q67 173 114 283q9 19 29 19q11 0 17.5 -6.5t6.5 -18.5q0 -4 -3 -9q-14 -37 -52 -126q-32 -76 -62 -152l-34 -91q-12 -31 -43 -113t-59 -149q-13 -32 -47 -32q-15 0 -26 15.5t-23 47
t-33 99.5q-5 16 -24 84q-7 28 -13.5 48.5t-9.5 20.5t-16 -22.5t-30 -51.5q-36 -63 -50 -85q-56 -93 -83 -125.5t-48 -32.5q-16 0 -25.5 7.5z" />
    <glyph glyph-name="Wacute" unicode="&#x1e82;" horiz-adv-x="865" 
d="M198.5 10.5q-9.5 7.5 -11.5 21.5q-7 51 -13.5 155t-10.5 202q-2 29 -6 64t-5 48q-1 9 -7 62t-6 106q0 2 -0.5 5.5t0.5 5.5q7 22 33 22q11 0 15.5 -4.5t5.5 -16.5q19 -195 24 -280l6 -115q5 -96 9.5 -151.5t10.5 -55.5t28 33.5t69 111.5l33 55q42 69 60 95t29 26
q14 0 26.5 -31t36.5 -109l12 -39l14 -45q17 -57 24.5 -77.5t11.5 -20.5q6 0 77 193l49 129q67 173 114 283q9 19 29 19q11 0 17.5 -6.5t6.5 -18.5q0 -4 -3 -9q-14 -37 -52 -126q-32 -76 -62 -152l-34 -91q-12 -31 -43 -113t-59 -149q-13 -32 -47 -32q-15 0 -26 15.5t-23 47
t-33 99.5q-5 16 -24 84q-7 28 -13.5 48.5t-9.5 20.5t-16 -22.5t-30 -51.5q-36 -63 -50 -85q-56 -93 -83 -125.5t-48 -32.5q-16 0 -25.5 7.5zM478.5 767q-5.5 5 -5.5 12q0 13 17 27l86 80q14 12 21.5 17t14.5 5q8 0 14 -5.5t6 -14.5t-5.5 -16t-16.5 -16l-94 -80
q-10 -8 -15 -11t-11 -3t-11.5 5z" />
    <glyph glyph-name="Wcircumflex" unicode="&#x174;" horiz-adv-x="865" 
d="M198.5 10.5q-9.5 7.5 -11.5 21.5q-7 51 -13.5 155t-10.5 202q-2 29 -6 64t-5 48q-1 9 -7 62t-6 106q0 2 -0.5 5.5t0.5 5.5q7 22 33 22q11 0 15.5 -4.5t5.5 -16.5q19 -195 24 -280l6 -115q5 -96 9.5 -151.5t10.5 -55.5t28 33.5t69 111.5l33 55q42 69 60 95t29 26
q14 0 26.5 -31t36.5 -109l12 -39l14 -45q17 -57 24.5 -77.5t11.5 -20.5q6 0 77 193l49 129q67 173 114 283q9 19 29 19q11 0 17.5 -6.5t6.5 -18.5q0 -4 -3 -9q-14 -37 -52 -126q-32 -76 -62 -152l-34 -91q-12 -31 -43 -113t-59 -149q-13 -32 -47 -32q-15 0 -26 15.5t-23 47
t-33 99.5q-5 16 -24 84q-7 28 -13.5 48.5t-9.5 20.5t-16 -22.5t-30 -51.5q-36 -63 -50 -85q-56 -93 -83 -125.5t-48 -32.5q-16 0 -25.5 7.5zM627 778q-24 46 -46 76t-33 30q-16 0 -115 -94q-17 -17 -28 -17q-8 0 -13.5 6t-5.5 13q0 9 11 20l31 28q46 42 76.5 65.5t48.5 23.5
q27 0 51.5 -32.5t60.5 -94.5q4 -6 4 -11q0 -9 -7.5 -16t-16.5 -7q-13 0 -18 10z" />
    <glyph glyph-name="Wdieresis" unicode="&#x1e84;" horiz-adv-x="865" 
d="M198.5 10.5q-9.5 7.5 -11.5 21.5q-7 51 -13.5 155t-10.5 202q-2 29 -6 64t-5 48q-1 9 -7 62t-6 106q0 2 -0.5 5.5t0.5 5.5q7 22 33 22q11 0 15.5 -4.5t5.5 -16.5q19 -195 24 -280l6 -115q5 -96 9.5 -151.5t10.5 -55.5t28 33.5t69 111.5l33 55q42 69 60 95t29 26
q14 0 26.5 -31t36.5 -109l12 -39l14 -45q17 -57 24.5 -77.5t11.5 -20.5q6 0 77 193l49 129q67 173 114 283q9 19 29 19q11 0 17.5 -6.5t6.5 -18.5q0 -4 -3 -9q-14 -37 -52 -126q-32 -76 -62 -152l-34 -91q-12 -31 -43 -113t-59 -149q-13 -32 -47 -32q-15 0 -26 15.5t-23 47
t-33 99.5q-5 16 -24 84q-7 28 -13.5 48.5t-9.5 20.5t-16 -22.5t-30 -51.5q-36 -63 -50 -85q-56 -93 -83 -125.5t-48 -32.5q-16 0 -25.5 7.5zM386 792.5q-11 10.5 -11 27.5q0 23 16 38t39 15q18 0 29.5 -10t11.5 -26q0 -22 -17 -38.5t-39 -16.5q-18 0 -29 10.5zM614.5 792.5
q-10.5 10.5 -10.5 27.5q0 23 16 38t39 15q17 0 28 -10t11 -26q0 -22 -16 -38.5t-39 -16.5q-18 0 -28.5 10.5z" />
    <glyph glyph-name="Wgrave" unicode="&#x1e80;" horiz-adv-x="865" 
d="M198.5 10.5q-9.5 7.5 -11.5 21.5q-7 51 -13.5 155t-10.5 202q-2 29 -6 64t-5 48q-1 9 -7 62t-6 106q0 2 -0.5 5.5t0.5 5.5q7 22 33 22q11 0 15.5 -4.5t5.5 -16.5q19 -195 24 -280l6 -115q5 -96 9.5 -151.5t10.5 -55.5t28 33.5t69 111.5l33 55q42 69 60 95t29 26
q14 0 26.5 -31t36.5 -109l12 -39l14 -45q17 -57 24.5 -77.5t11.5 -20.5q6 0 77 193l49 129q67 173 114 283q9 19 29 19q11 0 17.5 -6.5t6.5 -18.5q0 -4 -3 -9q-14 -37 -52 -126q-32 -76 -62 -152l-34 -91q-12 -31 -43 -113t-59 -149q-13 -32 -47 -32q-15 0 -26 15.5t-23 47
t-33 99.5q-5 16 -24 84q-7 28 -13.5 48.5t-9.5 20.5t-16 -22.5t-30 -51.5q-36 -63 -50 -85q-56 -93 -83 -125.5t-48 -32.5q-16 0 -25.5 7.5zM565 762.5q-5 2.5 -11 10.5l-64 86q-10 13 -10 22q0 12 7.5 19.5t17.5 7.5q13 0 27 -21l58 -85q9 -10 9 -19t-7 -16t-16 -7
q-6 0 -11 2.5z" />
    <glyph glyph-name="X" unicode="X" horiz-adv-x="658" 
d="M663 642l-278 -300l169 -301q5 -8 5 -15q-2 -11 -12.5 -19.5t-22.5 -8.5q-11 0 -20 12l-161 287l-158 -171q-40 -42 -108 -116q-7 -8 -12 -10t-13 -2q-12 0 -22 9.5t-9 18.5q1 7 5 12t9 10l280 299q-89 159 -171 309q-5 7 -3 16q1 11 11 18.5t23 7.5q7 0 12.5 -5
t11.5 -16l158 -284l130 140l133 144q16 19 28 19t20 -9.5t8 -20.5q0 -10 -13 -24z" />
    <glyph glyph-name="Y" unicode="Y" horiz-adv-x="632" 
d="M254 32l49 295q-25 10 -48 43t-51 95q-40 90 -62 202q-1 2 -1 7q0 13 9.5 19t23.5 6q11 0 16.5 -7t8.5 -22q12 -57 24 -97t30 -82q18 -46 41 -80.5t43 -34.5q19 0 53.5 31.5t77.5 86.5q31 40 58 81t62 101q8 13 13 17t13 4q12 0 21 -6t9 -15q0 -6 -5 -14
q-40 -70 -67 -112t-62 -86q-47 -59 -86.5 -94t-66.5 -43l-48 -293q-5 -30 -32 -30t-23 28z" />
    <glyph glyph-name="Yacute" unicode="&#xdd;" horiz-adv-x="632" 
d="M254 32l49 295q-25 10 -48 43t-51 95q-40 90 -62 202q-1 2 -1 7q0 13 9.5 19t23.5 6q11 0 16.5 -7t8.5 -22q12 -57 24 -97t30 -82q18 -46 41 -80.5t43 -34.5q19 0 53.5 31.5t77.5 86.5q31 40 58 81t62 101q8 13 13 17t13 4q12 0 21 -6t9 -15q0 -6 -5 -14
q-40 -70 -67 -112t-62 -86q-47 -59 -86.5 -94t-66.5 -43l-48 -293q-5 -30 -32 -30t-23 28zM363.5 767q-5.5 5 -5.5 12q0 13 17 27l86 80q14 12 21.5 17t14.5 5q8 0 14 -5.5t6 -14.5t-5.5 -16t-16.5 -16l-94 -80q-10 -8 -15 -11t-11 -3t-11.5 5z" />
    <glyph glyph-name="Ycircumflex" unicode="&#x176;" horiz-adv-x="632" 
d="M254 32l49 295q-25 10 -48 43t-51 95q-40 90 -62 202q-1 2 -1 7q0 13 9.5 19t23.5 6q11 0 16.5 -7t8.5 -22q12 -57 24 -97t30 -82q18 -46 41 -80.5t43 -34.5q19 0 53.5 31.5t77.5 86.5q31 40 58 81t62 101q8 13 13 17t13 4q12 0 21 -6t9 -15q0 -6 -5 -14
q-40 -70 -67 -112t-62 -86q-47 -59 -86.5 -94t-66.5 -43l-48 -293q-5 -30 -32 -30t-23 28zM512 778q-24 46 -46 76t-33 30q-16 0 -115 -94q-17 -17 -28 -17q-8 0 -13.5 6t-5.5 13q0 9 11 20l31 28q46 42 76.5 65.5t48.5 23.5q27 0 51.5 -32.5t60.5 -94.5q4 -6 4 -11
q0 -9 -7.5 -16t-16.5 -7q-13 0 -18 10z" />
    <glyph glyph-name="Ydieresis" unicode="&#x178;" horiz-adv-x="632" 
d="M254 32l49 295q-25 10 -48 43t-51 95q-40 90 -62 202q-1 2 -1 7q0 13 9.5 19t23.5 6q11 0 16.5 -7t8.5 -22q12 -57 24 -97t30 -82q18 -46 41 -80.5t43 -34.5q19 0 53.5 31.5t77.5 86.5q31 40 58 81t62 101q8 13 13 17t13 4q12 0 21 -6t9 -15q0 -6 -5 -14
q-40 -70 -67 -112t-62 -86q-47 -59 -86.5 -94t-66.5 -43l-48 -293q-5 -30 -32 -30t-23 28zM271 792.5q-11 10.5 -11 27.5q0 23 16 38t39 15q18 0 29.5 -10t11.5 -26q0 -22 -17 -38.5t-39 -16.5q-18 0 -29 10.5zM499.5 792.5q-10.5 10.5 -10.5 27.5q0 23 16 38t39 15
q17 0 28 -10t11 -26q0 -22 -16 -38.5t-39 -16.5q-18 0 -28.5 10.5z" />
    <glyph glyph-name="uni1E8E" unicode="&#x1e8e;" horiz-adv-x="632" 
d="M254 32l49 295q-25 10 -48 43t-51 95q-40 90 -62 202q-1 2 -1 7q0 13 9.5 19t23.5 6q11 0 16.5 -7t8.5 -22q12 -57 24 -97t30 -82q18 -46 41 -80.5t43 -34.5q19 0 53.5 31.5t77.5 86.5q31 40 58 81t62 101q8 13 13 17t13 4q12 0 21 -6t9 -15q0 -6 -5 -14
q-40 -70 -67 -112t-62 -86q-47 -59 -86.5 -94t-66.5 -43l-48 -293q-5 -30 -32 -30t-23 28zM384.5 792.5q-10.5 10.5 -10.5 27.5q0 22 16 37.5t39 15.5q17 0 28 -10t11 -26q0 -23 -16 -39t-39 -16q-18 0 -28.5 10.5z" />
    <glyph glyph-name="uni1EF4" unicode="&#x1ef4;" horiz-adv-x="632" 
d="M254 32l49 295q-25 10 -48 43t-51 95q-40 90 -62 202q-1 2 -1 7q0 13 9.5 19t23.5 6q11 0 16.5 -7t8.5 -22q12 -57 24 -97t30 -82q18 -46 41 -80.5t43 -34.5q19 0 53.5 31.5t77.5 86.5q31 40 58 81t62 101q8 13 13 17t13 4q12 0 21 -6t9 -15q0 -6 -5 -14
q-40 -70 -67 -112t-62 -86q-47 -59 -86.5 -94t-66.5 -43l-48 -293q-5 -30 -32 -30t-23 28zM215.5 -156.5q-10.5 10.5 -10.5 27.5q0 22 16 37.5t39 15.5q18 0 28.5 -10t10.5 -26q0 -23 -16 -39t-39 -16q-18 0 -28.5 10.5z" />
    <glyph glyph-name="Ygrave" unicode="&#x1ef2;" horiz-adv-x="632" 
d="M254 32l49 295q-25 10 -48 43t-51 95q-40 90 -62 202q-1 2 -1 7q0 13 9.5 19t23.5 6q11 0 16.5 -7t8.5 -22q12 -57 24 -97t30 -82q18 -46 41 -80.5t43 -34.5q19 0 53.5 31.5t77.5 86.5q31 40 58 81t62 101q8 13 13 17t13 4q12 0 21 -6t9 -15q0 -6 -5 -14
q-40 -70 -67 -112t-62 -86q-47 -59 -86.5 -94t-66.5 -43l-48 -293q-5 -30 -32 -30t-23 28zM450 762.5q-5 2.5 -11 10.5l-64 86q-10 13 -10 22q0 12 7.5 19.5t17.5 7.5q13 0 27 -21l58 -85q9 -10 9 -19t-7 -16t-16 -7q-6 0 -11 2.5z" />
    <glyph glyph-name="uni1EF6" unicode="&#x1ef6;" horiz-adv-x="632" 
d="M254 32l49 295q-25 10 -48 43t-51 95q-40 90 -62 202q-1 2 -1 7q0 13 9.5 19t23.5 6q11 0 16.5 -7t8.5 -22q12 -57 24 -97t30 -82q18 -46 41 -80.5t43 -34.5q19 0 53.5 31.5t77.5 86.5q31 40 58 81t62 101q8 13 13 17t13 4q12 0 21 -6t9 -15q0 -6 -5 -14
q-40 -70 -67 -112t-62 -86q-47 -59 -86.5 -94t-66.5 -43l-48 -293q-5 -30 -32 -30t-23 28zM400 769.5q-5 6.5 -4 16.5q1 7 7 38q2 12 13 22.5t31 24.5q21 16 32 27t12 23q3 41 -55 41q-24 0 -41 -12t-37 -34q-10 -11 -18 -11t-14 5.5t-6 11.5t8 18q26 29 51 45t62 16
q44 0 70.5 -19.5t26.5 -53.5q0 -26 -15.5 -43.5t-43.5 -35.5q-27 -16 -29 -27l-6 -33q-4 -26 -28 -26q-11 0 -16 6.5z" />
    <glyph glyph-name="uni1EF8" unicode="&#x1ef8;" horiz-adv-x="632" 
d="M254 32l49 295q-25 10 -48 43t-51 95q-40 90 -62 202q-1 2 -1 7q0 13 9.5 19t23.5 6q11 0 16.5 -7t8.5 -22q12 -57 24 -97t30 -82q18 -46 41 -80.5t43 -34.5q19 0 53.5 31.5t77.5 86.5q31 40 58 81t62 101q8 13 13 17t13 4q12 0 21 -6t9 -15q0 -6 -5 -14
q-40 -70 -67 -112t-62 -86q-47 -59 -86.5 -94t-66.5 -43l-48 -293q-5 -30 -32 -30t-23 28zM266.5 776.5q-4.5 4.5 -4.5 12.5q0 10 9 19q27 28 46.5 39.5t44.5 11.5q42 0 81 -21q3 -2 15 -9t22 -10.5t18 -3.5q9 0 17.5 5t19.5 14q13 13 22 13q7 0 12.5 -6t5.5 -14
q0 -11 -8 -19q-23 -19 -41.5 -27.5t-37.5 -8.5q-13 0 -23.5 4t-25.5 12q-12 7 -23 11q-6 2 -25.5 11t-33.5 9q-10 0 -19.5 -6.5t-19 -15.5t-13.5 -12q-16 -13 -26 -13q-8 0 -12.5 4.5z" />
    <glyph glyph-name="Z" unicode="Z" horiz-adv-x="655" 
d="M392 27.5q-42 2.5 -105 2.5q-65 0 -175 -4l-73 -2q-37 0 -37 21q0 22 41.5 63.5t151.5 136.5q96 83 156 137q159 143 201 182t78 79q-132 -13 -211 -13q-61 0 -126.5 5t-116.5 15q-23 6 -23 21q0 14 9.5 22t25.5 7l34 -4q103 -15 193 -15q63 0 212 12l27 2q9 1 19 -2
t16 -9q9 -7 9 -19q0 -27 -65 -90.5t-207 -188.5l-31 -27q-95 -83 -109 -95q-74 -65 -130 -115.5t-78 -75.5q10 0 38 2q133 5 202 5q63 0 111.5 -3t107.5 -11q19 -3 19 -19q0 -12 -10 -21.5t-24 -7.5q-88 7 -130 9.5z" />
    <glyph glyph-name="Zacute" unicode="&#x179;" horiz-adv-x="655" 
d="M392 27.5q-42 2.5 -105 2.5q-65 0 -175 -4l-73 -2q-37 0 -37 21q0 22 41.5 63.5t151.5 136.5q96 83 156 137q159 143 201 182t78 79q-132 -13 -211 -13q-61 0 -126.5 5t-116.5 15q-23 6 -23 21q0 14 9.5 22t25.5 7l34 -4q103 -15 193 -15q63 0 212 12l27 2q9 1 19 -2
t16 -9q9 -7 9 -19q0 -27 -65 -90.5t-207 -188.5l-31 -27q-95 -83 -109 -95q-74 -65 -130 -115.5t-78 -75.5q10 0 38 2q133 5 202 5q63 0 111.5 -3t107.5 -11q19 -3 19 -19q0 -12 -10 -21.5t-24 -7.5q-88 7 -130 9.5zM369.5 767q-5.5 5 -5.5 12q0 13 17 27l86 80
q14 12 21.5 17t14.5 5q8 0 14 -5.5t6 -14.5t-5.5 -16t-16.5 -16l-94 -80q-10 -8 -15 -11t-11 -3t-11.5 5z" />
    <glyph glyph-name="Zcaron" unicode="&#x17d;" horiz-adv-x="655" 
d="M392 27.5q-42 2.5 -105 2.5q-65 0 -175 -4l-73 -2q-37 0 -37 21q0 22 41.5 63.5t151.5 136.5q96 83 156 137q159 143 201 182t78 79q-132 -13 -211 -13q-61 0 -126.5 5t-116.5 15q-23 6 -23 21q0 14 9.5 22t25.5 7l34 -4q103 -15 193 -15q63 0 212 12l27 2q9 1 19 -2
t16 -9q9 -7 9 -19q0 -27 -65 -90.5t-207 -188.5l-31 -27q-95 -83 -109 -95q-74 -65 -130 -115.5t-78 -75.5q10 0 38 2q133 5 202 5q63 0 111.5 -3t107.5 -11q19 -3 19 -19q0 -12 -10 -21.5t-24 -7.5q-88 7 -130 9.5zM570 923q5 -5 5 -13q0 -6 -4 -10.5t-6 -6.5
q-57 -62 -92.5 -94t-62.5 -32q-16 0 -36.5 21t-51.5 61q-16 23 -27 35q-5 6 -5 13q0 9 8.5 17.5t17.5 8.5q10 0 22 -18q64 -94 81 -94q11 0 44 30t74 77q8 10 21 10q7 0 12 -5z" />
    <glyph glyph-name="Zdotaccent" unicode="&#x17b;" horiz-adv-x="655" 
d="M392 27.5q-42 2.5 -105 2.5q-65 0 -175 -4l-73 -2q-37 0 -37 21q0 22 41.5 63.5t151.5 136.5q96 83 156 137q159 143 201 182t78 79q-132 -13 -211 -13q-61 0 -126.5 5t-116.5 15q-23 6 -23 21q0 14 9.5 22t25.5 7l34 -4q103 -15 193 -15q63 0 212 12l27 2q9 1 19 -2
t16 -9q9 -7 9 -19q0 -27 -65 -90.5t-207 -188.5l-31 -27q-95 -83 -109 -95q-74 -65 -130 -115.5t-78 -75.5q10 0 38 2q133 5 202 5q63 0 111.5 -3t107.5 -11q19 -3 19 -19q0 -12 -10 -21.5t-24 -7.5q-88 7 -130 9.5zM390.5 792.5q-10.5 10.5 -10.5 27.5q0 22 16 37.5
t39 15.5q17 0 28 -10t11 -26q0 -23 -16 -39t-39 -16q-18 0 -28.5 10.5z" />
    <glyph glyph-name="uni1E92" unicode="&#x1e92;" horiz-adv-x="655" 
d="M392 27.5q-42 2.5 -105 2.5q-65 0 -175 -4l-73 -2q-37 0 -37 21q0 22 41.5 63.5t151.5 136.5q96 83 156 137q159 143 201 182t78 79q-132 -13 -211 -13q-61 0 -126.5 5t-116.5 15q-23 6 -23 21q0 14 9.5 22t25.5 7l34 -4q103 -15 193 -15q63 0 212 12l27 2q9 1 19 -2
t16 -9q9 -7 9 -19q0 -27 -65 -90.5t-207 -188.5l-31 -27q-95 -83 -109 -95q-74 -65 -130 -115.5t-78 -75.5q10 0 38 2q133 5 202 5q63 0 111.5 -3t107.5 -11q19 -3 19 -19q0 -12 -10 -21.5t-24 -7.5q-88 7 -130 9.5zM221.5 -156.5q-10.5 10.5 -10.5 27.5q0 22 16 37.5
t39 15.5q18 0 28.5 -10t10.5 -26q0 -23 -16 -39t-39 -16q-18 0 -28.5 10.5z" />
    <glyph glyph-name="a" unicode="a" horiz-adv-x="615" 
d="M533 441q-9 -26 -22 -73q-15 -61 -32.5 -154t-17.5 -127q0 -19 7.5 -27.5t25.5 -9.5q10 -1 15 -4.5t5 -12.5q0 -30 -30 -30q-37 0 -52.5 15t-20.5 51q-60 -77 -173 -77q-99 0 -144 58t-45 139q0 82 34.5 151.5t96.5 110.5t141 41q55 0 93 -22.5t54 -63.5l16 53
q4 13 10.5 20t19.5 7t20.5 -5.5t6.5 -13.5q-5 -19 -8 -26zM442 329q0 59 -38.5 87.5t-86.5 28.5q-58 0 -107 -37t-77.5 -97t-28.5 -124q0 -61 30.5 -104t104.5 -43q65 0 115 33.5t63 97.5q25 125 25 158z" />
    <glyph glyph-name="aacute" unicode="&#xe1;" horiz-adv-x="615" 
d="M533 441q-9 -26 -22 -73q-15 -61 -32.5 -154t-17.5 -127q0 -19 7.5 -27.5t25.5 -9.5q10 -1 15 -4.5t5 -12.5q0 -30 -30 -30q-37 0 -52.5 15t-20.5 51q-60 -77 -173 -77q-99 0 -144 58t-45 139q0 82 34.5 151.5t96.5 110.5t141 41q55 0 93 -22.5t54 -63.5l16 53
q4 13 10.5 20t19.5 7t20.5 -5.5t6.5 -13.5q-5 -19 -8 -26zM442 329q0 59 -38.5 87.5t-86.5 28.5q-58 0 -107 -37t-77.5 -97t-28.5 -124q0 -61 30.5 -104t104.5 -43q65 0 115 33.5t63 97.5q25 125 25 158zM312.5 567q-5.5 5 -5.5 12q0 13 17 27l86 80q14 12 21.5 17t14.5 5
q8 0 14 -5.5t6 -14.5t-5.5 -16t-16.5 -16l-94 -80q-10 -8 -15 -11t-11 -3t-11.5 5z" />
    <glyph glyph-name="abreve" unicode="&#x103;" horiz-adv-x="615" 
d="M533 441q-9 -26 -22 -73q-15 -61 -32.5 -154t-17.5 -127q0 -19 7.5 -27.5t25.5 -9.5q10 -1 15 -4.5t5 -12.5q0 -30 -30 -30q-37 0 -52.5 15t-20.5 51q-60 -77 -173 -77q-99 0 -144 58t-45 139q0 82 34.5 151.5t96.5 110.5t141 41q55 0 93 -22.5t54 -63.5l16 53
q4 13 10.5 20t19.5 7t20.5 -5.5t6.5 -13.5q-5 -19 -8 -26zM442 329q0 59 -38.5 87.5t-86.5 28.5q-58 0 -107 -37t-77.5 -97t-28.5 -124q0 -61 30.5 -104t104.5 -43q65 0 115 33.5t63 97.5q25 125 25 158zM295.5 586.5q-30.5 14.5 -47.5 39t-17 52.5q0 11 1 16q2 10 8.5 15.5
t14.5 5.5q22 0 21 -15q-1 -4 -1 -13q1 -34 27 -54.5t66 -20.5q42 0 75.5 26t39.5 60q1 10 9 15t17 5t14.5 -5.5t4.5 -14.5q-5 -32 -28.5 -61.5t-59 -47t-74.5 -17.5q-40 0 -70.5 14.5z" />
    <glyph glyph-name="uni1EAF" unicode="&#x1eaf;" horiz-adv-x="615" 
d="M533 441q-9 -26 -22 -73q-15 -61 -32.5 -154t-17.5 -127q0 -19 7.5 -27.5t25.5 -9.5q10 -1 15 -4.5t5 -12.5q0 -30 -30 -30q-37 0 -52.5 15t-20.5 51q-60 -77 -173 -77q-99 0 -144 58t-45 139q0 82 34.5 151.5t96.5 110.5t141 41q55 0 93 -22.5t54 -63.5l16 53
q4 13 10.5 20t19.5 7t20.5 -5.5t6.5 -13.5q-5 -19 -8 -26zM442 329q0 59 -38.5 87.5t-86.5 28.5q-58 0 -107 -37t-77.5 -97t-28.5 -124q0 -61 30.5 -104t104.5 -43q65 0 115 33.5t63 97.5q25 125 25 158zM362 727q-5 5 -4 14q0 9 16 24l62 54q23 20 34 20q7 0 12 -5t5 -13
q0 -9 -4.5 -15.5t-14.5 -14.5l-69 -56q-8 -7 -14 -10t-11 -3q-7 0 -12 5zM295.5 586.5q-30.5 14.5 -47.5 39t-17 52.5q0 11 1 16q2 10 8.5 15.5t14.5 5.5q22 0 21 -15q-1 -4 -1 -13q1 -34 27 -54.5t66 -20.5q42 0 75.5 26t38.5 60q2 10 9.5 15t17.5 5q8 0 14 -5.5t5 -14.5
q-6 -33 -29.5 -62t-58.5 -46.5t-75 -17.5q-39 0 -69.5 14.5z" />
    <glyph glyph-name="uni1EB7" unicode="&#x1eb7;" horiz-adv-x="615" 
d="M533 441q-9 -26 -22 -73q-15 -61 -32.5 -154t-17.5 -127q0 -19 7.5 -27.5t25.5 -9.5q10 -1 15 -4.5t5 -12.5q0 -30 -30 -30q-37 0 -52.5 15t-20.5 51q-60 -77 -173 -77q-99 0 -144 58t-45 139q0 82 34.5 151.5t96.5 110.5t141 41q55 0 93 -22.5t54 -63.5l16 53
q4 13 10.5 20t19.5 7t20.5 -5.5t6.5 -13.5q-5 -19 -8 -26zM442 329q0 59 -38.5 87.5t-86.5 28.5q-58 0 -107 -37t-77.5 -97t-28.5 -124q0 -61 30.5 -104t104.5 -43q65 0 115 33.5t63 97.5q25 125 25 158zM199.5 -156.5q-10.5 10.5 -10.5 27.5q0 22 16 37.5t39 15.5
q18 0 28.5 -10t10.5 -26q0 -23 -16 -39t-39 -16q-18 0 -28.5 10.5zM295.5 586.5q-30.5 14.5 -47.5 39t-17 52.5q0 11 1 16q2 10 8.5 15.5t14.5 5.5q22 0 21 -15q-1 -4 -1 -13q1 -34 27 -54.5t66 -20.5q42 0 75.5 26t39.5 60q1 10 9 15t17 5t14.5 -5.5t4.5 -14.5
q-5 -32 -28.5 -61.5t-59 -47t-74.5 -17.5q-40 0 -70.5 14.5z" />
    <glyph glyph-name="uni1EB1" unicode="&#x1eb1;" horiz-adv-x="615" 
d="M533 441q-9 -26 -22 -73q-15 -61 -32.5 -154t-17.5 -127q0 -19 7.5 -27.5t25.5 -9.5q10 -1 15 -4.5t5 -12.5q0 -30 -30 -30q-37 0 -52.5 15t-20.5 51q-60 -77 -173 -77q-99 0 -144 58t-45 139q0 82 34.5 151.5t96.5 110.5t141 41q55 0 93 -22.5t54 -63.5l16 53
q4 13 10.5 20t19.5 7t20.5 -5.5t6.5 -13.5q-5 -19 -8 -26zM442 329q0 59 -38.5 87.5t-86.5 28.5q-58 0 -107 -37t-77.5 -97t-28.5 -124q0 -61 30.5 -104t104.5 -43q65 0 115 33.5t63 97.5q25 125 25 158zM385 732.5q-4 2.5 -10 10.5l-49 56q-1 2 -6 8t-5 14q0 11 8 18.5
t18 7.5q11 0 27 -20l42 -54q9 -13 9 -21q-1 -10 -8.5 -16t-15.5 -6q-6 0 -10 2.5zM295.5 586.5q-30.5 14.5 -47.5 39t-17 52.5q0 11 1 16q2 10 8.5 15.5t14.5 5.5q22 0 21 -15q-1 -4 -1 -13q1 -34 27 -54.5t66 -20.5q42 0 75.5 26t38.5 60q2 10 9.5 15t17.5 5q8 0 14 -5.5
t5 -14.5q-6 -33 -29.5 -62t-58.5 -46.5t-75 -17.5q-39 0 -69.5 14.5z" />
    <glyph glyph-name="uni1EB3" unicode="&#x1eb3;" horiz-adv-x="615" 
d="M533 441q-9 -26 -22 -73q-15 -61 -32.5 -154t-17.5 -127q0 -19 7.5 -27.5t25.5 -9.5q10 -1 15 -4.5t5 -12.5q0 -30 -30 -30q-37 0 -52.5 15t-20.5 51q-60 -77 -173 -77q-99 0 -144 58t-45 139q0 82 34.5 151.5t96.5 110.5t141 41q55 0 93 -22.5t54 -63.5l16 53
q4 13 10.5 20t19.5 7t20.5 -5.5t6.5 -13.5q-5 -19 -8 -26zM442 329q0 59 -38.5 87.5t-86.5 28.5q-58 0 -107 -37t-77.5 -97t-28.5 -124q0 -61 30.5 -104t104.5 -43q65 0 115 33.5t63 97.5q25 125 25 158zM371 717.5q-4 4.5 -3 11.5l5 28q1 9 8 15.5t21 17.5q29 19 29 34
q0 11 -7.5 16t-25.5 5q-31 0 -48 -27q-5 -9 -15 -9q-13 0 -13 11q0 20 23 37.5t58 17.5q29 0 46 -13t17 -35q0 -18 -9.5 -28.5t-26.5 -22.5q-20 -13 -22 -21l-5 -25q-3 -17 -22 -17q-6 0 -10 4.5zM296.5 586.5q-30.5 14.5 -47.5 39t-17 52.5q0 11 1 16q2 10 8.5 15.5
t14.5 5.5q22 0 21 -15q-1 -4 -1 -13q1 -34 27 -54.5t66 -20.5q42 0 75.5 26t38.5 60q2 10 9.5 15t17.5 5q8 0 14 -5.5t5 -14.5q-6 -33 -29.5 -62t-58.5 -46.5t-75 -17.5q-39 0 -69.5 14.5z" />
    <glyph glyph-name="uni1EB5" unicode="&#x1eb5;" horiz-adv-x="615" 
d="M533 441q-9 -26 -22 -73q-15 -61 -32.5 -154t-17.5 -127q0 -19 7.5 -27.5t25.5 -9.5q10 -1 15 -4.5t5 -12.5q0 -30 -30 -30q-37 0 -52.5 15t-20.5 51q-60 -77 -173 -77q-99 0 -144 58t-45 139q0 82 34.5 151.5t96.5 110.5t141 41q55 0 93 -22.5t54 -63.5l16 53
q4 13 10.5 20t19.5 7t20.5 -5.5t6.5 -13.5q-5 -19 -8 -26zM442 329q0 59 -38.5 87.5t-86.5 28.5q-58 0 -107 -37t-77.5 -97t-28.5 -124q0 -61 30.5 -104t104.5 -43q65 0 115 33.5t63 97.5q25 125 25 158zM254.5 756q-4.5 4 -4.5 9q-1 2 -1 7q0 4 3 10q29 35 94 35
q20 0 33.5 -3.5t30.5 -10.5q18 -7 30.5 -10t31.5 -3q11 0 23.5 4t20.5 11q10 9 18 9q7 0 12.5 -5.5t5.5 -13.5q0 -6 -8 -14q-26 -28 -80 -28q-19 0 -34 3.5t-36 10.5q-35 13 -58 13q-26 0 -49 -18q-2 -2 -8.5 -6t-11.5 -4q-8 0 -12.5 4zM298.5 586.5q-30.5 14.5 -47.5 39
t-17 52.5q0 11 1 16q2 10 8.5 15.5t14.5 5.5q22 0 21 -15q-1 -4 -1 -13q1 -34 27 -54.5t66 -20.5q42 0 75.5 26t38.5 60q2 10 9.5 15t17.5 5q8 0 14 -5.5t5 -14.5q-6 -33 -29.5 -62t-58.5 -46.5t-75 -17.5q-39 0 -69.5 14.5z" />
    <glyph glyph-name="uni01CE" unicode="&#x1ce;" horiz-adv-x="615" 
d="M533 441q-9 -26 -22 -73q-15 -61 -32.5 -154t-17.5 -127q0 -19 7.5 -27.5t25.5 -9.5q10 -1 15 -4.5t5 -12.5q0 -30 -30 -30q-37 0 -52.5 15t-20.5 51q-60 -77 -173 -77q-99 0 -144 58t-45 139q0 82 34.5 151.5t96.5 110.5t141 41q55 0 93 -22.5t54 -63.5l16 53
q4 13 10.5 20t19.5 7t20.5 -5.5t6.5 -13.5q-5 -19 -8 -26zM442 329q0 59 -38.5 87.5t-86.5 28.5q-58 0 -107 -37t-77.5 -97t-28.5 -124q0 -61 30.5 -104t104.5 -43q65 0 115 33.5t63 97.5q25 125 25 158zM513 723q5 -5 5 -13q0 -6 -4 -10.5t-6 -6.5q-57 -62 -92.5 -94
t-62.5 -32q-16 0 -36.5 21t-51.5 61q-16 23 -27 35q-5 6 -5 13q0 9 8.5 17.5t17.5 8.5q10 0 22 -18q64 -94 81 -94q11 0 44 30t74 77q8 10 21 10q7 0 12 -5z" />
    <glyph glyph-name="acircumflex" unicode="&#xe2;" horiz-adv-x="615" 
d="M533 441q-9 -26 -22 -73q-15 -61 -32.5 -154t-17.5 -127q0 -19 7.5 -27.5t25.5 -9.5q10 -1 15 -4.5t5 -12.5q0 -30 -30 -30q-37 0 -52.5 15t-20.5 51q-60 -77 -173 -77q-99 0 -144 58t-45 139q0 82 34.5 151.5t96.5 110.5t141 41q55 0 93 -22.5t54 -63.5l16 53
q4 13 10.5 20t19.5 7t20.5 -5.5t6.5 -13.5q-5 -19 -8 -26zM442 329q0 59 -38.5 87.5t-86.5 28.5q-58 0 -107 -37t-77.5 -97t-28.5 -124q0 -61 30.5 -104t104.5 -43q65 0 115 33.5t63 97.5q25 125 25 158zM461 578q-24 46 -46 76t-33 30q-16 0 -115 -94q-17 -17 -28 -17
q-8 0 -13.5 6t-5.5 13q0 9 11 20l31 28q46 42 76.5 65.5t48.5 23.5q27 0 51.5 -32.5t60.5 -94.5q4 -6 4 -11q0 -9 -7.5 -16t-16.5 -7q-13 0 -18 10z" />
    <glyph glyph-name="uni1EA5" unicode="&#x1ea5;" horiz-adv-x="615" 
d="M533 441q-9 -26 -22 -73q-15 -61 -32.5 -154t-17.5 -127q0 -19 7.5 -27.5t25.5 -9.5q10 -1 15 -4.5t5 -12.5q0 -30 -30 -30q-37 0 -52.5 15t-20.5 51q-60 -77 -173 -77q-99 0 -144 58t-45 139q0 82 34.5 151.5t96.5 110.5t141 41q55 0 93 -22.5t54 -63.5l16 53
q4 13 10.5 20t19.5 7t20.5 -5.5t6.5 -13.5q-5 -19 -8 -26zM442 329q0 59 -38.5 87.5t-86.5 28.5q-58 0 -107 -37t-77.5 -97t-28.5 -124q0 -61 30.5 -104t104.5 -43q65 0 115 33.5t63 97.5q25 125 25 158zM486.5 697.5q-4.5 4.5 -4.5 11.5q0 11 15 26l63 55q13 11 20 15.5
t14 4.5q8 0 13 -5t5 -14t-4.5 -15t-15.5 -14l-69 -57q-14 -12 -25 -12q-7 0 -11.5 4.5zM461 579q-24 46 -46 76t-33 30q-16 0 -114 -94q-17 -17 -29 -17q-7 0 -12.5 5.5t-5.5 13.5q0 10 11 20q24 21 32 29q47 43 76 65.5t47 22.5q27 0 51.5 -32.5t60.5 -94.5q4 -6 4 -11
q0 -9 -7.5 -16t-16.5 -7q-13 0 -18 10z" />
    <glyph glyph-name="uni1EAD" unicode="&#x1ead;" horiz-adv-x="615" 
d="M533 441q-9 -26 -22 -73q-15 -61 -32.5 -154t-17.5 -127q0 -19 7.5 -27.5t25.5 -9.5q10 -1 15 -4.5t5 -12.5q0 -30 -30 -30q-37 0 -52.5 15t-20.5 51q-60 -77 -173 -77q-99 0 -144 58t-45 139q0 82 34.5 151.5t96.5 110.5t141 41q55 0 93 -22.5t54 -63.5l16 53
q4 13 10.5 20t19.5 7t20.5 -5.5t6.5 -13.5q-5 -19 -8 -26zM442 329q0 59 -38.5 87.5t-86.5 28.5q-58 0 -107 -37t-77.5 -97t-28.5 -124q0 -61 30.5 -104t104.5 -43q65 0 115 33.5t63 97.5q25 125 25 158zM199.5 -156.5q-10.5 10.5 -10.5 27.5q0 22 16 37.5t39 15.5
q18 0 28.5 -10t10.5 -26q0 -23 -16 -39t-39 -16q-18 0 -28.5 10.5zM461 578q-24 46 -46 76t-33 30q-16 0 -115 -94q-17 -17 -28 -17q-8 0 -13.5 6t-5.5 13q0 9 11 20l31 28q46 42 76.5 65.5t48.5 23.5q27 0 51.5 -32.5t60.5 -94.5q4 -6 4 -11q0 -9 -7.5 -16t-16.5 -7
q-13 0 -18 10z" />
    <glyph glyph-name="uni1EA7" unicode="&#x1ea7;" horiz-adv-x="615" 
d="M533 441q-9 -26 -22 -73q-15 -61 -32.5 -154t-17.5 -127q0 -19 7.5 -27.5t25.5 -9.5q10 -1 15 -4.5t5 -12.5q0 -30 -30 -30q-37 0 -52.5 15t-20.5 51q-60 -77 -173 -77q-99 0 -144 58t-45 139q0 82 34.5 151.5t96.5 110.5t141 41q55 0 93 -22.5t54 -63.5l16 53
q4 13 10.5 20t19.5 7t20.5 -5.5t6.5 -13.5q-5 -19 -8 -26zM442 329q0 59 -38.5 87.5t-86.5 28.5q-58 0 -107 -37t-77.5 -97t-28.5 -124q0 -61 30.5 -104t104.5 -43q65 0 115 33.5t63 97.5q25 125 25 158zM521 705l-49 57q-11 13 -11 22q0 11 8 18.5t19 7.5q6 0 11.5 -4.5
t14.5 -15.5l43 -55q8 -9 8 -18q0 -10 -7 -17t-16 -7q-10 0 -21 12zM461 579q-25 47 -47 76.5t-32 29.5q-17 0 -115 -94q-17 -17 -28 -17q-8 0 -13.5 6t-5.5 13q0 9 11 20l32 28q41 39 73 64t51 25q25 0 48 -29t41 -59.5t23 -38.5q4 -6 4 -11q0 -9 -8 -16t-17 -7
q-12 0 -17 10z" />
    <glyph glyph-name="uni1EA9" unicode="&#x1ea9;" horiz-adv-x="615" 
d="M533 441q-9 -26 -22 -73q-15 -61 -32.5 -154t-17.5 -127q0 -19 7.5 -27.5t25.5 -9.5q10 -1 15 -4.5t5 -12.5q0 -30 -30 -30q-37 0 -52.5 15t-20.5 51q-60 -77 -173 -77q-99 0 -144 58t-45 139q0 82 34.5 151.5t96.5 110.5t141 41q55 0 93 -22.5t54 -63.5l16 53
q4 13 10.5 20t19.5 7t20.5 -5.5t6.5 -13.5q-5 -19 -8 -26zM442 329q0 59 -38.5 87.5t-86.5 28.5q-58 0 -107 -37t-77.5 -97t-28.5 -124q0 -61 30.5 -104t104.5 -43q65 0 115 33.5t63 97.5q25 125 25 158zM520.5 692q-4.5 4 -4.5 10q0 5 2 14t3 16q3 14 31 34q14 11 21 18.5
t7 16.5q0 19 -34 19q-33 0 -49 -27q-3 -9 -14 -9q-14 0 -14 12q0 20 23.5 37.5t55.5 17.5q29 0 47.5 -13.5t18.5 -33.5q0 -18 -9.5 -29t-26.5 -23q-7 -5 -13.5 -10.5t-7.5 -11.5q-4 -19 -5 -25q-4 -17 -21 -17q-6 0 -10.5 4zM461 579q-25 47 -47 76.5t-32 29.5
q-17 0 -115 -94q-17 -17 -28 -17q-8 0 -13.5 6t-5.5 13q0 9 11 20l32 28q41 39 73 64t51 25q25 0 48 -29t41 -59.5t23 -38.5q4 -6 4 -11q0 -9 -8 -16t-17 -7q-12 0 -17 10z" />
    <glyph glyph-name="uni1EAB" unicode="&#x1eab;" horiz-adv-x="615" 
d="M533 441q-9 -26 -22 -73q-15 -61 -32.5 -154t-17.5 -127q0 -19 7.5 -27.5t25.5 -9.5q10 -1 15 -4.5t5 -12.5q0 -30 -30 -30q-37 0 -52.5 15t-20.5 51q-60 -77 -173 -77q-99 0 -144 58t-45 139q0 82 34.5 151.5t96.5 110.5t141 41q55 0 93 -22.5t54 -63.5l16 53
q4 13 10.5 20t19.5 7t20.5 -5.5t6.5 -13.5q-5 -19 -8 -26zM442 329q0 59 -38.5 87.5t-86.5 28.5q-58 0 -107 -37t-77.5 -97t-28.5 -124q0 -61 30.5 -104t104.5 -43q65 0 115 33.5t63 97.5q25 125 25 158zM250 762.5q-4 4.5 -4 11.5q0 9 9 18q27 26 46.5 37t43.5 11
q32 0 78 -22q4 -2 22.5 -11.5t33.5 -9.5q16 0 39 19q4 3 10.5 7.5t12.5 4.5q8 0 13 -5.5t5 -12.5q0 -9 -11 -18q-22 -18 -40 -26t-37 -8q-15 0 -27.5 4.5t-25 11t-19.5 10.5q-13 6 -30.5 12t-28.5 6t-21 -6.5t-19 -14t-13 -10.5q-14 -13 -25 -13q-8 0 -12 4.5zM461 579
q-25 47 -47 76.5t-32 29.5q-17 0 -115 -94q-17 -17 -28 -17q-8 0 -13.5 6t-5.5 13q0 9 11 20l32 28q41 39 73 64t51 25q25 0 48 -29t41 -59.5t23 -38.5q4 -6 4 -11q0 -9 -8 -16t-17 -7q-12 0 -17 10z" />
    <glyph glyph-name="adieresis" unicode="&#xe4;" horiz-adv-x="615" 
d="M533 441q-9 -26 -22 -73q-15 -61 -32.5 -154t-17.5 -127q0 -19 7.5 -27.5t25.5 -9.5q10 -1 15 -4.5t5 -12.5q0 -30 -30 -30q-37 0 -52.5 15t-20.5 51q-60 -77 -173 -77q-99 0 -144 58t-45 139q0 82 34.5 151.5t96.5 110.5t141 41q55 0 93 -22.5t54 -63.5l16 53
q4 13 10.5 20t19.5 7t20.5 -5.5t6.5 -13.5q-5 -19 -8 -26zM442 329q0 59 -38.5 87.5t-86.5 28.5q-58 0 -107 -37t-77.5 -97t-28.5 -124q0 -61 30.5 -104t104.5 -43q65 0 115 33.5t63 97.5q25 125 25 158zM220 592.5q-11 10.5 -11 27.5q0 23 16 38t39 15q18 0 29.5 -10
t11.5 -26q0 -22 -17 -38.5t-39 -16.5q-18 0 -29 10.5zM448.5 592.5q-10.5 10.5 -10.5 27.5q0 23 16 38t39 15q17 0 28 -10t11 -26q0 -22 -16 -38.5t-39 -16.5q-18 0 -28.5 10.5z" />
    <glyph glyph-name="uni1EA1" unicode="&#x1ea1;" horiz-adv-x="615" 
d="M533 441q-9 -26 -22 -73q-15 -61 -32.5 -154t-17.5 -127q0 -19 7.5 -27.5t25.5 -9.5q10 -1 15 -4.5t5 -12.5q0 -30 -30 -30q-37 0 -52.5 15t-20.5 51q-60 -77 -173 -77q-99 0 -144 58t-45 139q0 82 34.5 151.5t96.5 110.5t141 41q55 0 93 -22.5t54 -63.5l16 53
q4 13 10.5 20t19.5 7t20.5 -5.5t6.5 -13.5q-5 -19 -8 -26zM442 329q0 59 -38.5 87.5t-86.5 28.5q-58 0 -107 -37t-77.5 -97t-28.5 -124q0 -61 30.5 -104t104.5 -43q65 0 115 33.5t63 97.5q25 125 25 158zM199.5 -156.5q-10.5 10.5 -10.5 27.5q0 22 16 37.5t39 15.5
q18 0 28.5 -10t10.5 -26q0 -23 -16 -39t-39 -16q-18 0 -28.5 10.5z" />
    <glyph glyph-name="agrave" unicode="&#xe0;" horiz-adv-x="615" 
d="M533 441q-9 -26 -22 -73q-15 -61 -32.5 -154t-17.5 -127q0 -19 7.5 -27.5t25.5 -9.5q10 -1 15 -4.5t5 -12.5q0 -30 -30 -30q-37 0 -52.5 15t-20.5 51q-60 -77 -173 -77q-99 0 -144 58t-45 139q0 82 34.5 151.5t96.5 110.5t141 41q55 0 93 -22.5t54 -63.5l16 53
q4 13 10.5 20t19.5 7t20.5 -5.5t6.5 -13.5q-5 -19 -8 -26zM442 329q0 59 -38.5 87.5t-86.5 28.5q-58 0 -107 -37t-77.5 -97t-28.5 -124q0 -61 30.5 -104t104.5 -43q65 0 115 33.5t63 97.5q25 125 25 158zM399 562.5q-5 2.5 -11 10.5l-64 86q-10 13 -10 22q0 12 7.5 19.5
t17.5 7.5q13 0 27 -21l58 -85q9 -10 9 -19t-7 -16t-16 -7q-6 0 -11 2.5z" />
    <glyph glyph-name="uni1EA3" unicode="&#x1ea3;" horiz-adv-x="615" 
d="M533 441q-9 -26 -22 -73q-15 -61 -32.5 -154t-17.5 -127q0 -19 7.5 -27.5t25.5 -9.5q10 -1 15 -4.5t5 -12.5q0 -30 -30 -30q-37 0 -52.5 15t-20.5 51q-60 -77 -173 -77q-99 0 -144 58t-45 139q0 82 34.5 151.5t96.5 110.5t141 41q55 0 93 -22.5t54 -63.5l16 53
q4 13 10.5 20t19.5 7t20.5 -5.5t6.5 -13.5q-5 -19 -8 -26zM442 329q0 59 -38.5 87.5t-86.5 28.5q-58 0 -107 -37t-77.5 -97t-28.5 -124q0 -61 30.5 -104t104.5 -43q65 0 115 33.5t63 97.5q25 125 25 158zM349 569.5q-5 6.5 -4 16.5q1 7 7 38q2 12 13 22.5t31 24.5
q21 16 32 27t12 23q3 41 -55 41q-24 0 -41 -12t-37 -34q-10 -11 -18 -11t-14 5.5t-6 11.5t8 18q26 29 51 45t62 16q44 0 70.5 -19.5t26.5 -53.5q0 -26 -15.5 -43.5t-43.5 -35.5q-27 -16 -29 -27l-6 -33q-4 -26 -28 -26q-11 0 -16 6.5z" />
    <glyph glyph-name="uni0251" unicode="&#x251;" horiz-adv-x="615" 
d="M533 441q-9 -26 -22 -73q-15 -61 -32.5 -154t-17.5 -127q0 -19 7.5 -27.5t25.5 -9.5q10 -1 15 -4.5t5 -12.5q0 -30 -30 -30q-37 0 -52.5 15t-20.5 51q-60 -77 -173 -77q-99 0 -144 58t-45 139q0 82 34.5 151.5t96.5 110.5t141 41q55 0 93 -22.5t54 -63.5l16 53
q4 13 10.5 20t19.5 7t20.5 -5.5t6.5 -13.5q-5 -19 -8 -26zM442 329q0 59 -38.5 87.5t-86.5 28.5q-58 0 -107 -37t-77.5 -97t-28.5 -124q0 -61 30.5 -104t104.5 -43q65 0 115 33.5t63 97.5q25 125 25 158z" />
    <glyph glyph-name="amacron" unicode="&#x101;" horiz-adv-x="615" 
d="M533 441q-9 -26 -22 -73q-15 -61 -32.5 -154t-17.5 -127q0 -19 7.5 -27.5t25.5 -9.5q10 -1 15 -4.5t5 -12.5q0 -30 -30 -30q-37 0 -52.5 15t-20.5 51q-60 -77 -173 -77q-99 0 -144 58t-45 139q0 82 34.5 151.5t96.5 110.5t141 41q55 0 93 -22.5t54 -63.5l16 53
q4 13 10.5 20t19.5 7t20.5 -5.5t6.5 -13.5q-5 -19 -8 -26zM442 329q0 59 -38.5 87.5t-86.5 28.5q-58 0 -107 -37t-77.5 -97t-28.5 -124q0 -61 30.5 -104t104.5 -43q65 0 115 33.5t63 97.5q25 125 25 158zM187 597q0 11 6.5 19.5t17.5 9.5q63 14 176 14h139q22 0 22 -19
q0 -26 -28 -26q-17 0 -30 1l-115 1q-60 0 -103 -6t-48 -7q-15 -3 -21 -3q-16 0 -16 16z" />
    <glyph glyph-name="aogonek" unicode="&#x105;" horiz-adv-x="615" 
d="M533 441q-9 -26 -22 -73q-15 -61 -32.5 -154t-17.5 -127q0 -19 7.5 -27.5t25.5 -9.5q10 -1 15 -4.5t5 -12.5q0 -16 -9 -24l-6 -6q-34 -25 -53 -46t-19 -46q0 -28 41 -28q8 0 18 3.5t15 3.5q4 0 7 -3.5t3 -8.5q0 -32 -46 -32q-36 0 -59.5 17t-23.5 48q0 28 16 51.5
t46 47.5q-15 6 -22.5 20t-10.5 39q-60 -77 -173 -77q-99 0 -144 58t-45 139q0 82 34.5 151.5t96.5 110.5t141 41q55 0 93 -22.5t54 -63.5l16 53q4 13 10.5 20t19.5 7t20.5 -5.5t6.5 -13.5q-5 -19 -8 -26zM442 329q0 59 -38.5 87.5t-86.5 28.5q-58 0 -107 -37t-77.5 -97
t-28.5 -124q0 -61 30.5 -104t104.5 -43q65 0 115 33.5t63 97.5q25 125 25 158z" />
    <glyph glyph-name="aring" unicode="&#xe5;" horiz-adv-x="615" 
d="M533 441q-9 -26 -22 -73q-15 -61 -32.5 -154t-17.5 -127q0 -19 7.5 -27.5t25.5 -9.5q10 -1 15 -4.5t5 -12.5q0 -30 -30 -30q-37 0 -52.5 15t-20.5 51q-60 -77 -173 -77q-99 0 -144 58t-45 139q0 82 34.5 151.5t96.5 110.5t141 41q55 0 93 -22.5t54 -63.5l16 53
q4 13 10.5 20t19.5 7t20.5 -5.5t6.5 -13.5q-5 -19 -8 -26zM442 329q0 59 -38.5 87.5t-86.5 28.5q-58 0 -107 -37t-77.5 -97t-28.5 -124q0 -61 30.5 -104t104.5 -43q65 0 115 33.5t63 97.5q25 125 25 158zM296.5 562q-25.5 25 -25.5 61q0 47 35 80t84 33q36 0 60.5 -26
t24.5 -60q0 -47 -34 -80t-81 -33q-38 0 -63.5 25zM414.5 597.5q22.5 21.5 22.5 50.5q0 21 -15 35.5t-38 14.5q-30 0 -51.5 -22.5t-21.5 -48.5q0 -22 14.5 -36.5t37.5 -14.5q29 0 51.5 21.5z" />
    <glyph glyph-name="aringacute" unicode="&#x1fb;" horiz-adv-x="615" 
d="M533 441q-9 -26 -22 -73q-15 -61 -32.5 -154t-17.5 -127q0 -19 7.5 -27.5t25.5 -9.5q10 -1 15 -4.5t5 -12.5q0 -30 -30 -30q-37 0 -52.5 15t-20.5 51q-60 -77 -173 -77q-99 0 -144 58t-45 139q0 82 34.5 151.5t96.5 110.5t141 41q55 0 93 -22.5t54 -63.5l16 53
q4 13 10.5 20t19.5 7t20.5 -5.5t6.5 -13.5q-5 -19 -8 -26zM442 329q0 59 -38.5 87.5t-86.5 28.5q-58 0 -107 -37t-77.5 -97t-28.5 -124q0 -61 30.5 -104t104.5 -43q65 0 115 33.5t63 97.5q25 125 25 158zM296.5 562q-25.5 25 -25.5 61q0 47 35 80t84 33q36 0 60.5 -26
t24.5 -60q0 -47 -34 -80t-81 -33q-38 0 -63.5 25zM414.5 597.5q22.5 21.5 22.5 50.5q0 21 -15 35.5t-38 14.5q-30 0 -51.5 -22.5t-21.5 -48.5q0 -22 14.5 -36.5t37.5 -14.5q29 0 51.5 21.5zM354.5 803q-5.5 5 -5.5 12q0 13 17 27l86 80q14 12 21.5 17t14.5 5q8 0 14 -5.5
t6 -14.5t-5.5 -16t-16.5 -16l-94 -80q-10 -8 -15 -11t-11 -3t-11.5 5z" />
    <glyph glyph-name="atilde" unicode="&#xe3;" horiz-adv-x="615" 
d="M533 441q-9 -26 -22 -73q-15 -61 -32.5 -154t-17.5 -127q0 -19 7.5 -27.5t25.5 -9.5q10 -1 15 -4.5t5 -12.5q0 -30 -30 -30q-37 0 -52.5 15t-20.5 51q-60 -77 -173 -77q-99 0 -144 58t-45 139q0 82 34.5 151.5t96.5 110.5t141 41q55 0 93 -22.5t54 -63.5l16 53
q4 13 10.5 20t19.5 7t20.5 -5.5t6.5 -13.5q-5 -19 -8 -26zM442 329q0 59 -38.5 87.5t-86.5 28.5q-58 0 -107 -37t-77.5 -97t-28.5 -124q0 -61 30.5 -104t104.5 -43q65 0 115 33.5t63 97.5q25 125 25 158zM215.5 576.5q-4.5 4.5 -4.5 12.5q0 10 9 19q27 28 46.5 39.5
t44.5 11.5q42 0 81 -21q3 -2 15 -9t22 -10.5t18 -3.5q9 0 17.5 5t19.5 14q13 13 22 13q7 0 12.5 -6t5.5 -14q0 -11 -8 -19q-23 -19 -41.5 -27.5t-37.5 -8.5q-13 0 -23.5 4t-25.5 12q-12 7 -23 11q-6 2 -25.5 11t-33.5 9q-10 0 -19.5 -6.5t-19 -15.5t-13.5 -12
q-16 -13 -26 -13q-8 0 -12.5 4.5z" />
    <glyph glyph-name="ae" unicode="&#xe6;" horiz-adv-x="987" 
d="M842.5 487.5q48.5 -25.5 75.5 -67.5t27 -89q0 -15 -3 -30q-5 -26 -15.5 -34t-35.5 -9l-399 -10l-3 -17q-6 -28 -6 -53q0 -74 43.5 -108t129.5 -34q121 0 197 102q6 9 18 9q8 0 15 -6.5t7 -15.5q0 -12 -10 -25q-46 -56 -102 -83t-125 -27q-85 0 -138.5 29.5t-67.5 84.5
q-25 -56 -83 -85t-136 -29q-101 0 -148.5 32.5t-47.5 102.5q0 78 56 118.5t172 43.5l186 4l2 12q3 15 3 30q0 55 -38 92.5t-106 37.5q-62 0 -102 -18.5t-84 -57.5q-8 -7 -18 -7t-16 6.5t-6 13.5q0 11 14 23q48 42 98 64t114 22q47 0 86.5 -18.5t64.5 -49t31 -66.5
q36 60 98.5 99t143.5 39q60 0 108.5 -25.5zM632.5 444q-48.5 -24 -83.5 -64.5t-48 -87.5l388 10l2 11q2 12 2 19q0 35 -19 66t-55 50.5t-85 19.5q-53 0 -101.5 -24zM362 69q54 34 67 107l11 71l-180 -4q-173 -4 -173 -118q0 -47 34.5 -68.5t109.5 -21.5q77 0 131 34z" />
    <glyph glyph-name="aeacute" unicode="&#x1fd;" horiz-adv-x="987" 
d="M842.5 487.5q48.5 -25.5 75.5 -67.5t27 -89q0 -15 -3 -30q-5 -26 -15.5 -34t-35.5 -9l-399 -10l-3 -17q-6 -28 -6 -53q0 -74 43.5 -108t129.5 -34q121 0 197 102q6 9 18 9q8 0 15 -6.5t7 -15.5q0 -12 -10 -25q-46 -56 -102 -83t-125 -27q-85 0 -138.5 29.5t-67.5 84.5
q-25 -56 -83 -85t-136 -29q-101 0 -148.5 32.5t-47.5 102.5q0 78 56 118.5t172 43.5l186 4l2 12q3 15 3 30q0 55 -38 92.5t-106 37.5q-62 0 -102 -18.5t-84 -57.5q-8 -7 -18 -7t-16 6.5t-6 13.5q0 11 14 23q48 42 98 64t114 22q47 0 86.5 -18.5t64.5 -49t31 -66.5
q36 60 98.5 99t143.5 39q60 0 108.5 -25.5zM632.5 444q-48.5 -24 -83.5 -64.5t-48 -87.5l388 10l2 11q2 12 2 19q0 35 -19 66t-55 50.5t-85 19.5q-53 0 -101.5 -24zM362 69q54 34 67 107l11 71l-180 -4q-173 -4 -173 -118q0 -47 34.5 -68.5t109.5 -21.5q77 0 131 34z
M467.5 566.5q-4.5 4.5 -5.5 10.5q0 11 13 24l105 106q11 11 18.5 15.5t16.5 4.5t14.5 -5.5t5.5 -13.5q0 -16 -23 -38l-105 -93q-16 -15 -28 -15q-7 0 -11.5 4.5z" />
    <glyph glyph-name="b" unicode="b" horiz-adv-x="643" 
d="M533.5 448q60.5 -55 60.5 -150q0 -85 -36.5 -154t-102 -108.5t-149.5 -39.5q-49 0 -90.5 15t-67.5 36.5t-32 41.5q-8 -25 -27.5 -45.5t-40.5 -29.5q-6 -3 -12 -3q-11 0 -16 8t-5 17q0 7 10 14q12 6 24.5 17.5t18.5 25.5q10 20 16.5 54.5t22.5 144.5q4 25 7.5 49t7.5 47
q24 159 38 244q6 39 16 105t15 110q1 11 10 17.5t22 6.5q12 0 18 -6t4 -16q-17 -122 -33 -221l-30 -201q78 76 194 76q97 0 157.5 -55zM428 77q53 34 82 92t29 128q0 77 -44.5 118t-120.5 41q-60 0 -112.5 -28.5t-87.5 -69.5l-17 -93q-13 -86 -13 -105q0 -32 21.5 -58.5
t59 -42.5t81.5 -16q69 0 122 34z" />
    <glyph glyph-name="c" unicode="c" horiz-adv-x="580" 
d="M149 29.5q-49 27.5 -74.5 74t-25.5 102.5q0 79 40 149.5t108.5 114t151.5 43.5q52 0 96.5 -20.5t70.5 -54t26 -70.5q0 -14 -6 -20.5t-21 -6.5q-24 0 -24 20q0 45 -41 75t-101 30q-67 0 -123.5 -38t-89.5 -98t-33 -124q0 -69 42.5 -113t120.5 -44q53 0 101.5 19.5
t78.5 53.5t30 73q0 9 7 14.5t20 5.5q12 0 17.5 -4t5.5 -17q0 -54 -36 -98t-96 -69t-128 -25t-117 27.5z" />
    <glyph glyph-name="cacute" unicode="&#x107;" horiz-adv-x="580" 
d="M149 29.5q-49 27.5 -74.5 74t-25.5 102.5q0 79 40 149.5t108.5 114t151.5 43.5q52 0 96.5 -20.5t70.5 -54t26 -70.5q0 -14 -6 -20.5t-21 -6.5q-24 0 -24 20q0 45 -41 75t-101 30q-67 0 -123.5 -38t-89.5 -98t-33 -124q0 -69 42.5 -113t120.5 -44q53 0 101.5 19.5
t78.5 53.5t30 73q0 9 7 14.5t20 5.5q12 0 17.5 -4t5.5 -17q0 -54 -36 -98t-96 -69t-128 -25t-117 27.5zM304.5 567q-5.5 5 -5.5 12q0 13 17 27l86 80q14 12 21.5 17t14.5 5q8 0 14 -5.5t6 -14.5t-5.5 -16t-16.5 -16l-94 -80q-10 -8 -15 -11t-11 -3t-11.5 5z" />
    <glyph glyph-name="ccaron" unicode="&#x10d;" horiz-adv-x="580" 
d="M149 29.5q-49 27.5 -74.5 74t-25.5 102.5q0 79 40 149.5t108.5 114t151.5 43.5q52 0 96.5 -20.5t70.5 -54t26 -70.5q0 -14 -6 -20.5t-21 -6.5q-24 0 -24 20q0 45 -41 75t-101 30q-67 0 -123.5 -38t-89.5 -98t-33 -124q0 -69 42.5 -113t120.5 -44q53 0 101.5 19.5
t78.5 53.5t30 73q0 9 7 14.5t20 5.5q12 0 17.5 -4t5.5 -17q0 -54 -36 -98t-96 -69t-128 -25t-117 27.5zM505 723q5 -5 5 -13q0 -6 -4 -10.5t-6 -6.5q-57 -62 -92.5 -94t-62.5 -32q-16 0 -36.5 21t-51.5 61q-16 23 -27 35q-5 6 -5 13q0 9 8.5 17.5t17.5 8.5q10 0 22 -18
q64 -94 81 -94q11 0 44 30t74 77q8 10 21 10q7 0 12 -5z" />
    <glyph glyph-name="ccedilla" unicode="&#xe7;" horiz-adv-x="580" 
d="M225.5 428q-56.5 -38 -89.5 -98t-33 -124q0 -69 42.5 -113t120.5 -44q53 0 101.5 19.5t78.5 53.5t30 73q0 9 7 14.5t20 5.5q12 0 17.5 -4t5.5 -17q0 -52 -34 -95t-90.5 -68.5t-121.5 -28.5l-49 -61q34 -8 55.5 -27.5t21.5 -48.5q0 -45 -37.5 -68.5t-95.5 -23.5
q-18 0 -40.5 4t-37.5 10q-12 4 -12 18q0 12 8 19t20 5q5 -1 26 -6.5t38 -5.5q81 0 81 48q0 19 -17.5 27t-56.5 15q-9 1 -14.5 5.5t-5.5 10.5q0 3 2 9l61 73q-84 11 -131 67.5t-47 133.5q0 79 40 149.5t108.5 114t151.5 43.5q52 0 96.5 -20.5t70.5 -54t26 -70.5
q0 -14 -6 -20.5t-21 -6.5q-24 0 -24 20q0 45 -41 75t-101 30q-67 0 -123.5 -38z" />
    <glyph glyph-name="ccircumflex" unicode="&#x109;" horiz-adv-x="580" 
d="M149 29.5q-49 27.5 -74.5 74t-25.5 102.5q0 79 40 149.5t108.5 114t151.5 43.5q52 0 96.5 -20.5t70.5 -54t26 -70.5q0 -14 -6 -20.5t-21 -6.5q-24 0 -24 20q0 45 -41 75t-101 30q-67 0 -123.5 -38t-89.5 -98t-33 -124q0 -69 42.5 -113t120.5 -44q53 0 101.5 19.5
t78.5 53.5t30 73q0 9 7 14.5t20 5.5q12 0 17.5 -4t5.5 -17q0 -54 -36 -98t-96 -69t-128 -25t-117 27.5zM453 578q-24 46 -46 76t-33 30q-16 0 -115 -94q-17 -17 -28 -17q-8 0 -13.5 6t-5.5 13q0 9 11 20l31 28q46 42 76.5 65.5t48.5 23.5q27 0 51.5 -32.5t60.5 -94.5
q4 -6 4 -11q0 -9 -7.5 -16t-16.5 -7q-13 0 -18 10z" />
    <glyph glyph-name="cdotaccent" unicode="&#x10b;" horiz-adv-x="580" 
d="M149 29.5q-49 27.5 -74.5 74t-25.5 102.5q0 79 40 149.5t108.5 114t151.5 43.5q52 0 96.5 -20.5t70.5 -54t26 -70.5q0 -14 -6 -20.5t-21 -6.5q-24 0 -24 20q0 45 -41 75t-101 30q-67 0 -123.5 -38t-89.5 -98t-33 -124q0 -69 42.5 -113t120.5 -44q53 0 101.5 19.5
t78.5 53.5t30 73q0 9 7 14.5t20 5.5q12 0 17.5 -4t5.5 -17q0 -54 -36 -98t-96 -69t-128 -25t-117 27.5zM325.5 592.5q-10.5 10.5 -10.5 27.5q0 22 16 37.5t39 15.5q17 0 28 -10t11 -26q0 -23 -16 -39t-39 -16q-18 0 -28.5 10.5z" />
    <glyph glyph-name="d" unicode="d" horiz-adv-x="642" 
d="M110 41.5q-62 47.5 -62 148.5q0 84 39.5 156.5t108.5 115t153 42.5q67 0 113.5 -24t66.5 -59l85 427q2 11 10.5 18t20.5 7q13 0 19.5 -7t4.5 -18l-140 -708q-6 -30 -4 -45q0 -17 5.5 -27t13.5 -19t8 -13q0 -6 -10.5 -19t-21.5 -13q-21 0 -36 25.5t-14 61.5
q-35 -46 -87.5 -71.5t-119.5 -25.5q-91 0 -153 47.5zM364 64q46 20 77 55t39 77l32 169q-7 22 -29.5 42.5t-58 34t-78.5 13.5q-68 0 -124 -35.5t-87.5 -93.5t-31.5 -124q0 -81 49 -119.5t116 -38.5q50 0 96 20z" />
    <glyph glyph-name="eth" unicode="&#xf0;" horiz-adv-x="597" 
d="M535.5 462q15.5 -66 15.5 -127q0 -98 -35.5 -173.5t-102.5 -117.5t-157 -42q-63 0 -109.5 28t-71.5 74.5t-25 100.5q0 80 38 149.5t104 111.5t144 42q81 0 139 -44q-14 50 -38 90q-25 42 -59 75l-105 -53q-12 -6 -18 -6q-9 0 -15 6.5t-5 17.5q0 11 17 19l89 46
q-32 23 -71 39q-16 6 -16 17t8.5 21t21.5 10q9 0 18.5 -4.5t11.5 -5.5q46 -23 81 -49l100 52q8 4 12 4q9 0 15.5 -7t6.5 -15q0 -16 -24 -27l-75 -38q36 -36 60 -76q30 -52 45.5 -118zM380.5 88.5q53.5 37.5 82.5 102t29 142.5q0 17 -1 26q-21 46 -62 74t-93 28
q-60 0 -114 -38t-86 -98t-32 -120q0 -67 41 -110.5t111 -43.5q71 0 124.5 37.5z" />
    <glyph glyph-name="dcaron" unicode="&#x10f;" horiz-adv-x="750" 
d="M110 41.5q-62 47.5 -62 148.5q0 84 39.5 156.5t108.5 115t153 42.5q67 0 113.5 -24t66.5 -59l85 427q2 11 10.5 18t20.5 7q13 0 19.5 -7t4.5 -18l-140 -708q-6 -30 -4 -45q0 -17 5.5 -27t13.5 -19t8 -13q0 -6 -10.5 -19t-21.5 -13q-21 0 -36 25.5t-14 61.5
q-35 -46 -87.5 -71.5t-119.5 -25.5q-91 0 -153 47.5zM364 64q46 20 77 55t39 77l32 169q-7 22 -29.5 42.5t-58 34t-78.5 13.5q-68 0 -124 -35.5t-87.5 -93.5t-31.5 -124q0 -81 49 -119.5t116 -38.5q50 0 96 20zM820 806.5q12 -12.5 12 -31.5q0 -30 -34 -70.5t-73 -70.5
q-8 -5 -12 -5q-7 0 -12 5t-5 13q0 4 2.5 6.5l3.5 3.5q52 40 68 66h-4q-15 0 -25.5 11.5t-10.5 27.5q0 23 18.5 40t40.5 17q19 0 31 -12.5z" />
    <glyph glyph-name="dcroat" unicode="&#x111;" horiz-adv-x="726" 
d="M729 703q21 0 21 -16q0 -13 -9.5 -21t-23.5 -8l-86 -2l-102 -516q-6 -30 -4 -45q0 -17 5.5 -27t13.5 -19t8 -13q0 -6 -10.5 -19t-21.5 -13q-21 0 -36 25.5t-14 61.5q-35 -46 -87.5 -71.5t-119.5 -25.5q-91 0 -153 47.5t-62 148.5q0 84 39.5 156.5t108.5 115t153 42.5
q67 0 113.5 -24t66.5 -59l47 235l-86 -2q-23 0 -23 17q0 26 30 26l87 2l30 149q2 11 10.5 18t20.5 7q13 0 19.5 -7t4.5 -18l-29 -147l85 2h4zM512 365q-7 22 -29.5 42.5t-58 34t-78.5 13.5q-68 0 -124 -35.5t-87.5 -93.5t-31.5 -124q0 -81 49 -119.5t116 -38.5q50 0 96 20
t77 55t39 77z" />
    <glyph glyph-name="uni1E0D" unicode="&#x1e0d;" horiz-adv-x="642" 
d="M110 41.5q-62 47.5 -62 148.5q0 84 39.5 156.5t108.5 115t153 42.5q67 0 113.5 -24t66.5 -59l85 427q2 11 10.5 18t20.5 7q13 0 19.5 -7t4.5 -18l-140 -708q-6 -30 -4 -45q0 -17 5.5 -27t13.5 -19t8 -13q0 -6 -10.5 -19t-21.5 -13q-21 0 -36 25.5t-14 61.5
q-35 -46 -87.5 -71.5t-119.5 -25.5q-91 0 -153 47.5zM364 64q46 20 77 55t39 77l32 169q-7 22 -29.5 42.5t-58 34t-78.5 13.5q-68 0 -124 -35.5t-87.5 -93.5t-31.5 -124q0 -81 49 -119.5t116 -38.5q50 0 96 20zM200.5 -156.5q-10.5 10.5 -10.5 27.5q0 22 16 37.5t39 15.5
q18 0 28.5 -10t10.5 -26q0 -23 -16 -39t-39 -16q-18 0 -28.5 10.5z" />
    <glyph glyph-name="uni1E0F" unicode="&#x1e0f;" horiz-adv-x="642" 
d="M110 41.5q-62 47.5 -62 148.5q0 84 39.5 156.5t108.5 115t153 42.5q67 0 113.5 -24t66.5 -59l85 427q2 11 10.5 18t20.5 7q13 0 19.5 -7t4.5 -18l-140 -708q-6 -30 -4 -45q0 -17 5.5 -27t13.5 -19t8 -13q0 -6 -10.5 -19t-21.5 -13q-21 0 -36 25.5t-14 61.5
q-35 -46 -87.5 -71.5t-119.5 -25.5q-91 0 -153 47.5zM364 64q46 20 77 55t39 77l32 169q-7 22 -29.5 42.5t-58 34t-78.5 13.5q-68 0 -124 -35.5t-87.5 -93.5t-31.5 -124q0 -81 49 -119.5t116 -38.5q50 0 96 20zM89 -146.5q-4 4.5 -4 12.5q0 11 5.5 19t15.5 9q75 9 183 9
q35 0 73 -2q12 -1 30 -1q10 0 15.5 -5t5.5 -13q0 -13 -8 -19.5t-20 -6.5l-26 1q-57 3 -79 3q-52 0 -145 -8q-25 -3 -36 -3q-6 0 -10 4.5z" />
    <glyph glyph-name="e" unicode="e" horiz-adv-x="600" 
d="M154 27q-51 29 -76.5 77.5t-25.5 105.5q0 80 40.5 150t109.5 111.5t152 41.5q91 0 147 -49t56 -133q0 -44 -13 -61.5t-43 -18.5l-395 -10q-3 -18 -3 -35q0 -71 48 -115.5t126 -44.5q46 0 80.5 14.5t56 32.5t53.5 51q7 7 14 7q9 0 17 -6.5t8 -15.5q0 -10 -10 -20
q-29 -33 -52 -54t-65.5 -39t-101.5 -18q-72 0 -123 29zM493 297q11 0 14.5 7t3.5 26q0 63 -43 99.5t-115 36.5q-61 0 -114 -30t-86 -73t-39 -77z" />
    <glyph glyph-name="eacute" unicode="&#xe9;" horiz-adv-x="600" 
d="M154 27q-51 29 -76.5 77.5t-25.5 105.5q0 80 40.5 150t109.5 111.5t152 41.5q91 0 147 -49t56 -133q0 -44 -13 -61.5t-43 -18.5l-395 -10q-3 -18 -3 -35q0 -71 48 -115.5t126 -44.5q46 0 80.5 14.5t56 32.5t53.5 51q7 7 14 7q9 0 17 -6.5t8 -15.5q0 -10 -10 -20
q-29 -33 -52 -54t-65.5 -39t-101.5 -18q-72 0 -123 29zM493 297q11 0 14.5 7t3.5 26q0 63 -43 99.5t-115 36.5q-61 0 -114 -30t-86 -73t-39 -77zM303.5 566.5q-4.5 4.5 -5.5 10.5q0 11 13 24l105 106q11 11 18.5 15.5t16.5 4.5t14.5 -5.5t5.5 -13.5q0 -16 -23 -38l-105 -93
q-16 -15 -28 -15q-7 0 -11.5 4.5z" />
    <glyph glyph-name="ebreve" unicode="&#x115;" horiz-adv-x="600" 
d="M154 27q-51 29 -76.5 77.5t-25.5 105.5q0 80 40.5 150t109.5 111.5t152 41.5q91 0 147 -49t56 -133q0 -44 -13 -61.5t-43 -18.5l-395 -10q-3 -18 -3 -35q0 -71 48 -115.5t126 -44.5q46 0 80.5 14.5t56 32.5t53.5 51q7 7 14 7q9 0 17 -6.5t8 -15.5q0 -10 -10 -20
q-29 -33 -52 -54t-65.5 -39t-101.5 -18q-72 0 -123 29zM493 297q11 0 14.5 7t3.5 26q0 63 -43 99.5t-115 36.5q-61 0 -114 -30t-86 -73t-39 -77zM299.5 586.5q-30.5 14.5 -47.5 39t-17 52.5q0 11 1 16q2 10 8.5 15.5t14.5 5.5q22 0 21 -15q-1 -4 -1 -13q1 -34 27 -54.5
t66 -20.5q42 0 75.5 26t39.5 60q1 10 9 15t17 5t14.5 -5.5t4.5 -14.5q-5 -32 -28.5 -61.5t-59 -47t-74.5 -17.5q-40 0 -70.5 14.5z" />
    <glyph glyph-name="ecaron" unicode="&#x11b;" horiz-adv-x="600" 
d="M154 27q-51 29 -76.5 77.5t-25.5 105.5q0 80 40.5 150t109.5 111.5t152 41.5q91 0 147 -49t56 -133q0 -44 -13 -61.5t-43 -18.5l-395 -10q-3 -18 -3 -35q0 -71 48 -115.5t126 -44.5q46 0 80.5 14.5t56 32.5t53.5 51q7 7 14 7q9 0 17 -6.5t8 -15.5q0 -10 -10 -20
q-29 -33 -52 -54t-65.5 -39t-101.5 -18q-72 0 -123 29zM493 297q11 0 14.5 7t3.5 26q0 63 -43 99.5t-115 36.5q-61 0 -114 -30t-86 -73t-39 -77zM517 723q5 -5 5 -13q0 -6 -4 -10.5t-6 -6.5q-57 -62 -92.5 -94t-62.5 -32q-16 0 -36.5 21t-51.5 61q-16 23 -27 35q-5 6 -5 13
q0 9 8.5 17.5t17.5 8.5q10 0 22 -18q64 -94 81 -94q11 0 44 30t74 77q8 10 21 10q7 0 12 -5z" />
    <glyph glyph-name="ecircumflex" unicode="&#xea;" horiz-adv-x="600" 
d="M154 27q-51 29 -76.5 77.5t-25.5 105.5q0 80 40.5 150t109.5 111.5t152 41.5q91 0 147 -49t56 -133q0 -44 -13 -61.5t-43 -18.5l-395 -10q-3 -18 -3 -35q0 -71 48 -115.5t126 -44.5q46 0 80.5 14.5t56 32.5t53.5 51q7 7 14 7q9 0 17 -6.5t8 -15.5q0 -10 -10 -20
q-29 -33 -52 -54t-65.5 -39t-101.5 -18q-72 0 -123 29zM493 297q11 0 14.5 7t3.5 26q0 63 -43 99.5t-115 36.5q-61 0 -114 -30t-86 -73t-39 -77zM465 578q-24 46 -46 76t-33 30q-16 0 -115 -94q-17 -17 -28 -17q-8 0 -13.5 6t-5.5 13q0 9 11 20l31 28q46 42 76.5 65.5
t48.5 23.5q27 0 51.5 -32.5t60.5 -94.5q4 -6 4 -11q0 -9 -7.5 -16t-16.5 -7q-13 0 -18 10z" />
    <glyph glyph-name="uni1EBF" unicode="&#x1ebf;" horiz-adv-x="600" 
d="M154 27q-51 29 -76.5 77.5t-25.5 105.5q0 80 40.5 150t109.5 111.5t152 41.5q91 0 147 -49t56 -133q0 -44 -13 -61.5t-43 -18.5l-395 -10q-3 -18 -3 -35q0 -71 48 -115.5t126 -44.5q46 0 80.5 14.5t56 32.5t53.5 51q7 7 14 7q9 0 17 -6.5t8 -15.5q0 -10 -10 -20
q-29 -33 -52 -54t-65.5 -39t-101.5 -18q-72 0 -123 29zM493 297q11 0 14.5 7t3.5 26q0 63 -43 99.5t-115 36.5q-61 0 -114 -30t-86 -73t-39 -77zM490.5 697.5q-4.5 4.5 -4.5 11.5q0 11 15 26l63 55q13 11 20 15.5t14 4.5q8 0 13 -5t5 -14t-4.5 -15t-15.5 -14l-69 -57
q-14 -12 -25 -12q-7 0 -11.5 4.5zM465 579q-24 46 -46 76t-33 30q-16 0 -114 -94q-17 -17 -29 -17q-7 0 -12.5 5.5t-5.5 13.5q0 10 11 20q24 21 32 29q47 43 76 65.5t47 22.5q27 0 51.5 -32.5t60.5 -94.5q4 -6 4 -11q0 -9 -7.5 -16t-16.5 -7q-13 0 -18 10z" />
    <glyph glyph-name="uni1EC7" unicode="&#x1ec7;" horiz-adv-x="600" 
d="M154 27q-51 29 -76.5 77.5t-25.5 105.5q0 80 40.5 150t109.5 111.5t152 41.5q91 0 147 -49t56 -133q0 -44 -13 -61.5t-43 -18.5l-395 -10q-3 -18 -3 -35q0 -71 48 -115.5t126 -44.5q46 0 80.5 14.5t56 32.5t53.5 51q7 7 14 7q9 0 17 -6.5t8 -15.5q0 -10 -10 -20
q-29 -33 -52 -54t-65.5 -39t-101.5 -18q-72 0 -123 29zM493 297q11 0 14.5 7t3.5 26q0 63 -43 99.5t-115 36.5q-61 0 -114 -30t-86 -73t-39 -77zM203.5 -156.5q-10.5 10.5 -10.5 27.5q0 22 16 37.5t39 15.5q18 0 28.5 -10t10.5 -26q0 -23 -16 -39t-39 -16q-18 0 -28.5 10.5z
M465 578q-24 46 -46 76t-33 30q-16 0 -115 -94q-17 -17 -28 -17q-8 0 -13.5 6t-5.5 13q0 9 11 20l31 28q46 42 76.5 65.5t48.5 23.5q27 0 51.5 -32.5t60.5 -94.5q4 -6 4 -11q0 -9 -7.5 -16t-16.5 -7q-13 0 -18 10z" />
    <glyph glyph-name="uni1EC1" unicode="&#x1ec1;" horiz-adv-x="600" 
d="M154 27q-51 29 -76.5 77.5t-25.5 105.5q0 80 40.5 150t109.5 111.5t152 41.5q91 0 147 -49t56 -133q0 -44 -13 -61.5t-43 -18.5l-395 -10q-3 -18 -3 -35q0 -71 48 -115.5t126 -44.5q46 0 80.5 14.5t56 32.5t53.5 51q7 7 14 7q9 0 17 -6.5t8 -15.5q0 -10 -10 -20
q-29 -33 -52 -54t-65.5 -39t-101.5 -18q-72 0 -123 29zM493 297q11 0 14.5 7t3.5 26q0 63 -43 99.5t-115 36.5q-61 0 -114 -30t-86 -73t-39 -77zM525 705l-49 57q-11 13 -11 22q0 11 8 18.5t19 7.5q6 0 11.5 -4.5t14.5 -15.5l43 -55q8 -9 8 -18q0 -10 -7 -17t-16 -7
q-10 0 -21 12zM465 579q-25 47 -47 76.5t-32 29.5q-17 0 -115 -94q-17 -17 -28 -17q-8 0 -13.5 6t-5.5 13q0 9 11 20l32 28q41 39 73 64t51 25q25 0 48 -29t41 -59.5t23 -38.5q4 -6 4 -11q0 -9 -8 -16t-17 -7q-12 0 -17 10z" />
    <glyph glyph-name="uni1EC3" unicode="&#x1ec3;" horiz-adv-x="600" 
d="M154 27q-51 29 -76.5 77.5t-25.5 105.5q0 80 40.5 150t109.5 111.5t152 41.5q91 0 147 -49t56 -133q0 -44 -13 -61.5t-43 -18.5l-395 -10q-3 -18 -3 -35q0 -71 48 -115.5t126 -44.5q46 0 80.5 14.5t56 32.5t53.5 51q7 7 14 7q9 0 17 -6.5t8 -15.5q0 -10 -10 -20
q-29 -33 -52 -54t-65.5 -39t-101.5 -18q-72 0 -123 29zM493 297q11 0 14.5 7t3.5 26q0 63 -43 99.5t-115 36.5q-61 0 -114 -30t-86 -73t-39 -77zM524.5 692q-4.5 4 -4.5 10q0 5 2 14t3 16q3 14 31 34q14 11 21 18.5t7 16.5q0 19 -34 19q-33 0 -49 -27q-3 -9 -14 -9
q-14 0 -14 12q0 20 23.5 37.5t55.5 17.5q29 0 47.5 -13.5t18.5 -33.5q0 -18 -9.5 -29t-26.5 -23q-7 -5 -13.5 -10.5t-7.5 -11.5q-4 -19 -5 -25q-4 -17 -21 -17q-6 0 -10.5 4zM465 579q-25 47 -47 76.5t-32 29.5q-17 0 -115 -94q-17 -17 -28 -17q-8 0 -13.5 6t-5.5 13
q0 9 11 20l32 28q41 39 73 64t51 25q25 0 48 -29t41 -59.5t23 -38.5q4 -6 4 -11q0 -9 -8 -16t-17 -7q-12 0 -17 10z" />
    <glyph glyph-name="uni1EC5" unicode="&#x1ec5;" horiz-adv-x="600" 
d="M154 27q-51 29 -76.5 77.5t-25.5 105.5q0 80 40.5 150t109.5 111.5t152 41.5q91 0 147 -49t56 -133q0 -44 -13 -61.5t-43 -18.5l-395 -10q-3 -18 -3 -35q0 -71 48 -115.5t126 -44.5q46 0 80.5 14.5t56 32.5t53.5 51q7 7 14 7q9 0 17 -6.5t8 -15.5q0 -10 -10 -20
q-29 -33 -52 -54t-65.5 -39t-101.5 -18q-72 0 -123 29zM493 297q11 0 14.5 7t3.5 26q0 63 -43 99.5t-115 36.5q-61 0 -114 -30t-86 -73t-39 -77zM254 762.5q-4 4.5 -4 11.5q0 9 9 18q27 26 46.5 37t43.5 11q32 0 78 -22q4 -2 22.5 -11.5t33.5 -9.5q16 0 39 19q4 3 10.5 7.5
t12.5 4.5q8 0 13 -5.5t5 -12.5q0 -9 -11 -18q-22 -18 -40 -26t-37 -8q-15 0 -27.5 4.5t-25 11t-19.5 10.5q-13 6 -30.5 12t-28.5 6t-21 -6.5t-19 -14t-13 -10.5q-14 -13 -25 -13q-8 0 -12 4.5zM465 579q-25 47 -47 76.5t-32 29.5q-17 0 -115 -94q-17 -17 -28 -17
q-8 0 -13.5 6t-5.5 13q0 9 11 20l32 28q41 39 73 64t51 25q25 0 48 -29t41 -59.5t23 -38.5q4 -6 4 -11q0 -9 -8 -16t-17 -7q-12 0 -17 10z" />
    <glyph glyph-name="edieresis" unicode="&#xeb;" horiz-adv-x="600" 
d="M154 27q-51 29 -76.5 77.5t-25.5 105.5q0 80 40.5 150t109.5 111.5t152 41.5q91 0 147 -49t56 -133q0 -44 -13 -61.5t-43 -18.5l-395 -10q-3 -18 -3 -35q0 -71 48 -115.5t126 -44.5q46 0 80.5 14.5t56 32.5t53.5 51q7 7 14 7q9 0 17 -6.5t8 -15.5q0 -10 -10 -20
q-29 -33 -52 -54t-65.5 -39t-101.5 -18q-72 0 -123 29zM493 297q11 0 14.5 7t3.5 26q0 63 -43 99.5t-115 36.5q-61 0 -114 -30t-86 -73t-39 -77zM224 592.5q-11 10.5 -11 27.5q0 23 16 38t39 15q18 0 29.5 -10t11.5 -26q0 -22 -17 -38.5t-39 -16.5q-18 0 -29 10.5z
M452.5 592.5q-10.5 10.5 -10.5 27.5q0 23 16 38t39 15q17 0 28 -10t11 -26q0 -22 -16 -38.5t-39 -16.5q-18 0 -28.5 10.5z" />
    <glyph glyph-name="edotaccent" unicode="&#x117;" horiz-adv-x="600" 
d="M154 27q-51 29 -76.5 77.5t-25.5 105.5q0 80 40.5 150t109.5 111.5t152 41.5q91 0 147 -49t56 -133q0 -44 -13 -61.5t-43 -18.5l-395 -10q-3 -18 -3 -35q0 -71 48 -115.5t126 -44.5q46 0 80.5 14.5t56 32.5t53.5 51q7 7 14 7q9 0 17 -6.5t8 -15.5q0 -10 -10 -20
q-29 -33 -52 -54t-65.5 -39t-101.5 -18q-72 0 -123 29zM493 297q11 0 14.5 7t3.5 26q0 63 -43 99.5t-115 36.5q-61 0 -114 -30t-86 -73t-39 -77zM337.5 592.5q-10.5 10.5 -10.5 27.5q0 22 16 37.5t39 15.5q17 0 28 -10t11 -26q0 -23 -16 -39t-39 -16q-18 0 -28.5 10.5z" />
    <glyph glyph-name="uni1EB9" unicode="&#x1eb9;" horiz-adv-x="600" 
d="M154 27q-51 29 -76.5 77.5t-25.5 105.5q0 80 40.5 150t109.5 111.5t152 41.5q91 0 147 -49t56 -133q0 -44 -13 -61.5t-43 -18.5l-395 -10q-3 -18 -3 -35q0 -71 48 -115.5t126 -44.5q46 0 80.5 14.5t56 32.5t53.5 51q7 7 14 7q9 0 17 -6.5t8 -15.5q0 -10 -10 -20
q-29 -33 -52 -54t-65.5 -39t-101.5 -18q-72 0 -123 29zM493 297q11 0 14.5 7t3.5 26q0 63 -43 99.5t-115 36.5q-61 0 -114 -30t-86 -73t-39 -77zM203.5 -156.5q-10.5 10.5 -10.5 27.5q0 22 16 37.5t39 15.5q18 0 28.5 -10t10.5 -26q0 -23 -16 -39t-39 -16q-18 0 -28.5 10.5z
" />
    <glyph glyph-name="egrave" unicode="&#xe8;" horiz-adv-x="600" 
d="M154 27q-51 29 -76.5 77.5t-25.5 105.5q0 80 40.5 150t109.5 111.5t152 41.5q91 0 147 -49t56 -133q0 -44 -13 -61.5t-43 -18.5l-395 -10q-3 -18 -3 -35q0 -71 48 -115.5t126 -44.5q46 0 80.5 14.5t56 32.5t53.5 51q7 7 14 7q9 0 17 -6.5t8 -15.5q0 -10 -10 -20
q-29 -33 -52 -54t-65.5 -39t-101.5 -18q-72 0 -123 29zM493 297q11 0 14.5 7t3.5 26q0 63 -43 99.5t-115 36.5q-61 0 -114 -30t-86 -73t-39 -77zM403 562.5q-5 2.5 -11 10.5l-64 86q-10 13 -10 22q0 12 7.5 19.5t17.5 7.5q13 0 27 -21l58 -85q9 -10 9 -19t-7 -16t-16 -7
q-6 0 -11 2.5z" />
    <glyph glyph-name="uni1EBB" unicode="&#x1ebb;" horiz-adv-x="600" 
d="M154 27q-51 29 -76.5 77.5t-25.5 105.5q0 80 40.5 150t109.5 111.5t152 41.5q91 0 147 -49t56 -133q0 -44 -13 -61.5t-43 -18.5l-395 -10q-3 -18 -3 -35q0 -71 48 -115.5t126 -44.5q46 0 80.5 14.5t56 32.5t53.5 51q7 7 14 7q9 0 17 -6.5t8 -15.5q0 -10 -10 -20
q-29 -33 -52 -54t-65.5 -39t-101.5 -18q-72 0 -123 29zM493 297q11 0 14.5 7t3.5 26q0 63 -43 99.5t-115 36.5q-61 0 -114 -30t-86 -73t-39 -77zM353 569.5q-5 6.5 -4 16.5q1 7 7 38q2 12 13 22.5t31 24.5q21 16 32 27t12 23q3 41 -55 41q-24 0 -41 -12t-37 -34
q-10 -11 -18 -11t-14 5.5t-6 11.5t8 18q26 29 51 45t62 16q44 0 70.5 -19.5t26.5 -53.5q0 -26 -15.5 -43.5t-43.5 -35.5q-27 -16 -29 -27l-6 -33q-4 -26 -28 -26q-11 0 -16 6.5z" />
    <glyph glyph-name="emacron" unicode="&#x113;" horiz-adv-x="600" 
d="M154 27q-51 29 -76.5 77.5t-25.5 105.5q0 80 40.5 150t109.5 111.5t152 41.5q91 0 147 -49t56 -133q0 -44 -13 -61.5t-43 -18.5l-395 -10q-3 -18 -3 -35q0 -71 48 -115.5t126 -44.5q46 0 80.5 14.5t56 32.5t53.5 51q7 7 14 7q9 0 17 -6.5t8 -15.5q0 -10 -10 -20
q-29 -33 -52 -54t-65.5 -39t-101.5 -18q-72 0 -123 29zM493 297q11 0 14.5 7t3.5 26q0 63 -43 99.5t-115 36.5q-61 0 -114 -30t-86 -73t-39 -77zM191 597q0 11 6.5 19.5t17.5 9.5q63 14 176 14h139q22 0 22 -19q0 -26 -28 -26q-17 0 -30 1l-115 1q-60 0 -103 -6t-48 -7
q-15 -3 -21 -3q-16 0 -16 16z" />
    <glyph glyph-name="eogonek" unicode="&#x119;" horiz-adv-x="600" 
d="M106 241q-3 -18 -3 -35q0 -71 48 -115.5t126 -44.5q46 0 80.5 14.5t56 32.5t53.5 51q7 7 14 7q9 0 17 -6.5t8 -15.5q0 -10 -10 -20q-3 -4 -17.5 -20t-31.5 -30.5t-35 -25.5q-38 -35 -38 -66q0 -28 41 -28q8 0 18 3.5t15 3.5q4 0 7 -3.5t3 -8.5q0 -32 -46 -32
q-36 0 -59.5 17t-23.5 48q0 16 7 37q-27 -6 -59 -6q-72 0 -123 29t-76.5 77.5t-25.5 105.5q0 80 40.5 150t109.5 111.5t152 41.5q91 0 147 -49t56 -133q0 -44 -13 -61.5t-43 -18.5zM239 436q-53 -30 -86 -73t-39 -77l379 11q11 0 14.5 7t3.5 26q0 63 -43 99.5t-115 36.5
q-61 0 -114 -30z" />
    <glyph glyph-name="uni1EBD" unicode="&#x1ebd;" horiz-adv-x="600" 
d="M154 27q-51 29 -76.5 77.5t-25.5 105.5q0 80 40.5 150t109.5 111.5t152 41.5q91 0 147 -49t56 -133q0 -44 -13 -61.5t-43 -18.5l-395 -10q-3 -18 -3 -35q0 -71 48 -115.5t126 -44.5q46 0 80.5 14.5t56 32.5t53.5 51q7 7 14 7q9 0 17 -6.5t8 -15.5q0 -10 -10 -20
q-29 -33 -52 -54t-65.5 -39t-101.5 -18q-72 0 -123 29zM493 297q11 0 14.5 7t3.5 26q0 63 -43 99.5t-115 36.5q-61 0 -114 -30t-86 -73t-39 -77zM219.5 576.5q-4.5 4.5 -4.5 12.5q0 10 9 19q27 28 46.5 39.5t44.5 11.5q42 0 81 -21q3 -2 15 -9t22 -10.5t18 -3.5q9 0 17.5 5
t19.5 14q13 13 22 13q7 0 12.5 -6t5.5 -14q0 -11 -8 -19q-23 -19 -41.5 -27.5t-37.5 -8.5q-13 0 -23.5 4t-25.5 12q-12 7 -23 11q-6 2 -25.5 11t-33.5 9q-10 0 -19.5 -6.5t-19 -15.5t-13.5 -12q-16 -13 -26 -13q-8 0 -12.5 4.5z" />
    <glyph glyph-name="uni0259" unicode="&#x259;" horiz-adv-x="600" 
d="M446.5 473q50.5 -29 76 -77t25.5 -106q0 -80 -40 -150t-109 -111.5t-152 -41.5q-91 0 -147 49t-56 133q0 44 12.5 62t42.5 18l395 10q3 18 3 36q0 71 -48 115t-125 44q-46 0 -81 -14.5t-58 -33.5t-51 -50q-6 -6 -14 -6q-9 0 -17.5 6.5t-8.5 14.5t10 20q29 33 52.5 54
t66 39t101.5 18q72 0 122.5 -29zM107 203q-10 0 -13.5 -7t-3.5 -25q0 -63 43 -100t114 -37q62 0 114.5 30.5t85.5 73t39 76.5z" />
    <glyph glyph-name="f" unicode="f" horiz-adv-x="388" 
d="M429.5 709.5q30.5 -30.5 30.5 -80.5q0 -15 -3 -33q-4 -21 -11 -29t-22 -8t-20 8t-2 19q6 24 6 45q0 61 -64 61q-52 0 -79.5 -42.5t-42.5 -131.5l-20 -122q34 1 86 1q23 0 23 -18q0 -27 -27 -27q-23 0 -89 -2q-21 -134 -53 -324q-4 -26 -31 -26q-25 0 -21 25
q8 48 14.5 88.5t11.5 73.5l26 162l-72 -3q-22 0 -22 17q0 13 6 21t22 9q10 1 36 1l37 1l20 127q17 106 59 162t116 56q55 0 85.5 -30.5z" />
    <glyph glyph-name="g" unicode="g" horiz-adv-x="582" 
d="M528.5 524.5q9.5 -5.5 9.5 -14.5q0 -5 -3 -11q-14 -26 -37 -78q-1 -72 -5 -171q0 -27 -2 -79q-4 -144 -13 -202q-16 -102 -90.5 -160.5t-182.5 -58.5q-80 0 -128 41t-48 112q0 29 30 29q19 0 19 -19q0 -46 30 -80.5t97 -34.5q89 0 146.5 45.5t73.5 124.5q9 45 11 126
q-33 -40 -81.5 -63.5t-108.5 -23.5q-66 0 -111.5 28t-68.5 75t-23 103q0 77 36.5 144.5t100 108.5t139.5 41q49 0 85 -16t53 -36q16 34 31 62q7 13 21 13q10 0 19.5 -5.5zM359.5 88.5q52.5 30.5 77.5 76.5q3 45 5 161l2 62q-8 28 -45.5 48.5t-83.5 20.5q-59 0 -109.5 -35
t-80 -91.5t-29.5 -117.5q0 -67 39 -111t116 -44q56 0 108.5 30.5z" />
    <glyph glyph-name="gbreve" unicode="&#x11f;" horiz-adv-x="582" 
d="M528.5 524.5q9.5 -5.5 9.5 -14.5q0 -5 -3 -11q-14 -26 -37 -78q-1 -72 -5 -171q0 -27 -2 -79q-4 -144 -13 -202q-16 -102 -90.5 -160.5t-182.5 -58.5q-80 0 -128 41t-48 112q0 29 30 29q19 0 19 -19q0 -46 30 -80.5t97 -34.5q89 0 146.5 45.5t73.5 124.5q9 45 11 126
q-33 -40 -81.5 -63.5t-108.5 -23.5q-66 0 -111.5 28t-68.5 75t-23 103q0 77 36.5 144.5t100 108.5t139.5 41q49 0 85 -16t53 -36q16 34 31 62q7 13 21 13q10 0 19.5 -5.5zM359.5 88.5q52.5 30.5 77.5 76.5q3 45 5 161l2 62q-8 28 -45.5 48.5t-83.5 20.5q-59 0 -109.5 -35
t-80 -91.5t-29.5 -117.5q0 -67 39 -111t116 -44q56 0 108.5 30.5zM278.5 584.5q-30.5 14.5 -47.5 39t-17 52.5q0 11 1 16q2 10 8.5 15.5t14.5 5.5q22 0 21 -15q-1 -4 -1 -13q1 -34 27 -54.5t66 -20.5q42 0 75.5 26t39.5 60q1 10 9 15t17 5t14.5 -5.5t4.5 -14.5
q-5 -32 -28.5 -61.5t-59 -47t-74.5 -17.5q-40 0 -70.5 14.5z" />
    <glyph glyph-name="gcaron" unicode="&#x1e7;" horiz-adv-x="582" 
d="M528.5 524.5q9.5 -5.5 9.5 -14.5q0 -5 -3 -11q-14 -26 -37 -78q-1 -72 -5 -171q0 -27 -2 -79q-4 -144 -13 -202q-16 -102 -90.5 -160.5t-182.5 -58.5q-80 0 -128 41t-48 112q0 29 30 29q19 0 19 -19q0 -46 30 -80.5t97 -34.5q89 0 146.5 45.5t73.5 124.5q9 45 11 126
q-33 -40 -81.5 -63.5t-108.5 -23.5q-66 0 -111.5 28t-68.5 75t-23 103q0 77 36.5 144.5t100 108.5t139.5 41q49 0 85 -16t53 -36q16 34 31 62q7 13 21 13q10 0 19.5 -5.5zM359.5 88.5q52.5 30.5 77.5 76.5q3 45 5 161l2 62q-8 28 -45.5 48.5t-83.5 20.5q-59 0 -109.5 -35
t-80 -91.5t-29.5 -117.5q0 -67 39 -111t116 -44q56 0 108.5 30.5zM496 721q5 -5 5 -13q0 -6 -4 -10.5t-6 -6.5q-57 -62 -92.5 -94t-62.5 -32q-16 0 -36.5 21t-51.5 61q-16 23 -27 35q-5 6 -5 13q0 9 8.5 17.5t17.5 8.5q10 0 22 -18q64 -94 81 -94q11 0 44 30t74 77
q8 10 21 10q7 0 12 -5z" />
    <glyph glyph-name="gcircumflex" unicode="&#x11d;" horiz-adv-x="582" 
d="M528.5 524.5q9.5 -5.5 9.5 -14.5q0 -5 -3 -11q-14 -26 -37 -78q-1 -72 -5 -171q0 -27 -2 -79q-4 -144 -13 -202q-16 -102 -90.5 -160.5t-182.5 -58.5q-80 0 -128 41t-48 112q0 29 30 29q19 0 19 -19q0 -46 30 -80.5t97 -34.5q89 0 146.5 45.5t73.5 124.5q9 45 11 126
q-33 -40 -81.5 -63.5t-108.5 -23.5q-66 0 -111.5 28t-68.5 75t-23 103q0 77 36.5 144.5t100 108.5t139.5 41q49 0 85 -16t53 -36q16 34 31 62q7 13 21 13q10 0 19.5 -5.5zM359.5 88.5q52.5 30.5 77.5 76.5q3 45 5 161l2 62q-8 28 -45.5 48.5t-83.5 20.5q-59 0 -109.5 -35
t-80 -91.5t-29.5 -117.5q0 -67 39 -111t116 -44q56 0 108.5 30.5zM444 576q-24 46 -46 76t-33 30q-16 0 -115 -94q-17 -17 -28 -17q-8 0 -13.5 6t-5.5 13q0 9 11 20l31 28q46 42 76.5 65.5t48.5 23.5q27 0 51.5 -32.5t60.5 -94.5q4 -6 4 -11q0 -9 -7.5 -16t-16.5 -7
q-13 0 -18 10z" />
    <glyph glyph-name="uni0123" unicode="&#x123;" horiz-adv-x="582" 
d="M528.5 524.5q9.5 -5.5 9.5 -14.5q0 -5 -3 -11q-14 -26 -37 -78q-1 -72 -5 -171q0 -27 -2 -79q-4 -144 -13 -202q-16 -102 -90.5 -160.5t-182.5 -58.5q-80 0 -128 41t-48 112q0 29 30 29q19 0 19 -19q0 -46 30 -80.5t97 -34.5q89 0 146.5 45.5t73.5 124.5q9 45 11 126
q-33 -40 -81.5 -63.5t-108.5 -23.5q-66 0 -111.5 28t-68.5 75t-23 103q0 77 36.5 144.5t100 108.5t139.5 41q49 0 85 -16t53 -36q16 34 31 62q7 13 21 13q10 0 19.5 -5.5zM359.5 88.5q52.5 30.5 77.5 76.5q3 45 5 161l2 62q-8 28 -45.5 48.5t-83.5 20.5q-59 0 -109.5 -35
t-80 -91.5t-29.5 -117.5q0 -67 39 -111t116 -44q56 0 108.5 30.5zM419 748.5q5 -4.5 5 -11.5q0 -8 -7 -13q-50 -41 -70 -65q18 -1 31 -12t13 -28q0 -24 -19 -40t-42 -16q-19 0 -30.5 12t-11.5 30q0 32 31 72t77 72q7 4 12 4q6 0 11 -4.5z" />
    <glyph glyph-name="gdotaccent" unicode="&#x121;" horiz-adv-x="582" 
d="M528.5 524.5q9.5 -5.5 9.5 -14.5q0 -5 -3 -11q-14 -26 -37 -78q-1 -72 -5 -171q0 -27 -2 -79q-4 -144 -13 -202q-16 -102 -90.5 -160.5t-182.5 -58.5q-80 0 -128 41t-48 112q0 29 30 29q19 0 19 -19q0 -46 30 -80.5t97 -34.5q89 0 146.5 45.5t73.5 124.5q9 45 11 126
q-33 -40 -81.5 -63.5t-108.5 -23.5q-66 0 -111.5 28t-68.5 75t-23 103q0 77 36.5 144.5t100 108.5t139.5 41q49 0 85 -16t53 -36q16 34 31 62q7 13 21 13q10 0 19.5 -5.5zM359.5 88.5q52.5 30.5 77.5 76.5q3 45 5 161l2 62q-8 28 -45.5 48.5t-83.5 20.5q-59 0 -109.5 -35
t-80 -91.5t-29.5 -117.5q0 -67 39 -111t116 -44q56 0 108.5 30.5zM316.5 590.5q-10.5 10.5 -10.5 27.5q0 22 16 37.5t39 15.5q17 0 28 -10t11 -26q0 -23 -16 -39t-39 -16q-18 0 -28.5 10.5z" />
    <glyph glyph-name="uni1E21" unicode="&#x1e21;" horiz-adv-x="582" 
d="M528.5 524.5q9.5 -5.5 9.5 -14.5q0 -5 -3 -11q-14 -26 -37 -78q-1 -72 -5 -171q0 -27 -2 -79q-4 -144 -13 -202q-16 -102 -90.5 -160.5t-182.5 -58.5q-80 0 -128 41t-48 112q0 29 30 29q19 0 19 -19q0 -46 30 -80.5t97 -34.5q89 0 146.5 45.5t73.5 124.5q9 45 11 126
q-33 -40 -81.5 -63.5t-108.5 -23.5q-66 0 -111.5 28t-68.5 75t-23 103q0 77 36.5 144.5t100 108.5t139.5 41q49 0 85 -16t53 -36q16 34 31 62q7 13 21 13q10 0 19.5 -5.5zM359.5 88.5q52.5 30.5 77.5 76.5q3 45 5 161l2 62q-8 28 -45.5 48.5t-83.5 20.5q-59 0 -109.5 -35
t-80 -91.5t-29.5 -117.5q0 -67 39 -111t116 -44q56 0 108.5 30.5zM170 595q0 11 6.5 19.5t17.5 9.5q63 14 176 14h139q22 0 22 -19q0 -26 -28 -26q-17 0 -30 1l-115 1q-60 0 -103 -6t-48 -7q-15 -3 -21 -3q-16 0 -16 16z" />
    <glyph glyph-name="h" unicode="h" horiz-adv-x="566" 
d="M508 333q0 -49 -10 -119t-31 -193q-2 -9 -10 -15.5t-20 -6.5t-18.5 6.5t-4.5 18.5q21 123 30.5 192t9.5 117q0 65 -21 97.5t-72 32.5q-42 0 -82 -21.5t-70 -56t-45 -72.5q-12 -31 -22 -80t-25 -138l-13 -75q-1 -9 -10.5 -14.5t-21.5 -5.5t-18.5 6t-4.5 15q41 229 75 393
q17 89 77 344q6 27 31 27q23 0 23 -17q0 -5 -1 -8q-35 -146 -80 -347q32 42 79.5 71t110.5 29q144 0 144 -180z" />
    <glyph glyph-name="hbar" unicode="&#x127;" horiz-adv-x="568" 
d="M514 354q0 -49 -10 -119t-31 -193q-2 -9 -10 -15.5t-20 -6.5t-18.5 6.5t-4.5 18.5q21 123 30.5 192t9.5 117q0 65 -21 97.5t-72 32.5q-42 0 -82 -21.5t-70 -56t-45 -72.5q-12 -31 -22 -80t-25 -138l-13 -75q-1 -9 -10.5 -14.5t-21.5 -5.5t-18.5 6t-4.5 15q41 229 75 393
q17 87 36 166l-33 1q-9 0 -14.5 5.5t-5.5 14.5q0 11 9 17.5t20 6.5l34 -1l31 134q6 27 31 27q23 0 23 -17q0 -5 -1 -8l-33 -138l143 -5q22 0 22 -21q0 -11 -8 -17t-21 -6l-146 5l-37 -165q32 42 79.5 71t110.5 29q144 0 144 -180z" />
    <glyph glyph-name="uni1E2B" unicode="&#x1e2b;" horiz-adv-x="566" 
d="M508 333q0 -49 -10 -119t-31 -193q-2 -9 -10 -15.5t-20 -6.5t-18.5 6.5t-4.5 18.5q21 123 30.5 192t9.5 117q0 65 -21 97.5t-72 32.5q-42 0 -82 -21.5t-70 -56t-45 -72.5q-12 -31 -22 -80t-25 -138l-13 -75q-1 -9 -10.5 -14.5t-21.5 -5.5t-18.5 6t-4.5 15q41 229 75 393
q17 89 77 344q6 27 31 27q23 0 23 -17q0 -5 -1 -8q-35 -146 -80 -347q32 42 79.5 71t110.5 29q144 0 144 -180zM171.5 -166.5q-30.5 14.5 -47.5 39t-17 52.5q0 11 1 16q2 10 8.5 15.5t14.5 5.5q22 0 21 -15q-1 -4 -1 -13q1 -34 27 -54.5t66 -20.5q42 0 75.5 26t39.5 60
q1 10 9 15t17 5t14.5 -5.5t4.5 -14.5q-5 -32 -28.5 -61.5t-59 -47t-74.5 -17.5q-40 0 -70.5 14.5z" />
    <glyph glyph-name="hcircumflex" unicode="&#x125;" horiz-adv-x="566" 
d="M508 333q0 -49 -10 -119t-31 -193q-2 -9 -10 -15.5t-20 -6.5t-18.5 6.5t-4.5 18.5q21 123 30.5 192t9.5 117q0 65 -21 97.5t-72 32.5q-42 0 -82 -21.5t-70 -56t-45 -72.5q-12 -31 -22 -80t-25 -138l-13 -75q-1 -9 -10.5 -14.5t-21.5 -5.5t-18.5 6t-4.5 15q41 229 75 393
q17 89 77 344q6 27 31 27q23 0 23 -17q0 -5 -1 -8q-35 -146 -80 -347q32 42 79.5 71t110.5 29q144 0 144 -180zM346 863q-24 46 -46 76t-33 30q-16 0 -115 -94q-17 -17 -28 -17q-8 0 -13.5 6t-5.5 13q0 9 11 20l31 28q46 42 76.5 65.5t48.5 23.5q27 0 51.5 -32.5t60.5 -94.5
q4 -6 4 -11q0 -9 -7.5 -16t-16.5 -7q-13 0 -18 10z" />
    <glyph glyph-name="uni1E25" unicode="&#x1e25;" horiz-adv-x="566" 
d="M508 333q0 -49 -10 -119t-31 -193q-2 -9 -10 -15.5t-20 -6.5t-18.5 6.5t-4.5 18.5q21 123 30.5 192t9.5 117q0 65 -21 97.5t-72 32.5q-42 0 -82 -21.5t-70 -56t-45 -72.5q-12 -31 -22 -80t-25 -138l-13 -75q-1 -9 -10.5 -14.5t-21.5 -5.5t-18.5 6t-4.5 15q41 229 75 393
q17 89 77 344q6 27 31 27q23 0 23 -17q0 -5 -1 -8q-35 -146 -80 -347q32 42 79.5 71t110.5 29q144 0 144 -180zM202.5 -156.5q-10.5 10.5 -10.5 27.5q0 22 16 37.5t39 15.5q18 0 28.5 -10t10.5 -26q0 -23 -16 -39t-39 -16q-18 0 -28.5 10.5z" />
    <glyph glyph-name="i" unicode="i" horiz-adv-x="268" 
d="M169.5 593q-12.5 12 -12.5 31q0 25 19.5 44t46.5 19q20 0 32 -11.5t12 -31.5q0 -27 -20 -45t-45 -18q-20 0 -32.5 12zM66 12.5q-6 6.5 -4 17.5l88 444q2 14 10.5 21t21.5 7q14 0 19.5 -8t3.5 -20l-89 -443q-2 -12 -10.5 -18.5t-20.5 -6.5q-13 0 -19 6.5z" />
    <glyph glyph-name="dotlessi" unicode="&#x131;" horiz-adv-x="314" 
d="M93 13.5q-6 8.5 -4 21.5l88 440q2 15 11 22.5t21 7.5q11 0 17.5 -5.5t6.5 -16.5q0 -5 -1 -8l-91 -440q-6 -30 -30 -30q-12 0 -18 8.5z" />
    <glyph glyph-name="iacute" unicode="&#xed;" horiz-adv-x="314" 
d="M93 13.5q-6 8.5 -4 21.5l88 440q2 15 11 22.5t21 7.5q11 0 17.5 -5.5t6.5 -16.5q0 -5 -1 -8l-91 -440q-6 -30 -30 -30q-12 0 -18 8.5zM169.5 567q-5.5 5 -5.5 12q0 13 17 27l86 80q14 12 21.5 17t14.5 5q8 0 14 -5.5t6 -14.5t-5.5 -16t-16.5 -16l-94 -80q-10 -8 -15 -11
t-11 -3t-11.5 5z" />
    <glyph glyph-name="ibreve" unicode="&#x12d;" horiz-adv-x="314" 
d="M93 13.5q-6 8.5 -4 21.5l88 440q2 15 11 22.5t21 7.5q11 0 17.5 -5.5t6.5 -16.5q0 -5 -1 -8l-91 -440q-6 -30 -30 -30q-12 0 -18 8.5zM152.5 586.5q-30.5 14.5 -47.5 39t-17 52.5q0 11 1 16q2 10 8.5 15.5t14.5 5.5q22 0 21 -15q-1 -4 -1 -13q1 -34 27 -54.5t66 -20.5
q42 0 75.5 26t39.5 60q1 10 9 15t17 5t14.5 -5.5t4.5 -14.5q-5 -32 -28.5 -61.5t-59 -47t-74.5 -17.5q-40 0 -70.5 14.5z" />
    <glyph glyph-name="uni01D0" unicode="&#x1d0;" horiz-adv-x="314" 
d="M93 13.5q-6 8.5 -4 21.5l88 440q2 15 11 22.5t21 7.5q11 0 17.5 -5.5t6.5 -16.5q0 -5 -1 -8l-91 -440q-6 -30 -30 -30q-12 0 -18 8.5zM370 723q5 -5 5 -13q0 -6 -4 -10.5t-6 -6.5q-57 -62 -92.5 -94t-62.5 -32q-16 0 -36.5 21t-51.5 61q-16 23 -27 35q-5 6 -5 13
q0 9 8.5 17.5t17.5 8.5q10 0 22 -18q64 -94 81 -94q11 0 44 30t74 77q8 10 21 10q7 0 12 -5z" />
    <glyph glyph-name="icircumflex" unicode="&#xee;" horiz-adv-x="314" 
d="M93 13.5q-6 8.5 -4 21.5l88 440q2 15 11 22.5t21 7.5q11 0 17.5 -5.5t6.5 -16.5q0 -5 -1 -8l-91 -440q-6 -30 -30 -30q-12 0 -18 8.5zM318 578q-24 46 -46 76t-33 30q-16 0 -115 -94q-17 -17 -28 -17q-8 0 -13.5 6t-5.5 13q0 9 11 20l31 28q46 42 76.5 65.5t48.5 23.5
q27 0 51.5 -32.5t60.5 -94.5q4 -6 4 -11q0 -9 -7.5 -16t-16.5 -7q-13 0 -18 10z" />
    <glyph glyph-name="idieresis" unicode="&#xef;" horiz-adv-x="314" 
d="M93 13.5q-6 8.5 -4 21.5l88 440q2 15 11 22.5t21 7.5q11 0 17.5 -5.5t6.5 -16.5q0 -5 -1 -8l-91 -440q-6 -30 -30 -30q-12 0 -18 8.5zM77 592.5q-11 10.5 -11 27.5q0 23 16 38t39 15q18 0 29.5 -10t11.5 -26q0 -22 -17 -38.5t-39 -16.5q-18 0 -29 10.5zM305.5 592.5
q-10.5 10.5 -10.5 27.5q0 23 16 38t39 15q17 0 28 -10t11 -26q0 -22 -16 -38.5t-39 -16.5q-18 0 -28.5 10.5z" />
    <glyph glyph-name="uni1ECB" unicode="&#x1ecb;" horiz-adv-x="268" 
d="M169.5 593q-12.5 12 -12.5 31q0 25 19.5 44t46.5 19q20 0 32 -11.5t12 -31.5q0 -27 -20 -45t-45 -18q-20 0 -32.5 12zM66 12.5q-6 6.5 -4 17.5l88 444q2 14 10.5 21t21.5 7q14 0 19.5 -8t3.5 -20l-89 -443q-2 -12 -10.5 -18.5t-20.5 -6.5q-13 0 -19 6.5zM23.5 -156.5
q-10.5 10.5 -10.5 27.5q0 22 16 37.5t39 15.5q18 0 28.5 -10t10.5 -26q0 -23 -16 -39t-39 -16q-18 0 -28.5 10.5z" />
    <glyph glyph-name="igrave" unicode="&#xec;" horiz-adv-x="314" 
d="M93 13.5q-6 8.5 -4 21.5l88 440q2 15 11 22.5t21 7.5q11 0 17.5 -5.5t6.5 -16.5q0 -5 -1 -8l-91 -440q-6 -30 -30 -30q-12 0 -18 8.5zM256 562.5q-5 2.5 -11 10.5l-64 86q-10 13 -10 22q0 12 7.5 19.5t17.5 7.5q13 0 27 -21l58 -85q9 -10 9 -19t-7 -16t-16 -7
q-6 0 -11 2.5z" />
    <glyph glyph-name="uni1EC9" unicode="&#x1ec9;" horiz-adv-x="314" 
d="M93 13.5q-6 8.5 -4 21.5l88 440q2 15 11 22.5t21 7.5q11 0 17.5 -5.5t6.5 -16.5q0 -5 -1 -8l-91 -440q-6 -30 -30 -30q-12 0 -18 8.5zM206 569.5q-5 6.5 -4 16.5q1 7 7 38q2 12 13 22.5t31 24.5q21 16 32 27t12 23q3 41 -55 41q-24 0 -41 -12t-37 -34q-10 -11 -18 -11
t-14 5.5t-6 11.5t8 18q26 29 51 45t62 16q44 0 70.5 -19.5t26.5 -53.5q0 -26 -15.5 -43.5t-43.5 -35.5q-27 -16 -29 -27l-6 -33q-4 -26 -28 -26q-11 0 -16 6.5z" />
    <glyph glyph-name="ij" unicode="&#x133;" horiz-adv-x="591" 
d="M169.5 593q-12.5 12 -12.5 31q0 25 19.5 44t46.5 19q20 0 32 -11.5t12 -31.5q0 -27 -20 -45t-45 -18q-20 0 -32.5 12zM66 12.5q-6 6.5 -4 17.5l88 444q2 14 10.5 21t21.5 7q14 0 19.5 -8t3.5 -20l-89 -443q-2 -12 -10.5 -18.5t-20.5 -6.5q-13 0 -19 6.5zM495 593.5
q-13 12.5 -13 31.5q0 24 19 42.5t46 18.5q20 0 32.5 -12t12.5 -31q0 -27 -19.5 -44.5t-44.5 -17.5q-20 0 -33 12.5zM158 -206q-32 30 -32 84q0 29 7.5 42t26.5 13q14 0 17 -7t2.5 -21t-0.5 -21q0 -74 61 -74q56 0 94.5 57.5t58.5 156.5q28 137 72 369l15 78q5 27 31 27
q23 0 23 -20q0 -6 -1 -9q-21 -109 -23 -117q-43 -228 -64 -328q-26 -132 -80.5 -196t-125.5 -64q-50 0 -82 30z" />
    <glyph glyph-name="imacron" unicode="&#x12b;" horiz-adv-x="314" 
d="M93 13.5q-6 8.5 -4 21.5l88 440q2 15 11 22.5t21 7.5q11 0 17.5 -5.5t6.5 -16.5q0 -5 -1 -8l-91 -440q-6 -30 -30 -30q-12 0 -18 8.5zM44 597q0 11 6.5 19.5t17.5 9.5q63 14 176 14h139q22 0 22 -19q0 -26 -28 -26q-17 0 -30 1l-115 1q-60 0 -103 -6t-48 -7
q-15 -3 -21 -3q-16 0 -16 16z" />
    <glyph glyph-name="iogonek" unicode="&#x12f;" horiz-adv-x="314" 
d="M262.5 663q10.5 -10 10.5 -26q0 -23 -15.5 -39t-38.5 -16q-18 0 -29 10.5t-11 27.5q0 22 16 37.5t39 15.5q18 0 28.5 -10zM226.5 499.5q6.5 -5.5 6.5 -16.5q0 -5 -1 -8l-91 -440q-3 -15 -12 -24l-5 -4q-34 -25 -53 -46t-19 -46q0 -28 42 -28q8 0 18 3.5t14 3.5t7 -3.5
t3 -8.5q0 -32 -45 -32q-36 0 -60 17t-24 48q0 33 21 59.5t60 53.5l1 7l88 440q2 15 11 22.5t21 7.5q11 0 17.5 -5.5z" />
    <glyph glyph-name="itilde" unicode="&#x129;" horiz-adv-x="314" 
d="M93 13.5q-6 8.5 -4 21.5l88 440q2 15 11 22.5t21 7.5q11 0 17.5 -5.5t6.5 -16.5q0 -5 -1 -8l-91 -440q-6 -30 -30 -30q-12 0 -18 8.5zM72.5 576.5q-4.5 4.5 -4.5 12.5q0 10 9 19q27 28 46.5 39.5t44.5 11.5q42 0 81 -21q3 -2 15 -9t22 -10.5t18 -3.5q9 0 17.5 5t19.5 14
q13 13 22 13q7 0 12.5 -6t5.5 -14q0 -11 -8 -19q-23 -19 -41.5 -27.5t-37.5 -8.5q-13 0 -23.5 4t-25.5 12q-12 7 -23 11q-6 2 -25.5 11t-33.5 9q-10 0 -19.5 -6.5t-19 -15.5t-13.5 -12q-16 -13 -26 -13q-8 0 -12.5 4.5z" />
    <glyph glyph-name="j" unicode="j" horiz-adv-x="323" 
d="M227 593.5q-13 12.5 -13 31.5q0 24 19 42.5t46 18.5q20 0 32.5 -12t12.5 -31q0 -27 -19.5 -44.5t-44.5 -17.5q-20 0 -33 12.5zM-110 -206q-32 30 -32 84q0 29 7.5 42t26.5 13q14 0 17 -7t2.5 -21t-0.5 -21q0 -74 61 -74q56 0 94.5 57.5t58.5 156.5q28 137 72 369l15 78
q5 27 31 27q23 0 23 -20q0 -6 -1 -9q-21 -109 -23 -117q-43 -228 -64 -328q-26 -132 -80.5 -196t-125.5 -64q-50 0 -82 30z" />
    <glyph glyph-name="uni0237" unicode="&#x237;" horiz-adv-x="294" 
d="M-110 -206q-32 30 -32 84q0 29 7 42t26 13q14 0 17.5 -7.5t3 -22.5t-0.5 -22q0 -71 61 -71q56 0 94.5 57.5t58.5 156.5q28 137 72 369l15 78q5 27 31 27q23 0 23 -20q0 -6 -1 -9q-21 -109 -23 -117q-43 -228 -64 -328q-26 -132 -80.5 -196t-125.5 -64q-50 0 -82 30z" />
    <glyph glyph-name="jcircumflex" unicode="&#x135;" horiz-adv-x="294" 
d="M-110 -206q-32 30 -32 84q0 29 7 42t26 13q14 0 17.5 -7.5t3 -22.5t-0.5 -22q0 -71 61 -71q56 0 94.5 57.5t58.5 156.5q28 137 72 369l15 78q5 27 31 27q23 0 23 -20q0 -6 -1 -9q-21 -109 -23 -117q-43 -228 -64 -328q-26 -132 -80.5 -196t-125.5 -64q-50 0 -82 30z
M356 578q-24 46 -46 76t-33 30q-16 0 -115 -94q-17 -17 -28 -17q-8 0 -13.5 6t-5.5 13q0 9 11 20l31 28q46 42 76.5 65.5t48.5 23.5q27 0 51.5 -32.5t60.5 -94.5q4 -6 4 -11q0 -9 -7.5 -16t-16.5 -7q-13 0 -18 10z" />
    <glyph glyph-name="k" unicode="k" horiz-adv-x="513" 
d="M48.5 1.5q-6.5 5.5 -5.5 14.5l129 730q2 13 10.5 19.5t21.5 6.5q27 0 23 -26l-72 -394l96 51q126 67 235 127q11 6 16 6q11 0 17 -12.5t3 -22.5q-3 -8 -18 -17l-359 -195l286 -238q6 -6 6 -13q0 -12 -10.5 -22.5t-21.5 -10.5t-24 11l-49 41q-175 146 -199 166l-37 -206
q-1 -10 -9.5 -15.5t-20.5 -5.5q-11 0 -17.5 5.5z" />
    <glyph glyph-name="uni0137" unicode="&#x137;" horiz-adv-x="513" 
d="M48.5 1.5q-6.5 5.5 -5.5 14.5l129 730q2 13 10.5 19.5t21.5 6.5q27 0 23 -26l-72 -394l96 51q126 67 235 127q11 6 16 6q11 0 17 -12.5t3 -22.5q-3 -8 -18 -17l-359 -195l286 -238q6 -6 6 -13q0 -12 -10.5 -22.5t-21.5 -10.5t-24 11l-49 41q-175 146 -199 166l-37 -206
q-1 -10 -9.5 -15.5t-20.5 -5.5q-11 0 -17.5 5.5zM244.5 -87.5q12.5 -11.5 12.5 -31.5q0 -63 -107 -142q-6 -6 -13 -6q-6 0 -11.5 5t-5.5 12q0 4 5 11l16 15q36 29 52 52h-2q-15 0 -26 11t-11 28q0 24 18.5 40.5t40.5 16.5q19 0 31.5 -11.5z" />
    <glyph glyph-name="kgreenlandic" unicode="&#x138;" horiz-adv-x="514" 
d="M48.5 1.5q-6.5 5.5 -5.5 14.5l86 486q2 13 10.5 19.5t21.5 6.5q27 0 23 -26l-29 -150l108 57q169 89 223 121q11 6 17 6q9 0 15.5 -9.5t4.5 -20.5q-1 -7 -5 -12t-14 -10l-358 -195l286 -237q6 -4 6 -14q0 -12 -11.5 -22.5t-22.5 -10.5q-10 0 -23 11q-37 32 -154 130
q-15 12 -37 30t-56 47l-38 -206q-1 -10 -9.5 -15.5t-19.5 -5.5q-12 0 -18.5 5.5z" />
    <glyph glyph-name="l" unicode="l" horiz-adv-x="234" 
d="M57.5 15.5q-6.5 6.5 -3.5 20.5l122 729q2 13 11.5 20t22.5 7q25 0 21 -23l-124 -733q-4 -27 -31 -27q-12 0 -18.5 6.5z" />
    <glyph glyph-name="lacute" unicode="&#x13a;" horiz-adv-x="234" 
d="M57.5 15.5q-6.5 6.5 -3.5 20.5l122 729q2 13 11.5 20t22.5 7q25 0 21 -23l-124 -733q-4 -27 -31 -27q-12 0 -18.5 6.5zM174.5 859q-5.5 5 -5.5 12q0 13 17 27l86 80q14 12 21.5 17t14.5 5q8 0 14 -5.5t6 -14.5t-5.5 -16t-16.5 -16l-94 -80q-10 -8 -15 -11t-11 -3t-11.5 5
z" />
    <glyph glyph-name="lcaron" unicode="&#x13e;" horiz-adv-x="349" 
d="M57.5 15.5q-6.5 6.5 -3.5 20.5l122 729q2 13 11.5 20t22.5 7q25 0 21 -23l-124 -733q-4 -27 -31 -27q-12 0 -18.5 6.5zM388 779.5q12 -12.5 12 -31.5q0 -30 -34 -70.5t-73 -70.5q-8 -5 -12 -5q-7 0 -12 5t-5 13q0 4 2.5 6.5l3.5 3.5q52 40 68 66h-4q-15 0 -25.5 11.5
t-10.5 27.5q0 23 18.5 40t40.5 17q19 0 31 -12.5z" />
    </font>
</defs>
</svg>
