<?xml version="1.0" standalone="no"?>
<!DOCTYPE svg PUBLIC "-//W3C//DTD SVG 1.1//EN" "http://www.w3.org/Graphics/SVG/1.1/DTD/svg11.dtd" >
<svg xmlns="http://www.w3.org/2000/svg" xmlns:xlink="http://www.w3.org/1999/xlink" version="1.1">
<metadata>
Created by FontForge 20170910 at Fri Sep  7 15:55:03 2018
 By Jimmy Wärting
Copyright 2018 The Mali Project Authors (https://github.com/cadsondemak/Mali)
</metadata>
<defs>
<font id="Mali-ExtraLight" horiz-adv-x="0" >
  <font-face 
    font-family="Mali ExtraLight"
    font-weight="275"
    font-stretch="normal"
    units-per-em="1000"
    panose-1="0 0 3 0 0 0 0 0 0 0"
    ascent="800"
    descent="-200"
    x-height="503"
    cap-height="708"
    bbox="-692 -491.148 1507 1335"
    underline-thickness="50"
    underline-position="-100"
    unicode-range="U+000D-FB02"
  />
<missing-glyph horiz-adv-x="522" 
d="M301 12l-81 -1l-143 -1q-9 0 -11.5 1.5t-2.5 7.5v340q0 113 5 348q0 15 20 15l89 -1q24 -1 83 -1q83 0 127 1t50 1q5 0 6.5 -2t1.5 -8l-5 -348v-126v-218q0 -11 -12 -11q-87 3 -127 3zM422 364l3 337h-169l-162 1q-9 0 -9 -14q0 -4 -1.5 -117t-1.5 -248v-293q23 -1 101 1
h41l199 -3z" />
    <glyph glyph-name="fi" unicode="fi" horiz-adv-x="615" 
d="M352.5 701.5q33.5 -38.5 33.5 -112.5q0 -18 -15 -18q-10 0 -13 4.5t-3 12.5q0 121 -89 121q-64 0 -86 -49.5t-22 -154.5l2 -118q60 2 95 2q11 0 15.5 -3.5t4.5 -11.5q0 -15 -16 -15l-98 -1l1 -50q4 -188 4 -291q0 -17 -15 -17q-16 0 -16 17l-6 339l-82 -3q-17 0 -17 15
q0 16 18 16q22 0 80 2l-1 119q0 118 30.5 176.5t105.5 58.5q56 0 89.5 -38.5zM469 607.5q-13 12.5 -13 30.5q0 19 13 32.5t33 13.5q19 0 31 -12.5t12 -32.5t-13.5 -32t-31.5 -12t-31 12.5zM468 21l10 463q0 20 16 20q8 0 12 -4.5t4 -15.5l-11 -462q0 -16 -15 -16
q-16 0 -16 15z" />
    <glyph glyph-name="fl" unicode="fl" horiz-adv-x="603" 
d="M352.5 701.5q33.5 -38.5 33.5 -112.5q0 -18 -15 -18q-10 0 -13 4.5t-3 12.5q0 121 -89 121q-64 0 -86 -49.5t-22 -154.5l2 -118q60 2 95 2q11 0 15.5 -3.5t4.5 -11.5q0 -15 -16 -15l-98 -1l1 -50q4 -188 4 -291q0 -17 -15 -17q-16 0 -16 17l-6 339l-82 -3q-17 0 -17 15
q0 16 18 16q22 0 80 2l-1 119q0 118 30.5 176.5t105.5 58.5q56 0 89.5 -38.5zM482 27l-6 746q0 19 17 19q15 0 15 -19l5 -746q0 -18 -15 -18q-16 0 -16 18z" />
    <glyph glyph-name="uni0E240E45" unicode="&#xe24;&#xe45;" horiz-adv-x="979" 
d="M793.5 575.5q36.5 -19.5 56 -67.5t19.5 -133q0 -39 -1 -69l-1 -218q0 -72 -2 -196q-2 -116 -2 -171q0 -11 -14 -11q-18 0 -18 11q0 53 2 169q3 93 3 199q0 93 2 191l1 95q0 105 -34.5 148t-106.5 43q-71 0 -110.5 -44.5t-39.5 -125.5q0 -153 1 -204v-100l-1 -367
q0 -15 -16 -15q-15 0 -15 13l1 369v100q-1 51 -1 205q0 82 -57.5 125.5t-156.5 43.5q-78 0 -130 -25t-76 -56t-24 -48l118 -40q8 -4 12 -12.5t4 -18.5q0 -1 -4 -55q-10 -114 -11 -154q11 10 29 17.5t36 7.5q41 0 69.5 -25t28.5 -71q0 -47 -28 -71.5t-75 -24.5
q-43 0 -69.5 26t-26.5 66q0 20 13 174l8 104q0 9 -14 15.5t-42 14.5q-38 10 -57.5 20t-19.5 27q0 22 28.5 60t87 68t144.5 30q91 0 152.5 -36t74.5 -95q9 58 51 94.5t118 36.5q57 0 93.5 -19.5zM204 133q-20 -21 -20 -51q0 -31 19.5 -48t48.5 -17q32 0 54 17.5t22 51.5
q0 32 -19.5 50t-51.5 18q-33 0 -53 -21z" />
    <glyph glyph-name="uni0E260E45" unicode="&#xe26;&#xe45;" horiz-adv-x="978" 
d="M829 541.5q39 -59.5 39 -189.5q0 -102 -1 -157l-1 -184l-1 -288q0 -13 -15 -13q-6 0 -10.5 3t-4.5 9l2 287q2 238 2 344q0 78 -12.5 125t-44 70.5t-88.5 23.5q-72 0 -109 -47.5t-37 -117.5v-396v-288q0 -13 -14 -13q-6 0 -10.5 3.5t-4.5 9.5v289v393q0 45 -19.5 83
t-59.5 61t-98 23q-71 0 -125 -26.5t-83.5 -59.5t-29.5 -46l115 -31q16 -5 21.5 -45t5.5 -117q0 -31 -4.5 -87.5t-9.5 -84.5q-8 -45 -36.5 -65t-65.5 -20q-46 0 -71.5 26.5t-25.5 67.5q0 45 29 71t69 26q23 0 45.5 -11.5t33.5 -30.5q6 55 6 108q0 133 -15 137l-42 10
q-49 12 -68.5 19.5t-19.5 20.5q0 23 35 63.5t98.5 72t146.5 31.5q66 0 114.5 -33t65.5 -81q13 47 58.5 80.5t104.5 33.5q96 0 135 -59.5zM180 35.5q19 18.5 19 49.5q0 29 -21.5 49t-46.5 20q-28 0 -49 -19t-21 -51q0 -28 18 -47.5t50 -19.5t51 18.5z" />
    <glyph glyph-name=".notdef" horiz-adv-x="522" 
d="M301 12l-81 -1l-143 -1q-9 0 -11.5 1.5t-2.5 7.5v340q0 113 5 348q0 15 20 15l89 -1q24 -1 83 -1q83 0 127 1t50 1q5 0 6.5 -2t1.5 -8l-5 -348v-126v-218q0 -11 -12 -11q-87 3 -127 3zM422 364l3 337h-169l-162 1q-9 0 -9 -14q0 -4 -1.5 -117t-1.5 -248v-293q23 -1 101 1
h41l199 -3z" />
    <glyph glyph-name="NULL" 
 />
    <glyph glyph-name="NULL" 
 />
    <glyph glyph-name="nonmarkingreturn" unicode="&#xd;" horiz-adv-x="280" 
 />
    <glyph glyph-name="space" unicode=" " horiz-adv-x="280" 
 />
    <glyph glyph-name="A" unicode="A" horiz-adv-x="631" 
d="M571 3q0 -6 -6 -9.5t-12 -3.5q-8 0 -12 9l-58 190l-332 2l-62 -187q-2 -6 -5 -8.5t-9 -2.5q-7 0 -11 3.5t-4 8.5l1 6q100 298 135 405l62 185q20 59 34.5 84t32.5 25q32 0 61 -99q18 -62 37.5 -125.5t39.5 -129.5l43 -139h31q6 0 9.5 -4t3.5 -10t-3.5 -10t-10.5 -4h-21
l54 -178q2 -4 2 -8zM474 218q-78 259 -115 389q-9 33 -19.5 54t-16.5 21q-9 0 -35 -78l-127 -383z" />
    <glyph glyph-name="Aacute" unicode="&#xc1;" horiz-adv-x="631" 
d="M571 3q0 -6 -6 -9.5t-12 -3.5q-8 0 -12 9l-58 190l-332 2l-62 -187q-2 -6 -5 -8.5t-9 -2.5q-7 0 -11 3.5t-4 8.5l1 6q100 298 135 405l62 185q20 59 34.5 84t32.5 25q32 0 61 -99q18 -62 37.5 -125.5t39.5 -129.5l43 -139h31q6 0 9.5 -4t3.5 -10t-3.5 -10t-10.5 -4h-21
l54 -178q2 -4 2 -8zM474 218q-78 259 -115 389q-9 33 -19.5 54t-16.5 21q-9 0 -35 -78l-127 -383zM288.5 765.5q-3.5 3.5 -3.5 8.5q0 6 10 17l73 85q15 18 25 18q6 0 10 -4t4 -11q0 -5 -3.5 -9.5t-6.5 -7.5l-4 -4l-79 -86q-10 -10 -18 -10q-4 0 -7.5 3.5z" />
    <glyph glyph-name="Abreve" unicode="&#x102;" horiz-adv-x="631" 
d="M571 3q0 -6 -6 -9.5t-12 -3.5q-8 0 -12 9l-58 190l-332 2l-62 -187q-2 -6 -5 -8.5t-9 -2.5q-7 0 -11 3.5t-4 8.5l1 6q100 298 135 405l62 185q20 59 34.5 84t32.5 25q32 0 61 -99q18 -62 37.5 -125.5t39.5 -129.5l43 -139h31q6 0 9.5 -4t3.5 -10t-3.5 -10t-10.5 -4h-21
l54 -178q2 -4 2 -8zM474 218q-78 259 -115 389q-9 33 -19.5 54t-16.5 21q-9 0 -35 -78l-127 -383zM250.5 793.5q-32.5 16.5 -50 43t-17.5 55.5q0 5 3 8.5t8 3.5q17 0 17 -10q0 -39 34 -64.5t80 -25.5q27 0 51.5 13t39.5 33.5t15 40.5q0 8 6 12t12 4q5 0 9 -3t4 -9
q0 -29 -19 -56.5t-50.5 -44.5t-67.5 -17q-42 0 -74.5 16.5z" />
    <glyph glyph-name="uni1EAE" unicode="&#x1eae;" horiz-adv-x="631" 
d="M571 3q0 -6 -6 -9.5t-12 -3.5q-8 0 -12 9l-58 190l-332 2l-62 -187q-2 -6 -5 -8.5t-9 -2.5q-7 0 -11 3.5t-4 8.5l1 6q100 298 135 405l62 185q20 59 34.5 84t32.5 25q32 0 61 -99q18 -62 37.5 -125.5t39.5 -129.5l43 -139h31q6 0 9.5 -4t3.5 -10t-3.5 -10t-10.5 -4h-21
l54 -178q2 -4 2 -8zM474 218q-78 259 -115 389q-9 33 -19.5 54t-16.5 21q-9 0 -35 -78l-127 -383zM305 915.5q-4 3.5 -4 9.5q0 5 10 16l57 58q17 17 24 17q5 0 9.5 -4t4.5 -10q0 -5 -3 -9t-6 -7l-4 -4l-63 -60q-5 -6 -9 -8t-8 -2t-8 3.5zM250.5 793.5q-32.5 16.5 -50 43
t-17.5 55.5q0 5 3 8.5t8 3.5q17 0 17 -10q0 -39 34 -64.5t80 -25.5q27 0 51.5 13t39.5 33.5t15 40.5q0 8 6 12t12 4q5 0 9 -3t4 -9q0 -29 -19 -56.5t-50.5 -44.5t-67.5 -17q-42 0 -74.5 16.5z" />
    <glyph glyph-name="uni1EB6" unicode="&#x1eb6;" horiz-adv-x="631" 
d="M571 3q0 -6 -6 -9.5t-12 -3.5q-8 0 -12 9l-58 190l-332 2l-62 -187q-2 -6 -5 -8.5t-9 -2.5q-7 0 -11 3.5t-4 8.5l1 6q100 298 135 405l62 185q20 59 34.5 84t32.5 25q32 0 61 -99q18 -62 37.5 -125.5t39.5 -129.5l43 -139h31q6 0 9.5 -4t3.5 -10t-3.5 -10t-10.5 -4h-21
l54 -178q2 -4 2 -8zM474 218q-78 259 -115 389q-9 33 -19.5 54t-16.5 21q-9 0 -35 -78l-127 -383zM287.5 -144q-10.5 11 -10.5 28q0 16 10.5 26t27.5 10t27.5 -10t10.5 -26q0 -17 -10.5 -28t-27.5 -11t-27.5 11zM250.5 793.5q-32.5 16.5 -50 43t-17.5 55.5q0 5 3 8.5t8 3.5
q17 0 17 -10q0 -39 34 -64.5t80 -25.5q27 0 51.5 13t39.5 33.5t15 40.5q0 8 6 12t12 4q5 0 9 -3t4 -9q0 -29 -19 -56.5t-50.5 -44.5t-67.5 -17q-42 0 -74.5 16.5z" />
    <glyph glyph-name="uni1EB0" unicode="&#x1eb0;" horiz-adv-x="631" 
d="M571 3q0 -6 -6 -9.5t-12 -3.5q-8 0 -12 9l-58 190l-332 2l-62 -187q-2 -6 -5 -8.5t-9 -2.5q-7 0 -11 3.5t-4 8.5l1 6q100 298 135 405l62 185q20 59 34.5 84t32.5 25q32 0 61 -99q18 -62 37.5 -125.5t39.5 -129.5l43 -139h31q6 0 9.5 -4t3.5 -10t-3.5 -10t-10.5 -4h-21
l54 -178q2 -4 2 -8zM474 218q-78 259 -115 389q-9 33 -19.5 54t-16.5 21q-9 0 -35 -78l-127 -383zM326 924q-4 2 -9 8l-63 60l-5.5 5.5t-6 7.5t-1.5 7q0 6 4.5 10t9.5 4q7 0 24 -17l57 -58q10 -11 10 -16q0 -6 -4 -9.5t-8 -3.5t-8 2zM250.5 793.5q-32.5 16.5 -50 43
t-17.5 55.5q0 5 3 8.5t8 3.5q17 0 17 -10q0 -39 34 -64.5t80 -25.5q27 0 51.5 13t39.5 33.5t15 40.5q0 8 6 12t12 4q5 0 9 -3t4 -9q0 -29 -19 -56.5t-50.5 -44.5t-67.5 -17q-42 0 -74.5 16.5z" />
    <glyph glyph-name="uni1EB2" unicode="&#x1eb2;" horiz-adv-x="631" 
d="M571 3q0 -6 -6 -9.5t-12 -3.5q-8 0 -12 9l-58 190l-332 2l-62 -187q-2 -6 -5 -8.5t-9 -2.5q-7 0 -11 3.5t-4 8.5l1 6q100 298 135 405l62 185q20 59 34.5 84t32.5 25q32 0 61 -99q18 -62 37.5 -125.5t39.5 -129.5l43 -139h31q6 0 9.5 -4t3.5 -10t-3.5 -10t-10.5 -4h-21
l54 -178q2 -4 2 -8zM474 218q-78 259 -115 389q-9 33 -19.5 54t-16.5 21q-9 0 -35 -78l-127 -383zM318.5 907q-3.5 3 -3.5 8v28q0 9 5.5 15.5t17.5 16.5q11 9 16.5 15.5t5.5 14.5q0 15 -9.5 21t-31.5 6q-18 0 -29.5 -8.5t-15.5 -20.5q-2 -5 -9 -5q-12 0 -12 9q0 16 18.5 31
t49.5 15q30 0 46 -12.5t16 -36.5q0 -13 -8 -22.5t-21 -19.5q-16 -12 -16 -19v-27q0 -12 -13 -12q-3 0 -6.5 3zM250.5 793.5q-32.5 16.5 -50 43t-17.5 55.5q0 5 3 8.5t8 3.5q17 0 17 -10q0 -39 34 -64.5t80 -25.5q27 0 51.5 13t39.5 33.5t15 40.5q0 8 6 12t12 4q5 0 9 -3
t4 -9q0 -29 -19 -56.5t-50.5 -44.5t-67.5 -17q-42 0 -74.5 16.5z" />
    <glyph glyph-name="uni1EB4" unicode="&#x1eb4;" horiz-adv-x="631" 
d="M571 3q0 -6 -6 -9.5t-12 -3.5q-8 0 -12 9l-58 190l-332 2l-62 -187q-2 -6 -5 -8.5t-9 -2.5q-7 0 -11 3.5t-4 8.5l1 6q100 298 135 405l62 185q20 59 34.5 84t32.5 25q32 0 61 -99q18 -62 37.5 -125.5t39.5 -129.5l43 -139h31q6 0 9.5 -4t3.5 -10t-3.5 -10t-10.5 -4h-21
l54 -178q2 -4 2 -8zM474 218q-78 259 -115 389q-9 33 -19.5 54t-16.5 21q-9 0 -35 -78l-127 -383zM187 942q-3 3 -4 7.5t1 7.5q22 33 80 33q19 0 32 -3.5t33 -10.5q18 -7 32.5 -10.5t34.5 -3.5q13 0 24.5 4.5t19.5 12.5t13 8t9 -4t4 -9q0 -2 -4 -8q-19 -27 -68 -27
q-17 0 -32.5 3.5t-37.5 10.5q-16 5 -33 9.5t-32 4.5q-30 0 -50 -20l-5 -5t-7 -4q-6 0 -10 4zM250.5 793.5q-32.5 16.5 -50 43t-17.5 55.5q0 5 3 8.5t8 3.5q17 0 17 -10q0 -39 34 -64.5t80 -25.5q27 0 51.5 13t39.5 33.5t15 40.5q0 8 6 12t12 4q5 0 9 -3t4 -9
q0 -29 -19 -56.5t-50.5 -44.5t-67.5 -17q-42 0 -74.5 16.5z" />
    <glyph glyph-name="uni01CD" unicode="&#x1cd;" horiz-adv-x="631" 
d="M571 3q0 -6 -6 -9.5t-12 -3.5q-8 0 -12 9l-58 190l-332 2l-62 -187q-2 -6 -5 -8.5t-9 -2.5q-7 0 -11 3.5t-4 8.5l1 6q100 298 135 405l62 185q20 59 34.5 84t32.5 25q32 0 61 -99q18 -62 37.5 -125.5t39.5 -129.5l43 -139h31q6 0 9.5 -4t3.5 -10t-3.5 -10t-10.5 -4h-21
l54 -178q2 -4 2 -8zM474 218q-78 259 -115 389q-9 33 -19.5 54t-16.5 21q-9 0 -35 -78l-127 -383zM452 908q4 -4 4 -8q0 -3 -4 -9q-31 -47 -67 -85.5t-60 -38.5q-17 0 -44 25t-62 64l-24 25q-6 6 -6 12q0 5 4.5 9.5t9.5 4.5q8 0 20 -15q35 -42 64 -70t39 -28q12 0 42 31.5
t62 79.5q5 7 13 7q5 0 9 -4z" />
    <glyph glyph-name="Acircumflex" unicode="&#xc2;" horiz-adv-x="631" 
d="M571 3q0 -6 -6 -9.5t-12 -3.5q-8 0 -12 9l-58 190l-332 2l-62 -187q-2 -6 -5 -8.5t-9 -2.5q-7 0 -11 3.5t-4 8.5l1 6q100 298 135 405l62 185q20 59 34.5 84t32.5 25q32 0 61 -99q18 -62 37.5 -125.5t39.5 -129.5l43 -139h31q6 0 9.5 -4t3.5 -10t-3.5 -10t-10.5 -4h-21
l54 -178q2 -4 2 -8zM474 218q-78 259 -115 389q-9 33 -19.5 54t-16.5 21q-9 0 -35 -78l-127 -383zM430 779q-32 48 -62 79.5t-42 31.5q-10 0 -39 -28t-64 -70q-12 -15 -20 -15q-5 0 -9.5 4.5t-4.5 9.5q0 6 6 12l24 25q35 39 62 64t44 25q24 0 60 -38.5t67 -85.5q4 -6 4 -9
q0 -4 -4 -8t-9 -4q-8 0 -13 7z" />
    <glyph glyph-name="uni1EA4" unicode="&#x1ea4;" horiz-adv-x="631" 
d="M571 3q0 -6 -6 -9.5t-12 -3.5q-8 0 -12 9l-58 190l-332 2l-62 -187q-2 -6 -5 -8.5t-9 -2.5q-7 0 -11 3.5t-4 8.5l1 6q100 298 135 405l62 185q20 59 34.5 84t32.5 25q32 0 61 -99q18 -62 37.5 -125.5t39.5 -129.5l43 -139h31q6 0 9.5 -4t3.5 -10t-3.5 -10t-10.5 -4h-21
l54 -178q2 -4 2 -8zM474 218q-78 259 -115 389q-9 33 -19.5 54t-16.5 21q-9 0 -35 -78l-127 -383zM423.5 883.5q-3.5 3.5 -3.5 8.5q0 7 9 17l57 59q8 8 13.5 12.5t10.5 4.5t9.5 -4t4.5 -11q0 -5 -3 -9t-6 -7l-4 -4l-63 -60q-5 -6 -9 -8t-8 -2t-7.5 3.5zM430 780
q-32 48 -62 79.5t-42 31.5q-10 0 -39 -28t-64 -70q-13 -15 -20 -15q-5 0 -9.5 4.5t-4.5 9.5q0 6 6 12l24 25q35 39 62 64t44 25q24 0 60 -38.5t67 -85.5q4 -6 4 -9q0 -4 -4 -8t-9 -4q-8 0 -13 7z" />
    <glyph glyph-name="uni1EAC" unicode="&#x1eac;" horiz-adv-x="631" 
d="M571 3q0 -6 -6 -9.5t-12 -3.5q-8 0 -12 9l-58 190l-332 2l-62 -187q-2 -6 -5 -8.5t-9 -2.5q-7 0 -11 3.5t-4 8.5l1 6q100 298 135 405l62 185q20 59 34.5 84t32.5 25q32 0 61 -99q18 -62 37.5 -125.5t39.5 -129.5l43 -139h31q6 0 9.5 -4t3.5 -10t-3.5 -10t-10.5 -4h-21
l54 -178q2 -4 2 -8zM474 218q-78 259 -115 389q-9 33 -19.5 54t-16.5 21q-9 0 -35 -78l-127 -383zM287.5 -144q-10.5 11 -10.5 28q0 16 10.5 26t27.5 10t27.5 -10t10.5 -26q0 -17 -10.5 -28t-27.5 -11t-27.5 11zM430 779q-32 48 -62 79.5t-42 31.5q-10 0 -39 -28t-64 -70
q-12 -15 -20 -15q-5 0 -9.5 4.5t-4.5 9.5q0 6 6 12l24 25q35 39 62 64t44 25q24 0 60 -38.5t67 -85.5q4 -6 4 -9q0 -4 -4 -8t-9 -4q-8 0 -13 7z" />
    <glyph glyph-name="uni1EA6" unicode="&#x1ea6;" horiz-adv-x="631" 
d="M571 3q0 -6 -6 -9.5t-12 -3.5q-8 0 -12 9l-58 190l-332 2l-62 -187q-2 -6 -5 -8.5t-9 -2.5q-7 0 -11 3.5t-4 8.5l1 6q100 298 135 405l62 185q20 59 34.5 84t32.5 25q32 0 61 -99q18 -62 37.5 -125.5t39.5 -129.5l43 -139h31q6 0 9.5 -4t3.5 -10t-3.5 -10t-10.5 -4h-21
l54 -178q2 -4 2 -8zM474 218q-78 259 -115 389q-9 33 -19.5 54t-16.5 21q-9 0 -35 -78l-127 -383zM475 882q-4 2 -9 8l-63 60l-5.5 5.5t-6 7.5t-1.5 7q0 7 4 11t10 4q5 0 10.5 -4.5t13.5 -12.5l57 -59q9 -10 9 -17q0 -5 -3.5 -8.5t-7.5 -3.5t-8 2zM430 780q-32 48 -62 79.5
t-42 31.5q-10 0 -39 -28t-64 -70q-13 -15 -20 -15q-5 0 -9.5 4.5t-4.5 9.5q0 6 6 12l24 25q35 39 62 64t44 25q24 0 60 -38.5t67 -85.5q4 -6 4 -9q0 -4 -4 -8t-9 -4q-8 0 -13 7z" />
    <glyph glyph-name="uni1EA8" unicode="&#x1ea8;" horiz-adv-x="631" 
d="M571 3q0 -6 -6 -9.5t-12 -3.5q-8 0 -12 9l-58 190l-332 2l-62 -187q-2 -6 -5 -8.5t-9 -2.5q-7 0 -11 3.5t-4 8.5l1 6q100 298 135 405l62 185q20 59 34.5 84t32.5 25q32 0 61 -99q18 -62 37.5 -125.5t39.5 -129.5l43 -139h31q6 0 9.5 -4t3.5 -10t-3.5 -10t-10.5 -4h-21
l54 -178q2 -4 2 -8zM474 218q-78 259 -115 389q-9 33 -19.5 54t-16.5 21q-9 0 -35 -78l-127 -383zM458.5 877q-3.5 3 -3.5 8v28q0 9 5.5 15.5t17.5 16.5q11 9 16.5 15.5t5.5 14.5q0 15 -9.5 21t-31.5 6q-18 0 -29.5 -8.5t-15.5 -20.5q-2 -5 -9 -5q-12 0 -12 9q0 16 18.5 31
t49.5 15q30 0 46 -12.5t16 -36.5q0 -13 -8 -22.5t-21 -19.5q-16 -12 -16 -19v-27q0 -12 -13 -12q-3 0 -6.5 3zM430 780q-32 48 -62 79.5t-42 31.5q-10 0 -39 -28t-64 -70q-13 -15 -20 -15q-5 0 -9.5 4.5t-4.5 9.5q0 6 6 12l24 25q35 39 62 64t44 25q24 0 60 -38.5t67 -85.5
q4 -6 4 -9q0 -4 -4 -8t-9 -4q-8 0 -13 7z" />
    <glyph glyph-name="uni1EAA" unicode="&#x1eaa;" horiz-adv-x="631" 
d="M571 3q0 -6 -6 -9.5t-12 -3.5q-8 0 -12 9l-58 190l-332 2l-62 -187q-2 -6 -5 -8.5t-9 -2.5q-7 0 -11 3.5t-4 8.5l1 6q100 298 135 405l62 185q20 59 34.5 84t32.5 25q32 0 61 -99q18 -62 37.5 -125.5t39.5 -129.5l43 -139h31q6 0 9.5 -4t3.5 -10t-3.5 -10t-10.5 -4h-21
l54 -178q2 -4 2 -8zM474 218q-78 259 -115 389q-9 33 -19.5 54t-16.5 21q-9 0 -35 -78l-127 -383zM187 946q-5 5 -5 10t5 10q21 26 37 37t39 11q28 0 80 -22q8 -3 28 -13t35 -10q9 0 16.5 4.5t13.5 10t9 7.5q2 2 6.5 6t8.5 4q6 0 10 -4.5t4 -9.5q0 -6 -5 -11
q-18 -18 -32.5 -25.5t-32.5 -7.5q-14 0 -26 4.5t-26 11.5t-23 11q-13 6 -33.5 12t-32.5 6t-22.5 -7.5t-18 -15.5t-10.5 -11q-11 -11 -17 -11q-5 0 -8 3zM430 780q-32 48 -62 79.5t-42 31.5q-10 0 -39 -28t-64 -70q-13 -15 -20 -15q-5 0 -9.5 4.5t-4.5 9.5q0 6 6 12l24 25
q35 39 62 64t44 25q24 0 60 -38.5t67 -85.5q4 -6 4 -9q0 -4 -4 -8t-9 -4q-8 0 -13 7z" />
    <glyph glyph-name="Adieresis" unicode="&#xc4;" horiz-adv-x="631" 
d="M571 3q0 -6 -6 -9.5t-12 -3.5q-8 0 -12 9l-58 190l-332 2l-62 -187q-2 -6 -5 -8.5t-9 -2.5q-7 0 -11 3.5t-4 8.5l1 6q100 298 135 405l62 185q20 59 34.5 84t32.5 25q32 0 61 -99q18 -62 37.5 -125.5t39.5 -129.5l43 -139h31q6 0 9.5 -4t3.5 -10t-3.5 -10t-10.5 -4h-21
l54 -178q2 -4 2 -8zM474 218q-78 259 -115 389q-9 33 -19.5 54t-16.5 21q-9 0 -35 -78l-127 -383zM189.5 798q-10.5 11 -10.5 28q0 16 10.5 26t27.5 10t28 -10t11 -26q0 -17 -11 -28t-28 -11t-27.5 11zM405.5 798q-10.5 11 -10.5 28q0 16 10.5 26t27.5 10t27.5 -10t10.5 -26
q0 -17 -10.5 -28t-27.5 -11t-27.5 11z" />
    <glyph glyph-name="uni1EA0" unicode="&#x1ea0;" horiz-adv-x="631" 
d="M571 3q0 -6 -6 -9.5t-12 -3.5q-8 0 -12 9l-58 190l-332 2l-62 -187q-2 -6 -5 -8.5t-9 -2.5q-7 0 -11 3.5t-4 8.5l1 6q100 298 135 405l62 185q20 59 34.5 84t32.5 25q32 0 61 -99q18 -62 37.5 -125.5t39.5 -129.5l43 -139h31q6 0 9.5 -4t3.5 -10t-3.5 -10t-10.5 -4h-21
l54 -178q2 -4 2 -8zM474 218q-78 259 -115 389q-9 33 -19.5 54t-16.5 21q-9 0 -35 -78l-127 -383zM287.5 -144q-10.5 11 -10.5 28q0 16 10.5 26t27.5 10t27.5 -10t10.5 -26q0 -17 -10.5 -28t-27.5 -11t-27.5 11z" />
    <glyph glyph-name="Agrave" unicode="&#xc0;" horiz-adv-x="631" 
d="M571 3q0 -6 -6 -9.5t-12 -3.5q-8 0 -12 9l-58 190l-332 2l-62 -187q-2 -6 -5 -8.5t-9 -2.5q-7 0 -11 3.5t-4 8.5l1 6q100 298 135 405l62 185q20 59 34.5 84t32.5 25q32 0 61 -99q18 -62 37.5 -125.5t39.5 -129.5l43 -139h31q6 0 9.5 -4t3.5 -10t-3.5 -10t-10.5 -4h-21
l54 -178q2 -4 2 -8zM474 218q-78 259 -115 389q-9 33 -19.5 54t-16.5 21q-9 0 -35 -78l-127 -383zM358 772l-79 86l-5.5 5.5t-6.5 8t-2 7.5q0 7 4 11t10 4q10 0 25 -18l73 -85q10 -11 10 -17q0 -5 -3.5 -8.5t-7.5 -3.5q-8 0 -18 10z" />
    <glyph glyph-name="uni1EA2" unicode="&#x1ea2;" horiz-adv-x="631" 
d="M571 3q0 -6 -6 -9.5t-12 -3.5q-8 0 -12 9l-58 190l-332 2l-62 -187q-2 -6 -5 -8.5t-9 -2.5q-7 0 -11 3.5t-4 8.5l1 6q100 298 135 405l62 185q20 59 34.5 84t32.5 25q32 0 61 -99q18 -62 37.5 -125.5t39.5 -129.5l43 -139h31q6 0 9.5 -4t3.5 -10t-3.5 -10t-10.5 -4h-21
l54 -178q2 -4 2 -8zM474 218q-78 259 -115 389q-9 33 -19.5 54t-16.5 21q-9 0 -35 -78l-127 -383zM319 770.5q-4 4.5 -4 10.5v38q0 12 8 21t27 26q18 14 27.5 25t9.5 24q0 22 -18.5 34.5t-50.5 12.5q-48 0 -75 -50q-4 -8 -13 -8q-5 0 -10 4.5t-5 10.5q0 5 4 11
q14 25 37.5 41t63.5 16q47 0 71 -18.5t24 -54.5q0 -19 -11.5 -34t-32.5 -31q-12 -9 -18 -15.5t-6 -12.5q-1 -15 -1 -37q0 -18 -17 -18q-6 0 -10 4.5z" />
    <glyph glyph-name="Amacron" unicode="&#x100;" horiz-adv-x="631" 
d="M571 3q0 -6 -6 -9.5t-12 -3.5q-8 0 -12 9l-58 190l-332 2l-62 -187q-2 -6 -5 -8.5t-9 -2.5q-7 0 -11 3.5t-4 8.5l1 6q100 298 135 405l62 185q20 59 34.5 84t32.5 25q32 0 61 -99q18 -62 37.5 -125.5t39.5 -129.5l43 -139h31q6 0 9.5 -4t3.5 -10t-3.5 -10t-10.5 -4h-21
l54 -178q2 -4 2 -8zM474 218q-78 259 -115 389q-9 33 -19.5 54t-16.5 21q-9 0 -35 -78l-127 -383zM225 823q-27 0 -46 7q-7 2 -9.5 5.5t-2.5 11.5q0 16 18 12q33 -7 72 -7q23 0 69 4q48 4 75 4q9 0 29 -2t31 -2q8 0 12.5 -4.5t4.5 -10.5t-4 -9.5t-11 -3.5l-28 2q-20 2 -28 2
q-32 0 -76 -4q-42 -4 -63 -4z" />
    <glyph glyph-name="Aogonek" unicode="&#x104;" horiz-adv-x="631" 
d="M590.5 -134q2.5 -3 2.5 -7q0 -20 -39 -20q-80 0 -80 63q0 55 65 105l-56 182l-332 2l-62 -187q-2 -6 -5 -8.5t-9 -2.5q-7 0 -11 3.5t-4 8.5l1 6q100 298 135 405l62 185q20 59 34.5 84t32.5 25q32 0 61 -99q18 -62 37.5 -125.5t39.5 -129.5l43 -139h31q6 0 9.5 -4
t3.5 -10t-3.5 -10t-10.5 -4h-21l54 -178q2 -4 2 -8q0 -6 -6 -10l-2 -2q-28 -23 -43.5 -43t-15.5 -45q0 -40 52 -40q9 0 17.5 3t11.5 3t5.5 -3zM474 218q-78 259 -115 389q-9 33 -19.5 54t-16.5 21q-9 0 -35 -78l-127 -383z" />
    <glyph glyph-name="Aring" unicode="&#xc5;" horiz-adv-x="631" 
d="M571 3q0 -6 -6 -9.5t-12 -3.5q-8 0 -12 9l-58 190l-332 2l-62 -187q-2 -6 -5 -8.5t-9 -2.5q-7 0 -11 3.5t-4 8.5l1 6q100 298 135 405l62 185q20 59 34.5 84t32.5 25q32 0 61 -99q18 -62 37.5 -125.5t39.5 -129.5l43 -139h31q6 0 9.5 -4t3.5 -10t-3.5 -10t-10.5 -4h-21
l54 -178q2 -4 2 -8zM474 218q-78 259 -115 389q-9 33 -19.5 54t-16.5 21q-9 0 -35 -78l-127 -383zM260 764q-27 27 -27 66q0 38 27.5 64t68.5 26q38 0 63.5 -27.5t25.5 -62.5q0 -41 -26 -67t-66 -26q-39 0 -66 27zM373 783q19 19 19 47q0 25 -19 44.5t-47 19.5
q-29 0 -47.5 -19.5t-18.5 -44.5q0 -28 19 -47t47 -19t47 19z" />
    <glyph glyph-name="Aringacute" unicode="&#x1fa;" horiz-adv-x="631" 
d="M322 955q0 10 9 20l43 53q15 18 25 18q12 0 12 -13q0 -11 -12 -23l-49 -54q-11 -11 -19 -11q-9 0 -9 10zM260 764q-27 27 -27 66q0 38 27.5 64t68.5 26q38 0 63.5 -27.5t25.5 -62.5q0 -41 -26 -67t-66 -26q-39 0 -66 27zM278.5 874.5q-18.5 -19.5 -18.5 -44.5
q0 -28 19 -47t47 -19t47 19t19 47q0 25 -19 44.5t-47 19.5q-29 0 -47.5 -19.5zM571 3q0 -6 -6 -9.5t-12 -3.5q-8 0 -12 9l-58 190l-332 2l-62 -187q-2 -6 -5 -8.5t-9 -2.5q-7 0 -11 3.5t-4 8.5l1 6q100 298 135 405l62 185q20 59 34.5 84t32.5 25q32 0 61 -99
q18 -62 37.5 -125.5t39.5 -129.5l43 -139h31q6 0 9.5 -4t3.5 -10t-3.5 -10t-10.5 -4h-21l54 -178q2 -4 2 -8zM474 218q-78 259 -115 389q-9 33 -19.5 54t-16.5 21q-9 0 -35 -78l-127 -383z" />
    <glyph glyph-name="Atilde" unicode="&#xc3;" horiz-adv-x="631" 
d="M571 3q0 -6 -6 -9.5t-12 -3.5q-8 0 -12 9l-58 190l-332 2l-62 -187q-2 -6 -5 -8.5t-9 -2.5q-7 0 -11 3.5t-4 8.5l1 6q100 298 135 405l62 185q20 59 34.5 84t32.5 25q32 0 61 -99q18 -62 37.5 -125.5t39.5 -129.5l43 -139h31q6 0 9.5 -4t3.5 -10t-3.5 -10t-10.5 -4h-21
l54 -178q2 -4 2 -8zM474 218q-78 259 -115 389q-9 33 -19.5 54t-16.5 21q-9 0 -35 -78l-127 -383zM180 790q0 5 5 10q21 26 36.5 37t39.5 11q42 0 80 -20q3 -2 16.5 -9t25.5 -11t21 -4q19 0 39 22q9 10 15 10q3 0 8.5 -5.5t5.5 -9.5q0 -6 -4 -10q-18 -18 -33 -26t-33 -8
q-14 0 -29 6.5t-17 7.5q-18 10 -29 13q-6 2 -29 11t-37 9q-10 0 -19.5 -7t-18 -16t-12.5 -13q-11 -11 -18 -11q-5 0 -8 3q-5 5 -5 10z" />
    <glyph glyph-name="AE" unicode="&#xc6;" horiz-adv-x="917" 
d="M789.5 660.5q-69.5 3.5 -143.5 3.5q-95 0 -135 -3q4 -68 4 -154q0 -42 -2 -122l150 -3q98 -2 115 -3q5 0 9 -4.5t4 -11.5q0 -9 -6.5 -11.5t-18.5 -2.5l-109 3q-54 3 -78 3h-67l-17 -276l-3 -44l67 -5q101 -9 160 -9q33 0 57.5 2.5t69.5 8.5h5q8 0 14 -4t6 -10
q0 -10 -19 -16q-27 -8 -108 -8q-37 0 -107 4q-110 5 -166 5q-19 0 -31 1t-14.5 3.5t-2.5 8.5q0 13 6.5 16t28.5 3q6 47 13 154l-294 2q-43 -88 -51 -106q-14 -30 -34 -70q-4 -9 -7 -11.5t-6 -2.5q-9 0 -15 5.5t-3 11.5l9 19q124 266 230 459t166 194q3 1 11 1q133 5 195 5
q44 0 117.5 -4.5t77.5 -4.5q10 0 10 -13q0 -8 -5 -12.5t-9 -4.5t-73.5 3.5zM473 217q9 187 9 295q0 87 -5 149h-2q-70 -2 -283 -440z" />
    <glyph glyph-name="AEacute" unicode="&#x1fc;" horiz-adv-x="917" 
d="M789.5 660.5q-69.5 3.5 -143.5 3.5q-95 0 -135 -3q4 -68 4 -154q0 -42 -2 -122l150 -3q98 -2 115 -3q5 0 9 -4.5t4 -11.5q0 -9 -6.5 -11.5t-18.5 -2.5l-109 3q-54 3 -78 3h-67l-17 -276l-3 -44l67 -5q101 -9 160 -9q33 0 57.5 2.5t69.5 8.5h5q8 0 14 -4t6 -10
q0 -10 -19 -16q-27 -8 -108 -8q-37 0 -107 4q-110 5 -166 5q-19 0 -31 1t-14.5 3.5t-2.5 8.5q0 13 6.5 16t28.5 3q6 47 13 154l-294 2q-43 -88 -51 -106q-14 -30 -34 -70q-4 -9 -7 -11.5t-6 -2.5q-9 0 -15 5.5t-3 11.5l9 19q124 266 230 459t166 194q3 1 11 1q133 5 195 5
q44 0 117.5 -4.5t77.5 -4.5q10 0 10 -13q0 -8 -5 -12.5t-9 -4.5t-73.5 3.5zM473 217q9 187 9 295q0 87 -5 149h-2q-70 -2 -283 -440zM577.5 765.5q-3.5 3.5 -3.5 8.5q0 6 10 17l73 85q15 18 25 18q6 0 10 -4t4 -11q0 -5 -3.5 -9.5t-6.5 -7.5l-4 -4l-79 -86q-10 -10 -18 -10
q-4 0 -7.5 3.5z" />
    <glyph glyph-name="B" unicode="B" horiz-adv-x="584" 
d="M54 29.5q4 3.5 13 3.5l30 -1q16 166 16 349v75q0 116 -4 179q-2 -1 -9.5 -4.5t-13.5 -3.5q-5 0 -9 3.5t-4 10.5q0 10 6 15.5t25 13.5q87 36 185 36q109 0 182 -47.5t73 -139.5q0 -72 -50 -112.5t-150 -51.5q94 -14 142 -62.5t48 -118.5q0 -88 -68.5 -131.5t-177.5 -43.5
q-22 0 -33 1q-37 3 -86 3h-44q-3 -19 -18 -19q-14 0 -13 19h-27q-17 0 -17 15q0 8 4 11.5zM162 32q42 0 70 -2q12 -1 36 -1q110 0 172.5 35t62.5 110q0 50 -32 87.5t-92 58t-141 20.5q-12 0 -17.5 4t-5.5 14q0 16 24 16q125 0 199.5 37.5t74.5 105.5q0 79 -63.5 119
t-156.5 40q-106 0 -152 -23q3 -101 3 -270q0 -199 -17 -351h35z" />
    <glyph glyph-name="C" unicode="C" horiz-adv-x="688" 
d="M655 253.5q3 -3.5 3 -14.5q0 -65 -36.5 -120t-99 -88t-137.5 -33q-85 0 -161 33.5t-125 107.5t-49 190q0 115 46.5 202.5t122.5 134t162 46.5q64 0 116.5 -29.5t91.5 -84.5l-1 94q0 7 4.5 11t11.5 4q8 0 12.5 -3.5t4.5 -10.5v-130q0 -7 -5 -11.5t-12 -4.5t-11.5 2t-9.5 9
q-44 63 -91 93t-111 30q-76 0 -145.5 -45.5t-112 -126t-42.5 -180.5q0 -103 44.5 -170.5t113.5 -98.5t146 -31q62 0 118 28.5t90.5 77t34.5 104.5q0 8 4.5 13t11.5 5q8 0 11 -3.5z" />
    <glyph glyph-name="Cacute" unicode="&#x106;" horiz-adv-x="688" 
d="M655 253.5q3 -3.5 3 -14.5q0 -65 -36.5 -120t-99 -88t-137.5 -33q-85 0 -161 33.5t-125 107.5t-49 190q0 115 46.5 202.5t122.5 134t162 46.5q64 0 116.5 -29.5t91.5 -84.5l-1 94q0 7 4.5 11t11.5 4q8 0 12.5 -3.5t4.5 -10.5v-130q0 -7 -5 -11.5t-12 -4.5t-11.5 2t-9.5 9
q-44 63 -91 93t-111 30q-76 0 -145.5 -45.5t-112 -126t-42.5 -180.5q0 -103 44.5 -170.5t113.5 -98.5t146 -31q62 0 118 28.5t90.5 77t34.5 104.5q0 8 4.5 13t11.5 5q8 0 11 -3.5zM343.5 765.5q-3.5 3.5 -3.5 8.5q0 6 10 17l73 85q15 18 25 18q6 0 10 -4t4 -11
q0 -5 -3.5 -9.5t-6.5 -7.5l-4 -4l-79 -86q-10 -10 -18 -10q-4 0 -7.5 3.5z" />
    <glyph glyph-name="Ccaron" unicode="&#x10c;" horiz-adv-x="688" 
d="M655 253.5q3 -3.5 3 -14.5q0 -65 -36.5 -120t-99 -88t-137.5 -33q-85 0 -161 33.5t-125 107.5t-49 190q0 115 46.5 202.5t122.5 134t162 46.5q64 0 116.5 -29.5t91.5 -84.5l-1 94q0 7 4.5 11t11.5 4q8 0 12.5 -3.5t4.5 -10.5v-130q0 -7 -5 -11.5t-12 -4.5t-11.5 2t-9.5 9
q-44 63 -91 93t-111 30q-76 0 -145.5 -45.5t-112 -126t-42.5 -180.5q0 -103 44.5 -170.5t113.5 -98.5t146 -31q62 0 118 28.5t90.5 77t34.5 104.5q0 8 4.5 13t11.5 5q8 0 11 -3.5zM507 908q4 -4 4 -8q0 -3 -4 -9q-31 -47 -67 -85.5t-60 -38.5q-17 0 -44 25t-62 64l-24 25
q-6 6 -6 12q0 5 4.5 9.5t9.5 4.5q8 0 20 -15q35 -42 64 -70t39 -28q12 0 42 31.5t62 79.5q5 7 13 7q5 0 9 -4z" />
    <glyph glyph-name="Ccedilla" unicode="&#xc7;" horiz-adv-x="688" 
d="M361 -1l-39 -62q42 -9 67.5 -28t25.5 -48q0 -45 -34 -68.5t-82 -23.5q-27 0 -69 14q-6 2 -8.5 7t-1.5 10q1 6 6 8.5t13 0.5q14 -4 31.5 -8t32.5 -4q35 0 57.5 13.5t22.5 43.5q0 26 -23.5 39t-66.5 20q-19 3 -16 14l49 75q-74 11 -136.5 48t-101 107t-38.5 172
q0 115 46.5 202.5t122.5 134t162 46.5q64 0 116.5 -29.5t91.5 -84.5l-1 94q0 7 4.5 11t11.5 4q8 0 12.5 -3.5t4.5 -10.5v-130q0 -7 -5 -11.5t-12 -4.5t-11.5 2t-9.5 9q-44 63 -91 93t-111 30q-76 0 -145.5 -45.5t-112 -126t-42.5 -180.5q0 -103 44.5 -170.5t113.5 -98.5
t146 -31q62 0 118 28.5t90.5 77t34.5 104.5q0 8 4.5 13t11.5 5q8 0 11 -3.5t3 -14.5q0 -65 -36.5 -120t-99 -88t-137.5 -33q-16 0 -24 1z" />
    <glyph glyph-name="Ccircumflex" unicode="&#x108;" horiz-adv-x="688" 
d="M655 253.5q3 -3.5 3 -14.5q0 -65 -36.5 -120t-99 -88t-137.5 -33q-85 0 -161 33.5t-125 107.5t-49 190q0 115 46.5 202.5t122.5 134t162 46.5q64 0 116.5 -29.5t91.5 -84.5l-1 94q0 7 4.5 11t11.5 4q8 0 12.5 -3.5t4.5 -10.5v-130q0 -7 -5 -11.5t-12 -4.5t-11.5 2t-9.5 9
q-44 63 -91 93t-111 30q-76 0 -145.5 -45.5t-112 -126t-42.5 -180.5q0 -103 44.5 -170.5t113.5 -98.5t146 -31q62 0 118 28.5t90.5 77t34.5 104.5q0 8 4.5 13t11.5 5q8 0 11 -3.5zM485 779q-32 48 -62 79.5t-42 31.5q-10 0 -39 -28t-64 -70q-12 -15 -20 -15q-5 0 -9.5 4.5
t-4.5 9.5q0 6 6 12l24 25q35 39 62 64t44 25q24 0 60 -38.5t67 -85.5q4 -6 4 -9q0 -4 -4 -8t-9 -4q-8 0 -13 7z" />
    <glyph glyph-name="Cdotaccent" unicode="&#x10a;" horiz-adv-x="688" 
d="M655 253.5q3 -3.5 3 -14.5q0 -65 -36.5 -120t-99 -88t-137.5 -33q-85 0 -161 33.5t-125 107.5t-49 190q0 115 46.5 202.5t122.5 134t162 46.5q64 0 116.5 -29.5t91.5 -84.5l-1 94q0 7 4.5 11t11.5 4q8 0 12.5 -3.5t4.5 -10.5v-130q0 -7 -5 -11.5t-12 -4.5t-11.5 2t-9.5 9
q-44 63 -91 93t-111 30q-76 0 -145.5 -45.5t-112 -126t-42.5 -180.5q0 -103 44.5 -170.5t113.5 -98.5t146 -31q62 0 118 28.5t90.5 77t34.5 104.5q0 8 4.5 13t11.5 5q8 0 11 -3.5zM351.5 798q-10.5 11 -10.5 28q0 16 10.5 26t27.5 10t27.5 -10t10.5 -26q0 -17 -10.5 -28
t-27.5 -11t-27.5 11z" />
    <glyph glyph-name="D" unicode="D" horiz-adv-x="643" 
d="M471 604q122 -82 122 -245q0 -107 -52.5 -186t-151.5 -122t-237 -43h-75q-16 0 -16 15t15 15h52l-17 629h-33q-18 0 -18 16q0 15 19 15h31q3 15 17 15q13 0 15 -17q207 -10 329 -92zM372 77.5q91 37.5 140.5 109.5t49.5 172q0 287 -419 307l16 -628q122 2 213 39.5z" />
    <glyph glyph-name="Eth" unicode="&#xd0;" horiz-adv-x="688" 
d="M516.5 605q121.5 -82 121.5 -248q0 -107 -52 -185.5t-151.5 -121t-237.5 -42.5h-75q-9 0 -12.5 4t-3.5 13q0 12 12 12h56l-9 313l-121 2q-13 0 -18.5 3t-5.5 10q0 14 24 14l120 -2l-9 292h-27q-23 0 -23 17q0 7 5 9.5t15 2.5h31q2 14 15 14q8 0 11 -3.5t4 -11.5
q209 -10 330.5 -92zM417 75q91 37 141.5 109t50.5 174q0 150 -110.5 225.5t-311.5 84.5l7 -292l167 -3q19 0 19 -15q0 -11 -19 -11l-166 3l9 -313q122 1 213 38z" />
    <glyph glyph-name="Dcaron" unicode="&#x10e;" horiz-adv-x="643" 
d="M471 604q122 -82 122 -245q0 -107 -52.5 -186t-151.5 -122t-237 -43h-75q-16 0 -16 15t15 15h52l-17 629h-33q-18 0 -18 16q0 15 19 15h31q3 15 17 15q13 0 15 -17q207 -10 329 -92zM372 77.5q91 37.5 140.5 109.5t49.5 172q0 287 -419 307l16 -628q122 2 213 39.5z
M440 908q4 -4 4 -8q0 -3 -4 -9q-31 -47 -67 -85.5t-60 -38.5q-17 0 -44 25t-62 64l-24 25q-6 6 -6 12q0 5 4.5 9.5t9.5 4.5q8 0 20 -15q35 -42 64 -70t39 -28q12 0 42 31.5t62 79.5q5 7 13 7q5 0 9 -4z" />
    <glyph glyph-name="Dcroat" unicode="&#x110;" horiz-adv-x="688" 
d="M516.5 605q121.5 -82 121.5 -248q0 -107 -52 -185.5t-151.5 -121t-237.5 -42.5h-75q-9 0 -12.5 4t-3.5 13q0 12 12 12h56l-9 313l-121 2q-13 0 -18.5 3t-5.5 10q0 14 24 14l120 -2l-9 292h-27q-23 0 -23 17q0 7 5 9.5t15 2.5h31q2 14 15 14q8 0 11 -3.5t4 -11.5
q209 -10 330.5 -92zM417 75q91 37 141.5 109t50.5 174q0 150 -110.5 225.5t-311.5 84.5l7 -292l167 -3q19 0 19 -15q0 -11 -19 -11l-166 3l9 -313q122 1 213 38z" />
    <glyph glyph-name="uni1E0C" unicode="&#x1e0c;" horiz-adv-x="643" 
d="M471 604q122 -82 122 -245q0 -107 -52.5 -186t-151.5 -122t-237 -43h-75q-16 0 -16 15t15 15h52l-17 629h-33q-18 0 -18 16q0 15 19 15h31q3 15 17 15q13 0 15 -17q207 -10 329 -92zM372 77.5q91 37.5 140.5 109.5t49.5 172q0 287 -419 307l16 -628q122 2 213 39.5z
M285.5 -144q-10.5 11 -10.5 28q0 16 10.5 26t27.5 10t27.5 -10t10.5 -26q0 -17 -10.5 -28t-27.5 -11t-27.5 11z" />
    <glyph glyph-name="uni1E0E" unicode="&#x1e0e;" horiz-adv-x="643" 
d="M471 604q122 -82 122 -245q0 -107 -52.5 -186t-151.5 -122t-237 -43h-75q-16 0 -16 15t15 15h52l-17 629h-33q-18 0 -18 16q0 15 19 15h31q3 15 17 15q13 0 15 -17q207 -10 329 -92zM372 77.5q91 37.5 140.5 109.5t49.5 172q0 287 -419 307l16 -628q122 2 213 39.5z
M171.5 -135.5q-3.5 3.5 -3.5 11.5q0 13 10 14q72 9 180 9q35 0 73 -2q12 -1 30 -1q17 0 17 -15q0 -13 -16 -13l-25 1q-57 3 -80 3q-52 0 -143 -8q-25 -3 -36 -3q-3 0 -6.5 3.5z" />
    <glyph glyph-name="E" unicode="E" horiz-adv-x="574" 
d="M428 664q-39 2 -103 2q-60 0 -160 -5q4 -91 4 -255v-20q64 -2 98 -2q43 0 105 -2l58 -2q16 0 16 -17q0 -7 -3 -10.5t-12 -3.5l-57 2l-110 3q-33 1 -95 1q-1 -78 -5.5 -137t-12.5 -138l-3 -29q86 -7 198 -7q57 0 87 2t76 7h4q15 0 15 -17q0 -6 -3 -9.5t-12 -4.5
q-41 -8 -151 -8h-38q-118 0 -228 10q-16 1 -16 15q0 16 16 16l20 -1q10 77 15.5 144.5t6.5 157.5h-28q-17 0 -17 16q0 7 4.5 11t11.5 4h29v19v86q0 122 -3 167q-14 0 -18.5 3t-4.5 11q0 9 4.5 12.5t15.5 4.5q78 6 179 6q77 0 118.5 -2t88.5 -7q16 -2 16 -15q0 -8 -5 -12
t-12 -3q-50 5 -89 7z" />
    <glyph glyph-name="Eacute" unicode="&#xc9;" horiz-adv-x="574" 
d="M428 664q-39 2 -103 2q-60 0 -160 -5q4 -91 4 -255v-20q64 -2 98 -2q43 0 105 -2l58 -2q16 0 16 -17q0 -7 -3 -10.5t-12 -3.5l-57 2l-110 3q-33 1 -95 1q-1 -78 -5.5 -137t-12.5 -138l-3 -29q86 -7 198 -7q57 0 87 2t76 7h4q15 0 15 -17q0 -6 -3 -9.5t-12 -4.5
q-41 -8 -151 -8h-38q-118 0 -228 10q-16 1 -16 15q0 16 16 16l20 -1q10 77 15.5 144.5t6.5 157.5h-28q-17 0 -17 16q0 7 4.5 11t11.5 4h29v19v86q0 122 -3 167q-14 0 -18.5 3t-4.5 11q0 9 4.5 12.5t15.5 4.5q78 6 179 6q77 0 118.5 -2t88.5 -7q16 -2 16 -15q0 -8 -5 -12
t-12 -3q-50 5 -89 7zM274.5 765.5q-3.5 3.5 -3.5 8.5q0 6 10 17l73 85q15 18 25 18q6 0 10 -4t4 -11q0 -5 -3.5 -9.5t-6.5 -7.5l-4 -4l-79 -86q-10 -10 -18 -10q-4 0 -7.5 3.5z" />
    <glyph glyph-name="Ebreve" unicode="&#x114;" horiz-adv-x="574" 
d="M428 664q-39 2 -103 2q-60 0 -160 -5q4 -91 4 -255v-20q64 -2 98 -2q43 0 105 -2l58 -2q16 0 16 -17q0 -7 -3 -10.5t-12 -3.5l-57 2l-110 3q-33 1 -95 1q-1 -78 -5.5 -137t-12.5 -138l-3 -29q86 -7 198 -7q57 0 87 2t76 7h4q15 0 15 -17q0 -6 -3 -9.5t-12 -4.5
q-41 -8 -151 -8h-38q-118 0 -228 10q-16 1 -16 15q0 16 16 16l20 -1q10 77 15.5 144.5t6.5 157.5h-28q-17 0 -17 16q0 7 4.5 11t11.5 4h29v19v86q0 122 -3 167q-14 0 -18.5 3t-4.5 11q0 9 4.5 12.5t15.5 4.5q78 6 179 6q77 0 118.5 -2t88.5 -7q16 -2 16 -15q0 -8 -5 -12
t-12 -3q-50 5 -89 7zM236.5 793.5q-32.5 16.5 -50 43t-17.5 55.5q0 5 3 8.5t8 3.5q17 0 17 -10q0 -39 34 -64.5t80 -25.5q27 0 51.5 13t39.5 33.5t15 40.5q0 8 6 12t12 4q5 0 9 -3t4 -9q0 -29 -19 -56.5t-50.5 -44.5t-67.5 -17q-42 0 -74.5 16.5z" />
    <glyph glyph-name="Ecaron" unicode="&#x11a;" horiz-adv-x="574" 
d="M428 664q-39 2 -103 2q-60 0 -160 -5q4 -91 4 -255v-20q64 -2 98 -2q43 0 105 -2l58 -2q16 0 16 -17q0 -7 -3 -10.5t-12 -3.5l-57 2l-110 3q-33 1 -95 1q-1 -78 -5.5 -137t-12.5 -138l-3 -29q86 -7 198 -7q57 0 87 2t76 7h4q15 0 15 -17q0 -6 -3 -9.5t-12 -4.5
q-41 -8 -151 -8h-38q-118 0 -228 10q-16 1 -16 15q0 16 16 16l20 -1q10 77 15.5 144.5t6.5 157.5h-28q-17 0 -17 16q0 7 4.5 11t11.5 4h29v19v86q0 122 -3 167q-14 0 -18.5 3t-4.5 11q0 9 4.5 12.5t15.5 4.5q78 6 179 6q77 0 118.5 -2t88.5 -7q16 -2 16 -15q0 -8 -5 -12
t-12 -3q-50 5 -89 7zM438 908q4 -4 4 -8q0 -3 -4 -9q-31 -47 -67 -85.5t-60 -38.5q-17 0 -44 25t-62 64l-24 25q-6 6 -6 12q0 5 4.5 9.5t9.5 4.5q8 0 20 -15q35 -42 64 -70t39 -28q12 0 42 31.5t62 79.5q5 7 13 7q5 0 9 -4z" />
    <glyph glyph-name="Ecircumflex" unicode="&#xca;" horiz-adv-x="574" 
d="M428 664q-39 2 -103 2q-60 0 -160 -5q4 -91 4 -255v-20q64 -2 98 -2q43 0 105 -2l58 -2q16 0 16 -17q0 -7 -3 -10.5t-12 -3.5l-57 2l-110 3q-33 1 -95 1q-1 -78 -5.5 -137t-12.5 -138l-3 -29q86 -7 198 -7q57 0 87 2t76 7h4q15 0 15 -17q0 -6 -3 -9.5t-12 -4.5
q-41 -8 -151 -8h-38q-118 0 -228 10q-16 1 -16 15q0 16 16 16l20 -1q10 77 15.5 144.5t6.5 157.5h-28q-17 0 -17 16q0 7 4.5 11t11.5 4h29v19v86q0 122 -3 167q-14 0 -18.5 3t-4.5 11q0 9 4.5 12.5t15.5 4.5q78 6 179 6q77 0 118.5 -2t88.5 -7q16 -2 16 -15q0 -8 -5 -12
t-12 -3q-50 5 -89 7zM416 779q-32 48 -62 79.5t-42 31.5q-10 0 -39 -28t-64 -70q-12 -15 -20 -15q-5 0 -9.5 4.5t-4.5 9.5q0 6 6 12l24 25q35 39 62 64t44 25q24 0 60 -38.5t67 -85.5q4 -6 4 -9q0 -4 -4 -8t-9 -4q-8 0 -13 7z" />
    <glyph glyph-name="uni1EBE" unicode="&#x1ebe;" horiz-adv-x="574" 
d="M428 664q-39 2 -103 2q-60 0 -160 -5q4 -91 4 -255v-20q64 -2 98 -2q43 0 105 -2l58 -2q16 0 16 -17q0 -7 -3 -10.5t-12 -3.5l-57 2l-110 3q-33 1 -95 1q-1 -78 -5.5 -137t-12.5 -138l-3 -29q86 -7 198 -7q57 0 87 2t76 7h4q15 0 15 -17q0 -6 -3 -9.5t-12 -4.5
q-41 -8 -151 -8h-38q-118 0 -228 10q-16 1 -16 15q0 16 16 16l20 -1q10 77 15.5 144.5t6.5 157.5h-28q-17 0 -17 16q0 7 4.5 11t11.5 4h29v19v86q0 122 -3 167q-14 0 -18.5 3t-4.5 11q0 9 4.5 12.5t15.5 4.5q78 6 179 6q77 0 118.5 -2t88.5 -7q16 -2 16 -15q0 -8 -5 -12
t-12 -3q-50 5 -89 7zM409.5 883.5q-3.5 3.5 -3.5 8.5q0 7 9 17l57 59q8 8 13.5 12.5t10.5 4.5t9.5 -4t4.5 -11q0 -5 -3 -9t-6 -7l-4 -4l-63 -60q-5 -6 -9 -8t-8 -2t-7.5 3.5zM416 780q-32 48 -62 79.5t-42 31.5q-10 0 -39 -28t-64 -70q-13 -15 -20 -15q-5 0 -9.5 4.5
t-4.5 9.5q0 6 6 12l24 25q35 39 62 64t44 25q24 0 60 -38.5t67 -85.5q4 -6 4 -9q0 -4 -4 -8t-9 -4q-8 0 -13 7z" />
    <glyph glyph-name="uni1EC6" unicode="&#x1ec6;" horiz-adv-x="574" 
d="M428 664q-39 2 -103 2q-60 0 -160 -5q4 -91 4 -255v-20q64 -2 98 -2q43 0 105 -2l58 -2q16 0 16 -17q0 -7 -3 -10.5t-12 -3.5l-57 2l-110 3q-33 1 -95 1q-1 -78 -5.5 -137t-12.5 -138l-3 -29q86 -7 198 -7q57 0 87 2t76 7h4q15 0 15 -17q0 -6 -3 -9.5t-12 -4.5
q-41 -8 -151 -8h-38q-118 0 -228 10q-16 1 -16 15q0 16 16 16l20 -1q10 77 15.5 144.5t6.5 157.5h-28q-17 0 -17 16q0 7 4.5 11t11.5 4h29v19v86q0 122 -3 167q-14 0 -18.5 3t-4.5 11q0 9 4.5 12.5t15.5 4.5q78 6 179 6q77 0 118.5 -2t88.5 -7q16 -2 16 -15q0 -8 -5 -12
t-12 -3q-50 5 -89 7zM283.5 -144q-10.5 11 -10.5 28q0 16 10.5 26t27.5 10t27.5 -10t10.5 -26q0 -17 -10.5 -28t-27.5 -11t-27.5 11zM416 779q-32 48 -62 79.5t-42 31.5q-10 0 -39 -28t-64 -70q-12 -15 -20 -15q-5 0 -9.5 4.5t-4.5 9.5q0 6 6 12l24 25q35 39 62 64t44 25
q24 0 60 -38.5t67 -85.5q4 -6 4 -9q0 -4 -4 -8t-9 -4q-8 0 -13 7z" />
    <glyph glyph-name="uni1EC0" unicode="&#x1ec0;" horiz-adv-x="574" 
d="M428 664q-39 2 -103 2q-60 0 -160 -5q4 -91 4 -255v-20q64 -2 98 -2q43 0 105 -2l58 -2q16 0 16 -17q0 -7 -3 -10.5t-12 -3.5l-57 2l-110 3q-33 1 -95 1q-1 -78 -5.5 -137t-12.5 -138l-3 -29q86 -7 198 -7q57 0 87 2t76 7h4q15 0 15 -17q0 -6 -3 -9.5t-12 -4.5
q-41 -8 -151 -8h-38q-118 0 -228 10q-16 1 -16 15q0 16 16 16l20 -1q10 77 15.5 144.5t6.5 157.5h-28q-17 0 -17 16q0 7 4.5 11t11.5 4h29v19v86q0 122 -3 167q-14 0 -18.5 3t-4.5 11q0 9 4.5 12.5t15.5 4.5q78 6 179 6q77 0 118.5 -2t88.5 -7q16 -2 16 -15q0 -8 -5 -12
t-12 -3q-50 5 -89 7zM461 882q-4 2 -9 8l-63 60l-5.5 5.5t-6 7.5t-1.5 7q0 7 4 11t10 4q5 0 10.5 -4.5t13.5 -12.5l57 -59q9 -10 9 -17q0 -5 -3.5 -8.5t-7.5 -3.5t-8 2zM416 780q-32 48 -62 79.5t-42 31.5q-10 0 -39 -28t-64 -70q-13 -15 -20 -15q-5 0 -9.5 4.5t-4.5 9.5
q0 6 6 12l24 25q35 39 62 64t44 25q24 0 60 -38.5t67 -85.5q4 -6 4 -9q0 -4 -4 -8t-9 -4q-8 0 -13 7z" />
    <glyph glyph-name="uni1EC2" unicode="&#x1ec2;" horiz-adv-x="574" 
d="M428 664q-39 2 -103 2q-60 0 -160 -5q4 -91 4 -255v-20q64 -2 98 -2q43 0 105 -2l58 -2q16 0 16 -17q0 -7 -3 -10.5t-12 -3.5l-57 2l-110 3q-33 1 -95 1q-1 -78 -5.5 -137t-12.5 -138l-3 -29q86 -7 198 -7q57 0 87 2t76 7h4q15 0 15 -17q0 -6 -3 -9.5t-12 -4.5
q-41 -8 -151 -8h-38q-118 0 -228 10q-16 1 -16 15q0 16 16 16l20 -1q10 77 15.5 144.5t6.5 157.5h-28q-17 0 -17 16q0 7 4.5 11t11.5 4h29v19v86q0 122 -3 167q-14 0 -18.5 3t-4.5 11q0 9 4.5 12.5t15.5 4.5q78 6 179 6q77 0 118.5 -2t88.5 -7q16 -2 16 -15q0 -8 -5 -12
t-12 -3q-50 5 -89 7zM444.5 877q-3.5 3 -3.5 8v28q0 9 5.5 15.5t17.5 16.5q11 9 16.5 15.5t5.5 14.5q0 15 -9.5 21t-31.5 6q-18 0 -29.5 -8.5t-15.5 -20.5q-2 -5 -9 -5q-12 0 -12 9q0 16 18.5 31t49.5 15q30 0 46 -12.5t16 -36.5q0 -13 -8 -22.5t-21 -19.5q-16 -12 -16 -19
v-27q0 -12 -13 -12q-3 0 -6.5 3zM416 780q-32 48 -62 79.5t-42 31.5q-10 0 -39 -28t-64 -70q-13 -15 -20 -15q-5 0 -9.5 4.5t-4.5 9.5q0 6 6 12l24 25q35 39 62 64t44 25q24 0 60 -38.5t67 -85.5q4 -6 4 -9q0 -4 -4 -8t-9 -4q-8 0 -13 7z" />
    <glyph glyph-name="uni1EC4" unicode="&#x1ec4;" horiz-adv-x="574" 
d="M428 664q-39 2 -103 2q-60 0 -160 -5q4 -91 4 -255v-20q64 -2 98 -2q43 0 105 -2l58 -2q16 0 16 -17q0 -7 -3 -10.5t-12 -3.5l-57 2l-110 3q-33 1 -95 1q-1 -78 -5.5 -137t-12.5 -138l-3 -29q86 -7 198 -7q57 0 87 2t76 7h4q15 0 15 -17q0 -6 -3 -9.5t-12 -4.5
q-41 -8 -151 -8h-38q-118 0 -228 10q-16 1 -16 15q0 16 16 16l20 -1q10 77 15.5 144.5t6.5 157.5h-28q-17 0 -17 16q0 7 4.5 11t11.5 4h29v19v86q0 122 -3 167q-14 0 -18.5 3t-4.5 11q0 9 4.5 12.5t15.5 4.5q78 6 179 6q77 0 118.5 -2t88.5 -7q16 -2 16 -15q0 -8 -5 -12
t-12 -3q-50 5 -89 7zM173 946q-5 5 -5 10t5 10q21 26 37 37t39 11q28 0 80 -22q8 -3 28 -13t35 -10q9 0 16.5 4.5t13.5 10t9 7.5q2 2 6.5 6t8.5 4q6 0 10 -4.5t4 -9.5q0 -6 -5 -11q-18 -18 -32.5 -25.5t-32.5 -7.5q-14 0 -26 4.5t-26 11.5t-23 11q-13 6 -33.5 12t-32.5 6
t-22.5 -7.5t-18 -15.5t-10.5 -11q-11 -11 -17 -11q-5 0 -8 3zM416 780q-32 48 -62 79.5t-42 31.5q-10 0 -39 -28t-64 -70q-13 -15 -20 -15q-5 0 -9.5 4.5t-4.5 9.5q0 6 6 12l24 25q35 39 62 64t44 25q24 0 60 -38.5t67 -85.5q4 -6 4 -9q0 -4 -4 -8t-9 -4q-8 0 -13 7z" />
    <glyph glyph-name="Edieresis" unicode="&#xcb;" horiz-adv-x="574" 
d="M428 664q-39 2 -103 2q-60 0 -160 -5q4 -91 4 -255v-20q64 -2 98 -2q43 0 105 -2l58 -2q16 0 16 -17q0 -7 -3 -10.5t-12 -3.5l-57 2l-110 3q-33 1 -95 1q-1 -78 -5.5 -137t-12.5 -138l-3 -29q86 -7 198 -7q57 0 87 2t76 7h4q15 0 15 -17q0 -6 -3 -9.5t-12 -4.5
q-41 -8 -151 -8h-38q-118 0 -228 10q-16 1 -16 15q0 16 16 16l20 -1q10 77 15.5 144.5t6.5 157.5h-28q-17 0 -17 16q0 7 4.5 11t11.5 4h29v19v86q0 122 -3 167q-14 0 -18.5 3t-4.5 11q0 9 4.5 12.5t15.5 4.5q78 6 179 6q77 0 118.5 -2t88.5 -7q16 -2 16 -15q0 -8 -5 -12
t-12 -3q-50 5 -89 7zM175.5 798q-10.5 11 -10.5 28q0 16 10.5 26t27.5 10t28 -10t11 -26q0 -17 -11 -28t-28 -11t-27.5 11zM391.5 798q-10.5 11 -10.5 28q0 16 10.5 26t27.5 10t27.5 -10t10.5 -26q0 -17 -10.5 -28t-27.5 -11t-27.5 11z" />
    <glyph glyph-name="Edotaccent" unicode="&#x116;" horiz-adv-x="574" 
d="M428 664q-39 2 -103 2q-60 0 -160 -5q4 -91 4 -255v-20q64 -2 98 -2q43 0 105 -2l58 -2q16 0 16 -17q0 -7 -3 -10.5t-12 -3.5l-57 2l-110 3q-33 1 -95 1q-1 -78 -5.5 -137t-12.5 -138l-3 -29q86 -7 198 -7q57 0 87 2t76 7h4q15 0 15 -17q0 -6 -3 -9.5t-12 -4.5
q-41 -8 -151 -8h-38q-118 0 -228 10q-16 1 -16 15q0 16 16 16l20 -1q10 77 15.5 144.5t6.5 157.5h-28q-17 0 -17 16q0 7 4.5 11t11.5 4h29v19v86q0 122 -3 167q-14 0 -18.5 3t-4.5 11q0 9 4.5 12.5t15.5 4.5q78 6 179 6q77 0 118.5 -2t88.5 -7q16 -2 16 -15q0 -8 -5 -12
t-12 -3q-50 5 -89 7zM282.5 798q-10.5 11 -10.5 28q0 16 10.5 26t27.5 10t27.5 -10t10.5 -26q0 -17 -10.5 -28t-27.5 -11t-27.5 11z" />
    <glyph glyph-name="uni1EB8" unicode="&#x1eb8;" horiz-adv-x="574" 
d="M428 664q-39 2 -103 2q-60 0 -160 -5q4 -91 4 -255v-20q64 -2 98 -2q43 0 105 -2l58 -2q16 0 16 -17q0 -7 -3 -10.5t-12 -3.5l-57 2l-110 3q-33 1 -95 1q-1 -78 -5.5 -137t-12.5 -138l-3 -29q86 -7 198 -7q57 0 87 2t76 7h4q15 0 15 -17q0 -6 -3 -9.5t-12 -4.5
q-41 -8 -151 -8h-38q-118 0 -228 10q-16 1 -16 15q0 16 16 16l20 -1q10 77 15.5 144.5t6.5 157.5h-28q-17 0 -17 16q0 7 4.5 11t11.5 4h29v19v86q0 122 -3 167q-14 0 -18.5 3t-4.5 11q0 9 4.5 12.5t15.5 4.5q78 6 179 6q77 0 118.5 -2t88.5 -7q16 -2 16 -15q0 -8 -5 -12
t-12 -3q-50 5 -89 7zM283.5 -144q-10.5 11 -10.5 28q0 16 10.5 26t27.5 10t27.5 -10t10.5 -26q0 -17 -10.5 -28t-27.5 -11t-27.5 11z" />
    <glyph glyph-name="Egrave" unicode="&#xc8;" horiz-adv-x="574" 
d="M428 664q-39 2 -103 2q-60 0 -160 -5q4 -91 4 -255v-20q64 -2 98 -2q43 0 105 -2l58 -2q16 0 16 -17q0 -7 -3 -10.5t-12 -3.5l-57 2l-110 3q-33 1 -95 1q-1 -78 -5.5 -137t-12.5 -138l-3 -29q86 -7 198 -7q57 0 87 2t76 7h4q15 0 15 -17q0 -6 -3 -9.5t-12 -4.5
q-41 -8 -151 -8h-38q-118 0 -228 10q-16 1 -16 15q0 16 16 16l20 -1q10 77 15.5 144.5t6.5 157.5h-28q-17 0 -17 16q0 7 4.5 11t11.5 4h29v19v86q0 122 -3 167q-14 0 -18.5 3t-4.5 11q0 9 4.5 12.5t15.5 4.5q78 6 179 6q77 0 118.5 -2t88.5 -7q16 -2 16 -15q0 -8 -5 -12
t-12 -3q-50 5 -89 7zM344 772l-79 86l-5.5 5.5t-6.5 8t-2 7.5q0 7 4 11t10 4q10 0 25 -18l73 -85q10 -11 10 -17q0 -5 -3.5 -8.5t-7.5 -3.5q-8 0 -18 10z" />
    <glyph glyph-name="uni1EBA" unicode="&#x1eba;" horiz-adv-x="574" 
d="M428 664q-39 2 -103 2q-60 0 -160 -5q4 -91 4 -255v-20q64 -2 98 -2q43 0 105 -2l58 -2q16 0 16 -17q0 -7 -3 -10.5t-12 -3.5l-57 2l-110 3q-33 1 -95 1q-1 -78 -5.5 -137t-12.5 -138l-3 -29q86 -7 198 -7q57 0 87 2t76 7h4q15 0 15 -17q0 -6 -3 -9.5t-12 -4.5
q-41 -8 -151 -8h-38q-118 0 -228 10q-16 1 -16 15q0 16 16 16l20 -1q10 77 15.5 144.5t6.5 157.5h-28q-17 0 -17 16q0 7 4.5 11t11.5 4h29v19v86q0 122 -3 167q-14 0 -18.5 3t-4.5 11q0 9 4.5 12.5t15.5 4.5q78 6 179 6q77 0 118.5 -2t88.5 -7q16 -2 16 -15q0 -8 -5 -12
t-12 -3q-50 5 -89 7zM305 770.5q-4 4.5 -4 10.5v38q0 12 8 21t27 26q18 14 27.5 25t9.5 24q0 22 -18.5 34.5t-50.5 12.5q-48 0 -75 -50q-4 -8 -13 -8q-5 0 -10 4.5t-5 10.5q0 5 4 11q14 25 37.5 41t63.5 16q47 0 71 -18.5t24 -54.5q0 -19 -11.5 -34t-32.5 -31
q-12 -9 -18 -15.5t-6 -12.5q-1 -15 -1 -37q0 -18 -17 -18q-6 0 -10 4.5z" />
    <glyph glyph-name="Emacron" unicode="&#x112;" horiz-adv-x="574" 
d="M428 664q-39 2 -103 2q-60 0 -160 -5q4 -91 4 -255v-20q64 -2 98 -2q43 0 105 -2l58 -2q16 0 16 -17q0 -7 -3 -10.5t-12 -3.5l-57 2l-110 3q-33 1 -95 1q-1 -78 -5.5 -137t-12.5 -138l-3 -29q86 -7 198 -7q57 0 87 2t76 7h4q15 0 15 -17q0 -6 -3 -9.5t-12 -4.5
q-41 -8 -151 -8h-38q-118 0 -228 10q-16 1 -16 15q0 16 16 16l20 -1q10 77 15.5 144.5t6.5 157.5h-28q-17 0 -17 16q0 7 4.5 11t11.5 4h29v19v86q0 122 -3 167q-14 0 -18.5 3t-4.5 11q0 9 4.5 12.5t15.5 4.5q78 6 179 6q77 0 118.5 -2t88.5 -7q16 -2 16 -15q0 -8 -5 -12
t-12 -3q-50 5 -89 7zM148 783q-6 0 -9 3t-3 11q0 13 11 15q17 4 64.5 9t117.5 5l131 -1q17 0 17 -15q0 -7 -3.5 -10t-12.5 -3h-26q-24 1 -123 1q-71 0 -113.5 -7t-47.5 -8h-3z" />
    <glyph glyph-name="Eogonek" unicode="&#x118;" horiz-adv-x="574" 
d="M547.5 -103q2.5 -3 2.5 -7q0 -20 -39 -20q-80 0 -80 63q0 42 40 84q-42 -3 -105 -3h-42q-118 0 -228 10q-16 1 -16 15q0 16 16 16l20 -1q10 77 15.5 144.5t6.5 157.5h-28q-17 0 -17 16q0 7 4.5 11t11.5 4h29v19v86q0 122 -3 167q-14 0 -18.5 3t-4.5 11q0 9 4.5 12.5
t15.5 4.5q78 6 179 6q77 0 118.5 -2t88.5 -7q16 -2 16 -15q0 -8 -5 -12t-12 -3q-50 5 -89 7t-103 2q-60 0 -160 -5q4 -91 4 -255v-20q64 -2 98 -2q43 0 105 -2l58 -2q16 0 16 -17q0 -7 -3 -10.5t-12 -3.5l-57 2l-110 3q-33 1 -95 1q-1 -78 -5.5 -137t-12.5 -138l-3 -29
q86 -7 198 -7q57 0 87 2t76 7h4q15 0 15 -17q0 -9 -6 -11q0 -1 -2 -3q-28 -23 -43.5 -43t-15.5 -45q0 -40 52 -40q9 0 17.5 3t11.5 3t5.5 -3z" />
    <glyph glyph-name="uni1EBC" unicode="&#x1ebc;" horiz-adv-x="574" 
d="M428 664q-39 2 -103 2q-60 0 -160 -5q4 -91 4 -255v-20q64 -2 98 -2q43 0 105 -2l58 -2q16 0 16 -17q0 -7 -3 -10.5t-12 -3.5l-57 2l-110 3q-33 1 -95 1q-1 -78 -5.5 -137t-12.5 -138l-3 -29q86 -7 198 -7q57 0 87 2t76 7h4q15 0 15 -17q0 -6 -3 -9.5t-12 -4.5
q-41 -8 -151 -8h-38q-118 0 -228 10q-16 1 -16 15q0 16 16 16l20 -1q10 77 15.5 144.5t6.5 157.5h-28q-17 0 -17 16q0 7 4.5 11t11.5 4h29v19v86q0 122 -3 167q-14 0 -18.5 3t-4.5 11q0 9 4.5 12.5t15.5 4.5q78 6 179 6q77 0 118.5 -2t88.5 -7q16 -2 16 -15q0 -8 -5 -12
t-12 -3q-50 5 -89 7zM166 790q0 5 5 10q21 26 36.5 37t39.5 11q42 0 80 -20q3 -2 16.5 -9t25.5 -11t21 -4q19 0 39 22q9 10 15 10q3 0 8.5 -5.5t5.5 -9.5q0 -6 -4 -10q-18 -18 -33 -26t-33 -8q-14 0 -29 6.5t-17 7.5q-18 10 -29 13q-6 2 -29 11t-37 9q-10 0 -19.5 -7
t-18 -16t-12.5 -13q-11 -11 -18 -11q-5 0 -8 3q-5 5 -5 10z" />
    <glyph glyph-name="F" unicode="F" horiz-adv-x="573" 
d="M533 670q0 -16 -17 -13q-55 7 -96 10t-96 3q-61 0 -151 -7q7 -78 10.5 -143.5t4.5 -152.5q58 6 127 6q62 0 140 -4q17 -2 17 -17q0 -13 -16 -13q-80 4 -137 4q-76 0 -131 -6q0 -104 -3.5 -190t-8.5 -129q-1 -6 -5.5 -9t-10.5 -3q-7 0 -11.5 3.5t-3.5 10.5q12 132 12 313
l-59 -8h-3q-13 0 -13 14q0 7 3.5 11.5t9.5 5.5l62 8q-1 158 -15 297l-44 -3h-3q-15 0 -15 15t17 16l42 3l-3 35v3q0 15 15 15q16 0 17 -17l3 -34q95 6 150 6q74 0 115.5 -3t81.5 -10q15 -3 15 -17z" />
    <glyph glyph-name="G" unicode="G" horiz-adv-x="730" 
d="M690 319q0 -15 -14 -15l-47 1q-2 -148 -61 -225t-186 -77q-103 0 -178 47.5t-114.5 126t-39.5 169.5q0 92 40 170t113.5 125t169.5 47q136 0 231 -102q4 24 4 49q0 12 3 16t11 4q15 0 15 -11q0 -59 -9 -81q-7 -15 -21 -15q-7 0 -11.5 2.5t-12.5 10.5q-50 48 -95 72
t-112 24q-89 0 -156 -44t-103 -116.5t-36 -155.5t36.5 -153.5t104.5 -112t159 -41.5q114 0 164.5 68.5t52.5 202.5l-167 3q-17 0 -17 15q0 16 17 16l245 -5q14 0 14 -15z" />
    <glyph glyph-name="Gbreve" unicode="&#x11e;" horiz-adv-x="730" 
d="M690 319q0 -15 -14 -15l-47 1q-2 -148 -61 -225t-186 -77q-103 0 -178 47.5t-114.5 126t-39.5 169.5q0 92 40 170t113.5 125t169.5 47q136 0 231 -102q4 24 4 49q0 12 3 16t11 4q15 0 15 -11q0 -59 -9 -81q-7 -15 -21 -15q-7 0 -11.5 2.5t-12.5 10.5q-50 48 -95 72
t-112 24q-89 0 -156 -44t-103 -116.5t-36 -155.5t36.5 -153.5t104.5 -112t159 -41.5q114 0 164.5 68.5t52.5 202.5l-167 3q-17 0 -17 15q0 16 17 16l245 -5q14 0 14 -15zM290.5 793.5q-32.5 16.5 -50 43t-17.5 55.5q0 5 3 8.5t8 3.5q17 0 17 -10q0 -39 34 -64.5t80 -25.5
q27 0 51.5 13t39.5 33.5t15 40.5q0 8 6 12t12 4q5 0 9 -3t4 -9q0 -29 -19 -56.5t-50.5 -44.5t-67.5 -17q-42 0 -74.5 16.5z" />
    <glyph glyph-name="Gcaron" unicode="&#x1e6;" horiz-adv-x="730" 
d="M690 319q0 -15 -14 -15l-47 1q-2 -148 -61 -225t-186 -77q-103 0 -178 47.5t-114.5 126t-39.5 169.5q0 92 40 170t113.5 125t169.5 47q136 0 231 -102q4 24 4 49q0 12 3 16t11 4q15 0 15 -11q0 -59 -9 -81q-7 -15 -21 -15q-7 0 -11.5 2.5t-12.5 10.5q-50 48 -95 72
t-112 24q-89 0 -156 -44t-103 -116.5t-36 -155.5t36.5 -153.5t104.5 -112t159 -41.5q114 0 164.5 68.5t52.5 202.5l-167 3q-17 0 -17 15q0 16 17 16l245 -5q14 0 14 -15zM492 908q4 -4 4 -8q0 -3 -4 -9q-31 -47 -67 -85.5t-60 -38.5q-17 0 -44 25t-62 64l-24 25q-6 6 -6 12
q0 5 4.5 9.5t9.5 4.5q8 0 20 -15q35 -42 64 -70t39 -28q12 0 42 31.5t62 79.5q5 7 13 7q5 0 9 -4z" />
    <glyph glyph-name="Gcircumflex" unicode="&#x11c;" horiz-adv-x="730" 
d="M690 319q0 -15 -14 -15l-47 1q-2 -148 -61 -225t-186 -77q-103 0 -178 47.5t-114.5 126t-39.5 169.5q0 92 40 170t113.5 125t169.5 47q136 0 231 -102q4 24 4 49q0 12 3 16t11 4q15 0 15 -11q0 -59 -9 -81q-7 -15 -21 -15q-7 0 -11.5 2.5t-12.5 10.5q-50 48 -95 72
t-112 24q-89 0 -156 -44t-103 -116.5t-36 -155.5t36.5 -153.5t104.5 -112t159 -41.5q114 0 164.5 68.5t52.5 202.5l-167 3q-17 0 -17 15q0 16 17 16l245 -5q14 0 14 -15zM470 779q-32 48 -62 79.5t-42 31.5q-10 0 -39 -28t-64 -70q-12 -15 -20 -15q-5 0 -9.5 4.5t-4.5 9.5
q0 6 6 12l24 25q35 39 62 64t44 25q24 0 60 -38.5t67 -85.5q4 -6 4 -9q0 -4 -4 -8t-9 -4q-8 0 -13 7z" />
    <glyph glyph-name="uni0122" unicode="&#x122;" horiz-adv-x="730" 
d="M690 319q0 -15 -14 -15l-47 1q-2 -148 -61 -225t-186 -77q-103 0 -178 47.5t-114.5 126t-39.5 169.5q0 92 40 170t113.5 125t169.5 47q136 0 231 -102q4 24 4 49q0 12 3 16t11 4q15 0 15 -11q0 -59 -9 -81q-7 -15 -21 -15q-7 0 -11.5 2.5t-12.5 10.5q-50 48 -95 72
t-112 24q-89 0 -156 -44t-103 -116.5t-36 -155.5t36.5 -153.5t104.5 -112t159 -41.5q114 0 164.5 68.5t52.5 202.5l-167 3q-17 0 -17 15q0 16 17 16l245 -5q14 0 14 -15zM392.5 -92.5q12.5 -12.5 12.5 -29.5q0 -30 -21 -64t-59 -65q-8 -6 -11 -6q-4 0 -7.5 3.5t-3.5 8.5
q0 3 4 7q49 49 60 74h-5q-16 0 -29 12.5t-13 29.5q0 18 13 30t30 12t29.5 -12.5z" />
    <glyph glyph-name="Gdotaccent" unicode="&#x120;" horiz-adv-x="730" 
d="M690 319q0 -15 -14 -15l-47 1q-2 -148 -61 -225t-186 -77q-103 0 -178 47.5t-114.5 126t-39.5 169.5q0 92 40 170t113.5 125t169.5 47q136 0 231 -102q4 24 4 49q0 12 3 16t11 4q15 0 15 -11q0 -59 -9 -81q-7 -15 -21 -15q-7 0 -11.5 2.5t-12.5 10.5q-50 48 -95 72
t-112 24q-89 0 -156 -44t-103 -116.5t-36 -155.5t36.5 -153.5t104.5 -112t159 -41.5q114 0 164.5 68.5t52.5 202.5l-167 3q-17 0 -17 15q0 16 17 16l245 -5q14 0 14 -15zM336.5 798q-10.5 11 -10.5 28q0 16 10.5 26t27.5 10t27.5 -10t10.5 -26q0 -17 -10.5 -28t-27.5 -11
t-27.5 11z" />
    <glyph glyph-name="uni1E20" unicode="&#x1e20;" horiz-adv-x="730" 
d="M690 319q0 -15 -14 -15l-47 1q-2 -148 -61 -225t-186 -77q-103 0 -178 47.5t-114.5 126t-39.5 169.5q0 92 40 170t113.5 125t169.5 47q136 0 231 -102q4 24 4 49q0 12 3 16t11 4q15 0 15 -11q0 -59 -9 -81q-7 -15 -21 -15q-7 0 -11.5 2.5t-12.5 10.5q-50 48 -95 72
t-112 24q-89 0 -156 -44t-103 -116.5t-36 -155.5t36.5 -153.5t104.5 -112t159 -41.5q114 0 164.5 68.5t52.5 202.5l-167 3q-17 0 -17 15q0 16 17 16l245 -5q14 0 14 -15zM202 783q-6 0 -9 3t-3 11q0 13 11 15q17 4 64.5 9t117.5 5l131 -1q17 0 17 -15q0 -7 -3.5 -10
t-12.5 -3h-26q-24 1 -123 1q-71 0 -113.5 -7t-47.5 -8h-3z" />
    <glyph glyph-name="H" unicode="H" horiz-adv-x="684" 
d="M624 313q0 -16 -17 -16l-44 1l8 -281q0 -17 -14 -17q-17 0 -17 16l-8 282l-380 8l-24 -300q-2 -11 -15 -11q-18 0 -16 15l24 296l-47 1q-14 0 -14 15q0 8 4.5 11.5t10.5 3.5l48 -1l30 368q1 17 17 17t14 -19l-29 -366l376 -6l-11 373q0 18 15 18q16 0 16 -16l11 -375
l44 -1q18 0 18 -16z" />
    <glyph glyph-name="Hbar" unicode="&#x126;" horiz-adv-x="688" 
d="M628 313q0 -16 -17 -16l-44 1l8 -281q0 -17 -14 -17q-17 0 -17 16l-8 282l-380 8l-24 -300q-2 -11 -15 -11q-18 0 -16 15l24 296l-47 1q-14 0 -14 15q0 8 4.5 11.5t10.5 3.5l48 -1l14 170l-66 1q-7 0 -11 4.5t-4 10.5q0 7 5.5 11t11.5 4l66 -1l14 168q1 17 17 17t14 -19
l-13 -166l354 -6l-5 173q0 18 15 18q16 0 16 -16l5 -175l47 -1q18 0 18 -16t-17 -16l-47 1l5 -168l44 -1q18 0 18 -16zM535 330l-5 168l-358 7l-13 -169z" />
    <glyph glyph-name="uni1E2A" unicode="&#x1e2a;" horiz-adv-x="684" 
d="M624 313q0 -16 -17 -16l-44 1l8 -281q0 -17 -14 -17q-17 0 -17 16l-8 282l-380 8l-24 -300q-2 -11 -15 -11q-18 0 -16 15l24 296l-47 1q-14 0 -14 15q0 8 4.5 11.5t10.5 3.5l48 -1l30 368q1 17 17 17t14 -19l-29 -366l376 -6l-11 373q0 18 15 18q16 0 16 -16l11 -375
l44 -1q18 0 18 -16zM259.5 -172.5q-32.5 16.5 -50 43t-17.5 55.5q0 5 3 8.5t8 3.5q17 0 17 -10q0 -39 34 -64.5t80 -25.5q27 0 51.5 13t39.5 33.5t15 40.5q0 8 6 12t12 4q5 0 9 -3t4 -9q0 -29 -19 -56.5t-50.5 -44.5t-67.5 -17q-42 0 -74.5 16.5z" />
    <glyph glyph-name="Hcircumflex" unicode="&#x124;" horiz-adv-x="684" 
d="M624 313q0 -16 -17 -16l-44 1l8 -281q0 -17 -14 -17q-17 0 -17 16l-8 282l-380 8l-24 -300q-2 -11 -15 -11q-18 0 -16 15l24 296l-47 1q-14 0 -14 15q0 8 4.5 11.5t10.5 3.5l48 -1l30 368q1 17 17 17t14 -19l-29 -366l376 -6l-11 373q0 18 15 18q16 0 16 -16l11 -375
l44 -1q18 0 18 -16zM453 779q-32 48 -62 79.5t-42 31.5q-10 0 -39 -28t-64 -70q-12 -15 -20 -15q-5 0 -9.5 4.5t-4.5 9.5q0 6 6 12l24 25q35 39 62 64t44 25q24 0 60 -38.5t67 -85.5q4 -6 4 -9q0 -4 -4 -8t-9 -4q-8 0 -13 7z" />
    <glyph glyph-name="uni1E24" unicode="&#x1e24;" horiz-adv-x="684" 
d="M624 313q0 -16 -17 -16l-44 1l8 -281q0 -17 -14 -17q-17 0 -17 16l-8 282l-380 8l-24 -300q-2 -11 -15 -11q-18 0 -16 15l24 296l-47 1q-14 0 -14 15q0 8 4.5 11.5t10.5 3.5l48 -1l30 368q1 17 17 17t14 -19l-29 -366l376 -6l-11 373q0 18 15 18q16 0 16 -16l11 -375
l44 -1q18 0 18 -16zM308.5 -144q-10.5 11 -10.5 28q0 16 10.5 26t27.5 10t27.5 -10t10.5 -26q0 -17 -10.5 -28t-27.5 -11t-27.5 11z" />
    <glyph glyph-name="I" unicode="I" horiz-adv-x="438" 
d="M388 21q0 -16 -15 -16l-305 5q-5 0 -9 4.5t-4 11.5q0 15 15 15l136 -2q11 179 15.5 320t4.5 318q-45 -1 -126 -8l-35 -2q-7 0 -11 4t-4 11q0 13 16 16q13 2 71.5 6t85.5 4q115 0 151 -6q14 -2 14 -15q0 -8 -5 -12t-12 -3q-26 3 -51 4t-63 1q0 -190 -4 -330.5t-16 -307.5
l136 -2q15 0 15 -16z" />
    <glyph glyph-name="IJ" unicode="&#x132;" horiz-adv-x="1025" 
d="M388 21q0 -16 -15 -16l-305 5q-5 0 -9 4.5t-4 11.5q0 15 15 15l136 -2q11 179 15.5 320t4.5 318q-45 -1 -126 -8l-35 -2q-7 0 -11 4t-4 11q0 13 16 16q13 2 71.5 6t85.5 4q115 0 151 -6q14 -2 14 -15q0 -8 -5 -12t-12 -3q-26 3 -51 4t-63 1q0 -190 -4 -330.5t-16 -307.5
l136 -2q15 0 15 -16zM975 683q0 -7 -3.5 -11t-8.5 -4q-42 2 -78 2q-6 -102 -6 -249l1 -162q0 -127 -55 -192t-144 -65q-81 0 -137 54t-56 195q0 20 16 20q15 0 15 -20q0 -93 23.5 -141t58 -62.5t78.5 -14.5q76 0 123 53.5t47 171.5v124q0 172 6 288q-69 -2 -95 -5h-2
q-12 0 -12 14t13 16q36 4 105 4h57q33 0 42 -1q12 -1 12 -15z" />
    <glyph glyph-name="Iacute" unicode="&#xcd;" horiz-adv-x="438" 
d="M388 21q0 -16 -15 -16l-305 5q-5 0 -9 4.5t-4 11.5q0 15 15 15l136 -2q11 179 15.5 320t4.5 318q-45 -1 -126 -8l-35 -2q-7 0 -11 4t-4 11q0 13 16 16q13 2 71.5 6t85.5 4q115 0 151 -6q14 -2 14 -15q0 -8 -5 -12t-12 -3q-26 3 -51 4t-63 1q0 -190 -4 -330.5t-16 -307.5
l136 -2q15 0 15 -16zM186.5 765.5q-3.5 3.5 -3.5 8.5q0 6 10 17l73 85q15 18 25 18q6 0 10 -4t4 -11q0 -5 -3.5 -9.5t-6.5 -7.5l-4 -4l-79 -86q-10 -10 -18 -10q-4 0 -7.5 3.5z" />
    <glyph glyph-name="Ibreve" unicode="&#x12c;" horiz-adv-x="438" 
d="M388 21q0 -16 -15 -16l-305 5q-5 0 -9 4.5t-4 11.5q0 15 15 15l136 -2q11 179 15.5 320t4.5 318q-45 -1 -126 -8l-35 -2q-7 0 -11 4t-4 11q0 13 16 16q13 2 71.5 6t85.5 4q115 0 151 -6q14 -2 14 -15q0 -8 -5 -12t-12 -3q-26 3 -51 4t-63 1q0 -190 -4 -330.5t-16 -307.5
l136 -2q15 0 15 -16zM148.5 793.5q-32.5 16.5 -50 43t-17.5 55.5q0 5 3 8.5t8 3.5q17 0 17 -10q0 -39 34 -64.5t80 -25.5q27 0 51.5 13t39.5 33.5t15 40.5q0 8 6 12t12 4q5 0 9 -3t4 -9q0 -29 -19 -56.5t-50.5 -44.5t-67.5 -17q-42 0 -74.5 16.5z" />
    <glyph glyph-name="uni01CF" unicode="&#x1cf;" horiz-adv-x="438" 
d="M388 21q0 -16 -15 -16l-305 5q-5 0 -9 4.5t-4 11.5q0 15 15 15l136 -2q11 179 15.5 320t4.5 318q-45 -1 -126 -8l-35 -2q-7 0 -11 4t-4 11q0 13 16 16q13 2 71.5 6t85.5 4q115 0 151 -6q14 -2 14 -15q0 -8 -5 -12t-12 -3q-26 3 -51 4t-63 1q0 -190 -4 -330.5t-16 -307.5
l136 -2q15 0 15 -16zM350 908q4 -4 4 -8q0 -3 -4 -9q-31 -47 -67 -85.5t-60 -38.5q-17 0 -44 25t-62 64l-24 25q-6 6 -6 12q0 5 4.5 9.5t9.5 4.5q8 0 20 -15q35 -42 64 -70t39 -28q12 0 42 31.5t62 79.5q5 7 13 7q5 0 9 -4z" />
    <glyph glyph-name="Icircumflex" unicode="&#xce;" horiz-adv-x="438" 
d="M388 21q0 -16 -15 -16l-305 5q-5 0 -9 4.5t-4 11.5q0 15 15 15l136 -2q11 179 15.5 320t4.5 318q-45 -1 -126 -8l-35 -2q-7 0 -11 4t-4 11q0 13 16 16q13 2 71.5 6t85.5 4q115 0 151 -6q14 -2 14 -15q0 -8 -5 -12t-12 -3q-26 3 -51 4t-63 1q0 -190 -4 -330.5t-16 -307.5
l136 -2q15 0 15 -16zM328 779q-32 48 -62 79.5t-42 31.5q-10 0 -39 -28t-64 -70q-12 -15 -20 -15q-5 0 -9.5 4.5t-4.5 9.5q0 6 6 12l24 25q35 39 62 64t44 25q24 0 60 -38.5t67 -85.5q4 -6 4 -9q0 -4 -4 -8t-9 -4q-8 0 -13 7z" />
    <glyph glyph-name="Idieresis" unicode="&#xcf;" horiz-adv-x="438" 
d="M388 21q0 -16 -15 -16l-305 5q-5 0 -9 4.5t-4 11.5q0 15 15 15l136 -2q11 179 15.5 320t4.5 318q-45 -1 -126 -8l-35 -2q-7 0 -11 4t-4 11q0 13 16 16q13 2 71.5 6t85.5 4q115 0 151 -6q14 -2 14 -15q0 -8 -5 -12t-12 -3q-26 3 -51 4t-63 1q0 -190 -4 -330.5t-16 -307.5
l136 -2q15 0 15 -16zM87.5 798q-10.5 11 -10.5 28q0 16 10.5 26t27.5 10t28 -10t11 -26q0 -17 -11 -28t-28 -11t-27.5 11zM303.5 798q-10.5 11 -10.5 28q0 16 10.5 26t27.5 10t27.5 -10t10.5 -26q0 -17 -10.5 -28t-27.5 -11t-27.5 11z" />
    <glyph glyph-name="Idotaccent" unicode="&#x130;" horiz-adv-x="438" 
d="M388 21q0 -16 -15 -16l-305 5q-5 0 -9 4.5t-4 11.5q0 15 15 15l136 -2q11 179 15.5 320t4.5 318q-45 -1 -126 -8l-35 -2q-7 0 -11 4t-4 11q0 13 16 16q13 2 71.5 6t85.5 4q115 0 151 -6q14 -2 14 -15q0 -8 -5 -12t-12 -3q-26 3 -51 4t-63 1q0 -190 -4 -330.5t-16 -307.5
l136 -2q15 0 15 -16zM194.5 798q-10.5 11 -10.5 28q0 16 10.5 26t27.5 10t27.5 -10t10.5 -26q0 -17 -10.5 -28t-27.5 -11t-27.5 11z" />
    <glyph glyph-name="uni1ECA" unicode="&#x1eca;" horiz-adv-x="438" 
d="M388 21q0 -16 -15 -16l-305 5q-5 0 -9 4.5t-4 11.5q0 15 15 15l136 -2q11 179 15.5 320t4.5 318q-45 -1 -126 -8l-35 -2q-7 0 -11 4t-4 11q0 13 16 16q13 2 71.5 6t85.5 4q115 0 151 -6q14 -2 14 -15q0 -8 -5 -12t-12 -3q-26 3 -51 4t-63 1q0 -190 -4 -330.5t-16 -307.5
l136 -2q15 0 15 -16zM195.5 -144q-10.5 11 -10.5 28q0 16 10.5 26t27.5 10t27.5 -10t10.5 -26q0 -17 -10.5 -28t-27.5 -11t-27.5 11z" />
    <glyph glyph-name="Igrave" unicode="&#xcc;" horiz-adv-x="438" 
d="M388 21q0 -16 -15 -16l-305 5q-5 0 -9 4.5t-4 11.5q0 15 15 15l136 -2q11 179 15.5 320t4.5 318q-45 -1 -126 -8l-35 -2q-7 0 -11 4t-4 11q0 13 16 16q13 2 71.5 6t85.5 4q115 0 151 -6q14 -2 14 -15q0 -8 -5 -12t-12 -3q-26 3 -51 4t-63 1q0 -190 -4 -330.5t-16 -307.5
l136 -2q15 0 15 -16zM256 772l-79 86l-5.5 5.5t-6.5 8t-2 7.5q0 7 4 11t10 4q10 0 25 -18l73 -85q10 -11 10 -17q0 -5 -3.5 -8.5t-7.5 -3.5q-8 0 -18 10z" />
    <glyph glyph-name="uni1EC8" unicode="&#x1ec8;" horiz-adv-x="438" 
d="M388 21q0 -16 -15 -16l-305 5q-5 0 -9 4.5t-4 11.5q0 15 15 15l136 -2q11 179 15.5 320t4.5 318q-45 -1 -126 -8l-35 -2q-7 0 -11 4t-4 11q0 13 16 16q13 2 71.5 6t85.5 4q115 0 151 -6q14 -2 14 -15q0 -8 -5 -12t-12 -3q-26 3 -51 4t-63 1q0 -190 -4 -330.5t-16 -307.5
l136 -2q15 0 15 -16zM217 770.5q-4 4.5 -4 10.5v38q0 12 8 21t27 26q18 14 27.5 25t9.5 24q0 22 -18.5 34.5t-50.5 12.5q-48 0 -75 -50q-4 -8 -13 -8q-5 0 -10 4.5t-5 10.5q0 5 4 11q14 25 37.5 41t63.5 16q47 0 71 -18.5t24 -54.5q0 -19 -11.5 -34t-32.5 -31
q-12 -9 -18 -15.5t-6 -12.5q-1 -15 -1 -37q0 -18 -17 -18q-6 0 -10 4.5z" />
    <glyph glyph-name="Imacron" unicode="&#x12a;" horiz-adv-x="438" 
d="M388 21q0 -16 -15 -16l-305 5q-5 0 -9 4.5t-4 11.5q0 15 15 15l136 -2q11 179 15.5 320t4.5 318q-45 -1 -126 -8l-35 -2q-7 0 -11 4t-4 11q0 13 16 16q13 2 71.5 6t85.5 4q115 0 151 -6q14 -2 14 -15q0 -8 -5 -12t-12 -3q-26 3 -51 4t-63 1q0 -190 -4 -330.5t-16 -307.5
l136 -2q15 0 15 -16zM60 783q-6 0 -9 3t-3 11q0 13 11 15q17 4 64.5 9t117.5 5l131 -1q17 0 17 -15q0 -7 -3.5 -10t-12.5 -3h-26q-24 1 -123 1q-71 0 -113.5 -7t-47.5 -8h-3z" />
    <glyph glyph-name="Iogonek" unicode="&#x12e;" horiz-adv-x="438" 
d="M407.5 -119q2.5 -3 2.5 -7q0 -20 -39 -20q-80 0 -80 63q0 46 45 89l-268 4q-5 0 -9 4.5t-4 11.5q0 15 15 15l136 -2q11 179 15.5 320t4.5 318q-45 -1 -126 -8l-35 -2q-7 0 -11 4t-4 11q0 13 16 16q13 2 71.5 6t85.5 4q115 0 151 -6q14 -2 14 -15q0 -8 -5 -12t-12 -3
q-26 3 -51 4t-63 1q0 -190 -4 -330.5t-16 -307.5l136 -2q15 0 15 -16q0 -12 -8 -15q-28 -23 -43.5 -43t-15.5 -45q0 -40 52 -40q9 0 17.5 3t11.5 3t5.5 -3z" />
    <glyph glyph-name="Itilde" unicode="&#x128;" horiz-adv-x="438" 
d="M388 21q0 -16 -15 -16l-305 5q-5 0 -9 4.5t-4 11.5q0 15 15 15l136 -2q11 179 15.5 320t4.5 318q-45 -1 -126 -8l-35 -2q-7 0 -11 4t-4 11q0 13 16 16q13 2 71.5 6t85.5 4q115 0 151 -6q14 -2 14 -15q0 -8 -5 -12t-12 -3q-26 3 -51 4t-63 1q0 -190 -4 -330.5t-16 -307.5
l136 -2q15 0 15 -16zM78 790q0 5 5 10q21 26 36.5 37t39.5 11q42 0 80 -20q3 -2 16.5 -9t25.5 -11t21 -4q19 0 39 22q9 10 15 10q3 0 8.5 -5.5t5.5 -9.5q0 -6 -4 -10q-18 -18 -33 -26t-33 -8q-14 0 -29 6.5t-17 7.5q-18 10 -29 13q-6 2 -29 11t-37 9q-10 0 -19.5 -7t-18 -16
t-12.5 -13q-11 -11 -18 -11q-5 0 -8 3q-5 5 -5 10z" />
    <glyph glyph-name="J" unicode="J" horiz-adv-x="587" 
d="M537 683q0 -7 -3.5 -11t-8.5 -4q-42 2 -78 2q-6 -102 -6 -249l1 -162q0 -127 -55 -192t-144 -65q-81 0 -137 54t-56 195q0 20 16 20q15 0 15 -20q0 -93 23.5 -141t58 -62.5t78.5 -14.5q76 0 123 53.5t47 171.5v124q0 172 6 288q-69 -2 -95 -5h-2q-12 0 -12 14t13 16
q36 4 105 4h57q33 0 42 -1q12 -1 12 -15z" />
    <glyph glyph-name="Jcircumflex" unicode="&#x134;" horiz-adv-x="587" 
d="M537 683q0 -7 -3.5 -11t-8.5 -4q-42 2 -78 2q-6 -102 -6 -249l1 -162q0 -127 -55 -192t-144 -65q-81 0 -137 54t-56 195q0 20 16 20q15 0 15 -20q0 -93 23.5 -141t58 -62.5t78.5 -14.5q76 0 123 53.5t47 171.5v124q0 172 6 288q-69 -2 -95 -5h-2q-12 0 -12 14t13 16
q36 4 105 4h57q33 0 42 -1q12 -1 12 -15zM530 779q-32 48 -62 79.5t-42 31.5q-10 0 -39 -28t-64 -70q-12 -15 -20 -15q-5 0 -9.5 4.5t-4.5 9.5q0 6 6 12l24 25q35 39 62 64t44 25q24 0 60 -38.5t67 -85.5q4 -6 4 -9q0 -4 -4 -8t-9 -4q-8 0 -13 7z" />
    <glyph glyph-name="K" unicode="K" horiz-adv-x="619" 
d="M564.5 683.5q4.5 -4.5 4.5 -11.5q0 -8 -7 -14q-45 -34 -220 -156q-53 -37 -132 -86l-73 -47l37 -38q63 -65 143 -133q54 -46 89 -72t93 -66l41 -28q8 -5 8 -13q0 -6 -4 -11t-10 -5t-12 4q-58 38 -107 75.5t-117 93.5q-60 50 -96 84.5t-86 88.5q0 -76 -2 -202l-1 -124
q0 -21 -18 -21q-9 0 -12 4.5t-3 14.5l1 120q3 107 3 249l-1 293q0 6 5 10t12 4t11.5 -5t4.5 -12l1 -285q90 55 202 128q132 88 226 162q5 3 9 3q6 0 10.5 -4.5z" />
    <glyph glyph-name="uni0136" unicode="&#x136;" horiz-adv-x="619" 
d="M564.5 683.5q4.5 -4.5 4.5 -11.5q0 -8 -7 -14q-45 -34 -220 -156q-53 -37 -132 -86l-73 -47l37 -38q63 -65 143 -133q54 -46 89 -72t93 -66l41 -28q8 -5 8 -13q0 -6 -4 -11t-10 -5t-12 4q-58 38 -107 75.5t-117 93.5q-60 50 -96 84.5t-86 88.5q0 -76 -2 -202l-1 -124
q0 -21 -18 -21q-9 0 -12 4.5t-3 14.5l1 120q3 107 3 249l-1 293q0 6 5 10t12 4t11.5 -5t4.5 -12l1 -285q90 55 202 128q132 88 226 162q5 3 9 3q6 0 10.5 -4.5zM313.5 -92.5q12.5 -12.5 12.5 -29.5q0 -30 -21 -64t-59 -65q-8 -6 -11 -6q-4 0 -7.5 3.5t-3.5 8.5q0 3 4 7
q49 49 60 74h-5q-16 0 -29 12.5t-13 29.5q0 18 13 30t30 12t29.5 -12.5z" />
    <glyph glyph-name="L" unicode="L" horiz-adv-x="508" 
d="M122 16.5q-38 16.5 -50 57t-12 128.5q0 104 11 218.5t35 264.5q3 17 18 17q16 0 13 -20q-27 -186 -36 -279t-9 -201q0 -72 7.5 -105.5t36.5 -49.5t93 -16q49 0 93 5.5t124 20.5l6 1q16 0 16 -16t-17 -19q-69 -13 -114 -18t-93 -5q-84 0 -122 16.5z" />
    <glyph glyph-name="Lacute" unicode="&#x139;" horiz-adv-x="508" 
d="M122 16.5q-38 16.5 -50 57t-12 128.5q0 104 11 218.5t35 264.5q3 17 18 17q16 0 13 -20q-27 -186 -36 -279t-9 -201q0 -72 7.5 -105.5t36.5 -49.5t93 -16q49 0 93 5.5t124 20.5l6 1q16 0 16 -16t-17 -19q-69 -13 -114 -18t-93 -5q-84 0 -122 16.5zM90.5 765.5
q-3.5 3.5 -3.5 8.5q0 6 10 17l73 85q15 18 25 18q6 0 10 -4t4 -11q0 -5 -3.5 -9.5t-6.5 -7.5l-4 -4l-79 -86q-10 -10 -18 -10q-4 0 -7.5 3.5z" />
    <glyph glyph-name="Lcaron" unicode="&#x13d;" horiz-adv-x="508" 
d="M122 16.5q-38 16.5 -50 57t-12 128.5q0 104 11 218.5t35 264.5q3 17 18 17q16 0 13 -20q-27 -186 -36 -279t-9 -201q0 -72 7.5 -105.5t36.5 -49.5t93 -16q49 0 93 5.5t124 20.5l6 1q16 0 16 -16t-17 -19q-69 -13 -114 -18t-93 -5q-84 0 -122 16.5zM395.5 683.5
q12.5 -12.5 12.5 -29.5q0 -27 -20.5 -58.5t-59.5 -70.5q-3 -3 -7 -3q-5 0 -8.5 3.5t-3.5 8.5q0 3 2 5t27 26.5t33 48.5q-2 -1 -7 -1q-16 0 -28.5 12t-12.5 29q0 18 13 30t30 12t29.5 -12.5z" />
    <glyph glyph-name="uni013B" unicode="&#x13b;" horiz-adv-x="508" 
d="M122 16.5q-38 16.5 -50 57t-12 128.5q0 104 11 218.5t35 264.5q3 17 18 17q16 0 13 -20q-27 -186 -36 -279t-9 -201q0 -72 7.5 -105.5t36.5 -49.5t93 -16q49 0 93 5.5t124 20.5l6 1q16 0 16 -16t-17 -19q-69 -13 -114 -18t-93 -5q-84 0 -122 16.5zM278.5 -92.5
q12.5 -12.5 12.5 -29.5q0 -30 -21 -64t-59 -65q-8 -6 -11 -6q-4 0 -7.5 3.5t-3.5 8.5q0 3 4 7q49 49 60 74h-5q-16 0 -29 12.5t-13 29.5q0 18 13 30t30 12t29.5 -12.5z" />
    <glyph glyph-name="Ldot" unicode="&#x13f;" horiz-adv-x="508" 
d="M122 16.5q-38 16.5 -50 57t-12 128.5q0 104 11 218.5t35 264.5q3 17 18 17q16 0 13 -20q-27 -186 -36 -279t-9 -201q0 -72 7.5 -105.5t36.5 -49.5t93 -16q49 0 93 5.5t124 20.5l6 1q16 0 16 -16t-17 -19q-69 -13 -114 -18t-93 -5q-84 0 -122 16.5zM229 288q-20 19 -20 46
q0 28 20 47t47 19t46 -19t19 -47q0 -30 -19 -47.5t-46 -17.5t-47 19z" />
    <glyph glyph-name="uni1E36" unicode="&#x1e36;" horiz-adv-x="508" 
d="M122 16.5q-38 16.5 -50 57t-12 128.5q0 104 11 218.5t35 264.5q3 17 18 17q16 0 13 -20q-27 -186 -36 -279t-9 -201q0 -72 7.5 -105.5t36.5 -49.5t93 -16q49 0 93 5.5t124 20.5l6 1q16 0 16 -16t-17 -19q-69 -13 -114 -18t-93 -5q-84 0 -122 16.5zM223.5 -144
q-10.5 11 -10.5 28q0 16 10.5 26t27.5 10t27.5 -10t10.5 -26q0 -17 -10.5 -28t-27.5 -11t-27.5 11z" />
    <glyph glyph-name="uni1E38" unicode="&#x1e38;" horiz-adv-x="508" 
d="M122 16.5q-38 16.5 -50 57t-12 128.5q0 104 11 218.5t35 264.5q3 17 18 17q16 0 13 -20q-27 -186 -36 -279t-9 -201q0 -72 7.5 -105.5t36.5 -49.5t93 -16q49 0 93 5.5t124 20.5l6 1q16 0 16 -16t-17 -19q-69 -13 -114 -18t-93 -5q-84 0 -122 16.5zM223.5 -144
q-10.5 11 -10.5 28q0 16 10.5 26t27.5 10t27.5 -10t10.5 -26q0 -17 -10.5 -28t-27.5 -11t-27.5 11zM-36 783q-6 0 -9 3t-3 11q0 13 11 15q17 4 64.5 9t117.5 5l131 -1q17 0 17 -15q0 -7 -3.5 -10t-12.5 -3h-26q-24 1 -123 1q-71 0 -113.5 -7t-47.5 -8h-3z" />
    <glyph glyph-name="uni1E3A" unicode="&#x1e3a;" horiz-adv-x="508" 
d="M122 16.5q-38 16.5 -50 57t-12 128.5q0 104 11 218.5t35 264.5q3 17 18 17q16 0 13 -20q-27 -186 -36 -279t-9 -201q0 -72 7.5 -105.5t36.5 -49.5t93 -16q49 0 93 5.5t124 20.5l6 1q16 0 16 -16t-17 -19q-69 -13 -114 -18t-93 -5q-84 0 -122 16.5zM109.5 -135.5
q-3.5 3.5 -3.5 11.5q0 13 10 14q72 9 180 9q35 0 73 -2q12 -1 30 -1q17 0 17 -15q0 -13 -16 -13l-25 1q-57 3 -80 3q-52 0 -143 -8q-25 -3 -36 -3q-3 0 -6.5 3.5z" />
    <glyph glyph-name="Lslash" unicode="&#x141;" horiz-adv-x="508" 
d="M452 58q16 0 16 -16t-17 -19q-69 -13 -114 -18t-93 -5q-84 0 -122 16.5t-50 57t-12 128.5q0 30 2 90l-24 -19q-11 -8 -18 -8q-6 0 -12 6q-3 3 -3 8q0 9 14 21l45 36q10 153 42 349q3 17 18 17q16 0 13 -20q-29 -197 -40 -319l169 136q8 6 15 6q6 0 11 -5q2 -2 2 -7
q0 -13 -10 -20l-189 -154q-3 -57 -3 -117q0 -72 7.5 -105.5t36.5 -49.5t93 -16q49 0 93 5.5t124 20.5z" />
    <glyph glyph-name="M" unicode="M" horiz-adv-x="775" 
d="M694 150q1 -43 1 -138q0 -17 -15 -17q-10 0 -13 4.5t-3 12.5l-2 299q-1 171 -17.5 269.5t-44.5 98.5q-20 0 -57.5 -48t-62.5 -96q-26 -50 -43 -112t-33 -141q-1 -8 -5 -11t-11 -3q-9 0 -13 3t-6 11q-7 22 -17 63q-15 60 -26.5 101.5t-26.5 77.5q-24 58 -59 108t-58 50
q-32 0 -50.5 -104.5t-18.5 -254.5q0 -159 -1 -185v-124q0 -7 -4.5 -10.5t-10.5 -3.5t-11.5 3t-5.5 10q0 69 1 112l1 197q0 389 96 389q35 0 75.5 -49t76.5 -136t56 -195q16 105 55.5 192.5t85.5 137.5t78 50q88 0 88 -400z" />
    <glyph glyph-name="uni1E42" unicode="&#x1e42;" horiz-adv-x="775" 
d="M694 150q1 -43 1 -138q0 -17 -15 -17q-10 0 -13 4.5t-3 12.5l-2 299q-1 171 -17.5 269.5t-44.5 98.5q-20 0 -57.5 -48t-62.5 -96q-26 -50 -43 -112t-33 -141q-1 -8 -5 -11t-11 -3q-9 0 -13 3t-6 11q-7 22 -17 63q-15 60 -26.5 101.5t-26.5 77.5q-24 58 -59 108t-58 50
q-32 0 -50.5 -104.5t-18.5 -254.5q0 -159 -1 -185v-124q0 -7 -4.5 -10.5t-10.5 -3.5t-11.5 3t-5.5 10q0 69 1 112l1 197q0 389 96 389q35 0 75.5 -49t76.5 -136t56 -195q16 105 55.5 192.5t85.5 137.5t78 50q88 0 88 -400zM365.5 -144q-10.5 11 -10.5 28q0 16 10.5 26
t27.5 10t27.5 -10t10.5 -26q0 -17 -10.5 -28t-27.5 -11t-27.5 11z" />
    <glyph glyph-name="N" unicode="N" horiz-adv-x="710" 
d="M630 691l-1 -435q0 -105 -5 -156.5t-14.5 -68.5t-27.5 -17q-29 0 -98 97.5t-159 239.5q-169 265 -214 315v-54l1 -133q1 -37 1 -120q0 -146 1 -196v-140q0 -4 -5 -7.5t-11 -3.5t-11 3t-5 8v333q0 94 -1 136l-1 170q0 42 28 42q18 0 70 -72.5t130 -195.5q14 -24 24.5 -40
t17.5 -26q81 -125 140.5 -212t88.5 -110q8 18 13 62t5 144l-1 440q0 17 16 17q18 0 18 -20z" />
    <glyph glyph-name="Nacute" unicode="&#x143;" horiz-adv-x="710" 
d="M630 691l-1 -435q0 -105 -5 -156.5t-14.5 -68.5t-27.5 -17q-29 0 -98 97.5t-159 239.5q-169 265 -214 315v-54l1 -133q1 -37 1 -120q0 -146 1 -196v-140q0 -4 -5 -7.5t-11 -3.5t-11 3t-5 8v333q0 94 -1 136l-1 170q0 42 28 42q18 0 70 -72.5t130 -195.5q14 -24 24.5 -40
t17.5 -26q81 -125 140.5 -212t88.5 -110q8 18 13 62t5 144l-1 440q0 17 16 17q18 0 18 -20zM322.5 765.5q-3.5 3.5 -3.5 8.5q0 6 10 17l73 85q15 18 25 18q6 0 10 -4t4 -11q0 -5 -3.5 -9.5t-6.5 -7.5l-4 -4l-79 -86q-10 -10 -18 -10q-4 0 -7.5 3.5z" />
    <glyph glyph-name="Ncaron" unicode="&#x147;" horiz-adv-x="710" 
d="M630 691l-1 -435q0 -105 -5 -156.5t-14.5 -68.5t-27.5 -17q-29 0 -98 97.5t-159 239.5q-169 265 -214 315v-54l1 -133q1 -37 1 -120q0 -146 1 -196v-140q0 -4 -5 -7.5t-11 -3.5t-11 3t-5 8v333q0 94 -1 136l-1 170q0 42 28 42q18 0 70 -72.5t130 -195.5q14 -24 24.5 -40
t17.5 -26q81 -125 140.5 -212t88.5 -110q8 18 13 62t5 144l-1 440q0 17 16 17q18 0 18 -20zM486 908q4 -4 4 -8q0 -3 -4 -9q-31 -47 -67 -85.5t-60 -38.5q-17 0 -44 25t-62 64l-24 25q-6 6 -6 12q0 5 4.5 9.5t9.5 4.5q8 0 20 -15q35 -42 64 -70t39 -28q12 0 42 31.5t62 79.5
q5 7 13 7q5 0 9 -4z" />
    <glyph glyph-name="uni0145" unicode="&#x145;" horiz-adv-x="710" 
d="M630 691l-1 -435q0 -105 -5 -156.5t-14.5 -68.5t-27.5 -17q-29 0 -98 97.5t-159 239.5q-169 265 -214 315v-54l1 -133q1 -37 1 -120q0 -146 1 -196v-140q0 -4 -5 -7.5t-11 -3.5t-11 3t-5 8v333q0 94 -1 136l-1 170q0 42 28 42q18 0 70 -72.5t130 -195.5q14 -24 24.5 -40
t17.5 -26q81 -125 140.5 -212t88.5 -110q8 18 13 62t5 144l-1 440q0 17 16 17q18 0 18 -20zM386.5 -92.5q12.5 -12.5 12.5 -29.5q0 -30 -21 -64t-59 -65q-8 -6 -11 -6q-4 0 -7.5 3.5t-3.5 8.5q0 3 4 7q49 49 60 74h-5q-16 0 -29 12.5t-13 29.5q0 18 13 30t30 12t29.5 -12.5z
" />
    <glyph glyph-name="uni1E44" unicode="&#x1e44;" horiz-adv-x="710" 
d="M630 691l-1 -435q0 -105 -5 -156.5t-14.5 -68.5t-27.5 -17q-29 0 -98 97.5t-159 239.5q-169 265 -214 315v-54l1 -133q1 -37 1 -120q0 -146 1 -196v-140q0 -4 -5 -7.5t-11 -3.5t-11 3t-5 8v333q0 94 -1 136l-1 170q0 42 28 42q18 0 70 -72.5t130 -195.5q14 -24 24.5 -40
t17.5 -26q81 -125 140.5 -212t88.5 -110q8 18 13 62t5 144l-1 440q0 17 16 17q18 0 18 -20zM330.5 798q-10.5 11 -10.5 28q0 16 10.5 26t27.5 10t27.5 -10t10.5 -26q0 -17 -10.5 -28t-27.5 -11t-27.5 11z" />
    <glyph glyph-name="uni1E46" unicode="&#x1e46;" horiz-adv-x="710" 
d="M630 691l-1 -435q0 -105 -5 -156.5t-14.5 -68.5t-27.5 -17q-29 0 -98 97.5t-159 239.5q-169 265 -214 315v-54l1 -133q1 -37 1 -120q0 -146 1 -196v-140q0 -4 -5 -7.5t-11 -3.5t-11 3t-5 8v333q0 94 -1 136l-1 170q0 42 28 42q18 0 70 -72.5t130 -195.5q14 -24 24.5 -40
t17.5 -26q81 -125 140.5 -212t88.5 -110q8 18 13 62t5 144l-1 440q0 17 16 17q18 0 18 -20zM331.5 -144q-10.5 11 -10.5 28q0 16 10.5 26t27.5 10t27.5 -10t10.5 -26q0 -17 -10.5 -28t-27.5 -11t-27.5 11z" />
    <glyph glyph-name="Eng" unicode="&#x14a;" horiz-adv-x="710" 
d="M629 256q0 -44 -2 -98l-1 -161q-1 -114 -45 -173.5t-112 -59.5q-52 0 -88.5 33t-36.5 86q0 13 3 17.5t12 4.5q17 0 17 -18q0 -50 25.5 -73t64.5 -23q61 0 94.5 55t34.5 151v19q-8 -2 -13 -2q-29 0 -98 97.5t-159 239.5q-169 265 -214 315v-54l1 -133q1 -37 1 -120
q0 -146 1 -196v-140q0 -4 -5 -7.5t-11 -3.5t-11 3t-5 8v333q0 94 -1 136l-1 170q0 42 28 42q18 0 70 -72.5t130 -195.5q14 -24 24.5 -40t17.5 -26q81 -125 140.5 -212t88.5 -110q14 31 17 126l1 198l-1 322q0 17 16 17q18 0 18 -20z" />
    <glyph glyph-name="uni1E48" unicode="&#x1e48;" horiz-adv-x="710" 
d="M630 691l-1 -435q0 -105 -5 -156.5t-14.5 -68.5t-27.5 -17q-29 0 -98 97.5t-159 239.5q-169 265 -214 315v-54l1 -133q1 -37 1 -120q0 -146 1 -196v-140q0 -4 -5 -7.5t-11 -3.5t-11 3t-5 8v333q0 94 -1 136l-1 170q0 42 28 42q18 0 70 -72.5t130 -195.5q14 -24 24.5 -40
t17.5 -26q81 -125 140.5 -212t88.5 -110q8 18 13 62t5 144l-1 440q0 17 16 17q18 0 18 -20zM217.5 -135.5q-3.5 3.5 -3.5 11.5q0 13 10 14q72 9 180 9q35 0 73 -2q12 -1 30 -1q17 0 17 -15q0 -13 -16 -13l-25 1q-57 3 -80 3q-52 0 -143 -8q-25 -3 -36 -3q-3 0 -6.5 3.5z" />
    <glyph glyph-name="Ntilde" unicode="&#xd1;" horiz-adv-x="710" 
d="M630 691l-1 -435q0 -105 -5 -156.5t-14.5 -68.5t-27.5 -17q-29 0 -98 97.5t-159 239.5q-169 265 -214 315v-54l1 -133q1 -37 1 -120q0 -146 1 -196v-140q0 -4 -5 -7.5t-11 -3.5t-11 3t-5 8v333q0 94 -1 136l-1 170q0 42 28 42q18 0 70 -72.5t130 -195.5q14 -24 24.5 -40
t17.5 -26q81 -125 140.5 -212t88.5 -110q8 18 13 62t5 144l-1 440q0 17 16 17q18 0 18 -20zM214 790q0 5 5 10q21 26 36.5 37t39.5 11q42 0 80 -20q3 -2 16.5 -9t25.5 -11t21 -4q19 0 39 22q9 10 15 10q3 0 8.5 -5.5t5.5 -9.5q0 -6 -4 -10q-18 -18 -33 -26t-33 -8
q-14 0 -29 6.5t-17 7.5q-18 10 -29 13q-6 2 -29 11t-37 9q-10 0 -19.5 -7t-18 -16t-12.5 -13q-11 -11 -18 -11q-5 0 -8 3q-5 5 -5 10z" />
    <glyph glyph-name="O" unicode="O" horiz-adv-x="766" 
d="M217 43.5q-74 33.5 -120.5 107.5t-46.5 190q0 105 39.5 188t112 129.5t168.5 46.5t175 -46.5t125 -130.5t46 -191q0 -112 -49 -185.5t-126.5 -107.5t-164.5 -34q-85 0 -159 33.5zM522 71q70 30 116.5 97t46.5 171q0 96 -41 172.5t-112.5 119.5t-158.5 43
q-84 0 -150.5 -40.5t-104 -115.5t-37.5 -173q0 -112 46.5 -180t114.5 -96t137 -28q73 0 143 30z" />
    <glyph glyph-name="Oacute" unicode="&#xd3;" horiz-adv-x="766" 
d="M217 43.5q-74 33.5 -120.5 107.5t-46.5 190q0 105 39.5 188t112 129.5t168.5 46.5t175 -46.5t125 -130.5t46 -191q0 -112 -49 -185.5t-126.5 -107.5t-164.5 -34q-85 0 -159 33.5zM522 71q70 30 116.5 97t46.5 171q0 96 -41 172.5t-112.5 119.5t-158.5 43
q-84 0 -150.5 -40.5t-104 -115.5t-37.5 -173q0 -112 46.5 -180t114.5 -96t137 -28q73 0 143 30zM347.5 765.5q-3.5 3.5 -3.5 8.5q0 6 10 17l73 85q15 18 25 18q6 0 10 -4t4 -11q0 -5 -3.5 -9.5t-6.5 -7.5l-4 -4l-79 -86q-10 -10 -18 -10q-4 0 -7.5 3.5z" />
    <glyph glyph-name="Obreve" unicode="&#x14e;" horiz-adv-x="766" 
d="M217 43.5q-74 33.5 -120.5 107.5t-46.5 190q0 105 39.5 188t112 129.5t168.5 46.5t175 -46.5t125 -130.5t46 -191q0 -112 -49 -185.5t-126.5 -107.5t-164.5 -34q-85 0 -159 33.5zM522 71q70 30 116.5 97t46.5 171q0 96 -41 172.5t-112.5 119.5t-158.5 43
q-84 0 -150.5 -40.5t-104 -115.5t-37.5 -173q0 -112 46.5 -180t114.5 -96t137 -28q73 0 143 30zM309.5 793.5q-32.5 16.5 -50 43t-17.5 55.5q0 5 3 8.5t8 3.5q17 0 17 -10q0 -39 34 -64.5t80 -25.5q27 0 51.5 13t39.5 33.5t15 40.5q0 8 6 12t12 4q5 0 9 -3t4 -9
q0 -29 -19 -56.5t-50.5 -44.5t-67.5 -17q-42 0 -74.5 16.5z" />
    <glyph glyph-name="uni01D1" unicode="&#x1d1;" horiz-adv-x="766" 
d="M217 43.5q-74 33.5 -120.5 107.5t-46.5 190q0 105 39.5 188t112 129.5t168.5 46.5t175 -46.5t125 -130.5t46 -191q0 -112 -49 -185.5t-126.5 -107.5t-164.5 -34q-85 0 -159 33.5zM522 71q70 30 116.5 97t46.5 171q0 96 -41 172.5t-112.5 119.5t-158.5 43
q-84 0 -150.5 -40.5t-104 -115.5t-37.5 -173q0 -112 46.5 -180t114.5 -96t137 -28q73 0 143 30zM511 908q4 -4 4 -8q0 -3 -4 -9q-31 -47 -67 -85.5t-60 -38.5q-17 0 -44 25t-62 64l-24 25q-6 6 -6 12q0 5 4.5 9.5t9.5 4.5q8 0 20 -15q35 -42 64 -70t39 -28q12 0 42 31.5
t62 79.5q5 7 13 7q5 0 9 -4z" />
    <glyph glyph-name="Ocircumflex" unicode="&#xd4;" horiz-adv-x="766" 
d="M217 43.5q-74 33.5 -120.5 107.5t-46.5 190q0 105 39.5 188t112 129.5t168.5 46.5t175 -46.5t125 -130.5t46 -191q0 -112 -49 -185.5t-126.5 -107.5t-164.5 -34q-85 0 -159 33.5zM522 71q70 30 116.5 97t46.5 171q0 96 -41 172.5t-112.5 119.5t-158.5 43
q-84 0 -150.5 -40.5t-104 -115.5t-37.5 -173q0 -112 46.5 -180t114.5 -96t137 -28q73 0 143 30zM489 779q-32 48 -62 79.5t-42 31.5q-10 0 -39 -28t-64 -70q-12 -15 -20 -15q-5 0 -9.5 4.5t-4.5 9.5q0 6 6 12l24 25q35 39 62 64t44 25q24 0 60 -38.5t67 -85.5q4 -6 4 -9
q0 -4 -4 -8t-9 -4q-8 0 -13 7z" />
    <glyph glyph-name="uni1ED0" unicode="&#x1ed0;" horiz-adv-x="766" 
d="M217 43.5q-74 33.5 -120.5 107.5t-46.5 190q0 105 39.5 188t112 129.5t168.5 46.5t175 -46.5t125 -130.5t46 -191q0 -112 -49 -185.5t-126.5 -107.5t-164.5 -34q-85 0 -159 33.5zM522 71q70 30 116.5 97t46.5 171q0 96 -41 172.5t-112.5 119.5t-158.5 43
q-84 0 -150.5 -40.5t-104 -115.5t-37.5 -173q0 -112 46.5 -180t114.5 -96t137 -28q73 0 143 30zM482.5 883.5q-3.5 3.5 -3.5 8.5q0 7 9 17l57 59q8 8 13.5 12.5t10.5 4.5t9.5 -4t4.5 -11q0 -5 -3 -9t-6 -7l-4 -4l-63 -60q-5 -6 -9 -8t-8 -2t-7.5 3.5zM489 780
q-32 48 -62 79.5t-42 31.5q-10 0 -39 -28t-64 -70q-13 -15 -20 -15q-5 0 -9.5 4.5t-4.5 9.5q0 6 6 12l24 25q35 39 62 64t44 25q24 0 60 -38.5t67 -85.5q4 -6 4 -9q0 -4 -4 -8t-9 -4q-8 0 -13 7z" />
    <glyph glyph-name="uni1ED8" unicode="&#x1ed8;" horiz-adv-x="766" 
d="M217 43.5q-74 33.5 -120.5 107.5t-46.5 190q0 105 39.5 188t112 129.5t168.5 46.5t175 -46.5t125 -130.5t46 -191q0 -112 -49 -185.5t-126.5 -107.5t-164.5 -34q-85 0 -159 33.5zM522 71q70 30 116.5 97t46.5 171q0 96 -41 172.5t-112.5 119.5t-158.5 43
q-84 0 -150.5 -40.5t-104 -115.5t-37.5 -173q0 -112 46.5 -180t114.5 -96t137 -28q73 0 143 30zM356.5 -144q-10.5 11 -10.5 28q0 16 10.5 26t27.5 10t27.5 -10t10.5 -26q0 -17 -10.5 -28t-27.5 -11t-27.5 11zM489 779q-32 48 -62 79.5t-42 31.5q-10 0 -39 -28t-64 -70
q-12 -15 -20 -15q-5 0 -9.5 4.5t-4.5 9.5q0 6 6 12l24 25q35 39 62 64t44 25q24 0 60 -38.5t67 -85.5q4 -6 4 -9q0 -4 -4 -8t-9 -4q-8 0 -13 7z" />
    <glyph glyph-name="uni1ED2" unicode="&#x1ed2;" horiz-adv-x="766" 
d="M217 43.5q-74 33.5 -120.5 107.5t-46.5 190q0 105 39.5 188t112 129.5t168.5 46.5t175 -46.5t125 -130.5t46 -191q0 -112 -49 -185.5t-126.5 -107.5t-164.5 -34q-85 0 -159 33.5zM522 71q70 30 116.5 97t46.5 171q0 96 -41 172.5t-112.5 119.5t-158.5 43
q-84 0 -150.5 -40.5t-104 -115.5t-37.5 -173q0 -112 46.5 -180t114.5 -96t137 -28q73 0 143 30zM534 882q-4 2 -9 8l-63 60l-5.5 5.5t-6 7.5t-1.5 7q0 7 4 11t10 4q5 0 10.5 -4.5t13.5 -12.5l57 -59q9 -10 9 -17q0 -5 -3.5 -8.5t-7.5 -3.5t-8 2zM489 780q-32 48 -62 79.5
t-42 31.5q-10 0 -39 -28t-64 -70q-13 -15 -20 -15q-5 0 -9.5 4.5t-4.5 9.5q0 6 6 12l24 25q35 39 62 64t44 25q24 0 60 -38.5t67 -85.5q4 -6 4 -9q0 -4 -4 -8t-9 -4q-8 0 -13 7z" />
    <glyph glyph-name="uni1ED4" unicode="&#x1ed4;" horiz-adv-x="766" 
d="M217 43.5q-74 33.5 -120.5 107.5t-46.5 190q0 105 39.5 188t112 129.5t168.5 46.5t175 -46.5t125 -130.5t46 -191q0 -112 -49 -185.5t-126.5 -107.5t-164.5 -34q-85 0 -159 33.5zM522 71q70 30 116.5 97t46.5 171q0 96 -41 172.5t-112.5 119.5t-158.5 43
q-84 0 -150.5 -40.5t-104 -115.5t-37.5 -173q0 -112 46.5 -180t114.5 -96t137 -28q73 0 143 30zM517.5 877q-3.5 3 -3.5 8v28q0 9 5.5 15.5t17.5 16.5q11 9 16.5 15.5t5.5 14.5q0 15 -9.5 21t-31.5 6q-18 0 -29.5 -8.5t-15.5 -20.5q-2 -5 -9 -5q-12 0 -12 9q0 16 18.5 31
t49.5 15q30 0 46 -12.5t16 -36.5q0 -13 -8 -22.5t-21 -19.5q-16 -12 -16 -19v-27q0 -12 -13 -12q-3 0 -6.5 3zM489 780q-32 48 -62 79.5t-42 31.5q-10 0 -39 -28t-64 -70q-13 -15 -20 -15q-5 0 -9.5 4.5t-4.5 9.5q0 6 6 12l24 25q35 39 62 64t44 25q24 0 60 -38.5t67 -85.5
q4 -6 4 -9q0 -4 -4 -8t-9 -4q-8 0 -13 7z" />
    <glyph glyph-name="uni1ED6" unicode="&#x1ed6;" horiz-adv-x="766" 
d="M217 43.5q-74 33.5 -120.5 107.5t-46.5 190q0 105 39.5 188t112 129.5t168.5 46.5t175 -46.5t125 -130.5t46 -191q0 -112 -49 -185.5t-126.5 -107.5t-164.5 -34q-85 0 -159 33.5zM522 71q70 30 116.5 97t46.5 171q0 96 -41 172.5t-112.5 119.5t-158.5 43
q-84 0 -150.5 -40.5t-104 -115.5t-37.5 -173q0 -112 46.5 -180t114.5 -96t137 -28q73 0 143 30zM246 946q-5 5 -5 10t5 10q21 26 37 37t39 11q28 0 80 -22q8 -3 28 -13t35 -10q9 0 16.5 4.5t13.5 10t9 7.5q2 2 6.5 6t8.5 4q6 0 10 -4.5t4 -9.5q0 -6 -5 -11
q-18 -18 -32.5 -25.5t-32.5 -7.5q-14 0 -26 4.5t-26 11.5t-23 11q-13 6 -33.5 12t-32.5 6t-22.5 -7.5t-18 -15.5t-10.5 -11q-11 -11 -17 -11q-5 0 -8 3zM489 780q-32 48 -62 79.5t-42 31.5q-10 0 -39 -28t-64 -70q-13 -15 -20 -15q-5 0 -9.5 4.5t-4.5 9.5q0 6 6 12l24 25
q35 39 62 64t44 25q24 0 60 -38.5t67 -85.5q4 -6 4 -9q0 -4 -4 -8t-9 -4q-8 0 -13 7z" />
    <glyph glyph-name="Odieresis" unicode="&#xd6;" horiz-adv-x="766" 
d="M217 43.5q-74 33.5 -120.5 107.5t-46.5 190q0 105 39.5 188t112 129.5t168.5 46.5t175 -46.5t125 -130.5t46 -191q0 -112 -49 -185.5t-126.5 -107.5t-164.5 -34q-85 0 -159 33.5zM522 71q70 30 116.5 97t46.5 171q0 96 -41 172.5t-112.5 119.5t-158.5 43
q-84 0 -150.5 -40.5t-104 -115.5t-37.5 -173q0 -112 46.5 -180t114.5 -96t137 -28q73 0 143 30zM248.5 798q-10.5 11 -10.5 28q0 16 10.5 26t27.5 10t28 -10t11 -26q0 -17 -11 -28t-28 -11t-27.5 11zM464.5 798q-10.5 11 -10.5 28q0 16 10.5 26t27.5 10t27.5 -10t10.5 -26
q0 -17 -10.5 -28t-27.5 -11t-27.5 11z" />
    <glyph glyph-name="uni1ECC" unicode="&#x1ecc;" horiz-adv-x="766" 
d="M217 43.5q-74 33.5 -120.5 107.5t-46.5 190q0 105 39.5 188t112 129.5t168.5 46.5t175 -46.5t125 -130.5t46 -191q0 -112 -49 -185.5t-126.5 -107.5t-164.5 -34q-85 0 -159 33.5zM522 71q70 30 116.5 97t46.5 171q0 96 -41 172.5t-112.5 119.5t-158.5 43
q-84 0 -150.5 -40.5t-104 -115.5t-37.5 -173q0 -112 46.5 -180t114.5 -96t137 -28q73 0 143 30zM356.5 -144q-10.5 11 -10.5 28q0 16 10.5 26t27.5 10t27.5 -10t10.5 -26q0 -17 -10.5 -28t-27.5 -11t-27.5 11z" />
    <glyph glyph-name="Ograve" unicode="&#xd2;" horiz-adv-x="766" 
d="M217 43.5q-74 33.5 -120.5 107.5t-46.5 190q0 105 39.5 188t112 129.5t168.5 46.5t175 -46.5t125 -130.5t46 -191q0 -112 -49 -185.5t-126.5 -107.5t-164.5 -34q-85 0 -159 33.5zM522 71q70 30 116.5 97t46.5 171q0 96 -41 172.5t-112.5 119.5t-158.5 43
q-84 0 -150.5 -40.5t-104 -115.5t-37.5 -173q0 -112 46.5 -180t114.5 -96t137 -28q73 0 143 30zM417 772l-79 86l-5.5 5.5t-6.5 8t-2 7.5q0 7 4 11t10 4q10 0 25 -18l73 -85q10 -11 10 -17q0 -5 -3.5 -8.5t-7.5 -3.5q-8 0 -18 10z" />
    <glyph glyph-name="uni1ECE" unicode="&#x1ece;" horiz-adv-x="766" 
d="M217 43.5q-74 33.5 -120.5 107.5t-46.5 190q0 105 39.5 188t112 129.5t168.5 46.5t175 -46.5t125 -130.5t46 -191q0 -112 -49 -185.5t-126.5 -107.5t-164.5 -34q-85 0 -159 33.5zM522 71q70 30 116.5 97t46.5 171q0 96 -41 172.5t-112.5 119.5t-158.5 43
q-84 0 -150.5 -40.5t-104 -115.5t-37.5 -173q0 -112 46.5 -180t114.5 -96t137 -28q73 0 143 30zM378 770.5q-4 4.5 -4 10.5v38q0 12 8 21t27 26q18 14 27.5 25t9.5 24q0 22 -18.5 34.5t-50.5 12.5q-48 0 -75 -50q-4 -8 -13 -8q-5 0 -10 4.5t-5 10.5q0 5 4 11q14 25 37.5 41
t63.5 16q47 0 71 -18.5t24 -54.5q0 -19 -11.5 -34t-32.5 -31q-12 -9 -18 -15.5t-6 -12.5q-1 -15 -1 -37q0 -18 -17 -18q-6 0 -10 4.5z" />
    <glyph glyph-name="Ohorn" unicode="&#x1a0;" horiz-adv-x="776" 
d="M750.5 581q-15.5 -47 -70.5 -73q36 -78 36 -171q0 -112 -49 -185.5t-126.5 -107.5t-164.5 -34q-85 0 -159 33.5t-120.5 107.5t-46.5 190q0 105 39.5 188t112 129.5t168.5 46.5q94 0 172.5 -45.5t123.5 -125.5q41 21 55.5 59t14.5 88q0 13 16 13q14 0 14 -13
q0 -53 -15.5 -100zM522 71q70 30 116.5 97t46.5 171q0 96 -41 172.5t-112.5 119.5t-158.5 43q-84 0 -150.5 -40.5t-104 -115.5t-37.5 -173q0 -112 46.5 -180t114.5 -96t137 -28q73 0 143 30z" />
    <glyph glyph-name="uni1EDA" unicode="&#x1eda;" horiz-adv-x="776" 
d="M750.5 581q-15.5 -47 -70.5 -73q36 -78 36 -171q0 -112 -49 -185.5t-126.5 -107.5t-164.5 -34q-85 0 -159 33.5t-120.5 107.5t-46.5 190q0 105 39.5 188t112 129.5t168.5 46.5q94 0 172.5 -45.5t123.5 -125.5q41 21 55.5 59t14.5 88q0 13 16 13q14 0 14 -13
q0 -53 -15.5 -100zM522 71q70 30 116.5 97t46.5 171q0 96 -41 172.5t-112.5 119.5t-158.5 43q-84 0 -150.5 -40.5t-104 -115.5t-37.5 -173q0 -112 46.5 -180t114.5 -96t137 -28q73 0 143 30zM347.5 765.5q-3.5 3.5 -3.5 8.5q0 6 10 17l73 85q15 18 25 18q6 0 10 -4t4 -11
q0 -5 -3.5 -9.5t-6.5 -7.5l-4 -4l-79 -86q-10 -10 -18 -10q-4 0 -7.5 3.5z" />
    <glyph glyph-name="uni1EE2" unicode="&#x1ee2;" horiz-adv-x="776" 
d="M750.5 581q-15.5 -47 -70.5 -73q36 -78 36 -171q0 -112 -49 -185.5t-126.5 -107.5t-164.5 -34q-85 0 -159 33.5t-120.5 107.5t-46.5 190q0 105 39.5 188t112 129.5t168.5 46.5q94 0 172.5 -45.5t123.5 -125.5q41 21 55.5 59t14.5 88q0 13 16 13q14 0 14 -13
q0 -53 -15.5 -100zM522 71q70 30 116.5 97t46.5 171q0 96 -41 172.5t-112.5 119.5t-158.5 43q-84 0 -150.5 -40.5t-104 -115.5t-37.5 -173q0 -112 46.5 -180t114.5 -96t137 -28q73 0 143 30zM356.5 -144q-10.5 11 -10.5 28q0 16 10.5 26t27.5 10t27.5 -10t10.5 -26
q0 -17 -10.5 -28t-27.5 -11t-27.5 11z" />
    <glyph glyph-name="uni1EDC" unicode="&#x1edc;" horiz-adv-x="776" 
d="M750.5 581q-15.5 -47 -70.5 -73q36 -78 36 -171q0 -112 -49 -185.5t-126.5 -107.5t-164.5 -34q-85 0 -159 33.5t-120.5 107.5t-46.5 190q0 105 39.5 188t112 129.5t168.5 46.5q94 0 172.5 -45.5t123.5 -125.5q41 21 55.5 59t14.5 88q0 13 16 13q14 0 14 -13
q0 -53 -15.5 -100zM522 71q70 30 116.5 97t46.5 171q0 96 -41 172.5t-112.5 119.5t-158.5 43q-84 0 -150.5 -40.5t-104 -115.5t-37.5 -173q0 -112 46.5 -180t114.5 -96t137 -28q73 0 143 30zM417 772l-79 86l-5.5 5.5t-6.5 8t-2 7.5q0 7 4 11t10 4q10 0 25 -18l73 -85
q10 -11 10 -17q0 -5 -3.5 -8.5t-7.5 -3.5q-8 0 -18 10z" />
    <glyph glyph-name="uni1EDE" unicode="&#x1ede;" horiz-adv-x="776" 
d="M750.5 581q-15.5 -47 -70.5 -73q36 -78 36 -171q0 -112 -49 -185.5t-126.5 -107.5t-164.5 -34q-85 0 -159 33.5t-120.5 107.5t-46.5 190q0 105 39.5 188t112 129.5t168.5 46.5q94 0 172.5 -45.5t123.5 -125.5q41 21 55.5 59t14.5 88q0 13 16 13q14 0 14 -13
q0 -53 -15.5 -100zM522 71q70 30 116.5 97t46.5 171q0 96 -41 172.5t-112.5 119.5t-158.5 43q-84 0 -150.5 -40.5t-104 -115.5t-37.5 -173q0 -112 46.5 -180t114.5 -96t137 -28q73 0 143 30zM378 770.5q-4 4.5 -4 10.5v38q0 12 8 21t27 26q18 14 27.5 25t9.5 24
q0 22 -18.5 34.5t-50.5 12.5q-48 0 -75 -50q-4 -8 -13 -8q-5 0 -10 4.5t-5 10.5q0 5 4 11q14 25 37.5 41t63.5 16q47 0 71 -18.5t24 -54.5q0 -19 -11.5 -34t-32.5 -31q-12 -9 -18 -15.5t-6 -12.5q-1 -15 -1 -37q0 -18 -17 -18q-6 0 -10 4.5z" />
    <glyph glyph-name="uni1EE0" unicode="&#x1ee0;" horiz-adv-x="776" 
d="M750.5 581q-15.5 -47 -70.5 -73q36 -78 36 -171q0 -112 -49 -185.5t-126.5 -107.5t-164.5 -34q-85 0 -159 33.5t-120.5 107.5t-46.5 190q0 105 39.5 188t112 129.5t168.5 46.5q94 0 172.5 -45.5t123.5 -125.5q41 21 55.5 59t14.5 88q0 13 16 13q14 0 14 -13
q0 -53 -15.5 -100zM522 71q70 30 116.5 97t46.5 171q0 96 -41 172.5t-112.5 119.5t-158.5 43q-84 0 -150.5 -40.5t-104 -115.5t-37.5 -173q0 -112 46.5 -180t114.5 -96t137 -28q73 0 143 30zM239 790q0 5 5 10q21 26 36.5 37t39.5 11q42 0 80 -20q3 -2 16.5 -9t25.5 -11
t21 -4q19 0 39 22q9 10 15 10q3 0 8.5 -5.5t5.5 -9.5q0 -6 -4 -10q-18 -18 -33 -26t-33 -8q-14 0 -29 6.5t-17 7.5q-18 10 -29 13q-6 2 -29 11t-37 9q-10 0 -19.5 -7t-18 -16t-12.5 -13q-11 -11 -18 -11q-5 0 -8 3q-5 5 -5 10z" />
    <glyph glyph-name="Ohungarumlaut" unicode="&#x150;" horiz-adv-x="766" 
d="M217 43.5q-74 33.5 -120.5 107.5t-46.5 190q0 105 39.5 188t112 129.5t168.5 46.5t175 -46.5t125 -130.5t46 -191q0 -112 -49 -185.5t-126.5 -107.5t-164.5 -34q-85 0 -159 33.5zM522 71q70 30 116.5 97t46.5 171q0 96 -41 172.5t-112.5 119.5t-158.5 43
q-84 0 -150.5 -40.5t-104 -115.5t-37.5 -173q0 -112 46.5 -180t114.5 -96t137 -28q73 0 143 30zM273.5 765.5q-3.5 3.5 -3.5 8.5q0 6 10 17l73 85q15 18 25 18q5 0 9.5 -4t4.5 -11q0 -5 -3.5 -9.5t-6.5 -7.5l-4 -4l-79 -86q-10 -10 -18 -10q-4 0 -7.5 3.5zM372.5 765.5
q-3.5 3.5 -3.5 8.5q0 6 10 17l73 85q15 18 25 18q6 0 10 -4t4 -11q0 -5 -3.5 -9.5t-6.5 -7.5l-4 -4l-79 -86q-10 -10 -18 -10q-4 0 -7.5 3.5z" />
    <glyph glyph-name="Omacron" unicode="&#x14c;" horiz-adv-x="766" 
d="M217 43.5q-74 33.5 -120.5 107.5t-46.5 190q0 105 39.5 188t112 129.5t168.5 46.5t175 -46.5t125 -130.5t46 -191q0 -112 -49 -185.5t-126.5 -107.5t-164.5 -34q-85 0 -159 33.5zM522 71q70 30 116.5 97t46.5 171q0 96 -41 172.5t-112.5 119.5t-158.5 43
q-84 0 -150.5 -40.5t-104 -115.5t-37.5 -173q0 -112 46.5 -180t114.5 -96t137 -28q73 0 143 30zM221 783q-6 0 -9 3t-3 11q0 13 11 15q17 4 64.5 9t117.5 5l131 -1q17 0 17 -15q0 -7 -3.5 -10t-12.5 -3h-26q-24 1 -123 1q-71 0 -113.5 -7t-47.5 -8h-3z" />
    <glyph glyph-name="Oslash" unicode="&#xd8;" horiz-adv-x="766" 
d="M685.5 496q30.5 -72 30.5 -159q0 -112 -49 -185.5t-126.5 -107.5t-164.5 -34q-63 0 -121 18.5t-103 56.5l-67 -79q-6 -6 -10 -9.5t-9 -3.5t-10.5 3.5t-5.5 8.5t8 15l73 86q-81 86 -81 235q0 105 39.5 188t112 129.5t168.5 46.5q58 0 111.5 -18t96.5 -51l65 76q5 6 9.5 10
t9.5 4t9.5 -4t4.5 -10q0 -5 -8 -14l-68 -80q55 -50 85.5 -122zM153 132l406 480q-81 62 -186 62q-84 0 -150.5 -40.5t-104 -115.5t-37.5 -173q0 -134 72 -213zM522 71q70 30 116.5 97t46.5 171q0 78 -27.5 143.5t-77.5 111.5l-406 -482q43 -37 97.5 -54t107.5 -17
q73 0 143 30z" />
    <glyph glyph-name="Oslashacute" unicode="&#x1fe;" horiz-adv-x="766" 
d="M685.5 496q30.5 -72 30.5 -159q0 -112 -49 -185.5t-126.5 -107.5t-164.5 -34q-63 0 -121 18.5t-103 56.5l-67 -79q-6 -6 -10 -9.5t-9 -3.5t-10.5 3.5t-5.5 8.5t8 15l73 86q-81 86 -81 235q0 105 39.5 188t112 129.5t168.5 46.5q58 0 111.5 -18t96.5 -51l65 76q5 6 9.5 10
t9.5 4t9.5 -4t4.5 -10q0 -5 -8 -14l-68 -80q55 -50 85.5 -122zM153 132l406 480q-81 62 -186 62q-84 0 -150.5 -40.5t-104 -115.5t-37.5 -173q0 -134 72 -213zM522 71q70 30 116.5 97t46.5 171q0 78 -27.5 143.5t-77.5 111.5l-406 -482q43 -37 97.5 -54t107.5 -17
q73 0 143 30zM347.5 765.5q-3.5 3.5 -3.5 8.5q0 6 10 17l73 85q15 18 25 18q6 0 10 -4t4 -11q0 -5 -3.5 -9.5t-6.5 -7.5l-4 -4l-79 -86q-10 -10 -18 -10q-4 0 -7.5 3.5z" />
    <glyph glyph-name="Otilde" unicode="&#xd5;" horiz-adv-x="766" 
d="M217 43.5q-74 33.5 -120.5 107.5t-46.5 190q0 105 39.5 188t112 129.5t168.5 46.5t175 -46.5t125 -130.5t46 -191q0 -112 -49 -185.5t-126.5 -107.5t-164.5 -34q-85 0 -159 33.5zM522 71q70 30 116.5 97t46.5 171q0 96 -41 172.5t-112.5 119.5t-158.5 43
q-84 0 -150.5 -40.5t-104 -115.5t-37.5 -173q0 -112 46.5 -180t114.5 -96t137 -28q73 0 143 30zM239 790q0 5 5 10q21 26 36.5 37t39.5 11q42 0 80 -20q3 -2 16.5 -9t25.5 -11t21 -4q19 0 39 22q9 10 15 10q3 0 8.5 -5.5t5.5 -9.5q0 -6 -4 -10q-18 -18 -33 -26t-33 -8
q-14 0 -29 6.5t-17 7.5q-18 10 -29 13q-6 2 -29 11t-37 9q-10 0 -19.5 -7t-18 -16t-12.5 -13q-11 -11 -18 -11q-5 0 -8 3q-5 5 -5 10z" />
    <glyph glyph-name="OE" unicode="&#x152;" horiz-adv-x="944" 
d="M683 666q-63 0 -92 -3q4 -28 7 -77.5t3 -75.5v-71v-54q55 0 139 -4l64 -2q14 0 14 -12q0 -6 -4.5 -10.5t-12.5 -4.5l-65 1q-60 3 -137 3l-1 -34q-2 -56 -6 -125.5t-11 -141.5l87 -6q33 -1 85 -5q30 -2 41 -2q26 0 85 8h6q13 0 13 -12q0 -9 -5 -12t-16 -5q-18 -3 -55 -4.5
t-65 -0.5l-28 1q-120 6 -188 6q-18 0 -24.5 3.5t-6.5 12.5t7 12.5t28 3.5q7 52 12 116q-18 -81 -83 -121t-162 -40q-114 0 -188 81t-74 255q0 108 32 192t91.5 131t140.5 47q100 0 169 -63.5t87 -165.5l-1 23q-4 82 -11 152q-16 0 -16 14q0 15 22 15q20 0 76 2q45 3 89 3
q58 0 91.5 -1t73.5 -8q10 -2 10 -13q0 -9 -5.5 -13.5t-12.5 -3.5q-77 9 -153 9h-50zM495 111.5q66 69.5 66 228.5q0 101 -28.5 179t-84.5 121.5t-135 43.5q-67 0 -118 -41.5t-79 -117.5t-28 -177q0 -166 65.5 -236t163.5 -70q112 0 178 69.5z" />
    <glyph glyph-name="P" unicode="P" horiz-adv-x="580" 
d="M411.5 678q61.5 -26 100 -76.5t38.5 -118.5q0 -63 -33.5 -109.5t-93 -71.5t-135.5 -25q-98 0 -162 40l-3 -303q0 -20 -17 -20q-9 0 -12.5 6t-3.5 24q0 35 2 107q2 96 2 209q0 103 -4 223q-2 38 -2 52l-16 -9q-4 -2 -7 -2q-7 0 -11 6t-4 11q0 7 5 10q27 15 32 17v36
q0 11 3.5 16t13.5 5q17 0 17 -16v-24q83 39 161 39q68 0 129.5 -26zM407 331.5q55 23.5 83.5 63.5t28.5 90q0 54 -33 97t-88 67t-119 24q-44 0 -81.5 -10.5t-76.5 -29.5q0 -25 2 -63l1 -66l1 -95q1 -26 1 -61q40 -23 76.5 -31.5t75.5 -8.5q74 0 129 23.5z" />
    <glyph glyph-name="Thorn" unicode="&#xde;" horiz-adv-x="617" 
d="M448.5 606.5q60.5 -25.5 99.5 -75.5t39 -119q0 -63 -33.5 -110t-91 -72t-127.5 -25q-93 0 -172 33l-3 -228q0 -7 -4.5 -11.5t-10.5 -4.5q-9 0 -13.5 4.5t-4.5 16.5q0 6 2.5 31.5t2.5 133.5q0 65 -1 102q-1 76 -11 260l-14 -7q-4 -2 -6 -2q-4 0 -8 3.5t-4 9.5t6 10l24 15
l-2 37q-7 124 -9 134v2q0 6 5 11.5t12 5.5q17 0 18 -16l5 -80q2 -53 4 -78q94 45 174 45q63 0 123.5 -25.5zM441 258.5q52 22.5 83 64t31 93.5q0 54 -33 96t-87.5 65.5t-117.5 23.5q-45 0 -84.5 -11.5t-80.5 -31.5q4 -67 6 -133l1 -39q4 -100 4 -116q47 -17 84.5 -25.5
t81.5 -8.5q60 0 112 22.5z" />
    <glyph glyph-name="Q" unicode="Q" horiz-adv-x="755" 
d="M690 54q6 -6 6 -13t-4.5 -12t-11.5 -5t-12 5l-73 72q-46 -41 -106.5 -63.5t-128.5 -22.5q-94 0 -164 42t-108 118t-38 175q0 113 47.5 194.5t122.5 123t154 41.5q81 0 157.5 -43t125 -122.5t48.5 -184.5q0 -70 -22.5 -129.5t-63.5 -104.5zM475 66.5q55 20.5 97 58.5
l-94 93q-4 4 -4 9q0 8 7 13t13 5q5 0 8 -3l94 -94q37 42 57.5 95t20.5 113q0 96 -43.5 169.5t-112 113t-140.5 39.5q-73 0 -141.5 -38.5t-112 -113.5t-43.5 -178q0 -86 34.5 -155t98 -108t146.5 -39q60 0 115 20.5z" />
    <glyph glyph-name="R" unicode="R" horiz-adv-x="614" 
d="M550 33q0 -7 -5 -12.5t-11 -5.5t-17 8l-382 272l-1 -283q0 -16 -17 -16q-9 0 -12.5 5.5t-3.5 22.5l1 104q2 88 2 175q0 72 -5 222l-3 81l-15 -7q-4 -2 -7 -2q-7 0 -10.5 7.5t-3.5 13.5q0 8 12 14l23 10q-1 15 -1 45q0 14 15 14q16 0 16 -13v-32q56 24 95.5 33.5t84.5 9.5
q78 0 136.5 -24.5t90.5 -70t32 -106.5q0 -68 -38.5 -114t-100.5 -68.5t-133 -22.5q-64 0 -133 24l383 -270q8 -5 8 -14zM222 656.5q-42 -11.5 -96 -36.5q2 -66 4 -100q4 -96 5 -164q70 -32 151 -32q63 0 119.5 19.5t92 58t35.5 94.5q0 49 -29 88.5t-80 61.5t-117 22
q-43 0 -85 -11.5z" />
    <glyph glyph-name="Racute" unicode="&#x154;" horiz-adv-x="614" 
d="M550 33q0 -7 -5 -12.5t-11 -5.5t-17 8l-382 272l-1 -283q0 -16 -17 -16q-9 0 -12.5 5.5t-3.5 22.5l1 104q2 88 2 175q0 72 -5 222l-3 81l-15 -7q-4 -2 -7 -2q-7 0 -10.5 7.5t-3.5 13.5q0 8 12 14l23 10q-1 15 -1 45q0 14 15 14q16 0 16 -13v-32q56 24 95.5 33.5t84.5 9.5
q78 0 136.5 -24.5t90.5 -70t32 -106.5q0 -68 -38.5 -114t-100.5 -68.5t-133 -22.5q-64 0 -133 24l383 -270q8 -5 8 -14zM222 656.5q-42 -11.5 -96 -36.5q2 -66 4 -100q4 -96 5 -164q70 -32 151 -32q63 0 119.5 19.5t92 58t35.5 94.5q0 49 -29 88.5t-80 61.5t-117 22
q-43 0 -85 -11.5zM289.5 765.5q-3.5 3.5 -3.5 8.5q0 6 10 17l73 85q15 18 25 18q6 0 10 -4t4 -11q0 -5 -3.5 -9.5t-6.5 -7.5l-4 -4l-79 -86q-10 -10 -18 -10q-4 0 -7.5 3.5z" />
    <glyph glyph-name="Rcaron" unicode="&#x158;" horiz-adv-x="614" 
d="M550 33q0 -7 -5 -12.5t-11 -5.5t-17 8l-382 272l-1 -283q0 -16 -17 -16q-9 0 -12.5 5.5t-3.5 22.5l1 104q2 88 2 175q0 72 -5 222l-3 81l-15 -7q-4 -2 -7 -2q-7 0 -10.5 7.5t-3.5 13.5q0 8 12 14l23 10q-1 15 -1 45q0 14 15 14q16 0 16 -13v-32q56 24 95.5 33.5t84.5 9.5
q78 0 136.5 -24.5t90.5 -70t32 -106.5q0 -68 -38.5 -114t-100.5 -68.5t-133 -22.5q-64 0 -133 24l383 -270q8 -5 8 -14zM222 656.5q-42 -11.5 -96 -36.5q2 -66 4 -100q4 -96 5 -164q70 -32 151 -32q63 0 119.5 19.5t92 58t35.5 94.5q0 49 -29 88.5t-80 61.5t-117 22
q-43 0 -85 -11.5zM453 908q4 -4 4 -8q0 -3 -4 -9q-31 -47 -67 -85.5t-60 -38.5q-17 0 -44 25t-62 64l-24 25q-6 6 -6 12q0 5 4.5 9.5t9.5 4.5q8 0 20 -15q35 -42 64 -70t39 -28q12 0 42 31.5t62 79.5q5 7 13 7q5 0 9 -4z" />
    <glyph glyph-name="uni0156" unicode="&#x156;" horiz-adv-x="614" 
d="M550 33q0 -7 -5 -12.5t-11 -5.5t-17 8l-382 272l-1 -283q0 -16 -17 -16q-9 0 -12.5 5.5t-3.5 22.5l1 104q2 88 2 175q0 72 -5 222l-3 81l-15 -7q-4 -2 -7 -2q-7 0 -10.5 7.5t-3.5 13.5q0 8 12 14l23 10q-1 15 -1 45q0 14 15 14q16 0 16 -13v-32q56 24 95.5 33.5t84.5 9.5
q78 0 136.5 -24.5t90.5 -70t32 -106.5q0 -68 -38.5 -114t-100.5 -68.5t-133 -22.5q-64 0 -133 24l383 -270q8 -5 8 -14zM222 656.5q-42 -11.5 -96 -36.5q2 -66 4 -100q4 -96 5 -164q70 -32 151 -32q63 0 119.5 19.5t92 58t35.5 94.5q0 49 -29 88.5t-80 61.5t-117 22
q-43 0 -85 -11.5zM353.5 -92.5q12.5 -12.5 12.5 -29.5q0 -30 -21 -64t-59 -65q-8 -6 -11 -6q-4 0 -7.5 3.5t-3.5 8.5q0 3 4 7q49 49 60 74h-5q-16 0 -29 12.5t-13 29.5q0 18 13 30t30 12t29.5 -12.5z" />
    <glyph glyph-name="uni1E5A" unicode="&#x1e5a;" horiz-adv-x="614" 
d="M550 33q0 -7 -5 -12.5t-11 -5.5t-17 8l-382 272l-1 -283q0 -16 -17 -16q-9 0 -12.5 5.5t-3.5 22.5l1 104q2 88 2 175q0 72 -5 222l-3 81l-15 -7q-4 -2 -7 -2q-7 0 -10.5 7.5t-3.5 13.5q0 8 12 14l23 10q-1 15 -1 45q0 14 15 14q16 0 16 -13v-32q56 24 95.5 33.5t84.5 9.5
q78 0 136.5 -24.5t90.5 -70t32 -106.5q0 -68 -38.5 -114t-100.5 -68.5t-133 -22.5q-64 0 -133 24l383 -270q8 -5 8 -14zM222 656.5q-42 -11.5 -96 -36.5q2 -66 4 -100q4 -96 5 -164q70 -32 151 -32q63 0 119.5 19.5t92 58t35.5 94.5q0 49 -29 88.5t-80 61.5t-117 22
q-43 0 -85 -11.5zM298.5 -144q-10.5 11 -10.5 28q0 16 10.5 26t27.5 10t27.5 -10t10.5 -26q0 -17 -10.5 -28t-27.5 -11t-27.5 11z" />
    <glyph glyph-name="uni1E5C" unicode="&#x1e5c;" horiz-adv-x="614" 
d="M550 33q0 -7 -5 -12.5t-11 -5.5t-17 8l-382 272l-1 -283q0 -16 -17 -16q-9 0 -12.5 5.5t-3.5 22.5l1 104q2 88 2 175q0 72 -5 222l-3 81l-15 -7q-4 -2 -7 -2q-7 0 -10.5 7.5t-3.5 13.5q0 8 12 14l23 10q-1 15 -1 45q0 14 15 14q16 0 16 -13v-32q56 24 95.5 33.5t84.5 9.5
q78 0 136.5 -24.5t90.5 -70t32 -106.5q0 -68 -38.5 -114t-100.5 -68.5t-133 -22.5q-64 0 -133 24l383 -270q8 -5 8 -14zM222 656.5q-42 -11.5 -96 -36.5q2 -66 4 -100q4 -96 5 -164q70 -32 151 -32q63 0 119.5 19.5t92 58t35.5 94.5q0 49 -29 88.5t-80 61.5t-117 22
q-43 0 -85 -11.5zM298.5 -144q-10.5 11 -10.5 28q0 16 10.5 26t27.5 10t27.5 -10t10.5 -26q0 -17 -10.5 -28t-27.5 -11t-27.5 11zM163 783q-6 0 -9 3t-3 11q0 13 11 15q17 4 64.5 9t117.5 5l131 -1q17 0 17 -15q0 -7 -3.5 -10t-12.5 -3h-26q-24 1 -123 1q-71 0 -113.5 -7
t-47.5 -8h-3z" />
    <glyph glyph-name="uni1E5E" unicode="&#x1e5e;" horiz-adv-x="614" 
d="M550 33q0 -7 -5 -12.5t-11 -5.5t-17 8l-382 272l-1 -283q0 -16 -17 -16q-9 0 -12.5 5.5t-3.5 22.5l1 104q2 88 2 175q0 72 -5 222l-3 81l-15 -7q-4 -2 -7 -2q-7 0 -10.5 7.5t-3.5 13.5q0 8 12 14l23 10q-1 15 -1 45q0 14 15 14q16 0 16 -13v-32q56 24 95.5 33.5t84.5 9.5
q78 0 136.5 -24.5t90.5 -70t32 -106.5q0 -68 -38.5 -114t-100.5 -68.5t-133 -22.5q-64 0 -133 24l383 -270q8 -5 8 -14zM222 656.5q-42 -11.5 -96 -36.5q2 -66 4 -100q4 -96 5 -164q70 -32 151 -32q63 0 119.5 19.5t92 58t35.5 94.5q0 49 -29 88.5t-80 61.5t-117 22
q-43 0 -85 -11.5zM184.5 -135.5q-3.5 3.5 -3.5 11.5q0 13 10 14q72 9 180 9q35 0 73 -2q12 -1 30 -1q17 0 17 -15q0 -13 -16 -13l-25 1q-57 3 -80 3q-52 0 -143 -8q-25 -3 -36 -3q-3 0 -6.5 3.5z" />
    <glyph glyph-name="S" unicode="S" horiz-adv-x="504" 
d="M149 30q-48 28 -72.5 75t-24.5 104q0 18 16 18q15 0 15 -16q0 -83 47.5 -130.5t134.5 -47.5q72 0 115 35t43 100q0 68 -45 105.5t-136 62.5q-54 14 -93 31.5t-69 55t-30 97.5q0 55 28 97.5t75 65.5t102 23q64 0 107.5 -26t64.5 -68.5t21 -92.5q0 -6 -3.5 -10.5
t-11.5 -4.5q-16 0 -16 15q0 69 -45.5 112.5t-116.5 43.5q-54 0 -93.5 -20.5t-60 -56t-20.5 -78.5q0 -48 24.5 -77.5t61.5 -46t100 -35.5q53 -16 91.5 -35t67 -57.5t28.5 -99.5q0 -77 -52.5 -122t-136.5 -45q-68 0 -116 28z" />
    <glyph glyph-name="Sacute" unicode="&#x15a;" horiz-adv-x="504" 
d="M149 30q-48 28 -72.5 75t-24.5 104q0 18 16 18q15 0 15 -16q0 -83 47.5 -130.5t134.5 -47.5q72 0 115 35t43 100q0 68 -45 105.5t-136 62.5q-54 14 -93 31.5t-69 55t-30 97.5q0 55 28 97.5t75 65.5t102 23q64 0 107.5 -26t64.5 -68.5t21 -92.5q0 -6 -3.5 -10.5
t-11.5 -4.5q-16 0 -16 15q0 69 -45.5 112.5t-116.5 43.5q-54 0 -93.5 -20.5t-60 -56t-20.5 -78.5q0 -48 24.5 -77.5t61.5 -46t100 -35.5q53 -16 91.5 -35t67 -57.5t28.5 -99.5q0 -77 -52.5 -122t-136.5 -45q-68 0 -116 28zM222.5 765.5q-3.5 3.5 -3.5 8.5q0 6 10 17l73 85
q15 18 25 18q6 0 10 -4t4 -11q0 -5 -3.5 -9.5t-6.5 -7.5l-4 -4l-79 -86q-10 -10 -18 -10q-4 0 -7.5 3.5z" />
    <glyph glyph-name="Scaron" unicode="&#x160;" horiz-adv-x="504" 
d="M149 30q-48 28 -72.5 75t-24.5 104q0 18 16 18q15 0 15 -16q0 -83 47.5 -130.5t134.5 -47.5q72 0 115 35t43 100q0 68 -45 105.5t-136 62.5q-54 14 -93 31.5t-69 55t-30 97.5q0 55 28 97.5t75 65.5t102 23q64 0 107.5 -26t64.5 -68.5t21 -92.5q0 -6 -3.5 -10.5
t-11.5 -4.5q-16 0 -16 15q0 69 -45.5 112.5t-116.5 43.5q-54 0 -93.5 -20.5t-60 -56t-20.5 -78.5q0 -48 24.5 -77.5t61.5 -46t100 -35.5q53 -16 91.5 -35t67 -57.5t28.5 -99.5q0 -77 -52.5 -122t-136.5 -45q-68 0 -116 28zM386 908q4 -4 4 -8q0 -3 -4 -9q-31 -47 -67 -85.5
t-60 -38.5q-17 0 -44 25t-62 64l-24 25q-6 6 -6 12q0 5 4.5 9.5t9.5 4.5q8 0 20 -15q35 -42 64 -70t39 -28q12 0 42 31.5t62 79.5q5 7 13 7q5 0 9 -4z" />
    <glyph glyph-name="Scedilla" unicode="&#x15e;" horiz-adv-x="504" 
d="M278 1l-41 -64q42 -9 67.5 -28t25.5 -48q0 -45 -34 -68.5t-82 -23.5q-27 0 -69 14q-6 2 -8.5 7t-1.5 10q1 6 6 8.5t13 0.5q14 -4 31.5 -8t32.5 -4q35 0 57.5 13.5t22.5 43.5q0 26 -23.5 39t-66.5 20q-19 3 -16 14l50 76q-91 7 -140.5 65t-49.5 141q0 18 16 18
q15 0 15 -16q0 -83 47.5 -130.5t134.5 -47.5q72 0 115 35t43 100q0 68 -45 105.5t-136 62.5q-54 14 -93 31.5t-69 55t-30 97.5q0 55 28 97.5t75 65.5t102 23q64 0 107.5 -26t64.5 -68.5t21 -92.5q0 -6 -3.5 -10.5t-11.5 -4.5q-16 0 -16 15q0 69 -45.5 112.5t-116.5 43.5
q-54 0 -93.5 -20.5t-60 -56t-20.5 -78.5q0 -48 24.5 -77.5t61.5 -46t100 -35.5q53 -16 91.5 -35t67 -57.5t28.5 -99.5q0 -74 -48 -118.5t-127 -48.5z" />
    <glyph glyph-name="Scircumflex" unicode="&#x15c;" horiz-adv-x="504" 
d="M149 30q-48 28 -72.5 75t-24.5 104q0 18 16 18q15 0 15 -16q0 -83 47.5 -130.5t134.5 -47.5q72 0 115 35t43 100q0 68 -45 105.5t-136 62.5q-54 14 -93 31.5t-69 55t-30 97.5q0 55 28 97.5t75 65.5t102 23q64 0 107.5 -26t64.5 -68.5t21 -92.5q0 -6 -3.5 -10.5
t-11.5 -4.5q-16 0 -16 15q0 69 -45.5 112.5t-116.5 43.5q-54 0 -93.5 -20.5t-60 -56t-20.5 -78.5q0 -48 24.5 -77.5t61.5 -46t100 -35.5q53 -16 91.5 -35t67 -57.5t28.5 -99.5q0 -77 -52.5 -122t-136.5 -45q-68 0 -116 28zM364 779q-32 48 -62 79.5t-42 31.5q-10 0 -39 -28
t-64 -70q-12 -15 -20 -15q-5 0 -9.5 4.5t-4.5 9.5q0 6 6 12l24 25q35 39 62 64t44 25q24 0 60 -38.5t67 -85.5q4 -6 4 -9q0 -4 -4 -8t-9 -4q-8 0 -13 7z" />
    <glyph glyph-name="uni0218" unicode="&#x218;" horiz-adv-x="504" 
d="M149 30q-48 28 -72.5 75t-24.5 104q0 18 16 18q15 0 15 -16q0 -83 47.5 -130.5t134.5 -47.5q72 0 115 35t43 100q0 68 -45 105.5t-136 62.5q-54 14 -93 31.5t-69 55t-30 97.5q0 55 28 97.5t75 65.5t102 23q64 0 107.5 -26t64.5 -68.5t21 -92.5q0 -6 -3.5 -10.5
t-11.5 -4.5q-16 0 -16 15q0 69 -45.5 112.5t-116.5 43.5q-54 0 -93.5 -20.5t-60 -56t-20.5 -78.5q0 -48 24.5 -77.5t61.5 -46t100 -35.5q53 -16 91.5 -35t67 -57.5t28.5 -99.5q0 -77 -52.5 -122t-136.5 -45q-68 0 -116 28zM286.5 -92.5q12.5 -12.5 12.5 -29.5q0 -30 -21 -64
t-59 -65q-8 -6 -11 -6q-4 0 -7.5 3.5t-3.5 8.5q0 3 4 7q49 49 60 74h-5q-16 0 -29 12.5t-13 29.5q0 18 13 30t30 12t29.5 -12.5z" />
    <glyph glyph-name="uni1E60" unicode="&#x1e60;" horiz-adv-x="504" 
d="M149 30q-48 28 -72.5 75t-24.5 104q0 18 16 18q15 0 15 -16q0 -83 47.5 -130.5t134.5 -47.5q72 0 115 35t43 100q0 68 -45 105.5t-136 62.5q-54 14 -93 31.5t-69 55t-30 97.5q0 55 28 97.5t75 65.5t102 23q64 0 107.5 -26t64.5 -68.5t21 -92.5q0 -6 -3.5 -10.5
t-11.5 -4.5q-16 0 -16 15q0 69 -45.5 112.5t-116.5 43.5q-54 0 -93.5 -20.5t-60 -56t-20.5 -78.5q0 -48 24.5 -77.5t61.5 -46t100 -35.5q53 -16 91.5 -35t67 -57.5t28.5 -99.5q0 -77 -52.5 -122t-136.5 -45q-68 0 -116 28zM230.5 798q-10.5 11 -10.5 28q0 16 10.5 26
t27.5 10t27.5 -10t10.5 -26q0 -17 -10.5 -28t-27.5 -11t-27.5 11z" />
    <glyph glyph-name="uni1E62" unicode="&#x1e62;" horiz-adv-x="504" 
d="M149 30q-48 28 -72.5 75t-24.5 104q0 18 16 18q15 0 15 -16q0 -83 47.5 -130.5t134.5 -47.5q72 0 115 35t43 100q0 68 -45 105.5t-136 62.5q-54 14 -93 31.5t-69 55t-30 97.5q0 55 28 97.5t75 65.5t102 23q64 0 107.5 -26t64.5 -68.5t21 -92.5q0 -6 -3.5 -10.5
t-11.5 -4.5q-16 0 -16 15q0 69 -45.5 112.5t-116.5 43.5q-54 0 -93.5 -20.5t-60 -56t-20.5 -78.5q0 -48 24.5 -77.5t61.5 -46t100 -35.5q53 -16 91.5 -35t67 -57.5t28.5 -99.5q0 -77 -52.5 -122t-136.5 -45q-68 0 -116 28zM231.5 -144q-10.5 11 -10.5 28q0 16 10.5 26
t27.5 10t27.5 -10t10.5 -26q0 -17 -10.5 -28t-27.5 -11t-27.5 11z" />
    <glyph glyph-name="uni1E9E" unicode="&#x1e9e;" horiz-adv-x="613" 
d="M218 115q-10 17 -10 24q0 6 5 10.5t11 4.5t10 -4t8 -10t7 -10q27 -40 63.5 -70.5t88.5 -30.5q53 0 88 28.5t35 71.5q0 36 -24 64t-71 65q-37 30 -57.5 49.5t-35.5 47t-15 60.5q0 32 13 57t36 53q19 24 28.5 41t9.5 37q0 27 -19.5 51.5t-53 39.5t-74.5 15q-80 0 -108 -56
t-28 -156q0 -30 1 -68t2 -81q7 -224 7 -331q0 -9 -3.5 -13t-12.5 -4t-12 4t-3 13l-9 492q-2 91 30 161t131 70q45 0 87 -17t68 -49t26 -73q0 -28 -11 -47.5t-33 -44.5q-21 -26 -31 -43t-10 -42q0 -39 23.5 -68t73.5 -70q52 -42 79 -76t27 -80q0 -58 -44.5 -95t-110.5 -37
q-111 0 -182 117z" />
    <glyph glyph-name="uni018F" unicode="&#x18f;" horiz-adv-x="750" 
d="M201.5 34q-71.5 40 -111.5 103.5t-40 130.5q0 30 8.5 43t35.5 14l566 14q7 0 7 6q0 95 -38.5 166t-108.5 109.5t-161 38.5q-77 0 -131 -26t-82 -58t-51 -69q-2 -4 -6 -4q-5 0 -12 4.5t-7 9.5t7 19q46 76 120 116t169 40q107 0 182.5 -48.5t113.5 -127t38 -167.5
q0 -98 -43.5 -179t-120.5 -128t-173 -47q-90 0 -161.5 40zM523 69q69 46 106.5 112t37.5 124q0 4 -1.5 5.5t-5.5 1.5l-562 -13q-12 0 -16 -6.5t-4 -24.5q0 -62 38.5 -119t104.5 -91.5t142 -34.5q91 0 160 46z" />
    <glyph glyph-name="T" unicode="T" horiz-adv-x="517" 
d="M487 670q0 -6 -3.5 -11t-10.5 -4q-99 8 -193 8q-12 -202 -16 -332l-3 -97q-5 -122 -7 -215q0 -19 -17 -19q-18 0 -18 15q0 22 2 60.5t3 63.5q5 98 8 191q4 125 16 333q-62 -1 -100 -3.5t-104 -8.5h-2q-5 0 -8.5 4.5t-3.5 11.5q0 14 12 15q105 12 237 12q108 0 192 -7
q16 -1 16 -17z" />
    <glyph glyph-name="Tbar" unicode="&#x166;" horiz-adv-x="517" 
d="M487 670q0 -6 -3.5 -11t-10.5 -4q-99 8 -193 8q-9 -139 -12 -216l123 -4q9 0 13.5 -3t4.5 -11q0 -16 -17 -16l-125 4l-3 -86l-3 -97q-5 -122 -7 -215q0 -19 -17 -19q-18 0 -18 15q0 22 2 60.5t3 63.5q5 98 8 191l3 89l-126 4q-7 0 -11 4.5t-4 10.5q0 7 5.5 10t11.5 3
l125 -4q3 70 12 216q-62 -1 -100 -3.5t-104 -8.5h-2q-5 0 -8.5 4.5t-3.5 11.5q0 14 12 15q105 12 237 12q108 0 192 -7q16 -1 16 -17z" />
    <glyph glyph-name="Tcaron" unicode="&#x164;" horiz-adv-x="517" 
d="M487 670q0 -6 -3.5 -11t-10.5 -4q-99 8 -193 8q-12 -202 -16 -332l-3 -97q-5 -122 -7 -215q0 -19 -17 -19q-18 0 -18 15q0 22 2 60.5t3 63.5q5 98 8 191q4 125 16 333q-62 -1 -100 -3.5t-104 -8.5h-2q-5 0 -8.5 4.5t-3.5 11.5q0 14 12 15q105 12 237 12q108 0 192 -7
q16 -1 16 -17zM385 908q4 -4 4 -8q0 -3 -4 -9q-31 -47 -67 -85.5t-60 -38.5q-17 0 -44 25t-62 64l-24 25q-6 6 -6 12q0 5 4.5 9.5t9.5 4.5q8 0 20 -15q35 -42 64 -70t39 -28q12 0 42 31.5t62 79.5q5 7 13 7q5 0 9 -4z" />
    <glyph glyph-name="uni0162" unicode="&#x162;" horiz-adv-x="517" 
d="M487 670q0 -6 -3.5 -11t-10.5 -4q-99 8 -193 8q-12 -202 -16 -332l-3 -97q-5 -122 -7 -215q0 -10 -4 -14l-2 -4l-41 -64q42 -9 67.5 -28t25.5 -48q0 -45 -34 -68.5t-82 -23.5q-27 0 -69 14q-6 2 -8.5 7t-1.5 10q1 6 6 8.5t13 0.5q14 -4 31.5 -8t32.5 -4q35 0 57.5 13.5
t22.5 43.5q0 26 -23.5 39t-66.5 20q-19 3 -16 14l56 85l1 1v2q0 22 2 60.5t3 63.5q5 98 8 191q4 125 16 333q-62 -1 -100 -3.5t-104 -8.5h-2q-5 0 -8.5 4.5t-3.5 11.5q0 14 12 15q105 12 237 12q108 0 192 -7q16 -1 16 -17z" />
    <glyph glyph-name="uni021A" unicode="&#x21a;" horiz-adv-x="517" 
d="M487 670q0 -6 -3.5 -11t-10.5 -4q-99 8 -193 8q-12 -202 -16 -332l-3 -97q-5 -122 -7 -215q0 -19 -17 -19q-18 0 -18 15q0 22 2 60.5t3 63.5q5 98 8 191q4 125 16 333q-62 -1 -100 -3.5t-104 -8.5h-2q-5 0 -8.5 4.5t-3.5 11.5q0 14 12 15q105 12 237 12q108 0 192 -7
q16 -1 16 -17zM256.5 -92.5q12.5 -12.5 12.5 -29.5q0 -30 -21 -64t-59 -65q-8 -6 -11 -6q-4 0 -7.5 3.5t-3.5 8.5q0 3 4 7q49 49 60 74h-5q-16 0 -29 12.5t-13 29.5q0 18 13 30t30 12t29.5 -12.5z" />
    <glyph glyph-name="uni1E6C" unicode="&#x1e6c;" horiz-adv-x="517" 
d="M487 670q0 -6 -3.5 -11t-10.5 -4q-99 8 -193 8q-12 -202 -16 -332l-3 -97q-5 -122 -7 -215q0 -19 -17 -19q-18 0 -18 15q0 22 2 60.5t3 63.5q5 98 8 191q4 125 16 333q-62 -1 -100 -3.5t-104 -8.5h-2q-5 0 -8.5 4.5t-3.5 11.5q0 14 12 15q105 12 237 12q108 0 192 -7
q16 -1 16 -17zM201.5 -144q-10.5 11 -10.5 28q0 16 10.5 26t27.5 10t27.5 -10t10.5 -26q0 -17 -10.5 -28t-27.5 -11t-27.5 11z" />
    <glyph glyph-name="uni1E6E" unicode="&#x1e6e;" horiz-adv-x="517" 
d="M487 670q0 -6 -3.5 -11t-10.5 -4q-99 8 -193 8q-12 -202 -16 -332l-3 -97q-5 -122 -7 -215q0 -19 -17 -19q-18 0 -18 15q0 22 2 60.5t3 63.5q5 98 8 191q4 125 16 333q-62 -1 -100 -3.5t-104 -8.5h-2q-5 0 -8.5 4.5t-3.5 11.5q0 14 12 15q105 12 237 12q108 0 192 -7
q16 -1 16 -17zM87.5 -135.5q-3.5 3.5 -3.5 11.5q0 13 10 14q72 9 180 9q35 0 73 -2q12 -1 30 -1q17 0 17 -15q0 -13 -16 -13l-25 1q-57 3 -80 3q-52 0 -143 -8q-25 -3 -36 -3q-3 0 -6.5 3.5z" />
    <glyph glyph-name="U" unicode="U" horiz-adv-x="613" 
d="M553 15q0 -16 -16 -16q-8 0 -12 4t-4 13v121q-32 -61 -93 -97.5t-145 -36.5q-83 0 -133 40t-70 98.5t-20 118.5q0 67 4 215q1 40 2 93.5t1 117.5q0 8 3.5 11t11.5 3q16 0 16 -16q0 -97 -3 -207q-1 -39 -2 -94.5t-1 -122.5q0 -106 51 -165.5t140 -59.5q81 0 134 33
t77.5 80.5t24.5 92.5l-1 124q-3 273 -3 324q0 9 2.5 13.5t11.5 4.5q17 0 17 -18q0 -50 2 -168l1 -116q4 -222 4 -390z" />
    <glyph glyph-name="Uacute" unicode="&#xda;" horiz-adv-x="613" 
d="M553 15q0 -16 -16 -16q-8 0 -12 4t-4 13v121q-32 -61 -93 -97.5t-145 -36.5q-83 0 -133 40t-70 98.5t-20 118.5q0 67 4 215q1 40 2 93.5t1 117.5q0 8 3.5 11t11.5 3q16 0 16 -16q0 -97 -3 -207q-1 -39 -2 -94.5t-1 -122.5q0 -106 51 -165.5t140 -59.5q81 0 134 33
t77.5 80.5t24.5 92.5l-1 124q-3 273 -3 324q0 9 2.5 13.5t11.5 4.5q17 0 17 -18q0 -50 2 -168l1 -116q4 -222 4 -390zM271.5 765.5q-3.5 3.5 -3.5 8.5q0 6 10 17l73 85q15 18 25 18q6 0 10 -4t4 -11q0 -5 -3.5 -9.5t-6.5 -7.5l-4 -4l-79 -86q-10 -10 -18 -10q-4 0 -7.5 3.5z
" />
    <glyph glyph-name="Ubreve" unicode="&#x16c;" horiz-adv-x="613" 
d="M553 15q0 -16 -16 -16q-8 0 -12 4t-4 13v121q-32 -61 -93 -97.5t-145 -36.5q-83 0 -133 40t-70 98.5t-20 118.5q0 67 4 215q1 40 2 93.5t1 117.5q0 8 3.5 11t11.5 3q16 0 16 -16q0 -97 -3 -207q-1 -39 -2 -94.5t-1 -122.5q0 -106 51 -165.5t140 -59.5q81 0 134 33
t77.5 80.5t24.5 92.5l-1 124q-3 273 -3 324q0 9 2.5 13.5t11.5 4.5q17 0 17 -18q0 -50 2 -168l1 -116q4 -222 4 -390zM233.5 793.5q-32.5 16.5 -50 43t-17.5 55.5q0 5 3 8.5t8 3.5q17 0 17 -10q0 -39 34 -64.5t80 -25.5q27 0 51.5 13t39.5 33.5t15 40.5q0 8 6 12t12 4
q5 0 9 -3t4 -9q0 -29 -19 -56.5t-50.5 -44.5t-67.5 -17q-42 0 -74.5 16.5z" />
    <glyph glyph-name="uni01D3" unicode="&#x1d3;" horiz-adv-x="613" 
d="M553 15q0 -16 -16 -16q-8 0 -12 4t-4 13v121q-32 -61 -93 -97.5t-145 -36.5q-83 0 -133 40t-70 98.5t-20 118.5q0 67 4 215q1 40 2 93.5t1 117.5q0 8 3.5 11t11.5 3q16 0 16 -16q0 -97 -3 -207q-1 -39 -2 -94.5t-1 -122.5q0 -106 51 -165.5t140 -59.5q81 0 134 33
t77.5 80.5t24.5 92.5l-1 124q-3 273 -3 324q0 9 2.5 13.5t11.5 4.5q17 0 17 -18q0 -50 2 -168l1 -116q4 -222 4 -390zM435 908q4 -4 4 -8q0 -3 -4 -9q-31 -47 -67 -85.5t-60 -38.5q-17 0 -44 25t-62 64l-24 25q-6 6 -6 12q0 5 4.5 9.5t9.5 4.5q8 0 20 -15q35 -42 64 -70
t39 -28q12 0 42 31.5t62 79.5q5 7 13 7q5 0 9 -4z" />
    <glyph glyph-name="Ucircumflex" unicode="&#xdb;" horiz-adv-x="613" 
d="M553 15q0 -16 -16 -16q-8 0 -12 4t-4 13v121q-32 -61 -93 -97.5t-145 -36.5q-83 0 -133 40t-70 98.5t-20 118.5q0 67 4 215q1 40 2 93.5t1 117.5q0 8 3.5 11t11.5 3q16 0 16 -16q0 -97 -3 -207q-1 -39 -2 -94.5t-1 -122.5q0 -106 51 -165.5t140 -59.5q81 0 134 33
t77.5 80.5t24.5 92.5l-1 124q-3 273 -3 324q0 9 2.5 13.5t11.5 4.5q17 0 17 -18q0 -50 2 -168l1 -116q4 -222 4 -390zM413 779q-32 48 -62 79.5t-42 31.5q-10 0 -39 -28t-64 -70q-12 -15 -20 -15q-5 0 -9.5 4.5t-4.5 9.5q0 6 6 12l24 25q35 39 62 64t44 25q24 0 60 -38.5
t67 -85.5q4 -6 4 -9q0 -4 -4 -8t-9 -4q-8 0 -13 7z" />
    <glyph glyph-name="Udieresis" unicode="&#xdc;" horiz-adv-x="613" 
d="M553 15q0 -16 -16 -16q-8 0 -12 4t-4 13v121q-32 -61 -93 -97.5t-145 -36.5q-83 0 -133 40t-70 98.5t-20 118.5q0 67 4 215q1 40 2 93.5t1 117.5q0 8 3.5 11t11.5 3q16 0 16 -16q0 -97 -3 -207q-1 -39 -2 -94.5t-1 -122.5q0 -106 51 -165.5t140 -59.5q81 0 134 33
t77.5 80.5t24.5 92.5l-1 124q-3 273 -3 324q0 9 2.5 13.5t11.5 4.5q17 0 17 -18q0 -50 2 -168l1 -116q4 -222 4 -390zM172.5 798q-10.5 11 -10.5 28q0 16 10.5 26t27.5 10t28 -10t11 -26q0 -17 -11 -28t-28 -11t-27.5 11zM388.5 798q-10.5 11 -10.5 28q0 16 10.5 26t27.5 10
t27.5 -10t10.5 -26q0 -17 -10.5 -28t-27.5 -11t-27.5 11z" />
    <glyph glyph-name="uni01D7" unicode="&#x1d7;" horiz-adv-x="613" 
d="M553 15q0 -16 -16 -16q-8 0 -12 4t-4 13v121q-32 -61 -93 -97.5t-145 -36.5q-83 0 -133 40t-70 98.5t-20 118.5q0 67 4 215q1 40 2 93.5t1 117.5q0 8 3.5 11t11.5 3q16 0 16 -16q0 -97 -3 -207q-1 -39 -2 -94.5t-1 -122.5q0 -106 51 -165.5t140 -59.5q81 0 134 33
t77.5 80.5t24.5 92.5l-1 124q-3 273 -3 324q0 9 2.5 13.5t11.5 4.5q17 0 17 -18q0 -50 2 -168l1 -116q4 -222 4 -390zM171.5 798q-10.5 11 -10.5 28q0 16 10.5 26t27.5 10t28 -10t11 -26q0 -17 -11 -28t-28 -11t-27.5 11zM387.5 798q-10.5 11 -10.5 28q0 16 10.5 26t27.5 10
t27.5 -10t10.5 -26q0 -17 -10.5 -28t-27.5 -11t-27.5 11zM287.5 882.5q-3.5 3.5 -3.5 8.5q0 6 10 17l73 85q15 18 25 18q6 0 10 -4t4 -11q0 -5 -3.5 -9.5t-6.5 -7.5l-4 -4l-79 -86q-10 -10 -18 -10q-4 0 -7.5 3.5z" />
    <glyph glyph-name="uni01D9" unicode="&#x1d9;" horiz-adv-x="613" 
d="M553 15q0 -16 -16 -16q-8 0 -12 4t-4 13v121q-32 -61 -93 -97.5t-145 -36.5q-83 0 -133 40t-70 98.5t-20 118.5q0 67 4 215q1 40 2 93.5t1 117.5q0 8 3.5 11t11.5 3q16 0 16 -16q0 -97 -3 -207q-1 -39 -2 -94.5t-1 -122.5q0 -106 51 -165.5t140 -59.5q81 0 134 33
t77.5 80.5t24.5 92.5l-1 124q-3 273 -3 324q0 9 2.5 13.5t11.5 4.5q17 0 17 -18q0 -50 2 -168l1 -116q4 -222 4 -390zM171.5 798q-10.5 11 -10.5 28q0 16 10.5 26t27.5 10t28 -10t11 -26q0 -17 -11 -28t-28 -11t-27.5 11zM387.5 798q-10.5 11 -10.5 28q0 16 10.5 26t27.5 10
t27.5 -10t10.5 -26q0 -17 -10.5 -28t-27.5 -11t-27.5 11zM435 1015q4 -4 4 -8q0 -3 -4 -9q-31 -47 -67 -85.5t-60 -38.5q-17 0 -44 25t-62 64l-24 25q-6 6 -6 12q0 5 4.5 9.5t9.5 4.5q8 0 20 -15q35 -42 64 -70t39 -28q12 0 42 31.5t62 79.5q5 7 13 7q5 0 9 -4z" />
    <glyph glyph-name="uni01DB" unicode="&#x1db;" horiz-adv-x="613" 
d="M553 15q0 -16 -16 -16q-8 0 -12 4t-4 13v121q-32 -61 -93 -97.5t-145 -36.5q-83 0 -133 40t-70 98.5t-20 118.5q0 67 4 215q1 40 2 93.5t1 117.5q0 8 3.5 11t11.5 3q16 0 16 -16q0 -97 -3 -207q-1 -39 -2 -94.5t-1 -122.5q0 -106 51 -165.5t140 -59.5q81 0 134 33
t77.5 80.5t24.5 92.5l-1 124q-3 273 -3 324q0 9 2.5 13.5t11.5 4.5q17 0 17 -18q0 -50 2 -168l1 -116q4 -222 4 -390zM171.5 798q-10.5 11 -10.5 28q0 16 10.5 26t27.5 10t28 -10t11 -26q0 -17 -11 -28t-28 -11t-27.5 11zM387.5 798q-10.5 11 -10.5 28q0 16 10.5 26t27.5 10
t27.5 -10t10.5 -26q0 -17 -10.5 -28t-27.5 -11t-27.5 11zM305 882l-79 86l-5.5 5.5t-6.5 8t-2 7.5q0 7 4 11t10 4q10 0 25 -18l73 -85q10 -11 10 -17q0 -5 -3.5 -8.5t-7.5 -3.5q-8 0 -18 10z" />
    <glyph glyph-name="uni01D5" unicode="&#x1d5;" horiz-adv-x="613" 
d="M553 15q0 -16 -16 -16q-8 0 -12 4t-4 13v121q-32 -61 -93 -97.5t-145 -36.5q-83 0 -133 40t-70 98.5t-20 118.5q0 67 4 215q1 40 2 93.5t1 117.5q0 8 3.5 11t11.5 3q16 0 16 -16q0 -97 -3 -207q-1 -39 -2 -94.5t-1 -122.5q0 -106 51 -165.5t140 -59.5q81 0 134 33
t77.5 80.5t24.5 92.5l-1 124q-3 273 -3 324q0 9 2.5 13.5t11.5 4.5q17 0 17 -18q0 -50 2 -168l1 -116q4 -222 4 -390zM171.5 798q-10.5 11 -10.5 28q0 16 10.5 26t27.5 10t28 -10t11 -26q0 -17 -11 -28t-28 -11t-27.5 11zM387.5 798q-10.5 11 -10.5 28q0 16 10.5 26t27.5 10
t27.5 -10t10.5 -26q0 -17 -10.5 -28t-27.5 -11t-27.5 11zM208 929q-27 0 -46 7q-7 2 -9.5 5.5t-2.5 11.5q0 16 18 12q33 -7 72 -7q23 0 69 4q48 4 75 4q9 0 29 -2t31 -2q8 0 12.5 -4.5t4.5 -10.5t-4 -9.5t-11 -3.5l-28 2q-20 2 -28 2q-32 0 -76 -4q-42 -4 -63 -4z" />
    <glyph glyph-name="uni1EE4" unicode="&#x1ee4;" horiz-adv-x="613" 
d="M553 15q0 -16 -16 -16q-8 0 -12 4t-4 13v121q-32 -61 -93 -97.5t-145 -36.5q-83 0 -133 40t-70 98.5t-20 118.5q0 67 4 215q1 40 2 93.5t1 117.5q0 8 3.5 11t11.5 3q16 0 16 -16q0 -97 -3 -207q-1 -39 -2 -94.5t-1 -122.5q0 -106 51 -165.5t140 -59.5q81 0 134 33
t77.5 80.5t24.5 92.5l-1 124q-3 273 -3 324q0 9 2.5 13.5t11.5 4.5q17 0 17 -18q0 -50 2 -168l1 -116q4 -222 4 -390zM280.5 -144q-10.5 11 -10.5 28q0 16 10.5 26t27.5 10t27.5 -10t10.5 -26q0 -17 -10.5 -28t-27.5 -11t-27.5 11z" />
    <glyph glyph-name="Ugrave" unicode="&#xd9;" horiz-adv-x="613" 
d="M553 15q0 -16 -16 -16q-8 0 -12 4t-4 13v121q-32 -61 -93 -97.5t-145 -36.5q-83 0 -133 40t-70 98.5t-20 118.5q0 67 4 215q1 40 2 93.5t1 117.5q0 8 3.5 11t11.5 3q16 0 16 -16q0 -97 -3 -207q-1 -39 -2 -94.5t-1 -122.5q0 -106 51 -165.5t140 -59.5q81 0 134 33
t77.5 80.5t24.5 92.5l-1 124q-3 273 -3 324q0 9 2.5 13.5t11.5 4.5q17 0 17 -18q0 -50 2 -168l1 -116q4 -222 4 -390zM341 772l-79 86l-5.5 5.5t-6.5 8t-2 7.5q0 7 4 11t10 4q10 0 25 -18l73 -85q10 -11 10 -17q0 -5 -3.5 -8.5t-7.5 -3.5q-8 0 -18 10z" />
    <glyph glyph-name="uni1EE6" unicode="&#x1ee6;" horiz-adv-x="613" 
d="M553 15q0 -16 -16 -16q-8 0 -12 4t-4 13v121q-32 -61 -93 -97.5t-145 -36.5q-83 0 -133 40t-70 98.5t-20 118.5q0 67 4 215q1 40 2 93.5t1 117.5q0 8 3.5 11t11.5 3q16 0 16 -16q0 -97 -3 -207q-1 -39 -2 -94.5t-1 -122.5q0 -106 51 -165.5t140 -59.5q81 0 134 33
t77.5 80.5t24.5 92.5l-1 124q-3 273 -3 324q0 9 2.5 13.5t11.5 4.5q17 0 17 -18q0 -50 2 -168l1 -116q4 -222 4 -390zM302 770.5q-4 4.5 -4 10.5v38q0 12 8 21t27 26q18 14 27.5 25t9.5 24q0 22 -18.5 34.5t-50.5 12.5q-48 0 -75 -50q-4 -8 -13 -8q-5 0 -10 4.5t-5 10.5
q0 5 4 11q14 25 37.5 41t63.5 16q47 0 71 -18.5t24 -54.5q0 -19 -11.5 -34t-32.5 -31q-12 -9 -18 -15.5t-6 -12.5q-1 -15 -1 -37q0 -18 -17 -18q-6 0 -10 4.5z" />
    <glyph glyph-name="Uhorn" unicode="&#x1af;" horiz-adv-x="659" 
d="M631 590.5q-18 -49.5 -83 -72.5l1 -113q4 -222 4 -390q0 -16 -16 -16q-8 0 -12 4t-4 13v121q-32 -61 -93 -97.5t-145 -36.5q-83 0 -133 40t-70 98.5t-20 118.5q0 67 4 215q1 40 2 93.5t1 117.5q0 8 3.5 11t11.5 3q16 0 16 -16q0 -97 -3 -207q-1 -39 -2 -94.5t-1 -122.5
q0 -106 51 -165.5t140 -59.5q81 0 134 33t77.5 80.5t24.5 92.5l-1 124q-3 273 -3 324q0 9 2.5 13.5t11.5 4.5q17 0 17 -18l1 -140q43 21 57.5 59.5t14.5 88.5q0 13 16 13q14 0 14 -13q0 -57 -18 -106.5z" />
    <glyph glyph-name="uni1EE8" unicode="&#x1ee8;" horiz-adv-x="659" 
d="M631 590.5q-18 -49.5 -83 -72.5l1 -113q4 -222 4 -390q0 -16 -16 -16q-8 0 -12 4t-4 13v121q-32 -61 -93 -97.5t-145 -36.5q-83 0 -133 40t-70 98.5t-20 118.5q0 67 4 215q1 40 2 93.5t1 117.5q0 8 3.5 11t11.5 3q16 0 16 -16q0 -97 -3 -207q-1 -39 -2 -94.5t-1 -122.5
q0 -106 51 -165.5t140 -59.5q81 0 134 33t77.5 80.5t24.5 92.5l-1 124q-3 273 -3 324q0 9 2.5 13.5t11.5 4.5q17 0 17 -18l1 -140q43 21 57.5 59.5t14.5 88.5q0 13 16 13q14 0 14 -13q0 -57 -18 -106.5zM271.5 765.5q-3.5 3.5 -3.5 8.5q0 6 10 17l73 85q15 18 25 18
q6 0 10 -4t4 -11q0 -5 -3.5 -9.5t-6.5 -7.5l-4 -4l-79 -86q-10 -10 -18 -10q-4 0 -7.5 3.5z" />
    <glyph glyph-name="uni1EF0" unicode="&#x1ef0;" horiz-adv-x="659" 
d="M631 590.5q-18 -49.5 -83 -72.5l1 -113q4 -222 4 -390q0 -16 -16 -16q-8 0 -12 4t-4 13v121q-32 -61 -93 -97.5t-145 -36.5q-83 0 -133 40t-70 98.5t-20 118.5q0 67 4 215q1 40 2 93.5t1 117.5q0 8 3.5 11t11.5 3q16 0 16 -16q0 -97 -3 -207q-1 -39 -2 -94.5t-1 -122.5
q0 -106 51 -165.5t140 -59.5q81 0 134 33t77.5 80.5t24.5 92.5l-1 124q-3 273 -3 324q0 9 2.5 13.5t11.5 4.5q17 0 17 -18l1 -140q43 21 57.5 59.5t14.5 88.5q0 13 16 13q14 0 14 -13q0 -57 -18 -106.5zM280.5 -144q-10.5 11 -10.5 28q0 16 10.5 26t27.5 10t27.5 -10
t10.5 -26q0 -17 -10.5 -28t-27.5 -11t-27.5 11z" />
    <glyph glyph-name="uni1EEA" unicode="&#x1eea;" horiz-adv-x="659" 
d="M631 590.5q-18 -49.5 -83 -72.5l1 -113q4 -222 4 -390q0 -16 -16 -16q-8 0 -12 4t-4 13v121q-32 -61 -93 -97.5t-145 -36.5q-83 0 -133 40t-70 98.5t-20 118.5q0 67 4 215q1 40 2 93.5t1 117.5q0 8 3.5 11t11.5 3q16 0 16 -16q0 -97 -3 -207q-1 -39 -2 -94.5t-1 -122.5
q0 -106 51 -165.5t140 -59.5q81 0 134 33t77.5 80.5t24.5 92.5l-1 124q-3 273 -3 324q0 9 2.5 13.5t11.5 4.5q17 0 17 -18l1 -140q43 21 57.5 59.5t14.5 88.5q0 13 16 13q14 0 14 -13q0 -57 -18 -106.5zM341 772l-79 86l-5.5 5.5t-6.5 8t-2 7.5q0 7 4 11t10 4q10 0 25 -18
l73 -85q10 -11 10 -17q0 -5 -3.5 -8.5t-7.5 -3.5q-8 0 -18 10z" />
    <glyph glyph-name="uni1EEC" unicode="&#x1eec;" horiz-adv-x="659" 
d="M631 590.5q-18 -49.5 -83 -72.5l1 -113q4 -222 4 -390q0 -16 -16 -16q-8 0 -12 4t-4 13v121q-32 -61 -93 -97.5t-145 -36.5q-83 0 -133 40t-70 98.5t-20 118.5q0 67 4 215q1 40 2 93.5t1 117.5q0 8 3.5 11t11.5 3q16 0 16 -16q0 -97 -3 -207q-1 -39 -2 -94.5t-1 -122.5
q0 -106 51 -165.5t140 -59.5q81 0 134 33t77.5 80.5t24.5 92.5l-1 124q-3 273 -3 324q0 9 2.5 13.5t11.5 4.5q17 0 17 -18l1 -140q43 21 57.5 59.5t14.5 88.5q0 13 16 13q14 0 14 -13q0 -57 -18 -106.5zM302 770.5q-4 4.5 -4 10.5v38q0 12 8 21t27 26q18 14 27.5 25t9.5 24
q0 22 -18.5 34.5t-50.5 12.5q-48 0 -75 -50q-4 -8 -13 -8q-5 0 -10 4.5t-5 10.5q0 5 4 11q14 25 37.5 41t63.5 16q47 0 71 -18.5t24 -54.5q0 -19 -11.5 -34t-32.5 -31q-12 -9 -18 -15.5t-6 -12.5q-1 -15 -1 -37q0 -18 -17 -18q-6 0 -10 4.5z" />
    <glyph glyph-name="uni1EEE" unicode="&#x1eee;" horiz-adv-x="659" 
d="M631 590.5q-18 -49.5 -83 -72.5l1 -113q4 -222 4 -390q0 -16 -16 -16q-8 0 -12 4t-4 13v121q-32 -61 -93 -97.5t-145 -36.5q-83 0 -133 40t-70 98.5t-20 118.5q0 67 4 215q1 40 2 93.5t1 117.5q0 8 3.5 11t11.5 3q16 0 16 -16q0 -97 -3 -207q-1 -39 -2 -94.5t-1 -122.5
q0 -106 51 -165.5t140 -59.5q81 0 134 33t77.5 80.5t24.5 92.5l-1 124q-3 273 -3 324q0 9 2.5 13.5t11.5 4.5q17 0 17 -18l1 -140q43 21 57.5 59.5t14.5 88.5q0 13 16 13q14 0 14 -13q0 -57 -18 -106.5zM163 790q0 5 5 10q21 26 36.5 37t39.5 11q42 0 80 -20q3 -2 16.5 -9
t25.5 -11t21 -4q19 0 39 22q9 10 15 10q3 0 8.5 -5.5t5.5 -9.5q0 -6 -4 -10q-18 -18 -33 -26t-33 -8q-14 0 -29 6.5t-17 7.5q-18 10 -29 13q-6 2 -29 11t-37 9q-10 0 -19.5 -7t-18 -16t-12.5 -13q-11 -11 -18 -11q-5 0 -8 3q-5 5 -5 10z" />
    <glyph glyph-name="Uhungarumlaut" unicode="&#x170;" horiz-adv-x="613" 
d="M553 15q0 -16 -16 -16q-8 0 -12 4t-4 13v121q-32 -61 -93 -97.5t-145 -36.5q-83 0 -133 40t-70 98.5t-20 118.5q0 67 4 215q1 40 2 93.5t1 117.5q0 8 3.5 11t11.5 3q16 0 16 -16q0 -97 -3 -207q-1 -39 -2 -94.5t-1 -122.5q0 -106 51 -165.5t140 -59.5q81 0 134 33
t77.5 80.5t24.5 92.5l-1 124q-3 273 -3 324q0 9 2.5 13.5t11.5 4.5q17 0 17 -18q0 -50 2 -168l1 -116q4 -222 4 -390zM197.5 765.5q-3.5 3.5 -3.5 8.5q0 6 10 17l73 85q15 18 25 18q5 0 9.5 -4t4.5 -11q0 -5 -3.5 -9.5t-6.5 -7.5l-4 -4l-79 -86q-10 -10 -18 -10
q-4 0 -7.5 3.5zM296.5 765.5q-3.5 3.5 -3.5 8.5q0 6 10 17l73 85q15 18 25 18q6 0 10 -4t4 -11q0 -5 -3.5 -9.5t-6.5 -7.5l-4 -4l-79 -86q-10 -10 -18 -10q-4 0 -7.5 3.5z" />
    <glyph glyph-name="Umacron" unicode="&#x16a;" horiz-adv-x="613" 
d="M553 15q0 -16 -16 -16q-8 0 -12 4t-4 13v121q-32 -61 -93 -97.5t-145 -36.5q-83 0 -133 40t-70 98.5t-20 118.5q0 67 4 215q1 40 2 93.5t1 117.5q0 8 3.5 11t11.5 3q16 0 16 -16q0 -97 -3 -207q-1 -39 -2 -94.5t-1 -122.5q0 -106 51 -165.5t140 -59.5q81 0 134 33
t77.5 80.5t24.5 92.5l-1 124q-3 273 -3 324q0 9 2.5 13.5t11.5 4.5q17 0 17 -18q0 -50 2 -168l1 -116q4 -222 4 -390zM145 783q-6 0 -9 3t-3 11q0 13 11 15q17 4 64.5 9t117.5 5l131 -1q17 0 17 -15q0 -7 -3.5 -10t-12.5 -3h-26q-24 1 -123 1q-71 0 -113.5 -7t-47.5 -8h-3z
" />
    <glyph glyph-name="Uogonek" unicode="&#x172;" horiz-adv-x="613" 
d="M571.5 -126q2.5 -3 2.5 -7q0 -20 -39 -20q-80 0 -80 63q0 57 66 106v121q-32 -61 -93 -97.5t-145 -36.5q-83 0 -133 40t-70 98.5t-20 118.5q0 67 4 215q1 40 2 93.5t1 117.5q0 8 3.5 11t11.5 3q16 0 16 -16q0 -97 -3 -207q-1 -39 -2 -94.5t-1 -122.5q0 -106 51 -165.5
t140 -59.5q81 0 134 33t77.5 80.5t24.5 92.5l-1 124q-3 273 -3 324q0 9 2.5 13.5t11.5 4.5q17 0 17 -18q0 -50 2 -168l1 -116q4 -222 4 -390q0 -11 -8 -15l-1 -1q-28 -23 -43.5 -43t-15.5 -45q0 -40 52 -40q9 0 17.5 3t11.5 3t5.5 -3z" />
    <glyph glyph-name="Uring" unicode="&#x16e;" horiz-adv-x="613" 
d="M553 15q0 -16 -16 -16q-8 0 -12 4t-4 13v121q-32 -61 -93 -97.5t-145 -36.5q-83 0 -133 40t-70 98.5t-20 118.5q0 67 4 215q1 40 2 93.5t1 117.5q0 8 3.5 11t11.5 3q16 0 16 -16q0 -97 -3 -207q-1 -39 -2 -94.5t-1 -122.5q0 -106 51 -165.5t140 -59.5q81 0 134 33
t77.5 80.5t24.5 92.5l-1 124q-3 273 -3 324q0 9 2.5 13.5t11.5 4.5q17 0 17 -18q0 -50 2 -168l1 -116q4 -222 4 -390zM243 764q-27 27 -27 66q0 38 27.5 64t68.5 26q38 0 63.5 -27.5t25.5 -62.5q0 -41 -26 -67t-66 -26q-39 0 -66 27zM356 783q19 19 19 47q0 25 -19 44.5
t-47 19.5q-29 0 -47.5 -19.5t-18.5 -44.5q0 -28 19 -47t47 -19t47 19z" />
    <glyph glyph-name="Utilde" unicode="&#x168;" horiz-adv-x="613" 
d="M553 15q0 -16 -16 -16q-8 0 -12 4t-4 13v121q-32 -61 -93 -97.5t-145 -36.5q-83 0 -133 40t-70 98.5t-20 118.5q0 67 4 215q1 40 2 93.5t1 117.5q0 8 3.5 11t11.5 3q16 0 16 -16q0 -97 -3 -207q-1 -39 -2 -94.5t-1 -122.5q0 -106 51 -165.5t140 -59.5q81 0 134 33
t77.5 80.5t24.5 92.5l-1 124q-3 273 -3 324q0 9 2.5 13.5t11.5 4.5q17 0 17 -18q0 -50 2 -168l1 -116q4 -222 4 -390zM163 790q0 5 5 10q21 26 36.5 37t39.5 11q42 0 80 -20q3 -2 16.5 -9t25.5 -11t21 -4q19 0 39 22q9 10 15 10q3 0 8.5 -5.5t5.5 -9.5q0 -6 -4 -10
q-18 -18 -33 -26t-33 -8q-14 0 -29 6.5t-17 7.5q-18 10 -29 13q-6 2 -29 11t-37 9q-10 0 -19.5 -7t-18 -16t-12.5 -13q-11 -11 -18 -11q-5 0 -8 3q-5 5 -5 10z" />
    <glyph glyph-name="V" unicode="V" horiz-adv-x="635" 
d="M294 10q-13 9 -24 29q-15 28 -38.5 91.5t-79.5 248.5q-18 58 -37 127q-33 113 -55 182q-2 6 -2 7q0 6 5.5 9t13.5 3q9 0 12 -8q21 -69 41 -141q32 -112 52 -176q50 -163 75 -234.5t39 -93.5t30 -22q16 1 29 22.5t34.5 89t70.5 238.5q19 67 19 68q41 141 68 245q3 9 13 9
q16 0 17 -13q0 -4 -1 -7q-22 -82 -59 -212l-25 -89q-54 -189 -74 -252t-34 -91q-19 -39 -59 -39q-18 0 -31 9z" />
    <glyph glyph-name="W" unicode="W" horiz-adv-x="851" 
d="M223 25q-29 78 -90 368q-9 45 -41 165l-32 124q-1 3 -1 7q0 5 5 8t12 3t9.5 -2.5t4.5 -11.5l40 -155l34 -132q0 2 27 -119q26 -118 41 -180t22 -62q5 0 27.5 43t50.5 110l30 74q28 69 42 97t24 28q13 0 33.5 -38t63.5 -129l12 -26q45 -96 61 -128t20 -32q5 0 23 87.5
t38 198.5l15 76q13 63 47 206l20 84q2 11 13 11q7 0 12 -3.5t5 -9.5q0 -5 -1 -8l-17 -69q-32 -127 -49 -217q-41 -218 -76 -363q-6 -25 -30 -25q-16 0 -35.5 34.5t-68.5 140.5q-30 64 -56 118t-29 54t-12 -22.5l-21 -52.5q-28 -72 -39 -97q-43 -101 -65.5 -138.5
t-39.5 -37.5q-22 0 -29 21z" />
    <glyph glyph-name="Wacute" unicode="&#x1e82;" horiz-adv-x="851" 
d="M223 25q-29 78 -90 368q-9 45 -41 165l-32 124q-1 3 -1 7q0 5 5 8t12 3t9.5 -2.5t4.5 -11.5l40 -155l34 -132q0 2 27 -119q26 -118 41 -180t22 -62q5 0 27.5 43t50.5 110l30 74q28 69 42 97t24 28q13 0 33.5 -38t63.5 -129l12 -26q45 -96 61 -128t20 -32q5 0 23 87.5
t38 198.5l15 76q13 63 47 206l20 84q2 11 13 11q7 0 12 -3.5t5 -9.5q0 -5 -1 -8l-17 -69q-32 -127 -49 -217q-41 -218 -76 -363q-6 -25 -30 -25q-16 0 -35.5 34.5t-68.5 140.5q-30 64 -56 118t-29 54t-12 -22.5l-21 -52.5q-28 -72 -39 -97q-43 -101 -65.5 -138.5
t-39.5 -37.5q-22 0 -29 21zM386.5 765.5q-3.5 3.5 -3.5 8.5q0 6 10 17l73 85q15 18 25 18q6 0 10 -4t4 -11q0 -5 -3.5 -9.5t-6.5 -7.5l-4 -4l-79 -86q-10 -10 -18 -10q-4 0 -7.5 3.5z" />
    <glyph glyph-name="Wcircumflex" unicode="&#x174;" horiz-adv-x="851" 
d="M223 25q-29 78 -90 368q-9 45 -41 165l-32 124q-1 3 -1 7q0 5 5 8t12 3t9.5 -2.5t4.5 -11.5l40 -155l34 -132q0 2 27 -119q26 -118 41 -180t22 -62q5 0 27.5 43t50.5 110l30 74q28 69 42 97t24 28q13 0 33.5 -38t63.5 -129l12 -26q45 -96 61 -128t20 -32q5 0 23 87.5
t38 198.5l15 76q13 63 47 206l20 84q2 11 13 11q7 0 12 -3.5t5 -9.5q0 -5 -1 -8l-17 -69q-32 -127 -49 -217q-41 -218 -76 -363q-6 -25 -30 -25q-16 0 -35.5 34.5t-68.5 140.5q-30 64 -56 118t-29 54t-12 -22.5l-21 -52.5q-28 -72 -39 -97q-43 -101 -65.5 -138.5
t-39.5 -37.5q-22 0 -29 21zM528 779q-32 48 -62 79.5t-42 31.5q-10 0 -39 -28t-64 -70q-12 -15 -20 -15q-5 0 -9.5 4.5t-4.5 9.5q0 6 6 12l24 25q35 39 62 64t44 25q24 0 60 -38.5t67 -85.5q4 -6 4 -9q0 -4 -4 -8t-9 -4q-8 0 -13 7z" />
    <glyph glyph-name="Wdieresis" unicode="&#x1e84;" horiz-adv-x="851" 
d="M223 25q-29 78 -90 368q-9 45 -41 165l-32 124q-1 3 -1 7q0 5 5 8t12 3t9.5 -2.5t4.5 -11.5l40 -155l34 -132q0 2 27 -119q26 -118 41 -180t22 -62q5 0 27.5 43t50.5 110l30 74q28 69 42 97t24 28q13 0 33.5 -38t63.5 -129l12 -26q45 -96 61 -128t20 -32q5 0 23 87.5
t38 198.5l15 76q13 63 47 206l20 84q2 11 13 11q7 0 12 -3.5t5 -9.5q0 -5 -1 -8l-17 -69q-32 -127 -49 -217q-41 -218 -76 -363q-6 -25 -30 -25q-16 0 -35.5 34.5t-68.5 140.5q-30 64 -56 118t-29 54t-12 -22.5l-21 -52.5q-28 -72 -39 -97q-43 -101 -65.5 -138.5
t-39.5 -37.5q-22 0 -29 21zM287.5 798q-10.5 11 -10.5 28q0 16 10.5 26t27.5 10t28 -10t11 -26q0 -17 -11 -28t-28 -11t-27.5 11zM503.5 798q-10.5 11 -10.5 28q0 16 10.5 26t27.5 10t27.5 -10t10.5 -26q0 -17 -10.5 -28t-27.5 -11t-27.5 11z" />
    <glyph glyph-name="Wgrave" unicode="&#x1e80;" horiz-adv-x="851" 
d="M223 25q-29 78 -90 368q-9 45 -41 165l-32 124q-1 3 -1 7q0 5 5 8t12 3t9.5 -2.5t4.5 -11.5l40 -155l34 -132q0 2 27 -119q26 -118 41 -180t22 -62q5 0 27.5 43t50.5 110l30 74q28 69 42 97t24 28q13 0 33.5 -38t63.5 -129l12 -26q45 -96 61 -128t20 -32q5 0 23 87.5
t38 198.5l15 76q13 63 47 206l20 84q2 11 13 11q7 0 12 -3.5t5 -9.5q0 -5 -1 -8l-17 -69q-32 -127 -49 -217q-41 -218 -76 -363q-6 -25 -30 -25q-16 0 -35.5 34.5t-68.5 140.5q-30 64 -56 118t-29 54t-12 -22.5l-21 -52.5q-28 -72 -39 -97q-43 -101 -65.5 -138.5
t-39.5 -37.5q-22 0 -29 21zM456 772l-79 86l-5.5 5.5t-6.5 8t-2 7.5q0 7 4 11t10 4q10 0 25 -18l73 -85q10 -11 10 -17q0 -5 -3.5 -8.5t-7.5 -3.5q-8 0 -18 10z" />
    <glyph glyph-name="X" unicode="X" horiz-adv-x="651" 
d="M591 16q0 -6 -5 -11t-12 -5q-10 0 -16 8l-232 315l-234 -312q-7 -8 -18 -8q-6 0 -10 4.5t-4 10.5q0 4 2 7t5 7l76 100q31 42 72.5 96t91.5 122q-123 165 -235 321q-4 5 -4 11q0 7 4.5 11t11.5 4q9 0 20 -15q19 -27 160 -220q21 -27 63 -85q106 141 225 302q12 16 20 16
t12.5 -5t4.5 -11q0 -7 -8 -17l-234 -312l241 -326q3 -4 3 -8z" />
    <glyph glyph-name="Y" unicode="Y" horiz-adv-x="608" 
d="M290 23l-3 303q-29 12 -57.5 45t-69.5 100q-35 57 -55 99.5t-44 108.5q-1 1 -1 4q0 5 4.5 8.5t11.5 3.5q8 0 11 -3.5t4.5 -9t2.5 -7.5q34 -96 91 -190q77 -127 119 -127q21 0 52.5 33.5t68.5 94.5q24 40 44 82.5t48 110.5q4 10 6.5 13.5t8.5 3.5q17 0 17 -13q0 -3 -3 -11
q-35 -83 -51.5 -117.5t-44.5 -81.5q-78 -128 -132 -147l4 -302q0 -19 -16 -19t-16 18z" />
    <glyph glyph-name="Yacute" unicode="&#xdd;" horiz-adv-x="608" 
d="M290 23l-3 303q-29 12 -57.5 45t-69.5 100q-35 57 -55 99.5t-44 108.5q-1 1 -1 4q0 5 4.5 8.5t11.5 3.5q8 0 11 -3.5t4.5 -9t2.5 -7.5q34 -96 91 -190q77 -127 119 -127q21 0 52.5 33.5t68.5 94.5q24 40 44 82.5t48 110.5q4 10 6.5 13.5t8.5 3.5q17 0 17 -13q0 -3 -3 -11
q-35 -83 -51.5 -117.5t-44.5 -81.5q-78 -128 -132 -147l4 -302q0 -19 -16 -19t-16 18zM268.5 765.5q-3.5 3.5 -3.5 8.5q0 6 10 17l73 85q15 18 25 18q6 0 10 -4t4 -11q0 -5 -3.5 -9.5t-6.5 -7.5l-4 -4l-79 -86q-10 -10 -18 -10q-4 0 -7.5 3.5z" />
    <glyph glyph-name="Ycircumflex" unicode="&#x176;" horiz-adv-x="608" 
d="M290 23l-3 303q-29 12 -57.5 45t-69.5 100q-35 57 -55 99.5t-44 108.5q-1 1 -1 4q0 5 4.5 8.5t11.5 3.5q8 0 11 -3.5t4.5 -9t2.5 -7.5q34 -96 91 -190q77 -127 119 -127q21 0 52.5 33.5t68.5 94.5q24 40 44 82.5t48 110.5q4 10 6.5 13.5t8.5 3.5q17 0 17 -13q0 -3 -3 -11
q-35 -83 -51.5 -117.5t-44.5 -81.5q-78 -128 -132 -147l4 -302q0 -19 -16 -19t-16 18zM410 779q-32 48 -62 79.5t-42 31.5q-10 0 -39 -28t-64 -70q-12 -15 -20 -15q-5 0 -9.5 4.5t-4.5 9.5q0 6 6 12l24 25q35 39 62 64t44 25q24 0 60 -38.5t67 -85.5q4 -6 4 -9q0 -4 -4 -8
t-9 -4q-8 0 -13 7z" />
    <glyph glyph-name="Ydieresis" unicode="&#x178;" horiz-adv-x="608" 
d="M290 23l-3 303q-29 12 -57.5 45t-69.5 100q-35 57 -55 99.5t-44 108.5q-1 1 -1 4q0 5 4.5 8.5t11.5 3.5q8 0 11 -3.5t4.5 -9t2.5 -7.5q34 -96 91 -190q77 -127 119 -127q21 0 52.5 33.5t68.5 94.5q24 40 44 82.5t48 110.5q4 10 6.5 13.5t8.5 3.5q17 0 17 -13q0 -3 -3 -11
q-35 -83 -51.5 -117.5t-44.5 -81.5q-78 -128 -132 -147l4 -302q0 -19 -16 -19t-16 18zM169.5 798q-10.5 11 -10.5 28q0 16 10.5 26t27.5 10t28 -10t11 -26q0 -17 -11 -28t-28 -11t-27.5 11zM385.5 798q-10.5 11 -10.5 28q0 16 10.5 26t27.5 10t27.5 -10t10.5 -26
q0 -17 -10.5 -28t-27.5 -11t-27.5 11z" />
    <glyph glyph-name="uni1E8E" unicode="&#x1e8e;" horiz-adv-x="608" 
d="M290 23l-3 303q-29 12 -57.5 45t-69.5 100q-35 57 -55 99.5t-44 108.5q-1 1 -1 4q0 5 4.5 8.5t11.5 3.5q8 0 11 -3.5t4.5 -9t2.5 -7.5q34 -96 91 -190q77 -127 119 -127q21 0 52.5 33.5t68.5 94.5q24 40 44 82.5t48 110.5q4 10 6.5 13.5t8.5 3.5q17 0 17 -13q0 -3 -3 -11
q-35 -83 -51.5 -117.5t-44.5 -81.5q-78 -128 -132 -147l4 -302q0 -19 -16 -19t-16 18zM276.5 798q-10.5 11 -10.5 28q0 16 10.5 26t27.5 10t27.5 -10t10.5 -26q0 -17 -10.5 -28t-27.5 -11t-27.5 11z" />
    <glyph glyph-name="uni1EF4" unicode="&#x1ef4;" horiz-adv-x="608" 
d="M290 23l-3 303q-29 12 -57.5 45t-69.5 100q-35 57 -55 99.5t-44 108.5q-1 1 -1 4q0 5 4.5 8.5t11.5 3.5q8 0 11 -3.5t4.5 -9t2.5 -7.5q34 -96 91 -190q77 -127 119 -127q21 0 52.5 33.5t68.5 94.5q24 40 44 82.5t48 110.5q4 10 6.5 13.5t8.5 3.5q17 0 17 -13q0 -3 -3 -11
q-35 -83 -51.5 -117.5t-44.5 -81.5q-78 -128 -132 -147l4 -302q0 -19 -16 -19t-16 18zM277.5 -144q-10.5 11 -10.5 28q0 16 10.5 26t27.5 10t27.5 -10t10.5 -26q0 -17 -10.5 -28t-27.5 -11t-27.5 11z" />
    <glyph glyph-name="Ygrave" unicode="&#x1ef2;" horiz-adv-x="608" 
d="M290 23l-3 303q-29 12 -57.5 45t-69.5 100q-35 57 -55 99.5t-44 108.5q-1 1 -1 4q0 5 4.5 8.5t11.5 3.5q8 0 11 -3.5t4.5 -9t2.5 -7.5q34 -96 91 -190q77 -127 119 -127q21 0 52.5 33.5t68.5 94.5q24 40 44 82.5t48 110.5q4 10 6.5 13.5t8.5 3.5q17 0 17 -13q0 -3 -3 -11
q-35 -83 -51.5 -117.5t-44.5 -81.5q-78 -128 -132 -147l4 -302q0 -19 -16 -19t-16 18zM338 772l-79 86l-5.5 5.5t-6.5 8t-2 7.5q0 7 4 11t10 4q10 0 25 -18l73 -85q10 -11 10 -17q0 -5 -3.5 -8.5t-7.5 -3.5q-8 0 -18 10z" />
    <glyph glyph-name="uni1EF6" unicode="&#x1ef6;" horiz-adv-x="608" 
d="M290 23l-3 303q-29 12 -57.5 45t-69.5 100q-35 57 -55 99.5t-44 108.5q-1 1 -1 4q0 5 4.5 8.5t11.5 3.5q8 0 11 -3.5t4.5 -9t2.5 -7.5q34 -96 91 -190q77 -127 119 -127q21 0 52.5 33.5t68.5 94.5q24 40 44 82.5t48 110.5q4 10 6.5 13.5t8.5 3.5q17 0 17 -13q0 -3 -3 -11
q-35 -83 -51.5 -117.5t-44.5 -81.5q-78 -128 -132 -147l4 -302q0 -19 -16 -19t-16 18zM299 770.5q-4 4.5 -4 10.5v38q0 12 8 21t27 26q18 14 27.5 25t9.5 24q0 22 -18.5 34.5t-50.5 12.5q-48 0 -75 -50q-4 -8 -13 -8q-5 0 -10 4.5t-5 10.5q0 5 4 11q14 25 37.5 41t63.5 16
q47 0 71 -18.5t24 -54.5q0 -19 -11.5 -34t-32.5 -31q-12 -9 -18 -15.5t-6 -12.5q-1 -15 -1 -37q0 -18 -17 -18q-6 0 -10 4.5z" />
    <glyph glyph-name="uni1EF8" unicode="&#x1ef8;" horiz-adv-x="608" 
d="M290 23l-3 303q-29 12 -57.5 45t-69.5 100q-35 57 -55 99.5t-44 108.5q-1 1 -1 4q0 5 4.5 8.5t11.5 3.5q8 0 11 -3.5t4.5 -9t2.5 -7.5q34 -96 91 -190q77 -127 119 -127q21 0 52.5 33.5t68.5 94.5q24 40 44 82.5t48 110.5q4 10 6.5 13.5t8.5 3.5q17 0 17 -13q0 -3 -3 -11
q-35 -83 -51.5 -117.5t-44.5 -81.5q-78 -128 -132 -147l4 -302q0 -19 -16 -19t-16 18zM160 790q0 5 5 10q21 26 36.5 37t39.5 11q42 0 80 -20q3 -2 16.5 -9t25.5 -11t21 -4q19 0 39 22q9 10 15 10q3 0 8.5 -5.5t5.5 -9.5q0 -6 -4 -10q-18 -18 -33 -26t-33 -8q-14 0 -29 6.5
t-17 7.5q-18 10 -29 13q-6 2 -29 11t-37 9q-10 0 -19.5 -7t-18 -16t-12.5 -13q-11 -11 -18 -11q-5 0 -8 3q-5 5 -5 10z" />
    <glyph glyph-name="Z" unicode="Z" horiz-adv-x="636" 
d="M420 28.5q-43 2.5 -106 2.5q-51 0 -216 -6l-35 -1q-19 0 -26 3.5t-7 12.5q0 24 36 66.5t123 132.5q87 89 131 137q148 159 184.5 200.5t68.5 85.5q-138 -14 -231 -14q-66 0 -124 4.5t-129 16.5q-9 2 -13.5 5.5t-4.5 10.5q0 16 26 13l58 -7q54 -7 86.5 -9.5t81.5 -2.5
q74 0 204 12l45 3q15 0 26 -9q8 -7 8 -19q0 -26 -66 -101t-175 -189l-16 -16l-78 -81q-104 -108 -147.5 -155t-56.5 -70l23 1q153 6 224 6q113 0 245 -14q12 -1 12 -14q0 -6 -4 -10.5t-13 -3.5q-91 7 -134 9.5z" />
    <glyph glyph-name="Zacute" unicode="&#x179;" horiz-adv-x="636" 
d="M420 28.5q-43 2.5 -106 2.5q-51 0 -216 -6l-35 -1q-19 0 -26 3.5t-7 12.5q0 24 36 66.5t123 132.5q87 89 131 137q148 159 184.5 200.5t68.5 85.5q-138 -14 -231 -14q-66 0 -124 4.5t-129 16.5q-9 2 -13.5 5.5t-4.5 10.5q0 16 26 13l58 -7q54 -7 86.5 -9.5t81.5 -2.5
q74 0 204 12l45 3q15 0 26 -9q8 -7 8 -19q0 -26 -66 -101t-175 -189l-16 -16l-78 -81q-104 -108 -147.5 -155t-56.5 -70l23 1q153 6 224 6q113 0 245 -14q12 -1 12 -14q0 -6 -4 -10.5t-13 -3.5q-91 7 -134 9.5zM274.5 765.5q-3.5 3.5 -3.5 8.5q0 6 10 17l73 85q15 18 25 18
q6 0 10 -4t4 -11q0 -5 -3.5 -9.5t-6.5 -7.5l-4 -4l-79 -86q-10 -10 -18 -10q-4 0 -7.5 3.5z" />
    <glyph glyph-name="Zcaron" unicode="&#x17d;" horiz-adv-x="636" 
d="M420 28.5q-43 2.5 -106 2.5q-51 0 -216 -6l-35 -1q-19 0 -26 3.5t-7 12.5q0 24 36 66.5t123 132.5q87 89 131 137q148 159 184.5 200.5t68.5 85.5q-138 -14 -231 -14q-66 0 -124 4.5t-129 16.5q-9 2 -13.5 5.5t-4.5 10.5q0 16 26 13l58 -7q54 -7 86.5 -9.5t81.5 -2.5
q74 0 204 12l45 3q15 0 26 -9q8 -7 8 -19q0 -26 -66 -101t-175 -189l-16 -16l-78 -81q-104 -108 -147.5 -155t-56.5 -70l23 1q153 6 224 6q113 0 245 -14q12 -1 12 -14q0 -6 -4 -10.5t-13 -3.5q-91 7 -134 9.5zM438 908q4 -4 4 -8q0 -3 -4 -9q-31 -47 -67 -85.5t-60 -38.5
q-17 0 -44 25t-62 64l-24 25q-6 6 -6 12q0 5 4.5 9.5t9.5 4.5q8 0 20 -15q35 -42 64 -70t39 -28q12 0 42 31.5t62 79.5q5 7 13 7q5 0 9 -4z" />
    <glyph glyph-name="Zdotaccent" unicode="&#x17b;" horiz-adv-x="636" 
d="M420 28.5q-43 2.5 -106 2.5q-51 0 -216 -6l-35 -1q-19 0 -26 3.5t-7 12.5q0 24 36 66.5t123 132.5q87 89 131 137q148 159 184.5 200.5t68.5 85.5q-138 -14 -231 -14q-66 0 -124 4.5t-129 16.5q-9 2 -13.5 5.5t-4.5 10.5q0 16 26 13l58 -7q54 -7 86.5 -9.5t81.5 -2.5
q74 0 204 12l45 3q15 0 26 -9q8 -7 8 -19q0 -26 -66 -101t-175 -189l-16 -16l-78 -81q-104 -108 -147.5 -155t-56.5 -70l23 1q153 6 224 6q113 0 245 -14q12 -1 12 -14q0 -6 -4 -10.5t-13 -3.5q-91 7 -134 9.5zM282.5 798q-10.5 11 -10.5 28q0 16 10.5 26t27.5 10t27.5 -10
t10.5 -26q0 -17 -10.5 -28t-27.5 -11t-27.5 11z" />
    <glyph glyph-name="uni1E92" unicode="&#x1e92;" horiz-adv-x="636" 
d="M420 28.5q-43 2.5 -106 2.5q-51 0 -216 -6l-35 -1q-19 0 -26 3.5t-7 12.5q0 24 36 66.5t123 132.5q87 89 131 137q148 159 184.5 200.5t68.5 85.5q-138 -14 -231 -14q-66 0 -124 4.5t-129 16.5q-9 2 -13.5 5.5t-4.5 10.5q0 16 26 13l58 -7q54 -7 86.5 -9.5t81.5 -2.5
q74 0 204 12l45 3q15 0 26 -9q8 -7 8 -19q0 -26 -66 -101t-175 -189l-16 -16l-78 -81q-104 -108 -147.5 -155t-56.5 -70l23 1q153 6 224 6q113 0 245 -14q12 -1 12 -14q0 -6 -4 -10.5t-13 -3.5q-91 7 -134 9.5zM283.5 -144q-10.5 11 -10.5 28q0 16 10.5 26t27.5 10t27.5 -10
t10.5 -26q0 -17 -10.5 -28t-27.5 -11t-27.5 11z" />
    <glyph glyph-name="a" unicode="a" horiz-adv-x="607" 
d="M532.5 30.5q4.5 -2.5 4.5 -11.5q0 -16 -15 -16q-40 0 -57.5 16t-25.5 59q-23 -40 -65.5 -62.5t-103.5 -22.5q-86 0 -135 40t-67 95t-18 108q0 62 24 120.5t74.5 96.5t125.5 38q62 0 102.5 -24t65.5 -73l10 73q2 10 4.5 14t10.5 4q9 0 14.5 -4.5t4.5 -10.5
q-9 -46 -14 -111q-4 -46 -4 -124v-68q0 -57 3 -83t13.5 -37t33.5 -13q10 -1 14.5 -3.5zM385.5 61.5q49.5 36.5 50.5 106.5q1 51 1 117q0 68 -28.5 107t-66 53.5t-68.5 14.5q-68 0 -111.5 -37.5t-62.5 -89.5t-19 -97q0 -44 15 -92t56 -83.5t113 -35.5q71 0 120.5 36.5z" />
    <glyph glyph-name="aacute" unicode="&#xe1;" horiz-adv-x="607" 
d="M532.5 30.5q4.5 -2.5 4.5 -11.5q0 -16 -15 -16q-40 0 -57.5 16t-25.5 59q-23 -40 -65.5 -62.5t-103.5 -22.5q-86 0 -135 40t-67 95t-18 108q0 62 24 120.5t74.5 96.5t125.5 38q62 0 102.5 -24t65.5 -73l10 73q2 10 4.5 14t10.5 4q9 0 14.5 -4.5t4.5 -10.5
q-9 -46 -14 -111q-4 -46 -4 -124v-68q0 -57 3 -83t13.5 -37t33.5 -13q10 -1 14.5 -3.5zM385.5 61.5q49.5 36.5 50.5 106.5q1 51 1 117q0 68 -28.5 107t-66 53.5t-68.5 14.5q-68 0 -111.5 -37.5t-62.5 -89.5t-19 -97q0 -44 15 -92t56 -83.5t113 -35.5q71 0 120.5 36.5z
M261.5 565.5q-3.5 3.5 -3.5 8.5q0 6 10 17l73 85q15 18 25 18q6 0 10 -4t4 -11q0 -5 -3.5 -9.5t-6.5 -7.5l-4 -4l-79 -86q-10 -10 -18 -10q-4 0 -7.5 3.5z" />
    <glyph glyph-name="abreve" unicode="&#x103;" horiz-adv-x="607" 
d="M532.5 30.5q4.5 -2.5 4.5 -11.5q0 -16 -15 -16q-40 0 -57.5 16t-25.5 59q-23 -40 -65.5 -62.5t-103.5 -22.5q-86 0 -135 40t-67 95t-18 108q0 62 24 120.5t74.5 96.5t125.5 38q62 0 102.5 -24t65.5 -73l10 73q2 10 4.5 14t10.5 4q9 0 14.5 -4.5t4.5 -10.5
q-9 -46 -14 -111q-4 -46 -4 -124v-68q0 -57 3 -83t13.5 -37t33.5 -13q10 -1 14.5 -3.5zM385.5 61.5q49.5 36.5 50.5 106.5q1 51 1 117q0 68 -28.5 107t-66 53.5t-68.5 14.5q-68 0 -111.5 -37.5t-62.5 -89.5t-19 -97q0 -44 15 -92t56 -83.5t113 -35.5q71 0 120.5 36.5z
M223.5 593.5q-32.5 16.5 -50 43t-17.5 55.5q0 5 3 8.5t8 3.5q17 0 17 -10q0 -39 34 -64.5t80 -25.5q27 0 51.5 13t39.5 33.5t15 40.5q0 8 6 12t12 4q5 0 9 -3t4 -9q0 -29 -19 -56.5t-50.5 -44.5t-67.5 -17q-42 0 -74.5 16.5z" />
    <glyph glyph-name="uni1EAF" unicode="&#x1eaf;" horiz-adv-x="607" 
d="M532.5 30.5q4.5 -2.5 4.5 -11.5q0 -16 -15 -16q-40 0 -57.5 16t-25.5 59q-23 -40 -65.5 -62.5t-103.5 -22.5q-86 0 -135 40t-67 95t-18 108q0 62 24 120.5t74.5 96.5t125.5 38q62 0 102.5 -24t65.5 -73l10 73q2 10 4.5 14t10.5 4q9 0 14.5 -4.5t4.5 -10.5
q-9 -46 -14 -111q-4 -46 -4 -124v-68q0 -57 3 -83t13.5 -37t33.5 -13q10 -1 14.5 -3.5zM385.5 61.5q49.5 36.5 50.5 106.5q1 51 1 117q0 68 -28.5 107t-66 53.5t-68.5 14.5q-68 0 -111.5 -37.5t-62.5 -89.5t-19 -97q0 -44 15 -92t56 -83.5t113 -35.5q71 0 120.5 36.5z
M278 715.5q-4 3.5 -4 9.5q0 5 10 16l57 58q17 17 24 17q5 0 9.5 -4t4.5 -10q0 -5 -3 -9t-6 -7l-4 -4l-63 -60q-5 -6 -9 -8t-8 -2t-8 3.5zM223.5 593.5q-32.5 16.5 -50 43t-17.5 55.5q0 5 3 8.5t8 3.5q17 0 17 -10q0 -39 34 -64.5t80 -25.5q27 0 51.5 13t39.5 33.5t15 40.5
q0 8 6 12t12 4q5 0 9 -3t4 -9q0 -29 -19 -56.5t-50.5 -44.5t-67.5 -17q-42 0 -74.5 16.5z" />
    <glyph glyph-name="uni1EB7" unicode="&#x1eb7;" horiz-adv-x="607" 
d="M532.5 30.5q4.5 -2.5 4.5 -11.5q0 -16 -15 -16q-40 0 -57.5 16t-25.5 59q-23 -40 -65.5 -62.5t-103.5 -22.5q-86 0 -135 40t-67 95t-18 108q0 62 24 120.5t74.5 96.5t125.5 38q62 0 102.5 -24t65.5 -73l10 73q2 10 4.5 14t10.5 4q9 0 14.5 -4.5t4.5 -10.5
q-9 -46 -14 -111q-4 -46 -4 -124v-68q0 -57 3 -83t13.5 -37t33.5 -13q10 -1 14.5 -3.5zM385.5 61.5q49.5 36.5 50.5 106.5q1 51 1 117q0 68 -28.5 107t-66 53.5t-68.5 14.5q-68 0 -111.5 -37.5t-62.5 -89.5t-19 -97q0 -44 15 -92t56 -83.5t113 -35.5q71 0 120.5 36.5z
M270.5 -144q-10.5 11 -10.5 28q0 16 10.5 26t27.5 10t27.5 -10t10.5 -26q0 -17 -10.5 -28t-27.5 -11t-27.5 11zM223.5 593.5q-32.5 16.5 -50 43t-17.5 55.5q0 5 3 8.5t8 3.5q17 0 17 -10q0 -39 34 -64.5t80 -25.5q27 0 51.5 13t39.5 33.5t15 40.5q0 8 6 12t12 4q5 0 9 -3
t4 -9q0 -29 -19 -56.5t-50.5 -44.5t-67.5 -17q-42 0 -74.5 16.5z" />
    <glyph glyph-name="uni1EB1" unicode="&#x1eb1;" horiz-adv-x="607" 
d="M532.5 30.5q4.5 -2.5 4.5 -11.5q0 -16 -15 -16q-40 0 -57.5 16t-25.5 59q-23 -40 -65.5 -62.5t-103.5 -22.5q-86 0 -135 40t-67 95t-18 108q0 62 24 120.5t74.5 96.5t125.5 38q62 0 102.5 -24t65.5 -73l10 73q2 10 4.5 14t10.5 4q9 0 14.5 -4.5t4.5 -10.5
q-9 -46 -14 -111q-4 -46 -4 -124v-68q0 -57 3 -83t13.5 -37t33.5 -13q10 -1 14.5 -3.5zM385.5 61.5q49.5 36.5 50.5 106.5q1 51 1 117q0 68 -28.5 107t-66 53.5t-68.5 14.5q-68 0 -111.5 -37.5t-62.5 -89.5t-19 -97q0 -44 15 -92t56 -83.5t113 -35.5q71 0 120.5 36.5z
M299 724q-4 2 -9 8l-63 60l-5.5 5.5t-6 7.5t-1.5 7q0 6 4.5 10t9.5 4q7 0 24 -17l57 -58q10 -11 10 -16q0 -6 -4 -9.5t-8 -3.5t-8 2zM223.5 593.5q-32.5 16.5 -50 43t-17.5 55.5q0 5 3 8.5t8 3.5q17 0 17 -10q0 -39 34 -64.5t80 -25.5q27 0 51.5 13t39.5 33.5t15 40.5
q0 8 6 12t12 4q5 0 9 -3t4 -9q0 -29 -19 -56.5t-50.5 -44.5t-67.5 -17q-42 0 -74.5 16.5z" />
    <glyph glyph-name="uni1EB3" unicode="&#x1eb3;" horiz-adv-x="607" 
d="M532.5 30.5q4.5 -2.5 4.5 -11.5q0 -16 -15 -16q-40 0 -57.5 16t-25.5 59q-23 -40 -65.5 -62.5t-103.5 -22.5q-86 0 -135 40t-67 95t-18 108q0 62 24 120.5t74.5 96.5t125.5 38q62 0 102.5 -24t65.5 -73l10 73q2 10 4.5 14t10.5 4q9 0 14.5 -4.5t4.5 -10.5
q-9 -46 -14 -111q-4 -46 -4 -124v-68q0 -57 3 -83t13.5 -37t33.5 -13q10 -1 14.5 -3.5zM385.5 61.5q49.5 36.5 50.5 106.5q1 51 1 117q0 68 -28.5 107t-66 53.5t-68.5 14.5q-68 0 -111.5 -37.5t-62.5 -89.5t-19 -97q0 -44 15 -92t56 -83.5t113 -35.5q71 0 120.5 36.5z
M291.5 707q-3.5 3 -3.5 8v28q0 9 5.5 15.5t17.5 16.5q11 9 16.5 15.5t5.5 14.5q0 15 -9.5 21t-31.5 6q-18 0 -29.5 -8.5t-15.5 -20.5q-2 -5 -9 -5q-12 0 -12 9q0 16 18.5 31t49.5 15q30 0 46 -12.5t16 -36.5q0 -13 -8 -22.5t-21 -19.5q-16 -12 -16 -19v-27q0 -12 -13 -12
q-3 0 -6.5 3zM223.5 593.5q-32.5 16.5 -50 43t-17.5 55.5q0 5 3 8.5t8 3.5q17 0 17 -10q0 -39 34 -64.5t80 -25.5q27 0 51.5 13t39.5 33.5t15 40.5q0 8 6 12t12 4q5 0 9 -3t4 -9q0 -29 -19 -56.5t-50.5 -44.5t-67.5 -17q-42 0 -74.5 16.5z" />
    <glyph glyph-name="uni1EB5" unicode="&#x1eb5;" horiz-adv-x="607" 
d="M532.5 30.5q4.5 -2.5 4.5 -11.5q0 -16 -15 -16q-40 0 -57.5 16t-25.5 59q-23 -40 -65.5 -62.5t-103.5 -22.5q-86 0 -135 40t-67 95t-18 108q0 62 24 120.5t74.5 96.5t125.5 38q62 0 102.5 -24t65.5 -73l10 73q2 10 4.5 14t10.5 4q9 0 14.5 -4.5t4.5 -10.5
q-9 -46 -14 -111q-4 -46 -4 -124v-68q0 -57 3 -83t13.5 -37t33.5 -13q10 -1 14.5 -3.5zM385.5 61.5q49.5 36.5 50.5 106.5q1 51 1 117q0 68 -28.5 107t-66 53.5t-68.5 14.5q-68 0 -111.5 -37.5t-62.5 -89.5t-19 -97q0 -44 15 -92t56 -83.5t113 -35.5q71 0 120.5 36.5z
M160 742q-3 3 -4 7.5t1 7.5q22 33 80 33q19 0 32 -3.5t33 -10.5q18 -7 32.5 -10.5t34.5 -3.5q13 0 24.5 4.5t19.5 12.5t13 8t9 -4t4 -9q0 -2 -4 -8q-19 -27 -68 -27q-17 0 -32.5 3.5t-37.5 10.5q-16 5 -33 9.5t-32 4.5q-30 0 -50 -20l-5 -5t-7 -4q-6 0 -10 4zM223.5 593.5
q-32.5 16.5 -50 43t-17.5 55.5q0 5 3 8.5t8 3.5q17 0 17 -10q0 -39 34 -64.5t80 -25.5q27 0 51.5 13t39.5 33.5t15 40.5q0 8 6 12t12 4q5 0 9 -3t4 -9q0 -29 -19 -56.5t-50.5 -44.5t-67.5 -17q-42 0 -74.5 16.5z" />
    <glyph glyph-name="uni01CE" unicode="&#x1ce;" horiz-adv-x="607" 
d="M532.5 30.5q4.5 -2.5 4.5 -11.5q0 -16 -15 -16q-40 0 -57.5 16t-25.5 59q-23 -40 -65.5 -62.5t-103.5 -22.5q-86 0 -135 40t-67 95t-18 108q0 62 24 120.5t74.5 96.5t125.5 38q62 0 102.5 -24t65.5 -73l10 73q2 10 4.5 14t10.5 4q9 0 14.5 -4.5t4.5 -10.5
q-9 -46 -14 -111q-4 -46 -4 -124v-68q0 -57 3 -83t13.5 -37t33.5 -13q10 -1 14.5 -3.5zM385.5 61.5q49.5 36.5 50.5 106.5q1 51 1 117q0 68 -28.5 107t-66 53.5t-68.5 14.5q-68 0 -111.5 -37.5t-62.5 -89.5t-19 -97q0 -44 15 -92t56 -83.5t113 -35.5q71 0 120.5 36.5z
M425 708q4 -4 4 -8q0 -3 -4 -9q-31 -47 -67 -85.5t-60 -38.5q-17 0 -44 25t-62 64l-24 25q-6 6 -6 12q0 5 4.5 9.5t9.5 4.5q8 0 20 -15q35 -42 64 -70t39 -28q12 0 42 31.5t62 79.5q5 7 13 7q5 0 9 -4z" />
    <glyph glyph-name="acircumflex" unicode="&#xe2;" horiz-adv-x="607" 
d="M532.5 30.5q4.5 -2.5 4.5 -11.5q0 -16 -15 -16q-40 0 -57.5 16t-25.5 59q-23 -40 -65.5 -62.5t-103.5 -22.5q-86 0 -135 40t-67 95t-18 108q0 62 24 120.5t74.5 96.5t125.5 38q62 0 102.5 -24t65.5 -73l10 73q2 10 4.5 14t10.5 4q9 0 14.5 -4.5t4.5 -10.5
q-9 -46 -14 -111q-4 -46 -4 -124v-68q0 -57 3 -83t13.5 -37t33.5 -13q10 -1 14.5 -3.5zM385.5 61.5q49.5 36.5 50.5 106.5q1 51 1 117q0 68 -28.5 107t-66 53.5t-68.5 14.5q-68 0 -111.5 -37.5t-62.5 -89.5t-19 -97q0 -44 15 -92t56 -83.5t113 -35.5q71 0 120.5 36.5z
M403 579q-32 48 -62 79.5t-42 31.5q-10 0 -39 -28t-64 -70q-12 -15 -20 -15q-5 0 -9.5 4.5t-4.5 9.5q0 6 6 12l24 25q35 39 62 64t44 25q24 0 60 -38.5t67 -85.5q4 -6 4 -9q0 -4 -4 -8t-9 -4q-8 0 -13 7z" />
    <glyph glyph-name="uni1EA5" unicode="&#x1ea5;" horiz-adv-x="607" 
d="M532.5 30.5q4.5 -2.5 4.5 -11.5q0 -16 -15 -16q-40 0 -57.5 16t-25.5 59q-23 -40 -65.5 -62.5t-103.5 -22.5q-86 0 -135 40t-67 95t-18 108q0 62 24 120.5t74.5 96.5t125.5 38q62 0 102.5 -24t65.5 -73l10 73q2 10 4.5 14t10.5 4q9 0 14.5 -4.5t4.5 -10.5
q-9 -46 -14 -111q-4 -46 -4 -124v-68q0 -57 3 -83t13.5 -37t33.5 -13q10 -1 14.5 -3.5zM385.5 61.5q49.5 36.5 50.5 106.5q1 51 1 117q0 68 -28.5 107t-66 53.5t-68.5 14.5q-68 0 -111.5 -37.5t-62.5 -89.5t-19 -97q0 -44 15 -92t56 -83.5t113 -35.5q71 0 120.5 36.5z
M396.5 683.5q-3.5 3.5 -3.5 8.5q0 7 9 17l57 59q8 8 13.5 12.5t10.5 4.5t9.5 -4t4.5 -11q0 -5 -3 -9t-6 -7l-4 -4l-63 -60q-5 -6 -9 -8t-8 -2t-7.5 3.5zM403 580q-32 48 -62 79.5t-42 31.5q-10 0 -39 -28t-64 -70q-13 -15 -20 -15q-5 0 -9.5 4.5t-4.5 9.5q0 6 6 12l24 25
q35 39 62 64t44 25q24 0 60 -38.5t67 -85.5q4 -6 4 -9q0 -4 -4 -8t-9 -4q-8 0 -13 7z" />
    <glyph glyph-name="uni1EAD" unicode="&#x1ead;" horiz-adv-x="607" 
d="M532.5 30.5q4.5 -2.5 4.5 -11.5q0 -16 -15 -16q-40 0 -57.5 16t-25.5 59q-23 -40 -65.5 -62.5t-103.5 -22.5q-86 0 -135 40t-67 95t-18 108q0 62 24 120.5t74.5 96.5t125.5 38q62 0 102.5 -24t65.5 -73l10 73q2 10 4.5 14t10.5 4q9 0 14.5 -4.5t4.5 -10.5
q-9 -46 -14 -111q-4 -46 -4 -124v-68q0 -57 3 -83t13.5 -37t33.5 -13q10 -1 14.5 -3.5zM385.5 61.5q49.5 36.5 50.5 106.5q1 51 1 117q0 68 -28.5 107t-66 53.5t-68.5 14.5q-68 0 -111.5 -37.5t-62.5 -89.5t-19 -97q0 -44 15 -92t56 -83.5t113 -35.5q71 0 120.5 36.5z
M270.5 -144q-10.5 11 -10.5 28q0 16 10.5 26t27.5 10t27.5 -10t10.5 -26q0 -17 -10.5 -28t-27.5 -11t-27.5 11zM403 579q-32 48 -62 79.5t-42 31.5q-10 0 -39 -28t-64 -70q-12 -15 -20 -15q-5 0 -9.5 4.5t-4.5 9.5q0 6 6 12l24 25q35 39 62 64t44 25q24 0 60 -38.5t67 -85.5
q4 -6 4 -9q0 -4 -4 -8t-9 -4q-8 0 -13 7z" />
    <glyph glyph-name="uni1EA7" unicode="&#x1ea7;" horiz-adv-x="607" 
d="M532.5 30.5q4.5 -2.5 4.5 -11.5q0 -16 -15 -16q-40 0 -57.5 16t-25.5 59q-23 -40 -65.5 -62.5t-103.5 -22.5q-86 0 -135 40t-67 95t-18 108q0 62 24 120.5t74.5 96.5t125.5 38q62 0 102.5 -24t65.5 -73l10 73q2 10 4.5 14t10.5 4q9 0 14.5 -4.5t4.5 -10.5
q-9 -46 -14 -111q-4 -46 -4 -124v-68q0 -57 3 -83t13.5 -37t33.5 -13q10 -1 14.5 -3.5zM385.5 61.5q49.5 36.5 50.5 106.5q1 51 1 117q0 68 -28.5 107t-66 53.5t-68.5 14.5q-68 0 -111.5 -37.5t-62.5 -89.5t-19 -97q0 -44 15 -92t56 -83.5t113 -35.5q71 0 120.5 36.5z
M448 682q-4 2 -9 8l-63 60l-5.5 5.5t-6 7.5t-1.5 7q0 7 4 11t10 4q5 0 10.5 -4.5t13.5 -12.5l57 -59q9 -10 9 -17q0 -5 -3.5 -8.5t-7.5 -3.5t-8 2zM403 580q-32 48 -62 79.5t-42 31.5q-10 0 -39 -28t-64 -70q-13 -15 -20 -15q-5 0 -9.5 4.5t-4.5 9.5q0 6 6 12l24 25
q35 39 62 64t44 25q24 0 60 -38.5t67 -85.5q4 -6 4 -9q0 -4 -4 -8t-9 -4q-8 0 -13 7z" />
    <glyph glyph-name="uni1EA9" unicode="&#x1ea9;" horiz-adv-x="607" 
d="M532.5 30.5q4.5 -2.5 4.5 -11.5q0 -16 -15 -16q-40 0 -57.5 16t-25.5 59q-23 -40 -65.5 -62.5t-103.5 -22.5q-86 0 -135 40t-67 95t-18 108q0 62 24 120.5t74.5 96.5t125.5 38q62 0 102.5 -24t65.5 -73l10 73q2 10 4.5 14t10.5 4q9 0 14.5 -4.5t4.5 -10.5
q-9 -46 -14 -111q-4 -46 -4 -124v-68q0 -57 3 -83t13.5 -37t33.5 -13q10 -1 14.5 -3.5zM385.5 61.5q49.5 36.5 50.5 106.5q1 51 1 117q0 68 -28.5 107t-66 53.5t-68.5 14.5q-68 0 -111.5 -37.5t-62.5 -89.5t-19 -97q0 -44 15 -92t56 -83.5t113 -35.5q71 0 120.5 36.5z
M431.5 677q-3.5 3 -3.5 8v28q0 9 5.5 15.5t17.5 16.5q11 9 16.5 15.5t5.5 14.5q0 15 -9.5 21t-31.5 6q-18 0 -29.5 -8.5t-15.5 -20.5q-2 -5 -9 -5q-12 0 -12 9q0 16 18.5 31t49.5 15q30 0 46 -12.5t16 -36.5q0 -13 -8 -22.5t-21 -19.5q-16 -12 -16 -19v-27q0 -12 -13 -12
q-3 0 -6.5 3zM403 580q-32 48 -62 79.5t-42 31.5q-10 0 -39 -28t-64 -70q-13 -15 -20 -15q-5 0 -9.5 4.5t-4.5 9.5q0 6 6 12l24 25q35 39 62 64t44 25q24 0 60 -38.5t67 -85.5q4 -6 4 -9q0 -4 -4 -8t-9 -4q-8 0 -13 7z" />
    <glyph glyph-name="uni1EAB" unicode="&#x1eab;" horiz-adv-x="607" 
d="M532.5 30.5q4.5 -2.5 4.5 -11.5q0 -16 -15 -16q-40 0 -57.5 16t-25.5 59q-23 -40 -65.5 -62.5t-103.5 -22.5q-86 0 -135 40t-67 95t-18 108q0 62 24 120.5t74.5 96.5t125.5 38q62 0 102.5 -24t65.5 -73l10 73q2 10 4.5 14t10.5 4q9 0 14.5 -4.5t4.5 -10.5
q-9 -46 -14 -111q-4 -46 -4 -124v-68q0 -57 3 -83t13.5 -37t33.5 -13q10 -1 14.5 -3.5zM385.5 61.5q49.5 36.5 50.5 106.5q1 51 1 117q0 68 -28.5 107t-66 53.5t-68.5 14.5q-68 0 -111.5 -37.5t-62.5 -89.5t-19 -97q0 -44 15 -92t56 -83.5t113 -35.5q71 0 120.5 36.5z
M160 746q-5 5 -5 10t5 10q21 26 37 37t39 11q28 0 80 -22q8 -3 28 -13t35 -10q9 0 16.5 4.5t13.5 10t9 7.5q2 2 6.5 6t8.5 4q6 0 10 -4.5t4 -9.5q0 -6 -5 -11q-18 -18 -32.5 -25.5t-32.5 -7.5q-14 0 -26 4.5t-26 11.5t-23 11q-13 6 -33.5 12t-32.5 6t-22.5 -7.5t-18 -15.5
t-10.5 -11q-11 -11 -17 -11q-5 0 -8 3zM403 580q-32 48 -62 79.5t-42 31.5q-10 0 -39 -28t-64 -70q-13 -15 -20 -15q-5 0 -9.5 4.5t-4.5 9.5q0 6 6 12l24 25q35 39 62 64t44 25q24 0 60 -38.5t67 -85.5q4 -6 4 -9q0 -4 -4 -8t-9 -4q-8 0 -13 7z" />
    <glyph glyph-name="adieresis" unicode="&#xe4;" horiz-adv-x="607" 
d="M532.5 30.5q4.5 -2.5 4.5 -11.5q0 -16 -15 -16q-40 0 -57.5 16t-25.5 59q-23 -40 -65.5 -62.5t-103.5 -22.5q-86 0 -135 40t-67 95t-18 108q0 62 24 120.5t74.5 96.5t125.5 38q62 0 102.5 -24t65.5 -73l10 73q2 10 4.5 14t10.5 4q9 0 14.5 -4.5t4.5 -10.5
q-9 -46 -14 -111q-4 -46 -4 -124v-68q0 -57 3 -83t13.5 -37t33.5 -13q10 -1 14.5 -3.5zM385.5 61.5q49.5 36.5 50.5 106.5q1 51 1 117q0 68 -28.5 107t-66 53.5t-68.5 14.5q-68 0 -111.5 -37.5t-62.5 -89.5t-19 -97q0 -44 15 -92t56 -83.5t113 -35.5q71 0 120.5 36.5z
M162.5 598q-10.5 11 -10.5 28q0 16 10.5 26t27.5 10t28 -10t11 -26q0 -17 -11 -28t-28 -11t-27.5 11zM378.5 598q-10.5 11 -10.5 28q0 16 10.5 26t27.5 10t27.5 -10t10.5 -26q0 -17 -10.5 -28t-27.5 -11t-27.5 11z" />
    <glyph glyph-name="uni1EA1" unicode="&#x1ea1;" horiz-adv-x="607" 
d="M532.5 30.5q4.5 -2.5 4.5 -11.5q0 -16 -15 -16q-40 0 -57.5 16t-25.5 59q-23 -40 -65.5 -62.5t-103.5 -22.5q-86 0 -135 40t-67 95t-18 108q0 62 24 120.5t74.5 96.5t125.5 38q62 0 102.5 -24t65.5 -73l10 73q2 10 4.5 14t10.5 4q9 0 14.5 -4.5t4.5 -10.5
q-9 -46 -14 -111q-4 -46 -4 -124v-68q0 -57 3 -83t13.5 -37t33.5 -13q10 -1 14.5 -3.5zM385.5 61.5q49.5 36.5 50.5 106.5q1 51 1 117q0 68 -28.5 107t-66 53.5t-68.5 14.5q-68 0 -111.5 -37.5t-62.5 -89.5t-19 -97q0 -44 15 -92t56 -83.5t113 -35.5q71 0 120.5 36.5z
M270.5 -144q-10.5 11 -10.5 28q0 16 10.5 26t27.5 10t27.5 -10t10.5 -26q0 -17 -10.5 -28t-27.5 -11t-27.5 11z" />
    <glyph glyph-name="agrave" unicode="&#xe0;" horiz-adv-x="607" 
d="M532.5 30.5q4.5 -2.5 4.5 -11.5q0 -16 -15 -16q-40 0 -57.5 16t-25.5 59q-23 -40 -65.5 -62.5t-103.5 -22.5q-86 0 -135 40t-67 95t-18 108q0 62 24 120.5t74.5 96.5t125.5 38q62 0 102.5 -24t65.5 -73l10 73q2 10 4.5 14t10.5 4q9 0 14.5 -4.5t4.5 -10.5
q-9 -46 -14 -111q-4 -46 -4 -124v-68q0 -57 3 -83t13.5 -37t33.5 -13q10 -1 14.5 -3.5zM385.5 61.5q49.5 36.5 50.5 106.5q1 51 1 117q0 68 -28.5 107t-66 53.5t-68.5 14.5q-68 0 -111.5 -37.5t-62.5 -89.5t-19 -97q0 -44 15 -92t56 -83.5t113 -35.5q71 0 120.5 36.5z
M331 572l-79 86l-5.5 5.5t-6.5 8t-2 7.5q0 7 4 11t10 4q10 0 25 -18l73 -85q10 -11 10 -17q0 -5 -3.5 -8.5t-7.5 -3.5q-8 0 -18 10z" />
    <glyph glyph-name="uni1EA3" unicode="&#x1ea3;" horiz-adv-x="607" 
d="M532.5 30.5q4.5 -2.5 4.5 -11.5q0 -16 -15 -16q-40 0 -57.5 16t-25.5 59q-23 -40 -65.5 -62.5t-103.5 -22.5q-86 0 -135 40t-67 95t-18 108q0 62 24 120.5t74.5 96.5t125.5 38q62 0 102.5 -24t65.5 -73l10 73q2 10 4.5 14t10.5 4q9 0 14.5 -4.5t4.5 -10.5
q-9 -46 -14 -111q-4 -46 -4 -124v-68q0 -57 3 -83t13.5 -37t33.5 -13q10 -1 14.5 -3.5zM385.5 61.5q49.5 36.5 50.5 106.5q1 51 1 117q0 68 -28.5 107t-66 53.5t-68.5 14.5q-68 0 -111.5 -37.5t-62.5 -89.5t-19 -97q0 -44 15 -92t56 -83.5t113 -35.5q71 0 120.5 36.5z
M292 570.5q-4 4.5 -4 10.5v38q0 12 8 21t27 26q18 14 27.5 25t9.5 24q0 22 -18.5 34.5t-50.5 12.5q-48 0 -75 -50q-4 -8 -13 -8q-5 0 -10 4.5t-5 10.5q0 5 4 11q14 25 37.5 41t63.5 16q47 0 71 -18.5t24 -54.5q0 -19 -11.5 -34t-32.5 -31q-12 -9 -18 -15.5t-6 -12.5
q-1 -15 -1 -37q0 -18 -17 -18q-6 0 -10 4.5z" />
    <glyph glyph-name="uni0251" unicode="&#x251;" horiz-adv-x="607" 
d="M532.5 30.5q4.5 -2.5 4.5 -11.5q0 -16 -15 -16q-40 0 -57.5 16t-25.5 59q-23 -40 -65.5 -62.5t-103.5 -22.5q-86 0 -135 40t-67 95t-18 108q0 62 24 120.5t74.5 96.5t125.5 38q62 0 102.5 -24t65.5 -73l10 73q2 10 4.5 14t10.5 4q9 0 14.5 -4.5t4.5 -10.5
q-9 -46 -14 -111q-4 -46 -4 -124v-68q0 -57 3 -83t13.5 -37t33.5 -13q10 -1 14.5 -3.5zM385.5 61.5q49.5 36.5 50.5 106.5q1 51 1 117q0 68 -28.5 107t-66 53.5t-68.5 14.5q-68 0 -111.5 -37.5t-62.5 -89.5t-19 -97q0 -44 15 -92t56 -83.5t113 -35.5q71 0 120.5 36.5z" />
    <glyph glyph-name="amacron" unicode="&#x101;" horiz-adv-x="607" 
d="M532.5 30.5q4.5 -2.5 4.5 -11.5q0 -16 -15 -16q-40 0 -57.5 16t-25.5 59q-23 -40 -65.5 -62.5t-103.5 -22.5q-86 0 -135 40t-67 95t-18 108q0 62 24 120.5t74.5 96.5t125.5 38q62 0 102.5 -24t65.5 -73l10 73q2 10 4.5 14t10.5 4q9 0 14.5 -4.5t4.5 -10.5
q-9 -46 -14 -111q-4 -46 -4 -124v-68q0 -57 3 -83t13.5 -37t33.5 -13q10 -1 14.5 -3.5zM385.5 61.5q49.5 36.5 50.5 106.5q1 51 1 117q0 68 -28.5 107t-66 53.5t-68.5 14.5q-68 0 -111.5 -37.5t-62.5 -89.5t-19 -97q0 -44 15 -92t56 -83.5t113 -35.5q71 0 120.5 36.5z
M135 583q-6 0 -9 3t-3 11q0 13 11 15q17 4 64.5 9t117.5 5l131 -1q17 0 17 -15q0 -7 -3.5 -10t-12.5 -3h-26q-24 1 -123 1q-71 0 -113.5 -7t-47.5 -8h-3z" />
    <glyph glyph-name="aogonek" unicode="&#x105;" horiz-adv-x="607" 
d="M557.5 -123q2.5 -3 2.5 -7q0 -20 -39 -20q-80 0 -80 63q0 50 50 93q-22 5 -33.5 21.5t-18.5 50.5q-23 -40 -65.5 -62.5t-103.5 -22.5q-86 0 -135 40t-67 95t-18 108q0 62 24 120.5t74.5 96.5t125.5 38q62 0 102.5 -24t65.5 -73l10 73q2 10 4.5 14t10.5 4q9 0 14.5 -4.5
t4.5 -10.5q-9 -46 -14 -111q-4 -46 -4 -124v-68q0 -57 3 -83t13.5 -37t33.5 -13q10 -1 14.5 -3.5t4.5 -11.5q0 -6 -3 -11q0 -2 -4 -6q-28 -23 -43.5 -43t-15.5 -45q0 -40 52 -40q9 0 17.5 3t11.5 3t5.5 -3zM385.5 61.5q49.5 36.5 50.5 106.5q1 51 1 117q0 68 -28.5 107
t-66 53.5t-68.5 14.5q-68 0 -111.5 -37.5t-62.5 -89.5t-19 -97q0 -44 15 -92t56 -83.5t113 -35.5q71 0 120.5 36.5z" />
    <glyph glyph-name="aring" unicode="&#xe5;" horiz-adv-x="607" 
d="M532.5 30.5q4.5 -2.5 4.5 -11.5q0 -16 -15 -16q-40 0 -57.5 16t-25.5 59q-23 -40 -65.5 -62.5t-103.5 -22.5q-86 0 -135 40t-67 95t-18 108q0 62 24 120.5t74.5 96.5t125.5 38q62 0 102.5 -24t65.5 -73l10 73q2 10 4.5 14t10.5 4q9 0 14.5 -4.5t4.5 -10.5
q-9 -46 -14 -111q-4 -46 -4 -124v-68q0 -57 3 -83t13.5 -37t33.5 -13q10 -1 14.5 -3.5zM385.5 61.5q49.5 36.5 50.5 106.5q1 51 1 117q0 68 -28.5 107t-66 53.5t-68.5 14.5q-68 0 -111.5 -37.5t-62.5 -89.5t-19 -97q0 -44 15 -92t56 -83.5t113 -35.5q71 0 120.5 36.5z
M233 564q-27 27 -27 66q0 38 27.5 64t68.5 26q38 0 63.5 -27.5t25.5 -62.5q0 -41 -26 -67t-66 -26q-39 0 -66 27zM346 583q19 19 19 47q0 25 -19 44.5t-47 19.5q-29 0 -47.5 -19.5t-18.5 -44.5q0 -28 19 -47t47 -19t47 19z" />
    <glyph glyph-name="aringacute" unicode="&#x1fb;" horiz-adv-x="607" 
d="M532.5 30.5q4.5 -2.5 4.5 -11.5q0 -16 -15 -16q-40 0 -57.5 16t-25.5 59q-23 -40 -65.5 -62.5t-103.5 -22.5q-86 0 -135 40t-67 95t-18 108q0 62 24 120.5t74.5 96.5t125.5 38q62 0 102.5 -24t65.5 -73l10 73q2 10 4.5 14t10.5 4q9 0 14.5 -4.5t4.5 -10.5
q-9 -46 -14 -111q-4 -46 -4 -124v-68q0 -57 3 -83t13.5 -37t33.5 -13q10 -1 14.5 -3.5zM385.5 61.5q49.5 36.5 50.5 106.5q1 51 1 117q0 68 -28.5 107t-66 53.5t-68.5 14.5q-68 0 -111.5 -37.5t-62.5 -89.5t-19 -97q0 -44 15 -92t56 -83.5t113 -35.5q71 0 120.5 36.5z
M233 564q-27 27 -27 66q0 38 27.5 64t68.5 26q38 0 63.5 -27.5t25.5 -62.5q0 -41 -26 -67t-66 -26q-39 0 -66 27zM346 583q19 19 19 47q0 25 -19 44.5t-47 19.5q-29 0 -47.5 -19.5t-18.5 -44.5q0 -28 19 -47t47 -19t47 19zM261.5 785.5q-3.5 3.5 -3.5 8.5q0 6 10 17l73 85
q15 18 25 18q6 0 10 -4t4 -11q0 -5 -3.5 -9.5t-6.5 -7.5l-4 -4l-79 -86q-10 -10 -18 -10q-4 0 -7.5 3.5z" />
    <glyph glyph-name="atilde" unicode="&#xe3;" horiz-adv-x="607" 
d="M532.5 30.5q4.5 -2.5 4.5 -11.5q0 -16 -15 -16q-40 0 -57.5 16t-25.5 59q-23 -40 -65.5 -62.5t-103.5 -22.5q-86 0 -135 40t-67 95t-18 108q0 62 24 120.5t74.5 96.5t125.5 38q62 0 102.5 -24t65.5 -73l10 73q2 10 4.5 14t10.5 4q9 0 14.5 -4.5t4.5 -10.5
q-9 -46 -14 -111q-4 -46 -4 -124v-68q0 -57 3 -83t13.5 -37t33.5 -13q10 -1 14.5 -3.5zM385.5 61.5q49.5 36.5 50.5 106.5q1 51 1 117q0 68 -28.5 107t-66 53.5t-68.5 14.5q-68 0 -111.5 -37.5t-62.5 -89.5t-19 -97q0 -44 15 -92t56 -83.5t113 -35.5q71 0 120.5 36.5z
M153 590q0 5 5 10q21 26 36.5 37t39.5 11q42 0 80 -20q3 -2 16.5 -9t25.5 -11t21 -4q19 0 39 22q9 10 15 10q3 0 8.5 -5.5t5.5 -9.5q0 -6 -4 -10q-18 -18 -33 -26t-33 -8q-14 0 -29 6.5t-17 7.5q-18 10 -29 13q-6 2 -29 11t-37 9q-10 0 -19.5 -7t-18 -16t-12.5 -13
q-11 -11 -18 -11q-5 0 -8 3q-5 5 -5 10z" />
    <glyph glyph-name="ae" unicode="&#xe6;" horiz-adv-x="981" 
d="M474 236q-4 -111 54.5 -164t166.5 -53q63 0 106.5 28.5t80.5 83.5q3 5 9 5t12.5 -4.5t6.5 -11.5q0 -5 -6 -14q-77 -116 -209 -116q-89 0 -148 32.5t-81 93.5q-13 -64 -71 -95t-137 -31q-106 0 -156.5 31t-50.5 96q0 158 204 162l191 4l1 11q2 45 -21 87.5t-66 69.5
t-99 27q-65 0 -108.5 -23.5t-78.5 -58.5q-3 -3 -8 -3q-6 0 -11 4t-5 10q0 7 7 14q41 41 91 63.5t115 22.5q53 0 96 -21.5t70.5 -56t34.5 -71.5q24 65 83.5 109.5t147.5 44.5q67 0 121 -29.5t84.5 -77.5t30.5 -100q0 -23 -7.5 -30.5t-27.5 -8.5l-421 -11zM587.5 455.5
q-49.5 -27.5 -79.5 -73t-33 -99.5l425 13v10q0 44 -25.5 85t-72.5 66.5t-107 25.5q-58 0 -107.5 -27.5zM393.5 55.5q52.5 36.5 52.5 122.5v77l-191 -4q-88 -1 -131.5 -35.5t-43.5 -98.5q0 -50 43 -74t134 -24q84 0 136.5 36.5z" />
    <glyph glyph-name="aeacute" unicode="&#x1fd;" horiz-adv-x="981" 
d="M474 236q-4 -111 54.5 -164t166.5 -53q63 0 106.5 28.5t80.5 83.5q3 5 9 5t12.5 -4.5t6.5 -11.5q0 -5 -6 -14q-77 -116 -209 -116q-89 0 -148 32.5t-81 93.5q-13 -64 -71 -95t-137 -31q-106 0 -156.5 31t-50.5 96q0 158 204 162l191 4l1 11q2 45 -21 87.5t-66 69.5
t-99 27q-65 0 -108.5 -23.5t-78.5 -58.5q-3 -3 -8 -3q-6 0 -11 4t-5 10q0 7 7 14q41 41 91 63.5t115 22.5q53 0 96 -21.5t70.5 -56t34.5 -71.5q24 65 83.5 109.5t147.5 44.5q67 0 121 -29.5t84.5 -77.5t30.5 -100q0 -23 -7.5 -30.5t-27.5 -8.5l-421 -11zM587.5 455.5
q-49.5 -27.5 -79.5 -73t-33 -99.5l425 13v10q0 44 -25.5 85t-72.5 66.5t-107 25.5q-58 0 -107.5 -27.5zM393.5 55.5q52.5 36.5 52.5 122.5v77l-191 -4q-88 -1 -131.5 -35.5t-43.5 -98.5q0 -50 43 -74t134 -24q84 0 136.5 36.5zM413.5 564.5q-3.5 2.5 -4.5 6.5v3q0 6 7 14
l86 105q9 11 14 14.5t12 3.5t11.5 -5t4.5 -12q0 -9 -16 -27l-87 -93q-6 -6 -10.5 -9t-9.5 -3q-4 0 -7.5 2.5z" />
    <glyph glyph-name="b" unicode="b" horiz-adv-x="649" 
d="M532.5 431q66.5 -69 66.5 -189q0 -93 -39 -148t-94 -77t-110 -22q-54 0 -98 16t-72.5 39.5t-38.5 45.5q-1 -28 -16 -49.5t-38 -33.5q-4 -2 -7 -2q-8 0 -12 5.5t-4 10.5q0 6 5 10q16 15 25 24t15 23q4 8 5.5 22t1.5 45q0 53 -6 239q-2 53 -4 165q-2 53 -4.5 150.5
t-5.5 148.5v2q0 15 17 15q16 0 16 -15l3 -122q5 -222 9 -318q33 38 84 61t119 23q116 0 182.5 -69zM454 46q48 20 81 68.5t33 128.5q0 108 -60 167t-156 59q-66 0 -117 -27t-85 -72v-58v-39q1 -36 4 -103q2 -38 30 -71.5t74 -53t98 -19.5q50 0 98 20z" />
    <glyph glyph-name="c" unicode="c" horiz-adv-x="572" 
d="M156 35.5q-54 33.5 -80 88t-26 117.5q0 66 27 128.5t82.5 102.5t135.5 40q62 0 108 -23.5t71.5 -56t33.5 -61.5q1 -2 1 -7q0 -9 -11 -12h-4q-13 0 -17 14q-8 28 -31 54t-60 43.5t-85 17.5q-69 0 -118.5 -34.5t-75.5 -89.5t-26 -114q0 -56 23.5 -103.5t71.5 -77t117 -29.5
q67 0 111.5 26.5t65.5 63t21 65.5q0 17 16 17q15 0 15 -19q0 -37 -23 -79.5t-75 -73.5t-133 -31t-135 33.5z" />
    <glyph glyph-name="cacute" unicode="&#x107;" horiz-adv-x="572" 
d="M156 35.5q-54 33.5 -80 88t-26 117.5q0 66 27 128.5t82.5 102.5t135.5 40q62 0 108 -23.5t71.5 -56t33.5 -61.5q1 -2 1 -7q0 -9 -11 -12h-4q-13 0 -17 14q-8 28 -31 54t-60 43.5t-85 17.5q-69 0 -118.5 -34.5t-75.5 -89.5t-26 -114q0 -56 23.5 -103.5t71.5 -77t117 -29.5
q67 0 111.5 26.5t65.5 63t21 65.5q0 17 16 17q15 0 15 -19q0 -37 -23 -79.5t-75 -73.5t-133 -31t-135 33.5zM241.5 565.5q-3.5 3.5 -3.5 8.5q0 6 10 17l73 85q15 18 25 18q6 0 10 -4t4 -11q0 -5 -3.5 -9.5t-6.5 -7.5l-4 -4l-79 -86q-10 -10 -18 -10q-4 0 -7.5 3.5z" />
    <glyph glyph-name="ccaron" unicode="&#x10d;" horiz-adv-x="572" 
d="M156 35.5q-54 33.5 -80 88t-26 117.5q0 66 27 128.5t82.5 102.5t135.5 40q62 0 108 -23.5t71.5 -56t33.5 -61.5q1 -2 1 -7q0 -9 -11 -12h-4q-13 0 -17 14q-8 28 -31 54t-60 43.5t-85 17.5q-69 0 -118.5 -34.5t-75.5 -89.5t-26 -114q0 -56 23.5 -103.5t71.5 -77t117 -29.5
q67 0 111.5 26.5t65.5 63t21 65.5q0 17 16 17q15 0 15 -19q0 -37 -23 -79.5t-75 -73.5t-133 -31t-135 33.5zM405 708q4 -4 4 -8q0 -3 -4 -9q-31 -47 -67 -85.5t-60 -38.5q-17 0 -44 25t-62 64l-24 25q-6 6 -6 12q0 5 4.5 9.5t9.5 4.5q8 0 20 -15q35 -42 64 -70t39 -28
q12 0 42 31.5t62 79.5q5 7 13 7q5 0 9 -4z" />
    <glyph glyph-name="ccedilla" unicode="&#xe7;" horiz-adv-x="572" 
d="M522 186q0 -36 -22.5 -78.5t-73 -73.5t-128.5 -32l-0.5 -0.5l-0.5 -0.5l-41 -64q42 -9 67.5 -28t25.5 -48q0 -45 -34 -68.5t-82 -23.5q-27 0 -69 14q-6 2 -8.5 7t-1.5 10q1 6 6 8.5t13 0.5q14 -4 31.5 -8t32.5 -4q35 0 57.5 13.5t22.5 43.5q0 26 -23.5 39t-66.5 20
q-19 3 -16 14l50 76q-71 6 -118.5 40.5t-70 86.5t-22.5 111q0 66 27 128.5t82.5 102.5t135.5 40q62 0 108 -23.5t71.5 -56t33.5 -61.5q1 -2 1 -7q0 -9 -11 -12h-4q-13 0 -17 14q-8 28 -31 54t-60 43.5t-85 17.5q-69 0 -118.5 -34.5t-75.5 -89.5t-26 -114q0 -56 23.5 -103.5
t71.5 -77t117 -29.5q67 0 111.5 26.5t65.5 63t21 65.5q0 17 16 17q15 0 15 -19z" />
    <glyph glyph-name="ccircumflex" unicode="&#x109;" horiz-adv-x="572" 
d="M156 35.5q-54 33.5 -80 88t-26 117.5q0 66 27 128.5t82.5 102.5t135.5 40q62 0 108 -23.5t71.5 -56t33.5 -61.5q1 -2 1 -7q0 -9 -11 -12h-4q-13 0 -17 14q-8 28 -31 54t-60 43.5t-85 17.5q-69 0 -118.5 -34.5t-75.5 -89.5t-26 -114q0 -56 23.5 -103.5t71.5 -77t117 -29.5
q67 0 111.5 26.5t65.5 63t21 65.5q0 17 16 17q15 0 15 -19q0 -37 -23 -79.5t-75 -73.5t-133 -31t-135 33.5zM383 579q-32 48 -62 79.5t-42 31.5q-10 0 -39 -28t-64 -70q-12 -15 -20 -15q-5 0 -9.5 4.5t-4.5 9.5q0 6 6 12l24 25q35 39 62 64t44 25q24 0 60 -38.5t67 -85.5
q4 -6 4 -9q0 -4 -4 -8t-9 -4q-8 0 -13 7z" />
    <glyph glyph-name="cdotaccent" unicode="&#x10b;" horiz-adv-x="572" 
d="M156 35.5q-54 33.5 -80 88t-26 117.5q0 66 27 128.5t82.5 102.5t135.5 40q62 0 108 -23.5t71.5 -56t33.5 -61.5q1 -2 1 -7q0 -9 -11 -12h-4q-13 0 -17 14q-8 28 -31 54t-60 43.5t-85 17.5q-69 0 -118.5 -34.5t-75.5 -89.5t-26 -114q0 -56 23.5 -103.5t71.5 -77t117 -29.5
q67 0 111.5 26.5t65.5 63t21 65.5q0 17 16 17q15 0 15 -19q0 -37 -23 -79.5t-75 -73.5t-133 -31t-135 33.5zM249.5 598q-10.5 11 -10.5 28q0 16 10.5 26t27.5 10t27.5 -10t10.5 -26q0 -17 -10.5 -28t-27.5 -11t-27.5 11z" />
    <glyph glyph-name="d" unicode="d" horiz-adv-x="650" 
d="M177 19q-56 26 -91.5 83t-35.5 144q0 120 68.5 187.5t184.5 67.5q71 0 123 -23.5t76 -54.5q-1 71 4 202.5t13 228.5q2 17 16 17q8 0 12.5 -4t3.5 -11q-8 -83 -14 -258.5t-6 -322.5q0 -162 8 -191q7 -24 17.5 -36t20.5 -15q3 -1 3 -7q0 -7 -4 -12t-10 -5q-4 0 -8 2
q-24 10 -36 30t-17 58q-26 -47 -83.5 -76.5t-124.5 -29.5q-64 0 -120 26zM394 45.5q47 21.5 76 59.5t29 85q0 50 1 78l1 108q-8 19 -35 41t-69.5 37.5t-93.5 15.5q-65 0 -115.5 -27t-78.5 -77.5t-28 -120.5q0 -77 33.5 -127t83 -72t99.5 -22t97 21.5z" />
    <glyph glyph-name="eth" unicode="&#xf0;" horiz-adv-x="576" 
d="M500 424.5q26 -84.5 26 -158.5q0 -88 -34.5 -147.5t-91 -88t-121.5 -28.5q-72 0 -123.5 33t-78.5 87.5t-27 118.5q0 65 27.5 128t81 103t127.5 40q52 0 94 -20.5t79 -58.5q-26 72 -73 133q-39 51 -82 84l-106 -59q-8 -4 -12 -4q-5 0 -10 4t-5 12q0 4 2.5 7t9.5 7l94 54
q-34 23 -61.5 35t-39.5 15q-8 3 -8 14q0 6 4.5 11t12.5 5t26 -8q50 -21 96 -55l102 58q4 2 6 2q4 0 10 -6t6 -13q0 -5 -3.5 -8.5t-7.5 -5.5t-5 -3l-80 -45q47 -38 81 -83q58 -75 84 -159.5zM383.5 60q48.5 25 79 75.5t30.5 124.5q0 44 -12 101q-92 120 -194 120
q-57 0 -104.5 -34.5t-74.5 -89.5t-27 -114q0 -57 25 -104.5t70.5 -75.5t104.5 -28q54 0 102.5 25z" />
    <glyph glyph-name="dcaron" unicode="&#x10f;" horiz-adv-x="727" 
d="M177 19q-56 26 -91.5 83t-35.5 144q0 120 68.5 187.5t184.5 67.5q71 0 123 -23.5t76 -54.5q-1 71 4 202.5t13 228.5q2 17 16 17q8 0 12.5 -4t3.5 -11q-8 -83 -14 -258.5t-6 -322.5q0 -162 8 -191q7 -24 17.5 -36t20.5 -15q3 -1 3 -7q0 -7 -4 -12t-10 -5q-4 0 -8 2
q-24 10 -36 30t-17 58q-26 -47 -83.5 -76.5t-124.5 -29.5q-64 0 -120 26zM394 45.5q47 21.5 76 59.5t29 85q0 50 1 78l1 108q-8 19 -35 41t-69.5 37.5t-93.5 15.5q-65 0 -115.5 -27t-78.5 -77.5t-28 -120.5q0 -77 33.5 -127t83 -72t99.5 -22t97 21.5zM704.5 790.5
q12.5 -12.5 12.5 -29.5q0 -27 -20.5 -58.5t-59.5 -70.5q-3 -3 -7 -3q-5 0 -8.5 3.5t-3.5 8.5q0 3 2 5t27 26.5t33 48.5q-2 -1 -7 -1q-16 0 -28.5 12t-12.5 29q0 18 13 30t30 12t29.5 -12.5z" />
    <glyph glyph-name="dcroat" unicode="&#x111;" horiz-adv-x="730" 
d="M665 692.5q5 -2.5 5 -10.5q0 -7 -5.5 -11.5t-15.5 -4.5l-110 -2q-8 -195 -8 -385q0 -166 8 -195q7 -24 17.5 -36t20.5 -15q3 -1 3 -7q0 -7 -4 -12t-10 -5q-4 0 -8 2q-24 10 -36 30t-17 58q-26 -47 -83.5 -76.5t-124.5 -29.5q-64 0 -120 26t-91.5 83t-35.5 144
q0 120 68.5 187.5t184.5 67.5q71 0 123 -23.5t76 -54.5q-2 81 5 240l-84 -1q-10 0 -14 3t-4 11q0 7 4 10t14 3l86 2q2 71 10 163q2 17 16 17q8 0 12.5 -4t3.5 -11q-5 -46 -10 -164l108 3q11 0 16 -2.5zM500 268l1 108q-8 19 -35 41t-69.5 37.5t-93.5 15.5q-65 0 -115.5 -27
t-78.5 -77.5t-28 -120.5q0 -77 33.5 -127t83 -72t99.5 -22t97 21.5t76 59.5t29 85q0 50 1 78z" />
    <glyph glyph-name="uni1E0D" unicode="&#x1e0d;" horiz-adv-x="650" 
d="M177 19q-56 26 -91.5 83t-35.5 144q0 120 68.5 187.5t184.5 67.5q71 0 123 -23.5t76 -54.5q-1 71 4 202.5t13 228.5q2 17 16 17q8 0 12.5 -4t3.5 -11q-8 -83 -14 -258.5t-6 -322.5q0 -162 8 -191q7 -24 17.5 -36t20.5 -15q3 -1 3 -7q0 -7 -4 -12t-10 -5q-4 0 -8 2
q-24 10 -36 30t-17 58q-26 -47 -83.5 -76.5t-124.5 -29.5q-64 0 -120 26zM394 45.5q47 21.5 76 59.5t29 85q0 50 1 78l1 108q-8 19 -35 41t-69.5 37.5t-93.5 15.5q-65 0 -115.5 -27t-78.5 -77.5t-28 -120.5q0 -77 33.5 -127t83 -72t99.5 -22t97 21.5zM272.5 -144
q-10.5 11 -10.5 28q0 16 10.5 26t27.5 10t27.5 -10t10.5 -26q0 -17 -10.5 -28t-27.5 -11t-27.5 11z" />
    <glyph glyph-name="uni1E0F" unicode="&#x1e0f;" horiz-adv-x="650" 
d="M177 19q-56 26 -91.5 83t-35.5 144q0 120 68.5 187.5t184.5 67.5q71 0 123 -23.5t76 -54.5q-1 71 4 202.5t13 228.5q2 17 16 17q8 0 12.5 -4t3.5 -11q-8 -83 -14 -258.5t-6 -322.5q0 -162 8 -191q7 -24 17.5 -36t20.5 -15q3 -1 3 -7q0 -7 -4 -12t-10 -5q-4 0 -8 2
q-24 10 -36 30t-17 58q-26 -47 -83.5 -76.5t-124.5 -29.5q-64 0 -120 26zM394 45.5q47 21.5 76 59.5t29 85q0 50 1 78l1 108q-8 19 -35 41t-69.5 37.5t-93.5 15.5q-65 0 -115.5 -27t-78.5 -77.5t-28 -120.5q0 -77 33.5 -127t83 -72t99.5 -22t97 21.5zM158.5 -135.5
q-3.5 3.5 -3.5 11.5q0 13 10 14q72 9 180 9q35 0 73 -2q12 -1 30 -1q17 0 17 -15q0 -13 -16 -13l-25 1q-57 3 -80 3q-52 0 -143 -8q-25 -3 -36 -3q-3 0 -6.5 3.5z" />
    <glyph glyph-name="e" unicode="e" horiz-adv-x="581" 
d="M162.5 36q-56.5 36 -84.5 94t-28 123q0 68 30 127t87 95.5t135 36.5q67 0 119 -27.5t81 -75t29 -107.5q0 -25 -6 -33t-28 -8l-416 -12q0 -59 26.5 -109t77 -79.5t117.5 -29.5q51 0 86.5 16.5t55.5 37.5t45 56q3 4 9 4q7 0 13 -4.5t6 -11.5q0 -5 -6 -13q-33 -50 -79.5 -83
t-130.5 -33q-82 0 -138.5 36zM495 292q4 0 5.5 2t1.5 10q0 50 -25.5 90t-70.5 63.5t-101 23.5q-68 0 -119 -32.5t-78 -80t-27 -89.5z" />
    <glyph glyph-name="eacute" unicode="&#xe9;" horiz-adv-x="581" 
d="M162.5 36q-56.5 36 -84.5 94t-28 123q0 68 30 127t87 95.5t135 36.5q67 0 119 -27.5t81 -75t29 -107.5q0 -25 -6 -33t-28 -8l-416 -12q0 -59 26.5 -109t77 -79.5t117.5 -29.5q51 0 86.5 16.5t55.5 37.5t45 56q3 4 9 4q7 0 13 -4.5t6 -11.5q0 -5 -6 -13q-33 -50 -79.5 -83
t-130.5 -33q-82 0 -138.5 36zM495 292q4 0 5.5 2t1.5 10q0 50 -25.5 90t-70.5 63.5t-101 23.5q-68 0 -119 -32.5t-78 -80t-27 -89.5zM241.5 564.5q-3.5 2.5 -4.5 6.5v3q0 6 7 14l86 105q9 11 14 14.5t12 3.5t11.5 -5t4.5 -12q0 -9 -16 -27l-87 -93q-6 -6 -10.5 -9t-9.5 -3
q-4 0 -7.5 2.5z" />
    <glyph glyph-name="ebreve" unicode="&#x115;" horiz-adv-x="581" 
d="M162.5 36q-56.5 36 -84.5 94t-28 123q0 68 30 127t87 95.5t135 36.5q67 0 119 -27.5t81 -75t29 -107.5q0 -25 -6 -33t-28 -8l-416 -12q0 -59 26.5 -109t77 -79.5t117.5 -29.5q51 0 86.5 16.5t55.5 37.5t45 56q3 4 9 4q7 0 13 -4.5t6 -11.5q0 -5 -6 -13q-33 -50 -79.5 -83
t-130.5 -33q-82 0 -138.5 36zM495 292q4 0 5.5 2t1.5 10q0 50 -25.5 90t-70.5 63.5t-101 23.5q-68 0 -119 -32.5t-78 -80t-27 -89.5zM222.5 593.5q-32.5 16.5 -50 43t-17.5 55.5q0 5 3 8.5t8 3.5q17 0 17 -10q0 -39 34 -64.5t80 -25.5q27 0 51.5 13t39.5 33.5t15 40.5
q0 8 6 12t12 4q5 0 9 -3t4 -9q0 -29 -19 -56.5t-50.5 -44.5t-67.5 -17q-42 0 -74.5 16.5z" />
    <glyph glyph-name="ecaron" unicode="&#x11b;" horiz-adv-x="581" 
d="M162.5 36q-56.5 36 -84.5 94t-28 123q0 68 30 127t87 95.5t135 36.5q67 0 119 -27.5t81 -75t29 -107.5q0 -25 -6 -33t-28 -8l-416 -12q0 -59 26.5 -109t77 -79.5t117.5 -29.5q51 0 86.5 16.5t55.5 37.5t45 56q3 4 9 4q7 0 13 -4.5t6 -11.5q0 -5 -6 -13q-33 -50 -79.5 -83
t-130.5 -33q-82 0 -138.5 36zM495 292q4 0 5.5 2t1.5 10q0 50 -25.5 90t-70.5 63.5t-101 23.5q-68 0 -119 -32.5t-78 -80t-27 -89.5zM424 708q4 -4 4 -8q0 -3 -4 -9q-31 -47 -67 -85.5t-60 -38.5q-17 0 -44 25t-62 64l-24 25q-6 6 -6 12q0 5 4.5 9.5t9.5 4.5q8 0 20 -15
q35 -42 64 -70t39 -28q12 0 42 31.5t62 79.5q5 7 13 7q5 0 9 -4z" />
    <glyph glyph-name="ecircumflex" unicode="&#xea;" horiz-adv-x="581" 
d="M162.5 36q-56.5 36 -84.5 94t-28 123q0 68 30 127t87 95.5t135 36.5q67 0 119 -27.5t81 -75t29 -107.5q0 -25 -6 -33t-28 -8l-416 -12q0 -59 26.5 -109t77 -79.5t117.5 -29.5q51 0 86.5 16.5t55.5 37.5t45 56q3 4 9 4q7 0 13 -4.5t6 -11.5q0 -5 -6 -13q-33 -50 -79.5 -83
t-130.5 -33q-82 0 -138.5 36zM495 292q4 0 5.5 2t1.5 10q0 50 -25.5 90t-70.5 63.5t-101 23.5q-68 0 -119 -32.5t-78 -80t-27 -89.5zM402 579q-32 48 -62 79.5t-42 31.5q-10 0 -39 -28t-64 -70q-12 -15 -20 -15q-5 0 -9.5 4.5t-4.5 9.5q0 6 6 12l24 25q35 39 62 64t44 25
q24 0 60 -38.5t67 -85.5q4 -6 4 -9q0 -4 -4 -8t-9 -4q-8 0 -13 7z" />
    <glyph glyph-name="uni1EBF" unicode="&#x1ebf;" horiz-adv-x="581" 
d="M162.5 36q-56.5 36 -84.5 94t-28 123q0 68 30 127t87 95.5t135 36.5q67 0 119 -27.5t81 -75t29 -107.5q0 -25 -6 -33t-28 -8l-416 -12q0 -59 26.5 -109t77 -79.5t117.5 -29.5q51 0 86.5 16.5t55.5 37.5t45 56q3 4 9 4q7 0 13 -4.5t6 -11.5q0 -5 -6 -13q-33 -50 -79.5 -83
t-130.5 -33q-82 0 -138.5 36zM495 292q4 0 5.5 2t1.5 10q0 50 -25.5 90t-70.5 63.5t-101 23.5q-68 0 -119 -32.5t-78 -80t-27 -89.5zM395.5 683.5q-3.5 3.5 -3.5 8.5q0 7 9 17l57 59q8 8 13.5 12.5t10.5 4.5t9.5 -4t4.5 -11q0 -5 -3 -9t-6 -7l-4 -4l-63 -60q-5 -6 -9 -8
t-8 -2t-7.5 3.5zM402 580q-32 48 -62 79.5t-42 31.5q-10 0 -39 -28t-64 -70q-13 -15 -20 -15q-5 0 -9.5 4.5t-4.5 9.5q0 6 6 12l24 25q35 39 62 64t44 25q24 0 60 -38.5t67 -85.5q4 -6 4 -9q0 -4 -4 -8t-9 -4q-8 0 -13 7z" />
    <glyph glyph-name="uni1EC7" unicode="&#x1ec7;" horiz-adv-x="581" 
d="M162.5 36q-56.5 36 -84.5 94t-28 123q0 68 30 127t87 95.5t135 36.5q67 0 119 -27.5t81 -75t29 -107.5q0 -25 -6 -33t-28 -8l-416 -12q0 -59 26.5 -109t77 -79.5t117.5 -29.5q51 0 86.5 16.5t55.5 37.5t45 56q3 4 9 4q7 0 13 -4.5t6 -11.5q0 -5 -6 -13q-33 -50 -79.5 -83
t-130.5 -33q-82 0 -138.5 36zM495 292q4 0 5.5 2t1.5 10q0 50 -25.5 90t-70.5 63.5t-101 23.5q-68 0 -119 -32.5t-78 -80t-27 -89.5zM269.5 -144q-10.5 11 -10.5 28q0 16 10.5 26t27.5 10t27.5 -10t10.5 -26q0 -17 -10.5 -28t-27.5 -11t-27.5 11zM402 579q-32 48 -62 79.5
t-42 31.5q-10 0 -39 -28t-64 -70q-12 -15 -20 -15q-5 0 -9.5 4.5t-4.5 9.5q0 6 6 12l24 25q35 39 62 64t44 25q24 0 60 -38.5t67 -85.5q4 -6 4 -9q0 -4 -4 -8t-9 -4q-8 0 -13 7z" />
    <glyph glyph-name="uni1EC1" unicode="&#x1ec1;" horiz-adv-x="581" 
d="M162.5 36q-56.5 36 -84.5 94t-28 123q0 68 30 127t87 95.5t135 36.5q67 0 119 -27.5t81 -75t29 -107.5q0 -25 -6 -33t-28 -8l-416 -12q0 -59 26.5 -109t77 -79.5t117.5 -29.5q51 0 86.5 16.5t55.5 37.5t45 56q3 4 9 4q7 0 13 -4.5t6 -11.5q0 -5 -6 -13q-33 -50 -79.5 -83
t-130.5 -33q-82 0 -138.5 36zM495 292q4 0 5.5 2t1.5 10q0 50 -25.5 90t-70.5 63.5t-101 23.5q-68 0 -119 -32.5t-78 -80t-27 -89.5zM447 682q-4 2 -9 8l-63 60l-5.5 5.5t-6 7.5t-1.5 7q0 7 4 11t10 4q5 0 10.5 -4.5t13.5 -12.5l57 -59q9 -10 9 -17q0 -5 -3.5 -8.5
t-7.5 -3.5t-8 2zM402 580q-32 48 -62 79.5t-42 31.5q-10 0 -39 -28t-64 -70q-13 -15 -20 -15q-5 0 -9.5 4.5t-4.5 9.5q0 6 6 12l24 25q35 39 62 64t44 25q24 0 60 -38.5t67 -85.5q4 -6 4 -9q0 -4 -4 -8t-9 -4q-8 0 -13 7z" />
    <glyph glyph-name="uni1EC3" unicode="&#x1ec3;" horiz-adv-x="581" 
d="M162.5 36q-56.5 36 -84.5 94t-28 123q0 68 30 127t87 95.5t135 36.5q67 0 119 -27.5t81 -75t29 -107.5q0 -25 -6 -33t-28 -8l-416 -12q0 -59 26.5 -109t77 -79.5t117.5 -29.5q51 0 86.5 16.5t55.5 37.5t45 56q3 4 9 4q7 0 13 -4.5t6 -11.5q0 -5 -6 -13q-33 -50 -79.5 -83
t-130.5 -33q-82 0 -138.5 36zM495 292q4 0 5.5 2t1.5 10q0 50 -25.5 90t-70.5 63.5t-101 23.5q-68 0 -119 -32.5t-78 -80t-27 -89.5zM430.5 677q-3.5 3 -3.5 8v28q0 9 5.5 15.5t17.5 16.5q11 9 16.5 15.5t5.5 14.5q0 15 -9.5 21t-31.5 6q-18 0 -29.5 -8.5t-15.5 -20.5
q-2 -5 -9 -5q-12 0 -12 9q0 16 18.5 31t49.5 15q30 0 46 -12.5t16 -36.5q0 -13 -8 -22.5t-21 -19.5q-16 -12 -16 -19v-27q0 -12 -13 -12q-3 0 -6.5 3zM402 580q-32 48 -62 79.5t-42 31.5q-10 0 -39 -28t-64 -70q-13 -15 -20 -15q-5 0 -9.5 4.5t-4.5 9.5q0 6 6 12l24 25
q35 39 62 64t44 25q24 0 60 -38.5t67 -85.5q4 -6 4 -9q0 -4 -4 -8t-9 -4q-8 0 -13 7z" />
    <glyph glyph-name="uni1EC5" unicode="&#x1ec5;" horiz-adv-x="581" 
d="M162.5 36q-56.5 36 -84.5 94t-28 123q0 68 30 127t87 95.5t135 36.5q67 0 119 -27.5t81 -75t29 -107.5q0 -25 -6 -33t-28 -8l-416 -12q0 -59 26.5 -109t77 -79.5t117.5 -29.5q51 0 86.5 16.5t55.5 37.5t45 56q3 4 9 4q7 0 13 -4.5t6 -11.5q0 -5 -6 -13q-33 -50 -79.5 -83
t-130.5 -33q-82 0 -138.5 36zM495 292q4 0 5.5 2t1.5 10q0 50 -25.5 90t-70.5 63.5t-101 23.5q-68 0 -119 -32.5t-78 -80t-27 -89.5zM159 746q-5 5 -5 10t5 10q21 26 37 37t39 11q28 0 80 -22q8 -3 28 -13t35 -10q9 0 16.5 4.5t13.5 10t9 7.5q2 2 6.5 6t8.5 4q6 0 10 -4.5
t4 -9.5q0 -6 -5 -11q-18 -18 -32.5 -25.5t-32.5 -7.5q-14 0 -26 4.5t-26 11.5t-23 11q-13 6 -33.5 12t-32.5 6t-22.5 -7.5t-18 -15.5t-10.5 -11q-11 -11 -17 -11q-5 0 -8 3zM402 580q-32 48 -62 79.5t-42 31.5q-10 0 -39 -28t-64 -70q-13 -15 -20 -15q-5 0 -9.5 4.5
t-4.5 9.5q0 6 6 12l24 25q35 39 62 64t44 25q24 0 60 -38.5t67 -85.5q4 -6 4 -9q0 -4 -4 -8t-9 -4q-8 0 -13 7z" />
    <glyph glyph-name="edieresis" unicode="&#xeb;" horiz-adv-x="581" 
d="M162.5 36q-56.5 36 -84.5 94t-28 123q0 68 30 127t87 95.5t135 36.5q67 0 119 -27.5t81 -75t29 -107.5q0 -25 -6 -33t-28 -8l-416 -12q0 -59 26.5 -109t77 -79.5t117.5 -29.5q51 0 86.5 16.5t55.5 37.5t45 56q3 4 9 4q7 0 13 -4.5t6 -11.5q0 -5 -6 -13q-33 -50 -79.5 -83
t-130.5 -33q-82 0 -138.5 36zM495 292q4 0 5.5 2t1.5 10q0 50 -25.5 90t-70.5 63.5t-101 23.5q-68 0 -119 -32.5t-78 -80t-27 -89.5zM161.5 598q-10.5 11 -10.5 28q0 16 10.5 26t27.5 10t28 -10t11 -26q0 -17 -11 -28t-28 -11t-27.5 11zM377.5 598q-10.5 11 -10.5 28
q0 16 10.5 26t27.5 10t27.5 -10t10.5 -26q0 -17 -10.5 -28t-27.5 -11t-27.5 11z" />
    <glyph glyph-name="edotaccent" unicode="&#x117;" horiz-adv-x="581" 
d="M162.5 36q-56.5 36 -84.5 94t-28 123q0 68 30 127t87 95.5t135 36.5q67 0 119 -27.5t81 -75t29 -107.5q0 -25 -6 -33t-28 -8l-416 -12q0 -59 26.5 -109t77 -79.5t117.5 -29.5q51 0 86.5 16.5t55.5 37.5t45 56q3 4 9 4q7 0 13 -4.5t6 -11.5q0 -5 -6 -13q-33 -50 -79.5 -83
t-130.5 -33q-82 0 -138.5 36zM495 292q4 0 5.5 2t1.5 10q0 50 -25.5 90t-70.5 63.5t-101 23.5q-68 0 -119 -32.5t-78 -80t-27 -89.5zM268.5 598q-10.5 11 -10.5 28q0 16 10.5 26t27.5 10t27.5 -10t10.5 -26q0 -17 -10.5 -28t-27.5 -11t-27.5 11z" />
    <glyph glyph-name="uni1EB9" unicode="&#x1eb9;" horiz-adv-x="581" 
d="M162.5 36q-56.5 36 -84.5 94t-28 123q0 68 30 127t87 95.5t135 36.5q67 0 119 -27.5t81 -75t29 -107.5q0 -25 -6 -33t-28 -8l-416 -12q0 -59 26.5 -109t77 -79.5t117.5 -29.5q51 0 86.5 16.5t55.5 37.5t45 56q3 4 9 4q7 0 13 -4.5t6 -11.5q0 -5 -6 -13q-33 -50 -79.5 -83
t-130.5 -33q-82 0 -138.5 36zM495 292q4 0 5.5 2t1.5 10q0 50 -25.5 90t-70.5 63.5t-101 23.5q-68 0 -119 -32.5t-78 -80t-27 -89.5zM269.5 -144q-10.5 11 -10.5 28q0 16 10.5 26t27.5 10t27.5 -10t10.5 -26q0 -17 -10.5 -28t-27.5 -11t-27.5 11z" />
    <glyph glyph-name="egrave" unicode="&#xe8;" horiz-adv-x="581" 
d="M162.5 36q-56.5 36 -84.5 94t-28 123q0 68 30 127t87 95.5t135 36.5q67 0 119 -27.5t81 -75t29 -107.5q0 -25 -6 -33t-28 -8l-416 -12q0 -59 26.5 -109t77 -79.5t117.5 -29.5q51 0 86.5 16.5t55.5 37.5t45 56q3 4 9 4q7 0 13 -4.5t6 -11.5q0 -5 -6 -13q-33 -50 -79.5 -83
t-130.5 -33q-82 0 -138.5 36zM495 292q4 0 5.5 2t1.5 10q0 50 -25.5 90t-70.5 63.5t-101 23.5q-68 0 -119 -32.5t-78 -80t-27 -89.5zM330 572l-79 86l-5.5 5.5t-6.5 8t-2 7.5q0 7 4 11t10 4q10 0 25 -18l73 -85q10 -11 10 -17q0 -5 -3.5 -8.5t-7.5 -3.5q-8 0 -18 10z" />
    <glyph glyph-name="uni1EBB" unicode="&#x1ebb;" horiz-adv-x="581" 
d="M162.5 36q-56.5 36 -84.5 94t-28 123q0 68 30 127t87 95.5t135 36.5q67 0 119 -27.5t81 -75t29 -107.5q0 -25 -6 -33t-28 -8l-416 -12q0 -59 26.5 -109t77 -79.5t117.5 -29.5q51 0 86.5 16.5t55.5 37.5t45 56q3 4 9 4q7 0 13 -4.5t6 -11.5q0 -5 -6 -13q-33 -50 -79.5 -83
t-130.5 -33q-82 0 -138.5 36zM495 292q4 0 5.5 2t1.5 10q0 50 -25.5 90t-70.5 63.5t-101 23.5q-68 0 -119 -32.5t-78 -80t-27 -89.5zM291 570.5q-4 4.5 -4 10.5v38q0 12 8 21t27 26q18 14 27.5 25t9.5 24q0 22 -18.5 34.5t-50.5 12.5q-48 0 -75 -50q-4 -8 -13 -8
q-5 0 -10 4.5t-5 10.5q0 5 4 11q14 25 37.5 41t63.5 16q47 0 71 -18.5t24 -54.5q0 -19 -11.5 -34t-32.5 -31q-12 -9 -18 -15.5t-6 -12.5q-1 -15 -1 -37q0 -18 -17 -18q-6 0 -10 4.5z" />
    <glyph glyph-name="emacron" unicode="&#x113;" horiz-adv-x="581" 
d="M162.5 36q-56.5 36 -84.5 94t-28 123q0 68 30 127t87 95.5t135 36.5q67 0 119 -27.5t81 -75t29 -107.5q0 -25 -6 -33t-28 -8l-416 -12q0 -59 26.5 -109t77 -79.5t117.5 -29.5q51 0 86.5 16.5t55.5 37.5t45 56q3 4 9 4q7 0 13 -4.5t6 -11.5q0 -5 -6 -13q-33 -50 -79.5 -83
t-130.5 -33q-82 0 -138.5 36zM495 292q4 0 5.5 2t1.5 10q0 50 -25.5 90t-70.5 63.5t-101 23.5q-68 0 -119 -32.5t-78 -80t-27 -89.5zM134 583q-6 0 -9 3t-3 11q0 13 11 15q17 4 64.5 9t117.5 5l131 -1q17 0 17 -15q0 -7 -3.5 -10t-12.5 -3h-26q-24 1 -123 1q-71 0 -113.5 -7
t-47.5 -8h-3z" />
    <glyph glyph-name="eogonek" unicode="&#x119;" horiz-adv-x="581" 
d="M525 269q-6 -8 -28 -8l-416 -12q0 -59 26.5 -109t77 -79.5t117.5 -29.5q51 0 86.5 16.5t55.5 37.5t45 56q3 4 9 4q7 0 13 -4.5t6 -11.5q0 -5 -6 -13q-16 -23 -32 -41.5t-38 -34.5q-36 -32 -36 -68q0 -40 52 -40q9 0 17.5 3t11.5 3t5.5 -3t2.5 -7q0 -20 -39 -20
q-80 0 -80 63q0 21 9 41q-39 -12 -83 -12q-82 0 -138.5 36t-84.5 94t-28 123q0 68 30 127t87 95.5t135 36.5q67 0 119 -27.5t81 -75t29 -107.5q0 -25 -6 -33zM495 292q4 0 5.5 2t1.5 10q0 50 -25.5 90t-70.5 63.5t-101 23.5q-68 0 -119 -32.5t-78 -80t-27 -89.5z" />
    <glyph glyph-name="uni1EBD" unicode="&#x1ebd;" horiz-adv-x="581" 
d="M162.5 36q-56.5 36 -84.5 94t-28 123q0 68 30 127t87 95.5t135 36.5q67 0 119 -27.5t81 -75t29 -107.5q0 -25 -6 -33t-28 -8l-416 -12q0 -59 26.5 -109t77 -79.5t117.5 -29.5q51 0 86.5 16.5t55.5 37.5t45 56q3 4 9 4q7 0 13 -4.5t6 -11.5q0 -5 -6 -13q-33 -50 -79.5 -83
t-130.5 -33q-82 0 -138.5 36zM495 292q4 0 5.5 2t1.5 10q0 50 -25.5 90t-70.5 63.5t-101 23.5q-68 0 -119 -32.5t-78 -80t-27 -89.5zM152 590q0 5 5 10q21 26 36.5 37t39.5 11q42 0 80 -20q3 -2 16.5 -9t25.5 -11t21 -4q19 0 39 22q9 10 15 10q3 0 8.5 -5.5t5.5 -9.5
q0 -6 -4 -10q-18 -18 -33 -26t-33 -8q-14 0 -29 6.5t-17 7.5q-18 10 -29 13q-6 2 -29 11t-37 9q-10 0 -19.5 -7t-18 -16t-12.5 -13q-11 -11 -18 -11q-5 0 -8 3q-5 5 -5 10z" />
    <glyph glyph-name="uni0259" unicode="&#x259;" horiz-adv-x="581" 
d="M418.5 464q56.5 -36 84.5 -94t28 -123q0 -68 -30 -127t-87 -95.5t-135 -36.5q-67 0 -119 27.5t-81 75t-29 107.5q0 25 6 33t28 8l416 12q0 59 -26.5 109t-77 79.5t-117.5 29.5q-51 0 -86.5 -16.5t-55.5 -37.5t-45 -56q-3 -4 -9 -4q-7 0 -13 4.5t-6 11.5q0 5 6 13
q33 50 79.5 83t130.5 33q82 0 138.5 -36zM86 208q-4 0 -5.5 -2t-1.5 -10q0 -50 25.5 -90t70.5 -63.5t101 -23.5q68 0 119 32.5t78 80t27 89.5z" />
    <glyph glyph-name="f" unicode="f" horiz-adv-x="386" 
d="M352.5 701.5q33.5 -38.5 33.5 -112.5q0 -18 -15 -18q-10 0 -13 4.5t-3 12.5q0 121 -89 121q-64 0 -86 -49.5t-22 -154.5l2 -118q60 2 95 2q11 0 15.5 -3.5t4.5 -11.5q0 -15 -16 -15l-98 -1l1 -50q4 -188 4 -291q0 -17 -15 -17q-16 0 -16 17l-6 339l-82 -3q-17 0 -17 15
q0 16 18 16q22 0 80 2l-1 119q0 118 30.5 176.5t105.5 58.5q56 0 89.5 -38.5z" />
    <glyph glyph-name="g" unicode="g" horiz-adv-x="584" 
d="M498 113q8 -56 12 -87t4 -50q0 -66 -28.5 -117.5t-81 -80t-121.5 -28.5q-50 0 -94.5 22t-71.5 58.5t-27 77.5q0 6 4.5 9.5t11.5 3.5q6 0 10 -4.5t4 -9.5q0 -32 23 -61t60.5 -47t79.5 -18q63 0 108.5 26.5t68.5 71t23 97.5q0 28 -4.5 67t-10.5 67q-27 -45 -76.5 -72.5
t-115.5 -27.5q-78 0 -131 36t-79 92.5t-26 117.5q0 63 27.5 121t79.5 94.5t123 36.5q53 0 93 -18t60 -40l8 30q10 36 12 39q5 11 14 11q6 0 11.5 -3t5.5 -8l-1 -10q-2 -11 -7 -30.5t-8 -29.5l-7 -25q13 -68 32 -201l7 -52zM386.5 71q47.5 30 73.5 89q-13 100 -32 209l-5 30
q-17 35 -61 56.5t-92 21.5q-56 0 -101.5 -30.5t-71.5 -81.5t-26 -109q0 -55 23 -104t69.5 -80t112.5 -31q63 0 110.5 30z" />
    <glyph glyph-name="gbreve" unicode="&#x11f;" horiz-adv-x="584" 
d="M498 113q8 -56 12 -87t4 -50q0 -66 -28.5 -117.5t-81 -80t-121.5 -28.5q-50 0 -94.5 22t-71.5 58.5t-27 77.5q0 6 4.5 9.5t11.5 3.5q6 0 10 -4.5t4 -9.5q0 -32 23 -61t60.5 -47t79.5 -18q63 0 108.5 26.5t68.5 71t23 97.5q0 28 -4.5 67t-10.5 67q-27 -45 -76.5 -72.5
t-115.5 -27.5q-78 0 -131 36t-79 92.5t-26 117.5q0 63 27.5 121t79.5 94.5t123 36.5q53 0 93 -18t60 -40l8 30q10 36 12 39q5 11 14 11q6 0 11.5 -3t5.5 -8l-1 -10q-2 -11 -7 -30.5t-8 -29.5l-7 -25q13 -68 32 -201l7 -52zM386.5 71q47.5 30 73.5 89q-13 100 -32 209l-5 30
q-17 35 -61 56.5t-92 21.5q-56 0 -101.5 -30.5t-71.5 -81.5t-26 -109q0 -55 23 -104t69.5 -80t112.5 -31q63 0 110.5 30zM206.5 590.5q-32.5 16.5 -50 43t-17.5 55.5q0 5 3 8.5t8 3.5q17 0 17 -10q0 -39 34 -64.5t80 -25.5q27 0 51.5 13t39.5 33.5t15 40.5q0 8 6 12t12 4
q5 0 9 -3t4 -9q0 -29 -19 -56.5t-50.5 -44.5t-67.5 -17q-42 0 -74.5 16.5z" />
    <glyph glyph-name="gcaron" unicode="&#x1e7;" horiz-adv-x="584" 
d="M498 113q8 -56 12 -87t4 -50q0 -66 -28.5 -117.5t-81 -80t-121.5 -28.5q-50 0 -94.5 22t-71.5 58.5t-27 77.5q0 6 4.5 9.5t11.5 3.5q6 0 10 -4.5t4 -9.5q0 -32 23 -61t60.5 -47t79.5 -18q63 0 108.5 26.5t68.5 71t23 97.5q0 28 -4.5 67t-10.5 67q-27 -45 -76.5 -72.5
t-115.5 -27.5q-78 0 -131 36t-79 92.5t-26 117.5q0 63 27.5 121t79.5 94.5t123 36.5q53 0 93 -18t60 -40l8 30q10 36 12 39q5 11 14 11q6 0 11.5 -3t5.5 -8l-1 -10q-2 -11 -7 -30.5t-8 -29.5l-7 -25q13 -68 32 -201l7 -52zM386.5 71q47.5 30 73.5 89q-13 100 -32 209l-5 30
q-17 35 -61 56.5t-92 21.5q-56 0 -101.5 -30.5t-71.5 -81.5t-26 -109q0 -55 23 -104t69.5 -80t112.5 -31q63 0 110.5 30zM408 705q4 -4 4 -8q0 -3 -4 -9q-31 -47 -67 -85.5t-60 -38.5q-17 0 -44 25t-62 64l-24 25q-6 6 -6 12q0 5 4.5 9.5t9.5 4.5q8 0 20 -15q35 -42 64 -70
t39 -28q12 0 42 31.5t62 79.5q5 7 13 7q5 0 9 -4z" />
    <glyph glyph-name="gcircumflex" unicode="&#x11d;" horiz-adv-x="584" 
d="M498 113q8 -56 12 -87t4 -50q0 -66 -28.5 -117.5t-81 -80t-121.5 -28.5q-50 0 -94.5 22t-71.5 58.5t-27 77.5q0 6 4.5 9.5t11.5 3.5q6 0 10 -4.5t4 -9.5q0 -32 23 -61t60.5 -47t79.5 -18q63 0 108.5 26.5t68.5 71t23 97.5q0 28 -4.5 67t-10.5 67q-27 -45 -76.5 -72.5
t-115.5 -27.5q-78 0 -131 36t-79 92.5t-26 117.5q0 63 27.5 121t79.5 94.5t123 36.5q53 0 93 -18t60 -40l8 30q10 36 12 39q5 11 14 11q6 0 11.5 -3t5.5 -8l-1 -10q-2 -11 -7 -30.5t-8 -29.5l-7 -25q13 -68 32 -201l7 -52zM386.5 71q47.5 30 73.5 89q-13 100 -32 209l-5 30
q-17 35 -61 56.5t-92 21.5q-56 0 -101.5 -30.5t-71.5 -81.5t-26 -109q0 -55 23 -104t69.5 -80t112.5 -31q63 0 110.5 30zM386 576q-32 48 -62 79.5t-42 31.5q-10 0 -39 -28t-64 -70q-12 -15 -20 -15q-5 0 -9.5 4.5t-4.5 9.5q0 6 6 12l24 25q35 39 62 64t44 25q24 0 60 -38.5
t67 -85.5q4 -6 4 -9q0 -4 -4 -8t-9 -4q-8 0 -13 7z" />
    <glyph glyph-name="uni0123" unicode="&#x123;" horiz-adv-x="584" 
d="M498 113q8 -56 12 -87t4 -50q0 -66 -28.5 -117.5t-81 -80t-121.5 -28.5q-50 0 -94.5 22t-71.5 58.5t-27 77.5q0 6 4.5 9.5t11.5 3.5q6 0 10 -4.5t4 -9.5q0 -32 23 -61t60.5 -47t79.5 -18q63 0 108.5 26.5t68.5 71t23 97.5q0 28 -4.5 67t-10.5 67q-27 -45 -76.5 -72.5
t-115.5 -27.5q-78 0 -131 36t-79 92.5t-26 117.5q0 63 27.5 121t79.5 94.5t123 36.5q53 0 93 -18t60 -40l8 30q10 36 12 39q5 11 14 11q6 0 11.5 -3t5.5 -8l-1 -10q-2 -11 -7 -30.5t-8 -29.5l-7 -25q13 -68 32 -201l7 -52zM386.5 71q47.5 30 73.5 89q-13 100 -32 209l-5 30
q-17 35 -61 56.5t-92 21.5q-56 0 -101.5 -30.5t-71.5 -81.5t-26 -109q0 -55 23 -104t69.5 -80t112.5 -31q63 0 110.5 30zM293 696q-24 -23 -34 -46q18 1 33.5 -12t15.5 -30q0 -18 -13 -30t-30 -12t-29.5 12.5t-12.5 29.5q0 30 21 64t59 65q5 3 7 3q5 0 8.5 -4t3.5 -9
q0 -3 -2 -5q-3 -3 -27 -26z" />
    <glyph glyph-name="gdotaccent" unicode="&#x121;" horiz-adv-x="584" 
d="M498 113q8 -56 12 -87t4 -50q0 -66 -28.5 -117.5t-81 -80t-121.5 -28.5q-50 0 -94.5 22t-71.5 58.5t-27 77.5q0 6 4.5 9.5t11.5 3.5q6 0 10 -4.5t4 -9.5q0 -32 23 -61t60.5 -47t79.5 -18q63 0 108.5 26.5t68.5 71t23 97.5q0 28 -4.5 67t-10.5 67q-27 -45 -76.5 -72.5
t-115.5 -27.5q-78 0 -131 36t-79 92.5t-26 117.5q0 63 27.5 121t79.5 94.5t123 36.5q53 0 93 -18t60 -40l8 30q10 36 12 39q5 11 14 11q6 0 11.5 -3t5.5 -8l-1 -10q-2 -11 -7 -30.5t-8 -29.5l-7 -25q13 -68 32 -201l7 -52zM386.5 71q47.5 30 73.5 89q-13 100 -32 209l-5 30
q-17 35 -61 56.5t-92 21.5q-56 0 -101.5 -30.5t-71.5 -81.5t-26 -109q0 -55 23 -104t69.5 -80t112.5 -31q63 0 110.5 30zM252.5 595q-10.5 11 -10.5 28q0 16 10.5 26t27.5 10t27.5 -10t10.5 -26q0 -17 -10.5 -28t-27.5 -11t-27.5 11z" />
    <glyph glyph-name="uni1E21" unicode="&#x1e21;" horiz-adv-x="584" 
d="M498 113q8 -56 12 -87t4 -50q0 -66 -28.5 -117.5t-81 -80t-121.5 -28.5q-50 0 -94.5 22t-71.5 58.5t-27 77.5q0 6 4.5 9.5t11.5 3.5q6 0 10 -4.5t4 -9.5q0 -32 23 -61t60.5 -47t79.5 -18q63 0 108.5 26.5t68.5 71t23 97.5q0 28 -4.5 67t-10.5 67q-27 -45 -76.5 -72.5
t-115.5 -27.5q-78 0 -131 36t-79 92.5t-26 117.5q0 63 27.5 121t79.5 94.5t123 36.5q53 0 93 -18t60 -40l8 30q10 36 12 39q5 11 14 11q6 0 11.5 -3t5.5 -8l-1 -10q-2 -11 -7 -30.5t-8 -29.5l-7 -25q13 -68 32 -201l7 -52zM386.5 71q47.5 30 73.5 89q-13 100 -32 209l-5 30
q-17 35 -61 56.5t-92 21.5q-56 0 -101.5 -30.5t-71.5 -81.5t-26 -109q0 -55 23 -104t69.5 -80t112.5 -31q63 0 110.5 30zM118 580q-6 0 -9 3t-3 11q0 13 11 15q17 4 64.5 9t117.5 5l131 -1q17 0 17 -15q0 -7 -3.5 -10t-12.5 -3h-26q-24 1 -123 1q-71 0 -113.5 -7t-47.5 -8
h-3z" />
    <glyph glyph-name="h" unicode="h" horiz-adv-x="567" 
d="M483 231.5q4 -82.5 4 -219.5q0 -14 -16 -14q-15 0 -15 15q-1 146 -5 224.5t-18 131.5q-15 55 -44.5 82.5t-80.5 27.5q-62 0 -106 -35.5t-66 -83t-22 -79.5l-1 -270q0 -5 -5.5 -8.5t-13.5 -3.5q-14 0 -14 13q0 218 5 396q3 104 15 311l3 47q1 11 4 15t11 4q18 0 16 -18
l-20 -384q24 50 73.5 88.5t122.5 38.5q64 0 101 -34.5t54 -104.5q14 -57 18 -139.5z" />
    <glyph glyph-name="hbar" unicode="&#x127;" horiz-adv-x="570" 
d="M486 231.5q4 -82.5 4 -219.5q0 -14 -16 -14q-15 0 -15 15q-1 146 -5 224.5t-18 131.5q-15 55 -44.5 82.5t-80.5 27.5q-62 0 -106 -35.5t-66 -83t-22 -79.5l-1 -270q0 -5 -5.5 -8.5t-13.5 -3.5q-14 0 -14 13q0 218 5 396q3 101 9 201l-32 1q-7 0 -11 4.5t-4 10.5
q0 7 5.5 10t11.5 3l31 -1l5 76l3 53q1 11 4 15t11 4q18 0 16 -18l-4 -76l-3 -55l166 -6q18 0 18 -14q0 -8 -4 -11t-13 -3l-168 6q-4 -49 -7 -134l-5 -91q24 50 73.5 88.5t122.5 38.5q64 0 101 -34.5t54 -104.5q14 -57 18 -139.5z" />
    <glyph glyph-name="uni1E2B" unicode="&#x1e2b;" horiz-adv-x="567" 
d="M483 231.5q4 -82.5 4 -219.5q0 -14 -16 -14q-15 0 -15 15q-1 146 -5 224.5t-18 131.5q-15 55 -44.5 82.5t-80.5 27.5q-62 0 -106 -35.5t-66 -83t-22 -79.5l-1 -270q0 -5 -5.5 -8.5t-13.5 -3.5q-14 0 -14 13q0 218 5 396q3 104 15 311l3 47q1 11 4 15t11 4q18 0 16 -18
l-20 -384q24 50 73.5 88.5t122.5 38.5q64 0 101 -34.5t54 -104.5q14 -57 18 -139.5zM214.5 -172.5q-32.5 16.5 -50 43t-17.5 55.5q0 5 3 8.5t8 3.5q17 0 17 -10q0 -39 34 -64.5t80 -25.5q27 0 51.5 13t39.5 33.5t15 40.5q0 8 6 12t12 4q5 0 9 -3t4 -9q0 -29 -19 -56.5
t-50.5 -44.5t-67.5 -17q-42 0 -74.5 16.5z" />
    <glyph glyph-name="hcircumflex" unicode="&#x125;" horiz-adv-x="567" 
d="M483 231.5q4 -82.5 4 -219.5q0 -14 -16 -14q-15 0 -15 15q-1 146 -5 224.5t-18 131.5q-15 55 -44.5 82.5t-80.5 27.5q-62 0 -106 -35.5t-66 -83t-22 -79.5l-1 -270q0 -5 -5.5 -8.5t-13.5 -3.5q-14 0 -14 13q0 218 5 396q3 104 15 311l3 47q1 11 4 15t11 4q18 0 16 -18
l-20 -384q24 50 73.5 88.5t122.5 38.5q64 0 101 -34.5t54 -104.5q14 -57 18 -139.5zM224 864q-32 48 -62 79.5t-42 31.5q-10 0 -39 -28t-64 -70q-12 -15 -20 -15q-5 0 -9.5 4.5t-4.5 9.5q0 6 6 12l24 25q35 39 62 64t44 25q24 0 60 -38.5t67 -85.5q4 -6 4 -9q0 -4 -4 -8
t-9 -4q-8 0 -13 7z" />
    <glyph glyph-name="uni1E25" unicode="&#x1e25;" horiz-adv-x="567" 
d="M483 231.5q4 -82.5 4 -219.5q0 -14 -16 -14q-15 0 -15 15q-1 146 -5 224.5t-18 131.5q-15 55 -44.5 82.5t-80.5 27.5q-62 0 -106 -35.5t-66 -83t-22 -79.5l-1 -270q0 -5 -5.5 -8.5t-13.5 -3.5q-14 0 -14 13q0 218 5 396q3 104 15 311l3 47q1 11 4 15t11 4q18 0 16 -18
l-20 -384q24 50 73.5 88.5t122.5 38.5q64 0 101 -34.5t54 -104.5q14 -57 18 -139.5zM263.5 -144q-10.5 11 -10.5 28q0 16 10.5 26t27.5 10t27.5 -10t10.5 -26q0 -17 -10.5 -28t-27.5 -11t-27.5 11z" />
    <glyph glyph-name="i" unicode="i" horiz-adv-x="229" 
d="M83 607.5q-13 12.5 -13 30.5q0 19 13 32.5t33 13.5q19 0 31 -12.5t12 -32.5t-13.5 -32t-31.5 -12t-31 12.5zM82 21l10 463q0 20 16 20q8 0 12 -4.5t4 -15.5l-11 -462q0 -16 -15 -16q-16 0 -16 15z" />
    <glyph glyph-name="dotlessi" unicode="&#x131;" horiz-adv-x="314" 
d="M136 28l10 454q0 22 16 22q17 0 17 -22l-14 -454q0 -22 -13 -22q-16 0 -16 22z" />
    <glyph glyph-name="iacute" unicode="&#xed;" horiz-adv-x="314" 
d="M136 28l10 454q0 22 16 22q17 0 17 -22l-14 -454q0 -22 -13 -22q-16 0 -16 22zM122.5 565.5q-3.5 3.5 -3.5 8.5q0 6 10 17l73 85q15 18 25 18q6 0 10 -4t4 -11q0 -5 -3.5 -9.5t-6.5 -7.5l-4 -4l-79 -86q-10 -10 -18 -10q-4 0 -7.5 3.5z" />
    <glyph glyph-name="ibreve" unicode="&#x12d;" horiz-adv-x="314" 
d="M136 28l10 454q0 22 16 22q17 0 17 -22l-14 -454q0 -22 -13 -22q-16 0 -16 22zM84.5 593.5q-32.5 16.5 -50 43t-17.5 55.5q0 5 3 8.5t8 3.5q17 0 17 -10q0 -39 34 -64.5t80 -25.5q27 0 51.5 13t39.5 33.5t15 40.5q0 8 6 12t12 4q5 0 9 -3t4 -9q0 -29 -19 -56.5
t-50.5 -44.5t-67.5 -17q-42 0 -74.5 16.5z" />
    <glyph glyph-name="uni01D0" unicode="&#x1d0;" horiz-adv-x="314" 
d="M136 28l10 454q0 22 16 22q17 0 17 -22l-14 -454q0 -22 -13 -22q-16 0 -16 22zM286 708q4 -4 4 -8q0 -3 -4 -9q-31 -47 -67 -85.5t-60 -38.5q-17 0 -44 25t-62 64l-24 25q-6 6 -6 12q0 5 4.5 9.5t9.5 4.5q8 0 20 -15q35 -42 64 -70t39 -28q12 0 42 31.5t62 79.5q5 7 13 7
q5 0 9 -4z" />
    <glyph glyph-name="icircumflex" unicode="&#xee;" horiz-adv-x="314" 
d="M136 28l10 454q0 22 16 22q17 0 17 -22l-14 -454q0 -22 -13 -22q-16 0 -16 22zM264 579q-32 48 -62 79.5t-42 31.5q-10 0 -39 -28t-64 -70q-12 -15 -20 -15q-5 0 -9.5 4.5t-4.5 9.5q0 6 6 12l24 25q35 39 62 64t44 25q24 0 60 -38.5t67 -85.5q4 -6 4 -9q0 -4 -4 -8t-9 -4
q-8 0 -13 7z" />
    <glyph glyph-name="idieresis" unicode="&#xef;" horiz-adv-x="314" 
d="M136 28l10 454q0 22 16 22q17 0 17 -22l-14 -454q0 -22 -13 -22q-16 0 -16 22zM23.5 598q-10.5 11 -10.5 28q0 16 10.5 26t27.5 10t28 -10t11 -26q0 -17 -11 -28t-28 -11t-27.5 11zM239.5 598q-10.5 11 -10.5 28q0 16 10.5 26t27.5 10t27.5 -10t10.5 -26q0 -17 -10.5 -28
t-27.5 -11t-27.5 11z" />
    <glyph glyph-name="uni1ECB" unicode="&#x1ecb;" horiz-adv-x="229" 
d="M83 607.5q-13 12.5 -13 30.5q0 19 13 32.5t33 13.5q19 0 31 -12.5t12 -32.5t-13.5 -32t-31.5 -12t-31 12.5zM82 21l10 463q0 20 16 20q8 0 12 -4.5t4 -15.5l-11 -462q0 -16 -15 -16q-16 0 -16 15zM70.5 -144q-10.5 11 -10.5 28q0 16 10.5 26t27.5 10t27.5 -10t10.5 -26
q0 -17 -10.5 -28t-27.5 -11t-27.5 11z" />
    <glyph glyph-name="igrave" unicode="&#xec;" horiz-adv-x="314" 
d="M136 28l10 454q0 22 16 22q17 0 17 -22l-14 -454q0 -22 -13 -22q-16 0 -16 22zM192 572l-79 86l-5.5 5.5t-6.5 8t-2 7.5q0 7 4 11t10 4q10 0 25 -18l73 -85q10 -11 10 -17q0 -5 -3.5 -8.5t-7.5 -3.5q-8 0 -18 10z" />
    <glyph glyph-name="uni1EC9" unicode="&#x1ec9;" horiz-adv-x="314" 
d="M136 28l10 454q0 22 16 22q17 0 17 -22l-14 -454q0 -22 -13 -22q-16 0 -16 22zM153 570.5q-4 4.5 -4 10.5v38q0 12 8 21t27 26q18 14 27.5 25t9.5 24q0 22 -18.5 34.5t-50.5 12.5q-48 0 -75 -50q-4 -8 -13 -8q-5 0 -10 4.5t-5 10.5q0 5 4 11q14 25 37.5 41t63.5 16
q47 0 71 -18.5t24 -54.5q0 -19 -11.5 -34t-32.5 -31q-12 -9 -18 -15.5t-6 -12.5q-1 -15 -1 -37q0 -18 -17 -18q-6 0 -10 4.5z" />
    <glyph glyph-name="ij" unicode="&#x133;" horiz-adv-x="539" 
d="M83 607.5q-13 12.5 -13 30.5q0 19 13 32.5t33 13.5q19 0 31 -12.5t12 -32.5t-13.5 -32t-31.5 -12t-31 12.5zM82 21l10 463q0 20 16 20q8 0 12 -4.5t4 -15.5l-11 -462q0 -16 -15 -16q-16 0 -16 15zM393 606.5q-13 12.5 -13 30.5q0 19 13 32.5t33 13.5q19 0 31 -12.5
t12 -32.5t-13.5 -32t-31.5 -12t-31 12.5zM185.5 -199q-36.5 37 -36.5 96q0 14 3 19t11 5q17 0 17 -22q6 -105 89 -105q62 0 95.5 59.5t35.5 169.5l4 191q4 200 4 260q0 14 3 19t13 5q9 0 12 -5t3 -21q0 -96 -3 -222q-2 -74 -4 -227q-2 -119 -44.5 -189t-113.5 -70
q-52 0 -88.5 37z" />
    <glyph glyph-name="imacron" unicode="&#x12b;" horiz-adv-x="314" 
d="M136 28l10 454q0 22 16 22q17 0 17 -22l-14 -454q0 -22 -13 -22q-16 0 -16 22zM-4 583q-6 0 -9 3t-3 11q0 13 11 15q17 4 64.5 9t117.5 5l131 -1q17 0 17 -15q0 -7 -3.5 -10t-12.5 -3h-26q-24 1 -123 1q-71 0 -113.5 -7t-47.5 -8h-3z" />
    <glyph glyph-name="iogonek" unicode="&#x12f;" horiz-adv-x="314" 
d="M130.5 598q-10.5 11 -10.5 28q0 16 10.5 26t27.5 10t27.5 -10t10.5 -26q0 -17 -10.5 -28t-27.5 -11t-27.5 11zM183.5 -119q2.5 -3 2.5 -7q0 -20 -39 -20q-80 0 -80 63q0 58 69 108v3l10 454q0 22 16 22q17 0 17 -22l-14 -454q0 -18 -8 -21l-1 -1q-28 -23 -43.5 -43
t-15.5 -45q0 -40 52 -40q9 0 17.5 3t11.5 3t5.5 -3z" />
    <glyph glyph-name="itilde" unicode="&#x129;" horiz-adv-x="314" 
d="M136 28l10 454q0 22 16 22q17 0 17 -22l-14 -454q0 -22 -13 -22q-16 0 -16 22zM14 590q0 5 5 10q21 26 36.5 37t39.5 11q42 0 80 -20q3 -2 16.5 -9t25.5 -11t21 -4q19 0 39 22q9 10 15 10q3 0 8.5 -5.5t5.5 -9.5q0 -6 -4 -10q-18 -18 -33 -26t-33 -8q-14 0 -29 6.5
t-17 7.5q-18 10 -29 13q-6 2 -29 11t-37 9q-10 0 -19.5 -7t-18 -16t-12.5 -13q-11 -11 -18 -11q-5 0 -8 3q-5 5 -5 10z" />
    <glyph glyph-name="j" unicode="j" horiz-adv-x="310" 
d="M164 606.5q-13 12.5 -13 30.5q0 19 13 32.5t33 13.5q19 0 31 -12.5t12 -32.5t-13.5 -32t-31.5 -12t-31 12.5zM-43.5 -199q-36.5 37 -36.5 96q0 14 3 19t11 5q17 0 17 -22q6 -105 89 -105q62 0 95.5 59.5t35.5 169.5l4 191q4 200 4 260q0 14 3 19t13 5q9 0 12 -5t3 -21
q0 -96 -3 -222q-2 -74 -4 -227q-2 -119 -44.5 -189t-113.5 -70q-52 0 -88.5 37z" />
    <glyph glyph-name="uni0237" unicode="&#x237;" horiz-adv-x="280" 
d="M-43.5 -199q-36.5 37 -36.5 96q0 14 3 19t11 5q17 0 17 -22q6 -105 89 -105q62 0 95.5 59.5t35.5 169.5l4 191q4 200 4 260q0 14 3 19t13 5q9 0 12 -5t3 -21q0 -96 -3 -222q-2 -74 -4 -227q-1 -85 -22 -143t-56.5 -87t-79.5 -29q-52 0 -88.5 37z" />
    <glyph glyph-name="jcircumflex" unicode="&#x135;" horiz-adv-x="280" 
d="M-43.5 -199q-36.5 37 -36.5 96q0 14 3 19t11 5q17 0 17 -22q6 -105 89 -105q62 0 95.5 59.5t35.5 169.5l4 191q4 200 4 260q0 14 3 19t13 5q9 0 12 -5t3 -21q0 -96 -3 -222q-2 -74 -4 -227q-1 -85 -22 -143t-56.5 -87t-79.5 -29q-52 0 -88.5 37zM299 579q-32 48 -62 79.5
t-42 31.5q-10 0 -39 -28t-64 -70q-12 -15 -20 -15q-5 0 -9.5 4.5t-4.5 9.5q0 6 6 12l24 25q35 39 62 64t44 25q24 0 60 -38.5t67 -85.5q4 -6 4 -9q0 -4 -4 -8t-9 -4q-8 0 -13 7z" />
    <glyph glyph-name="k" unicode="k" horiz-adv-x="494" 
d="M70 9l1 753q0 18 16 18t16 -18l-2 -434l325 200q5 3 10 3t10.5 -8.5t4.5 -15.5q-1 -5 -9 -10l-340 -207l345 -252q7 -5 7 -13t-5.5 -13.5t-12.5 -5.5q-5 0 -20 11q-192 141 -314 234l-1 -241q0 -13 -15 -13q-16 0 -16 12z" />
    <glyph glyph-name="uni0137" unicode="&#x137;" horiz-adv-x="494" 
d="M70 9l1 753q0 18 16 18t16 -18l-2 -434l325 200q5 3 10 3t10.5 -8.5t4.5 -15.5q-1 -5 -9 -10l-340 -207l345 -252q7 -5 7 -13t-5.5 -13.5t-12.5 -5.5q-5 0 -20 11q-192 141 -314 234l-1 -241q0 -13 -15 -13q-16 0 -16 12zM279.5 -92.5q12.5 -12.5 12.5 -29.5
q0 -30 -21 -64t-59 -65q-8 -6 -11 -6q-4 0 -7.5 3.5t-3.5 8.5q0 3 4 7q49 49 60 74h-5q-16 0 -29 12.5t-13 29.5q0 18 13 30t30 12t29.5 -12.5z" />
    <glyph glyph-name="kgreenlandic" unicode="&#x138;" horiz-adv-x="494" 
d="M70 9l1 501q0 18 16 18t16 -18l-2 -182l325 200q5 3 10 3t10.5 -8.5t4.5 -15.5q-1 -5 -9 -10l-340 -207l345 -252q7 -5 7 -13t-5.5 -13.5t-12.5 -5.5q-5 0 -20 11q-142 108 -224 168q-63 46 -90 66l-1 -241q0 -13 -15 -13q-16 0 -16 12z" />
    <glyph glyph-name="l" unicode="l" horiz-adv-x="217" 
d="M96 27l-6 746q0 19 17 19q15 0 15 -19l5 -746q0 -18 -15 -18q-16 0 -16 18z" />
    <glyph glyph-name="lacute" unicode="&#x13a;" horiz-adv-x="217" 
d="M96 27l-6 746q0 19 17 19q15 0 15 -19l5 -746q0 -18 -15 -18q-16 0 -16 18zM70.5 857.5q-3.5 3.5 -3.5 8.5q0 6 10 17l73 85q15 18 25 18q6 0 10 -4t4 -11q0 -5 -3.5 -9.5t-6.5 -7.5l-4 -4l-79 -86q-10 -10 -18 -10q-4 0 -7.5 3.5z" />
    <glyph glyph-name="lcaron" unicode="&#x13e;" horiz-adv-x="331" 
d="M96 27l-6 746q0 19 17 19q15 0 15 -19l5 -746q0 -18 -15 -18q-16 0 -16 18zM294.5 782.5q12.5 -12.5 12.5 -29.5q0 -27 -20.5 -58.5t-59.5 -70.5q-3 -3 -7 -3q-5 0 -8.5 3.5t-3.5 8.5q0 3 2 5t27 26.5t33 48.5q-2 -1 -7 -1q-16 0 -28.5 12t-12.5 29q0 18 13 30t30 12
t29.5 -12.5z" />
    <glyph glyph-name="uni013C" unicode="&#x13c;" horiz-adv-x="217" 
d="M96 27l-6 746q0 19 17 19q15 0 15 -19l5 -746q0 -18 -15 -18q-16 0 -16 18zM137.5 -92.5q12.5 -12.5 12.5 -29.5q0 -30 -21 -64t-59 -65q-8 -6 -11 -6q-4 0 -7.5 3.5t-3.5 8.5q0 3 4 7q49 49 60 74h-5q-16 0 -29 12.5t-13 29.5q0 18 13 30t30 12t29.5 -12.5z" />
    <glyph glyph-name="ldot" unicode="&#x140;" horiz-adv-x="322" 
d="M96 27l-6 746q0 19 17 19q15 0 15 -19l5 -746q0 -18 -15 -18q-16 0 -16 18zM200 203q-20 19 -20 46q0 28 20 47t47 19t46 -19t19 -47q0 -30 -19 -47.5t-46 -17.5t-47 19z" />
    <glyph glyph-name="uni1E37" unicode="&#x1e37;" horiz-adv-x="217" 
d="M96 27l-6 746q0 19 17 19q15 0 15 -19l5 -746q0 -18 -15 -18q-16 0 -16 18zM82.5 -144q-10.5 11 -10.5 28q0 16 10.5 26t27.5 10t27.5 -10t10.5 -26q0 -17 -10.5 -28t-27.5 -11t-27.5 11z" />
    <glyph glyph-name="uni1E39" unicode="&#x1e39;" horiz-adv-x="217" 
d="M96 27l-6 746q0 19 17 19q15 0 15 -19l5 -746q0 -18 -15 -18q-16 0 -16 18zM82.5 -144q-10.5 11 -10.5 28q0 16 10.5 26t27.5 10t27.5 -10t10.5 -26q0 -17 -10.5 -28t-27.5 -11t-27.5 11zM-56 875q-6 0 -9 3t-3 11q0 13 11 15q17 4 64.5 9t117.5 5l131 -1q17 0 17 -15
q0 -7 -3.5 -10t-12.5 -3h-26q-24 1 -123 1q-71 0 -113.5 -7t-47.5 -8h-3z" />
    <glyph glyph-name="uni1E3B" unicode="&#x1e3b;" horiz-adv-x="217" 
d="M96 27l-6 746q0 19 17 19q15 0 15 -19l5 -746q0 -18 -15 -18q-16 0 -16 18zM-31.5 -135.5q-3.5 3.5 -3.5 11.5q0 13 10 14q72 9 180 9q35 0 73 -2q12 -1 30 -1q17 0 17 -15q0 -13 -16 -13l-25 1q-57 3 -80 3q-52 0 -143 -8q-25 -3 -36 -3q-3 0 -6.5 3.5z" />
    <glyph glyph-name="lslash" unicode="&#x142;" horiz-adv-x="279" 
d="M263.5 523q5.5 -5 5.5 -13q0 -6 -3.5 -9.5t-11.5 -7.5l-88 -49l3 -417q0 -18 -15 -18q-16 0 -16 18l-3 400l-98 -55q-8 -4 -12 -4q-5 0 -10 4t-5 12q0 4 2.5 7t9.5 7l112 64l-2 311q0 19 17 19q15 0 15 -19l2 -293l82 47l3 1q7 0 12.5 -5z" />
    <glyph glyph-name="m" unicode="m" horiz-adv-x="779" 
d="M678 463.5q32 -53.5 32 -140.5v-305q0 -18 -16 -18q-9 0 -12 5t-3 14l1 293q0 86 -24 130.5t-92 44.5t-97 -61.5t-30 -158.5q-1 -84 -1 -248q0 -17 -17 -17q-10 0 -12.5 4t-2.5 15v162v84q-1 91 -36 153.5t-98 62.5q-47 0 -76 -43.5t-47 -142.5q-7 -39 -9 -83t-2 -110
v-38v-47q0 -8 -4.5 -12t-10.5 -4q-10 0 -13 4.5t-3 12.5q0 223 -4 400q-1 37 -11.5 46t-11.5 10t-4 3.5t-3 5.5q0 7 5.5 13t12.5 6t24 -21q12 -15 16 -33t4 -57v-39q30 159 139 159q59 0 96.5 -42t50.5 -125q8 85 44.5 128t100.5 43q82 0 114 -53.5z" />
    <glyph glyph-name="uni1E43" unicode="&#x1e43;" horiz-adv-x="779" 
d="M678 463.5q32 -53.5 32 -140.5v-305q0 -18 -16 -18q-9 0 -12 5t-3 14l1 293q0 86 -24 130.5t-92 44.5t-97 -61.5t-30 -158.5q-1 -84 -1 -248q0 -17 -17 -17q-10 0 -12.5 4t-2.5 15v162v84q-1 91 -36 153.5t-98 62.5q-47 0 -76 -43.5t-47 -142.5q-7 -39 -9 -83t-2 -110
v-38v-47q0 -8 -4.5 -12t-10.5 -4q-10 0 -13 4.5t-3 12.5q0 223 -4 400q-1 37 -11.5 46t-11.5 10t-4 3.5t-3 5.5q0 7 5.5 13t12.5 6t24 -21q12 -15 16 -33t4 -57v-39q30 159 139 159q59 0 96.5 -42t50.5 -125q8 85 44.5 128t100.5 43q82 0 114 -53.5zM380.5 -144
q-10.5 11 -10.5 28q0 16 10.5 26t27.5 10t27.5 -10t10.5 -26q0 -17 -10.5 -28t-27.5 -11t-27.5 11z" />
    <glyph glyph-name="n" unicode="n" horiz-adv-x="540" 
d="M430.5 450q39.5 -57 39.5 -179v-249q0 -19 -15 -19q-16 0 -16 18v251q0 106 -29.5 155.5t-103.5 49.5q-64 0 -102.5 -42.5t-56.5 -150.5q-9 -54 -9 -110l1 -160q0 -12 -15 -12q-16 0 -16 12q-2 115 -4 175q-1 36 -2 98.5t-1 110.5q0 20 -4 31t-13 27q-2 3 -11 18
q-3 5 -3 10q0 7 6.5 11t12.5 4q7 0 14 -11q30 -47 30 -90v-42q14 65 58.5 108t119.5 43q80 0 119.5 -57z" />
    <glyph glyph-name="nacute" unicode="&#x144;" horiz-adv-x="540" 
d="M430.5 450q39.5 -57 39.5 -179v-249q0 -19 -15 -19q-16 0 -16 18v251q0 106 -29.5 155.5t-103.5 49.5q-64 0 -102.5 -42.5t-56.5 -150.5q-9 -54 -9 -110l1 -160q0 -12 -15 -12q-16 0 -16 12q-2 115 -4 175q-1 36 -2 98.5t-1 110.5q0 20 -4 31t-13 27q-2 3 -11 18
q-3 5 -3 10q0 7 6.5 11t12.5 4q7 0 14 -11q30 -47 30 -90v-42q14 65 58.5 108t119.5 43q80 0 119.5 -57zM252.5 565.5q-3.5 3.5 -3.5 8.5q0 6 10 17l73 85q15 18 25 18q6 0 10 -4t4 -11q0 -5 -3.5 -9.5t-6.5 -7.5l-4 -4l-79 -86q-10 -10 -18 -10q-4 0 -7.5 3.5z" />
    <glyph glyph-name="napostrophe" unicode="&#x149;" horiz-adv-x="613" 
d="M503.5 450q39.5 -57 39.5 -179v-249q0 -19 -15 -19q-16 0 -16 18v251q0 106 -29.5 155.5t-103.5 49.5q-64 0 -102.5 -42.5t-56.5 -150.5q-9 -54 -9 -110l1 -160q0 -12 -15 -12q-16 0 -16 12q-2 115 -4 175q-1 36 -2 98.5t-1 110.5q0 20 -4 31t-13 27q-2 3 -11 18
q-3 5 -3 10q0 7 6.5 11t12.5 4q7 0 14 -11q30 -47 30 -90v-42q14 65 58.5 108t119.5 43q80 0 119.5 -57zM96.5 680.5q12.5 -12.5 12.5 -29.5q0 -27 -20.5 -58.5t-59.5 -70.5q-3 -3 -7 -3q-5 0 -8.5 3.5t-3.5 8.5q0 3 2 5t27 26.5t33 48.5q-2 -1 -7 -1q-16 0 -28.5 12
t-12.5 29q0 18 13 30t30 12t29.5 -12.5z" />
    <glyph glyph-name="ncaron" unicode="&#x148;" horiz-adv-x="540" 
d="M430.5 450q39.5 -57 39.5 -179v-249q0 -19 -15 -19q-16 0 -16 18v251q0 106 -29.5 155.5t-103.5 49.5q-64 0 -102.5 -42.5t-56.5 -150.5q-9 -54 -9 -110l1 -160q0 -12 -15 -12q-16 0 -16 12q-2 115 -4 175q-1 36 -2 98.5t-1 110.5q0 20 -4 31t-13 27q-2 3 -11 18
q-3 5 -3 10q0 7 6.5 11t12.5 4q7 0 14 -11q30 -47 30 -90v-42q14 65 58.5 108t119.5 43q80 0 119.5 -57zM416 708q4 -4 4 -8q0 -3 -4 -9q-31 -47 -67 -85.5t-60 -38.5q-17 0 -44 25t-62 64l-24 25q-6 6 -6 12q0 5 4.5 9.5t9.5 4.5q8 0 20 -15q35 -42 64 -70t39 -28
q12 0 42 31.5t62 79.5q5 7 13 7q5 0 9 -4z" />
    <glyph glyph-name="uni0146" unicode="&#x146;" horiz-adv-x="540" 
d="M430.5 450q39.5 -57 39.5 -179v-249q0 -19 -15 -19q-16 0 -16 18v251q0 106 -29.5 155.5t-103.5 49.5q-64 0 -102.5 -42.5t-56.5 -150.5q-9 -54 -9 -110l1 -160q0 -12 -15 -12q-16 0 -16 12q-2 115 -4 175q-1 36 -2 98.5t-1 110.5q0 20 -4 31t-13 27q-2 3 -11 18
q-3 5 -3 10q0 7 6.5 11t12.5 4q7 0 14 -11q30 -47 30 -90v-42q14 65 58.5 108t119.5 43q80 0 119.5 -57zM316.5 -92.5q12.5 -12.5 12.5 -29.5q0 -30 -21 -64t-59 -65q-8 -6 -11 -6q-4 0 -7.5 3.5t-3.5 8.5q0 3 4 7q49 49 60 74h-5q-16 0 -29 12.5t-13 29.5q0 18 13 30t30 12
t29.5 -12.5z" />
    <glyph glyph-name="uni1E45" unicode="&#x1e45;" horiz-adv-x="540" 
d="M430.5 450q39.5 -57 39.5 -179v-249q0 -19 -15 -19q-16 0 -16 18v251q0 106 -29.5 155.5t-103.5 49.5q-64 0 -102.5 -42.5t-56.5 -150.5q-9 -54 -9 -110l1 -160q0 -12 -15 -12q-16 0 -16 12q-2 115 -4 175q-1 36 -2 98.5t-1 110.5q0 20 -4 31t-13 27q-2 3 -11 18
q-3 5 -3 10q0 7 6.5 11t12.5 4q7 0 14 -11q30 -47 30 -90v-42q14 65 58.5 108t119.5 43q80 0 119.5 -57zM260.5 598q-10.5 11 -10.5 28q0 16 10.5 26t27.5 10t27.5 -10t10.5 -26q0 -17 -10.5 -28t-27.5 -11t-27.5 11z" />
    <glyph glyph-name="uni1E47" unicode="&#x1e47;" horiz-adv-x="540" 
d="M430.5 450q39.5 -57 39.5 -179v-249q0 -19 -15 -19q-16 0 -16 18v251q0 106 -29.5 155.5t-103.5 49.5q-64 0 -102.5 -42.5t-56.5 -150.5q-9 -54 -9 -110l1 -160q0 -12 -15 -12q-16 0 -16 12q-2 115 -4 175q-1 36 -2 98.5t-1 110.5q0 20 -4 31t-13 27q-2 3 -11 18
q-3 5 -3 10q0 7 6.5 11t12.5 4q7 0 14 -11q30 -47 30 -90v-42q14 65 58.5 108t119.5 43q80 0 119.5 -57zM261.5 -144q-10.5 11 -10.5 28q0 16 10.5 26t27.5 10t27.5 -10t10.5 -26q0 -17 -10.5 -28t-27.5 -11t-27.5 11z" />
    <glyph glyph-name="eng" unicode="&#x14b;" horiz-adv-x="545" 
d="M475 129q0 -99 -9.5 -159.5t-40.5 -95.5t-93 -35q-24 0 -24 17q0 16 22 16q46 0 69.5 29t31 80t7.5 132l-1 154q0 103 -28.5 156t-109.5 53q-45 0 -73.5 -18.5t-46 -60t-29.5 -113.5q-10 -60 -10 -121q0 -33 1 -52l1 -90q0 -19 -16 -19q-15 0 -15 21l-12 389q0 8 -5 19
t-21 43q-3 9 -3 12q0 14 16 14q6 0 10.5 -5.5t14.5 -21.5q7 -12 14.5 -28.5t7.5 -22.5v-76q15 94 57.5 127.5t110.5 33.5q98 0 135.5 -64t37.5 -172z" />
    <glyph glyph-name="uni1E49" unicode="&#x1e49;" horiz-adv-x="540" 
d="M430.5 450q39.5 -57 39.5 -179v-249q0 -19 -15 -19q-16 0 -16 18v251q0 106 -29.5 155.5t-103.5 49.5q-64 0 -102.5 -42.5t-56.5 -150.5q-9 -54 -9 -110l1 -160q0 -12 -15 -12q-16 0 -16 12q-2 115 -4 175q-1 36 -2 98.5t-1 110.5q0 20 -4 31t-13 27q-2 3 -11 18
q-3 5 -3 10q0 7 6.5 11t12.5 4q7 0 14 -11q30 -47 30 -90v-42q14 65 58.5 108t119.5 43q80 0 119.5 -57zM147.5 -135.5q-3.5 3.5 -3.5 11.5q0 13 10 14q72 9 180 9q35 0 73 -2q12 -1 30 -1q17 0 17 -15q0 -13 -16 -13l-25 1q-57 3 -80 3q-52 0 -143 -8q-25 -3 -36 -3
q-3 0 -6.5 3.5z" />
    </font>
</defs>
</svg>
