<?xml version="1.0" standalone="no"?>
<!DOCTYPE svg PUBLIC "-//W3C//DTD SVG 1.1//EN" "http://www.w3.org/Graphics/SVG/1.1/DTD/svg11.dtd" >
<svg xmlns="http://www.w3.org/2000/svg" xmlns:xlink="http://www.w3.org/1999/xlink" version="1.1">
<metadata>
Created by FontForge 20170910 at Fri Sep  7 15:55:03 2018
 By Jimmy Wärting
Copyright 2018 The Mali Project Authors (https://github.com/cadsondemak/Mali)
</metadata>
<defs>
<font id="Mali-MediumItalic" horiz-adv-x="0" >
  <font-face 
    font-family="Mali Medium"
    font-weight="500"
    font-style="italic"
    font-stretch="normal"
    units-per-em="1000"
    panose-1="0 0 6 0 0 0 0 0 0 0"
    ascent="800"
    descent="-200"
    x-height="508"
    cap-height="710"
    bbox="-685 -535 1532 1448"
    underline-thickness="50"
    underline-position="-100"
    slope="-10"
    unicode-range="U+000D-FB02"
  />
<missing-glyph horiz-adv-x="522" 
d="M259 11l-138 -1q-11 0 -14.5 3.5t-4.5 14.5v56v275l5 334q0 29 31 29l93 -1q22 -1 69 -1l106 1q23 1 55 1q23 0 23 -24l-5 -334v-333q0 -11 -4 -16.5t-15 -5.5q-116 2 -201 2zM433 259v105l2 309l-140 -1h-41q-24 1 -93 1q-5 0 -6.5 -2t-1.5 -8q0 -4 -1.5 -104.5
t-1.5 -235.5v-264l128 1q82 -2 106 -2l50 -1q-1 10 -1 202z" />
    <glyph glyph-name="fi" unicode="fi" horiz-adv-x="719" 
d="M441.5 707.5q38.5 -32.5 38.5 -87.5q0 -13 -3 -28q-5 -32 -19 -45.5t-40 -13.5q-21 0 -32 9t-11 24q0 7 1 10q5 28 5 43q0 20 -9 29.5t-31 9.5q-34 0 -52.5 -30t-30.5 -100q-11 -62 -13 -78l-6 -37h70q31 0 31 -31q0 -20 -11 -32.5t-33 -13.5l-70 -1q-22 -139 -48 -293
q-4 -21 -18.5 -31.5t-36.5 -10.5q-23 0 -33.5 11t-8.5 30l46 292q-36 0 -48 -1q-37 0 -37 30q0 46 49 49q12 1 49 1l20 123q33 205 181 205q62 0 100.5 -32.5zM581.5 567q-16.5 16 -16.5 42q0 35 25.5 59.5t61.5 24.5q28 0 44.5 -15t16.5 -41q0 -36 -26 -61t-61 -25
q-28 0 -44.5 16zM483 15q-12 9 -12 24q0 6 1 9l81 406q4 20 19.5 31.5t38.5 11.5q20 0 32 -9.5t12 -25.5q0 -6 -1 -9l-81 -406q-4 -20 -20 -30.5t-38 -10.5q-20 0 -32 9z" />
    <glyph glyph-name="fl" unicode="fl" horiz-adv-x="659" 
d="M441.5 707.5q38.5 -32.5 38.5 -87.5q0 -13 -3 -28q-5 -32 -19 -45.5t-40 -13.5q-21 0 -32 9t-11 24q0 7 1 10q5 28 5 43q0 20 -9 29.5t-31 9.5q-34 0 -52.5 -30t-30.5 -100q-11 -62 -13 -78l-6 -37h70q31 0 31 -31q0 -20 -11 -32.5t-33 -13.5l-70 -1q-22 -139 -48 -293
q-4 -21 -18.5 -31.5t-36.5 -10.5q-23 0 -33.5 11t-8.5 30l46 292q-36 0 -48 -1q-37 0 -37 30q0 46 49 49q12 1 49 1l20 123q33 205 181 205q62 0 100.5 -32.5zM454.5 20q-11.5 11 -8.5 29l116 699q4 20 21 32t39 12q20 0 32 -10.5t9 -26.5l-118 -702q-4 -21 -20 -32.5
t-38 -11.5q-21 0 -32.5 11z" />
    <glyph glyph-name="uni0E240E45" unicode="&#xe24;&#xe45;" horiz-adv-x="954" 
d="M864 548.5q41 -44.5 41 -116.5q0 -26 -9 -76l-20 -115l-26 -144l-27 -148q-28 -152 -40 -221q-3 -16 -19 -26t-37 -10q-22 0 -34.5 10t-9.5 26q13 74 32 176q18 94 36 198l28 155q15 75 21 112q6 36 6 63q0 45 -18.5 64t-55.5 19q-50 0 -83.5 -32.5t-45.5 -96.5
q-6 -31 -29 -165l-21 -120q-10 -60 -26 -149.5t-25 -139.5q-4 -26 -14 -80q-4 -19 -20.5 -29.5t-39.5 -10.5q-16 0 -27 8.5t-11 25.5q0 6 1 9q12 78 44 244l23 122q22 128 48 285q2 16 2 22q0 49 -40 78t-109 29q-51 0 -92 -14.5t-65 -34.5t-26 -35l82 -26q21 -9 21 -36
q0 -11 -17 -79l-16 -66q11 3 24 3q42 0 71 -28.5t29 -70.5q0 -60 -39 -96t-102 -36q-34 0 -59 14.5t-38 36.5t-13 43q0 17 10 60.5t17 70t9 36.5q19 69 22 88q1 8 -10 14t-34 14q-34 13 -50.5 23t-13.5 27q7 36 48 76t106.5 67t140.5 27q80 0 134.5 -28.5t69.5 -73.5
q22 46 64 74t105 28q86 0 127 -44.5zM204 142.5q-18 -20.5 -18 -47.5q0 -19 13.5 -30.5t31.5 -11.5q26 0 48 19t22 50q0 20 -13 30.5t-36 10.5q-30 0 -48 -20.5z" />
    <glyph glyph-name="uni0E260E45" unicode="&#xe26;&#xe45;" horiz-adv-x="950" 
d="M863 557q41 -42 41 -123q0 -26 -10 -88l-10 -53q-39 -218 -45 -251q-19 -116 -51 -286l-5 -26q-3 -18 -18.5 -28t-37.5 -10q-21 0 -34 10.5t-10 26.5l14 72l44 239l19 108q25 137 35 198q9 53 9 86q0 47 -17.5 68t-57.5 21q-49 0 -82 -34t-44 -92l-27 -151
q-33 -188 -36 -204l-55 -310q-3 -17 -18 -27.5t-35 -10.5q-21 0 -34 11t-10 27l56 311q26 141 62 352q3 14 3 28q0 45 -28.5 72.5t-84.5 27.5q-49 0 -94 -17t-74 -39.5t-31 -35.5l83 -26q28 -9 28 -56q0 -38 -18 -122t-33 -127q-18 -50 -50 -76t-84 -26q-50 0 -79.5 30.5
t-29.5 73.5q0 56 38.5 90.5t92.5 34.5q27 0 44 -11q20 90 20 118q0 19 -11 22l-29 8q-39 10 -58.5 20t-16.5 31q4 33 46.5 77.5t111.5 76.5t149 32q66 0 110.5 -27.5t59.5 -65.5q23 39 67 66t103 27q81 0 122 -42zM173 73q19 18 19 48q0 20 -11.5 31.5t-34.5 11.5
q-27 0 -46.5 -19t-19.5 -46q0 -20 13 -32t33 -12q28 0 47 18z" />
    <glyph glyph-name=".notdef" horiz-adv-x="522" 
d="M259 11l-138 -1q-11 0 -14.5 3.5t-4.5 14.5v56v275l5 334q0 29 31 29l93 -1q22 -1 69 -1l106 1q23 1 55 1q23 0 23 -24l-5 -334v-333q0 -11 -4 -16.5t-15 -5.5q-116 2 -201 2zM433 259v105l2 309l-140 -1h-41q-24 1 -93 1q-5 0 -6.5 -2t-1.5 -8q0 -4 -1.5 -104.5
t-1.5 -235.5v-264l128 1q82 -2 106 -2l50 -1q-1 10 -1 202z" />
    <glyph glyph-name="NULL" 
 />
    <glyph glyph-name="NULL" 
 />
    <glyph glyph-name="nonmarkingreturn" unicode="&#xd;" horiz-adv-x="333" 
 />
    <glyph glyph-name="space" unicode=" " horiz-adv-x="333" 
 />
    <glyph glyph-name="A" unicode="A" horiz-adv-x="694" 
d="M605 180.5q-11 -16.5 -30 -16.5h-7l15 -118l1 -10q0 -21 -17.5 -33.5t-40.5 -12.5q-18 0 -31 7.5t-14 20.5l-16 147l-256 1l-72 -144q-15 -31 -53 -31q-24 0 -39 12t-12 29q0 7 5 15l125 246q140 275 153 301q33 66 55.5 91.5t57.5 25.5q33 0 53.5 -24.5t28.5 -82.5
q22 -146 45 -345h20q19 0 29.5 -10t10.5 -28q0 -24 -11 -40.5zM455 260l-26 237q-5 43 -8.5 60t-8.5 17t-12.5 -12.5t-17 -33t-13.5 -28.5q-41 -83 -74 -156l-39 -82z" />
    <glyph glyph-name="Aacute" unicode="&#xc1;" horiz-adv-x="694" 
d="M605 180.5q-11 -16.5 -30 -16.5h-7l15 -118l1 -10q0 -21 -17.5 -33.5t-40.5 -12.5q-18 0 -31 7.5t-14 20.5l-16 147l-256 1l-72 -144q-15 -31 -53 -31q-24 0 -39 12t-12 29q0 7 5 15l125 246q140 275 153 301q33 66 55.5 91.5t57.5 25.5q33 0 53.5 -24.5t28.5 -82.5
q22 -146 45 -345h20q19 0 29.5 -10t10.5 -28q0 -24 -11 -40.5zM455 260l-26 237q-5 43 -8.5 60t-8.5 17t-12.5 -12.5t-17 -33t-13.5 -28.5q-41 -83 -74 -156l-39 -82zM377 764q-9 10 -9 22q0 9 6 20.5t18 20.5l96 80q19 15 29 21t21 6q14 0 23 -10t9 -24q0 -25 -28 -46
l-102 -80q-14 -11 -23 -15.5t-18 -4.5q-13 0 -22 10z" />
    <glyph glyph-name="Abreve" unicode="&#x102;" horiz-adv-x="694" 
d="M605 180.5q-11 -16.5 -30 -16.5h-7l15 -118l1 -10q0 -21 -17.5 -33.5t-40.5 -12.5q-18 0 -31 7.5t-14 20.5l-16 147l-256 1l-72 -144q-15 -31 -53 -31q-24 0 -39 12t-12 29q0 7 5 15l125 246q140 275 153 301q33 66 55.5 91.5t57.5 25.5q33 0 53.5 -24.5t28.5 -82.5
q22 -146 45 -345h20q19 0 29.5 -10t10.5 -28q0 -24 -11 -40.5zM455 260l-26 237q-5 43 -8.5 60t-8.5 17t-12.5 -12.5t-17 -33t-13.5 -28.5q-41 -83 -74 -156l-39 -82zM370 775.5q-34 15.5 -53.5 42.5t-19.5 60q0 14 5 26q5 15 15.5 23t24.5 8q13 0 23 -6t9 -17q-1 -5 -1 -14
q1 -34 22.5 -53t56.5 -19q34 0 64 23.5t37 59.5q3 14 16 21.5t27 7.5t23 -9.5t8 -23.5q-4 -37 -30.5 -70.5t-66.5 -54t-83 -20.5t-77 15.5z" />
    <glyph glyph-name="uni1EAE" unicode="&#x1eae;" horiz-adv-x="694" 
d="M605 180.5q-11 -16.5 -30 -16.5h-7l15 -118l1 -10q0 -21 -17.5 -33.5t-40.5 -12.5q-18 0 -31 7.5t-14 20.5l-16 147l-256 1l-72 -144q-15 -31 -53 -31q-24 0 -39 12t-12 29q0 7 5 15l125 246q140 275 153 301q33 66 55.5 91.5t57.5 25.5q33 0 53.5 -24.5t28.5 -82.5
q22 -146 45 -345h20q19 0 29.5 -10t10.5 -28q0 -24 -11 -40.5zM455 260l-26 237q-5 43 -8.5 60t-8.5 17t-12.5 -12.5t-17 -33t-13.5 -28.5q-41 -83 -74 -156l-39 -82zM437.5 951q-7.5 9 -6.5 23q0 8 6 18.5t16 18.5l52 48q27 26 48 26q13 0 21.5 -9t8.5 -22q0 -14 -7 -24.5
t-19 -20.5l-59 -48q-13 -11 -21.5 -15t-17.5 -4q-14 0 -21.5 9zM368 775.5q-34 15.5 -53.5 42.5t-19.5 60q0 14 5 26q5 15 15.5 23t24.5 8q13 0 23 -6t9 -17q-1 -5 -1 -14q1 -34 22.5 -53t56.5 -19q34 0 64 23.5t37 59.5q3 14 16 21.5t27 7.5t23 -9.5t8 -23.5
q-4 -37 -30.5 -70.5t-66.5 -54t-83 -20.5t-77 15.5z" />
    <glyph glyph-name="uni1EB6" unicode="&#x1eb6;" horiz-adv-x="694" 
d="M605 180.5q-11 -16.5 -30 -16.5h-7l15 -118l1 -10q0 -21 -17.5 -33.5t-40.5 -12.5q-18 0 -31 7.5t-14 20.5l-16 147l-256 1l-72 -144q-15 -31 -53 -31q-24 0 -39 12t-12 29q0 7 5 15l125 246q140 275 153 301q33 66 55.5 91.5t57.5 25.5q33 0 53.5 -24.5t28.5 -82.5
q22 -146 45 -345h20q19 0 29.5 -10t10.5 -28q0 -24 -11 -40.5zM455 260l-26 237q-5 43 -8.5 60t-8.5 17t-12.5 -12.5t-17 -33t-13.5 -28.5q-41 -83 -74 -156l-39 -82zM229 -177q-14 14 -14 37q0 30 22 51t52 21q23 0 37.5 -13.5t14.5 -35.5q0 -31 -22 -52.5t-52 -21.5
q-24 0 -38 14zM370 775.5q-34 15.5 -53.5 42.5t-19.5 60q0 14 5 26q5 15 15.5 23t24.5 8q13 0 23 -6t9 -17q-1 -5 -1 -14q1 -34 22.5 -53t56.5 -19q34 0 64 23.5t37 59.5q3 14 16 21.5t27 7.5t23 -9.5t8 -23.5q-4 -37 -30.5 -70.5t-66.5 -54t-83 -20.5t-77 15.5z" />
    <glyph glyph-name="uni1EB0" unicode="&#x1eb0;" horiz-adv-x="694" 
d="M605 180.5q-11 -16.5 -30 -16.5h-7l15 -118l1 -10q0 -21 -17.5 -33.5t-40.5 -12.5q-18 0 -31 7.5t-14 20.5l-16 147l-256 1l-72 -144q-15 -31 -53 -31q-24 0 -39 12t-12 29q0 7 5 15l125 246q140 275 153 301q33 66 55.5 91.5t57.5 25.5q33 0 53.5 -24.5t28.5 -82.5
q22 -146 45 -345h20q19 0 29.5 -10t10.5 -28q0 -24 -11 -40.5zM455 260l-26 237q-5 43 -8.5 60t-8.5 17t-12.5 -12.5t-17 -33t-13.5 -28.5q-41 -83 -74 -156l-39 -82zM460 950q-7 4 -15 15l-43 48q-6 9 -9.5 15t-3.5 15q0 18 13.5 32t30.5 14q20 0 39 -26l35 -48
q10 -13 10 -29q0 -17 -12.5 -28.5t-28.5 -11.5q-9 0 -16 4zM370 775.5q-34 15.5 -53.5 42.5t-19.5 60q0 14 5 26q5 15 15.5 23t24.5 8q13 0 23 -6t9 -17q-1 -5 -1 -14q1 -34 22.5 -53t56.5 -19q34 0 64 23.5t37 59.5q3 14 16 21.5t27 7.5t23 -9.5t8 -23.5
q-4 -37 -30.5 -70.5t-66.5 -54t-83 -20.5t-77 15.5z" />
    <glyph glyph-name="uni1EB2" unicode="&#x1eb2;" horiz-adv-x="694" 
d="M605 180.5q-11 -16.5 -30 -16.5h-7l15 -118l1 -10q0 -21 -17.5 -33.5t-40.5 -12.5q-18 0 -31 7.5t-14 20.5l-16 147l-256 1l-72 -144q-15 -31 -53 -31q-24 0 -39 12t-12 29q0 7 5 15l125 246q140 275 153 301q33 66 55.5 91.5t57.5 25.5q33 0 53.5 -24.5t28.5 -82.5
q22 -146 45 -345h20q19 0 29.5 -10t10.5 -28q0 -24 -11 -40.5zM455 260l-26 237q-5 43 -8.5 60t-8.5 17t-12.5 -12.5t-17 -33t-13.5 -28.5q-41 -83 -74 -156l-39 -82zM454 937q-7 8 -6 20l5 27q2 10 29 31q15 10 23.5 18.5t8.5 17.5q0 19 -27 19q-15 0 -26.5 -6.5
t-16.5 -17.5q-4 -7 -11 -11t-14 -4q-19 0 -19 19q0 29 28.5 49t67.5 20q33 0 54.5 -16.5t21.5 -43.5q0 -20 -10 -31.5t-29 -24.5q-7 -5 -13.5 -10.5t-7.5 -10.5q-4 -22 -5 -24q-2 -14 -12 -21.5t-23 -7.5q-11 0 -18 8zM371 775.5q-34 15.5 -53.5 42.5t-19.5 60q0 14 5 26
q5 15 15.5 23t24.5 8q13 0 23 -6t9 -17q-1 -5 -1 -14q1 -34 22.5 -53t56.5 -19q34 0 64 23.5t37 59.5q3 14 16 21.5t27 7.5t23 -9.5t8 -23.5q-4 -37 -30.5 -70.5t-66.5 -54t-83 -20.5t-77 15.5z" />
    <glyph glyph-name="uni1EB4" unicode="&#x1eb4;" horiz-adv-x="694" 
d="M605 180.5q-11 -16.5 -30 -16.5h-7l15 -118l1 -10q0 -21 -17.5 -33.5t-40.5 -12.5q-18 0 -31 7.5t-14 20.5l-16 147l-256 1l-72 -144q-15 -31 -53 -31q-24 0 -39 12t-12 29q0 7 5 15l125 246q140 275 153 301q33 66 55.5 91.5t57.5 25.5q33 0 53.5 -24.5t28.5 -82.5
q22 -146 45 -345h20q19 0 29.5 -10t10.5 -28q0 -24 -11 -40.5zM455 260l-26 237q-5 43 -8.5 60t-8.5 17t-12.5 -12.5t-17 -33t-13.5 -28.5q-41 -83 -74 -156l-39 -82zM324.5 979.5q-8.5 8.5 -8.5 20.5q0 11 8 22q36 42 109 42q21 0 34 -3t32 -10q16 -6 28 -9t29 -3
q22 0 38 11q7 4 12.5 6.5t12.5 2.5q15 0 24.5 -9t8.5 -22q0 -13 -12 -23q-30 -33 -94 -33q-21 0 -37 4t-37 11q-31 11 -50 11q-20 0 -40 -13q-5 -2 -15.5 -8t-17.5 -6q-16 0 -24.5 8.5zM371 775q-34 15 -53.5 41t-19.5 58q0 13 5 25q5 14 15.5 22t24.5 8q13 0 23 -5.5
t9 -16.5q-1 -5 -1 -14q1 -33 22.5 -51t56.5 -18q34 0 64 22t37 57q3 14 16 21.5t27 7.5t23 -9.5t8 -22.5q-4 -36 -30.5 -68.5t-66.5 -52t-83 -19.5t-77 15z" />
    <glyph glyph-name="uni01CD" unicode="&#x1cd;" horiz-adv-x="694" 
d="M605 180.5q-11 -16.5 -30 -16.5h-7l15 -118l1 -10q0 -21 -17.5 -33.5t-40.5 -12.5q-18 0 -31 7.5t-14 20.5l-16 147l-256 1l-72 -144q-15 -31 -53 -31q-24 0 -39 12t-12 29q0 7 5 15l125 246q140 275 153 301q33 66 55.5 91.5t57.5 25.5q33 0 53.5 -24.5t28.5 -82.5
q22 -146 45 -345h20q19 0 29.5 -10t10.5 -28q0 -24 -11 -40.5zM455 260l-26 237q-5 43 -8.5 60t-8.5 17t-12.5 -12.5t-17 -33t-13.5 -28.5q-41 -83 -74 -156l-39 -82zM612.5 948.5q8.5 -8.5 8.5 -21.5q0 -9 -3.5 -15t-12.5 -17q-45 -50 -68.5 -73.5t-49.5 -40.5t-51 -17
q-23 0 -49 28t-58 73q-9 13 -17 23t-8 25q1 15 15.5 27t29.5 12q9 0 16.5 -5.5t16.5 -16.5q30 -45 46.5 -66t24.5 -21q7 0 32 24.5t71 74.5q14 15 35 15q13 0 21.5 -8.5z" />
    <glyph glyph-name="Acircumflex" unicode="&#xc2;" horiz-adv-x="694" 
d="M605 180.5q-11 -16.5 -30 -16.5h-7l15 -118l1 -10q0 -21 -17.5 -33.5t-40.5 -12.5q-18 0 -31 7.5t-14 20.5l-16 147l-256 1l-72 -144q-15 -31 -53 -31q-24 0 -39 12t-12 29q0 7 5 15l125 246q140 275 153 301q33 66 55.5 91.5t57.5 25.5q33 0 53.5 -24.5t28.5 -82.5
q22 -146 45 -345h20q19 0 29.5 -10t10.5 -28q0 -24 -11 -40.5zM455 260l-26 237q-5 43 -8.5 60t-8.5 17t-12.5 -12.5t-17 -33t-13.5 -28.5q-41 -83 -74 -156l-39 -82zM530 774q-56 98 -68 98q-7 0 -29.5 -20t-52.5 -48l-20 -18q-22 -22 -41 -22q-14 0 -23 9.5t-9 22.5
q0 18 17 32q2 2 32 29q47 44 80.5 69.5t55.5 25.5q27 0 46 -20.5t47 -65.5q11 -19 30 -46q7 -9 7 -19q0 -16 -13 -29t-29 -13q-20 0 -30 15z" />
    <glyph glyph-name="uni1EA4" unicode="&#x1ea4;" horiz-adv-x="694" 
d="M605 180.5q-11 -16.5 -30 -16.5h-7l15 -118l1 -10q0 -21 -17.5 -33.5t-40.5 -12.5q-18 0 -31 7.5t-14 20.5l-16 147l-256 1l-72 -144q-15 -31 -53 -31q-24 0 -39 12t-12 29q0 7 5 15l125 246q140 275 153 301q33 66 55.5 91.5t57.5 25.5q33 0 53.5 -24.5t28.5 -82.5
q22 -146 45 -345h20q19 0 29.5 -10t10.5 -28q0 -24 -11 -40.5zM455 260l-26 237q-5 43 -8.5 60t-8.5 17t-12.5 -12.5t-17 -33t-13.5 -28.5q-41 -83 -74 -156l-39 -82zM583 925.5q-8 8.5 -8 20.5q0 19 22 41l53 47q15 14 25.5 20t21.5 6q14 0 22.5 -8.5t8.5 -22.5
q0 -23 -26 -45l-59 -49q-22 -18 -39 -18q-13 0 -21 8.5zM531 775q-30 52 -45.5 75t-22.5 23t-29.5 -20t-52.5 -48l-20 -18q-23 -22 -41 -22q-14 0 -23 9.5t-9 22.5q0 18 17 32l33 30q47 44 79.5 69t54.5 25q27 0 46.5 -20.5t45.5 -63.5q5 -7 14.5 -22t17.5 -26q7 -9 7 -19
q0 -16 -13 -29t-30 -13q-21 0 -29 15z" />
    <glyph glyph-name="uni1EAC" unicode="&#x1eac;" horiz-adv-x="694" 
d="M605 180.5q-11 -16.5 -30 -16.5h-7l15 -118l1 -10q0 -21 -17.5 -33.5t-40.5 -12.5q-18 0 -31 7.5t-14 20.5l-16 147l-256 1l-72 -144q-15 -31 -53 -31q-24 0 -39 12t-12 29q0 7 5 15l125 246q140 275 153 301q33 66 55.5 91.5t57.5 25.5q33 0 53.5 -24.5t28.5 -82.5
q22 -146 45 -345h20q19 0 29.5 -10t10.5 -28q0 -24 -11 -40.5zM455 260l-26 237q-5 43 -8.5 60t-8.5 17t-12.5 -12.5t-17 -33t-13.5 -28.5q-41 -83 -74 -156l-39 -82zM229 -177q-14 14 -14 37q0 30 22 51t52 21q23 0 37.5 -13.5t14.5 -35.5q0 -31 -22 -52.5t-52 -21.5
q-24 0 -38 14zM530 774q-56 98 -68 98q-7 0 -29.5 -20t-52.5 -48l-20 -18q-22 -22 -41 -22q-14 0 -23 9.5t-9 22.5q0 18 17 32q2 2 32 29q47 44 80.5 69.5t55.5 25.5q27 0 46 -20.5t47 -65.5q11 -19 30 -46q7 -9 7 -19q0 -16 -13 -29t-29 -13q-20 0 -30 15z" />
    <glyph glyph-name="uni1EA6" unicode="&#x1ea6;" horiz-adv-x="694" 
d="M605 180.5q-11 -16.5 -30 -16.5h-7l15 -118l1 -10q0 -21 -17.5 -33.5t-40.5 -12.5q-18 0 -31 7.5t-14 20.5l-16 147l-256 1l-72 -144q-15 -31 -53 -31q-24 0 -39 12t-12 29q0 7 5 15l125 246q140 275 153 301q33 66 55.5 91.5t57.5 25.5q33 0 53.5 -24.5t28.5 -82.5
q22 -146 45 -345h20q19 0 29.5 -10t10.5 -28q0 -24 -11 -40.5zM455 260l-26 237q-5 43 -8.5 60t-8.5 17t-12.5 -12.5t-17 -33t-13.5 -28.5q-41 -83 -74 -156l-39 -82zM600 935l-42 49q-13 15 -13 32q0 18 13.5 31t31.5 13q11 0 18.5 -6t18.5 -20l36 -47q10 -15 10 -28
q0 -17 -12.5 -29.5t-28.5 -12.5q-17 0 -32 18zM530 775q-56 98 -68 98q-7 0 -29.5 -20t-52.5 -48l-20 -18q-22 -22 -41 -22q-14 0 -23 9.5t-9 22.5q0 18 17 32q2 2 32 29q47 44 80.5 69.5t55.5 25.5q27 0 46 -20.5t47 -65.5q11 -19 30 -46q7 -9 7 -19q0 -16 -13 -29t-29 -13
q-20 0 -30 15z" />
    <glyph glyph-name="uni1EA8" unicode="&#x1ea8;" horiz-adv-x="694" 
d="M605 180.5q-11 -16.5 -30 -16.5h-7l15 -118l1 -10q0 -21 -17.5 -33.5t-40.5 -12.5q-18 0 -31 7.5t-14 20.5l-16 147l-256 1l-72 -144q-15 -31 -53 -31q-24 0 -39 12t-12 29q0 7 5 15l125 246q140 275 153 301q33 66 55.5 91.5t57.5 25.5q33 0 53.5 -24.5t28.5 -82.5
q22 -146 45 -345h20q19 0 29.5 -10t10.5 -28q0 -24 -11 -40.5zM455 260l-26 237q-5 43 -8.5 60t-8.5 17t-12.5 -12.5t-17 -33t-13.5 -28.5q-41 -83 -74 -156l-39 -82zM610.5 922.5q-7.5 6.5 -7.5 15.5t2 18t3 14q1 7 8.5 14t21.5 17q16 12 23.5 19.5t7.5 16.5q0 19 -27 19
q-16 0 -27.5 -6t-16.5 -17q-2 -8 -9 -12.5t-15 -4.5q-19 0 -19 20q0 30 29 49.5t66 19.5q32 0 54.5 -16t22.5 -42q0 -22 -10.5 -35t-28.5 -25q-20 -11 -21 -20q-2 -9 -4 -25q-2 -12 -12.5 -19t-23.5 -7q-9 0 -16.5 6.5zM530 775q-56 98 -68 98q-7 0 -29.5 -20t-52.5 -48
l-20 -18q-22 -22 -41 -22q-14 0 -23 9.5t-9 22.5q0 18 17 32q2 2 32 29q47 44 80.5 69.5t55.5 25.5q27 0 46 -20.5t47 -65.5q11 -19 30 -46q7 -9 7 -19q0 -16 -13 -29t-29 -13q-20 0 -30 15z" />
    <glyph glyph-name="uni1EAA" unicode="&#x1eaa;" horiz-adv-x="694" 
d="M605 180.5q-11 -16.5 -30 -16.5h-7l15 -118l1 -10q0 -21 -17.5 -33.5t-40.5 -12.5q-18 0 -31 7.5t-14 20.5l-16 147l-256 1l-72 -144q-15 -31 -53 -31q-24 0 -39 12t-12 29q0 7 5 15l125 246q140 275 153 301q33 66 55.5 91.5t57.5 25.5q33 0 53.5 -24.5t28.5 -82.5
q22 -146 45 -345h20q19 0 29.5 -10t10.5 -28q0 -24 -11 -40.5zM455 260l-26 237q-5 43 -8.5 60t-8.5 17t-12.5 -12.5t-17 -33t-13.5 -28.5q-41 -83 -74 -156l-39 -82zM326 994q-8 7 -8 19q0 16 16 30q31 27 52 38t49 11q37 0 81 -22q36 -19 51 -19q13 0 31 13q6 4 16 11
t19 7q13 0 21 -9t8 -21q0 -17 -16 -28q-25 -19 -46.5 -28t-42.5 -9q-17 0 -32.5 5t-28 11t-17.5 9q-34 17 -49 17q-10 0 -20.5 -6.5t-25.5 -19.5q-19 -16 -36 -16q-14 0 -22 7zM530 775q-56 98 -68 98q-7 0 -29.5 -20t-52.5 -48l-20 -18q-22 -22 -41 -22q-14 0 -23 9.5
t-9 22.5q0 18 17 32q2 2 32 29q47 44 80.5 69.5t55.5 25.5q27 0 46 -20.5t47 -65.5q11 -19 30 -46q7 -9 7 -19q0 -16 -13 -29t-29 -13q-20 0 -30 15z" />
    <glyph glyph-name="Adieresis" unicode="&#xc4;" horiz-adv-x="694" 
d="M605 180.5q-11 -16.5 -30 -16.5h-7l15 -118l1 -10q0 -21 -17.5 -33.5t-40.5 -12.5q-18 0 -31 7.5t-14 20.5l-16 147l-256 1l-72 -144q-15 -31 -53 -31q-24 0 -39 12t-12 29q0 7 5 15l125 246q140 275 153 301q33 66 55.5 91.5t57.5 25.5q33 0 53.5 -24.5t28.5 -82.5
q22 -146 45 -345h20q19 0 29.5 -10t10.5 -28q0 -24 -11 -40.5zM455 260l-26 237q-5 43 -8.5 60t-8.5 17t-12.5 -12.5t-17 -33t-13.5 -28.5q-41 -83 -74 -156l-39 -82zM279 785.5q-15 14.5 -15 36.5q0 29 22.5 50.5t51.5 21.5q22 0 37.5 -15t15.5 -36q0 -28 -23 -50t-51 -22
q-23 0 -38 14.5zM531 785.5q-15 14.5 -15 36.5q0 29 22.5 50.5t51.5 21.5q22 0 37 -14.5t15 -36.5q0 -28 -22.5 -50t-50.5 -22q-23 0 -38 14.5z" />
    <glyph glyph-name="uni1EA0" unicode="&#x1ea0;" horiz-adv-x="694" 
d="M605 180.5q-11 -16.5 -30 -16.5h-7l15 -118l1 -10q0 -21 -17.5 -33.5t-40.5 -12.5q-18 0 -31 7.5t-14 20.5l-16 147l-256 1l-72 -144q-15 -31 -53 -31q-24 0 -39 12t-12 29q0 7 5 15l125 246q140 275 153 301q33 66 55.5 91.5t57.5 25.5q33 0 53.5 -24.5t28.5 -82.5
q22 -146 45 -345h20q19 0 29.5 -10t10.5 -28q0 -24 -11 -40.5zM455 260l-26 237q-5 43 -8.5 60t-8.5 17t-12.5 -12.5t-17 -33t-13.5 -28.5q-41 -83 -74 -156l-39 -82zM229 -177q-14 14 -14 37q0 30 22 51t52 21q23 0 37.5 -13.5t14.5 -35.5q0 -31 -22 -52.5t-52 -21.5
q-24 0 -38 14z" />
    <glyph glyph-name="Agrave" unicode="&#xc0;" horiz-adv-x="694" 
d="M605 180.5q-11 -16.5 -30 -16.5h-7l15 -118l1 -10q0 -21 -17.5 -33.5t-40.5 -12.5q-18 0 -31 7.5t-14 20.5l-16 147l-256 1l-72 -144q-15 -31 -53 -31q-24 0 -39 12t-12 29q0 7 5 15l125 246q140 275 153 301q33 66 55.5 91.5t57.5 25.5q33 0 53.5 -24.5t28.5 -82.5
q22 -146 45 -345h20q19 0 29.5 -10t10.5 -28q0 -24 -11 -40.5zM455 260l-26 237q-5 43 -8.5 60t-8.5 17t-12.5 -12.5t-17 -33t-13.5 -28.5q-41 -83 -74 -156l-39 -82zM467.5 759q-7.5 4 -15.5 14l-64 86q-13 19 -13 32q0 19 13.5 32t30.5 13q11 0 20 -6.5t18 -20.5l58 -85
q11 -14 11 -28q0 -16 -12.5 -28.5t-29.5 -12.5q-9 0 -16.5 4z" />
    <glyph glyph-name="uni1EA2" unicode="&#x1ea2;" horiz-adv-x="694" 
d="M605 180.5q-11 -16.5 -30 -16.5h-7l15 -118l1 -10q0 -21 -17.5 -33.5t-40.5 -12.5q-18 0 -31 7.5t-14 20.5l-16 147l-256 1l-72 -144q-15 -31 -53 -31q-24 0 -39 12t-12 29q0 7 5 15l125 246q140 275 153 301q33 66 55.5 91.5t57.5 25.5q33 0 53.5 -24.5t28.5 -82.5
q22 -146 45 -345h20q19 0 29.5 -10t10.5 -28q0 -24 -11 -40.5zM455 260l-26 237q-5 43 -8.5 60t-8.5 17t-12.5 -12.5t-17 -33t-13.5 -28.5q-41 -83 -74 -156l-39 -82zM414 766.5q-10 10.5 -7 25.5q4 23 8 42q2 12 12.5 21.5t31.5 23.5t32.5 26t11.5 25q0 14 -11 23.5
t-32 9.5q-22 0 -37.5 -10.5t-29.5 -28.5q-15 -20 -31 -20q-11 0 -20 8t-9 17q0 14 13 30q26 33 55.5 50.5t71.5 17.5q49 0 80 -23t31 -60q0 -32 -16 -51t-44 -37q-11 -7 -19.5 -13.5t-9.5 -13.5l-6 -35q-3 -19 -16.5 -28.5t-31.5 -9.5q-17 0 -27 10.5z" />
    <glyph glyph-name="Amacron" unicode="&#x100;" horiz-adv-x="694" 
d="M605 180.5q-11 -16.5 -30 -16.5h-7l15 -118l1 -10q0 -21 -17.5 -33.5t-40.5 -12.5q-18 0 -31 7.5t-14 20.5l-16 147l-256 1l-72 -144q-15 -31 -53 -31q-24 0 -39 12t-12 29q0 7 5 15l125 246q140 275 153 301q33 66 55.5 91.5t57.5 25.5q33 0 53.5 -24.5t28.5 -82.5
q22 -146 45 -345h20q19 0 29.5 -10t10.5 -28q0 -24 -11 -40.5zM455 260l-26 237q-5 43 -8.5 60t-8.5 17t-12.5 -12.5t-17 -33t-13.5 -28.5q-41 -83 -74 -156l-39 -82zM343 802q-29 0 -51 9q-22 8 -22 30q0 21 15 34t35 11q37 -7 70 -7q22 0 68 4q50 4 78 4q21 0 63 -4
q13 -2 21.5 -11t8.5 -22q0 -20 -16.5 -33t-32.5 -10q-20 4 -52 4q-29 0 -73 -4q-42 -4 -67 -4z" />
    <glyph glyph-name="Aogonek" unicode="&#x104;" horiz-adv-x="694" 
d="M605 180.5q-11 -16.5 -30 -16.5h-7l15 -118l1 -10q0 -14 -8 -24t-21 -16l-5 -4q-32 -23 -48.5 -41.5t-16.5 -38.5q0 -22 33 -22q7 0 20.5 3.5t17.5 3.5q8 0 13 -5.5t5 -14.5q0 -25 -17.5 -38.5t-48.5 -13.5q-41 0 -68.5 23t-27.5 59q0 31 17.5 57t51.5 52v2l-16 147
l-256 1l-72 -144q-15 -31 -53 -31q-24 0 -39 12t-12 29q0 7 5 15l125 246q140 275 153 301q33 66 55.5 91.5t57.5 25.5q33 0 53.5 -24.5t28.5 -82.5q22 -146 45 -345h20q19 0 29.5 -10t10.5 -28q0 -24 -11 -40.5zM455 260l-26 237q-5 43 -8.5 60t-8.5 17t-12.5 -12.5
t-17 -33t-13.5 -28.5q-41 -83 -74 -156l-39 -82z" />
    <glyph glyph-name="Aring" unicode="&#xc5;" horiz-adv-x="694" 
d="M605 180.5q-11 -16.5 -30 -16.5h-7l15 -118l1 -10q0 -21 -17.5 -33.5t-40.5 -12.5q-18 0 -31 7.5t-14 20.5l-16 147l-256 1l-72 -144q-15 -31 -53 -31q-24 0 -39 12t-12 29q0 7 5 15l125 246q140 275 153 301q33 66 55.5 91.5t57.5 25.5q33 0 53.5 -24.5t28.5 -82.5
q22 -146 45 -345h20q19 0 29.5 -10t10.5 -28q0 -24 -11 -40.5zM455 260l-26 237q-5 43 -8.5 60t-8.5 17t-12.5 -12.5t-17 -33t-13.5 -28.5q-41 -83 -74 -156l-39 -82zM368.5 766.5q-29.5 29.5 -29.5 71.5q0 34 18.5 64t50.5 48t69 18q42 0 70.5 -30t28.5 -69
q0 -36 -18.5 -66t-49.5 -48t-67 -18q-43 0 -72.5 29.5zM494 818q19 18 19 44q0 18 -12.5 31t-32.5 13q-27 0 -46 -19t-19 -43q0 -19 13 -31.5t33 -12.5q26 0 45 18z" />
    <glyph glyph-name="Aringacute" unicode="&#x1fa;" horiz-adv-x="694" 
d="M463.5 1007.5q-7.5 7.5 -7.5 19.5q0 9 5.5 21t16.5 22l48 48q14 14 25.5 20.5t23.5 6.5q13 0 21 -8.5t8 -22.5q0 -13 -7 -24t-19 -22l-55 -49q-22 -19 -39 -19q-13 0 -20.5 7.5zM368.5 766.5q-29.5 29.5 -29.5 71.5q0 34 18.5 64t50.5 48t69 18q42 0 70 -30t28 -69
q0 -36 -18 -66.5t-49 -48t-67 -17.5q-43 0 -72.5 29.5zM422 887q-19 -19 -19 -43q0 -19 13 -31.5t33 -12.5q26 0 45 18t19 44q0 18 -12.5 31t-33.5 13q-26 0 -45 -19zM605 180.5q-11 -16.5 -30 -16.5h-7l15 -118l1 -10q0 -21 -17.5 -33.5t-40.5 -12.5q-18 0 -31 7.5
t-14 20.5l-16 147l-256 1l-72 -144q-15 -31 -53 -31q-24 0 -39 12t-12 29q0 7 5 15l125 246q140 275 153 301q33 66 55.5 91.5t57.5 25.5q33 0 53.5 -24.5t28.5 -82.5q22 -146 45 -345h20q19 0 29.5 -10t10.5 -28q0 -24 -11 -40.5zM455 260l-26 237q-5 43 -8.5 60t-8.5 17
t-12.5 -12.5t-17 -33t-13.5 -28.5q-41 -83 -74 -156l-39 -82z" />
    <glyph glyph-name="Atilde" unicode="&#xc3;" horiz-adv-x="694" 
d="M605 180.5q-11 -16.5 -30 -16.5h-7l15 -118l1 -10q0 -21 -17.5 -33.5t-40.5 -12.5q-18 0 -31 7.5t-14 20.5l-16 147l-256 1l-72 -144q-15 -31 -53 -31q-24 0 -39 12t-12 29q0 7 5 15l125 246q140 275 153 301q33 66 55.5 91.5t57.5 25.5q33 0 53.5 -24.5t28.5 -82.5
q22 -146 45 -345h20q19 0 29.5 -10t10.5 -28q0 -24 -11 -40.5zM455 260l-26 237q-5 43 -8.5 60t-8.5 17t-12.5 -12.5t-17 -33t-13.5 -28.5q-41 -83 -74 -156l-39 -82zM286.5 776q-8.5 9 -8.5 23q0 16 15 31q31 31 53.5 43.5t50.5 12.5q49 0 87 -23q7 -4 18 -10t17 -8.5
t12 -2.5q11 0 27 14q10 10 17.5 14t16.5 4q12 0 21.5 -10t9.5 -23q0 -19 -15 -32q-26 -22 -47.5 -32t-43.5 -10q-16 0 -30 5.5t-27.5 12.5t-20.5 11q-5 2 -21.5 10t-27.5 8q-9 0 -18 -6.5t-25 -21.5q-22 -19 -39 -19q-13 0 -21.5 9z" />
    <glyph glyph-name="AE" unicode="&#xc6;" horiz-adv-x="902" 
d="M931.5 680.5q5.5 -5.5 5.5 -18.5q0 -7 -1 -12q-5 -28 -17.5 -37t-26.5 -7l-37 1q-90 3 -104 3q-77 0 -118 -3q-11 -93 -27 -178l-5 -30q62 -2 86 -2q91 -2 108 -3q15 -1 15 -23q0 -23 -11.5 -34.5t-37.5 -11.5l-62 2l-56 1h-56q-12 -59 -38 -158l-20 -81q79 -8 149 -8
q37 0 54 1t58 7q12 2 23.5 -5.5t11.5 -25.5q0 -26 -13.5 -39.5t-30.5 -17.5q-24 -7 -93 -7l-105 1q-90 2 -160 2q-28 0 -40 7.5t-12 23.5q0 7 1 10q4 24 16.5 34.5t34.5 10.5q17 59 28 106l-206 2l-111 -167q-6 -11 -14.5 -17t-23.5 -6q-21 0 -41 12.5t-20 26.5q0 5 2 8
q103 161 187.5 286.5t175 236.5t136.5 119q3 1 8 1l92 2q66 3 104 3q35 0 90.5 -3.5t84.5 -5.5q11 -1 16.5 -6.5zM467 260q23 99 50 252l10 56q-65 -61 -233 -306z" />
    <glyph glyph-name="AEacute" unicode="&#x1fc;" horiz-adv-x="902" 
d="M931.5 680.5q5.5 -5.5 5.5 -18.5q0 -7 -1 -12q-5 -28 -17.5 -37t-26.5 -7l-37 1q-90 3 -104 3q-77 0 -118 -3q-11 -93 -27 -178l-5 -30q62 -2 86 -2q91 -2 108 -3q15 -1 15 -23q0 -23 -11.5 -34.5t-37.5 -11.5l-62 2l-56 1h-56q-12 -59 -38 -158l-20 -81q79 -8 149 -8
q37 0 54 1t58 7q12 2 23.5 -5.5t11.5 -25.5q0 -26 -13.5 -39.5t-30.5 -17.5q-24 -7 -93 -7l-105 1q-90 2 -160 2q-28 0 -40 7.5t-12 23.5q0 7 1 10q4 24 16.5 34.5t34.5 10.5q17 59 28 106l-206 2l-111 -167q-6 -11 -14.5 -17t-23.5 -6q-21 0 -41 12.5t-20 26.5q0 5 2 8
q103 161 187.5 286.5t175 236.5t136.5 119q3 1 8 1l92 2q66 3 104 3q35 0 90.5 -3.5t84.5 -5.5q11 -1 16.5 -6.5zM467 260q23 99 50 252l10 56q-65 -61 -233 -306zM644 762q-9 10 -9 22q0 9 6 20.5t18 20.5l96 80q19 15 29 21t21 6q14 0 23 -10t9 -24q0 -25 -28 -46
l-102 -80q-14 -11 -23 -15.5t-18 -4.5q-13 0 -22 10z" />
    <glyph glyph-name="B" unicode="B" horiz-adv-x="639" 
d="M55 5h-11q-29 3 -29 30q0 23 13 41t35 17h13q39 153 63 290q13 70 33 199q-10 -2 -14 -2q-9 0 -15.5 6.5t-6.5 18.5q0 23 16 38t50 29q92 35 192 35q70 0 125.5 -22t86.5 -62t31 -91q0 -74 -55 -121.5t-142 -60.5q64 -16 97 -56t33 -87q0 -70 -42 -118t-111 -71t-151 -21
l-117 5q-16 -28 -53 -28t-41 31zM419 116q52 31 52 99q0 50 -44 72t-120 25q-24 0 -37 6t-13 24q0 53 63 55q95 4 155.5 32t60.5 100q0 46 -41.5 70t-116.5 24q-21 0 -49.5 -3.5t-52.5 -9.5q-12 -82 -38 -227q-13 -78 -28 -142.5t-39 -153.5l40 -1q23 -1 66 -1q90 0 142 31z
" />
    <glyph glyph-name="C" unicode="C" horiz-adv-x="723" 
d="M721.5 699.5q10.5 -9.5 10.5 -25.5q0 -6 -1 -10l-21 -114q-10 -53 -59 -53q-27 0 -38 19q-19 35 -35 56t-43.5 36t-68.5 15q-76 0 -147 -51t-114.5 -130.5t-43.5 -159.5q0 -63 28 -107t74 -66t102 -22q77 0 141 41t85 120q5 21 17 34.5t40 13.5q24 0 35 -9t11 -29
q0 -9 -1 -15q-10 -61 -52.5 -118t-113.5 -92.5t-162 -35.5q-84 0 -153.5 33.5t-110.5 98t-41 153.5q0 107 56.5 207t150 162t199.5 62q60 0 101.5 -20.5t64.5 -55.5l6 34q2 17 15.5 27.5t36.5 10.5q21 0 31.5 -9.5z" />
    <glyph glyph-name="Cacute" unicode="&#x106;" horiz-adv-x="723" 
d="M721.5 699.5q10.5 -9.5 10.5 -25.5q0 -6 -1 -10l-21 -114q-10 -53 -59 -53q-27 0 -38 19q-19 35 -35 56t-43.5 36t-68.5 15q-76 0 -147 -51t-114.5 -130.5t-43.5 -159.5q0 -63 28 -107t74 -66t102 -22q77 0 141 41t85 120q5 21 17 34.5t40 13.5q24 0 35 -9t11 -29
q0 -9 -1 -15q-10 -61 -52.5 -118t-113.5 -92.5t-162 -35.5q-84 0 -153.5 33.5t-110.5 98t-41 153.5q0 107 56.5 207t150 162t199.5 62q60 0 101.5 -20.5t64.5 -55.5l6 34q2 17 15.5 27.5t36.5 10.5q21 0 31.5 -9.5zM418 764q-9 10 -9 22q0 9 6 20.5t18 20.5l96 80
q19 15 29 21t21 6q14 0 23 -10t9 -24q0 -25 -28 -46l-102 -80q-14 -11 -23 -15.5t-18 -4.5q-13 0 -22 10z" />
    <glyph glyph-name="Ccaron" unicode="&#x10c;" horiz-adv-x="723" 
d="M721.5 699.5q10.5 -9.5 10.5 -25.5q0 -6 -1 -10l-21 -114q-10 -53 -59 -53q-27 0 -38 19q-19 35 -35 56t-43.5 36t-68.5 15q-76 0 -147 -51t-114.5 -130.5t-43.5 -159.5q0 -63 28 -107t74 -66t102 -22q77 0 141 41t85 120q5 21 17 34.5t40 13.5q24 0 35 -9t11 -29
q0 -9 -1 -15q-10 -61 -52.5 -118t-113.5 -92.5t-162 -35.5q-84 0 -153.5 33.5t-110.5 98t-41 153.5q0 107 56.5 207t150 162t199.5 62q60 0 101.5 -20.5t64.5 -55.5l6 34q2 17 15.5 27.5t36.5 10.5q21 0 31.5 -9.5zM653.5 948.5q8.5 -8.5 8.5 -21.5q0 -9 -3.5 -15t-12.5 -17
q-45 -50 -68.5 -73.5t-49.5 -40.5t-51 -17q-23 0 -49 28t-58 73q-9 13 -17 23t-8 25q1 15 15.5 27t29.5 12q9 0 16.5 -5.5t16.5 -16.5q30 -45 46.5 -66t24.5 -21q7 0 32 24.5t71 74.5q14 15 35 15q13 0 21.5 -8.5z" />
    <glyph glyph-name="Ccedilla" unicode="&#xc7;" horiz-adv-x="723" 
d="M721.5 699.5q10.5 -9.5 10.5 -25.5q0 -6 -1 -10l-21 -114q-10 -53 -59 -53q-27 0 -38 19q-19 35 -35 56t-43.5 36t-68.5 15q-76 0 -147 -51t-114.5 -130.5t-43.5 -159.5q0 -63 28 -107t74 -66t102 -22q77 0 141 41t85 120q5 21 17 34.5t40 13.5q24 0 35 -9t11 -29
q0 -9 -1 -15q-10 -61 -52.5 -118t-113.5 -92.5t-162 -35.5h-5l-43 -52q30 -8 51 -27t21 -50q0 -45 -39 -69t-100 -24q-19 0 -42.5 4t-38.5 10q-20 9 -20 27q0 16 10.5 26.5t26.5 10.5q1 0 21 -4q32 -9 50 -9q30 0 45.5 5.5t15.5 22.5q0 14 -12 19t-49 12q-14 1 -22 8.5
t-8 17.5q0 7 5 17l52 63q-100 22 -162 94t-62 183q0 107 56.5 207t150 162t199.5 62q60 0 101.5 -20.5t64.5 -55.5l6 34q2 17 15.5 27.5t36.5 10.5q21 0 31.5 -9.5z" />
    <glyph glyph-name="Ccircumflex" unicode="&#x108;" horiz-adv-x="723" 
d="M721.5 699.5q10.5 -9.5 10.5 -25.5q0 -6 -1 -10l-21 -114q-10 -53 -59 -53q-27 0 -38 19q-19 35 -35 56t-43.5 36t-68.5 15q-76 0 -147 -51t-114.5 -130.5t-43.5 -159.5q0 -63 28 -107t74 -66t102 -22q77 0 141 41t85 120q5 21 17 34.5t40 13.5q24 0 35 -9t11 -29
q0 -9 -1 -15q-10 -61 -52.5 -118t-113.5 -92.5t-162 -35.5q-84 0 -153.5 33.5t-110.5 98t-41 153.5q0 107 56.5 207t150 162t199.5 62q60 0 101.5 -20.5t64.5 -55.5l6 34q2 17 15.5 27.5t36.5 10.5q21 0 31.5 -9.5zM571 774q-56 98 -68 98q-7 0 -29.5 -20t-52.5 -48l-20 -18
q-22 -22 -41 -22q-14 0 -23 9.5t-9 22.5q0 18 17 32q2 2 32 29q47 44 80.5 69.5t55.5 25.5q27 0 46 -20.5t47 -65.5q11 -19 30 -46q7 -9 7 -19q0 -16 -13 -29t-29 -13q-20 0 -30 15z" />
    <glyph glyph-name="Cdotaccent" unicode="&#x10a;" horiz-adv-x="723" 
d="M721.5 699.5q10.5 -9.5 10.5 -25.5q0 -6 -1 -10l-21 -114q-10 -53 -59 -53q-27 0 -38 19q-19 35 -35 56t-43.5 36t-68.5 15q-76 0 -147 -51t-114.5 -130.5t-43.5 -159.5q0 -63 28 -107t74 -66t102 -22q77 0 141 41t85 120q5 21 17 34.5t40 13.5q24 0 35 -9t11 -29
q0 -9 -1 -15q-10 -61 -52.5 -118t-113.5 -92.5t-162 -35.5q-84 0 -153.5 33.5t-110.5 98t-41 153.5q0 107 56.5 207t150 162t199.5 62q60 0 101.5 -20.5t64.5 -55.5l6 34q2 17 15.5 27.5t36.5 10.5q21 0 31.5 -9.5zM445 785q-15 15 -15 38q0 28 22.5 49t51.5 21q22 0 37 -14
t15 -35q0 -29 -22 -51.5t-51 -22.5q-23 0 -38 15z" />
    <glyph glyph-name="D" unicode="D" horiz-adv-x="697" 
d="M575 608.5q98 -73.5 98 -211.5q0 -116 -65.5 -205t-180 -137.5t-254.5 -48.5h-83q-26 0 -37.5 8.5t-11.5 27.5q0 22 13 37.5t36 15.5h27l76 516h-4q-20 0 -31 6.5t-11 25.5q0 58 58 58h11q15 15 44 15q18 0 27 -4.5t13 -14.5q177 -15 275 -88.5zM395 142.5
q82 40.5 130 107t48 147.5q0 104 -77 152t-204 58l-76 -511q97 6 179 46.5z" />
    <glyph glyph-name="Eth" unicode="&#xd0;" horiz-adv-x="724" 
d="M594 613q100 -75 100 -215q0 -117 -69 -206t-186.5 -137.5t-258.5 -48.5h-69q-25 0 -36.5 8t-11.5 27q0 53 60 53h9l33 221l-53 1q-28 0 -43.5 10.5t-15.5 30.5q0 26 21 42.5t57 15.5l48 -1l30 200q-40 8 -40 38q0 24 16 35t48 13q14 15 45 15q33 0 43 -16
q173 -11 273 -86zM417.5 144q77.5 40 122 107.5t44.5 153.5q0 101 -74 146t-191 56l-29 -196l83 -2q26 -1 39.5 -12.5t13.5 -30.5q0 -25 -19 -40t-51 -15l-81 2l-32 -217q97 8 174.5 48z" />
    <glyph glyph-name="Dcaron" unicode="&#x10e;" horiz-adv-x="697" 
d="M575 608.5q98 -73.5 98 -211.5q0 -116 -65.5 -205t-180 -137.5t-254.5 -48.5h-83q-26 0 -37.5 8.5t-11.5 27.5q0 22 13 37.5t36 15.5h27l76 516h-4q-20 0 -31 6.5t-11 25.5q0 58 58 58h11q15 15 44 15q18 0 27 -4.5t13 -14.5q177 -15 275 -88.5zM395 142.5
q82 40.5 130 107t48 147.5q0 104 -77 152t-204 58l-76 -511q97 6 179 46.5zM605.5 948.5q8.5 -8.5 8.5 -21.5q0 -9 -3.5 -15t-12.5 -17q-45 -50 -68.5 -73.5t-49.5 -40.5t-51 -17q-23 0 -49 28t-58 73q-9 13 -17 23t-8 25q1 15 15.5 27t29.5 12q9 0 16.5 -5.5t16.5 -16.5
q30 -45 46.5 -66t24.5 -21q7 0 32 24.5t71 74.5q14 15 35 15q13 0 21.5 -8.5z" />
    <glyph glyph-name="Dcroat" unicode="&#x110;" horiz-adv-x="724" 
d="M594 613q100 -75 100 -215q0 -117 -69 -206t-186.5 -137.5t-258.5 -48.5h-69q-25 0 -36.5 8t-11.5 27q0 53 60 53h9l33 221l-53 1q-28 0 -43.5 10.5t-15.5 30.5q0 26 21 42.5t57 15.5l48 -1l30 200q-40 8 -40 38q0 24 16 35t48 13q14 15 45 15q33 0 43 -16
q173 -11 273 -86zM417.5 144q77.5 40 122 107.5t44.5 153.5q0 101 -74 146t-191 56l-29 -196l83 -2q26 -1 39.5 -12.5t13.5 -30.5q0 -25 -19 -40t-51 -15l-81 2l-32 -217q97 8 174.5 48z" />
    <glyph glyph-name="uni1E0C" unicode="&#x1e0c;" horiz-adv-x="697" 
d="M575 608.5q98 -73.5 98 -211.5q0 -116 -65.5 -205t-180 -137.5t-254.5 -48.5h-83q-26 0 -37.5 8.5t-11.5 27.5q0 22 13 37.5t36 15.5h27l76 516h-4q-20 0 -31 6.5t-11 25.5q0 58 58 58h11q15 15 44 15q18 0 27 -4.5t13 -14.5q177 -15 275 -88.5zM395 142.5
q82 40.5 130 107t48 147.5q0 104 -77 152t-204 58l-76 -511q97 6 179 46.5zM226 -177q-14 14 -14 37q0 30 22 51t52 21q23 0 37.5 -13.5t14.5 -35.5q0 -31 -22 -52.5t-52 -21.5q-24 0 -38 14z" />
    <glyph glyph-name="uni1E0E" unicode="&#x1e0e;" horiz-adv-x="697" 
d="M575 608.5q98 -73.5 98 -211.5q0 -116 -65.5 -205t-180 -137.5t-254.5 -48.5h-83q-26 0 -37.5 8.5t-11.5 27.5q0 22 13 37.5t36 15.5h27l76 516h-4q-20 0 -31 6.5t-11 25.5q0 58 58 58h11q15 15 44 15q18 0 27 -4.5t13 -14.5q177 -15 275 -88.5zM395 142.5
q82 40.5 130 107t48 147.5q0 104 -77 152t-204 58l-76 -511q97 6 179 46.5zM114 -167q-8 8 -8 22q0 18 11 31.5t27 15.5q75 9 186 9q35 0 73 -2q12 -1 29 -1q16 0 25 -9t9 -23q0 -20 -14 -32t-33 -12l-26 1q-57 3 -78 3q-49 0 -142 -8q-27 -3 -39 -3t-20 8z" />
    <glyph glyph-name="E" unicode="E" horiz-adv-x="595" 
d="M620 680.5q10 -6.5 10 -22.5q0 -25 -14.5 -41t-34.5 -14q-96 8 -175 8q-70 0 -127 -5q-19 -129 -31 -193q15 -1 49 -1q110 0 176 -4q28 0 28 -29q0 -24 -12 -42t-31 -18l-59 1q-48 2 -115 3h-52q-21 -111 -54 -219q60 -5 134 -5q55 0 88 2t77 7q4 1 11 1q33 0 33 -34
q0 -47 -47 -56q-40 -8 -190 -8q-61 0 -113.5 2.5t-118.5 10.5q-26 3 -26 31q0 23 10.5 39t27.5 16h16q17 51 28 99t24 115h-10q-33 0 -33 32q0 25 12.5 41.5t32.5 16.5h14q23 124 33 189h-6q-10 0 -15 9.5t-5 21.5q0 31 16 43.5t43 15.5q51 6 175 6q144 0 203 -9
q18 -3 28 -9.5z" />
    <glyph glyph-name="Eacute" unicode="&#xc9;" horiz-adv-x="595" 
d="M620 680.5q10 -6.5 10 -22.5q0 -25 -14.5 -41t-34.5 -14q-96 8 -175 8q-70 0 -127 -5q-19 -129 -31 -193q15 -1 49 -1q110 0 176 -4q28 0 28 -29q0 -24 -12 -42t-31 -18l-59 1q-48 2 -115 3h-52q-21 -111 -54 -219q60 -5 134 -5q55 0 88 2t77 7q4 1 11 1q33 0 33 -34
q0 -47 -47 -56q-40 -8 -190 -8q-61 0 -113.5 2.5t-118.5 10.5q-26 3 -26 31q0 23 10.5 39t27.5 16h16q17 51 28 99t24 115h-10q-33 0 -33 32q0 25 12.5 41.5t32.5 16.5h14q23 124 33 189h-6q-10 0 -15 9.5t-5 21.5q0 31 16 43.5t43 15.5q51 6 175 6q144 0 203 -9
q18 -3 28 -9.5zM345 764q-9 10 -9 22q0 9 6 20.5t18 20.5l96 80q19 15 29 21t21 6q14 0 23 -10t9 -24q0 -25 -28 -46l-102 -80q-14 -11 -23 -15.5t-18 -4.5q-13 0 -22 10z" />
    <glyph glyph-name="Ebreve" unicode="&#x114;" horiz-adv-x="595" 
d="M620 680.5q10 -6.5 10 -22.5q0 -25 -14.5 -41t-34.5 -14q-96 8 -175 8q-70 0 -127 -5q-19 -129 -31 -193q15 -1 49 -1q110 0 176 -4q28 0 28 -29q0 -24 -12 -42t-31 -18l-59 1q-48 2 -115 3h-52q-21 -111 -54 -219q60 -5 134 -5q55 0 88 2t77 7q4 1 11 1q33 0 33 -34
q0 -47 -47 -56q-40 -8 -190 -8q-61 0 -113.5 2.5t-118.5 10.5q-26 3 -26 31q0 23 10.5 39t27.5 16h16q17 51 28 99t24 115h-10q-33 0 -33 32q0 25 12.5 41.5t32.5 16.5h14q23 124 33 189h-6q-10 0 -15 9.5t-5 21.5q0 31 16 43.5t43 15.5q51 6 175 6q144 0 203 -9
q18 -3 28 -9.5zM338 775.5q-34 15.5 -53.5 42.5t-19.5 60q0 14 5 26q5 15 15.5 23t24.5 8q13 0 23 -6t9 -17q-1 -5 -1 -14q1 -34 22.5 -53t56.5 -19q34 0 64 23.5t37 59.5q3 14 16 21.5t27 7.5t23 -9.5t8 -23.5q-4 -37 -30.5 -70.5t-66.5 -54t-83 -20.5t-77 15.5z" />
    <glyph glyph-name="Ecaron" unicode="&#x11a;" horiz-adv-x="595" 
d="M620 680.5q10 -6.5 10 -22.5q0 -25 -14.5 -41t-34.5 -14q-96 8 -175 8q-70 0 -127 -5q-19 -129 -31 -193q15 -1 49 -1q110 0 176 -4q28 0 28 -29q0 -24 -12 -42t-31 -18l-59 1q-48 2 -115 3h-52q-21 -111 -54 -219q60 -5 134 -5q55 0 88 2t77 7q4 1 11 1q33 0 33 -34
q0 -47 -47 -56q-40 -8 -190 -8q-61 0 -113.5 2.5t-118.5 10.5q-26 3 -26 31q0 23 10.5 39t27.5 16h16q17 51 28 99t24 115h-10q-33 0 -33 32q0 25 12.5 41.5t32.5 16.5h14q23 124 33 189h-6q-10 0 -15 9.5t-5 21.5q0 31 16 43.5t43 15.5q51 6 175 6q144 0 203 -9
q18 -3 28 -9.5zM580.5 948.5q8.5 -8.5 8.5 -21.5q0 -9 -3.5 -15t-12.5 -17q-45 -50 -68.5 -73.5t-49.5 -40.5t-51 -17q-23 0 -49 28t-58 73q-9 13 -17 23t-8 25q1 15 15.5 27t29.5 12q9 0 16.5 -5.5t16.5 -16.5q30 -45 46.5 -66t24.5 -21q7 0 32 24.5t71 74.5q14 15 35 15
q13 0 21.5 -8.5z" />
    <glyph glyph-name="Ecircumflex" unicode="&#xca;" horiz-adv-x="595" 
d="M620 680.5q10 -6.5 10 -22.5q0 -25 -14.5 -41t-34.5 -14q-96 8 -175 8q-70 0 -127 -5q-19 -129 -31 -193q15 -1 49 -1q110 0 176 -4q28 0 28 -29q0 -24 -12 -42t-31 -18l-59 1q-48 2 -115 3h-52q-21 -111 -54 -219q60 -5 134 -5q55 0 88 2t77 7q4 1 11 1q33 0 33 -34
q0 -47 -47 -56q-40 -8 -190 -8q-61 0 -113.5 2.5t-118.5 10.5q-26 3 -26 31q0 23 10.5 39t27.5 16h16q17 51 28 99t24 115h-10q-33 0 -33 32q0 25 12.5 41.5t32.5 16.5h14q23 124 33 189h-6q-10 0 -15 9.5t-5 21.5q0 31 16 43.5t43 15.5q51 6 175 6q144 0 203 -9
q18 -3 28 -9.5zM498 774q-56 98 -68 98q-7 0 -29.5 -20t-52.5 -48l-20 -18q-22 -22 -41 -22q-14 0 -23 9.5t-9 22.5q0 18 17 32q2 2 32 29q47 44 80.5 69.5t55.5 25.5q27 0 46 -20.5t47 -65.5q11 -19 30 -46q7 -9 7 -19q0 -16 -13 -29t-29 -13q-20 0 -30 15z" />
    <glyph glyph-name="uni1EBE" unicode="&#x1ebe;" horiz-adv-x="595" 
d="M620 680.5q10 -6.5 10 -22.5q0 -25 -14.5 -41t-34.5 -14q-96 8 -175 8q-70 0 -127 -5q-19 -129 -31 -193q15 -1 49 -1q110 0 176 -4q28 0 28 -29q0 -24 -12 -42t-31 -18l-59 1q-48 2 -115 3h-52q-21 -111 -54 -219q60 -5 134 -5q55 0 88 2t77 7q4 1 11 1q33 0 33 -34
q0 -47 -47 -56q-40 -8 -190 -8q-61 0 -113.5 2.5t-118.5 10.5q-26 3 -26 31q0 23 10.5 39t27.5 16h16q17 51 28 99t24 115h-10q-33 0 -33 32q0 25 12.5 41.5t32.5 16.5h14q23 124 33 189h-6q-10 0 -15 9.5t-5 21.5q0 31 16 43.5t43 15.5q51 6 175 6q144 0 203 -9
q18 -3 28 -9.5zM551 925.5q-8 8.5 -8 20.5q0 19 22 41l53 47q15 14 25.5 20t21.5 6q14 0 22.5 -8.5t8.5 -22.5q0 -23 -26 -45l-59 -49q-22 -18 -39 -18q-13 0 -21 8.5zM499 775q-30 52 -45.5 75t-22.5 23t-29.5 -20t-52.5 -48l-20 -18q-23 -22 -41 -22q-14 0 -23 9.5
t-9 22.5q0 18 17 32l33 30q47 44 79.5 69t54.5 25q27 0 46.5 -20.5t45.5 -63.5q5 -7 14.5 -22t17.5 -26q7 -9 7 -19q0 -16 -13 -29t-30 -13q-21 0 -29 15z" />
    <glyph glyph-name="uni1EC6" unicode="&#x1ec6;" horiz-adv-x="595" 
d="M620 680.5q10 -6.5 10 -22.5q0 -25 -14.5 -41t-34.5 -14q-96 8 -175 8q-70 0 -127 -5q-19 -129 -31 -193q15 -1 49 -1q110 0 176 -4q28 0 28 -29q0 -24 -12 -42t-31 -18l-59 1q-48 2 -115 3h-52q-21 -111 -54 -219q60 -5 134 -5q55 0 88 2t77 7q4 1 11 1q33 0 33 -34
q0 -47 -47 -56q-40 -8 -190 -8q-61 0 -113.5 2.5t-118.5 10.5q-26 3 -26 31q0 23 10.5 39t27.5 16h16q17 51 28 99t24 115h-10q-33 0 -33 32q0 25 12.5 41.5t32.5 16.5h14q23 124 33 189h-6q-10 0 -15 9.5t-5 21.5q0 31 16 43.5t43 15.5q51 6 175 6q144 0 203 -9
q18 -3 28 -9.5zM201 -177q-14 14 -14 37q0 30 22 51t52 21q23 0 37.5 -13.5t14.5 -35.5q0 -31 -22 -52.5t-52 -21.5q-24 0 -38 14zM498 774q-56 98 -68 98q-7 0 -29.5 -20t-52.5 -48l-20 -18q-22 -22 -41 -22q-14 0 -23 9.5t-9 22.5q0 18 17 32q2 2 32 29q47 44 80.5 69.5
t55.5 25.5q27 0 46 -20.5t47 -65.5q11 -19 30 -46q7 -9 7 -19q0 -16 -13 -29t-29 -13q-20 0 -30 15z" />
    <glyph glyph-name="uni1EC0" unicode="&#x1ec0;" horiz-adv-x="595" 
d="M620 680.5q10 -6.5 10 -22.5q0 -25 -14.5 -41t-34.5 -14q-96 8 -175 8q-70 0 -127 -5q-19 -129 -31 -193q15 -1 49 -1q110 0 176 -4q28 0 28 -29q0 -24 -12 -42t-31 -18l-59 1q-48 2 -115 3h-52q-21 -111 -54 -219q60 -5 134 -5q55 0 88 2t77 7q4 1 11 1q33 0 33 -34
q0 -47 -47 -56q-40 -8 -190 -8q-61 0 -113.5 2.5t-118.5 10.5q-26 3 -26 31q0 23 10.5 39t27.5 16h16q17 51 28 99t24 115h-10q-33 0 -33 32q0 25 12.5 41.5t32.5 16.5h14q23 124 33 189h-6q-10 0 -15 9.5t-5 21.5q0 31 16 43.5t43 15.5q51 6 175 6q144 0 203 -9
q18 -3 28 -9.5zM568 935l-42 49q-13 15 -13 32q0 18 13.5 31t31.5 13q11 0 18.5 -6t18.5 -20l36 -47q10 -15 10 -28q0 -17 -12.5 -29.5t-28.5 -12.5q-17 0 -32 18zM498 775q-56 98 -68 98q-7 0 -29.5 -20t-52.5 -48l-20 -18q-22 -22 -41 -22q-14 0 -23 9.5t-9 22.5
q0 18 17 32q2 2 32 29q47 44 80.5 69.5t55.5 25.5q27 0 46 -20.5t47 -65.5q11 -19 30 -46q7 -9 7 -19q0 -16 -13 -29t-29 -13q-20 0 -30 15z" />
    <glyph glyph-name="uni1EC2" unicode="&#x1ec2;" horiz-adv-x="595" 
d="M620 680.5q10 -6.5 10 -22.5q0 -25 -14.5 -41t-34.5 -14q-96 8 -175 8q-70 0 -127 -5q-19 -129 -31 -193q15 -1 49 -1q110 0 176 -4q28 0 28 -29q0 -24 -12 -42t-31 -18l-59 1q-48 2 -115 3h-52q-21 -111 -54 -219q60 -5 134 -5q55 0 88 2t77 7q4 1 11 1q33 0 33 -34
q0 -47 -47 -56q-40 -8 -190 -8q-61 0 -113.5 2.5t-118.5 10.5q-26 3 -26 31q0 23 10.5 39t27.5 16h16q17 51 28 99t24 115h-10q-33 0 -33 32q0 25 12.5 41.5t32.5 16.5h14q23 124 33 189h-6q-10 0 -15 9.5t-5 21.5q0 31 16 43.5t43 15.5q51 6 175 6q144 0 203 -9
q18 -3 28 -9.5zM578.5 922.5q-7.5 6.5 -7.5 15.5t2 18t3 14q1 7 8.5 14t21.5 17q16 12 23.5 19.5t7.5 16.5q0 19 -27 19q-16 0 -27.5 -6t-16.5 -17q-2 -8 -9 -12.5t-15 -4.5q-19 0 -19 20q0 30 29 49.5t66 19.5q32 0 54.5 -16t22.5 -42q0 -22 -10.5 -35t-28.5 -25
q-20 -11 -21 -20q-2 -9 -4 -25q-2 -12 -12.5 -19t-23.5 -7q-9 0 -16.5 6.5zM498 775q-56 98 -68 98q-7 0 -29.5 -20t-52.5 -48l-20 -18q-22 -22 -41 -22q-14 0 -23 9.5t-9 22.5q0 18 17 32q2 2 32 29q47 44 80.5 69.5t55.5 25.5q27 0 46 -20.5t47 -65.5q11 -19 30 -46
q7 -9 7 -19q0 -16 -13 -29t-29 -13q-20 0 -30 15z" />
    <glyph glyph-name="uni1EC4" unicode="&#x1ec4;" horiz-adv-x="595" 
d="M620 680.5q10 -6.5 10 -22.5q0 -25 -14.5 -41t-34.5 -14q-96 8 -175 8q-70 0 -127 -5q-19 -129 -31 -193q15 -1 49 -1q110 0 176 -4q28 0 28 -29q0 -24 -12 -42t-31 -18l-59 1q-48 2 -115 3h-52q-21 -111 -54 -219q60 -5 134 -5q55 0 88 2t77 7q4 1 11 1q33 0 33 -34
q0 -47 -47 -56q-40 -8 -190 -8q-61 0 -113.5 2.5t-118.5 10.5q-26 3 -26 31q0 23 10.5 39t27.5 16h16q17 51 28 99t24 115h-10q-33 0 -33 32q0 25 12.5 41.5t32.5 16.5h14q23 124 33 189h-6q-10 0 -15 9.5t-5 21.5q0 31 16 43.5t43 15.5q51 6 175 6q144 0 203 -9
q18 -3 28 -9.5zM294 994q-8 7 -8 19q0 16 16 30q31 27 52 38t49 11q37 0 81 -22q36 -19 51 -19q13 0 31 13q6 4 16 11t19 7q13 0 21 -9t8 -21q0 -17 -16 -28q-25 -19 -46.5 -28t-42.5 -9q-17 0 -32.5 5t-28 11t-17.5 9q-34 17 -49 17q-10 0 -20.5 -6.5t-25.5 -19.5
q-19 -16 -36 -16q-14 0 -22 7zM498 775q-56 98 -68 98q-7 0 -29.5 -20t-52.5 -48l-20 -18q-22 -22 -41 -22q-14 0 -23 9.5t-9 22.5q0 18 17 32q2 2 32 29q47 44 80.5 69.5t55.5 25.5q27 0 46 -20.5t47 -65.5q11 -19 30 -46q7 -9 7 -19q0 -16 -13 -29t-29 -13q-20 0 -30 15z
" />
    <glyph glyph-name="Edieresis" unicode="&#xcb;" horiz-adv-x="595" 
d="M620 680.5q10 -6.5 10 -22.5q0 -25 -14.5 -41t-34.5 -14q-96 8 -175 8q-70 0 -127 -5q-19 -129 -31 -193q15 -1 49 -1q110 0 176 -4q28 0 28 -29q0 -24 -12 -42t-31 -18l-59 1q-48 2 -115 3h-52q-21 -111 -54 -219q60 -5 134 -5q55 0 88 2t77 7q4 1 11 1q33 0 33 -34
q0 -47 -47 -56q-40 -8 -190 -8q-61 0 -113.5 2.5t-118.5 10.5q-26 3 -26 31q0 23 10.5 39t27.5 16h16q17 51 28 99t24 115h-10q-33 0 -33 32q0 25 12.5 41.5t32.5 16.5h14q23 124 33 189h-6q-10 0 -15 9.5t-5 21.5q0 31 16 43.5t43 15.5q51 6 175 6q144 0 203 -9
q18 -3 28 -9.5zM247 785.5q-15 14.5 -15 36.5q0 29 22.5 50.5t51.5 21.5q22 0 37.5 -15t15.5 -36q0 -28 -23 -50t-51 -22q-23 0 -38 14.5zM499 785.5q-15 14.5 -15 36.5q0 29 22.5 50.5t51.5 21.5q22 0 37 -14.5t15 -36.5q0 -28 -22.5 -50t-50.5 -22q-23 0 -38 14.5z" />
    <glyph glyph-name="Edotaccent" unicode="&#x116;" horiz-adv-x="595" 
d="M620 680.5q10 -6.5 10 -22.5q0 -25 -14.5 -41t-34.5 -14q-96 8 -175 8q-70 0 -127 -5q-19 -129 -31 -193q15 -1 49 -1q110 0 176 -4q28 0 28 -29q0 -24 -12 -42t-31 -18l-59 1q-48 2 -115 3h-52q-21 -111 -54 -219q60 -5 134 -5q55 0 88 2t77 7q4 1 11 1q33 0 33 -34
q0 -47 -47 -56q-40 -8 -190 -8q-61 0 -113.5 2.5t-118.5 10.5q-26 3 -26 31q0 23 10.5 39t27.5 16h16q17 51 28 99t24 115h-10q-33 0 -33 32q0 25 12.5 41.5t32.5 16.5h14q23 124 33 189h-6q-10 0 -15 9.5t-5 21.5q0 31 16 43.5t43 15.5q51 6 175 6q144 0 203 -9
q18 -3 28 -9.5zM372 785q-15 15 -15 38q0 28 22.5 49t51.5 21q22 0 37 -14t15 -35q0 -29 -22 -51.5t-51 -22.5q-23 0 -38 15z" />
    <glyph glyph-name="uni1EB8" unicode="&#x1eb8;" horiz-adv-x="595" 
d="M620 680.5q10 -6.5 10 -22.5q0 -25 -14.5 -41t-34.5 -14q-96 8 -175 8q-70 0 -127 -5q-19 -129 -31 -193q15 -1 49 -1q110 0 176 -4q28 0 28 -29q0 -24 -12 -42t-31 -18l-59 1q-48 2 -115 3h-52q-21 -111 -54 -219q60 -5 134 -5q55 0 88 2t77 7q4 1 11 1q33 0 33 -34
q0 -47 -47 -56q-40 -8 -190 -8q-61 0 -113.5 2.5t-118.5 10.5q-26 3 -26 31q0 23 10.5 39t27.5 16h16q17 51 28 99t24 115h-10q-33 0 -33 32q0 25 12.5 41.5t32.5 16.5h14q23 124 33 189h-6q-10 0 -15 9.5t-5 21.5q0 31 16 43.5t43 15.5q51 6 175 6q144 0 203 -9
q18 -3 28 -9.5zM201 -177q-14 14 -14 37q0 30 22 51t52 21q23 0 37.5 -13.5t14.5 -35.5q0 -31 -22 -52.5t-52 -21.5q-24 0 -38 14z" />
    <glyph glyph-name="Egrave" unicode="&#xc8;" horiz-adv-x="595" 
d="M620 680.5q10 -6.5 10 -22.5q0 -25 -14.5 -41t-34.5 -14q-96 8 -175 8q-70 0 -127 -5q-19 -129 -31 -193q15 -1 49 -1q110 0 176 -4q28 0 28 -29q0 -24 -12 -42t-31 -18l-59 1q-48 2 -115 3h-52q-21 -111 -54 -219q60 -5 134 -5q55 0 88 2t77 7q4 1 11 1q33 0 33 -34
q0 -47 -47 -56q-40 -8 -190 -8q-61 0 -113.5 2.5t-118.5 10.5q-26 3 -26 31q0 23 10.5 39t27.5 16h16q17 51 28 99t24 115h-10q-33 0 -33 32q0 25 12.5 41.5t32.5 16.5h14q23 124 33 189h-6q-10 0 -15 9.5t-5 21.5q0 31 16 43.5t43 15.5q51 6 175 6q144 0 203 -9
q18 -3 28 -9.5zM435.5 759q-7.5 4 -15.5 14l-64 86q-13 19 -13 32q0 19 13.5 32t30.5 13q11 0 20 -6.5t18 -20.5l58 -85q11 -14 11 -28q0 -16 -12.5 -28.5t-29.5 -12.5q-9 0 -16.5 4z" />
    <glyph glyph-name="uni1EBA" unicode="&#x1eba;" horiz-adv-x="595" 
d="M620 680.5q10 -6.5 10 -22.5q0 -25 -14.5 -41t-34.5 -14q-96 8 -175 8q-70 0 -127 -5q-19 -129 -31 -193q15 -1 49 -1q110 0 176 -4q28 0 28 -29q0 -24 -12 -42t-31 -18l-59 1q-48 2 -115 3h-52q-21 -111 -54 -219q60 -5 134 -5q55 0 88 2t77 7q4 1 11 1q33 0 33 -34
q0 -47 -47 -56q-40 -8 -190 -8q-61 0 -113.5 2.5t-118.5 10.5q-26 3 -26 31q0 23 10.5 39t27.5 16h16q17 51 28 99t24 115h-10q-33 0 -33 32q0 25 12.5 41.5t32.5 16.5h14q23 124 33 189h-6q-10 0 -15 9.5t-5 21.5q0 31 16 43.5t43 15.5q51 6 175 6q144 0 203 -9
q18 -3 28 -9.5zM382 766.5q-10 10.5 -7 25.5q4 23 8 42q2 12 12.5 21.5t31.5 23.5t32.5 26t11.5 25q0 14 -11 23.5t-32 9.5q-22 0 -37.5 -10.5t-29.5 -28.5q-15 -20 -31 -20q-11 0 -20 8t-9 17q0 14 13 30q26 33 55.5 50.5t71.5 17.5q49 0 80 -23t31 -60q0 -32 -16 -51
t-44 -37q-11 -7 -19.5 -13.5t-9.5 -13.5l-6 -35q-3 -19 -16.5 -28.5t-31.5 -9.5q-17 0 -27 10.5z" />
    <glyph glyph-name="Emacron" unicode="&#x112;" horiz-adv-x="595" 
d="M620 680.5q10 -6.5 10 -22.5q0 -25 -14.5 -41t-34.5 -14q-96 8 -175 8q-70 0 -127 -5q-19 -129 -31 -193q15 -1 49 -1q110 0 176 -4q28 0 28 -29q0 -24 -12 -42t-31 -18l-59 1q-48 2 -115 3h-52q-21 -111 -54 -219q60 -5 134 -5q55 0 88 2t77 7q4 1 11 1q33 0 33 -34
q0 -47 -47 -56q-40 -8 -190 -8q-61 0 -113.5 2.5t-118.5 10.5q-26 3 -26 31q0 23 10.5 39t27.5 16h16q17 51 28 99t24 115h-10q-33 0 -33 32q0 25 12.5 41.5t32.5 16.5h14q23 124 33 189h-6q-10 0 -15 9.5t-5 21.5q0 31 16 43.5t43 15.5q51 6 175 6q144 0 203 -9
q18 -3 28 -9.5zM223.5 790q-6.5 8 -6.5 21q0 20 11.5 33t31.5 16q42 7 75.5 10.5t92.5 3.5h147q16 0 25.5 -9t9.5 -24q0 -20 -12.5 -32t-34.5 -12q-20 0 -35 1l-102 1q-69 0 -153 -12l-31 -4q-12 -1 -18.5 7z" />
    <glyph glyph-name="Eogonek" unicode="&#x118;" horiz-adv-x="595" 
d="M620 680.5q10 -6.5 10 -22.5q0 -25 -14.5 -41t-34.5 -14q-96 8 -175 8q-70 0 -127 -5q-19 -129 -31 -193q15 -1 49 -1q110 0 176 -4q28 0 28 -29q0 -24 -12 -42t-31 -18l-59 1q-48 2 -115 3h-52q-21 -111 -54 -219q60 -5 134 -5q55 0 88 2t77 7q4 1 11 1q33 0 33 -34
q0 -30 -20 -45l-6 -5q-33 -24 -49.5 -42t-16.5 -38q0 -22 34 -22q6 0 20 3.5t18 3.5q8 0 12.5 -5t4.5 -15q0 -25 -17.5 -38.5t-47.5 -13.5q-42 0 -69.5 23t-27.5 59q0 38 29 72q-31 -1 -101 -1q-61 0 -113.5 2.5t-118.5 10.5q-26 3 -26 31q0 23 10.5 39t27.5 16h16
q17 51 28 99t24 115h-10q-33 0 -33 32q0 25 12.5 41.5t32.5 16.5h14q23 124 33 189h-6q-10 0 -15 9.5t-5 21.5q0 31 16 43.5t43 15.5q51 6 175 6q144 0 203 -9q18 -3 28 -9.5z" />
    <glyph glyph-name="uni1EBC" unicode="&#x1ebc;" horiz-adv-x="595" 
d="M620 680.5q10 -6.5 10 -22.5q0 -25 -14.5 -41t-34.5 -14q-96 8 -175 8q-70 0 -127 -5q-19 -129 -31 -193q15 -1 49 -1q110 0 176 -4q28 0 28 -29q0 -24 -12 -42t-31 -18l-59 1q-48 2 -115 3h-52q-21 -111 -54 -219q60 -5 134 -5q55 0 88 2t77 7q4 1 11 1q33 0 33 -34
q0 -47 -47 -56q-40 -8 -190 -8q-61 0 -113.5 2.5t-118.5 10.5q-26 3 -26 31q0 23 10.5 39t27.5 16h16q17 51 28 99t24 115h-10q-33 0 -33 32q0 25 12.5 41.5t32.5 16.5h14q23 124 33 189h-6q-10 0 -15 9.5t-5 21.5q0 31 16 43.5t43 15.5q51 6 175 6q144 0 203 -9
q18 -3 28 -9.5zM254.5 776q-8.5 9 -8.5 23q0 16 15 31q31 31 53.5 43.5t50.5 12.5q49 0 87 -23q7 -4 18 -10t17 -8.5t12 -2.5q11 0 27 14q10 10 17.5 14t16.5 4q12 0 21.5 -10t9.5 -23q0 -19 -15 -32q-26 -22 -47.5 -32t-43.5 -10q-16 0 -30 5.5t-27.5 12.5t-20.5 11
q-5 2 -21.5 10t-27.5 8q-9 0 -18 -6.5t-25 -21.5q-22 -19 -39 -19q-13 0 -21.5 9z" />
    <glyph glyph-name="F" unicode="F" horiz-adv-x="586" 
d="M625 658q0 -24 -14 -40.5t-37 -14.5q-108 13 -188 13q-32 0 -102 -2q-13 -125 -27 -213q44 2 72 2q42 0 89.5 -2.5t67.5 -6.5q32 -6 32 -34q0 -22 -13 -38.5t-39 -14.5q-66 6 -139 6q-36 0 -86 -2q-24 -141 -56 -265q-5 -18 -20 -29t-37 -11q-20 0 -31.5 9t-11.5 23
q0 6 1 9l9 37q29 125 46 219l-38 -5q-14 -1 -22.5 7.5t-8.5 24.5q0 25 13.5 39.5t38.5 18.5q10 2 32 4q17 101 27 217l-22 -1q-19 0 -28 7.5t-9 23.5q0 26 13 40.5t35 16.5l19 1l1 12q2 18 18.5 29.5t40.5 11.5q45 0 42 -42q0 -4 -1 -6q72 2 99 2q64 0 121.5 -3.5t79.5 -8.5
q33 -8 33 -34z" />
    <glyph glyph-name="G" unicode="G" horiz-adv-x="751" 
d="M306.5 557.5q-67.5 -42.5 -106.5 -112.5t-39 -148q0 -61 25 -107.5t70.5 -72.5t105.5 -26q158 0 202 187l-128 2q-41 1 -41 36q0 25 15.5 40t39.5 15l238 -5q23 -1 34 -9.5t11 -25.5q0 -24 -13.5 -39.5t-36.5 -14.5h-23q-30 -134 -105 -205.5t-196 -71.5q-91 0 -159 39
t-104 107t-36 151q0 104 53 195t143 145t194 54q72 0 119.5 -26t71.5 -63l6 25q5 20 15.5 28t32.5 8q21 0 34 -9t12 -26q-3 -30 -11 -58t-18 -43q-17 -25 -52 -25q-14 0 -25 5.5t-25 20.5q-32 35 -64 53.5t-90 18.5q-82 0 -149.5 -42.5z" />
    <glyph glyph-name="Gbreve" unicode="&#x11e;" horiz-adv-x="751" 
d="M306.5 557.5q-67.5 -42.5 -106.5 -112.5t-39 -148q0 -61 25 -107.5t70.5 -72.5t105.5 -26q158 0 202 187l-128 2q-41 1 -41 36q0 25 15.5 40t39.5 15l238 -5q23 -1 34 -9.5t11 -25.5q0 -24 -13.5 -39.5t-36.5 -14.5h-23q-30 -134 -105 -205.5t-196 -71.5q-91 0 -159 39
t-104 107t-36 151q0 104 53 195t143 145t194 54q72 0 119.5 -26t71.5 -63l6 25q5 20 15.5 28t32.5 8q21 0 34 -9t12 -26q-3 -30 -11 -58t-18 -43q-17 -25 -52 -25q-14 0 -25 5.5t-25 20.5q-32 35 -64 53.5t-90 18.5q-82 0 -149.5 -42.5zM404 775.5q-34 15.5 -53.5 42.5
t-19.5 60q0 14 5 26q5 15 15.5 23t24.5 8q13 0 23 -6t9 -17q-1 -5 -1 -14q1 -34 22.5 -53t56.5 -19q34 0 64 23.5t37 59.5q3 14 16 21.5t27 7.5t23 -9.5t8 -23.5q-4 -37 -30.5 -70.5t-66.5 -54t-83 -20.5t-77 15.5z" />
    <glyph glyph-name="Gcaron" unicode="&#x1e6;" horiz-adv-x="751" 
d="M306.5 557.5q-67.5 -42.5 -106.5 -112.5t-39 -148q0 -61 25 -107.5t70.5 -72.5t105.5 -26q158 0 202 187l-128 2q-41 1 -41 36q0 25 15.5 40t39.5 15l238 -5q23 -1 34 -9.5t11 -25.5q0 -24 -13.5 -39.5t-36.5 -14.5h-23q-30 -134 -105 -205.5t-196 -71.5q-91 0 -159 39
t-104 107t-36 151q0 104 53 195t143 145t194 54q72 0 119.5 -26t71.5 -63l6 25q5 20 15.5 28t32.5 8q21 0 34 -9t12 -26q-3 -30 -11 -58t-18 -43q-17 -25 -52 -25q-14 0 -25 5.5t-25 20.5q-32 35 -64 53.5t-90 18.5q-82 0 -149.5 -42.5zM646.5 948.5q8.5 -8.5 8.5 -21.5
q0 -9 -3.5 -15t-12.5 -17q-45 -50 -68.5 -73.5t-49.5 -40.5t-51 -17q-23 0 -49 28t-58 73q-9 13 -17 23t-8 25q1 15 15.5 27t29.5 12q9 0 16.5 -5.5t16.5 -16.5q30 -45 46.5 -66t24.5 -21q7 0 32 24.5t71 74.5q14 15 35 15q13 0 21.5 -8.5z" />
    <glyph glyph-name="Gcircumflex" unicode="&#x11c;" horiz-adv-x="751" 
d="M306.5 557.5q-67.5 -42.5 -106.5 -112.5t-39 -148q0 -61 25 -107.5t70.5 -72.5t105.5 -26q158 0 202 187l-128 2q-41 1 -41 36q0 25 15.5 40t39.5 15l238 -5q23 -1 34 -9.5t11 -25.5q0 -24 -13.5 -39.5t-36.5 -14.5h-23q-30 -134 -105 -205.5t-196 -71.5q-91 0 -159 39
t-104 107t-36 151q0 104 53 195t143 145t194 54q72 0 119.5 -26t71.5 -63l6 25q5 20 15.5 28t32.5 8q21 0 34 -9t12 -26q-3 -30 -11 -58t-18 -43q-17 -25 -52 -25q-14 0 -25 5.5t-25 20.5q-32 35 -64 53.5t-90 18.5q-82 0 -149.5 -42.5zM564 774q-56 98 -68 98
q-7 0 -29.5 -20t-52.5 -48l-20 -18q-22 -22 -41 -22q-14 0 -23 9.5t-9 22.5q0 18 17 32q2 2 32 29q47 44 80.5 69.5t55.5 25.5q27 0 46 -20.5t47 -65.5q11 -19 30 -46q7 -9 7 -19q0 -16 -13 -29t-29 -13q-20 0 -30 15z" />
    <glyph glyph-name="uni0122" unicode="&#x122;" horiz-adv-x="751" 
d="M306.5 557.5q-67.5 -42.5 -106.5 -112.5t-39 -148q0 -61 25 -107.5t70.5 -72.5t105.5 -26q158 0 202 187l-128 2q-41 1 -41 36q0 25 15.5 40t39.5 15l238 -5q23 -1 34 -9.5t11 -25.5q0 -24 -13.5 -39.5t-36.5 -14.5h-23q-30 -134 -105 -205.5t-196 -71.5q-91 0 -159 39
t-104 107t-36 151q0 104 53 195t143 145t194 54q72 0 119.5 -26t71.5 -63l6 25q5 20 15.5 28t32.5 8q21 0 34 -9t12 -26q-3 -30 -11 -58t-18 -43q-17 -25 -52 -25q-14 0 -25 5.5t-25 20.5q-32 35 -64 53.5t-90 18.5q-82 0 -149.5 -42.5zM375.5 -84q15.5 -16 15.5 -40
q0 -38 -34.5 -81t-81.5 -76q-12 -9 -24 -9q-10 0 -18.5 7.5t-8.5 18.5q0 12 8 20q6 6 25.5 24t32.5 33q-15 2 -24.5 15t-9.5 30q0 31 23 52.5t55 21.5q26 0 41.5 -16z" />
    <glyph glyph-name="Gdotaccent" unicode="&#x120;" horiz-adv-x="751" 
d="M306.5 557.5q-67.5 -42.5 -106.5 -112.5t-39 -148q0 -61 25 -107.5t70.5 -72.5t105.5 -26q158 0 202 187l-128 2q-41 1 -41 36q0 25 15.5 40t39.5 15l238 -5q23 -1 34 -9.5t11 -25.5q0 -24 -13.5 -39.5t-36.5 -14.5h-23q-30 -134 -105 -205.5t-196 -71.5q-91 0 -159 39
t-104 107t-36 151q0 104 53 195t143 145t194 54q72 0 119.5 -26t71.5 -63l6 25q5 20 15.5 28t32.5 8q21 0 34 -9t12 -26q-3 -30 -11 -58t-18 -43q-17 -25 -52 -25q-14 0 -25 5.5t-25 20.5q-32 35 -64 53.5t-90 18.5q-82 0 -149.5 -42.5zM439 785q-15 15 -15 38q0 28 22.5 49
t51.5 21q22 0 37 -14t15 -35q0 -29 -22 -51.5t-51 -22.5q-23 0 -38 15z" />
    <glyph glyph-name="uni1E20" unicode="&#x1e20;" horiz-adv-x="751" 
d="M306.5 557.5q-67.5 -42.5 -106.5 -112.5t-39 -148q0 -61 25 -107.5t70.5 -72.5t105.5 -26q158 0 202 187l-128 2q-41 1 -41 36q0 25 15.5 40t39.5 15l238 -5q23 -1 34 -9.5t11 -25.5q0 -24 -13.5 -39.5t-36.5 -14.5h-23q-30 -134 -105 -205.5t-196 -71.5q-91 0 -159 39
t-104 107t-36 151q0 104 53 195t143 145t194 54q72 0 119.5 -26t71.5 -63l6 25q5 20 15.5 28t32.5 8q21 0 34 -9t12 -26q-3 -30 -11 -58t-18 -43q-17 -25 -52 -25q-14 0 -25 5.5t-25 20.5q-32 35 -64 53.5t-90 18.5q-82 0 -149.5 -42.5zM289.5 790q-6.5 8 -6.5 21
q0 20 11.5 33t31.5 16q42 7 75.5 10.5t92.5 3.5h147q16 0 25.5 -9t9.5 -24q0 -20 -12.5 -32t-34.5 -12q-20 0 -35 1l-102 1q-69 0 -153 -12l-31 -4q-12 -1 -18.5 7z" />
    <glyph glyph-name="H" unicode="H" horiz-adv-x="744" 
d="M693 353.5q10 -8.5 10 -28.5q0 -26 -15 -40t-40 -14h-15l-33 -224q-4 -22 -19 -35t-39 -13q-21 0 -32.5 9.5t-11.5 27.5l1 8l33 229l-304 4l-63 -247q-9 -36 -56 -36q-22 0 -33.5 8t-11.5 23q0 4 2 12l62 242h-18q-34 0 -34 37q0 25 14 39.5t38 13.5h23l80 310
q5 20 21 31.5t38 11.5q20 0 30.5 -9t10.5 -26q0 -3 -2 -15l-78 -305l295 -3l45 310q3 21 18 34.5t40 13.5q21 0 32.5 -9.5t11.5 -26.5l-1 -8l-46 -316h18q19 0 29 -8.5z" />
    <glyph glyph-name="Hbar" unicode="&#x126;" horiz-adv-x="766" 
d="M678 483l-18 -121h18q19 0 29 -8.5t10 -28.5q0 -26 -15 -40t-40 -14h-15l-33 -224q-4 -22 -19 -35t-39 -13q-21 0 -32.5 9.5t-11.5 27.5l1 8l33 229l-304 4l-63 -247q-9 -36 -56 -36q-22 0 -33.5 8t-11.5 23q0 4 2 12l62 242h-18q-34 0 -34 37q0 25 14 39.5t38 13.5h23
l32 122l-36 1q-22 1 -35 10t-13 25q0 21 20 33.5t45 12.5l40 -1l27 107q5 20 21 31.5t38 11.5q20 0 30.5 -9t10.5 -26q0 -3 -2 -15l-26 -101l272 -4l16 107q3 21 18 34.5t40 13.5q21 0 32.5 -9.5t11.5 -26.5l-1 -8l-16 -113h21q23 0 37 -8.5t14 -24.5q0 -24 -18.5 -36.5
t-47.5 -12.5h-18zM577 485l-281 5l-31 -123l295 -3z" />
    <glyph glyph-name="uni1E2A" unicode="&#x1e2a;" horiz-adv-x="744" 
d="M693 353.5q10 -8.5 10 -28.5q0 -26 -15 -40t-40 -14h-15l-33 -224q-4 -22 -19 -35t-39 -13q-21 0 -32.5 9.5t-11.5 27.5l1 8l33 229l-304 4l-63 -247q-9 -36 -56 -36q-22 0 -33.5 8t-11.5 23q0 4 2 12l62 242h-18q-34 0 -34 37q0 25 14 39.5t38 13.5h23l80 310
q5 20 21 31.5t38 11.5q20 0 30.5 -9t10.5 -26q0 -3 -2 -15l-78 -305l295 -3l45 310q3 21 18 34.5t40 13.5q21 0 32.5 -9.5t11.5 -26.5l-1 -8l-46 -316h18q19 0 29 -8.5zM225 -214.5q-34 15.5 -53.5 42.5t-19.5 60q0 14 5 26q5 15 15.5 23t24.5 8q13 0 23 -6t9 -17
q-1 -5 -1 -14q1 -34 22.5 -53t56.5 -19q34 0 64 23.5t37 59.5q3 14 16 21.5t27 7.5t23 -9.5t8 -23.5q-4 -37 -30.5 -70.5t-66.5 -54t-83 -20.5t-77 15.5z" />
    <glyph glyph-name="Hcircumflex" unicode="&#x124;" horiz-adv-x="744" 
d="M693 353.5q10 -8.5 10 -28.5q0 -26 -15 -40t-40 -14h-15l-33 -224q-4 -22 -19 -35t-39 -13q-21 0 -32.5 9.5t-11.5 27.5l1 8l33 229l-304 4l-63 -247q-9 -36 -56 -36q-22 0 -33.5 8t-11.5 23q0 4 2 12l62 242h-18q-34 0 -34 37q0 25 14 39.5t38 13.5h23l80 310
q5 20 21 31.5t38 11.5q20 0 30.5 -9t10.5 -26q0 -3 -2 -15l-78 -305l295 -3l45 310q3 21 18 34.5t40 13.5q21 0 32.5 -9.5t11.5 -26.5l-1 -8l-46 -316h18q19 0 29 -8.5zM563 774q-56 98 -68 98q-7 0 -29.5 -20t-52.5 -48l-20 -18q-22 -22 -41 -22q-14 0 -23 9.5t-9 22.5
q0 18 17 32q2 2 32 29q47 44 80.5 69.5t55.5 25.5q27 0 46 -20.5t47 -65.5q11 -19 30 -46q7 -9 7 -19q0 -16 -13 -29t-29 -13q-20 0 -30 15z" />
    <glyph glyph-name="uni1E24" unicode="&#x1e24;" horiz-adv-x="744" 
d="M693 353.5q10 -8.5 10 -28.5q0 -26 -15 -40t-40 -14h-15l-33 -224q-4 -22 -19 -35t-39 -13q-21 0 -32.5 9.5t-11.5 27.5l1 8l33 229l-304 4l-63 -247q-9 -36 -56 -36q-22 0 -33.5 8t-11.5 23q0 4 2 12l62 242h-18q-34 0 -34 37q0 25 14 39.5t38 13.5h23l80 310
q5 20 21 31.5t38 11.5q20 0 30.5 -9t10.5 -26q0 -3 -2 -15l-78 -305l295 -3l45 310q3 21 18 34.5t40 13.5q21 0 32.5 -9.5t11.5 -26.5l-1 -8l-46 -316h18q19 0 29 -8.5zM255 -177q-14 14 -14 37q0 30 22 51t52 21q23 0 37.5 -13.5t14.5 -35.5q0 -31 -22 -52.5t-52 -21.5
q-24 0 -38 14z" />
    <glyph glyph-name="I" unicode="I" horiz-adv-x="462" 
d="M503 670q0 -24 -14 -39.5t-38 -15.5l-31 1l-51 3q-57 -311 -111 -524l100 -1q20 0 28.5 -8t8.5 -25q0 -26 -14 -42t-40 -16l-302 4q-33 1 -33 35q0 25 14.5 40.5t36.5 15.5l103 -1q56 230 109 521q-38 -1 -83 -5q-30 -3 -49 -3q-14 0 -22 9t-8 26q0 24 13.5 38t35.5 18
q72 9 170 9q77 0 144 -6q33 -4 33 -34z" />
    <glyph glyph-name="IJ" unicode="&#x132;" horiz-adv-x="1048" 
d="M503 670q0 -24 -14 -39.5t-38 -15.5l-31 1l-51 3q-57 -311 -111 -524l100 -1q20 0 28.5 -8t8.5 -25q0 -26 -14 -42t-40 -16l-302 4q-33 1 -33 35q0 25 14.5 40.5t36.5 15.5l103 -1q56 230 109 521q-38 -1 -83 -5q-30 -3 -49 -3q-14 0 -22 9t-8 26q0 24 13.5 38t35.5 18
q72 9 170 9q77 0 144 -6q33 -4 33 -34zM1095 669q0 -25 -12.5 -40.5t-40.5 -15.5h-43q-21 -107 -44 -238l-20 -112q-22 -128 -85.5 -196t-169.5 -68q-91 0 -142.5 51t-51.5 142q0 30 6 64q5 29 19 41t42 12q22 0 32 -10t10 -28q0 -8 -1 -12q-6 -34 -6 -63q0 -106 89 -106
q57 0 98.5 43t57.5 133q30 165 66 345h-60q-40 0 -40 34q0 25 12.5 38.5t28.5 14.5q53 4 143 4q58 0 77 -1q35 -4 35 -32z" />
    <glyph glyph-name="Iacute" unicode="&#xcd;" horiz-adv-x="462" 
d="M503 670q0 -24 -14 -39.5t-38 -15.5l-31 1l-51 3q-57 -311 -111 -524l100 -1q20 0 28.5 -8t8.5 -25q0 -26 -14 -42t-40 -16l-302 4q-33 1 -33 35q0 25 14.5 40.5t36.5 15.5l103 -1q56 230 109 521q-38 -1 -83 -5q-30 -3 -49 -3q-14 0 -22 9t-8 26q0 24 13.5 38t35.5 18
q72 9 170 9q77 0 144 -6q33 -4 33 -34zM266 764q-9 10 -9 22q0 9 6 20.5t18 20.5l96 80q19 15 29 21t21 6q14 0 23 -10t9 -24q0 -25 -28 -46l-102 -80q-14 -11 -23 -15.5t-18 -4.5q-13 0 -22 10z" />
    <glyph glyph-name="Ibreve" unicode="&#x12c;" horiz-adv-x="462" 
d="M503 670q0 -24 -14 -39.5t-38 -15.5l-31 1l-51 3q-57 -311 -111 -524l100 -1q20 0 28.5 -8t8.5 -25q0 -26 -14 -42t-40 -16l-302 4q-33 1 -33 35q0 25 14.5 40.5t36.5 15.5l103 -1q56 230 109 521q-38 -1 -83 -5q-30 -3 -49 -3q-14 0 -22 9t-8 26q0 24 13.5 38t35.5 18
q72 9 170 9q77 0 144 -6q33 -4 33 -34zM259 775.5q-34 15.5 -53.5 42.5t-19.5 60q0 14 5 26q5 15 15.5 23t24.5 8q13 0 23 -6t9 -17q-1 -5 -1 -14q1 -34 22.5 -53t56.5 -19q34 0 64 23.5t37 59.5q3 14 16 21.5t27 7.5t23 -9.5t8 -23.5q-4 -37 -30.5 -70.5t-66.5 -54
t-83 -20.5t-77 15.5z" />
    <glyph glyph-name="uni01CF" unicode="&#x1cf;" horiz-adv-x="462" 
d="M503 670q0 -24 -14 -39.5t-38 -15.5l-31 1l-51 3q-57 -311 -111 -524l100 -1q20 0 28.5 -8t8.5 -25q0 -26 -14 -42t-40 -16l-302 4q-33 1 -33 35q0 25 14.5 40.5t36.5 15.5l103 -1q56 230 109 521q-38 -1 -83 -5q-30 -3 -49 -3q-14 0 -22 9t-8 26q0 24 13.5 38t35.5 18
q72 9 170 9q77 0 144 -6q33 -4 33 -34zM501.5 948.5q8.5 -8.5 8.5 -21.5q0 -9 -3.5 -15t-12.5 -17q-45 -50 -68.5 -73.5t-49.5 -40.5t-51 -17q-23 0 -49 28t-58 73q-9 13 -17 23t-8 25q1 15 15.5 27t29.5 12q9 0 16.5 -5.5t16.5 -16.5q30 -45 46.5 -66t24.5 -21q7 0 32 24.5
t71 74.5q14 15 35 15q13 0 21.5 -8.5z" />
    <glyph glyph-name="Icircumflex" unicode="&#xce;" horiz-adv-x="462" 
d="M503 670q0 -24 -14 -39.5t-38 -15.5l-31 1l-51 3q-57 -311 -111 -524l100 -1q20 0 28.5 -8t8.5 -25q0 -26 -14 -42t-40 -16l-302 4q-33 1 -33 35q0 25 14.5 40.5t36.5 15.5l103 -1q56 230 109 521q-38 -1 -83 -5q-30 -3 -49 -3q-14 0 -22 9t-8 26q0 24 13.5 38t35.5 18
q72 9 170 9q77 0 144 -6q33 -4 33 -34zM419 774q-56 98 -68 98q-7 0 -29.5 -20t-52.5 -48l-20 -18q-22 -22 -41 -22q-14 0 -23 9.5t-9 22.5q0 18 17 32q2 2 32 29q47 44 80.5 69.5t55.5 25.5q27 0 46 -20.5t47 -65.5q11 -19 30 -46q7 -9 7 -19q0 -16 -13 -29t-29 -13
q-20 0 -30 15z" />
    <glyph glyph-name="Idieresis" unicode="&#xcf;" horiz-adv-x="462" 
d="M503 670q0 -24 -14 -39.5t-38 -15.5l-31 1l-51 3q-57 -311 -111 -524l100 -1q20 0 28.5 -8t8.5 -25q0 -26 -14 -42t-40 -16l-302 4q-33 1 -33 35q0 25 14.5 40.5t36.5 15.5l103 -1q56 230 109 521q-38 -1 -83 -5q-30 -3 -49 -3q-14 0 -22 9t-8 26q0 24 13.5 38t35.5 18
q72 9 170 9q77 0 144 -6q33 -4 33 -34zM168 785.5q-15 14.5 -15 36.5q0 29 22.5 50.5t51.5 21.5q22 0 37.5 -15t15.5 -36q0 -28 -23 -50t-51 -22q-23 0 -38 14.5zM420 785.5q-15 14.5 -15 36.5q0 29 22.5 50.5t51.5 21.5q22 0 37 -14.5t15 -36.5q0 -28 -22.5 -50t-50.5 -22
q-23 0 -38 14.5z" />
    <glyph glyph-name="Idotaccent" unicode="&#x130;" horiz-adv-x="462" 
d="M503 670q0 -24 -14 -39.5t-38 -15.5l-31 1l-51 3q-57 -311 -111 -524l100 -1q20 0 28.5 -8t8.5 -25q0 -26 -14 -42t-40 -16l-302 4q-33 1 -33 35q0 25 14.5 40.5t36.5 15.5l103 -1q56 230 109 521q-38 -1 -83 -5q-30 -3 -49 -3q-14 0 -22 9t-8 26q0 24 13.5 38t35.5 18
q72 9 170 9q77 0 144 -6q33 -4 33 -34zM294 785q-15 15 -15 38q0 28 22.5 49t51.5 21q22 0 37 -14t15 -35q0 -29 -22 -51.5t-51 -22.5q-23 0 -38 15z" />
    <glyph glyph-name="uni1ECA" unicode="&#x1eca;" horiz-adv-x="462" 
d="M503 670q0 -24 -14 -39.5t-38 -15.5l-31 1l-51 3q-57 -311 -111 -524l100 -1q20 0 28.5 -8t8.5 -25q0 -26 -14 -42t-40 -16l-302 4q-33 1 -33 35q0 25 14.5 40.5t36.5 15.5l103 -1q56 230 109 521q-38 -1 -83 -5q-30 -3 -49 -3q-14 0 -22 9t-8 26q0 24 13.5 38t35.5 18
q72 9 170 9q77 0 144 -6q33 -4 33 -34zM122 -177q-14 14 -14 37q0 30 22 51t52 21q23 0 37.5 -13.5t14.5 -35.5q0 -31 -22 -52.5t-52 -21.5q-24 0 -38 14z" />
    <glyph glyph-name="Igrave" unicode="&#xcc;" horiz-adv-x="462" 
d="M503 670q0 -24 -14 -39.5t-38 -15.5l-31 1l-51 3q-57 -311 -111 -524l100 -1q20 0 28.5 -8t8.5 -25q0 -26 -14 -42t-40 -16l-302 4q-33 1 -33 35q0 25 14.5 40.5t36.5 15.5l103 -1q56 230 109 521q-38 -1 -83 -5q-30 -3 -49 -3q-14 0 -22 9t-8 26q0 24 13.5 38t35.5 18
q72 9 170 9q77 0 144 -6q33 -4 33 -34zM356.5 759q-7.5 4 -15.5 14l-64 86q-13 19 -13 32q0 19 13.5 32t30.5 13q11 0 20 -6.5t18 -20.5l58 -85q11 -14 11 -28q0 -16 -12.5 -28.5t-29.5 -12.5q-9 0 -16.5 4z" />
    <glyph glyph-name="uni1EC8" unicode="&#x1ec8;" horiz-adv-x="462" 
d="M503 670q0 -24 -14 -39.5t-38 -15.5l-31 1l-51 3q-57 -311 -111 -524l100 -1q20 0 28.5 -8t8.5 -25q0 -26 -14 -42t-40 -16l-302 4q-33 1 -33 35q0 25 14.5 40.5t36.5 15.5l103 -1q56 230 109 521q-38 -1 -83 -5q-30 -3 -49 -3q-14 0 -22 9t-8 26q0 24 13.5 38t35.5 18
q72 9 170 9q77 0 144 -6q33 -4 33 -34zM303 766.5q-10 10.5 -7 25.5q4 23 8 42q2 12 12.5 21.5t31.5 23.5t32.5 26t11.5 25q0 14 -11 23.5t-32 9.5q-22 0 -37.5 -10.5t-29.5 -28.5q-15 -20 -31 -20q-11 0 -20 8t-9 17q0 14 13 30q26 33 55.5 50.5t71.5 17.5q49 0 80 -23
t31 -60q0 -32 -16 -51t-44 -37q-11 -7 -19.5 -13.5t-9.5 -13.5l-6 -35q-3 -19 -16.5 -28.5t-31.5 -9.5q-17 0 -27 10.5z" />
    <glyph glyph-name="Imacron" unicode="&#x12a;" horiz-adv-x="462" 
d="M503 670q0 -24 -14 -39.5t-38 -15.5l-31 1l-51 3q-57 -311 -111 -524l100 -1q20 0 28.5 -8t8.5 -25q0 -26 -14 -42t-40 -16l-302 4q-33 1 -33 35q0 25 14.5 40.5t36.5 15.5l103 -1q56 230 109 521q-38 -1 -83 -5q-30 -3 -49 -3q-14 0 -22 9t-8 26q0 24 13.5 38t35.5 18
q72 9 170 9q77 0 144 -6q33 -4 33 -34zM144.5 790q-6.5 8 -6.5 21q0 20 11.5 33t31.5 16q42 7 75.5 10.5t92.5 3.5h147q16 0 25.5 -9t9.5 -24q0 -20 -12.5 -32t-34.5 -12q-20 0 -35 1l-102 1q-69 0 -153 -12l-31 -4q-12 -1 -18.5 7z" />
    <glyph glyph-name="Iogonek" unicode="&#x12e;" horiz-adv-x="462" 
d="M503 670q0 -24 -14 -39.5t-38 -15.5l-31 1l-51 3q-57 -311 -111 -524l100 -1q20 0 28.5 -8t8.5 -25q0 -36 -24 -51h-1q-32 -23 -48.5 -41.5t-16.5 -38.5q0 -22 33 -22q7 0 20.5 4t17.5 4q8 0 13 -5.5t5 -15.5q0 -25 -17.5 -38t-48.5 -13q-41 0 -68.5 23t-27.5 58
q0 42 35 79l-228 3q-33 1 -33 35q0 25 14.5 40.5t36.5 15.5l103 -1q56 230 109 521q-38 -1 -83 -5q-30 -3 -49 -3q-14 0 -22 9t-8 26q0 24 13.5 38t35.5 18q72 9 170 9q77 0 144 -6q33 -4 33 -34z" />
    <glyph glyph-name="Itilde" unicode="&#x128;" horiz-adv-x="462" 
d="M503 670q0 -24 -14 -39.5t-38 -15.5l-31 1l-51 3q-57 -311 -111 -524l100 -1q20 0 28.5 -8t8.5 -25q0 -26 -14 -42t-40 -16l-302 4q-33 1 -33 35q0 25 14.5 40.5t36.5 15.5l103 -1q56 230 109 521q-38 -1 -83 -5q-30 -3 -49 -3q-14 0 -22 9t-8 26q0 24 13.5 38t35.5 18
q72 9 170 9q77 0 144 -6q33 -4 33 -34zM175.5 776q-8.5 9 -8.5 23q0 16 15 31q31 31 53.5 43.5t50.5 12.5q49 0 87 -23q7 -4 18 -10t17 -8.5t12 -2.5q11 0 27 14q10 10 17.5 14t16.5 4q12 0 21.5 -10t9.5 -23q0 -19 -15 -32q-26 -22 -47.5 -32t-43.5 -10q-16 0 -30 5.5
t-27.5 12.5t-20.5 11q-5 2 -21.5 10t-27.5 8q-9 0 -18 -6.5t-25 -21.5q-22 -19 -39 -19q-13 0 -21.5 9z" />
    <glyph glyph-name="J" unicode="J" horiz-adv-x="586" 
d="M633 669q0 -25 -12.5 -40.5t-40.5 -15.5h-43q-21 -107 -44 -238l-20 -112q-22 -128 -85.5 -196t-169.5 -68q-91 0 -142.5 51t-51.5 142q0 30 6 64q5 29 19 41t42 12q22 0 32 -10t10 -28q0 -8 -1 -12q-6 -34 -6 -63q0 -106 89 -106q57 0 98.5 43t57.5 133q30 165 66 345
h-60q-40 0 -40 34q0 25 12.5 38.5t28.5 14.5q53 4 143 4q58 0 77 -1q35 -4 35 -32z" />
    <glyph glyph-name="Jcircumflex" unicode="&#x134;" horiz-adv-x="586" 
d="M633 669q0 -25 -12.5 -40.5t-40.5 -15.5h-43q-21 -107 -44 -238l-20 -112q-22 -128 -85.5 -196t-169.5 -68q-91 0 -142.5 51t-51.5 142q0 30 6 64q5 29 19 41t42 12q22 0 32 -10t10 -28q0 -8 -1 -12q-6 -34 -6 -63q0 -106 89 -106q57 0 98.5 43t57.5 133q30 165 66 345
h-60q-40 0 -40 34q0 25 12.5 38.5t28.5 14.5q53 4 143 4q58 0 77 -1q35 -4 35 -32zM597 774q-56 98 -68 98q-7 0 -29.5 -20t-52.5 -48l-20 -18q-22 -22 -41 -22q-14 0 -23 9.5t-9 22.5q0 18 17 32q2 2 32 29q47 44 80.5 69.5t55.5 25.5q27 0 46 -20.5t47 -65.5
q11 -19 30 -46q7 -9 7 -19q0 -16 -13 -29t-29 -13q-20 0 -30 15z" />
    <glyph glyph-name="K" unicode="K" horiz-adv-x="624" 
d="M660 685q12 -12 12 -28q0 -12 -6 -23.5t-17 -18.5q-79 -51 -214 -131l-112 -65l-85 -49l54 -56q65 -68 82 -84q78 -77 159 -146q13 -12 13 -29q0 -23 -18 -40t-40 -17q-16 0 -28 9q-54 44 -131 125l-23 23q-71 71 -120 130q-26 -131 -45 -236q-4 -23 -20.5 -36.5
t-39.5 -13.5q-21 0 -32.5 10.5t-8.5 29.5l32 174q10 49 30 158q10 51 28 163q14 91 20 122q4 19 20 31.5t39 12.5q20 0 31 -10.5t11 -26.5q0 -7 -1 -10q-14 -84 -16 -99l-19 -107l107 66l65 40q104 64 210 134q14 10 33 10q18 0 30 -12z" />
    <glyph glyph-name="uni0136" unicode="&#x136;" horiz-adv-x="624" 
d="M660 685q12 -12 12 -28q0 -12 -6 -23.5t-17 -18.5q-79 -51 -214 -131l-112 -65l-85 -49l54 -56q65 -68 82 -84q78 -77 159 -146q13 -12 13 -29q0 -23 -18 -40t-40 -17q-16 0 -28 9q-54 44 -131 125l-23 23q-71 71 -120 130q-26 -131 -45 -236q-4 -23 -20.5 -36.5
t-39.5 -13.5q-21 0 -32.5 10.5t-8.5 29.5l32 174q10 49 30 158q10 51 28 163q14 91 20 122q4 19 20 31.5t39 12.5q20 0 31 -10.5t11 -26.5q0 -7 -1 -10q-14 -84 -16 -99l-19 -107l107 66l65 40q104 64 210 134q14 10 33 10q18 0 30 -12zM303.5 -84q15.5 -16 15.5 -40
q0 -38 -34.5 -81t-81.5 -76q-12 -9 -24 -9q-10 0 -18.5 7.5t-8.5 18.5q0 12 8 20q6 6 25.5 24t32.5 33q-15 2 -24.5 15t-9.5 30q0 31 23 52.5t55 21.5q26 0 41.5 -16z" />
    <glyph glyph-name="L" unicode="L" horiz-adv-x="544" 
d="M118 13q-38 15 -54 46.5t-16 85.5q0 142 129 520q6 18 22 28.5t38 10.5q17 0 29 -8t12 -21q0 -2 -2 -10l-11 -31q-60 -173 -90.5 -284.5t-30.5 -204.5q0 -25 7 -37.5t24.5 -17t52.5 -4.5q50 0 91 5t99 16l31 6q3 1 8 1q15 0 23.5 -10.5t8.5 -24.5q0 -48 -54 -59
q-69 -12 -114.5 -17t-97.5 -5q-67 0 -105 15z" />
    <glyph glyph-name="Lacute" unicode="&#x139;" horiz-adv-x="544" 
d="M118 13q-38 15 -54 46.5t-16 85.5q0 142 129 520q6 18 22 28.5t38 10.5q17 0 29 -8t12 -21q0 -2 -2 -10l-11 -31q-60 -173 -90.5 -284.5t-30.5 -204.5q0 -25 7 -37.5t24.5 -17t52.5 -4.5q50 0 91 5t99 16l31 6q3 1 8 1q15 0 23.5 -10.5t8.5 -24.5q0 -48 -54 -59
q-69 -12 -114.5 -17t-97.5 -5q-67 0 -105 15zM192 764q-9 10 -9 22q0 9 6 20.5t18 20.5l96 80q19 15 29 21t21 6q14 0 23 -10t9 -24q0 -25 -28 -46l-102 -80q-14 -11 -23 -15.5t-18 -4.5q-13 0 -22 10z" />
    <glyph glyph-name="Lcaron" unicode="&#x13d;" horiz-adv-x="544" 
d="M118 13q-38 15 -54 46.5t-16 85.5q0 142 129 520q6 18 22 28.5t38 10.5q17 0 29 -8t12 -21q0 -2 -2 -10l-11 -31q-60 -173 -90.5 -284.5t-30.5 -204.5q0 -25 7 -37.5t24.5 -17t52.5 -4.5q50 0 91 5t99 16l31 6q3 1 8 1q15 0 23.5 -10.5t8.5 -24.5q0 -48 -54 -59
q-69 -12 -114.5 -17t-97.5 -5q-67 0 -105 15zM543 699q16 -15 16 -39q0 -37 -32 -79t-83 -80q-1 -1 -6.5 -5t-12.5 -4q-13 0 -22 9t-9 20q0 6 3.5 11t7.5 10q6 5 24.5 20.5t30.5 29.5q-14 2 -24.5 16t-10.5 30q0 30 24 53t54 23q24 0 40 -15z" />
    <glyph glyph-name="uni013B" unicode="&#x13b;" horiz-adv-x="544" 
d="M118 13q-38 15 -54 46.5t-16 85.5q0 142 129 520q6 18 22 28.5t38 10.5q17 0 29 -8t12 -21q0 -2 -2 -10l-11 -31q-60 -173 -90.5 -284.5t-30.5 -204.5q0 -25 7 -37.5t24.5 -17t52.5 -4.5q50 0 91 5t99 16l31 6q3 1 8 1q15 0 23.5 -10.5t8.5 -24.5q0 -48 -54 -59
q-69 -12 -114.5 -17t-97.5 -5q-67 0 -105 15zM260.5 -84q15.5 -16 15.5 -40q0 -38 -34.5 -81t-81.5 -76q-12 -9 -24 -9q-10 0 -18.5 7.5t-8.5 18.5q0 12 8 20q6 6 25.5 24t32.5 33q-15 2 -24.5 15t-9.5 30q0 31 23 52.5t55 21.5q26 0 41.5 -16z" />
    <glyph glyph-name="Ldot" unicode="&#x13f;" horiz-adv-x="544" 
d="M118 13q-38 15 -54 46.5t-16 85.5q0 142 129 520q6 18 22 28.5t38 10.5q17 0 29 -8t12 -21q0 -2 -2 -10l-11 -31q-60 -173 -90.5 -284.5t-30.5 -204.5q0 -25 7 -37.5t24.5 -17t52.5 -4.5q50 0 91 5t99 16l31 6q3 1 8 1q15 0 23.5 -10.5t8.5 -24.5q0 -48 -54 -59
q-69 -12 -114.5 -17t-97.5 -5q-67 0 -105 15zM284 279q-20 19 -20 51q0 44 28.5 71.5t74.5 27.5q32 0 51.5 -19t19.5 -51q0 -45 -28 -72t-73 -27q-33 0 -53 19z" />
    <glyph glyph-name="uni1E36" unicode="&#x1e36;" horiz-adv-x="544" 
d="M118 13q-38 15 -54 46.5t-16 85.5q0 142 129 520q6 18 22 28.5t38 10.5q17 0 29 -8t12 -21q0 -2 -2 -10l-11 -31q-60 -173 -90.5 -284.5t-30.5 -204.5q0 -25 7 -37.5t24.5 -17t52.5 -4.5q50 0 91 5t99 16l31 6q3 1 8 1q15 0 23.5 -10.5t8.5 -24.5q0 -48 -54 -59
q-69 -12 -114.5 -17t-97.5 -5q-67 0 -105 15zM153 -177q-14 14 -14 37q0 30 22 51t52 21q23 0 37.5 -13.5t14.5 -35.5q0 -31 -22 -52.5t-52 -21.5q-24 0 -38 14z" />
    <glyph glyph-name="uni1E38" unicode="&#x1e38;" horiz-adv-x="544" 
d="M118 13q-38 15 -54 46.5t-16 85.5q0 142 129 520q6 18 22 28.5t38 10.5q17 0 29 -8t12 -21q0 -2 -2 -10l-11 -31q-60 -173 -90.5 -284.5t-30.5 -204.5q0 -25 7 -37.5t24.5 -17t52.5 -4.5q50 0 91 5t99 16l31 6q3 1 8 1q15 0 23.5 -10.5t8.5 -24.5q0 -48 -54 -59
q-69 -12 -114.5 -17t-97.5 -5q-67 0 -105 15zM153 -177q-14 14 -14 37q0 30 22 51t52 21q23 0 37.5 -13.5t14.5 -35.5q0 -31 -22 -52.5t-52 -21.5q-24 0 -38 14zM70.5 790q-6.5 8 -6.5 21q0 20 11.5 33t31.5 16q42 7 75.5 10.5t92.5 3.5h147q16 0 25.5 -9t9.5 -24
q0 -20 -12.5 -32t-34.5 -12q-20 0 -35 1l-102 1q-69 0 -153 -12l-31 -4q-12 -1 -18.5 7z" />
    <glyph glyph-name="uni1E3A" unicode="&#x1e3a;" horiz-adv-x="544" 
d="M118 13q-38 15 -54 46.5t-16 85.5q0 142 129 520q6 18 22 28.5t38 10.5q17 0 29 -8t12 -21q0 -2 -2 -10l-11 -31q-60 -173 -90.5 -284.5t-30.5 -204.5q0 -25 7 -37.5t24.5 -17t52.5 -4.5q50 0 91 5t99 16l31 6q3 1 8 1q15 0 23.5 -10.5t8.5 -24.5q0 -48 -54 -59
q-69 -12 -114.5 -17t-97.5 -5q-67 0 -105 15zM41 -167q-8 8 -8 22q0 18 11 31.5t27 15.5q75 9 186 9q35 0 73 -2q12 -1 29 -1q16 0 25 -9t9 -23q0 -20 -14 -32t-33 -12l-26 1q-57 3 -78 3q-49 0 -142 -8q-27 -3 -39 -3t-20 8z" />
    <glyph glyph-name="Lslash" unicode="&#x141;" horiz-adv-x="544" 
d="M457 114q15 0 23.5 -10.5t8.5 -24.5q0 -48 -54 -59q-69 -12 -114.5 -17t-97.5 -5q-67 0 -105 15t-54 46.5t-16 85.5q0 38 10 101q-4 -1 -11 -1q-22 0 -30 11q-8 13 -8 23q0 26 39 54l35 24q28 113 94 308q6 18 22 28.5t38 10.5q17 0 29 -8t12 -21q0 -2 -2 -10l-21 -60
q-38 -110 -55 -165l124 86q19 11 35 11q11 0 20.5 -4.5t13.5 -11.5q6 -8 6 -21q0 -15 -10 -30t-27 -27l-198 -139q-20 -93 -20 -159q0 -25 7 -37.5t24.5 -17t52.5 -4.5q50 0 91 5t99 16l31 6q3 1 8 1z" />
    <glyph glyph-name="M" unicode="M" horiz-adv-x="801" 
d="M745 678q17 -34 17 -102q0 -141 -73 -533q-5 -23 -19 -36t-38 -13q-21 0 -33 10.5t-12 27.5q0 5 1 8l24 134q31 170 44 250.5t13 123.5q0 25 -3 35t-9 10q-15 0 -44.5 -42t-58.5 -91q-43 -77 -86 -178q-9 -21 -25 -29.5t-38 -8.5q-23 0 -34.5 8.5t-14.5 26.5
q-5 26 -11 79q-8 63 -15 100q-10 49 -25 93t-27 44q-17 0 -40 -77.5t-45 -188.5q-33 -169 -52 -289q-3 -19 -18 -30.5t-40 -11.5q-42 0 -42 37q0 4 2 16q11 72 38 210q11 53 14 70q37 200 81 290.5t107 90.5q73 0 102.5 -92.5t38.5 -232.5q53 127 123.5 226t141.5 99
q39 0 56 -34z" />
    <glyph glyph-name="uni1E42" unicode="&#x1e42;" horiz-adv-x="801" 
d="M745 678q17 -34 17 -102q0 -141 -73 -533q-5 -23 -19 -36t-38 -13q-21 0 -33 10.5t-12 27.5q0 5 1 8l24 134q31 170 44 250.5t13 123.5q0 25 -3 35t-9 10q-15 0 -44.5 -42t-58.5 -91q-43 -77 -86 -178q-9 -21 -25 -29.5t-38 -8.5q-23 0 -34.5 8.5t-14.5 26.5
q-5 26 -11 79q-8 63 -15 100q-10 49 -25 93t-27 44q-17 0 -40 -77.5t-45 -188.5q-33 -169 -52 -289q-3 -19 -18 -30.5t-40 -11.5q-42 0 -42 37q0 4 2 16q11 72 38 210q11 53 14 70q37 200 81 290.5t107 90.5q73 0 102.5 -92.5t38.5 -232.5q53 127 123.5 226t141.5 99
q39 0 56 -34zM291 -177q-14 14 -14 37q0 30 22 51t52 21q23 0 37.5 -13.5t14.5 -35.5q0 -31 -22 -52.5t-52 -21.5q-24 0 -38 14z" />
    <glyph glyph-name="N" unicode="N" horiz-adv-x="745" 
d="M743 673q0 -8 -1 -12l-42 -233q-5 -31 -11 -60t-10 -56q-21 -118 -40.5 -182.5t-41.5 -91.5t-54 -27t-59.5 29t-57.5 87t-83 176l-51 112q-48 107 -62 133q-14 -71 -35 -213q-23 -145 -43 -244l-7 -40q-3 -17 -19 -29.5t-38 -12.5q-21 0 -34 12.5t-10 29.5q4 25 12 68
q26 141 39 222l29 171l15 90q11 58 27 81.5t49 23.5q32 0 57 -25.5t50.5 -77t79.5 -171.5l9 -21q79 -179 131 -273q11 46 39 190q19 99 61 341q4 20 18.5 32t39.5 12q43 0 43 -41z" />
    <glyph glyph-name="Nacute" unicode="&#x143;" horiz-adv-x="745" 
d="M743 673q0 -8 -1 -12l-42 -233q-5 -31 -11 -60t-10 -56q-21 -118 -40.5 -182.5t-41.5 -91.5t-54 -27t-59.5 29t-57.5 87t-83 176l-51 112q-48 107 -62 133q-14 -71 -35 -213q-23 -145 -43 -244l-7 -40q-3 -17 -19 -29.5t-38 -12.5q-21 0 -34 12.5t-10 29.5q4 25 12 68
q26 141 39 222l29 171l15 90q11 58 27 81.5t49 23.5q32 0 57 -25.5t50.5 -77t79.5 -171.5l9 -21q79 -179 131 -273q11 46 39 190q19 99 61 341q4 20 18.5 32t39.5 12q43 0 43 -41zM407 764q-9 10 -9 22q0 9 6 20.5t18 20.5l96 80q19 15 29 21t21 6q14 0 23 -10t9 -24
q0 -25 -28 -46l-102 -80q-14 -11 -23 -15.5t-18 -4.5q-13 0 -22 10z" />
    <glyph glyph-name="Ncaron" unicode="&#x147;" horiz-adv-x="745" 
d="M743 673q0 -8 -1 -12l-42 -233q-5 -31 -11 -60t-10 -56q-21 -118 -40.5 -182.5t-41.5 -91.5t-54 -27t-59.5 29t-57.5 87t-83 176l-51 112q-48 107 -62 133q-14 -71 -35 -213q-23 -145 -43 -244l-7 -40q-3 -17 -19 -29.5t-38 -12.5q-21 0 -34 12.5t-10 29.5q4 25 12 68
q26 141 39 222l29 171l15 90q11 58 27 81.5t49 23.5q32 0 57 -25.5t50.5 -77t79.5 -171.5l9 -21q79 -179 131 -273q11 46 39 190q19 99 61 341q4 20 18.5 32t39.5 12q43 0 43 -41zM642.5 948.5q8.5 -8.5 8.5 -21.5q0 -9 -3.5 -15t-12.5 -17q-45 -50 -68.5 -73.5t-49.5 -40.5
t-51 -17q-23 0 -49 28t-58 73q-9 13 -17 23t-8 25q1 15 15.5 27t29.5 12q9 0 16.5 -5.5t16.5 -16.5q30 -45 46.5 -66t24.5 -21q7 0 32 24.5t71 74.5q14 15 35 15q13 0 21.5 -8.5z" />
    <glyph glyph-name="uni0145" unicode="&#x145;" horiz-adv-x="745" 
d="M743 673q0 -8 -1 -12l-42 -233q-5 -31 -11 -60t-10 -56q-21 -118 -40.5 -182.5t-41.5 -91.5t-54 -27t-59.5 29t-57.5 87t-83 176l-51 112q-48 107 -62 133q-14 -71 -35 -213q-23 -145 -43 -244l-7 -40q-3 -17 -19 -29.5t-38 -12.5q-21 0 -34 12.5t-10 29.5q4 25 12 68
q26 141 39 222l29 171l15 90q11 58 27 81.5t49 23.5q32 0 57 -25.5t50.5 -77t79.5 -171.5l9 -21q79 -179 131 -273q11 46 39 190q19 99 61 341q4 20 18.5 32t39.5 12q43 0 43 -41zM370.5 -84q15.5 -16 15.5 -40q0 -38 -34.5 -81t-81.5 -76q-12 -9 -24 -9q-10 0 -18.5 7.5
t-8.5 18.5q0 12 8 20q6 6 25.5 24t32.5 33q-15 2 -24.5 15t-9.5 30q0 31 23 52.5t55 21.5q26 0 41.5 -16z" />
    <glyph glyph-name="uni1E44" unicode="&#x1e44;" horiz-adv-x="745" 
d="M743 673q0 -8 -1 -12l-42 -233q-5 -31 -11 -60t-10 -56q-21 -118 -40.5 -182.5t-41.5 -91.5t-54 -27t-59.5 29t-57.5 87t-83 176l-51 112q-48 107 -62 133q-14 -71 -35 -213q-23 -145 -43 -244l-7 -40q-3 -17 -19 -29.5t-38 -12.5q-21 0 -34 12.5t-10 29.5q4 25 12 68
q26 141 39 222l29 171l15 90q11 58 27 81.5t49 23.5q32 0 57 -25.5t50.5 -77t79.5 -171.5l9 -21q79 -179 131 -273q11 46 39 190q19 99 61 341q4 20 18.5 32t39.5 12q43 0 43 -41zM435 785q-15 15 -15 38q0 28 22.5 49t51.5 21q22 0 37 -14t15 -35q0 -29 -22 -51.5
t-51 -22.5q-23 0 -38 15z" />
    <glyph glyph-name="uni1E46" unicode="&#x1e46;" horiz-adv-x="745" 
d="M743 673q0 -8 -1 -12l-42 -233q-5 -31 -11 -60t-10 -56q-21 -118 -40.5 -182.5t-41.5 -91.5t-54 -27t-59.5 29t-57.5 87t-83 176l-51 112q-48 107 -62 133q-14 -71 -35 -213q-23 -145 -43 -244l-7 -40q-3 -17 -19 -29.5t-38 -12.5q-21 0 -34 12.5t-10 29.5q4 25 12 68
q26 141 39 222l29 171l15 90q11 58 27 81.5t49 23.5q32 0 57 -25.5t50.5 -77t79.5 -171.5l9 -21q79 -179 131 -273q11 46 39 190q19 99 61 341q4 20 18.5 32t39.5 12q43 0 43 -41zM263 -177q-14 14 -14 37q0 30 22 51t52 21q23 0 37.5 -13.5t14.5 -35.5q0 -31 -22 -52.5
t-52 -21.5q-24 0 -38 14z" />
    <glyph glyph-name="Eng" unicode="&#x14a;" horiz-adv-x="745" 
d="M743 673q0 -8 -1 -12l-42 -233q-5 -31 -11 -60t-10 -56l-12 -64l-45 -251q-23 -128 -85.5 -189t-144.5 -61q-62 0 -99 32t-37 87q0 21 5 34q14 38 58 38q40 0 40 -31q0 -7 -1 -15t-1 -16q0 -24 14 -36t35 -12q78 0 111 169l3 18q-26 9 -50.5 41t-51.5 86.5t-75 160.5
l-51 112q-48 107 -62 133q-14 -71 -35 -213q-23 -145 -43 -244l-7 -40q-3 -17 -19 -29.5t-38 -12.5q-21 0 -34 12.5t-10 29.5q4 25 12 68q26 141 39 222l29 171l15 90q11 58 27 81.5t49 23.5q32 0 57 -25.5t50.5 -77t79.5 -171.5l9 -21q79 -179 131 -273q11 46 39 190
q19 99 61 341q4 20 18.5 32t39.5 12q43 0 43 -41z" />
    <glyph glyph-name="uni1E48" unicode="&#x1e48;" horiz-adv-x="745" 
d="M743 673q0 -8 -1 -12l-42 -233q-5 -31 -11 -60t-10 -56q-21 -118 -40.5 -182.5t-41.5 -91.5t-54 -27t-59.5 29t-57.5 87t-83 176l-51 112q-48 107 -62 133q-14 -71 -35 -213q-23 -145 -43 -244l-7 -40q-3 -17 -19 -29.5t-38 -12.5q-21 0 -34 12.5t-10 29.5q4 25 12 68
q26 141 39 222l29 171l15 90q11 58 27 81.5t49 23.5q32 0 57 -25.5t50.5 -77t79.5 -171.5l9 -21q79 -179 131 -273q11 46 39 190q19 99 61 341q4 20 18.5 32t39.5 12q43 0 43 -41zM151 -167q-8 8 -8 22q0 18 11 31.5t27 15.5q75 9 186 9q35 0 73 -2q12 -1 29 -1q16 0 25 -9
t9 -23q0 -20 -14 -32t-33 -12l-26 1q-57 3 -78 3q-49 0 -142 -8q-27 -3 -39 -3t-20 8z" />
    <glyph glyph-name="Ntilde" unicode="&#xd1;" horiz-adv-x="745" 
d="M743 673q0 -8 -1 -12l-42 -233q-5 -31 -11 -60t-10 -56q-21 -118 -40.5 -182.5t-41.5 -91.5t-54 -27t-59.5 29t-57.5 87t-83 176l-51 112q-48 107 -62 133q-14 -71 -35 -213q-23 -145 -43 -244l-7 -40q-3 -17 -19 -29.5t-38 -12.5q-21 0 -34 12.5t-10 29.5q4 25 12 68
q26 141 39 222l29 171l15 90q11 58 27 81.5t49 23.5q32 0 57 -25.5t50.5 -77t79.5 -171.5l9 -21q79 -179 131 -273q11 46 39 190q19 99 61 341q4 20 18.5 32t39.5 12q43 0 43 -41zM316.5 776q-8.5 9 -8.5 23q0 16 15 31q31 31 53.5 43.5t50.5 12.5q49 0 87 -23q7 -4 18 -10
t17 -8.5t12 -2.5q11 0 27 14q10 10 17.5 14t16.5 4q12 0 21.5 -10t9.5 -23q0 -19 -15 -32q-26 -22 -47.5 -32t-43.5 -10q-16 0 -30 5.5t-27.5 12.5t-20.5 11q-5 2 -21.5 10t-27.5 8q-9 0 -18 -6.5t-25 -21.5q-22 -19 -39 -19q-13 0 -21.5 9z" />
    <glyph glyph-name="O" unicode="O" horiz-adv-x="799" 
d="M211.5 41q-68.5 34 -108 98.5t-39.5 152.5q0 112 51 207.5t140.5 152t199.5 56.5q91 0 163 -39.5t112.5 -110t40.5 -159.5q0 -112 -52.5 -201.5t-145 -140t-207.5 -50.5q-86 0 -154.5 34zM526 138q68 40 106 109t38 154q0 98 -57 157t-153 59q-84 0 -151.5 -45.5
t-105.5 -120.5t-38 -159q0 -99 60 -146.5t148 -47.5q85 0 153 40z" />
    <glyph glyph-name="Oacute" unicode="&#xd3;" horiz-adv-x="799" 
d="M211.5 41q-68.5 34 -108 98.5t-39.5 152.5q0 112 51 207.5t140.5 152t199.5 56.5q91 0 163 -39.5t112.5 -110t40.5 -159.5q0 -112 -52.5 -201.5t-145 -140t-207.5 -50.5q-86 0 -154.5 34zM526 138q68 40 106 109t38 154q0 98 -57 157t-153 59q-84 0 -151.5 -45.5
t-105.5 -120.5t-38 -159q0 -99 60 -146.5t148 -47.5q85 0 153 40zM424 764q-9 10 -9 22q0 9 6 20.5t18 20.5l96 80q19 15 29 21t21 6q14 0 23 -10t9 -24q0 -25 -28 -46l-102 -80q-14 -11 -23 -15.5t-18 -4.5q-13 0 -22 10z" />
    <glyph glyph-name="Obreve" unicode="&#x14e;" horiz-adv-x="799" 
d="M211.5 41q-68.5 34 -108 98.5t-39.5 152.5q0 112 51 207.5t140.5 152t199.5 56.5q91 0 163 -39.5t112.5 -110t40.5 -159.5q0 -112 -52.5 -201.5t-145 -140t-207.5 -50.5q-86 0 -154.5 34zM526 138q68 40 106 109t38 154q0 98 -57 157t-153 59q-84 0 -151.5 -45.5
t-105.5 -120.5t-38 -159q0 -99 60 -146.5t148 -47.5q85 0 153 40zM417 775.5q-34 15.5 -53.5 42.5t-19.5 60q0 14 5 26q5 15 15.5 23t24.5 8q13 0 23 -6t9 -17q-1 -5 -1 -14q1 -34 22.5 -53t56.5 -19q34 0 64 23.5t37 59.5q3 14 16 21.5t27 7.5t23 -9.5t8 -23.5
q-4 -37 -30.5 -70.5t-66.5 -54t-83 -20.5t-77 15.5z" />
    <glyph glyph-name="uni01D1" unicode="&#x1d1;" horiz-adv-x="799" 
d="M211.5 41q-68.5 34 -108 98.5t-39.5 152.5q0 112 51 207.5t140.5 152t199.5 56.5q91 0 163 -39.5t112.5 -110t40.5 -159.5q0 -112 -52.5 -201.5t-145 -140t-207.5 -50.5q-86 0 -154.5 34zM526 138q68 40 106 109t38 154q0 98 -57 157t-153 59q-84 0 -151.5 -45.5
t-105.5 -120.5t-38 -159q0 -99 60 -146.5t148 -47.5q85 0 153 40zM659.5 948.5q8.5 -8.5 8.5 -21.5q0 -9 -3.5 -15t-12.5 -17q-45 -50 -68.5 -73.5t-49.5 -40.5t-51 -17q-23 0 -49 28t-58 73q-9 13 -17 23t-8 25q1 15 15.5 27t29.5 12q9 0 16.5 -5.5t16.5 -16.5
q30 -45 46.5 -66t24.5 -21q7 0 32 24.5t71 74.5q14 15 35 15q13 0 21.5 -8.5z" />
    <glyph glyph-name="Ocircumflex" unicode="&#xd4;" horiz-adv-x="799" 
d="M211.5 41q-68.5 34 -108 98.5t-39.5 152.5q0 112 51 207.5t140.5 152t199.5 56.5q91 0 163 -39.5t112.5 -110t40.5 -159.5q0 -112 -52.5 -201.5t-145 -140t-207.5 -50.5q-86 0 -154.5 34zM526 138q68 40 106 109t38 154q0 98 -57 157t-153 59q-84 0 -151.5 -45.5
t-105.5 -120.5t-38 -159q0 -99 60 -146.5t148 -47.5q85 0 153 40zM577 774q-56 98 -68 98q-7 0 -29.5 -20t-52.5 -48l-20 -18q-22 -22 -41 -22q-14 0 -23 9.5t-9 22.5q0 18 17 32q2 2 32 29q47 44 80.5 69.5t55.5 25.5q27 0 46 -20.5t47 -65.5q11 -19 30 -46q7 -9 7 -19
q0 -16 -13 -29t-29 -13q-20 0 -30 15z" />
    <glyph glyph-name="uni1ED0" unicode="&#x1ed0;" horiz-adv-x="799" 
d="M211.5 41q-68.5 34 -108 98.5t-39.5 152.5q0 112 51 207.5t140.5 152t199.5 56.5q91 0 163 -39.5t112.5 -110t40.5 -159.5q0 -112 -52.5 -201.5t-145 -140t-207.5 -50.5q-86 0 -154.5 34zM526 138q68 40 106 109t38 154q0 98 -57 157t-153 59q-84 0 -151.5 -45.5
t-105.5 -120.5t-38 -159q0 -99 60 -146.5t148 -47.5q85 0 153 40zM631 925.5q-8 8.5 -8 20.5q0 19 22 41l53 47q15 14 25.5 20t21.5 6q14 0 22.5 -8.5t8.5 -22.5q0 -23 -26 -45l-59 -49q-22 -18 -39 -18q-13 0 -21 8.5zM579 775q-30 52 -45.5 75t-22.5 23t-29.5 -20
t-52.5 -48l-20 -18q-23 -22 -41 -22q-14 0 -23 9.5t-9 22.5q0 18 17 32l33 30q47 44 79.5 69t54.5 25q27 0 46.5 -20.5t45.5 -63.5q5 -7 14.5 -22t17.5 -26q7 -9 7 -19q0 -16 -13 -29t-30 -13q-21 0 -29 15z" />
    <glyph glyph-name="uni1ED8" unicode="&#x1ed8;" horiz-adv-x="799" 
d="M211.5 41q-68.5 34 -108 98.5t-39.5 152.5q0 112 51 207.5t140.5 152t199.5 56.5q91 0 163 -39.5t112.5 -110t40.5 -159.5q0 -112 -52.5 -201.5t-145 -140t-207.5 -50.5q-86 0 -154.5 34zM526 138q68 40 106 109t38 154q0 98 -57 157t-153 59q-84 0 -151.5 -45.5
t-105.5 -120.5t-38 -159q0 -99 60 -146.5t148 -47.5q85 0 153 40zM280 -177q-14 14 -14 37q0 30 22 51t52 21q23 0 37.5 -13.5t14.5 -35.5q0 -31 -22 -52.5t-52 -21.5q-24 0 -38 14zM577 774q-56 98 -68 98q-7 0 -29.5 -20t-52.5 -48l-20 -18q-22 -22 -41 -22q-14 0 -23 9.5
t-9 22.5q0 18 17 32q2 2 32 29q47 44 80.5 69.5t55.5 25.5q27 0 46 -20.5t47 -65.5q11 -19 30 -46q7 -9 7 -19q0 -16 -13 -29t-29 -13q-20 0 -30 15z" />
    <glyph glyph-name="uni1ED2" unicode="&#x1ed2;" horiz-adv-x="799" 
d="M211.5 41q-68.5 34 -108 98.5t-39.5 152.5q0 112 51 207.5t140.5 152t199.5 56.5q91 0 163 -39.5t112.5 -110t40.5 -159.5q0 -112 -52.5 -201.5t-145 -140t-207.5 -50.5q-86 0 -154.5 34zM526 138q68 40 106 109t38 154q0 98 -57 157t-153 59q-84 0 -151.5 -45.5
t-105.5 -120.5t-38 -159q0 -99 60 -146.5t148 -47.5q85 0 153 40zM648 935l-42 49q-13 15 -13 32q0 18 13.5 31t31.5 13q11 0 18.5 -6t18.5 -20l36 -47q10 -15 10 -28q0 -17 -12.5 -29.5t-28.5 -12.5q-17 0 -32 18zM578 775q-56 98 -68 98q-7 0 -29.5 -20t-52.5 -48l-20 -18
q-22 -22 -41 -22q-14 0 -23 9.5t-9 22.5q0 18 17 32q2 2 32 29q47 44 80.5 69.5t55.5 25.5q27 0 46 -20.5t47 -65.5q11 -19 30 -46q7 -9 7 -19q0 -16 -13 -29t-29 -13q-20 0 -30 15z" />
    <glyph glyph-name="uni1ED4" unicode="&#x1ed4;" horiz-adv-x="799" 
d="M211.5 41q-68.5 34 -108 98.5t-39.5 152.5q0 112 51 207.5t140.5 152t199.5 56.5q91 0 163 -39.5t112.5 -110t40.5 -159.5q0 -112 -52.5 -201.5t-145 -140t-207.5 -50.5q-86 0 -154.5 34zM526 138q68 40 106 109t38 154q0 98 -57 157t-153 59q-84 0 -151.5 -45.5
t-105.5 -120.5t-38 -159q0 -99 60 -146.5t148 -47.5q85 0 153 40zM658.5 922.5q-7.5 6.5 -7.5 15.5t2 18t3 14q1 7 8.5 14t21.5 17q16 12 23.5 19.5t7.5 16.5q0 19 -27 19q-16 0 -27.5 -6t-16.5 -17q-2 -8 -9 -12.5t-15 -4.5q-19 0 -19 20q0 30 29 49.5t66 19.5
q32 0 54.5 -16t22.5 -42q0 -22 -10.5 -35t-28.5 -25q-20 -11 -21 -20q-2 -9 -4 -25q-2 -12 -12.5 -19t-23.5 -7q-9 0 -16.5 6.5zM578 775q-56 98 -68 98q-7 0 -29.5 -20t-52.5 -48l-20 -18q-22 -22 -41 -22q-14 0 -23 9.5t-9 22.5q0 18 17 32q2 2 32 29q47 44 80.5 69.5
t55.5 25.5q27 0 46 -20.5t47 -65.5q11 -19 30 -46q7 -9 7 -19q0 -16 -13 -29t-29 -13q-20 0 -30 15z" />
    <glyph glyph-name="uni1ED6" unicode="&#x1ed6;" horiz-adv-x="799" 
d="M211.5 41q-68.5 34 -108 98.5t-39.5 152.5q0 112 51 207.5t140.5 152t199.5 56.5q91 0 163 -39.5t112.5 -110t40.5 -159.5q0 -112 -52.5 -201.5t-145 -140t-207.5 -50.5q-86 0 -154.5 34zM526 138q68 40 106 109t38 154q0 98 -57 157t-153 59q-84 0 -151.5 -45.5
t-105.5 -120.5t-38 -159q0 -99 60 -146.5t148 -47.5q85 0 153 40zM374 994q-8 7 -8 19q0 16 16 30q31 27 52 38t49 11q37 0 81 -22q36 -19 51 -19q13 0 31 13q6 4 16 11t19 7q13 0 21 -9t8 -21q0 -17 -16 -28q-25 -19 -46.5 -28t-42.5 -9q-17 0 -32.5 5t-28 11t-17.5 9
q-34 17 -49 17q-10 0 -20.5 -6.5t-25.5 -19.5q-19 -16 -36 -16q-14 0 -22 7zM578 775q-56 98 -68 98q-7 0 -29.5 -20t-52.5 -48l-20 -18q-22 -22 -41 -22q-14 0 -23 9.5t-9 22.5q0 18 17 32q2 2 32 29q47 44 80.5 69.5t55.5 25.5q27 0 46 -20.5t47 -65.5q11 -19 30 -46
q7 -9 7 -19q0 -16 -13 -29t-29 -13q-20 0 -30 15z" />
    <glyph glyph-name="Odieresis" unicode="&#xd6;" horiz-adv-x="799" 
d="M211.5 41q-68.5 34 -108 98.5t-39.5 152.5q0 112 51 207.5t140.5 152t199.5 56.5q91 0 163 -39.5t112.5 -110t40.5 -159.5q0 -112 -52.5 -201.5t-145 -140t-207.5 -50.5q-86 0 -154.5 34zM526 138q68 40 106 109t38 154q0 98 -57 157t-153 59q-84 0 -151.5 -45.5
t-105.5 -120.5t-38 -159q0 -99 60 -146.5t148 -47.5q85 0 153 40zM326 785.5q-15 14.5 -15 36.5q0 29 22.5 50.5t51.5 21.5q22 0 37.5 -15t15.5 -36q0 -28 -23 -50t-51 -22q-23 0 -38 14.5zM578 785.5q-15 14.5 -15 36.5q0 29 22.5 50.5t51.5 21.5q22 0 37 -14.5t15 -36.5
q0 -28 -22.5 -50t-50.5 -22q-23 0 -38 14.5z" />
    <glyph glyph-name="uni1ECC" unicode="&#x1ecc;" horiz-adv-x="799" 
d="M211.5 41q-68.5 34 -108 98.5t-39.5 152.5q0 112 51 207.5t140.5 152t199.5 56.5q91 0 163 -39.5t112.5 -110t40.5 -159.5q0 -112 -52.5 -201.5t-145 -140t-207.5 -50.5q-86 0 -154.5 34zM526 138q68 40 106 109t38 154q0 98 -57 157t-153 59q-84 0 -151.5 -45.5
t-105.5 -120.5t-38 -159q0 -99 60 -146.5t148 -47.5q85 0 153 40zM280 -177q-14 14 -14 37q0 30 22 51t52 21q23 0 37.5 -13.5t14.5 -35.5q0 -31 -22 -52.5t-52 -21.5q-24 0 -38 14z" />
    <glyph glyph-name="Ograve" unicode="&#xd2;" horiz-adv-x="799" 
d="M211.5 41q-68.5 34 -108 98.5t-39.5 152.5q0 112 51 207.5t140.5 152t199.5 56.5q91 0 163 -39.5t112.5 -110t40.5 -159.5q0 -112 -52.5 -201.5t-145 -140t-207.5 -50.5q-86 0 -154.5 34zM526 138q68 40 106 109t38 154q0 98 -57 157t-153 59q-84 0 -151.5 -45.5
t-105.5 -120.5t-38 -159q0 -99 60 -146.5t148 -47.5q85 0 153 40zM514.5 759q-7.5 4 -15.5 14l-64 86q-13 19 -13 32q0 19 13.5 32t30.5 13q11 0 20 -6.5t18 -20.5l58 -85q11 -14 11 -28q0 -16 -12.5 -28.5t-29.5 -12.5q-9 0 -16.5 4z" />
    <glyph glyph-name="uni1ECE" unicode="&#x1ece;" horiz-adv-x="799" 
d="M211.5 41q-68.5 34 -108 98.5t-39.5 152.5q0 112 51 207.5t140.5 152t199.5 56.5q91 0 163 -39.5t112.5 -110t40.5 -159.5q0 -112 -52.5 -201.5t-145 -140t-207.5 -50.5q-86 0 -154.5 34zM526 138q68 40 106 109t38 154q0 98 -57 157t-153 59q-84 0 -151.5 -45.5
t-105.5 -120.5t-38 -159q0 -99 60 -146.5t148 -47.5q85 0 153 40zM461 766.5q-10 10.5 -7 25.5q4 23 8 42q2 12 12.5 21.5t31.5 23.5t32.5 26t11.5 25q0 14 -11 23.5t-32 9.5q-22 0 -37.5 -10.5t-29.5 -28.5q-15 -20 -31 -20q-11 0 -20 8t-9 17q0 14 13 30q26 33 55.5 50.5
t71.5 17.5q49 0 80 -23t31 -60q0 -32 -16 -51t-44 -37q-11 -7 -19.5 -13.5t-9.5 -13.5l-6 -35q-3 -19 -16.5 -28.5t-31.5 -9.5q-17 0 -27 10.5z" />
    <glyph glyph-name="Ohorn" unicode="&#x1a0;" horiz-adv-x="844" 
d="M901 677q-5 -61 -42 -113t-99 -77q11 -42 11 -88q0 -112 -52.5 -201.5t-145 -140t-207.5 -50.5q-86 0 -154.5 34t-108 98.5t-39.5 152.5q0 112 51 207.5t140.5 152t199.5 56.5q97 0 172 -44.5t112 -121.5q37 16 62.5 50t33.5 81q6 34 39 34q30 0 27 -30zM526 138
q68 40 106 109t38 154q0 98 -57 157t-153 59q-84 0 -151.5 -45.5t-105.5 -120.5t-38 -159q0 -99 60 -146.5t148 -47.5q85 0 153 40z" />
    <glyph glyph-name="uni1EDA" unicode="&#x1eda;" horiz-adv-x="844" 
d="M901 677q-5 -61 -42 -113t-99 -77q11 -42 11 -88q0 -112 -52.5 -201.5t-145 -140t-207.5 -50.5q-86 0 -154.5 34t-108 98.5t-39.5 152.5q0 112 51 207.5t140.5 152t199.5 56.5q97 0 172 -44.5t112 -121.5q37 16 62.5 50t33.5 81q6 34 39 34q30 0 27 -30zM526 138
q68 40 106 109t38 154q0 98 -57 157t-153 59q-84 0 -151.5 -45.5t-105.5 -120.5t-38 -159q0 -99 60 -146.5t148 -47.5q85 0 153 40zM424 764q-9 10 -9 22q0 9 6 20.5t18 20.5l96 80q19 15 29 21t21 6q14 0 23 -10t9 -24q0 -25 -28 -46l-102 -80q-14 -11 -23 -15.5t-18 -4.5
q-13 0 -22 10z" />
    <glyph glyph-name="uni1EE2" unicode="&#x1ee2;" horiz-adv-x="844" 
d="M901 677q-5 -61 -42 -113t-99 -77q11 -42 11 -88q0 -112 -52.5 -201.5t-145 -140t-207.5 -50.5q-86 0 -154.5 34t-108 98.5t-39.5 152.5q0 112 51 207.5t140.5 152t199.5 56.5q97 0 172 -44.5t112 -121.5q37 16 62.5 50t33.5 81q6 34 39 34q30 0 27 -30zM526 138
q68 40 106 109t38 154q0 98 -57 157t-153 59q-84 0 -151.5 -45.5t-105.5 -120.5t-38 -159q0 -99 60 -146.5t148 -47.5q85 0 153 40zM280 -177q-14 14 -14 37q0 30 22 51t52 21q23 0 37.5 -13.5t14.5 -35.5q0 -31 -22 -52.5t-52 -21.5q-24 0 -38 14z" />
    <glyph glyph-name="uni1EDC" unicode="&#x1edc;" horiz-adv-x="844" 
d="M901 677q-5 -61 -42 -113t-99 -77q11 -42 11 -88q0 -112 -52.5 -201.5t-145 -140t-207.5 -50.5q-86 0 -154.5 34t-108 98.5t-39.5 152.5q0 112 51 207.5t140.5 152t199.5 56.5q97 0 172 -44.5t112 -121.5q37 16 62.5 50t33.5 81q6 34 39 34q30 0 27 -30zM526 138
q68 40 106 109t38 154q0 98 -57 157t-153 59q-84 0 -151.5 -45.5t-105.5 -120.5t-38 -159q0 -99 60 -146.5t148 -47.5q85 0 153 40zM514.5 759q-7.5 4 -15.5 14l-64 86q-13 19 -13 32q0 19 13.5 32t30.5 13q11 0 20 -6.5t18 -20.5l58 -85q11 -14 11 -28q0 -16 -12.5 -28.5
t-29.5 -12.5q-9 0 -16.5 4z" />
    <glyph glyph-name="uni1EDE" unicode="&#x1ede;" horiz-adv-x="844" 
d="M901 677q-5 -61 -42 -113t-99 -77q11 -42 11 -88q0 -112 -52.5 -201.5t-145 -140t-207.5 -50.5q-86 0 -154.5 34t-108 98.5t-39.5 152.5q0 112 51 207.5t140.5 152t199.5 56.5q97 0 172 -44.5t112 -121.5q37 16 62.5 50t33.5 81q6 34 39 34q30 0 27 -30zM526 138
q68 40 106 109t38 154q0 98 -57 157t-153 59q-84 0 -151.5 -45.5t-105.5 -120.5t-38 -159q0 -99 60 -146.5t148 -47.5q85 0 153 40zM461 766.5q-10 10.5 -7 25.5q4 23 8 42q2 12 12.5 21.5t31.5 23.5t32.5 26t11.5 25q0 14 -11 23.5t-32 9.5q-22 0 -37.5 -10.5t-29.5 -28.5
q-15 -20 -31 -20q-11 0 -20 8t-9 17q0 14 13 30q26 33 55.5 50.5t71.5 17.5q49 0 80 -23t31 -60q0 -32 -16 -51t-44 -37q-11 -7 -19.5 -13.5t-9.5 -13.5l-6 -35q-3 -19 -16.5 -28.5t-31.5 -9.5q-17 0 -27 10.5z" />
    <glyph glyph-name="uni1EE0" unicode="&#x1ee0;" horiz-adv-x="844" 
d="M901 677q-5 -61 -42 -113t-99 -77q11 -42 11 -88q0 -112 -52.5 -201.5t-145 -140t-207.5 -50.5q-86 0 -154.5 34t-108 98.5t-39.5 152.5q0 112 51 207.5t140.5 152t199.5 56.5q97 0 172 -44.5t112 -121.5q37 16 62.5 50t33.5 81q6 34 39 34q30 0 27 -30zM526 138
q68 40 106 109t38 154q0 98 -57 157t-153 59q-84 0 -151.5 -45.5t-105.5 -120.5t-38 -159q0 -99 60 -146.5t148 -47.5q85 0 153 40zM333.5 776q-8.5 9 -8.5 23q0 16 15 31q31 31 53.5 43.5t50.5 12.5q49 0 87 -23q7 -4 18 -10t17 -8.5t12 -2.5q11 0 27 14q10 10 17.5 14
t16.5 4q12 0 21.5 -10t9.5 -23q0 -19 -15 -32q-26 -22 -47.5 -32t-43.5 -10q-16 0 -30 5.5t-27.5 12.5t-20.5 11q-5 2 -21.5 10t-27.5 8q-9 0 -18 -6.5t-25 -21.5q-22 -19 -39 -19q-13 0 -21.5 9z" />
    <glyph glyph-name="Ohungarumlaut" unicode="&#x150;" horiz-adv-x="799" 
d="M211.5 41q-68.5 34 -108 98.5t-39.5 152.5q0 112 51 207.5t140.5 152t199.5 56.5q91 0 163 -39.5t112.5 -110t40.5 -159.5q0 -112 -52.5 -201.5t-145 -140t-207.5 -50.5q-86 0 -154.5 34zM526 138q68 40 106 109t38 154q0 98 -57 157t-153 59q-84 0 -151.5 -45.5
t-105.5 -120.5t-38 -159q0 -99 60 -146.5t148 -47.5q85 0 153 40zM338 762.5q-8 7.5 -8 20.5q0 21 22 41l87 85q27 27 48 27q14 0 22.5 -8.5t8.5 -22.5q0 -25 -27 -46l-95 -87q-20 -17 -38 -17q-12 0 -20 7.5zM515 762.5q-8 7.5 -8 20.5q0 20 23 41l87 85q27 27 48 27
q14 0 22.5 -8.5t8.5 -22.5q0 -23 -27 -46l-94 -86q-21 -18 -40 -18q-12 0 -20 7.5z" />
    <glyph glyph-name="Omacron" unicode="&#x14c;" horiz-adv-x="799" 
d="M211.5 41q-68.5 34 -108 98.5t-39.5 152.5q0 112 51 207.5t140.5 152t199.5 56.5q91 0 163 -39.5t112.5 -110t40.5 -159.5q0 -112 -52.5 -201.5t-145 -140t-207.5 -50.5q-86 0 -154.5 34zM526 138q68 40 106 109t38 154q0 98 -57 157t-153 59q-84 0 -151.5 -45.5
t-105.5 -120.5t-38 -159q0 -99 60 -146.5t148 -47.5q85 0 153 40zM302.5 790q-6.5 8 -6.5 21q0 20 11.5 33t31.5 16q42 7 75.5 10.5t92.5 3.5h147q16 0 25.5 -9t9.5 -24q0 -20 -12.5 -32t-34.5 -12q-20 0 -35 1l-102 1q-69 0 -153 -12l-31 -4q-12 -1 -18.5 7z" />
    <glyph glyph-name="Oslash" unicode="&#xd8;" horiz-adv-x="807" 
d="M819 738.5q9 -11.5 7 -26.5q-3 -15 -19 -29l-96 -94q60 -81 60 -190q0 -112 -52.5 -201.5t-145 -140t-207.5 -50.5q-112 0 -191 56l-73 -72q-20 -22 -41 -22q-15 0 -26 10.5t-8 25.5q1 6 4 11t9 13l84 82q-60 73 -60 181q0 112 51 207.5t140.5 152t199.5 56.5
q61 0 114 -18t94 -51l90 88q21 23 41 23q16 0 25 -11.5zM195 180l401 393q-55 44 -136 44q-84 0 -151.5 -45.5t-105.5 -120.5t-38 -159q0 -66 30 -112zM641 520l-396 -389q52 -33 128 -33q85 0 153 40t106 109t38 154q0 69 -29 119z" />
    <glyph glyph-name="Oslashacute" unicode="&#x1fe;" horiz-adv-x="807" 
d="M819 738.5q9 -11.5 7 -26.5q-3 -15 -19 -29l-96 -94q60 -81 60 -190q0 -112 -52.5 -201.5t-145 -140t-207.5 -50.5q-112 0 -191 56l-73 -72q-20 -22 -41 -22q-15 0 -26 10.5t-8 25.5q1 6 4 11t9 13l84 82q-60 73 -60 181q0 112 51 207.5t140.5 152t199.5 56.5
q61 0 114 -18t94 -51l90 88q21 23 41 23q16 0 25 -11.5zM195 180l401 393q-55 44 -136 44q-84 0 -151.5 -45.5t-105.5 -120.5t-38 -159q0 -66 30 -112zM641 520l-396 -389q52 -33 128 -33q85 0 153 40t106 109t38 154q0 69 -29 119zM424 764q-9 10 -9 22q0 9 6 20.5t18 20.5
l96 80q19 15 29 21t21 6q14 0 23 -10t9 -24q0 -25 -28 -46l-102 -80q-14 -11 -23 -15.5t-18 -4.5q-13 0 -22 10z" />
    <glyph glyph-name="Otilde" unicode="&#xd5;" horiz-adv-x="799" 
d="M211.5 41q-68.5 34 -108 98.5t-39.5 152.5q0 112 51 207.5t140.5 152t199.5 56.5q91 0 163 -39.5t112.5 -110t40.5 -159.5q0 -112 -52.5 -201.5t-145 -140t-207.5 -50.5q-86 0 -154.5 34zM526 138q68 40 106 109t38 154q0 98 -57 157t-153 59q-84 0 -151.5 -45.5
t-105.5 -120.5t-38 -159q0 -99 60 -146.5t148 -47.5q85 0 153 40zM333.5 776q-8.5 9 -8.5 23q0 16 15 31q31 31 53.5 43.5t50.5 12.5q49 0 87 -23q7 -4 18 -10t17 -8.5t12 -2.5q11 0 27 14q10 10 17.5 14t16.5 4q12 0 21.5 -10t9.5 -23q0 -19 -15 -32q-26 -22 -47.5 -32
t-43.5 -10q-16 0 -30 5.5t-27.5 12.5t-20.5 11q-5 2 -21.5 10t-27.5 8q-9 0 -18 -6.5t-25 -21.5q-22 -19 -39 -19q-13 0 -21.5 9z" />
    <glyph glyph-name="OE" unicode="&#x152;" horiz-adv-x="993" 
d="M1027 660q0 -25 -12.5 -37t-34.5 -11q-6 1 -32 3t-88 2q-75 0 -119 -2q-5 -51 -15 -119q-5 -33 -12 -64l-7 -35h152q22 0 32 -7.5t10 -25.5q0 -21 -13.5 -36t-35.5 -15l-164 1q-29 -136 -50 -221q7 -1 38.5 -3.5t77.5 -2.5q55 0 82 3l49 3q35 1 31 -32q-1 -20 -12 -29.5
t-26 -11.5q-28 -6 -91 -6l-33 1q-33 1 -69 1h-38q-50 0 -105 2q-27 1 -37.5 6.5t-10.5 19.5q0 18 14 30t36 12l16 71q-33 -59 -103.5 -103t-155.5 -44q-109 0 -172.5 75.5t-63.5 208.5q0 112 45.5 208t125 153t177.5 57q65 0 114 -25.5t77.5 -69t33.5 -97.5l5 30l4 35
q2 24 4 34q-19 0 -19 25q0 19 11 32.5t36 14.5l27 1q25 1 78 2.5t81 1.5q68 0 144 -6q18 -1 18 -30zM462.5 145.5q57.5 50.5 89 127.5t31.5 154q0 94 -46.5 150t-124.5 56q-70 0 -126.5 -46t-89 -122t-32.5 -163q0 -104 46 -155.5t120 -51.5q75 0 132.5 50.5z" />
    <glyph glyph-name="P" unicode="P" horiz-adv-x="635" 
d="M523.5 675.5q56.5 -26.5 89.5 -73.5t33 -106q0 -73 -42 -128t-111.5 -84t-150.5 -29q-41 0 -75.5 7t-57.5 19l-45 -241q-4 -22 -20 -35t-39 -13q-21 0 -32.5 10t-11.5 28q0 6 1 10l22 117q22 113 29 153q21 120 38 235l-4 -2q-10 -5 -19 -5q-12 0 -19 10.5t-7 26.5
q0 22 11 33.5t36 23.5l15 8l3 16q5 26 20 38.5t42 12.5q25 0 35.5 -6.5t9.5 -15.5v-1q62 18 124 18q69 0 125.5 -26.5zM435.5 358.5q44.5 20.5 71 57t26.5 80.5q0 53 -43 85t-109 32q-50 0 -122 -24l-4 -25l-9 -54q-7 -36 -12 -80l-10 -64q23 -14 53.5 -21t60.5 -7
q53 0 97.5 20.5z" />
    <glyph glyph-name="Thorn" unicode="&#xde;" horiz-adv-x="649" 
d="M531.5 620.5q55.5 -26.5 87 -74t31.5 -108.5q0 -72 -41.5 -128t-111.5 -86.5t-154 -30.5q-62 0 -121 19l-36 -173q-4 -20 -21.5 -33t-40.5 -13q-25 0 -39.5 12.5t-10.5 31.5l34 173l25 127l29 160l-15 -8q-11 -7 -24 -7q-15 0 -26 13.5t-11 27.5q0 22 28 41q33 21 66 34
q4 21 5 33q14 80 15 93q3 20 19.5 33t41.5 13q23 0 38 -12t11 -34l-15 -90q65 13 112 13q69 0 124.5 -26.5zM484 324.5q53 41.5 53 110.5q0 55 -42 88t-111 33q-47 0 -104 -15l-19 -115l-8 -44l-15 -80q60 -19 114 -19q79 0 132 41.5z" />
    <glyph glyph-name="Q" unicode="Q" horiz-adv-x="788" 
d="M685 102q11 -13 11 -27q0 -22 -19.5 -41t-42.5 -19q-21 0 -33 14l-39 46q-104 -63 -222 -63q-89 0 -151 38t-93.5 103t-31.5 147q0 111 56 206t149.5 150.5t201.5 55.5q82 0 148.5 -39t105 -108t38.5 -155q0 -75 -30.5 -143.5t-83.5 -122.5zM502 147l-51 61q-9 11 -9 23
q0 19 23.5 39t44.5 20q13 0 20 -8l56 -65q36 41 56 91t20 103q0 61 -25 108.5t-69.5 74.5t-101.5 27q-80 0 -149 -46t-109.5 -120.5t-40.5 -156.5q0 -90 48.5 -142.5t130.5 -52.5t156 44z" />
    <glyph glyph-name="R" unicode="R" horiz-adv-x="658" 
d="M604 381q-45 -51 -119 -77t-161 -26q-43 0 -85 9l297 -188q19 -12 19 -28q0 -23 -14.5 -41t-37.5 -18q-10 0 -21 4t-17 9l-275 189l-11 -61q-4 -21 -9 -49t-11 -65q-4 -21 -19 -33t-37 -12t-32.5 11.5t-10.5 29.5q0 8 1 12q25 128 56 316l9 54q4 26 9 56.5t10 67.5h-1
q-10 -2 -12 -2q-13 0 -18 9t-5 27q0 20 8 33t29 24q3 2 6.5 3t6.5 2l2 15q4 25 19.5 38t40.5 13q46 0 41 -26v-1q71 24 133 24q78 0 135.5 -25t88 -69.5t30.5 -101.5q0 -72 -45 -123zM249 582q-16 -128 -31 -211q45 -11 111 -11q90 0 149 38t59 106q0 49 -39.5 77.5
t-106.5 28.5q-64 0 -142 -28z" />
    <glyph glyph-name="Racute" unicode="&#x154;" horiz-adv-x="658" 
d="M604 381q-45 -51 -119 -77t-161 -26q-43 0 -85 9l297 -188q19 -12 19 -28q0 -23 -14.5 -41t-37.5 -18q-10 0 -21 4t-17 9l-275 189l-11 -61q-4 -21 -9 -49t-11 -65q-4 -21 -19 -33t-37 -12t-32.5 11.5t-10.5 29.5q0 8 1 12q25 128 56 316l9 54q4 26 9 56.5t10 67.5h-1
q-10 -2 -12 -2q-13 0 -18 9t-5 27q0 20 8 33t29 24q3 2 6.5 3t6.5 2l2 15q4 25 19.5 38t40.5 13q46 0 41 -26v-1q71 24 133 24q78 0 135.5 -25t88 -69.5t30.5 -101.5q0 -72 -45 -123zM249 582q-16 -128 -31 -211q45 -11 111 -11q90 0 149 38t59 106q0 49 -39.5 77.5
t-106.5 28.5q-64 0 -142 -28zM360 764q-9 10 -9 22q0 9 6 20.5t18 20.5l96 80q19 15 29 21t21 6q14 0 23 -10t9 -24q0 -25 -28 -46l-102 -80q-14 -11 -23 -15.5t-18 -4.5q-13 0 -22 10z" />
    <glyph glyph-name="Rcaron" unicode="&#x158;" horiz-adv-x="658" 
d="M604 381q-45 -51 -119 -77t-161 -26q-43 0 -85 9l297 -188q19 -12 19 -28q0 -23 -14.5 -41t-37.5 -18q-10 0 -21 4t-17 9l-275 189l-11 -61q-4 -21 -9 -49t-11 -65q-4 -21 -19 -33t-37 -12t-32.5 11.5t-10.5 29.5q0 8 1 12q25 128 56 316l9 54q4 26 9 56.5t10 67.5h-1
q-10 -2 -12 -2q-13 0 -18 9t-5 27q0 20 8 33t29 24q3 2 6.5 3t6.5 2l2 15q4 25 19.5 38t40.5 13q46 0 41 -26v-1q71 24 133 24q78 0 135.5 -25t88 -69.5t30.5 -101.5q0 -72 -45 -123zM249 582q-16 -128 -31 -211q45 -11 111 -11q90 0 149 38t59 106q0 49 -39.5 77.5
t-106.5 28.5q-64 0 -142 -28zM595.5 948.5q8.5 -8.5 8.5 -21.5q0 -9 -3.5 -15t-12.5 -17q-45 -50 -68.5 -73.5t-49.5 -40.5t-51 -17q-23 0 -49 28t-58 73q-9 13 -17 23t-8 25q1 15 15.5 27t29.5 12q9 0 16.5 -5.5t16.5 -16.5q30 -45 46.5 -66t24.5 -21q7 0 32 24.5t71 74.5
q14 15 35 15q13 0 21.5 -8.5z" />
    <glyph glyph-name="uni0156" unicode="&#x156;" horiz-adv-x="658" 
d="M604 381q-45 -51 -119 -77t-161 -26q-43 0 -85 9l297 -188q19 -12 19 -28q0 -23 -14.5 -41t-37.5 -18q-10 0 -21 4t-17 9l-275 189l-11 -61q-4 -21 -9 -49t-11 -65q-4 -21 -19 -33t-37 -12t-32.5 11.5t-10.5 29.5q0 8 1 12q25 128 56 316l9 54q4 26 9 56.5t10 67.5h-1
q-10 -2 -12 -2q-13 0 -18 9t-5 27q0 20 8 33t29 24q3 2 6.5 3t6.5 2l2 15q4 25 19.5 38t40.5 13q46 0 41 -26v-1q71 24 133 24q78 0 135.5 -25t88 -69.5t30.5 -101.5q0 -72 -45 -123zM249 582q-16 -128 -31 -211q45 -11 111 -11q90 0 149 38t59 106q0 49 -39.5 77.5
t-106.5 28.5q-64 0 -142 -28zM323.5 -84q15.5 -16 15.5 -40q0 -38 -34.5 -81t-81.5 -76q-12 -9 -24 -9q-10 0 -18.5 7.5t-8.5 18.5q0 12 8 20q6 6 25.5 24t32.5 33q-15 2 -24.5 15t-9.5 30q0 31 23 52.5t55 21.5q26 0 41.5 -16z" />
    <glyph glyph-name="uni1E5A" unicode="&#x1e5a;" horiz-adv-x="658" 
d="M604 381q-45 -51 -119 -77t-161 -26q-43 0 -85 9l297 -188q19 -12 19 -28q0 -23 -14.5 -41t-37.5 -18q-10 0 -21 4t-17 9l-275 189l-11 -61q-4 -21 -9 -49t-11 -65q-4 -21 -19 -33t-37 -12t-32.5 11.5t-10.5 29.5q0 8 1 12q25 128 56 316l9 54q4 26 9 56.5t10 67.5h-1
q-10 -2 -12 -2q-13 0 -18 9t-5 27q0 20 8 33t29 24q3 2 6.5 3t6.5 2l2 15q4 25 19.5 38t40.5 13q46 0 41 -26v-1q71 24 133 24q78 0 135.5 -25t88 -69.5t30.5 -101.5q0 -72 -45 -123zM249 582q-16 -128 -31 -211q45 -11 111 -11q90 0 149 38t59 106q0 49 -39.5 77.5
t-106.5 28.5q-64 0 -142 -28zM216 -177q-14 14 -14 37q0 30 22 51t52 21q23 0 37.5 -13.5t14.5 -35.5q0 -31 -22 -52.5t-52 -21.5q-24 0 -38 14z" />
    <glyph glyph-name="uni1E5C" unicode="&#x1e5c;" horiz-adv-x="658" 
d="M604 381q-45 -51 -119 -77t-161 -26q-43 0 -85 9l297 -188q19 -12 19 -28q0 -23 -14.5 -41t-37.5 -18q-10 0 -21 4t-17 9l-275 189l-11 -61q-4 -21 -9 -49t-11 -65q-4 -21 -19 -33t-37 -12t-32.5 11.5t-10.5 29.5q0 8 1 12q25 128 56 316l9 54q4 26 9 56.5t10 67.5h-1
q-10 -2 -12 -2q-13 0 -18 9t-5 27q0 20 8 33t29 24q3 2 6.5 3t6.5 2l2 15q4 25 19.5 38t40.5 13q46 0 41 -26v-1q71 24 133 24q78 0 135.5 -25t88 -69.5t30.5 -101.5q0 -72 -45 -123zM249 582q-16 -128 -31 -211q45 -11 111 -11q90 0 149 38t59 106q0 49 -39.5 77.5
t-106.5 28.5q-64 0 -142 -28zM216 -177q-14 14 -14 37q0 30 22 51t52 21q23 0 37.5 -13.5t14.5 -35.5q0 -31 -22 -52.5t-52 -21.5q-24 0 -38 14zM238.5 790q-6.5 8 -6.5 21q0 20 11.5 33t31.5 16q42 7 75.5 10.5t92.5 3.5h147q16 0 25.5 -9t9.5 -24q0 -20 -12.5 -32
t-34.5 -12q-20 0 -35 1l-102 1q-69 0 -153 -12l-31 -4q-12 -1 -18.5 7z" />
    <glyph glyph-name="uni1E5E" unicode="&#x1e5e;" horiz-adv-x="658" 
d="M604 381q-45 -51 -119 -77t-161 -26q-43 0 -85 9l297 -188q19 -12 19 -28q0 -23 -14.5 -41t-37.5 -18q-10 0 -21 4t-17 9l-275 189l-11 -61q-4 -21 -9 -49t-11 -65q-4 -21 -19 -33t-37 -12t-32.5 11.5t-10.5 29.5q0 8 1 12q25 128 56 316l9 54q4 26 9 56.5t10 67.5h-1
q-10 -2 -12 -2q-13 0 -18 9t-5 27q0 20 8 33t29 24q3 2 6.5 3t6.5 2l2 15q4 25 19.5 38t40.5 13q46 0 41 -26v-1q71 24 133 24q78 0 135.5 -25t88 -69.5t30.5 -101.5q0 -72 -45 -123zM249 582q-16 -128 -31 -211q45 -11 111 -11q90 0 149 38t59 106q0 49 -39.5 77.5
t-106.5 28.5q-64 0 -142 -28zM104 -167q-8 8 -8 22q0 18 11 31.5t27 15.5q75 9 186 9q35 0 73 -2q12 -1 29 -1q16 0 25 -9t9 -23q0 -20 -14 -32t-33 -12l-26 1q-57 3 -78 3q-49 0 -142 -8q-27 -3 -39 -3t-20 8z" />
    <glyph glyph-name="S" unicode="S" horiz-adv-x="584" 
d="M115 53q-60 53 -60 142q0 39 14 56.5t46 17.5q29 0 36.5 -13t7.5 -43q2 -123 116 -123q62 0 103 31t41 80q0 30 -17 49t-43 30.5t-74 27.5q-76 24 -128.5 64.5t-52.5 120.5q0 60 35 109.5t93.5 77.5t126.5 28q61 0 109.5 -22.5t75.5 -63t27 -90.5q0 -39 -16 -55t-45 -16
q-20 0 -29 6t-10.5 15.5t-1.5 28.5q0 46 -28.5 76.5t-82.5 30.5q-41 0 -76.5 -17.5t-56 -47t-20.5 -62.5q0 -26 14 -42t36.5 -26t66.5 -24q6 -3 12 -4.5t11 -3.5q72 -25 123 -67t51 -124q0 -60 -32 -105.5t-87 -70t-123 -24.5q-102 0 -162 53z" />
    <glyph glyph-name="Sacute" unicode="&#x15a;" horiz-adv-x="584" 
d="M115 53q-60 53 -60 142q0 39 14 56.5t46 17.5q29 0 36.5 -13t7.5 -43q2 -123 116 -123q62 0 103 31t41 80q0 30 -17 49t-43 30.5t-74 27.5q-76 24 -128.5 64.5t-52.5 120.5q0 60 35 109.5t93.5 77.5t126.5 28q61 0 109.5 -22.5t75.5 -63t27 -90.5q0 -39 -16 -55t-45 -16
q-20 0 -29 6t-10.5 15.5t-1.5 28.5q0 46 -28.5 76.5t-82.5 30.5q-41 0 -76.5 -17.5t-56 -47t-20.5 -62.5q0 -26 14 -42t36.5 -26t66.5 -24q6 -3 12 -4.5t11 -3.5q72 -25 123 -67t51 -124q0 -60 -32 -105.5t-87 -70t-123 -24.5q-102 0 -162 53zM327 764q-9 10 -9 22
q0 9 6 20.5t18 20.5l96 80q19 15 29 21t21 6q14 0 23 -10t9 -24q0 -25 -28 -46l-102 -80q-14 -11 -23 -15.5t-18 -4.5q-13 0 -22 10z" />
    <glyph glyph-name="Scaron" unicode="&#x160;" horiz-adv-x="584" 
d="M115 53q-60 53 -60 142q0 39 14 56.5t46 17.5q29 0 36.5 -13t7.5 -43q2 -123 116 -123q62 0 103 31t41 80q0 30 -17 49t-43 30.5t-74 27.5q-76 24 -128.5 64.5t-52.5 120.5q0 60 35 109.5t93.5 77.5t126.5 28q61 0 109.5 -22.5t75.5 -63t27 -90.5q0 -39 -16 -55t-45 -16
q-20 0 -29 6t-10.5 15.5t-1.5 28.5q0 46 -28.5 76.5t-82.5 30.5q-41 0 -76.5 -17.5t-56 -47t-20.5 -62.5q0 -26 14 -42t36.5 -26t66.5 -24q6 -3 12 -4.5t11 -3.5q72 -25 123 -67t51 -124q0 -60 -32 -105.5t-87 -70t-123 -24.5q-102 0 -162 53zM562.5 948.5
q8.5 -8.5 8.5 -21.5q0 -9 -3.5 -15t-12.5 -17q-45 -50 -68.5 -73.5t-49.5 -40.5t-51 -17q-23 0 -49 28t-58 73q-9 13 -17 23t-8 25q1 15 15.5 27t29.5 12q9 0 16.5 -5.5t16.5 -16.5q30 -45 46.5 -66t24.5 -21q7 0 32 24.5t71 74.5q14 15 35 15q13 0 21.5 -8.5z" />
    <glyph glyph-name="Scedilla" unicode="&#x15e;" horiz-adv-x="584" 
d="M481 467q-9 6 -10.5 15.5t-1.5 28.5q0 46 -28.5 76.5t-82.5 30.5q-41 0 -76.5 -17.5t-56 -47t-20.5 -62.5q0 -26 14 -42t36.5 -26t66.5 -24q6 -3 12 -4.5t11 -3.5q72 -25 123 -67t51 -124q0 -78 -52 -130t-135 -66l-50 -59q31 -8 52 -26.5t21 -50.5q0 -45 -39 -69
t-101 -24q-19 0 -42.5 4t-38.5 10q-20 9 -20 27q0 16 11 26.5t27 10.5q3 0 28.5 -6.5t41.5 -6.5q30 0 45.5 5.5t15.5 22.5q0 14 -12 19t-49 12q-14 1 -21.5 8.5t-7.5 17.5q0 9 4 17l49 59q-89 8 -140 60t-51 134q0 39 14 56.5t46 17.5q29 0 36.5 -13t7.5 -43
q2 -123 116 -123q62 0 103 31t41 80q0 30 -17 49t-43 30.5t-74 27.5q-76 24 -128.5 64.5t-52.5 120.5q0 60 35 109.5t93.5 77.5t126.5 28q61 0 109.5 -22.5t75.5 -63t27 -90.5q0 -39 -16 -55t-45 -16q-20 0 -29 6z" />
    <glyph glyph-name="Scircumflex" unicode="&#x15c;" horiz-adv-x="584" 
d="M115 53q-60 53 -60 142q0 39 14 56.5t46 17.5q29 0 36.5 -13t7.5 -43q2 -123 116 -123q62 0 103 31t41 80q0 30 -17 49t-43 30.5t-74 27.5q-76 24 -128.5 64.5t-52.5 120.5q0 60 35 109.5t93.5 77.5t126.5 28q61 0 109.5 -22.5t75.5 -63t27 -90.5q0 -39 -16 -55t-45 -16
q-20 0 -29 6t-10.5 15.5t-1.5 28.5q0 46 -28.5 76.5t-82.5 30.5q-41 0 -76.5 -17.5t-56 -47t-20.5 -62.5q0 -26 14 -42t36.5 -26t66.5 -24q6 -3 12 -4.5t11 -3.5q72 -25 123 -67t51 -124q0 -60 -32 -105.5t-87 -70t-123 -24.5q-102 0 -162 53zM480 774q-56 98 -68 98
q-7 0 -29.5 -20t-52.5 -48l-20 -18q-22 -22 -41 -22q-14 0 -23 9.5t-9 22.5q0 18 17 32q2 2 32 29q47 44 80.5 69.5t55.5 25.5q27 0 46 -20.5t47 -65.5q11 -19 30 -46q7 -9 7 -19q0 -16 -13 -29t-29 -13q-20 0 -30 15z" />
    <glyph glyph-name="uni0218" unicode="&#x218;" horiz-adv-x="584" 
d="M115 53q-60 53 -60 142q0 39 14 56.5t46 17.5q29 0 36.5 -13t7.5 -43q2 -123 116 -123q62 0 103 31t41 80q0 30 -17 49t-43 30.5t-74 27.5q-76 24 -128.5 64.5t-52.5 120.5q0 60 35 109.5t93.5 77.5t126.5 28q61 0 109.5 -22.5t75.5 -63t27 -90.5q0 -39 -16 -55t-45 -16
q-20 0 -29 6t-10.5 15.5t-1.5 28.5q0 46 -28.5 76.5t-82.5 30.5q-41 0 -76.5 -17.5t-56 -47t-20.5 -62.5q0 -26 14 -42t36.5 -26t66.5 -24q6 -3 12 -4.5t11 -3.5q72 -25 123 -67t51 -124q0 -60 -32 -105.5t-87 -70t-123 -24.5q-102 0 -162 53zM323.5 -84q15.5 -16 15.5 -40
q0 -38 -34.5 -81t-81.5 -76q-12 -9 -24 -9q-10 0 -18.5 7.5t-8.5 18.5q0 12 8 20q6 6 25.5 24t32.5 33q-15 2 -24.5 15t-9.5 30q0 31 23 52.5t55 21.5q26 0 41.5 -16z" />
    <glyph glyph-name="uni1E60" unicode="&#x1e60;" horiz-adv-x="584" 
d="M115 53q-60 53 -60 142q0 39 14 56.5t46 17.5q29 0 36.5 -13t7.5 -43q2 -123 116 -123q62 0 103 31t41 80q0 30 -17 49t-43 30.5t-74 27.5q-76 24 -128.5 64.5t-52.5 120.5q0 60 35 109.5t93.5 77.5t126.5 28q61 0 109.5 -22.5t75.5 -63t27 -90.5q0 -39 -16 -55t-45 -16
q-20 0 -29 6t-10.5 15.5t-1.5 28.5q0 46 -28.5 76.5t-82.5 30.5q-41 0 -76.5 -17.5t-56 -47t-20.5 -62.5q0 -26 14 -42t36.5 -26t66.5 -24q6 -3 12 -4.5t11 -3.5q72 -25 123 -67t51 -124q0 -60 -32 -105.5t-87 -70t-123 -24.5q-102 0 -162 53zM354 785q-15 15 -15 38
q0 28 22.5 49t51.5 21q22 0 37 -14t15 -35q0 -29 -22 -51.5t-51 -22.5q-23 0 -38 15z" />
    <glyph glyph-name="uni1E62" unicode="&#x1e62;" horiz-adv-x="584" 
d="M115 53q-60 53 -60 142q0 39 14 56.5t46 17.5q29 0 36.5 -13t7.5 -43q2 -123 116 -123q62 0 103 31t41 80q0 30 -17 49t-43 30.5t-74 27.5q-76 24 -128.5 64.5t-52.5 120.5q0 60 35 109.5t93.5 77.5t126.5 28q61 0 109.5 -22.5t75.5 -63t27 -90.5q0 -39 -16 -55t-45 -16
q-20 0 -29 6t-10.5 15.5t-1.5 28.5q0 46 -28.5 76.5t-82.5 30.5q-41 0 -76.5 -17.5t-56 -47t-20.5 -62.5q0 -26 14 -42t36.5 -26t66.5 -24q6 -3 12 -4.5t11 -3.5q72 -25 123 -67t51 -124q0 -60 -32 -105.5t-87 -70t-123 -24.5q-102 0 -162 53zM216 -177q-14 14 -14 37
q0 30 22 51t52 21q23 0 37.5 -13.5t14.5 -35.5q0 -31 -22 -52.5t-52 -21.5q-24 0 -38 14z" />
    <glyph glyph-name="uni1E9E" unicode="&#x1e9e;" horiz-adv-x="703" 
d="M311.5 30q-47.5 32 -69.5 70q-8 13 -15.5 31.5t-6.5 26.5q2 20 19.5 34t37.5 14q16 0 24 -7t17 -24q8 -16 14 -24q19 -28 45.5 -46.5t58.5 -18.5q37 0 63 22t26 54q0 24 -15.5 44.5t-47.5 50.5q-39 37 -59.5 66.5t-20.5 68.5q0 32 14.5 59t42.5 63q21 27 31.5 44.5
t10.5 34.5q0 30 -27 53.5t-74 23.5q-56 0 -96 -47t-55 -132q-6 -34 -21 -139q-29 -195 -48 -302q-4 -25 -19.5 -37.5t-47.5 -12.5q-24 0 -36 12.5t-9 33.5l72 454q19 113 87.5 184t172.5 71q57 0 106 -20.5t78 -57.5t29 -83q0 -35 -15.5 -63t-43.5 -61q-20 -24 -29.5 -39.5
t-9.5 -31.5q0 -24 15 -44t45 -47q40 -38 61.5 -70t21.5 -76q0 -77 -58 -120.5t-144 -43.5q-77 0 -124.5 32z" />
    <glyph glyph-name="uni018F" unicode="&#x18f;" horiz-adv-x="788" 
d="M199.5 23.5q-68.5 32.5 -107.5 87.5t-39 121q0 64 21 94.5t67 31.5l500 5q6 0 7.5 2.5t3.5 9.5q4 30 4 44q0 84 -59 133.5t-156 49.5q-60 0 -103 -19t-68.5 -42.5t-58.5 -62.5q-19 -25 -42 -25q-19 0 -36.5 12.5t-17.5 28.5q0 17 19 41q57 76 136 117.5t176 41.5
q90 0 160 -36t109.5 -101t39.5 -149q0 -117 -52.5 -212.5t-144.5 -150t-205 -54.5q-85 0 -153.5 32.5zM483 103q64 32 105 81t41 95q0 5 -3.5 6.5t-11.5 1.5l-437 -8q-26 0 -26 -54q0 -41 26.5 -76.5t73 -56.5t102.5 -21q66 0 130 32z" />
    <glyph glyph-name="T" unicode="T" horiz-adv-x="568" 
d="M598 680q10 -8 10 -27q0 -25 -16.5 -40.5t-43.5 -14.5q-70 6 -147 8q-27 -110 -60 -269q-41 -203 -58 -297q-5 -27 -17.5 -38.5t-42.5 -11.5q-24 0 -35 9t-11 28q0 10 3 22q34 172 61 287l50 221l11 48q-54 -1 -158 -10q-18 -2 -29 8t-11 31q0 22 13 35t36 16
q99 12 220 12q49 0 110.5 -2t86.5 -5q18 -2 28 -10z" />
    <glyph glyph-name="Tbar" unicode="&#x166;" horiz-adv-x="568" 
d="M598 680q10 -8 10 -27q0 -25 -16.5 -40.5t-43.5 -14.5q-70 6 -147 8q-16 -63 -39 -171l88 -3q36 -2 36 -30q0 -21 -14 -34.5t-35 -13.5l-92 3l-4 -20q-41 -203 -58 -297q-5 -27 -17.5 -38.5t-42.5 -11.5q-24 0 -35 9t-11 28q0 10 3 22q34 172 61 287l6 25l-91 3
q-15 0 -24 9t-9 22q0 20 14.5 32.5t34.5 12.5l92 -3l38 168q-54 -1 -158 -10q-18 -2 -29 8t-11 31q0 22 13 35t36 16q99 12 220 12q49 0 110.5 -2t86.5 -5q18 -2 28 -10z" />
    <glyph glyph-name="Tcaron" unicode="&#x164;" horiz-adv-x="568" 
d="M598 680q10 -8 10 -27q0 -25 -16.5 -40.5t-43.5 -14.5q-70 6 -147 8q-27 -110 -60 -269q-41 -203 -58 -297q-5 -27 -17.5 -38.5t-42.5 -11.5q-24 0 -35 9t-11 28q0 10 3 22q34 172 61 287l50 221l11 48q-54 -1 -158 -10q-18 -2 -29 8t-11 31q0 22 13 35t36 16
q99 12 220 12q49 0 110.5 -2t86.5 -5q18 -2 28 -10zM538.5 948.5q8.5 -8.5 8.5 -21.5q0 -9 -3.5 -15t-12.5 -17q-45 -50 -68.5 -73.5t-49.5 -40.5t-51 -17q-23 0 -49 28t-58 73q-9 13 -17 23t-8 25q1 15 15.5 27t29.5 12q9 0 16.5 -5.5t16.5 -16.5q30 -45 46.5 -66t24.5 -21
q7 0 32 24.5t71 74.5q14 15 35 15q13 0 21.5 -8.5z" />
    <glyph glyph-name="uni0162" unicode="&#x162;" horiz-adv-x="568" 
d="M598 680q10 -8 10 -27q0 -25 -16.5 -40.5t-43.5 -14.5q-70 6 -147 8q-27 -110 -60 -269q-41 -203 -58 -297q-6 -33 -26 -44l-42 -51q30 -8 51 -27t21 -50q0 -45 -39 -69t-100 -24q-19 0 -42.5 4t-38.5 10q-20 9 -20 27q0 16 10.5 26.5t26.5 10.5q1 0 21 -4q32 -9 50 -9
q30 0 45.5 5.5t15.5 22.5q0 14 -12 19t-49 12q-14 1 -22 8.5t-8 17.5q0 7 5 17l52 64q-5 8 -5 20q0 10 3 23q34 172 61 287l50 221l11 48q-54 -1 -158 -10q-18 -2 -29 8t-11 31q0 22 13 35t36 16q99 12 220 12q49 0 110.5 -2t86.5 -5q18 -2 28 -10z" />
    <glyph glyph-name="uni021A" unicode="&#x21a;" horiz-adv-x="568" 
d="M598 680q10 -8 10 -27q0 -25 -16.5 -40.5t-43.5 -14.5q-70 6 -147 8q-27 -110 -60 -269q-41 -203 -58 -297q-5 -27 -17.5 -38.5t-42.5 -11.5q-24 0 -35 9t-11 28q0 10 3 22q34 172 61 287l50 221l11 48q-54 -1 -158 -10q-18 -2 -29 8t-11 31q0 22 13 35t36 16
q99 12 220 12q49 0 110.5 -2t86.5 -5q18 -2 28 -10zM256.5 -84q15.5 -16 15.5 -40q0 -38 -34.5 -81t-81.5 -76q-12 -9 -24 -9q-10 0 -18.5 7.5t-8.5 18.5q0 12 8 20q6 6 25.5 24t32.5 33q-15 2 -24.5 15t-9.5 30q0 31 23 52.5t55 21.5q26 0 41.5 -16z" />
    <glyph glyph-name="uni1E6C" unicode="&#x1e6c;" horiz-adv-x="568" 
d="M598 680q10 -8 10 -27q0 -25 -16.5 -40.5t-43.5 -14.5q-70 6 -147 8q-27 -110 -60 -269q-41 -203 -58 -297q-5 -27 -17.5 -38.5t-42.5 -11.5q-24 0 -35 9t-11 28q0 10 3 22q34 172 61 287l50 221l11 48q-54 -1 -158 -10q-18 -2 -29 8t-11 31q0 22 13 35t36 16
q99 12 220 12q49 0 110.5 -2t86.5 -5q18 -2 28 -10zM149 -177q-14 14 -14 37q0 30 22 51t52 21q23 0 37.5 -13.5t14.5 -35.5q0 -31 -22 -52.5t-52 -21.5q-24 0 -38 14z" />
    <glyph glyph-name="uni1E6E" unicode="&#x1e6e;" horiz-adv-x="568" 
d="M598 680q10 -8 10 -27q0 -25 -16.5 -40.5t-43.5 -14.5q-70 6 -147 8q-27 -110 -60 -269q-41 -203 -58 -297q-5 -27 -17.5 -38.5t-42.5 -11.5q-24 0 -35 9t-11 28q0 10 3 22q34 172 61 287l50 221l11 48q-54 -1 -158 -10q-18 -2 -29 8t-11 31q0 22 13 35t36 16
q99 12 220 12q49 0 110.5 -2t86.5 -5q18 -2 28 -10zM37 -167q-8 8 -8 22q0 18 11 31.5t27 15.5q75 9 186 9q35 0 73 -2q12 -1 29 -1q16 0 25 -9t9 -23q0 -20 -14 -32t-33 -12l-26 1q-57 3 -78 3q-49 0 -142 -8q-27 -3 -39 -3t-20 8z" />
    <glyph glyph-name="U" unicode="U" horiz-adv-x="679" 
d="M665 698.5q12 -10.5 12 -27.5q0 -6 -1 -9q-18 -95 -34 -194q-4 -31 -7 -44q-9 -62 -45 -273l-18 -105q-5 -26 -17.5 -37.5t-37.5 -11.5q-45 0 -45 36q0 9 1 13q4 22 6 35t3 20q-33 -44 -85 -72t-115 -28q-69 0 -117 28t-71.5 74t-23.5 101q0 38 16.5 127t56.5 284l9 45
q8 43 58 43q42 0 42 -32q0 -8 -1 -12q-44 -205 -61.5 -305t-17.5 -146q0 -53 29.5 -84.5t82.5 -31.5q51 0 101 29.5t85.5 78t45.5 101.5q21 113 62 363q3 21 16.5 33t36.5 12q22 0 34 -10.5z" />
    <glyph glyph-name="Uacute" unicode="&#xda;" horiz-adv-x="679" 
d="M665 698.5q12 -10.5 12 -27.5q0 -6 -1 -9q-18 -95 -34 -194q-4 -31 -7 -44q-9 -62 -45 -273l-18 -105q-5 -26 -17.5 -37.5t-37.5 -11.5q-45 0 -45 36q0 9 1 13q4 22 6 35t3 20q-33 -44 -85 -72t-115 -28q-69 0 -117 28t-71.5 74t-23.5 101q0 38 16.5 127t56.5 284l9 45
q8 43 58 43q42 0 42 -32q0 -8 -1 -12q-44 -205 -61.5 -305t-17.5 -146q0 -53 29.5 -84.5t82.5 -31.5q51 0 101 29.5t85.5 78t45.5 101.5q21 113 62 363q3 21 16.5 33t36.5 12q22 0 34 -10.5zM366 764q-9 10 -9 22q0 9 6 20.5t18 20.5l96 80q19 15 29 21t21 6q14 0 23 -10
t9 -24q0 -25 -28 -46l-102 -80q-14 -11 -23 -15.5t-18 -4.5q-13 0 -22 10z" />
    <glyph glyph-name="Ubreve" unicode="&#x16c;" horiz-adv-x="679" 
d="M665 698.5q12 -10.5 12 -27.5q0 -6 -1 -9q-18 -95 -34 -194q-4 -31 -7 -44q-9 -62 -45 -273l-18 -105q-5 -26 -17.5 -37.5t-37.5 -11.5q-45 0 -45 36q0 9 1 13q4 22 6 35t3 20q-33 -44 -85 -72t-115 -28q-69 0 -117 28t-71.5 74t-23.5 101q0 38 16.5 127t56.5 284l9 45
q8 43 58 43q42 0 42 -32q0 -8 -1 -12q-44 -205 -61.5 -305t-17.5 -146q0 -53 29.5 -84.5t82.5 -31.5q51 0 101 29.5t85.5 78t45.5 101.5q21 113 62 363q3 21 16.5 33t36.5 12q22 0 34 -10.5zM359 775.5q-34 15.5 -53.5 42.5t-19.5 60q0 14 5 26q5 15 15.5 23t24.5 8
q13 0 23 -6t9 -17q-1 -5 -1 -14q1 -34 22.5 -53t56.5 -19q34 0 64 23.5t37 59.5q3 14 16 21.5t27 7.5t23 -9.5t8 -23.5q-4 -37 -30.5 -70.5t-66.5 -54t-83 -20.5t-77 15.5z" />
    <glyph glyph-name="uni01D3" unicode="&#x1d3;" horiz-adv-x="679" 
d="M665 698.5q12 -10.5 12 -27.5q0 -6 -1 -9q-18 -95 -34 -194q-4 -31 -7 -44q-9 -62 -45 -273l-18 -105q-5 -26 -17.5 -37.5t-37.5 -11.5q-45 0 -45 36q0 9 1 13q4 22 6 35t3 20q-33 -44 -85 -72t-115 -28q-69 0 -117 28t-71.5 74t-23.5 101q0 38 16.5 127t56.5 284l9 45
q8 43 58 43q42 0 42 -32q0 -8 -1 -12q-44 -205 -61.5 -305t-17.5 -146q0 -53 29.5 -84.5t82.5 -31.5q51 0 101 29.5t85.5 78t45.5 101.5q21 113 62 363q3 21 16.5 33t36.5 12q22 0 34 -10.5zM601.5 948.5q8.5 -8.5 8.5 -21.5q0 -9 -3.5 -15t-12.5 -17q-45 -50 -68.5 -73.5
t-49.5 -40.5t-51 -17q-23 0 -49 28t-58 73q-9 13 -17 23t-8 25q1 15 15.5 27t29.5 12q9 0 16.5 -5.5t16.5 -16.5q30 -45 46.5 -66t24.5 -21q7 0 32 24.5t71 74.5q14 15 35 15q13 0 21.5 -8.5z" />
    <glyph glyph-name="Ucircumflex" unicode="&#xdb;" horiz-adv-x="679" 
d="M665 698.5q12 -10.5 12 -27.5q0 -6 -1 -9q-18 -95 -34 -194q-4 -31 -7 -44q-9 -62 -45 -273l-18 -105q-5 -26 -17.5 -37.5t-37.5 -11.5q-45 0 -45 36q0 9 1 13q4 22 6 35t3 20q-33 -44 -85 -72t-115 -28q-69 0 -117 28t-71.5 74t-23.5 101q0 38 16.5 127t56.5 284l9 45
q8 43 58 43q42 0 42 -32q0 -8 -1 -12q-44 -205 -61.5 -305t-17.5 -146q0 -53 29.5 -84.5t82.5 -31.5q51 0 101 29.5t85.5 78t45.5 101.5q21 113 62 363q3 21 16.5 33t36.5 12q22 0 34 -10.5zM519 774q-56 98 -68 98q-7 0 -29.5 -20t-52.5 -48l-20 -18q-22 -22 -41 -22
q-14 0 -23 9.5t-9 22.5q0 18 17 32q2 2 32 29q47 44 80.5 69.5t55.5 25.5q27 0 46 -20.5t47 -65.5q11 -19 30 -46q7 -9 7 -19q0 -16 -13 -29t-29 -13q-20 0 -30 15z" />
    <glyph glyph-name="Udieresis" unicode="&#xdc;" horiz-adv-x="679" 
d="M665 698.5q12 -10.5 12 -27.5q0 -6 -1 -9q-18 -95 -34 -194q-4 -31 -7 -44q-9 -62 -45 -273l-18 -105q-5 -26 -17.5 -37.5t-37.5 -11.5q-45 0 -45 36q0 9 1 13q4 22 6 35t3 20q-33 -44 -85 -72t-115 -28q-69 0 -117 28t-71.5 74t-23.5 101q0 38 16.5 127t56.5 284l9 45
q8 43 58 43q42 0 42 -32q0 -8 -1 -12q-44 -205 -61.5 -305t-17.5 -146q0 -53 29.5 -84.5t82.5 -31.5q51 0 101 29.5t85.5 78t45.5 101.5q21 113 62 363q3 21 16.5 33t36.5 12q22 0 34 -10.5zM268 785.5q-15 14.5 -15 36.5q0 29 22.5 50.5t51.5 21.5q22 0 37.5 -15t15.5 -36
q0 -28 -23 -50t-51 -22q-23 0 -38 14.5zM520 785.5q-15 14.5 -15 36.5q0 29 22.5 50.5t51.5 21.5q22 0 37 -14.5t15 -36.5q0 -28 -22.5 -50t-50.5 -22q-23 0 -38 14.5z" />
    <glyph glyph-name="uni01D7" unicode="&#x1d7;" horiz-adv-x="679" 
d="M665 698.5q12 -10.5 12 -27.5q0 -6 -1 -9q-18 -95 -34 -194q-4 -31 -7 -44q-9 -62 -45 -273l-18 -105q-5 -26 -17.5 -37.5t-37.5 -11.5q-45 0 -45 36q0 9 1 13q4 22 6 35t3 20q-33 -44 -85 -72t-115 -28q-69 0 -117 28t-71.5 74t-23.5 101q0 38 16.5 127t56.5 284l9 45
q8 43 58 43q42 0 42 -32q0 -8 -1 -12q-44 -205 -61.5 -305t-17.5 -146q0 -53 29.5 -84.5t82.5 -31.5q51 0 101 29.5t85.5 78t45.5 101.5q21 113 62 363q3 21 16.5 33t36.5 12q22 0 34 -10.5zM270 785.5q-15 14.5 -15 36.5q0 29 22.5 50.5t51.5 21.5q22 0 37.5 -15t15.5 -36
q0 -28 -23 -50t-51 -22q-23 0 -38 14.5zM522 785.5q-15 14.5 -15 36.5q0 29 22.5 50.5t51.5 21.5q22 0 37 -14.5t15 -36.5q0 -28 -22.5 -50t-50.5 -22q-23 0 -38 14.5zM419 910q-9 10 -9 22q0 9 6 20.5t18 20.5l96 80q19 15 29 21t21 6q14 0 23 -10t9 -24q0 -25 -28 -46
l-102 -80q-14 -11 -23 -15.5t-18 -4.5q-13 0 -22 10z" />
    <glyph glyph-name="uni01D9" unicode="&#x1d9;" horiz-adv-x="679" 
d="M665 698.5q12 -10.5 12 -27.5q0 -6 -1 -9q-18 -95 -34 -194q-4 -31 -7 -44q-9 -62 -45 -273l-18 -105q-5 -26 -17.5 -37.5t-37.5 -11.5q-45 0 -45 36q0 9 1 13q4 22 6 35t3 20q-33 -44 -85 -72t-115 -28q-69 0 -117 28t-71.5 74t-23.5 101q0 38 16.5 127t56.5 284l9 45
q8 43 58 43q42 0 42 -32q0 -8 -1 -12q-44 -205 -61.5 -305t-17.5 -146q0 -53 29.5 -84.5t82.5 -31.5q51 0 101 29.5t85.5 78t45.5 101.5q21 113 62 363q3 21 16.5 33t36.5 12q22 0 34 -10.5zM270 785.5q-15 14.5 -15 36.5q0 29 22.5 50.5t51.5 21.5q22 0 37.5 -15t15.5 -36
q0 -28 -23 -50t-51 -22q-23 0 -38 14.5zM522 785.5q-15 14.5 -15 36.5q0 29 22.5 50.5t51.5 21.5q22 0 37 -14.5t15 -36.5q0 -28 -22.5 -50t-50.5 -22q-23 0 -38 14.5zM625.5 1094.5q8.5 -8.5 8.5 -21.5q0 -9 -3.5 -15t-12.5 -17q-45 -50 -68.5 -73.5t-49.5 -40.5t-51 -17
q-23 0 -49 28t-58 73q-9 13 -17 23t-8 25q1 15 15.5 27t29.5 12q9 0 16.5 -5.5t16.5 -16.5q30 -45 46.5 -66t24.5 -21q7 0 32 24.5t71 74.5q14 15 35 15q13 0 21.5 -8.5z" />
    <glyph glyph-name="uni01DB" unicode="&#x1db;" horiz-adv-x="679" 
d="M665 698.5q12 -10.5 12 -27.5q0 -6 -1 -9q-18 -95 -34 -194q-4 -31 -7 -44q-9 -62 -45 -273l-18 -105q-5 -26 -17.5 -37.5t-37.5 -11.5q-45 0 -45 36q0 9 1 13q4 22 6 35t3 20q-33 -44 -85 -72t-115 -28q-69 0 -117 28t-71.5 74t-23.5 101q0 38 16.5 127t56.5 284l9 45
q8 43 58 43q42 0 42 -32q0 -8 -1 -12q-44 -205 -61.5 -305t-17.5 -146q0 -53 29.5 -84.5t82.5 -31.5q51 0 101 29.5t85.5 78t45.5 101.5q21 113 62 363q3 21 16.5 33t36.5 12q22 0 34 -10.5zM270 785.5q-15 14.5 -15 36.5q0 29 22.5 50.5t51.5 21.5q22 0 37.5 -15t15.5 -36
q0 -28 -23 -50t-51 -22q-23 0 -38 14.5zM522 785.5q-15 14.5 -15 36.5q0 29 22.5 50.5t51.5 21.5q22 0 37 -14.5t15 -36.5q0 -28 -22.5 -50t-50.5 -22q-23 0 -38 14.5zM434.5 915q-7.5 4 -15.5 14l-64 86q-13 19 -13 32q0 19 13.5 32t30.5 13q11 0 20 -6.5t18 -20.5l58 -85
q11 -14 11 -28q0 -16 -12.5 -28.5t-29.5 -12.5q-9 0 -16.5 4z" />
    <glyph glyph-name="uni01D5" unicode="&#x1d5;" horiz-adv-x="679" 
d="M665 698.5q12 -10.5 12 -27.5q0 -6 -1 -9q-18 -95 -34 -194q-4 -31 -7 -44q-9 -62 -45 -273l-18 -105q-5 -26 -17.5 -37.5t-37.5 -11.5q-45 0 -45 36q0 9 1 13q4 22 6 35t3 20q-33 -44 -85 -72t-115 -28q-69 0 -117 28t-71.5 74t-23.5 101q0 38 16.5 127t56.5 284l9 45
q8 43 58 43q42 0 42 -32q0 -8 -1 -12q-44 -205 -61.5 -305t-17.5 -146q0 -53 29.5 -84.5t82.5 -31.5q51 0 101 29.5t85.5 78t45.5 101.5q21 113 62 363q3 21 16.5 33t36.5 12q22 0 34 -10.5zM270 785.5q-15 14.5 -15 36.5q0 29 22.5 50.5t51.5 21.5q22 0 37.5 -15t15.5 -36
q0 -28 -23 -50t-51 -22q-23 0 -38 14.5zM522 785.5q-15 14.5 -15 36.5q0 29 22.5 50.5t51.5 21.5q22 0 37 -14.5t15 -36.5q0 -28 -22.5 -50t-50.5 -22q-23 0 -38 14.5zM360 942q-29 0 -51 9q-22 8 -22 30q0 21 15 34t35 11q37 -7 70 -7q22 0 68 4q50 4 78 4q21 0 63 -4
q13 -2 21.5 -11t8.5 -22q0 -20 -16.5 -33t-32.5 -10q-20 4 -52 4q-29 0 -73 -4q-42 -4 -67 -4z" />
    <glyph glyph-name="uni1EE4" unicode="&#x1ee4;" horiz-adv-x="679" 
d="M665 698.5q12 -10.5 12 -27.5q0 -6 -1 -9q-18 -95 -34 -194q-4 -31 -7 -44q-9 -62 -45 -273l-18 -105q-5 -26 -17.5 -37.5t-37.5 -11.5q-45 0 -45 36q0 9 1 13q4 22 6 35t3 20q-33 -44 -85 -72t-115 -28q-69 0 -117 28t-71.5 74t-23.5 101q0 38 16.5 127t56.5 284l9 45
q8 43 58 43q42 0 42 -32q0 -8 -1 -12q-44 -205 -61.5 -305t-17.5 -146q0 -53 29.5 -84.5t82.5 -31.5q51 0 101 29.5t85.5 78t45.5 101.5q21 113 62 363q3 21 16.5 33t36.5 12q22 0 34 -10.5zM222 -177q-14 14 -14 37q0 30 22 51t52 21q23 0 37.5 -13.5t14.5 -35.5
q0 -31 -22 -52.5t-52 -21.5q-24 0 -38 14z" />
    <glyph glyph-name="Ugrave" unicode="&#xd9;" horiz-adv-x="679" 
d="M665 698.5q12 -10.5 12 -27.5q0 -6 -1 -9q-18 -95 -34 -194q-4 -31 -7 -44q-9 -62 -45 -273l-18 -105q-5 -26 -17.5 -37.5t-37.5 -11.5q-45 0 -45 36q0 9 1 13q4 22 6 35t3 20q-33 -44 -85 -72t-115 -28q-69 0 -117 28t-71.5 74t-23.5 101q0 38 16.5 127t56.5 284l9 45
q8 43 58 43q42 0 42 -32q0 -8 -1 -12q-44 -205 -61.5 -305t-17.5 -146q0 -53 29.5 -84.5t82.5 -31.5q51 0 101 29.5t85.5 78t45.5 101.5q21 113 62 363q3 21 16.5 33t36.5 12q22 0 34 -10.5zM456.5 759q-7.5 4 -15.5 14l-64 86q-13 19 -13 32q0 19 13.5 32t30.5 13
q11 0 20 -6.5t18 -20.5l58 -85q11 -14 11 -28q0 -16 -12.5 -28.5t-29.5 -12.5q-9 0 -16.5 4z" />
    <glyph glyph-name="uni1EE6" unicode="&#x1ee6;" horiz-adv-x="679" 
d="M665 698.5q12 -10.5 12 -27.5q0 -6 -1 -9q-18 -95 -34 -194q-4 -31 -7 -44q-9 -62 -45 -273l-18 -105q-5 -26 -17.5 -37.5t-37.5 -11.5q-45 0 -45 36q0 9 1 13q4 22 6 35t3 20q-33 -44 -85 -72t-115 -28q-69 0 -117 28t-71.5 74t-23.5 101q0 38 16.5 127t56.5 284l9 45
q8 43 58 43q42 0 42 -32q0 -8 -1 -12q-44 -205 -61.5 -305t-17.5 -146q0 -53 29.5 -84.5t82.5 -31.5q51 0 101 29.5t85.5 78t45.5 101.5q21 113 62 363q3 21 16.5 33t36.5 12q22 0 34 -10.5zM403 766.5q-10 10.5 -7 25.5q4 23 8 42q2 12 12.5 21.5t31.5 23.5t32.5 26
t11.5 25q0 14 -11 23.5t-32 9.5q-22 0 -37.5 -10.5t-29.5 -28.5q-15 -20 -31 -20q-11 0 -20 8t-9 17q0 14 13 30q26 33 55.5 50.5t71.5 17.5q49 0 80 -23t31 -60q0 -32 -16 -51t-44 -37q-11 -7 -19.5 -13.5t-9.5 -13.5l-6 -35q-3 -19 -16.5 -28.5t-31.5 -9.5q-17 0 -27 10.5
z" />
    <glyph glyph-name="Uhorn" unicode="&#x1af;" horiz-adv-x="748" 
d="M812 706q7 -8 6 -23q-7 -68 -52.5 -124t-120.5 -75l-10 -60q-9 -62 -45 -273l-18 -105q-5 -26 -17.5 -37.5t-37.5 -11.5q-45 0 -45 36q0 9 1 13q4 22 6 35t3 20q-33 -44 -85 -72t-115 -28q-69 0 -117 28t-71.5 74t-23.5 101q0 38 16.5 127t56.5 284l9 45q8 43 58 43
q42 0 42 -32q0 -8 -1 -12q-44 -205 -61.5 -305t-17.5 -146q0 -53 29.5 -84.5t82.5 -31.5q51 0 101 29.5t85.5 78t45.5 101.5q21 113 62 363q3 21 16.5 33t36.5 12q22 0 34 -10.5t12 -27.5q0 -6 -1 -9q-6 -33 -20 -113q37 16 62 50t33 81q6 34 39 34q15 0 22 -8z" />
    <glyph glyph-name="uni1EE8" unicode="&#x1ee8;" horiz-adv-x="748" 
d="M812 706q7 -8 6 -23q-7 -68 -52.5 -124t-120.5 -75l-10 -60q-9 -62 -45 -273l-18 -105q-5 -26 -17.5 -37.5t-37.5 -11.5q-45 0 -45 36q0 9 1 13q4 22 6 35t3 20q-33 -44 -85 -72t-115 -28q-69 0 -117 28t-71.5 74t-23.5 101q0 38 16.5 127t56.5 284l9 45q8 43 58 43
q42 0 42 -32q0 -8 -1 -12q-44 -205 -61.5 -305t-17.5 -146q0 -53 29.5 -84.5t82.5 -31.5q51 0 101 29.5t85.5 78t45.5 101.5q21 113 62 363q3 21 16.5 33t36.5 12q22 0 34 -10.5t12 -27.5q0 -6 -1 -9q-6 -33 -20 -113q37 16 62 50t33 81q6 34 39 34q15 0 22 -8zM366 764
q-9 10 -9 22q0 9 6 20.5t18 20.5l96 80q19 15 29 21t21 6q14 0 23 -10t9 -24q0 -25 -28 -46l-102 -80q-14 -11 -23 -15.5t-18 -4.5q-13 0 -22 10z" />
    <glyph glyph-name="uni1EF0" unicode="&#x1ef0;" horiz-adv-x="748" 
d="M812 706q7 -8 6 -23q-7 -68 -52.5 -124t-120.5 -75l-10 -60q-9 -62 -45 -273l-18 -105q-5 -26 -17.5 -37.5t-37.5 -11.5q-45 0 -45 36q0 9 1 13q4 22 6 35t3 20q-33 -44 -85 -72t-115 -28q-69 0 -117 28t-71.5 74t-23.5 101q0 38 16.5 127t56.5 284l9 45q8 43 58 43
q42 0 42 -32q0 -8 -1 -12q-44 -205 -61.5 -305t-17.5 -146q0 -53 29.5 -84.5t82.5 -31.5q51 0 101 29.5t85.5 78t45.5 101.5q21 113 62 363q3 21 16.5 33t36.5 12q22 0 34 -10.5t12 -27.5q0 -6 -1 -9q-6 -33 -20 -113q37 16 62 50t33 81q6 34 39 34q15 0 22 -8zM222 -177
q-14 14 -14 37q0 30 22 51t52 21q23 0 37.5 -13.5t14.5 -35.5q0 -31 -22 -52.5t-52 -21.5q-24 0 -38 14z" />
    <glyph glyph-name="uni1EEA" unicode="&#x1eea;" horiz-adv-x="748" 
d="M812 706q7 -8 6 -23q-7 -68 -52.5 -124t-120.5 -75l-10 -60q-9 -62 -45 -273l-18 -105q-5 -26 -17.5 -37.5t-37.5 -11.5q-45 0 -45 36q0 9 1 13q4 22 6 35t3 20q-33 -44 -85 -72t-115 -28q-69 0 -117 28t-71.5 74t-23.5 101q0 38 16.5 127t56.5 284l9 45q8 43 58 43
q42 0 42 -32q0 -8 -1 -12q-44 -205 -61.5 -305t-17.5 -146q0 -53 29.5 -84.5t82.5 -31.5q51 0 101 29.5t85.5 78t45.5 101.5q21 113 62 363q3 21 16.5 33t36.5 12q22 0 34 -10.5t12 -27.5q0 -6 -1 -9q-6 -33 -20 -113q37 16 62 50t33 81q6 34 39 34q15 0 22 -8zM456.5 759
q-7.5 4 -15.5 14l-64 86q-13 19 -13 32q0 19 13.5 32t30.5 13q11 0 20 -6.5t18 -20.5l58 -85q11 -14 11 -28q0 -16 -12.5 -28.5t-29.5 -12.5q-9 0 -16.5 4z" />
    <glyph glyph-name="uni1EEC" unicode="&#x1eec;" horiz-adv-x="748" 
d="M812 706q7 -8 6 -23q-7 -68 -52.5 -124t-120.5 -75l-10 -60q-9 -62 -45 -273l-18 -105q-5 -26 -17.5 -37.5t-37.5 -11.5q-45 0 -45 36q0 9 1 13q4 22 6 35t3 20q-33 -44 -85 -72t-115 -28q-69 0 -117 28t-71.5 74t-23.5 101q0 38 16.5 127t56.5 284l9 45q8 43 58 43
q42 0 42 -32q0 -8 -1 -12q-44 -205 -61.5 -305t-17.5 -146q0 -53 29.5 -84.5t82.5 -31.5q51 0 101 29.5t85.5 78t45.5 101.5q21 113 62 363q3 21 16.5 33t36.5 12q22 0 34 -10.5t12 -27.5q0 -6 -1 -9q-6 -33 -20 -113q37 16 62 50t33 81q6 34 39 34q15 0 22 -8zM403 766.5
q-10 10.5 -7 25.5q4 23 8 42q2 12 12.5 21.5t31.5 23.5t32.5 26t11.5 25q0 14 -11 23.5t-32 9.5q-22 0 -37.5 -10.5t-29.5 -28.5q-15 -20 -31 -20q-11 0 -20 8t-9 17q0 14 13 30q26 33 55.5 50.5t71.5 17.5q49 0 80 -23t31 -60q0 -32 -16 -51t-44 -37q-11 -7 -19.5 -13.5
t-9.5 -13.5l-6 -35q-3 -19 -16.5 -28.5t-31.5 -9.5q-17 0 -27 10.5z" />
    <glyph glyph-name="uni1EEE" unicode="&#x1eee;" horiz-adv-x="748" 
d="M812 706q7 -8 6 -23q-7 -68 -52.5 -124t-120.5 -75l-10 -60q-9 -62 -45 -273l-18 -105q-5 -26 -17.5 -37.5t-37.5 -11.5q-45 0 -45 36q0 9 1 13q4 22 6 35t3 20q-33 -44 -85 -72t-115 -28q-69 0 -117 28t-71.5 74t-23.5 101q0 38 16.5 127t56.5 284l9 45q8 43 58 43
q42 0 42 -32q0 -8 -1 -12q-44 -205 -61.5 -305t-17.5 -146q0 -53 29.5 -84.5t82.5 -31.5q51 0 101 29.5t85.5 78t45.5 101.5q21 113 62 363q3 21 16.5 33t36.5 12q22 0 34 -10.5t12 -27.5q0 -6 -1 -9q-6 -33 -20 -113q37 16 62 50t33 81q6 34 39 34q15 0 22 -8zM275.5 776
q-8.5 9 -8.5 23q0 16 15 31q31 31 53.5 43.5t50.5 12.5q49 0 87 -23q7 -4 18 -10t17 -8.5t12 -2.5q11 0 27 14q10 10 17.5 14t16.5 4q12 0 21.5 -10t9.5 -23q0 -19 -15 -32q-26 -22 -47.5 -32t-43.5 -10q-16 0 -30 5.5t-27.5 12.5t-20.5 11q-5 2 -21.5 10t-27.5 8
q-9 0 -18 -6.5t-25 -21.5q-22 -19 -39 -19q-13 0 -21.5 9z" />
    <glyph glyph-name="Uhungarumlaut" unicode="&#x170;" horiz-adv-x="679" 
d="M665 698.5q12 -10.5 12 -27.5q0 -6 -1 -9q-18 -95 -34 -194q-4 -31 -7 -44q-9 -62 -45 -273l-18 -105q-5 -26 -17.5 -37.5t-37.5 -11.5q-45 0 -45 36q0 9 1 13q4 22 6 35t3 20q-33 -44 -85 -72t-115 -28q-69 0 -117 28t-71.5 74t-23.5 101q0 38 16.5 127t56.5 284l9 45
q8 43 58 43q42 0 42 -32q0 -8 -1 -12q-44 -205 -61.5 -305t-17.5 -146q0 -53 29.5 -84.5t82.5 -31.5q51 0 101 29.5t85.5 78t45.5 101.5q21 113 62 363q3 21 16.5 33t36.5 12q22 0 34 -10.5zM280 762.5q-8 7.5 -8 20.5q0 21 22 41l87 85q27 27 48 27q14 0 22.5 -8.5
t8.5 -22.5q0 -25 -27 -46l-95 -87q-20 -17 -38 -17q-12 0 -20 7.5zM457 762.5q-8 7.5 -8 20.5q0 20 23 41l87 85q27 27 48 27q14 0 22.5 -8.5t8.5 -22.5q0 -23 -27 -46l-94 -86q-21 -18 -40 -18q-12 0 -20 7.5z" />
    <glyph glyph-name="Umacron" unicode="&#x16a;" horiz-adv-x="679" 
d="M665 698.5q12 -10.5 12 -27.5q0 -6 -1 -9q-18 -95 -34 -194q-4 -31 -7 -44q-9 -62 -45 -273l-18 -105q-5 -26 -17.5 -37.5t-37.5 -11.5q-45 0 -45 36q0 9 1 13q4 22 6 35t3 20q-33 -44 -85 -72t-115 -28q-69 0 -117 28t-71.5 74t-23.5 101q0 38 16.5 127t56.5 284l9 45
q8 43 58 43q42 0 42 -32q0 -8 -1 -12q-44 -205 -61.5 -305t-17.5 -146q0 -53 29.5 -84.5t82.5 -31.5q51 0 101 29.5t85.5 78t45.5 101.5q21 113 62 363q3 21 16.5 33t36.5 12q22 0 34 -10.5zM244.5 790q-6.5 8 -6.5 21q0 20 11.5 33t31.5 16q42 7 75.5 10.5t92.5 3.5h147
q16 0 25.5 -9t9.5 -24q0 -20 -12.5 -32t-34.5 -12q-20 0 -35 1l-102 1q-69 0 -153 -12l-31 -4q-12 -1 -18.5 7z" />
    <glyph glyph-name="Uogonek" unicode="&#x172;" horiz-adv-x="679" 
d="M665 698.5q12 -10.5 12 -27.5q0 -6 -1 -9q-18 -95 -34 -194q-4 -31 -7 -44q-9 -62 -45 -273l-18 -105q-6 -36 -29 -45q-30 -22 -45.5 -39.5t-15.5 -37.5q0 -22 33 -22q7 0 20.5 4t17.5 4q8 0 13 -5.5t5 -15.5q0 -25 -17.5 -38t-48.5 -13q-41 0 -68.5 23t-27.5 58
q0 30 16.5 55t47.5 50q-1 3 -1 9q0 8 1 13q4 22 6 35t3 20q-33 -44 -85 -72t-115 -28q-69 0 -117 28t-71.5 74t-23.5 101q0 38 16.5 127t56.5 284l9 45q8 43 58 43q42 0 42 -32q0 -8 -1 -12q-44 -205 -61.5 -305t-17.5 -146q0 -53 29.5 -84.5t82.5 -31.5q51 0 101 29.5
t85.5 78t45.5 101.5q21 113 62 363q3 21 16.5 33t36.5 12q22 0 34 -10.5z" />
    <glyph glyph-name="Uring" unicode="&#x16e;" horiz-adv-x="679" 
d="M665 698.5q12 -10.5 12 -27.5q0 -6 -1 -9q-18 -95 -34 -194q-4 -31 -7 -44q-9 -62 -45 -273l-18 -105q-5 -26 -17.5 -37.5t-37.5 -11.5q-45 0 -45 36q0 9 1 13q4 22 6 35t3 20q-33 -44 -85 -72t-115 -28q-69 0 -117 28t-71.5 74t-23.5 101q0 38 16.5 127t56.5 284l9 45
q8 43 58 43q42 0 42 -32q0 -8 -1 -12q-44 -205 -61.5 -305t-17.5 -146q0 -53 29.5 -84.5t82.5 -31.5q51 0 101 29.5t85.5 78t45.5 101.5q21 113 62 363q3 21 16.5 33t36.5 12q22 0 34 -10.5zM357.5 766.5q-29.5 29.5 -29.5 71.5q0 34 18.5 64t50.5 48t69 18q42 0 70.5 -30
t28.5 -69q0 -36 -18.5 -66t-49.5 -48t-67 -18q-43 0 -72.5 29.5zM483 818q19 18 19 44q0 18 -12.5 31t-32.5 13q-27 0 -46 -19t-19 -43q0 -19 13 -31.5t33 -12.5q26 0 45 18z" />
    <glyph glyph-name="Utilde" unicode="&#x168;" horiz-adv-x="679" 
d="M665 698.5q12 -10.5 12 -27.5q0 -6 -1 -9q-18 -95 -34 -194q-4 -31 -7 -44q-9 -62 -45 -273l-18 -105q-5 -26 -17.5 -37.5t-37.5 -11.5q-45 0 -45 36q0 9 1 13q4 22 6 35t3 20q-33 -44 -85 -72t-115 -28q-69 0 -117 28t-71.5 74t-23.5 101q0 38 16.5 127t56.5 284l9 45
q8 43 58 43q42 0 42 -32q0 -8 -1 -12q-44 -205 -61.5 -305t-17.5 -146q0 -53 29.5 -84.5t82.5 -31.5q51 0 101 29.5t85.5 78t45.5 101.5q21 113 62 363q3 21 16.5 33t36.5 12q22 0 34 -10.5zM275.5 776q-8.5 9 -8.5 23q0 16 15 31q31 31 53.5 43.5t50.5 12.5q49 0 87 -23
q7 -4 18 -10t17 -8.5t12 -2.5q11 0 27 14q10 10 17.5 14t16.5 4q12 0 21.5 -10t9.5 -23q0 -19 -15 -32q-26 -22 -47.5 -32t-43.5 -10q-16 0 -30 5.5t-27.5 12.5t-20.5 11q-5 2 -21.5 10t-27.5 8q-9 0 -18 -6.5t-25 -21.5q-22 -19 -39 -19q-13 0 -21.5 9z" />
    <glyph glyph-name="V" unicode="V" horiz-adv-x="667" 
d="M250.5 13q-22.5 14 -31.5 39q-19 56 -55 318q-1 8 -20 159q-4 37 -15 124q-1 7 -1 16q0 20 16.5 29.5t41.5 9.5q18 0 28 -8t12 -21q8 -63 20 -175l13 -116q14 -116 21.5 -169t15.5 -77t18 -24q16 0 46 55.5t101 214.5q75 173 130 295q7 13 17.5 18.5t25.5 5.5
q23 0 38 -10.5t15 -26.5q0 -11 -4 -20q-47 -105 -127 -278q-120 -262 -158 -320q-16 -24 -41.5 -38.5t-54.5 -14.5t-51.5 14z" />
    <glyph glyph-name="W" unicode="W" horiz-adv-x="869" 
d="M196 13q-17 12 -19 32q-6 65 -9 145q-5 102 -13 191q-1 18 -12 111q-2 21 -7 67t-7 84q0 9 1 14q1 21 19 34.5t44 13.5q18 0 27.5 -8t10.5 -26l8 -81q13 -125 16 -186q2 -26 4 -90q4 -83 7 -125.5t8 -42.5q6 0 44 69q11 18 21.5 36t19.5 34q47 80 67.5 108t40.5 28
q21 0 33.5 -29t38.5 -116l10 -37q15 -52 21.5 -72t11.5 -20q3 0 17 36t31 82q41 109 52 137q15 39 20 50q41 107 87 219q6 16 20 24.5t33 8.5q21 0 33 -11.5t12 -31.5q0 -6 -4 -16q-23 -48 -71 -167q-33 -84 -38 -96q-24 -60 -62 -160q-37 -102 -66 -171q-19 -48 -73 -48
q-29 0 -48 26.5t-43 97.5q-9 26 -21 74q-12 55 -18 55q-3 0 -14.5 -18.5t-24.5 -42.5q-35 -60 -45 -76q-43 -69 -69 -93.5t-53 -24.5q-24 0 -41 12z" />
    <glyph glyph-name="Wacute" unicode="&#x1e82;" horiz-adv-x="869" 
d="M196 13q-17 12 -19 32q-6 65 -9 145q-5 102 -13 191q-1 18 -12 111q-2 21 -7 67t-7 84q0 9 1 14q1 21 19 34.5t44 13.5q18 0 27.5 -8t10.5 -26l8 -81q13 -125 16 -186q2 -26 4 -90q4 -83 7 -125.5t8 -42.5q6 0 44 69q11 18 21.5 36t19.5 34q47 80 67.5 108t40.5 28
q21 0 33.5 -29t38.5 -116l10 -37q15 -52 21.5 -72t11.5 -20q3 0 17 36t31 82q41 109 52 137q15 39 20 50q41 107 87 219q6 16 20 24.5t33 8.5q21 0 33 -11.5t12 -31.5q0 -6 -4 -16q-23 -48 -71 -167q-33 -84 -38 -96q-24 -60 -62 -160q-37 -102 -66 -171q-19 -48 -73 -48
q-29 0 -48 26.5t-43 97.5q-9 26 -21 74q-12 55 -18 55q-3 0 -14.5 -18.5t-24.5 -42.5q-35 -60 -45 -76q-43 -69 -69 -93.5t-53 -24.5q-24 0 -41 12zM467 764q-9 10 -9 22q0 9 6 20.5t18 20.5l96 80q19 15 29 21t21 6q14 0 23 -10t9 -24q0 -25 -28 -46l-102 -80
q-14 -11 -23 -15.5t-18 -4.5q-13 0 -22 10z" />
    <glyph glyph-name="Wcircumflex" unicode="&#x174;" horiz-adv-x="869" 
d="M196 13q-17 12 -19 32q-6 65 -9 145q-5 102 -13 191q-1 18 -12 111q-2 21 -7 67t-7 84q0 9 1 14q1 21 19 34.5t44 13.5q18 0 27.5 -8t10.5 -26l8 -81q13 -125 16 -186q2 -26 4 -90q4 -83 7 -125.5t8 -42.5q6 0 44 69q11 18 21.5 36t19.5 34q47 80 67.5 108t40.5 28
q21 0 33.5 -29t38.5 -116l10 -37q15 -52 21.5 -72t11.5 -20q3 0 17 36t31 82q41 109 52 137q15 39 20 50q41 107 87 219q6 16 20 24.5t33 8.5q21 0 33 -11.5t12 -31.5q0 -6 -4 -16q-23 -48 -71 -167q-33 -84 -38 -96q-24 -60 -62 -160q-37 -102 -66 -171q-19 -48 -73 -48
q-29 0 -48 26.5t-43 97.5q-9 26 -21 74q-12 55 -18 55q-3 0 -14.5 -18.5t-24.5 -42.5q-35 -60 -45 -76q-43 -69 -69 -93.5t-53 -24.5q-24 0 -41 12zM620 774q-56 98 -68 98q-7 0 -29.5 -20t-52.5 -48l-20 -18q-22 -22 -41 -22q-14 0 -23 9.5t-9 22.5q0 18 17 32q2 2 32 29
q47 44 80.5 69.5t55.5 25.5q27 0 46 -20.5t47 -65.5q11 -19 30 -46q7 -9 7 -19q0 -16 -13 -29t-29 -13q-20 0 -30 15z" />
    <glyph glyph-name="Wdieresis" unicode="&#x1e84;" horiz-adv-x="869" 
d="M196 13q-17 12 -19 32q-6 65 -9 145q-5 102 -13 191q-1 18 -12 111q-2 21 -7 67t-7 84q0 9 1 14q1 21 19 34.5t44 13.5q18 0 27.5 -8t10.5 -26l8 -81q13 -125 16 -186q2 -26 4 -90q4 -83 7 -125.5t8 -42.5q6 0 44 69q11 18 21.5 36t19.5 34q47 80 67.5 108t40.5 28
q21 0 33.5 -29t38.5 -116l10 -37q15 -52 21.5 -72t11.5 -20q3 0 17 36t31 82q41 109 52 137q15 39 20 50q41 107 87 219q6 16 20 24.5t33 8.5q21 0 33 -11.5t12 -31.5q0 -6 -4 -16q-23 -48 -71 -167q-33 -84 -38 -96q-24 -60 -62 -160q-37 -102 -66 -171q-19 -48 -73 -48
q-29 0 -48 26.5t-43 97.5q-9 26 -21 74q-12 55 -18 55q-3 0 -14.5 -18.5t-24.5 -42.5q-35 -60 -45 -76q-43 -69 -69 -93.5t-53 -24.5q-24 0 -41 12zM369 785.5q-15 14.5 -15 36.5q0 29 22.5 50.5t51.5 21.5q22 0 37.5 -15t15.5 -36q0 -28 -23 -50t-51 -22q-23 0 -38 14.5z
M621 785.5q-15 14.5 -15 36.5q0 29 22.5 50.5t51.5 21.5q22 0 37 -14.5t15 -36.5q0 -28 -22.5 -50t-50.5 -22q-23 0 -38 14.5z" />
    <glyph glyph-name="Wgrave" unicode="&#x1e80;" horiz-adv-x="869" 
d="M196 13q-17 12 -19 32q-6 65 -9 145q-5 102 -13 191q-1 18 -12 111q-2 21 -7 67t-7 84q0 9 1 14q1 21 19 34.5t44 13.5q18 0 27.5 -8t10.5 -26l8 -81q13 -125 16 -186q2 -26 4 -90q4 -83 7 -125.5t8 -42.5q6 0 44 69q11 18 21.5 36t19.5 34q47 80 67.5 108t40.5 28
q21 0 33.5 -29t38.5 -116l10 -37q15 -52 21.5 -72t11.5 -20q3 0 17 36t31 82q41 109 52 137q15 39 20 50q41 107 87 219q6 16 20 24.5t33 8.5q21 0 33 -11.5t12 -31.5q0 -6 -4 -16q-23 -48 -71 -167q-33 -84 -38 -96q-24 -60 -62 -160q-37 -102 -66 -171q-19 -48 -73 -48
q-29 0 -48 26.5t-43 97.5q-9 26 -21 74q-12 55 -18 55q-3 0 -14.5 -18.5t-24.5 -42.5q-35 -60 -45 -76q-43 -69 -69 -93.5t-53 -24.5q-24 0 -41 12zM557.5 759q-7.5 4 -15.5 14l-64 86q-13 19 -13 32q0 19 13.5 32t30.5 13q11 0 20 -6.5t18 -20.5l58 -85q11 -14 11 -28
q0 -16 -12.5 -28.5t-29.5 -12.5q-9 0 -16.5 4z" />
    <glyph glyph-name="X" unicode="X" horiz-adv-x="671" 
d="M674 611l-258 -275l108 -191l39 -70q10 -20 10 -29q-2 -19 -22 -35.5t-43 -16.5q-11 0 -17.5 4.5t-11.5 14.5q-52 90 -83 147l-54 96l-220 -235q-13 -14 -22 -18.5t-23 -4.5q-22 0 -39 15t-15 32q1 11 5.5 17.5t13.5 15.5l251 266l-158 282q-8 11 -6 22q1 21 21 36.5
t44 15.5q13 0 20.5 -7.5t18.5 -25.5q31 -58 80 -146q30 -52 54 -97l177 190q38 40 55 59q12 13 20.5 19t18.5 6q22 0 37.5 -17t15.5 -37q0 -15 -17 -33z" />
    <glyph glyph-name="Y" unicode="Y" horiz-adv-x="655" 
d="M257 12.5q-11 10.5 -11 27.5q0 7 1 10l46 279q-20 6 -46 40.5t-49 83.5q-21 46 -35.5 90.5t-27.5 101.5q-1 3 -1 10q0 22 20 34t45 12q18 0 28 -10t15 -31q16 -59 26 -92.5t24 -68.5q13 -35 31 -64t33 -29q13 0 40 26.5t59 67.5q29 38 58 82.5t37 56.5q5 8 9 14t7 11
q13 21 20 28t23 7q22 0 39.5 -13t17.5 -30q0 -9 -7 -23q-26 -46 -60 -96.5t-63 -87.5q-40 -50 -81 -82.5t-62 -37.5l-46 -277q-10 -50 -58 -50q-21 0 -32 10.5z" />
    <glyph glyph-name="Yacute" unicode="&#xdd;" horiz-adv-x="655" 
d="M257 12.5q-11 10.5 -11 27.5q0 7 1 10l46 279q-20 6 -46 40.5t-49 83.5q-21 46 -35.5 90.5t-27.5 101.5q-1 3 -1 10q0 22 20 34t45 12q18 0 28 -10t15 -31q16 -59 26 -92.5t24 -68.5q13 -35 31 -64t33 -29q13 0 40 26.5t59 67.5q29 38 58 82.5t37 56.5q5 8 9 14t7 11
q13 21 20 28t23 7q22 0 39.5 -13t17.5 -30q0 -9 -7 -23q-26 -46 -60 -96.5t-63 -87.5q-40 -50 -81 -82.5t-62 -37.5l-46 -277q-10 -50 -58 -50q-21 0 -32 10.5zM356 764q-9 10 -9 22q0 9 6 20.5t18 20.5l96 80q19 15 29 21t21 6q14 0 23 -10t9 -24q0 -25 -28 -46l-102 -80
q-14 -11 -23 -15.5t-18 -4.5q-13 0 -22 10z" />
    <glyph glyph-name="Ycircumflex" unicode="&#x176;" horiz-adv-x="655" 
d="M257 12.5q-11 10.5 -11 27.5q0 7 1 10l46 279q-20 6 -46 40.5t-49 83.5q-21 46 -35.5 90.5t-27.5 101.5q-1 3 -1 10q0 22 20 34t45 12q18 0 28 -10t15 -31q16 -59 26 -92.5t24 -68.5q13 -35 31 -64t33 -29q13 0 40 26.5t59 67.5q29 38 58 82.5t37 56.5q5 8 9 14t7 11
q13 21 20 28t23 7q22 0 39.5 -13t17.5 -30q0 -9 -7 -23q-26 -46 -60 -96.5t-63 -87.5q-40 -50 -81 -82.5t-62 -37.5l-46 -277q-10 -50 -58 -50q-21 0 -32 10.5zM509 774q-56 98 -68 98q-7 0 -29.5 -20t-52.5 -48l-20 -18q-22 -22 -41 -22q-14 0 -23 9.5t-9 22.5q0 18 17 32
q2 2 32 29q47 44 80.5 69.5t55.5 25.5q27 0 46 -20.5t47 -65.5q11 -19 30 -46q7 -9 7 -19q0 -16 -13 -29t-29 -13q-20 0 -30 15z" />
    <glyph glyph-name="Ydieresis" unicode="&#x178;" horiz-adv-x="655" 
d="M257 12.5q-11 10.5 -11 27.5q0 7 1 10l46 279q-20 6 -46 40.5t-49 83.5q-21 46 -35.5 90.5t-27.5 101.5q-1 3 -1 10q0 22 20 34t45 12q18 0 28 -10t15 -31q16 -59 26 -92.5t24 -68.5q13 -35 31 -64t33 -29q13 0 40 26.5t59 67.5q29 38 58 82.5t37 56.5q5 8 9 14t7 11
q13 21 20 28t23 7q22 0 39.5 -13t17.5 -30q0 -9 -7 -23q-26 -46 -60 -96.5t-63 -87.5q-40 -50 -81 -82.5t-62 -37.5l-46 -277q-10 -50 -58 -50q-21 0 -32 10.5zM258 785.5q-15 14.5 -15 36.5q0 29 22.5 50.5t51.5 21.5q22 0 37.5 -15t15.5 -36q0 -28 -23 -50t-51 -22
q-23 0 -38 14.5zM510 785.5q-15 14.5 -15 36.5q0 29 22.5 50.5t51.5 21.5q22 0 37 -14.5t15 -36.5q0 -28 -22.5 -50t-50.5 -22q-23 0 -38 14.5z" />
    <glyph glyph-name="uni1E8E" unicode="&#x1e8e;" horiz-adv-x="655" 
d="M257 12.5q-11 10.5 -11 27.5q0 7 1 10l46 279q-20 6 -46 40.5t-49 83.5q-21 46 -35.5 90.5t-27.5 101.5q-1 3 -1 10q0 22 20 34t45 12q18 0 28 -10t15 -31q16 -59 26 -92.5t24 -68.5q13 -35 31 -64t33 -29q13 0 40 26.5t59 67.5q29 38 58 82.5t37 56.5q5 8 9 14t7 11
q13 21 20 28t23 7q22 0 39.5 -13t17.5 -30q0 -9 -7 -23q-26 -46 -60 -96.5t-63 -87.5q-40 -50 -81 -82.5t-62 -37.5l-46 -277q-10 -50 -58 -50q-21 0 -32 10.5zM383 785q-15 15 -15 38q0 28 22.5 49t51.5 21q22 0 37 -14t15 -35q0 -29 -22 -51.5t-51 -22.5q-23 0 -38 15z
" />
    <glyph glyph-name="uni1EF4" unicode="&#x1ef4;" horiz-adv-x="655" 
d="M257 12.5q-11 10.5 -11 27.5q0 7 1 10l46 279q-20 6 -46 40.5t-49 83.5q-21 46 -35.5 90.5t-27.5 101.5q-1 3 -1 10q0 22 20 34t45 12q18 0 28 -10t15 -31q16 -59 26 -92.5t24 -68.5q13 -35 31 -64t33 -29q13 0 40 26.5t59 67.5q29 38 58 82.5t37 56.5q5 8 9 14t7 11
q13 21 20 28t23 7q22 0 39.5 -13t17.5 -30q0 -9 -7 -23q-26 -46 -60 -96.5t-63 -87.5q-40 -50 -81 -82.5t-62 -37.5l-46 -277q-10 -50 -58 -50q-21 0 -32 10.5zM215 -177q-14 14 -14 37q0 30 22 51t52 21q23 0 37.5 -13.5t14.5 -35.5q0 -31 -22 -52.5t-52 -21.5
q-24 0 -38 14z" />
    <glyph glyph-name="Ygrave" unicode="&#x1ef2;" horiz-adv-x="655" 
d="M257 12.5q-11 10.5 -11 27.5q0 7 1 10l46 279q-20 6 -46 40.5t-49 83.5q-21 46 -35.5 90.5t-27.5 101.5q-1 3 -1 10q0 22 20 34t45 12q18 0 28 -10t15 -31q16 -59 26 -92.5t24 -68.5q13 -35 31 -64t33 -29q13 0 40 26.5t59 67.5q29 38 58 82.5t37 56.5q5 8 9 14t7 11
q13 21 20 28t23 7q22 0 39.5 -13t17.5 -30q0 -9 -7 -23q-26 -46 -60 -96.5t-63 -87.5q-40 -50 -81 -82.5t-62 -37.5l-46 -277q-10 -50 -58 -50q-21 0 -32 10.5zM446.5 759q-7.5 4 -15.5 14l-64 86q-13 19 -13 32q0 19 13.5 32t30.5 13q11 0 20 -6.5t18 -20.5l58 -85
q11 -14 11 -28q0 -16 -12.5 -28.5t-29.5 -12.5q-9 0 -16.5 4z" />
    <glyph glyph-name="uni1EF6" unicode="&#x1ef6;" horiz-adv-x="655" 
d="M257 12.5q-11 10.5 -11 27.5q0 7 1 10l46 279q-20 6 -46 40.5t-49 83.5q-21 46 -35.5 90.5t-27.5 101.5q-1 3 -1 10q0 22 20 34t45 12q18 0 28 -10t15 -31q16 -59 26 -92.5t24 -68.5q13 -35 31 -64t33 -29q13 0 40 26.5t59 67.5q29 38 58 82.5t37 56.5q5 8 9 14t7 11
q13 21 20 28t23 7q22 0 39.5 -13t17.5 -30q0 -9 -7 -23q-26 -46 -60 -96.5t-63 -87.5q-40 -50 -81 -82.5t-62 -37.5l-46 -277q-10 -50 -58 -50q-21 0 -32 10.5zM393 766.5q-10 10.5 -7 25.5q4 23 8 42q2 12 12.5 21.5t31.5 23.5t32.5 26t11.5 25q0 14 -11 23.5t-32 9.5
q-22 0 -37.5 -10.5t-29.5 -28.5q-15 -20 -31 -20q-11 0 -20 8t-9 17q0 14 13 30q26 33 55.5 50.5t71.5 17.5q49 0 80 -23t31 -60q0 -32 -16 -51t-44 -37q-11 -7 -19.5 -13.5t-9.5 -13.5l-6 -35q-3 -19 -16.5 -28.5t-31.5 -9.5q-17 0 -27 10.5z" />
    <glyph glyph-name="uni1EF8" unicode="&#x1ef8;" horiz-adv-x="655" 
d="M257 12.5q-11 10.5 -11 27.5q0 7 1 10l46 279q-20 6 -46 40.5t-49 83.5q-21 46 -35.5 90.5t-27.5 101.5q-1 3 -1 10q0 22 20 34t45 12q18 0 28 -10t15 -31q16 -59 26 -92.5t24 -68.5q13 -35 31 -64t33 -29q13 0 40 26.5t59 67.5q29 38 58 82.5t37 56.5q5 8 9 14t7 11
q13 21 20 28t23 7q22 0 39.5 -13t17.5 -30q0 -9 -7 -23q-26 -46 -60 -96.5t-63 -87.5q-40 -50 -81 -82.5t-62 -37.5l-46 -277q-10 -50 -58 -50q-21 0 -32 10.5zM265.5 776q-8.5 9 -8.5 23q0 16 15 31q31 31 53.5 43.5t50.5 12.5q49 0 87 -23q7 -4 18 -10t17 -8.5t12 -2.5
q11 0 27 14q10 10 17.5 14t16.5 4q12 0 21.5 -10t9.5 -23q0 -19 -15 -32q-26 -22 -47.5 -32t-43.5 -10q-16 0 -30 5.5t-27.5 12.5t-20.5 11q-5 2 -21.5 10t-27.5 8q-9 0 -18 -6.5t-25 -21.5q-22 -19 -39 -19q-13 0 -21.5 9z" />
    <glyph glyph-name="Z" unicode="Z" horiz-adv-x="685" 
d="M495 19q-106 9 -195 9q-69 0 -173 -4l-65 -2q-29 0 -41 8.5t-12 25.5q0 28 50 77.5t176 157.5q96 82 119 103q97 84 150.5 132.5t80.5 76.5q-98 -9 -167 -9q-57 0 -125.5 5.5t-101.5 12.5q-21 6 -30.5 15t-9.5 23q0 22 14.5 37t38.5 15l31 -3q102 -15 200 -15q44 0 93 3
t124 10q14 1 29 -3t25 -12q16 -12 16 -32q0 -32 -53 -85.5t-176 -159.5l-56 -49q-21 -18 -41 -35t-38 -34q-74 -64 -123.5 -108t-75.5 -70q112 7 198 7q55 0 95.5 -2.5t99.5 -9.5q37 -6 37 -37q0 -23 -17 -38t-39 -13z" />
    <glyph glyph-name="Zacute" unicode="&#x179;" horiz-adv-x="685" 
d="M495 19q-106 9 -195 9q-69 0 -173 -4l-65 -2q-29 0 -41 8.5t-12 25.5q0 28 50 77.5t176 157.5q96 82 119 103q97 84 150.5 132.5t80.5 76.5q-98 -9 -167 -9q-57 0 -125.5 5.5t-101.5 12.5q-21 6 -30.5 15t-9.5 23q0 22 14.5 37t38.5 15l31 -3q102 -15 200 -15q44 0 93 3
t124 10q14 1 29 -3t25 -12q16 -12 16 -32q0 -32 -53 -85.5t-176 -159.5l-56 -49q-21 -18 -41 -35t-38 -34q-74 -64 -123.5 -108t-75.5 -70q112 7 198 7q55 0 95.5 -2.5t99.5 -9.5q37 -6 37 -37q0 -23 -17 -38t-39 -13zM369 764q-9 10 -9 22q0 9 6 20.5t18 20.5l96 80
q19 15 29 21t21 6q14 0 23 -10t9 -24q0 -25 -28 -46l-102 -80q-14 -11 -23 -15.5t-18 -4.5q-13 0 -22 10z" />
    <glyph glyph-name="Zcaron" unicode="&#x17d;" horiz-adv-x="685" 
d="M495 19q-106 9 -195 9q-69 0 -173 -4l-65 -2q-29 0 -41 8.5t-12 25.5q0 28 50 77.5t176 157.5q96 82 119 103q97 84 150.5 132.5t80.5 76.5q-98 -9 -167 -9q-57 0 -125.5 5.5t-101.5 12.5q-21 6 -30.5 15t-9.5 23q0 22 14.5 37t38.5 15l31 -3q102 -15 200 -15q44 0 93 3
t124 10q14 1 29 -3t25 -12q16 -12 16 -32q0 -32 -53 -85.5t-176 -159.5l-56 -49q-21 -18 -41 -35t-38 -34q-74 -64 -123.5 -108t-75.5 -70q112 7 198 7q55 0 95.5 -2.5t99.5 -9.5q37 -6 37 -37q0 -23 -17 -38t-39 -13zM604.5 948.5q8.5 -8.5 8.5 -21.5q0 -9 -3.5 -15
t-12.5 -17q-45 -50 -68.5 -73.5t-49.5 -40.5t-51 -17q-23 0 -49 28t-58 73q-9 13 -17 23t-8 25q1 15 15.5 27t29.5 12q9 0 16.5 -5.5t16.5 -16.5q30 -45 46.5 -66t24.5 -21q7 0 32 24.5t71 74.5q14 15 35 15q13 0 21.5 -8.5z" />
    <glyph glyph-name="Zdotaccent" unicode="&#x17b;" horiz-adv-x="685" 
d="M495 19q-106 9 -195 9q-69 0 -173 -4l-65 -2q-29 0 -41 8.5t-12 25.5q0 28 50 77.5t176 157.5q96 82 119 103q97 84 150.5 132.5t80.5 76.5q-98 -9 -167 -9q-57 0 -125.5 5.5t-101.5 12.5q-21 6 -30.5 15t-9.5 23q0 22 14.5 37t38.5 15l31 -3q102 -15 200 -15q44 0 93 3
t124 10q14 1 29 -3t25 -12q16 -12 16 -32q0 -32 -53 -85.5t-176 -159.5l-56 -49q-21 -18 -41 -35t-38 -34q-74 -64 -123.5 -108t-75.5 -70q112 7 198 7q55 0 95.5 -2.5t99.5 -9.5q37 -6 37 -37q0 -23 -17 -38t-39 -13zM397 785q-15 15 -15 38q0 28 22.5 49t51.5 21
q22 0 37 -14t15 -35q0 -29 -22 -51.5t-51 -22.5q-23 0 -38 15z" />
    <glyph glyph-name="uni1E92" unicode="&#x1e92;" horiz-adv-x="685" 
d="M495 19q-106 9 -195 9q-69 0 -173 -4l-65 -2q-29 0 -41 8.5t-12 25.5q0 28 50 77.5t176 157.5q96 82 119 103q97 84 150.5 132.5t80.5 76.5q-98 -9 -167 -9q-57 0 -125.5 5.5t-101.5 12.5q-21 6 -30.5 15t-9.5 23q0 22 14.5 37t38.5 15l31 -3q102 -15 200 -15q44 0 93 3
t124 10q14 1 29 -3t25 -12q16 -12 16 -32q0 -32 -53 -85.5t-176 -159.5l-56 -49q-21 -18 -41 -35t-38 -34q-74 -64 -123.5 -108t-75.5 -70q112 7 198 7q55 0 95.5 -2.5t99.5 -9.5q37 -6 37 -37q0 -23 -17 -38t-39 -13zM225 -177q-14 14 -14 37q0 30 22 51t52 21
q23 0 37.5 -13.5t14.5 -35.5q0 -31 -22 -52.5t-52 -21.5q-24 0 -38 14z" />
    <glyph glyph-name="a" unicode="a" horiz-adv-x="620" 
d="M527.5 72.5q6.5 -4.5 6.5 -19.5q0 -22 -12 -37t-37 -15q-36 0 -54 12.5t-28 41.5q-52 -65 -155 -65q-65 0 -110.5 27.5t-68.5 74t-23 103.5q0 82 35 150.5t97 108.5t140 40q49 0 84.5 -18.5t52.5 -48.5l7 24q12 37 47 37q21 0 34.5 -8.5t13.5 -20.5q0 -9 -6 -26.5
t-7 -22.5q-9 -24 -13 -39q-17 -57 -33 -138.5t-16 -116.5q0 -18 5.5 -26t19.5 -10q14 -3 20.5 -7.5zM344 97q38 27 48 78q24 122 24 150q0 45 -29 67.5t-65 22.5q-49 0 -89 -33t-62.5 -84.5t-22.5 -106.5q0 -53 25 -87t81 -34q52 0 90 27z" />
    <glyph glyph-name="aacute" unicode="&#xe1;" horiz-adv-x="620" 
d="M527.5 72.5q6.5 -4.5 6.5 -19.5q0 -22 -12 -37t-37 -15q-36 0 -54 12.5t-28 41.5q-52 -65 -155 -65q-65 0 -110.5 27.5t-68.5 74t-23 103.5q0 82 35 150.5t97 108.5t140 40q49 0 84.5 -18.5t52.5 -48.5l7 24q12 37 47 37q21 0 34.5 -8.5t13.5 -20.5q0 -9 -6 -26.5
t-7 -22.5q-9 -24 -13 -39q-17 -57 -33 -138.5t-16 -116.5q0 -18 5.5 -26t19.5 -10q14 -3 20.5 -7.5zM344 97q38 27 48 78q24 122 24 150q0 45 -29 67.5t-65 22.5q-49 0 -89 -33t-62.5 -84.5t-22.5 -106.5q0 -53 25 -87t81 -34q52 0 90 27zM293 564q-9 10 -9 22q0 9 6 20.5
t18 20.5l96 80q19 15 29 21t21 6q14 0 23 -10t9 -24q0 -25 -28 -46l-102 -80q-14 -11 -23 -15.5t-18 -4.5q-13 0 -22 10z" />
    <glyph glyph-name="abreve" unicode="&#x103;" horiz-adv-x="620" 
d="M527.5 72.5q6.5 -4.5 6.5 -19.5q0 -22 -12 -37t-37 -15q-36 0 -54 12.5t-28 41.5q-52 -65 -155 -65q-65 0 -110.5 27.5t-68.5 74t-23 103.5q0 82 35 150.5t97 108.5t140 40q49 0 84.5 -18.5t52.5 -48.5l7 24q12 37 47 37q21 0 34.5 -8.5t13.5 -20.5q0 -9 -6 -26.5
t-7 -22.5q-9 -24 -13 -39q-17 -57 -33 -138.5t-16 -116.5q0 -18 5.5 -26t19.5 -10q14 -3 20.5 -7.5zM344 97q38 27 48 78q24 122 24 150q0 45 -29 67.5t-65 22.5q-49 0 -89 -33t-62.5 -84.5t-22.5 -106.5q0 -53 25 -87t81 -34q52 0 90 27zM286 575.5q-34 15.5 -53.5 42.5
t-19.5 60q0 14 5 26q5 15 15.5 23t24.5 8q13 0 23 -6t9 -17q-1 -5 -1 -14q1 -34 22.5 -53t56.5 -19q34 0 64 23.5t37 59.5q3 14 16 21.5t27 7.5t23 -9.5t8 -23.5q-4 -37 -30.5 -70.5t-66.5 -54t-83 -20.5t-77 15.5z" />
    <glyph glyph-name="uni1EAF" unicode="&#x1eaf;" horiz-adv-x="620" 
d="M527.5 72.5q6.5 -4.5 6.5 -19.5q0 -22 -12 -37t-37 -15q-36 0 -54 12.5t-28 41.5q-52 -65 -155 -65q-65 0 -110.5 27.5t-68.5 74t-23 103.5q0 82 35 150.5t97 108.5t140 40q49 0 84.5 -18.5t52.5 -48.5l7 24q12 37 47 37q21 0 34.5 -8.5t13.5 -20.5q0 -9 -6 -26.5
t-7 -22.5q-9 -24 -13 -39q-17 -57 -33 -138.5t-16 -116.5q0 -18 5.5 -26t19.5 -10q14 -3 20.5 -7.5zM344 97q38 27 48 78q24 122 24 150q0 45 -29 67.5t-65 22.5q-49 0 -89 -33t-62.5 -84.5t-22.5 -106.5q0 -53 25 -87t81 -34q52 0 90 27zM353.5 751q-7.5 9 -6.5 23
q0 8 6 18.5t16 18.5l52 48q27 26 48 26q13 0 21.5 -9t8.5 -22q0 -14 -7 -24.5t-19 -20.5l-59 -48q-13 -11 -21.5 -15t-17.5 -4q-14 0 -21.5 9zM284 575.5q-34 15.5 -53.5 42.5t-19.5 60q0 14 5 26q5 15 15.5 23t24.5 8q13 0 23 -6t9 -17q-1 -5 -1 -14q1 -34 22.5 -53
t56.5 -19q34 0 64 23.5t37 59.5q3 14 16 21.5t27 7.5t23 -9.5t8 -23.5q-4 -37 -30.5 -70.5t-66.5 -54t-83 -20.5t-77 15.5z" />
    <glyph glyph-name="uni1EB7" unicode="&#x1eb7;" horiz-adv-x="620" 
d="M527.5 72.5q6.5 -4.5 6.5 -19.5q0 -22 -12 -37t-37 -15q-36 0 -54 12.5t-28 41.5q-52 -65 -155 -65q-65 0 -110.5 27.5t-68.5 74t-23 103.5q0 82 35 150.5t97 108.5t140 40q49 0 84.5 -18.5t52.5 -48.5l7 24q12 37 47 37q21 0 34.5 -8.5t13.5 -20.5q0 -9 -6 -26.5
t-7 -22.5q-9 -24 -13 -39q-17 -57 -33 -138.5t-16 -116.5q0 -18 5.5 -26t19.5 -10q14 -3 20.5 -7.5zM344 97q38 27 48 78q24 122 24 150q0 45 -29 67.5t-65 22.5q-49 0 -89 -33t-62.5 -84.5t-22.5 -106.5q0 -53 25 -87t81 -34q52 0 90 27zM184 -177q-14 14 -14 37
q0 30 22 51t52 21q23 0 37.5 -13.5t14.5 -35.5q0 -31 -22 -52.5t-52 -21.5q-24 0 -38 14zM286 575.5q-34 15.5 -53.5 42.5t-19.5 60q0 14 5 26q5 15 15.5 23t24.5 8q13 0 23 -6t9 -17q-1 -5 -1 -14q1 -34 22.5 -53t56.5 -19q34 0 64 23.5t37 59.5q3 14 16 21.5t27 7.5
t23 -9.5t8 -23.5q-4 -37 -30.5 -70.5t-66.5 -54t-83 -20.5t-77 15.5z" />
    <glyph glyph-name="uni1EB1" unicode="&#x1eb1;" horiz-adv-x="620" 
d="M527.5 72.5q6.5 -4.5 6.5 -19.5q0 -22 -12 -37t-37 -15q-36 0 -54 12.5t-28 41.5q-52 -65 -155 -65q-65 0 -110.5 27.5t-68.5 74t-23 103.5q0 82 35 150.5t97 108.5t140 40q49 0 84.5 -18.5t52.5 -48.5l7 24q12 37 47 37q21 0 34.5 -8.5t13.5 -20.5q0 -9 -6 -26.5
t-7 -22.5q-9 -24 -13 -39q-17 -57 -33 -138.5t-16 -116.5q0 -18 5.5 -26t19.5 -10q14 -3 20.5 -7.5zM344 97q38 27 48 78q24 122 24 150q0 45 -29 67.5t-65 22.5q-49 0 -89 -33t-62.5 -84.5t-22.5 -106.5q0 -53 25 -87t81 -34q52 0 90 27zM376 750q-7 4 -15 15l-43 48
q-6 9 -9.5 15t-3.5 15q0 18 13.5 32t30.5 14q20 0 39 -26l35 -48q10 -13 10 -29q0 -17 -12.5 -28.5t-28.5 -11.5q-9 0 -16 4zM286 575.5q-34 15.5 -53.5 42.5t-19.5 60q0 14 5 26q5 15 15.5 23t24.5 8q13 0 23 -6t9 -17q-1 -5 -1 -14q1 -34 22.5 -53t56.5 -19q34 0 64 23.5
t37 59.5q3 14 16 21.5t27 7.5t23 -9.5t8 -23.5q-4 -37 -30.5 -70.5t-66.5 -54t-83 -20.5t-77 15.5z" />
    <glyph glyph-name="uni1EB3" unicode="&#x1eb3;" horiz-adv-x="620" 
d="M527.5 72.5q6.5 -4.5 6.5 -19.5q0 -22 -12 -37t-37 -15q-36 0 -54 12.5t-28 41.5q-52 -65 -155 -65q-65 0 -110.5 27.5t-68.5 74t-23 103.5q0 82 35 150.5t97 108.5t140 40q49 0 84.5 -18.5t52.5 -48.5l7 24q12 37 47 37q21 0 34.5 -8.5t13.5 -20.5q0 -9 -6 -26.5
t-7 -22.5q-9 -24 -13 -39q-17 -57 -33 -138.5t-16 -116.5q0 -18 5.5 -26t19.5 -10q14 -3 20.5 -7.5zM344 97q38 27 48 78q24 122 24 150q0 45 -29 67.5t-65 22.5q-49 0 -89 -33t-62.5 -84.5t-22.5 -106.5q0 -53 25 -87t81 -34q52 0 90 27zM370 737q-7 8 -6 20l5 27
q2 10 29 31q15 10 23.5 18.5t8.5 17.5q0 19 -27 19q-15 0 -26.5 -6.5t-16.5 -17.5q-4 -7 -11 -11t-14 -4q-19 0 -19 19q0 29 28.5 49t67.5 20q33 0 54.5 -16.5t21.5 -43.5q0 -20 -10 -31.5t-29 -24.5q-7 -5 -13.5 -10.5t-7.5 -10.5q-4 -22 -5 -24q-2 -14 -12 -21.5t-23 -7.5
q-11 0 -18 8zM287 575.5q-34 15.5 -53.5 42.5t-19.5 60q0 14 5 26q5 15 15.5 23t24.5 8q13 0 23 -6t9 -17q-1 -5 -1 -14q1 -34 22.5 -53t56.5 -19q34 0 64 23.5t37 59.5q3 14 16 21.5t27 7.5t23 -9.5t8 -23.5q-4 -37 -30.5 -70.5t-66.5 -54t-83 -20.5t-77 15.5z" />
    <glyph glyph-name="uni1EB5" unicode="&#x1eb5;" horiz-adv-x="620" 
d="M527.5 72.5q6.5 -4.5 6.5 -19.5q0 -22 -12 -37t-37 -15q-36 0 -54 12.5t-28 41.5q-52 -65 -155 -65q-65 0 -110.5 27.5t-68.5 74t-23 103.5q0 82 35 150.5t97 108.5t140 40q49 0 84.5 -18.5t52.5 -48.5l7 24q12 37 47 37q21 0 34.5 -8.5t13.5 -20.5q0 -9 -6 -26.5
t-7 -22.5q-9 -24 -13 -39q-17 -57 -33 -138.5t-16 -116.5q0 -18 5.5 -26t19.5 -10q14 -3 20.5 -7.5zM344 97q38 27 48 78q24 122 24 150q0 45 -29 67.5t-65 22.5q-49 0 -89 -33t-62.5 -84.5t-22.5 -106.5q0 -53 25 -87t81 -34q52 0 90 27zM240.5 779.5q-8.5 8.5 -8.5 20.5
q0 11 8 22q36 42 109 42q21 0 34 -3t32 -10q16 -6 28 -9t29 -3q22 0 38 11q7 4 12.5 6.5t12.5 2.5q15 0 24.5 -9t8.5 -22q0 -13 -12 -23q-30 -33 -94 -33q-21 0 -37 4t-37 11q-31 11 -50 11q-20 0 -40 -13q-5 -2 -15.5 -8t-17.5 -6q-16 0 -24.5 8.5zM287 575
q-34 15 -53.5 41t-19.5 58q0 13 5 25q5 14 15.5 22t24.5 8q13 0 23 -5.5t9 -16.5q-1 -5 -1 -14q1 -33 22.5 -51t56.5 -18q34 0 64 22t37 57q3 14 16 21.5t27 7.5t23 -9.5t8 -22.5q-4 -36 -30.5 -68.5t-66.5 -52t-83 -19.5t-77 15z" />
    <glyph glyph-name="uni01CE" unicode="&#x1ce;" horiz-adv-x="620" 
d="M527.5 72.5q6.5 -4.5 6.5 -19.5q0 -22 -12 -37t-37 -15q-36 0 -54 12.5t-28 41.5q-52 -65 -155 -65q-65 0 -110.5 27.5t-68.5 74t-23 103.5q0 82 35 150.5t97 108.5t140 40q49 0 84.5 -18.5t52.5 -48.5l7 24q12 37 47 37q21 0 34.5 -8.5t13.5 -20.5q0 -9 -6 -26.5
t-7 -22.5q-9 -24 -13 -39q-17 -57 -33 -138.5t-16 -116.5q0 -18 5.5 -26t19.5 -10q14 -3 20.5 -7.5zM344 97q38 27 48 78q24 122 24 150q0 45 -29 67.5t-65 22.5q-49 0 -89 -33t-62.5 -84.5t-22.5 -106.5q0 -53 25 -87t81 -34q52 0 90 27zM528.5 748.5q8.5 -8.5 8.5 -21.5
q0 -9 -3.5 -15t-12.5 -17q-45 -50 -68.5 -73.5t-49.5 -40.5t-51 -17q-23 0 -49 28t-58 73q-9 13 -17 23t-8 25q1 15 15.5 27t29.5 12q9 0 16.5 -5.5t16.5 -16.5q30 -45 46.5 -66t24.5 -21q7 0 32 24.5t71 74.5q14 15 35 15q13 0 21.5 -8.5z" />
    <glyph glyph-name="acircumflex" unicode="&#xe2;" horiz-adv-x="620" 
d="M527.5 72.5q6.5 -4.5 6.5 -19.5q0 -22 -12 -37t-37 -15q-36 0 -54 12.5t-28 41.5q-52 -65 -155 -65q-65 0 -110.5 27.5t-68.5 74t-23 103.5q0 82 35 150.5t97 108.5t140 40q49 0 84.5 -18.5t52.5 -48.5l7 24q12 37 47 37q21 0 34.5 -8.5t13.5 -20.5q0 -9 -6 -26.5
t-7 -22.5q-9 -24 -13 -39q-17 -57 -33 -138.5t-16 -116.5q0 -18 5.5 -26t19.5 -10q14 -3 20.5 -7.5zM344 97q38 27 48 78q24 122 24 150q0 45 -29 67.5t-65 22.5q-49 0 -89 -33t-62.5 -84.5t-22.5 -106.5q0 -53 25 -87t81 -34q52 0 90 27zM446 574q-56 98 -68 98
q-7 0 -29.5 -20t-52.5 -48l-20 -18q-22 -22 -41 -22q-14 0 -23 9.5t-9 22.5q0 18 17 32q2 2 32 29q47 44 80.5 69.5t55.5 25.5q27 0 46 -20.5t47 -65.5q11 -19 30 -46q7 -9 7 -19q0 -16 -13 -29t-29 -13q-20 0 -30 15z" />
    <glyph glyph-name="uni1EA5" unicode="&#x1ea5;" horiz-adv-x="620" 
d="M527.5 72.5q6.5 -4.5 6.5 -19.5q0 -22 -12 -37t-37 -15q-36 0 -54 12.5t-28 41.5q-52 -65 -155 -65q-65 0 -110.5 27.5t-68.5 74t-23 103.5q0 82 35 150.5t97 108.5t140 40q49 0 84.5 -18.5t52.5 -48.5l7 24q12 37 47 37q21 0 34.5 -8.5t13.5 -20.5q0 -9 -6 -26.5
t-7 -22.5q-9 -24 -13 -39q-17 -57 -33 -138.5t-16 -116.5q0 -18 5.5 -26t19.5 -10q14 -3 20.5 -7.5zM344 97q38 27 48 78q24 122 24 150q0 45 -29 67.5t-65 22.5q-49 0 -89 -33t-62.5 -84.5t-22.5 -106.5q0 -53 25 -87t81 -34q52 0 90 27zM499 725.5q-8 8.5 -8 20.5
q0 19 22 41l53 47q15 14 25.5 20t21.5 6q14 0 22.5 -8.5t8.5 -22.5q0 -23 -26 -45l-59 -49q-22 -18 -39 -18q-13 0 -21 8.5zM447 575q-30 52 -45.5 75t-22.5 23t-29.5 -20t-52.5 -48l-20 -18q-23 -22 -41 -22q-14 0 -23 9.5t-9 22.5q0 18 17 32l33 30q47 44 79.5 69t54.5 25
q27 0 46.5 -20.5t45.5 -63.5q5 -7 14.5 -22t17.5 -26q7 -9 7 -19q0 -16 -13 -29t-30 -13q-21 0 -29 15z" />
    <glyph glyph-name="uni1EAD" unicode="&#x1ead;" horiz-adv-x="620" 
d="M527.5 72.5q6.5 -4.5 6.5 -19.5q0 -22 -12 -37t-37 -15q-36 0 -54 12.5t-28 41.5q-52 -65 -155 -65q-65 0 -110.5 27.5t-68.5 74t-23 103.5q0 82 35 150.5t97 108.5t140 40q49 0 84.5 -18.5t52.5 -48.5l7 24q12 37 47 37q21 0 34.5 -8.5t13.5 -20.5q0 -9 -6 -26.5
t-7 -22.5q-9 -24 -13 -39q-17 -57 -33 -138.5t-16 -116.5q0 -18 5.5 -26t19.5 -10q14 -3 20.5 -7.5zM344 97q38 27 48 78q24 122 24 150q0 45 -29 67.5t-65 22.5q-49 0 -89 -33t-62.5 -84.5t-22.5 -106.5q0 -53 25 -87t81 -34q52 0 90 27zM184 -177q-14 14 -14 37
q0 30 22 51t52 21q23 0 37.5 -13.5t14.5 -35.5q0 -31 -22 -52.5t-52 -21.5q-24 0 -38 14zM446 574q-56 98 -68 98q-7 0 -29.5 -20t-52.5 -48l-20 -18q-22 -22 -41 -22q-14 0 -23 9.5t-9 22.5q0 18 17 32q2 2 32 29q47 44 80.5 69.5t55.5 25.5q27 0 46 -20.5t47 -65.5
q11 -19 30 -46q7 -9 7 -19q0 -16 -13 -29t-29 -13q-20 0 -30 15z" />
    <glyph glyph-name="uni1EA7" unicode="&#x1ea7;" horiz-adv-x="620" 
d="M527.5 72.5q6.5 -4.5 6.5 -19.5q0 -22 -12 -37t-37 -15q-36 0 -54 12.5t-28 41.5q-52 -65 -155 -65q-65 0 -110.5 27.5t-68.5 74t-23 103.5q0 82 35 150.5t97 108.5t140 40q49 0 84.5 -18.5t52.5 -48.5l7 24q12 37 47 37q21 0 34.5 -8.5t13.5 -20.5q0 -9 -6 -26.5
t-7 -22.5q-9 -24 -13 -39q-17 -57 -33 -138.5t-16 -116.5q0 -18 5.5 -26t19.5 -10q14 -3 20.5 -7.5zM344 97q38 27 48 78q24 122 24 150q0 45 -29 67.5t-65 22.5q-49 0 -89 -33t-62.5 -84.5t-22.5 -106.5q0 -53 25 -87t81 -34q52 0 90 27zM516 735l-42 49q-13 15 -13 32
q0 18 13.5 31t31.5 13q11 0 18.5 -6t18.5 -20l36 -47q10 -15 10 -28q0 -17 -12.5 -29.5t-28.5 -12.5q-17 0 -32 18zM446 575q-56 98 -68 98q-7 0 -29.5 -20t-52.5 -48l-20 -18q-22 -22 -41 -22q-14 0 -23 9.5t-9 22.5q0 18 17 32q2 2 32 29q47 44 80.5 69.5t55.5 25.5
q27 0 46 -20.5t47 -65.5q11 -19 30 -46q7 -9 7 -19q0 -16 -13 -29t-29 -13q-20 0 -30 15z" />
    <glyph glyph-name="uni1EA9" unicode="&#x1ea9;" horiz-adv-x="620" 
d="M527.5 72.5q6.5 -4.5 6.5 -19.5q0 -22 -12 -37t-37 -15q-36 0 -54 12.5t-28 41.5q-52 -65 -155 -65q-65 0 -110.5 27.5t-68.5 74t-23 103.5q0 82 35 150.5t97 108.5t140 40q49 0 84.5 -18.5t52.5 -48.5l7 24q12 37 47 37q21 0 34.5 -8.5t13.5 -20.5q0 -9 -6 -26.5
t-7 -22.5q-9 -24 -13 -39q-17 -57 -33 -138.5t-16 -116.5q0 -18 5.5 -26t19.5 -10q14 -3 20.5 -7.5zM344 97q38 27 48 78q24 122 24 150q0 45 -29 67.5t-65 22.5q-49 0 -89 -33t-62.5 -84.5t-22.5 -106.5q0 -53 25 -87t81 -34q52 0 90 27zM526.5 722.5q-7.5 6.5 -7.5 15.5
t2 18t3 14q1 7 8.5 14t21.5 17q16 12 23.5 19.5t7.5 16.5q0 19 -27 19q-16 0 -27.5 -6t-16.5 -17q-2 -8 -9 -12.5t-15 -4.5q-19 0 -19 20q0 30 29 49.5t66 19.5q32 0 54.5 -16t22.5 -42q0 -22 -10.5 -35t-28.5 -25q-20 -11 -21 -20q-2 -9 -4 -25q-2 -12 -12.5 -19t-23.5 -7
q-9 0 -16.5 6.5zM446 575q-56 98 -68 98q-7 0 -29.5 -20t-52.5 -48l-20 -18q-22 -22 -41 -22q-14 0 -23 9.5t-9 22.5q0 18 17 32q2 2 32 29q47 44 80.5 69.5t55.5 25.5q27 0 46 -20.5t47 -65.5q11 -19 30 -46q7 -9 7 -19q0 -16 -13 -29t-29 -13q-20 0 -30 15z" />
    <glyph glyph-name="uni1EAB" unicode="&#x1eab;" horiz-adv-x="620" 
d="M527.5 72.5q6.5 -4.5 6.5 -19.5q0 -22 -12 -37t-37 -15q-36 0 -54 12.5t-28 41.5q-52 -65 -155 -65q-65 0 -110.5 27.5t-68.5 74t-23 103.5q0 82 35 150.5t97 108.5t140 40q49 0 84.5 -18.5t52.5 -48.5l7 24q12 37 47 37q21 0 34.5 -8.5t13.5 -20.5q0 -9 -6 -26.5
t-7 -22.5q-9 -24 -13 -39q-17 -57 -33 -138.5t-16 -116.5q0 -18 5.5 -26t19.5 -10q14 -3 20.5 -7.5zM344 97q38 27 48 78q24 122 24 150q0 45 -29 67.5t-65 22.5q-49 0 -89 -33t-62.5 -84.5t-22.5 -106.5q0 -53 25 -87t81 -34q52 0 90 27zM242 794q-8 7 -8 19q0 16 16 30
q31 27 52 38t49 11q37 0 81 -22q36 -19 51 -19q13 0 31 13q6 4 16 11t19 7q13 0 21 -9t8 -21q0 -17 -16 -28q-25 -19 -46.5 -28t-42.5 -9q-17 0 -32.5 5t-28 11t-17.5 9q-34 17 -49 17q-10 0 -20.5 -6.5t-25.5 -19.5q-19 -16 -36 -16q-14 0 -22 7zM446 575q-56 98 -68 98
q-7 0 -29.5 -20t-52.5 -48l-20 -18q-22 -22 -41 -22q-14 0 -23 9.5t-9 22.5q0 18 17 32q2 2 32 29q47 44 80.5 69.5t55.5 25.5q27 0 46 -20.5t47 -65.5q11 -19 30 -46q7 -9 7 -19q0 -16 -13 -29t-29 -13q-20 0 -30 15z" />
    <glyph glyph-name="adieresis" unicode="&#xe4;" horiz-adv-x="620" 
d="M527.5 72.5q6.5 -4.5 6.5 -19.5q0 -22 -12 -37t-37 -15q-36 0 -54 12.5t-28 41.5q-52 -65 -155 -65q-65 0 -110.5 27.5t-68.5 74t-23 103.5q0 82 35 150.5t97 108.5t140 40q49 0 84.5 -18.5t52.5 -48.5l7 24q12 37 47 37q21 0 34.5 -8.5t13.5 -20.5q0 -9 -6 -26.5
t-7 -22.5q-9 -24 -13 -39q-17 -57 -33 -138.5t-16 -116.5q0 -18 5.5 -26t19.5 -10q14 -3 20.5 -7.5zM344 97q38 27 48 78q24 122 24 150q0 45 -29 67.5t-65 22.5q-49 0 -89 -33t-62.5 -84.5t-22.5 -106.5q0 -53 25 -87t81 -34q52 0 90 27zM195 585.5q-15 14.5 -15 36.5
q0 29 22.5 50.5t51.5 21.5q22 0 37.5 -15t15.5 -36q0 -28 -23 -50t-51 -22q-23 0 -38 14.5zM447 585.5q-15 14.5 -15 36.5q0 29 22.5 50.5t51.5 21.5q22 0 37 -14.5t15 -36.5q0 -28 -22.5 -50t-50.5 -22q-23 0 -38 14.5z" />
    <glyph glyph-name="uni1EA1" unicode="&#x1ea1;" horiz-adv-x="620" 
d="M527.5 72.5q6.5 -4.5 6.5 -19.5q0 -22 -12 -37t-37 -15q-36 0 -54 12.5t-28 41.5q-52 -65 -155 -65q-65 0 -110.5 27.5t-68.5 74t-23 103.5q0 82 35 150.5t97 108.5t140 40q49 0 84.5 -18.5t52.5 -48.5l7 24q12 37 47 37q21 0 34.5 -8.5t13.5 -20.5q0 -9 -6 -26.5
t-7 -22.5q-9 -24 -13 -39q-17 -57 -33 -138.5t-16 -116.5q0 -18 5.5 -26t19.5 -10q14 -3 20.5 -7.5zM344 97q38 27 48 78q24 122 24 150q0 45 -29 67.5t-65 22.5q-49 0 -89 -33t-62.5 -84.5t-22.5 -106.5q0 -53 25 -87t81 -34q52 0 90 27zM184 -177q-14 14 -14 37
q0 30 22 51t52 21q23 0 37.5 -13.5t14.5 -35.5q0 -31 -22 -52.5t-52 -21.5q-24 0 -38 14z" />
    <glyph glyph-name="agrave" unicode="&#xe0;" horiz-adv-x="620" 
d="M527.5 72.5q6.5 -4.5 6.5 -19.5q0 -22 -12 -37t-37 -15q-36 0 -54 12.5t-28 41.5q-52 -65 -155 -65q-65 0 -110.5 27.5t-68.5 74t-23 103.5q0 82 35 150.5t97 108.5t140 40q49 0 84.5 -18.5t52.5 -48.5l7 24q12 37 47 37q21 0 34.5 -8.5t13.5 -20.5q0 -9 -6 -26.5
t-7 -22.5q-9 -24 -13 -39q-17 -57 -33 -138.5t-16 -116.5q0 -18 5.5 -26t19.5 -10q14 -3 20.5 -7.5zM344 97q38 27 48 78q24 122 24 150q0 45 -29 67.5t-65 22.5q-49 0 -89 -33t-62.5 -84.5t-22.5 -106.5q0 -53 25 -87t81 -34q52 0 90 27zM383.5 559q-7.5 4 -15.5 14l-64 86
q-13 19 -13 32q0 19 13.5 32t30.5 13q11 0 20 -6.5t18 -20.5l58 -85q11 -14 11 -28q0 -16 -12.5 -28.5t-29.5 -12.5q-9 0 -16.5 4z" />
    <glyph glyph-name="uni1EA3" unicode="&#x1ea3;" horiz-adv-x="620" 
d="M527.5 72.5q6.5 -4.5 6.5 -19.5q0 -22 -12 -37t-37 -15q-36 0 -54 12.5t-28 41.5q-52 -65 -155 -65q-65 0 -110.5 27.5t-68.5 74t-23 103.5q0 82 35 150.5t97 108.5t140 40q49 0 84.5 -18.5t52.5 -48.5l7 24q12 37 47 37q21 0 34.5 -8.5t13.5 -20.5q0 -9 -6 -26.5
t-7 -22.5q-9 -24 -13 -39q-17 -57 -33 -138.5t-16 -116.5q0 -18 5.5 -26t19.5 -10q14 -3 20.5 -7.5zM344 97q38 27 48 78q24 122 24 150q0 45 -29 67.5t-65 22.5q-49 0 -89 -33t-62.5 -84.5t-22.5 -106.5q0 -53 25 -87t81 -34q52 0 90 27zM330 566.5q-10 10.5 -7 25.5
q4 23 8 42q2 12 12.5 21.5t31.5 23.5t32.5 26t11.5 25q0 14 -11 23.5t-32 9.5q-22 0 -37.5 -10.5t-29.5 -28.5q-15 -20 -31 -20q-11 0 -20 8t-9 17q0 14 13 30q26 33 55.5 50.5t71.5 17.5q49 0 80 -23t31 -60q0 -32 -16 -51t-44 -37q-11 -7 -19.5 -13.5t-9.5 -13.5l-6 -35
q-3 -19 -16.5 -28.5t-31.5 -9.5q-17 0 -27 10.5z" />
    <glyph glyph-name="uni0251" unicode="&#x251;" horiz-adv-x="620" 
d="M527.5 72.5q6.5 -4.5 6.5 -19.5q0 -22 -12 -37t-37 -15q-36 0 -54 12.5t-28 41.5q-52 -65 -155 -65q-65 0 -110.5 27.5t-68.5 74t-23 103.5q0 82 35 150.5t97 108.5t140 40q49 0 84.5 -18.5t52.5 -48.5l7 24q12 37 47 37q21 0 34.5 -8.5t13.5 -20.5q0 -9 -6 -26.5
t-7 -22.5q-9 -24 -13 -39q-17 -57 -33 -138.5t-16 -116.5q0 -18 5.5 -26t19.5 -10q14 -3 20.5 -7.5zM344 97q38 27 48 78q24 122 24 150q0 45 -29 67.5t-65 22.5q-49 0 -89 -33t-62.5 -84.5t-22.5 -106.5q0 -53 25 -87t81 -34q52 0 90 27z" />
    <glyph glyph-name="amacron" unicode="&#x101;" horiz-adv-x="620" 
d="M527.5 72.5q6.5 -4.5 6.5 -19.5q0 -22 -12 -37t-37 -15q-36 0 -54 12.5t-28 41.5q-52 -65 -155 -65q-65 0 -110.5 27.5t-68.5 74t-23 103.5q0 82 35 150.5t97 108.5t140 40q49 0 84.5 -18.5t52.5 -48.5l7 24q12 37 47 37q21 0 34.5 -8.5t13.5 -20.5q0 -9 -6 -26.5
t-7 -22.5q-9 -24 -13 -39q-17 -57 -33 -138.5t-16 -116.5q0 -18 5.5 -26t19.5 -10q14 -3 20.5 -7.5zM344 97q38 27 48 78q24 122 24 150q0 45 -29 67.5t-65 22.5q-49 0 -89 -33t-62.5 -84.5t-22.5 -106.5q0 -53 25 -87t81 -34q52 0 90 27zM171.5 590q-6.5 8 -6.5 21
q0 20 11.5 33t31.5 16q42 7 75.5 10.5t92.5 3.5h147q16 0 25.5 -9t9.5 -24q0 -20 -12.5 -32t-34.5 -12q-20 0 -35 1l-102 1q-69 0 -153 -12l-31 -4q-12 -1 -18.5 7z" />
    <glyph glyph-name="aogonek" unicode="&#x105;" horiz-adv-x="620" 
d="M458.5 -38.5q-16.5 -18.5 -16.5 -38.5q0 -22 33 -22q7 0 20.5 4t17.5 4q8 0 13 -5.5t5 -15.5q0 -25 -17.5 -38t-48.5 -13q-41 0 -68.5 23t-27.5 58q0 29 14.5 52.5t42.5 46.5q-14 13 -23 38q-52 -65 -155 -65q-65 0 -110.5 27.5t-68.5 74t-23 103.5q0 82 35 150.5
t97 108.5t140 40q49 0 84.5 -18.5t52.5 -48.5l7 24q12 37 47 37q21 0 34.5 -8.5t13.5 -20.5q0 -9 -6 -26.5t-7 -22.5q-9 -24 -13 -39q-17 -57 -33 -138.5t-16 -116.5q0 -18 5.5 -26t19.5 -10q14 -3 20.5 -7.5t6.5 -19.5q0 -31 -20 -44l-7 -6q-32 -23 -48.5 -41.5zM344 97
q38 27 48 78q24 122 24 150q0 45 -29 67.5t-65 22.5q-49 0 -89 -33t-62.5 -84.5t-22.5 -106.5q0 -53 25 -87t81 -34q52 0 90 27z" />
    <glyph glyph-name="aring" unicode="&#xe5;" horiz-adv-x="620" 
d="M527.5 72.5q6.5 -4.5 6.5 -19.5q0 -22 -12 -37t-37 -15q-36 0 -54 12.5t-28 41.5q-52 -65 -155 -65q-65 0 -110.5 27.5t-68.5 74t-23 103.5q0 82 35 150.5t97 108.5t140 40q49 0 84.5 -18.5t52.5 -48.5l7 24q12 37 47 37q21 0 34.5 -8.5t13.5 -20.5q0 -9 -6 -26.5
t-7 -22.5q-9 -24 -13 -39q-17 -57 -33 -138.5t-16 -116.5q0 -18 5.5 -26t19.5 -10q14 -3 20.5 -7.5zM344 97q38 27 48 78q24 122 24 150q0 45 -29 67.5t-65 22.5q-49 0 -89 -33t-62.5 -84.5t-22.5 -106.5q0 -53 25 -87t81 -34q52 0 90 27zM284.5 566.5
q-29.5 29.5 -29.5 71.5q0 34 18.5 64t50.5 48t69 18q42 0 70.5 -30t28.5 -69q0 -36 -18.5 -66t-49.5 -48t-67 -18q-43 0 -72.5 29.5zM410 618q19 18 19 44q0 18 -12.5 31t-32.5 13q-27 0 -46 -19t-19 -43q0 -19 13 -31.5t33 -12.5q26 0 45 18z" />
    <glyph glyph-name="aringacute" unicode="&#x1fb;" horiz-adv-x="620" 
d="M527.5 72.5q6.5 -4.5 6.5 -19.5q0 -22 -12 -37t-37 -15q-36 0 -54 12.5t-28 41.5q-52 -65 -155 -65q-65 0 -110.5 27.5t-68.5 74t-23 103.5q0 82 35 150.5t97 108.5t140 40q49 0 84.5 -18.5t52.5 -48.5l7 24q12 37 47 37q21 0 34.5 -8.5t13.5 -20.5q0 -9 -6 -26.5
t-7 -22.5q-9 -24 -13 -39q-17 -57 -33 -138.5t-16 -116.5q0 -18 5.5 -26t19.5 -10q14 -3 20.5 -7.5zM344 97q38 27 48 78q24 122 24 150q0 45 -29 67.5t-65 22.5q-49 0 -89 -33t-62.5 -84.5t-22.5 -106.5q0 -53 25 -87t81 -34q52 0 90 27zM284.5 566.5
q-29.5 29.5 -29.5 71.5q0 34 18.5 64t50.5 48t69 18q42 0 70.5 -30t28.5 -69q0 -36 -18.5 -66t-49.5 -48t-67 -18q-43 0 -72.5 29.5zM410 618q19 18 19 44q0 18 -12.5 31t-32.5 13q-27 0 -46 -19t-19 -43q0 -19 13 -31.5t33 -12.5q26 0 45 18zM340 832q-9 10 -9 22
q0 9 6 20.5t18 20.5l96 80q19 15 29 21t21 6q14 0 23 -10t9 -24q0 -25 -28 -46l-102 -80q-14 -11 -23 -15.5t-18 -4.5q-13 0 -22 10z" />
    <glyph glyph-name="atilde" unicode="&#xe3;" horiz-adv-x="620" 
d="M527.5 72.5q6.5 -4.5 6.5 -19.5q0 -22 -12 -37t-37 -15q-36 0 -54 12.5t-28 41.5q-52 -65 -155 -65q-65 0 -110.5 27.5t-68.5 74t-23 103.5q0 82 35 150.5t97 108.5t140 40q49 0 84.5 -18.5t52.5 -48.5l7 24q12 37 47 37q21 0 34.5 -8.5t13.5 -20.5q0 -9 -6 -26.5
t-7 -22.5q-9 -24 -13 -39q-17 -57 -33 -138.5t-16 -116.5q0 -18 5.5 -26t19.5 -10q14 -3 20.5 -7.5zM344 97q38 27 48 78q24 122 24 150q0 45 -29 67.5t-65 22.5q-49 0 -89 -33t-62.5 -84.5t-22.5 -106.5q0 -53 25 -87t81 -34q52 0 90 27zM202.5 576q-8.5 9 -8.5 23
q0 16 15 31q31 31 53.5 43.5t50.5 12.5q49 0 87 -23q7 -4 18 -10t17 -8.5t12 -2.5q11 0 27 14q10 10 17.5 14t16.5 4q12 0 21.5 -10t9.5 -23q0 -19 -15 -32q-26 -22 -47.5 -32t-43.5 -10q-16 0 -30 5.5t-27.5 12.5t-20.5 11q-5 2 -21.5 10t-27.5 8q-9 0 -18 -6.5t-25 -21.5
q-22 -19 -39 -19q-13 0 -21.5 9z" />
    <glyph glyph-name="ae" unicode="&#xe6;" horiz-adv-x="972" 
d="M822.5 489.5q49.5 -25.5 78.5 -67.5t29 -90q0 -15 -3 -30q-6 -35 -22.5 -47t-49.5 -13l-349 -9l-2 -12q-3 -21 -3 -38q0 -61 33 -88t105 -27q63 0 103.5 22.5t70.5 61.5q15 18 35 18q14 0 26 -12t12 -25q0 -18 -16 -38q-82 -105 -231 -105q-77 0 -129 25.5t-68 72.5
q-26 -46 -80.5 -72t-128.5 -26q-103 0 -152 32.5t-49 104.5q0 85 57.5 128.5t176.5 46.5l157 4l2 14q2 12 2 19q0 41 -31 67t-87 26q-52 0 -89 -15t-75 -46q-17 -14 -34 -14q-15 0 -24.5 11.5t-9.5 22.5q0 9 6 17.5t17 19.5q48 42 99 62.5t113 20.5q67 0 116.5 -31.5
t60.5 -82.5q33 52 92.5 85t131.5 33q60 0 109.5 -25.5zM596 400q-53 -38 -73 -92l312 8l2 9q1 4 1 13q0 25 -16 48t-45.5 37.5t-66.5 14.5q-61 0 -114 -38zM347.5 94.5q43.5 27.5 52.5 81.5l9 54l-143 -4q-137 -3 -137 -96q0 -33 26 -48t83 -15q66 0 109.5 27.5z" />
    <glyph glyph-name="aeacute" unicode="&#x1fd;" horiz-adv-x="972" 
d="M822.5 489.5q49.5 -25.5 78.5 -67.5t29 -90q0 -15 -3 -30q-6 -35 -22.5 -47t-49.5 -13l-349 -9l-2 -12q-3 -21 -3 -38q0 -61 33 -88t105 -27q63 0 103.5 22.5t70.5 61.5q15 18 35 18q14 0 26 -12t12 -25q0 -18 -16 -38q-82 -105 -231 -105q-77 0 -129 25.5t-68 72.5
q-26 -46 -80.5 -72t-128.5 -26q-103 0 -152 32.5t-49 104.5q0 85 57.5 128.5t176.5 46.5l157 4l2 14q2 12 2 19q0 41 -31 67t-87 26q-52 0 -89 -15t-75 -46q-17 -14 -34 -14q-15 0 -24.5 11.5t-9.5 22.5q0 9 6 17.5t17 19.5q48 42 99 62.5t113 20.5q67 0 116.5 -31.5
t60.5 -82.5q33 52 92.5 85t131.5 33q60 0 109.5 -25.5zM596 400q-53 -38 -73 -92l312 8l2 9q1 4 1 13q0 25 -16 48t-45.5 37.5t-66.5 14.5q-61 0 -114 -38zM347.5 94.5q43.5 27.5 52.5 81.5l9 54l-143 -4q-137 -3 -137 -96q0 -33 26 -48t83 -15q66 0 109.5 27.5zM460 570
q-8 8 -9 20q0 19 18 37l106 106q14 14 25.5 20t23.5 6q15 0 24.5 -8.5t9.5 -22.5q0 -25 -31 -52l-105 -94q-12 -12 -21 -16t-20 -4q-13 0 -21 8z" />
    <glyph glyph-name="b" unicode="b" horiz-adv-x="637" 
d="M479 482.5q51 -26.5 80.5 -74.5t29.5 -110q0 -87 -38 -155t-105 -106.5t-152 -38.5q-38 0 -75 12t-63.5 29.5t-34.5 34.5q-10 -20 -29.5 -36.5t-34.5 -22.5q-12 -6 -21 -6q-17 0 -27.5 12.5t-10.5 27.5q0 16 17 28q9 6 18 14t14 19q8 16 14 46t20 124l16 102l34 216
q19 112 37 232q3 19 19.5 30t38.5 11q20 0 32 -10t9 -27q-12 -94 -35 -231l-24 -153q57 59 157 59q63 0 114 -26.5zM394.5 107q44.5 30 69.5 81t25 109q0 64 -36 98.5t-98 34.5q-50 0 -92.5 -25.5t-68.5 -57.5l-9 -49l-6 -34q-9 -58 -12 -89q-1 -26 16 -48.5t46.5 -36
t65.5 -13.5q55 0 99.5 30z" />
    <glyph glyph-name="c" unicode="c" horiz-adv-x="591" 
d="M154 27.5q-52 27.5 -80 75t-28 103.5q0 84 39 154.5t107.5 112t151.5 41.5q52 0 101.5 -21t80.5 -57t31 -77q0 -20 -14 -30.5t-39 -10.5q-16 0 -26.5 8.5t-12.5 24.5q-2 19 -17 38.5t-41.5 32.5t-59.5 13q-55 0 -101 -33t-73 -86.5t-27 -109.5q0 -57 34.5 -92t99.5 -35
q49 0 89 19t62.5 48.5t22.5 58.5q0 12 13.5 21t32.5 9q20 0 31 -7t11 -24q0 -58 -38 -104.5t-99.5 -73t-129.5 -26.5q-69 0 -121 27.5z" />
    <glyph glyph-name="cacute" unicode="&#x107;" horiz-adv-x="591" 
d="M154 27.5q-52 27.5 -80 75t-28 103.5q0 84 39 154.5t107.5 112t151.5 41.5q52 0 101.5 -21t80.5 -57t31 -77q0 -20 -14 -30.5t-39 -10.5q-16 0 -26.5 8.5t-12.5 24.5q-2 19 -17 38.5t-41.5 32.5t-59.5 13q-55 0 -101 -33t-73 -86.5t-27 -109.5q0 -57 34.5 -92t99.5 -35
q49 0 89 19t62.5 48.5t22.5 58.5q0 12 13.5 21t32.5 9q20 0 31 -7t11 -24q0 -58 -38 -104.5t-99.5 -73t-129.5 -26.5q-69 0 -121 27.5zM300 564q-9 10 -9 22q0 9 6 20.5t18 20.5l96 80q19 15 29 21t21 6q14 0 23 -10t9 -24q0 -25 -28 -46l-102 -80q-14 -11 -23 -15.5
t-18 -4.5q-13 0 -22 10z" />
    <glyph glyph-name="ccaron" unicode="&#x10d;" horiz-adv-x="591" 
d="M154 27.5q-52 27.5 -80 75t-28 103.5q0 84 39 154.5t107.5 112t151.5 41.5q52 0 101.5 -21t80.5 -57t31 -77q0 -20 -14 -30.5t-39 -10.5q-16 0 -26.5 8.5t-12.5 24.5q-2 19 -17 38.5t-41.5 32.5t-59.5 13q-55 0 -101 -33t-73 -86.5t-27 -109.5q0 -57 34.5 -92t99.5 -35
q49 0 89 19t62.5 48.5t22.5 58.5q0 12 13.5 21t32.5 9q20 0 31 -7t11 -24q0 -58 -38 -104.5t-99.5 -73t-129.5 -26.5q-69 0 -121 27.5zM535.5 748.5q8.5 -8.5 8.5 -21.5q0 -9 -3.5 -15t-12.5 -17q-45 -50 -68.5 -73.5t-49.5 -40.5t-51 -17q-23 0 -49 28t-58 73q-9 13 -17 23
t-8 25q1 15 15.5 27t29.5 12q9 0 16.5 -5.5t16.5 -16.5q30 -45 46.5 -66t24.5 -21q7 0 32 24.5t71 74.5q14 15 35 15q13 0 21.5 -8.5z" />
    <glyph glyph-name="ccedilla" unicode="&#xe7;" horiz-adv-x="591" 
d="M246 402q-46 -33 -73 -86.5t-27 -109.5q0 -57 34.5 -92t99.5 -35q49 0 89 19t62.5 48.5t22.5 58.5q0 12 13.5 21t32.5 9q20 0 31 -7t11 -24q0 -54 -33 -98t-87.5 -71.5t-117.5 -33.5l-47 -56q31 -8 52 -26.5t21 -50.5q0 -45 -39 -69t-101 -24q-19 0 -42.5 4t-38.5 10
q-20 9 -20 27q0 16 11 26.5t27 10.5q3 0 28.5 -6.5t41.5 -6.5q30 0 45.5 5.5t15.5 22.5q0 14 -12 19t-49 12q-14 1 -21.5 8.5t-7.5 17.5q0 9 4 17l51 62q-81 15 -129 71t-48 131q0 84 39 154.5t107.5 112t151.5 41.5q52 0 101.5 -21t80.5 -57t31 -77q0 -20 -14 -30.5
t-39 -10.5q-16 0 -26.5 8.5t-12.5 24.5q-2 19 -17 38.5t-41.5 32.5t-59.5 13q-55 0 -101 -33z" />
    <glyph glyph-name="ccircumflex" unicode="&#x109;" horiz-adv-x="591" 
d="M154 27.5q-52 27.5 -80 75t-28 103.5q0 84 39 154.5t107.5 112t151.5 41.5q52 0 101.5 -21t80.5 -57t31 -77q0 -20 -14 -30.5t-39 -10.5q-16 0 -26.5 8.5t-12.5 24.5q-2 19 -17 38.5t-41.5 32.5t-59.5 13q-55 0 -101 -33t-73 -86.5t-27 -109.5q0 -57 34.5 -92t99.5 -35
q49 0 89 19t62.5 48.5t22.5 58.5q0 12 13.5 21t32.5 9q20 0 31 -7t11 -24q0 -58 -38 -104.5t-99.5 -73t-129.5 -26.5q-69 0 -121 27.5zM453 574q-56 98 -68 98q-7 0 -29.5 -20t-52.5 -48l-20 -18q-22 -22 -41 -22q-14 0 -23 9.5t-9 22.5q0 18 17 32q2 2 32 29
q47 44 80.5 69.5t55.5 25.5q27 0 46 -20.5t47 -65.5q11 -19 30 -46q7 -9 7 -19q0 -16 -13 -29t-29 -13q-20 0 -30 15z" />
    <glyph glyph-name="cdotaccent" unicode="&#x10b;" horiz-adv-x="591" 
d="M154 27.5q-52 27.5 -80 75t-28 103.5q0 84 39 154.5t107.5 112t151.5 41.5q52 0 101.5 -21t80.5 -57t31 -77q0 -20 -14 -30.5t-39 -10.5q-16 0 -26.5 8.5t-12.5 24.5q-2 19 -17 38.5t-41.5 32.5t-59.5 13q-55 0 -101 -33t-73 -86.5t-27 -109.5q0 -57 34.5 -92t99.5 -35
q49 0 89 19t62.5 48.5t22.5 58.5q0 12 13.5 21t32.5 9q20 0 31 -7t11 -24q0 -58 -38 -104.5t-99.5 -73t-129.5 -26.5q-69 0 -121 27.5zM327 585q-15 15 -15 38q0 28 22.5 49t51.5 21q22 0 37 -14t15 -35q0 -29 -22 -51.5t-51 -22.5q-23 0 -38 15z" />
    <glyph glyph-name="d" unicode="d" horiz-adv-x="634" 
d="M109 44.5q-62 51.5 -62 149.5q0 84 39 157t107.5 116t151.5 43q55 0 97.5 -17.5t62.5 -46.5l75 380q4 17 19.5 28t36.5 11t34 -11t9 -28l-125 -651q-4 -22 -6 -44t-1 -31q1 -19 11 -32t10 -17q0 -8 -10.5 -21.5t-25.5 -23.5t-29 -10q-24 0 -41 22.5t-19 55.5
q-35 -41 -75.5 -61t-99.5 -20q-97 0 -159 51.5zM361 95q37 18 61.5 47.5t30.5 62.5l28 152q-11 30 -49.5 50.5t-84.5 20.5q-56 0 -101.5 -31t-71.5 -81t-26 -106q0 -66 37.5 -99.5t96.5 -33.5q42 0 79 18z" />
    <glyph glyph-name="eth" unicode="&#xf0;" horiz-adv-x="612" 
d="M551.5 459q15.5 -64 15.5 -124q0 -98 -36.5 -173.5t-104 -117.5t-158.5 -42q-64 0 -114 27.5t-77.5 74.5t-27.5 103q0 81 38.5 148t105 106t147.5 39q50 0 96 -18q-9 25 -24 47q-17 29 -43 55l-78 -39q-16 -9 -33 -9q-15 0 -24.5 9.5t-9.5 23.5q0 22 26 36l55 29
q-23 14 -43 23q-11 5 -15.5 10.5t-4.5 15.5q0 19 15.5 36t35.5 17q17 0 41 -14q5 -3 25.5 -13.5t41.5 -25.5l86 45q8 4 18 4q15 0 26.5 -10.5t11.5 -25.5q0 -14 -7.5 -22.5t-25.5 -17.5l-49 -25q23 -23 45 -59q30 -49 45.5 -113zM375 117q44 34 66.5 92t22.5 127v2
q-19 40 -50.5 61.5t-74.5 21.5q-52 0 -96 -31t-69.5 -79.5t-25.5 -100.5q0 -57 33 -92t90 -35q60 0 104 34z" />
    <glyph glyph-name="dcaron" unicode="&#x10f;" horiz-adv-x="787" 
d="M109 44.5q-62 51.5 -62 149.5q0 84 39 157t107.5 116t151.5 43q55 0 97.5 -17.5t62.5 -46.5l75 380q4 17 19.5 28t36.5 11t34 -11t9 -28l-125 -651q-4 -22 -6 -44t-1 -31q1 -19 11 -32t10 -17q0 -8 -10.5 -21.5t-25.5 -23.5t-29 -10q-24 0 -41 22.5t-19 55.5
q-35 -41 -75.5 -61t-99.5 -20q-97 0 -159 51.5zM361 95q37 18 61.5 47.5t30.5 62.5l28 152q-11 30 -49.5 50.5t-84.5 20.5q-56 0 -101.5 -31t-71.5 -81t-26 -106q0 -66 37.5 -99.5t96.5 -33.5q42 0 79 18zM854 823q16 -15 16 -39q0 -37 -32 -79t-83 -80q-1 -1 -6.5 -5
t-12.5 -4q-13 0 -22 9t-9 20q0 6 3.5 11t7.5 10q6 5 24.5 20.5t30.5 29.5q-14 2 -24.5 16t-10.5 30q0 30 24 53t54 23q24 0 40 -15z" />
    <glyph glyph-name="dcroat" unicode="&#x111;" horiz-adv-x="714" 
d="M740.5 712q10.5 -8 10.5 -22q0 -20 -15 -34t-37 -14l-56 -1l-89 -466q-4 -22 -6 -44t-1 -31q1 -19 11 -32t10 -17q0 -8 -10.5 -21.5t-25.5 -23.5t-29 -10q-24 0 -41 22.5t-19 55.5q-35 -41 -75.5 -61t-99.5 -20q-97 0 -159 51.5t-62 149.5q0 84 39 157t107.5 116
t151.5 43q55 0 97.5 -17.5t62.5 -46.5l38 193l-71 -1q-17 0 -27 8t-10 22q0 20 14 32t35 13l74 2l22 111q4 17 19.5 28t36.5 11t34 -11t9 -28l-21 -108l53 1q19 1 29.5 -7zM481 357q-11 30 -49.5 50.5t-84.5 20.5q-56 0 -101.5 -31t-71.5 -81t-26 -106q0 -66 37.5 -99.5
t96.5 -33.5q42 0 79 18t61.5 47.5t30.5 62.5z" />
    <glyph glyph-name="uni1E0D" unicode="&#x1e0d;" horiz-adv-x="634" 
d="M109 44.5q-62 51.5 -62 149.5q0 84 39 157t107.5 116t151.5 43q55 0 97.5 -17.5t62.5 -46.5l75 380q4 17 19.5 28t36.5 11t34 -11t9 -28l-125 -651q-4 -22 -6 -44t-1 -31q1 -19 11 -32t10 -17q0 -8 -10.5 -21.5t-25.5 -23.5t-29 -10q-24 0 -41 22.5t-19 55.5
q-35 -41 -75.5 -61t-99.5 -20q-97 0 -159 51.5zM361 95q37 18 61.5 47.5t30.5 62.5l28 152q-11 30 -49.5 50.5t-84.5 20.5q-56 0 -101.5 -31t-71.5 -81t-26 -106q0 -66 37.5 -99.5t96.5 -33.5q42 0 79 18zM197 -177q-14 14 -14 37q0 30 22 51t52 21q23 0 37.5 -13.5
t14.5 -35.5q0 -31 -22 -52.5t-52 -21.5q-24 0 -38 14z" />
    <glyph glyph-name="uni1E0F" unicode="&#x1e0f;" horiz-adv-x="634" 
d="M109 44.5q-62 51.5 -62 149.5q0 84 39 157t107.5 116t151.5 43q55 0 97.5 -17.5t62.5 -46.5l75 380q4 17 19.5 28t36.5 11t34 -11t9 -28l-125 -651q-4 -22 -6 -44t-1 -31q1 -19 11 -32t10 -17q0 -8 -10.5 -21.5t-25.5 -23.5t-29 -10q-24 0 -41 22.5t-19 55.5
q-35 -41 -75.5 -61t-99.5 -20q-97 0 -159 51.5zM361 95q37 18 61.5 47.5t30.5 62.5l28 152q-11 30 -49.5 50.5t-84.5 20.5q-56 0 -101.5 -31t-71.5 -81t-26 -106q0 -66 37.5 -99.5t96.5 -33.5q42 0 79 18zM85 -167q-8 8 -8 22q0 18 11 31.5t27 15.5q75 9 186 9q35 0 73 -2
q12 -1 29 -1q16 0 25 -9t9 -23q0 -20 -14 -32t-33 -12l-26 1q-57 3 -78 3q-49 0 -142 -8q-27 -3 -39 -3t-20 8z" />
    <glyph glyph-name="e" unicode="e" horiz-adv-x="611" 
d="M159.5 23.5q-53.5 29.5 -81.5 80t-28 110.5q0 80 39 149t107.5 110t152.5 41q61 0 110.5 -22t79 -64t29.5 -98q0 -52 -18 -75.5t-53 -23.5l-358 -6q-1 -7 -1 -19q0 -57 41 -93.5t107 -36.5q55 0 88.5 19t71.5 55q13 11 27 11q15 0 28 -10.5t13 -24.5q0 -15 -15 -31
q-36 -42 -83.5 -71.5t-129.5 -29.5q-73 0 -126.5 29.5zM466 302q13 0 17 6.5t4 23.5q0 48 -38.5 76t-97.5 28q-51 0 -95 -24.5t-72 -58t-32 -58.5z" />
    <glyph glyph-name="eacute" unicode="&#xe9;" horiz-adv-x="611" 
d="M159.5 23.5q-53.5 29.5 -81.5 80t-28 110.5q0 80 39 149t107.5 110t152.5 41q61 0 110.5 -22t79 -64t29.5 -98q0 -52 -18 -75.5t-53 -23.5l-358 -6q-1 -7 -1 -19q0 -57 41 -93.5t107 -36.5q55 0 88.5 19t71.5 55q13 11 27 11q15 0 28 -10.5t13 -24.5q0 -15 -15 -31
q-36 -42 -83.5 -71.5t-129.5 -29.5q-73 0 -126.5 29.5zM466 302q13 0 17 6.5t4 23.5q0 48 -38.5 76t-97.5 28q-51 0 -95 -24.5t-72 -58t-32 -58.5zM301 570q-8 8 -9 20q0 19 18 37l106 106q14 14 25.5 20t23.5 6q15 0 24.5 -8.5t9.5 -22.5q0 -25 -31 -52l-105 -94
q-12 -12 -21 -16t-20 -4q-13 0 -21 8z" />
    <glyph glyph-name="ebreve" unicode="&#x115;" horiz-adv-x="611" 
d="M159.5 23.5q-53.5 29.5 -81.5 80t-28 110.5q0 80 39 149t107.5 110t152.5 41q61 0 110.5 -22t79 -64t29.5 -98q0 -52 -18 -75.5t-53 -23.5l-358 -6q-1 -7 -1 -19q0 -57 41 -93.5t107 -36.5q55 0 88.5 19t71.5 55q13 11 27 11q15 0 28 -10.5t13 -24.5q0 -15 -15 -31
q-36 -42 -83.5 -71.5t-129.5 -29.5q-73 0 -126.5 29.5zM466 302q13 0 17 6.5t4 23.5q0 48 -38.5 76t-97.5 28q-51 0 -95 -24.5t-72 -58t-32 -58.5zM298 575.5q-34 15.5 -53.5 42.5t-19.5 60q0 14 5 26q5 15 15.5 23t24.5 8q13 0 23 -6t9 -17q-1 -5 -1 -14q1 -34 22.5 -53
t56.5 -19q34 0 64 23.5t37 59.5q3 14 16 21.5t27 7.5t23 -9.5t8 -23.5q-4 -37 -30.5 -70.5t-66.5 -54t-83 -20.5t-77 15.5z" />
    <glyph glyph-name="ecaron" unicode="&#x11b;" horiz-adv-x="611" 
d="M159.5 23.5q-53.5 29.5 -81.5 80t-28 110.5q0 80 39 149t107.5 110t152.5 41q61 0 110.5 -22t79 -64t29.5 -98q0 -52 -18 -75.5t-53 -23.5l-358 -6q-1 -7 -1 -19q0 -57 41 -93.5t107 -36.5q55 0 88.5 19t71.5 55q13 11 27 11q15 0 28 -10.5t13 -24.5q0 -15 -15 -31
q-36 -42 -83.5 -71.5t-129.5 -29.5q-73 0 -126.5 29.5zM466 302q13 0 17 6.5t4 23.5q0 48 -38.5 76t-97.5 28q-51 0 -95 -24.5t-72 -58t-32 -58.5zM540.5 748.5q8.5 -8.5 8.5 -21.5q0 -9 -3.5 -15t-12.5 -17q-45 -50 -68.5 -73.5t-49.5 -40.5t-51 -17q-23 0 -49 28t-58 73
q-9 13 -17 23t-8 25q1 15 15.5 27t29.5 12q9 0 16.5 -5.5t16.5 -16.5q30 -45 46.5 -66t24.5 -21q7 0 32 24.5t71 74.5q14 15 35 15q13 0 21.5 -8.5z" />
    <glyph glyph-name="ecircumflex" unicode="&#xea;" horiz-adv-x="611" 
d="M159.5 23.5q-53.5 29.5 -81.5 80t-28 110.5q0 80 39 149t107.5 110t152.5 41q61 0 110.5 -22t79 -64t29.5 -98q0 -52 -18 -75.5t-53 -23.5l-358 -6q-1 -7 -1 -19q0 -57 41 -93.5t107 -36.5q55 0 88.5 19t71.5 55q13 11 27 11q15 0 28 -10.5t13 -24.5q0 -15 -15 -31
q-36 -42 -83.5 -71.5t-129.5 -29.5q-73 0 -126.5 29.5zM466 302q13 0 17 6.5t4 23.5q0 48 -38.5 76t-97.5 28q-51 0 -95 -24.5t-72 -58t-32 -58.5zM458 574q-56 98 -68 98q-7 0 -29.5 -20t-52.5 -48l-20 -18q-22 -22 -41 -22q-14 0 -23 9.5t-9 22.5q0 18 17 32q2 2 32 29
q47 44 80.5 69.5t55.5 25.5q27 0 46 -20.5t47 -65.5q11 -19 30 -46q7 -9 7 -19q0 -16 -13 -29t-29 -13q-20 0 -30 15z" />
    <glyph glyph-name="uni1EBF" unicode="&#x1ebf;" horiz-adv-x="611" 
d="M159.5 23.5q-53.5 29.5 -81.5 80t-28 110.5q0 80 39 149t107.5 110t152.5 41q61 0 110.5 -22t79 -64t29.5 -98q0 -52 -18 -75.5t-53 -23.5l-358 -6q-1 -7 -1 -19q0 -57 41 -93.5t107 -36.5q55 0 88.5 19t71.5 55q13 11 27 11q15 0 28 -10.5t13 -24.5q0 -15 -15 -31
q-36 -42 -83.5 -71.5t-129.5 -29.5q-73 0 -126.5 29.5zM466 302q13 0 17 6.5t4 23.5q0 48 -38.5 76t-97.5 28q-51 0 -95 -24.5t-72 -58t-32 -58.5zM512 725.5q-8 8.5 -8 20.5q0 19 22 41l53 47q15 14 25.5 20t21.5 6q14 0 22.5 -8.5t8.5 -22.5q0 -23 -26 -45l-59 -49
q-22 -18 -39 -18q-13 0 -21 8.5zM460 575q-30 52 -45.5 75t-22.5 23t-29.5 -20t-52.5 -48l-20 -18q-23 -22 -41 -22q-14 0 -23 9.5t-9 22.5q0 18 17 32l33 30q47 44 79.5 69t54.5 25q27 0 46.5 -20.5t45.5 -63.5q5 -7 14.5 -22t17.5 -26q7 -9 7 -19q0 -16 -13 -29t-30 -13
q-21 0 -29 15z" />
    <glyph glyph-name="uni1EC7" unicode="&#x1ec7;" horiz-adv-x="611" 
d="M159.5 23.5q-53.5 29.5 -81.5 80t-28 110.5q0 80 39 149t107.5 110t152.5 41q61 0 110.5 -22t79 -64t29.5 -98q0 -52 -18 -75.5t-53 -23.5l-358 -6q-1 -7 -1 -19q0 -57 41 -93.5t107 -36.5q55 0 88.5 19t71.5 55q13 11 27 11q15 0 28 -10.5t13 -24.5q0 -15 -15 -31
q-36 -42 -83.5 -71.5t-129.5 -29.5q-73 0 -126.5 29.5zM466 302q13 0 17 6.5t4 23.5q0 48 -38.5 76t-97.5 28q-51 0 -95 -24.5t-72 -58t-32 -58.5zM196 -177q-14 14 -14 37q0 30 22 51t52 21q23 0 37.5 -13.5t14.5 -35.5q0 -31 -22 -52.5t-52 -21.5q-24 0 -38 14zM458 574
q-56 98 -68 98q-7 0 -29.5 -20t-52.5 -48l-20 -18q-22 -22 -41 -22q-14 0 -23 9.5t-9 22.5q0 18 17 32q2 2 32 29q47 44 80.5 69.5t55.5 25.5q27 0 46 -20.5t47 -65.5q11 -19 30 -46q7 -9 7 -19q0 -16 -13 -29t-29 -13q-20 0 -30 15z" />
    <glyph glyph-name="uni1EC1" unicode="&#x1ec1;" horiz-adv-x="611" 
d="M159.5 23.5q-53.5 29.5 -81.5 80t-28 110.5q0 80 39 149t107.5 110t152.5 41q61 0 110.5 -22t79 -64t29.5 -98q0 -52 -18 -75.5t-53 -23.5l-358 -6q-1 -7 -1 -19q0 -57 41 -93.5t107 -36.5q55 0 88.5 19t71.5 55q13 11 27 11q15 0 28 -10.5t13 -24.5q0 -15 -15 -31
q-36 -42 -83.5 -71.5t-129.5 -29.5q-73 0 -126.5 29.5zM466 302q13 0 17 6.5t4 23.5q0 48 -38.5 76t-97.5 28q-51 0 -95 -24.5t-72 -58t-32 -58.5zM529 735l-42 49q-13 15 -13 32q0 18 13.5 31t31.5 13q11 0 18.5 -6t18.5 -20l36 -47q10 -15 10 -28q0 -17 -12.5 -29.5
t-28.5 -12.5q-17 0 -32 18zM459 575q-56 98 -68 98q-7 0 -29.5 -20t-52.5 -48l-20 -18q-22 -22 -41 -22q-14 0 -23 9.5t-9 22.5q0 18 17 32q2 2 32 29q47 44 80.5 69.5t55.5 25.5q27 0 46 -20.5t47 -65.5q11 -19 30 -46q7 -9 7 -19q0 -16 -13 -29t-29 -13q-20 0 -30 15z" />
    <glyph glyph-name="uni1EC3" unicode="&#x1ec3;" horiz-adv-x="611" 
d="M159.5 23.5q-53.5 29.5 -81.5 80t-28 110.5q0 80 39 149t107.5 110t152.5 41q61 0 110.5 -22t79 -64t29.5 -98q0 -52 -18 -75.5t-53 -23.5l-358 -6q-1 -7 -1 -19q0 -57 41 -93.5t107 -36.5q55 0 88.5 19t71.5 55q13 11 27 11q15 0 28 -10.5t13 -24.5q0 -15 -15 -31
q-36 -42 -83.5 -71.5t-129.5 -29.5q-73 0 -126.5 29.5zM466 302q13 0 17 6.5t4 23.5q0 48 -38.5 76t-97.5 28q-51 0 -95 -24.5t-72 -58t-32 -58.5zM539.5 722.5q-7.5 6.5 -7.5 15.5t2 18t3 14q1 7 8.5 14t21.5 17q16 12 23.5 19.5t7.5 16.5q0 19 -27 19q-16 0 -27.5 -6
t-16.5 -17q-2 -8 -9 -12.5t-15 -4.5q-19 0 -19 20q0 30 29 49.5t66 19.5q32 0 54.5 -16t22.5 -42q0 -22 -10.5 -35t-28.5 -25q-20 -11 -21 -20q-2 -9 -4 -25q-2 -12 -12.5 -19t-23.5 -7q-9 0 -16.5 6.5zM459 575q-56 98 -68 98q-7 0 -29.5 -20t-52.5 -48l-20 -18
q-22 -22 -41 -22q-14 0 -23 9.5t-9 22.5q0 18 17 32q2 2 32 29q47 44 80.5 69.5t55.5 25.5q27 0 46 -20.5t47 -65.5q11 -19 30 -46q7 -9 7 -19q0 -16 -13 -29t-29 -13q-20 0 -30 15z" />
    <glyph glyph-name="uni1EC5" unicode="&#x1ec5;" horiz-adv-x="611" 
d="M159.5 23.5q-53.5 29.5 -81.5 80t-28 110.5q0 80 39 149t107.5 110t152.5 41q61 0 110.5 -22t79 -64t29.5 -98q0 -52 -18 -75.5t-53 -23.5l-358 -6q-1 -7 -1 -19q0 -57 41 -93.5t107 -36.5q55 0 88.5 19t71.5 55q13 11 27 11q15 0 28 -10.5t13 -24.5q0 -15 -15 -31
q-36 -42 -83.5 -71.5t-129.5 -29.5q-73 0 -126.5 29.5zM466 302q13 0 17 6.5t4 23.5q0 48 -38.5 76t-97.5 28q-51 0 -95 -24.5t-72 -58t-32 -58.5zM255 794q-8 7 -8 19q0 16 16 30q31 27 52 38t49 11q37 0 81 -22q36 -19 51 -19q13 0 31 13q6 4 16 11t19 7q13 0 21 -9t8 -21
q0 -17 -16 -28q-25 -19 -46.5 -28t-42.5 -9q-17 0 -32.5 5t-28 11t-17.5 9q-34 17 -49 17q-10 0 -20.5 -6.5t-25.5 -19.5q-19 -16 -36 -16q-14 0 -22 7zM459 575q-56 98 -68 98q-7 0 -29.5 -20t-52.5 -48l-20 -18q-22 -22 -41 -22q-14 0 -23 9.5t-9 22.5q0 18 17 32
q2 2 32 29q47 44 80.5 69.5t55.5 25.5q27 0 46 -20.5t47 -65.5q11 -19 30 -46q7 -9 7 -19q0 -16 -13 -29t-29 -13q-20 0 -30 15z" />
    <glyph glyph-name="edieresis" unicode="&#xeb;" horiz-adv-x="611" 
d="M159.5 23.5q-53.5 29.5 -81.5 80t-28 110.5q0 80 39 149t107.5 110t152.5 41q61 0 110.5 -22t79 -64t29.5 -98q0 -52 -18 -75.5t-53 -23.5l-358 -6q-1 -7 -1 -19q0 -57 41 -93.5t107 -36.5q55 0 88.5 19t71.5 55q13 11 27 11q15 0 28 -10.5t13 -24.5q0 -15 -15 -31
q-36 -42 -83.5 -71.5t-129.5 -29.5q-73 0 -126.5 29.5zM466 302q13 0 17 6.5t4 23.5q0 48 -38.5 76t-97.5 28q-51 0 -95 -24.5t-72 -58t-32 -58.5zM207 585.5q-15 14.5 -15 36.5q0 29 22.5 50.5t51.5 21.5q22 0 37.5 -15t15.5 -36q0 -28 -23 -50t-51 -22q-23 0 -38 14.5z
M459 585.5q-15 14.5 -15 36.5q0 29 22.5 50.5t51.5 21.5q22 0 37 -14.5t15 -36.5q0 -28 -22.5 -50t-50.5 -22q-23 0 -38 14.5z" />
    <glyph glyph-name="edotaccent" unicode="&#x117;" horiz-adv-x="611" 
d="M159.5 23.5q-53.5 29.5 -81.5 80t-28 110.5q0 80 39 149t107.5 110t152.5 41q61 0 110.5 -22t79 -64t29.5 -98q0 -52 -18 -75.5t-53 -23.5l-358 -6q-1 -7 -1 -19q0 -57 41 -93.5t107 -36.5q55 0 88.5 19t71.5 55q13 11 27 11q15 0 28 -10.5t13 -24.5q0 -15 -15 -31
q-36 -42 -83.5 -71.5t-129.5 -29.5q-73 0 -126.5 29.5zM466 302q13 0 17 6.5t4 23.5q0 48 -38.5 76t-97.5 28q-51 0 -95 -24.5t-72 -58t-32 -58.5zM333 585q-15 15 -15 38q0 28 22.5 49t51.5 21q22 0 37 -14t15 -35q0 -29 -22 -51.5t-51 -22.5q-23 0 -38 15z" />
    <glyph glyph-name="uni1EB9" unicode="&#x1eb9;" horiz-adv-x="611" 
d="M159.5 23.5q-53.5 29.5 -81.5 80t-28 110.5q0 80 39 149t107.5 110t152.5 41q61 0 110.5 -22t79 -64t29.5 -98q0 -52 -18 -75.5t-53 -23.5l-358 -6q-1 -7 -1 -19q0 -57 41 -93.5t107 -36.5q55 0 88.5 19t71.5 55q13 11 27 11q15 0 28 -10.5t13 -24.5q0 -15 -15 -31
q-36 -42 -83.5 -71.5t-129.5 -29.5q-73 0 -126.5 29.5zM466 302q13 0 17 6.5t4 23.5q0 48 -38.5 76t-97.5 28q-51 0 -95 -24.5t-72 -58t-32 -58.5zM196 -177q-14 14 -14 37q0 30 22 51t52 21q23 0 37.5 -13.5t14.5 -35.5q0 -31 -22 -52.5t-52 -21.5q-24 0 -38 14z" />
    <glyph glyph-name="egrave" unicode="&#xe8;" horiz-adv-x="611" 
d="M159.5 23.5q-53.5 29.5 -81.5 80t-28 110.5q0 80 39 149t107.5 110t152.5 41q61 0 110.5 -22t79 -64t29.5 -98q0 -52 -18 -75.5t-53 -23.5l-358 -6q-1 -7 -1 -19q0 -57 41 -93.5t107 -36.5q55 0 88.5 19t71.5 55q13 11 27 11q15 0 28 -10.5t13 -24.5q0 -15 -15 -31
q-36 -42 -83.5 -71.5t-129.5 -29.5q-73 0 -126.5 29.5zM466 302q13 0 17 6.5t4 23.5q0 48 -38.5 76t-97.5 28q-51 0 -95 -24.5t-72 -58t-32 -58.5zM395.5 559q-7.5 4 -15.5 14l-64 86q-13 19 -13 32q0 19 13.5 32t30.5 13q11 0 20 -6.5t18 -20.5l58 -85q11 -14 11 -28
q0 -16 -12.5 -28.5t-29.5 -12.5q-9 0 -16.5 4z" />
    <glyph glyph-name="uni1EBB" unicode="&#x1ebb;" horiz-adv-x="611" 
d="M159.5 23.5q-53.5 29.5 -81.5 80t-28 110.5q0 80 39 149t107.5 110t152.5 41q61 0 110.5 -22t79 -64t29.5 -98q0 -52 -18 -75.5t-53 -23.5l-358 -6q-1 -7 -1 -19q0 -57 41 -93.5t107 -36.5q55 0 88.5 19t71.5 55q13 11 27 11q15 0 28 -10.5t13 -24.5q0 -15 -15 -31
q-36 -42 -83.5 -71.5t-129.5 -29.5q-73 0 -126.5 29.5zM466 302q13 0 17 6.5t4 23.5q0 48 -38.5 76t-97.5 28q-51 0 -95 -24.5t-72 -58t-32 -58.5zM342 566.5q-10 10.5 -7 25.5q4 23 8 42q2 12 12.5 21.5t31.5 23.5t32.5 26t11.5 25q0 14 -11 23.5t-32 9.5
q-22 0 -37.5 -10.5t-29.5 -28.5q-15 -20 -31 -20q-11 0 -20 8t-9 17q0 14 13 30q26 33 55.5 50.5t71.5 17.5q49 0 80 -23t31 -60q0 -32 -16 -51t-44 -37q-11 -7 -19.5 -13.5t-9.5 -13.5l-6 -35q-3 -19 -16.5 -28.5t-31.5 -9.5q-17 0 -27 10.5z" />
    <glyph glyph-name="emacron" unicode="&#x113;" horiz-adv-x="611" 
d="M159.5 23.5q-53.5 29.5 -81.5 80t-28 110.5q0 80 39 149t107.5 110t152.5 41q61 0 110.5 -22t79 -64t29.5 -98q0 -52 -18 -75.5t-53 -23.5l-358 -6q-1 -7 -1 -19q0 -57 41 -93.5t107 -36.5q55 0 88.5 19t71.5 55q13 11 27 11q15 0 28 -10.5t13 -24.5q0 -15 -15 -31
q-36 -42 -83.5 -71.5t-129.5 -29.5q-73 0 -126.5 29.5zM466 302q13 0 17 6.5t4 23.5q0 48 -38.5 76t-97.5 28q-51 0 -95 -24.5t-72 -58t-32 -58.5zM183.5 590q-6.5 8 -6.5 21q0 20 11.5 33t31.5 16q42 7 75.5 10.5t92.5 3.5h147q16 0 25.5 -9t9.5 -24q0 -20 -12.5 -32
t-34.5 -12q-20 0 -35 1l-102 1q-69 0 -153 -12l-31 -4q-12 -1 -18.5 7z" />
    <glyph glyph-name="eogonek" unicode="&#x119;" horiz-adv-x="611" 
d="M139 225q-1 -7 -1 -19q0 -57 41 -93.5t107 -36.5q55 0 88.5 19t71.5 55q13 11 27 11q15 0 28 -10.5t13 -24.5q0 -15 -15 -31q-35 -42 -73 -65q-31 -28 -31 -53q0 -22 34 -22q6 0 20 3.5t18 3.5q7 0 12 -5.5t5 -14.5q0 -25 -17.5 -38.5t-48.5 -13.5q-41 0 -68.5 23
t-27.5 59q0 13 3 24q-24 -2 -39 -2q-73 0 -126.5 29.5t-81.5 80t-28 110.5q0 80 39 149t107.5 110t152.5 41q61 0 110.5 -22t79 -64t29.5 -98q0 -52 -18 -75.5t-53 -23.5zM256 411.5q-44 -24.5 -72 -58t-32 -58.5l314 7q13 0 17 6.5t4 23.5q0 48 -38.5 76t-97.5 28
q-51 0 -95 -24.5z" />
    <glyph glyph-name="uni1EBD" unicode="&#x1ebd;" horiz-adv-x="611" 
d="M159.5 23.5q-53.5 29.5 -81.5 80t-28 110.5q0 80 39 149t107.5 110t152.5 41q61 0 110.5 -22t79 -64t29.5 -98q0 -52 -18 -75.5t-53 -23.5l-358 -6q-1 -7 -1 -19q0 -57 41 -93.5t107 -36.5q55 0 88.5 19t71.5 55q13 11 27 11q15 0 28 -10.5t13 -24.5q0 -15 -15 -31
q-36 -42 -83.5 -71.5t-129.5 -29.5q-73 0 -126.5 29.5zM466 302q13 0 17 6.5t4 23.5q0 48 -38.5 76t-97.5 28q-51 0 -95 -24.5t-72 -58t-32 -58.5zM214.5 576q-8.5 9 -8.5 23q0 16 15 31q31 31 53.5 43.5t50.5 12.5q49 0 87 -23q7 -4 18 -10t17 -8.5t12 -2.5q11 0 27 14
q10 10 17.5 14t16.5 4q12 0 21.5 -10t9.5 -23q0 -19 -15 -32q-26 -22 -47.5 -32t-43.5 -10q-16 0 -30 5.5t-27.5 12.5t-20.5 11q-5 2 -21.5 10t-27.5 8q-9 0 -18 -6.5t-25 -21.5q-22 -19 -39 -19q-13 0 -21.5 9z" />
    <glyph glyph-name="uni0259" unicode="&#x259;" horiz-adv-x="611" 
d="M452 476.5q53 -29.5 81 -80t28 -110.5q0 -80 -39 -149t-107.5 -110t-151.5 -41q-61 0 -111 22t-79 64t-29 98q0 52 18 75.5t52 23.5l358 6q1 7 1 20q0 56 -41 92.5t-106 36.5q-55 0 -88.5 -19t-71.5 -55q-15 -11 -28 -11q-15 0 -27.5 10.5t-12.5 24.5q0 16 14 31
q36 42 83.5 71.5t130.5 29.5q73 0 126 -29.5zM145 198q-13 0 -17 -6.5t-4 -23.5q0 -48 38.5 -76t97.5 -28q51 0 95.5 24.5t72 58t31.5 58.5z" />
    <glyph glyph-name="f" unicode="f" horiz-adv-x="402" 
d="M441.5 707.5q38.5 -32.5 38.5 -87.5q0 -13 -3 -28q-5 -32 -19 -45.5t-40 -13.5q-21 0 -32 9t-11 24q0 7 1 10q5 28 5 43q0 20 -9 29.5t-31 9.5q-34 0 -52.5 -30t-30.5 -100q-11 -62 -13 -78l-6 -37h70q31 0 31 -31q0 -20 -11 -32.5t-33 -13.5l-70 -1q-22 -139 -48 -293
q-4 -21 -18.5 -31.5t-36.5 -10.5q-23 0 -33.5 11t-8.5 30l46 292q-36 0 -48 -1q-37 0 -37 30q0 46 49 49q12 1 49 1l20 123q33 205 181 205q62 0 100.5 -32.5z" />
    <glyph glyph-name="g" unicode="g" horiz-adv-x="585" 
d="M540.5 521q15.5 -9 15.5 -24q0 -6 -3 -14q-15 -29 -32 -68l-5 -147q-2 -33 -4 -97q-3 -107 -13 -185q-18 -120 -91.5 -178t-189.5 -58q-54 0 -97 19.5t-67.5 53.5t-24.5 76q0 29 12.5 43t40.5 14q33 0 33 -29q0 -44 28 -69.5t76 -25.5q77 0 122 33.5t60 119.5q4 22 8 78
q-28 -28 -69 -45t-91 -17q-63 0 -110 29t-72 78t-25 107q0 78 37 144.5t102 106t143 39.5q43 0 74.5 -12t48.5 -29q18 36 26 49q10 17 34 17q18 0 33.5 -9zM355.5 110.5q46.5 25.5 59.5 54.5l6 204q-6 19 -34 36t-66 17q-49 0 -90.5 -30t-65.5 -78t-24 -101q0 -56 31 -92
t93 -36q44 0 90.5 25.5z" />
    <glyph glyph-name="gbreve" unicode="&#x11f;" horiz-adv-x="585" 
d="M540.5 521q15.5 -9 15.5 -24q0 -6 -3 -14q-15 -29 -32 -68l-5 -147q-2 -33 -4 -97q-3 -107 -13 -185q-18 -120 -91.5 -178t-189.5 -58q-54 0 -97 19.5t-67.5 53.5t-24.5 76q0 29 12.5 43t40.5 14q33 0 33 -29q0 -44 28 -69.5t76 -25.5q77 0 122 33.5t60 119.5q4 22 8 78
q-28 -28 -69 -45t-91 -17q-63 0 -110 29t-72 78t-25 107q0 78 37 144.5t102 106t143 39.5q43 0 74.5 -12t48.5 -29q18 36 26 49q10 17 34 17q18 0 33.5 -9zM355.5 110.5q46.5 25.5 59.5 54.5l6 204q-6 19 -34 36t-66 17q-49 0 -90.5 -30t-65.5 -78t-24 -101q0 -56 31 -92
t93 -36q44 0 90.5 25.5zM278 575.5q-34 15.5 -53.5 42.5t-19.5 60q0 14 5 26q5 15 15.5 23t24.5 8q13 0 23 -6t9 -17q-1 -5 -1 -14q1 -34 22.5 -53t56.5 -19q34 0 64 23.5t37 59.5q3 14 16 21.5t27 7.5t23 -9.5t8 -23.5q-4 -37 -30.5 -70.5t-66.5 -54t-83 -20.5t-77 15.5z
" />
    <glyph glyph-name="gcaron" unicode="&#x1e7;" horiz-adv-x="585" 
d="M540.5 521q15.5 -9 15.5 -24q0 -6 -3 -14q-15 -29 -32 -68l-5 -147q-2 -33 -4 -97q-3 -107 -13 -185q-18 -120 -91.5 -178t-189.5 -58q-54 0 -97 19.5t-67.5 53.5t-24.5 76q0 29 12.5 43t40.5 14q33 0 33 -29q0 -44 28 -69.5t76 -25.5q77 0 122 33.5t60 119.5q4 22 8 78
q-28 -28 -69 -45t-91 -17q-63 0 -110 29t-72 78t-25 107q0 78 37 144.5t102 106t143 39.5q43 0 74.5 -12t48.5 -29q18 36 26 49q10 17 34 17q18 0 33.5 -9zM355.5 110.5q46.5 25.5 59.5 54.5l6 204q-6 19 -34 36t-66 17q-49 0 -90.5 -30t-65.5 -78t-24 -101q0 -56 31 -92
t93 -36q44 0 90.5 25.5zM520.5 748.5q8.5 -8.5 8.5 -21.5q0 -9 -3.5 -15t-12.5 -17q-45 -50 -68.5 -73.5t-49.5 -40.5t-51 -17q-23 0 -49 28t-58 73q-9 13 -17 23t-8 25q1 15 15.5 27t29.5 12q9 0 16.5 -5.5t16.5 -16.5q30 -45 46.5 -66t24.5 -21q7 0 32 24.5t71 74.5
q14 15 35 15q13 0 21.5 -8.5z" />
    <glyph glyph-name="gcircumflex" unicode="&#x11d;" horiz-adv-x="585" 
d="M540.5 521q15.5 -9 15.5 -24q0 -6 -3 -14q-15 -29 -32 -68l-5 -147q-2 -33 -4 -97q-3 -107 -13 -185q-18 -120 -91.5 -178t-189.5 -58q-54 0 -97 19.5t-67.5 53.5t-24.5 76q0 29 12.5 43t40.5 14q33 0 33 -29q0 -44 28 -69.5t76 -25.5q77 0 122 33.5t60 119.5q4 22 8 78
q-28 -28 -69 -45t-91 -17q-63 0 -110 29t-72 78t-25 107q0 78 37 144.5t102 106t143 39.5q43 0 74.5 -12t48.5 -29q18 36 26 49q10 17 34 17q18 0 33.5 -9zM355.5 110.5q46.5 25.5 59.5 54.5l6 204q-6 19 -34 36t-66 17q-49 0 -90.5 -30t-65.5 -78t-24 -101q0 -56 31 -92
t93 -36q44 0 90.5 25.5zM438 574q-56 98 -68 98q-7 0 -29.5 -20t-52.5 -48l-20 -18q-22 -22 -41 -22q-14 0 -23 9.5t-9 22.5q0 18 17 32q2 2 32 29q47 44 80.5 69.5t55.5 25.5q27 0 46 -20.5t47 -65.5q11 -19 30 -46q7 -9 7 -19q0 -16 -13 -29t-29 -13q-20 0 -30 15z" />
    <glyph glyph-name="uni0123" unicode="&#x123;" horiz-adv-x="585" 
d="M540.5 521q15.5 -9 15.5 -24q0 -6 -3 -14q-15 -29 -32 -68l-5 -147q-2 -33 -4 -97q-3 -107 -13 -185q-18 -120 -91.5 -178t-189.5 -58q-54 0 -97 19.5t-67.5 53.5t-24.5 76q0 29 12.5 43t40.5 14q33 0 33 -29q0 -44 28 -69.5t76 -25.5q77 0 122 33.5t60 119.5q4 22 8 78
q-28 -28 -69 -45t-91 -17q-63 0 -110 29t-72 78t-25 107q0 78 37 144.5t102 106t143 39.5q43 0 74.5 -12t48.5 -29q18 36 26 49q10 17 34 17q18 0 33.5 -9zM355.5 110.5q46.5 25.5 59.5 54.5l6 204q-6 19 -34 36t-66 17q-49 0 -90.5 -30t-65.5 -78t-24 -101q0 -56 31 -92
t93 -36q44 0 90.5 25.5zM444 771q8 -8 8 -20q0 -13 -14 -24q-4 -3 -23.5 -19.5t-34.5 -31.5q18 -3 30 -15t12 -31q0 -31 -24.5 -52t-55.5 -21q-24 0 -40 16t-16 39q0 38 35.5 83.5t83.5 76.5q12 7 21 7q10 0 18 -8z" />
    <glyph glyph-name="gdotaccent" unicode="&#x121;" horiz-adv-x="585" 
d="M540.5 521q15.5 -9 15.5 -24q0 -6 -3 -14q-15 -29 -32 -68l-5 -147q-2 -33 -4 -97q-3 -107 -13 -185q-18 -120 -91.5 -178t-189.5 -58q-54 0 -97 19.5t-67.5 53.5t-24.5 76q0 29 12.5 43t40.5 14q33 0 33 -29q0 -44 28 -69.5t76 -25.5q77 0 122 33.5t60 119.5q4 22 8 78
q-28 -28 -69 -45t-91 -17q-63 0 -110 29t-72 78t-25 107q0 78 37 144.5t102 106t143 39.5q43 0 74.5 -12t48.5 -29q18 36 26 49q10 17 34 17q18 0 33.5 -9zM355.5 110.5q46.5 25.5 59.5 54.5l6 204q-6 19 -34 36t-66 17q-49 0 -90.5 -30t-65.5 -78t-24 -101q0 -56 31 -92
t93 -36q44 0 90.5 25.5zM313 585q-15 15 -15 38q0 28 22.5 49t51.5 21q22 0 37 -14t15 -35q0 -29 -22 -51.5t-51 -22.5q-23 0 -38 15z" />
    <glyph glyph-name="uni1E21" unicode="&#x1e21;" horiz-adv-x="585" 
d="M540.5 521q15.5 -9 15.5 -24q0 -6 -3 -14q-15 -29 -32 -68l-5 -147q-2 -33 -4 -97q-3 -107 -13 -185q-18 -120 -91.5 -178t-189.5 -58q-54 0 -97 19.5t-67.5 53.5t-24.5 76q0 29 12.5 43t40.5 14q33 0 33 -29q0 -44 28 -69.5t76 -25.5q77 0 122 33.5t60 119.5q4 22 8 78
q-28 -28 -69 -45t-91 -17q-63 0 -110 29t-72 78t-25 107q0 78 37 144.5t102 106t143 39.5q43 0 74.5 -12t48.5 -29q18 36 26 49q10 17 34 17q18 0 33.5 -9zM355.5 110.5q46.5 25.5 59.5 54.5l6 204q-6 19 -34 36t-66 17q-49 0 -90.5 -30t-65.5 -78t-24 -101q0 -56 31 -92
t93 -36q44 0 90.5 25.5zM163.5 590q-6.5 8 -6.5 21q0 20 11.5 33t31.5 16q42 7 75.5 10.5t92.5 3.5h147q16 0 25.5 -9t9.5 -24q0 -20 -12.5 -32t-34.5 -12q-20 0 -35 1l-102 1q-69 0 -153 -12l-31 -4q-12 -1 -18.5 7z" />
    <glyph glyph-name="h" unicode="h" horiz-adv-x="570" 
d="M489 477q42 -40 42 -119q0 -44 -11 -121t-32 -198q-3 -17 -18.5 -27.5t-36.5 -10.5q-22 0 -34 12t-9 31l6 36q32 191 37 256q6 98 -67 98q-49 0 -94.5 -39t-65.5 -88q-9 -21 -15.5 -50.5t-12.5 -64t-8 -47.5l-18 -107q-3 -16 -19.5 -26t-37.5 -10t-33 10.5t-10 26.5
q35 197 74 387q29 141 71 316q4 21 19 32t38 11q40 0 40 -28q0 -7 -1 -11q-7 -32 -45 -196q-10 -40 -24 -102q63 69 155 69q68 0 110 -40z" />
    <glyph glyph-name="hbar" unicode="&#x127;" horiz-adv-x="579" 
d="M498.5 477q42.5 -40 42.5 -119q0 -44 -11 -121t-32 -198q-3 -17 -19 -27.5t-36 -10.5t-32 9.5t-12 25.5q0 5 1 8l6 36q32 191 37 256q6 98 -67 98q-49 0 -95 -39.5t-66 -87.5q-9 -23 -15.5 -54t-18.5 -102q-10 -65 -19 -113q-3 -16 -20 -26t-37 -10q-21 0 -33.5 10.5
t-9.5 26.5q25 142 73 387q11 55 35 159l-37 1q-15 0 -24 9.5t-9 23.5q0 18 15 30.5t34 12.5l38 -1l19 81q11 43 58 43q40 0 40 -29q0 -7 -1 -10l-20 -89l93 -3q18 0 27 -9.5t9 -25.5q0 -18 -14.5 -29.5t-34.5 -11.5l-98 3q-15 -69 -31 -133q63 69 154 69q68 0 110.5 -40z
" />
    <glyph glyph-name="uni1E2B" unicode="&#x1e2b;" horiz-adv-x="570" 
d="M489 477q42 -40 42 -119q0 -44 -11 -121t-32 -198q-3 -17 -18.5 -27.5t-36.5 -10.5q-22 0 -34 12t-9 31l6 36q32 191 37 256q6 98 -67 98q-49 0 -94.5 -39t-65.5 -88q-9 -21 -15.5 -50.5t-12.5 -64t-8 -47.5l-18 -107q-3 -16 -19.5 -26t-37.5 -10t-33 10.5t-10 26.5
q35 197 74 387q29 141 71 316q4 21 19 32t38 11q40 0 40 -28q0 -7 -1 -11q-7 -32 -45 -196q-10 -40 -24 -102q63 69 155 69q68 0 110 -40zM174 -214.5q-34 15.5 -53.5 42.5t-19.5 60q0 14 5 26q5 15 15.5 23t24.5 8q13 0 23 -6t9 -17q-1 -5 -1 -14q1 -34 22.5 -53t56.5 -19
q34 0 64 23.5t37 59.5q3 14 16 21.5t27 7.5t23 -9.5t8 -23.5q-4 -37 -30.5 -70.5t-66.5 -54t-83 -20.5t-77 15.5z" />
    <glyph glyph-name="hcircumflex" unicode="&#x125;" horiz-adv-x="570" 
d="M489 477q42 -40 42 -119q0 -44 -11 -121t-32 -198q-3 -17 -18.5 -27.5t-36.5 -10.5q-22 0 -34 12t-9 31l6 36q32 191 37 256q6 98 -67 98q-49 0 -94.5 -39t-65.5 -88q-9 -21 -15.5 -50.5t-12.5 -64t-8 -47.5l-18 -107q-3 -16 -19.5 -26t-37.5 -10t-33 10.5t-10 26.5
q35 197 74 387q29 141 71 316q4 21 19 32t38 11q40 0 40 -28q0 -7 -1 -11q-7 -32 -45 -196q-10 -40 -24 -102q63 69 155 69q68 0 110 -40zM357 859q-56 98 -68 98q-7 0 -29.5 -20t-52.5 -48l-20 -18q-22 -22 -41 -22q-14 0 -23 9.5t-9 22.5q0 18 17 32q2 2 32 29
q47 44 80.5 69.5t55.5 25.5q27 0 46 -20.5t47 -65.5q11 -19 30 -46q7 -9 7 -19q0 -16 -13 -29t-29 -13q-20 0 -30 15z" />
    <glyph glyph-name="uni1E25" unicode="&#x1e25;" horiz-adv-x="570" 
d="M489 477q42 -40 42 -119q0 -44 -11 -121t-32 -198q-3 -17 -18.5 -27.5t-36.5 -10.5q-22 0 -34 12t-9 31l6 36q32 191 37 256q6 98 -67 98q-49 0 -94.5 -39t-65.5 -88q-9 -21 -15.5 -50.5t-12.5 -64t-8 -47.5l-18 -107q-3 -16 -19.5 -26t-37.5 -10t-33 10.5t-10 26.5
q35 197 74 387q29 141 71 316q4 21 19 32t38 11q40 0 40 -28q0 -7 -1 -11q-7 -32 -45 -196q-10 -40 -24 -102q63 69 155 69q68 0 110 -40zM204 -177q-14 14 -14 37q0 30 22 51t52 21q23 0 37.5 -13.5t14.5 -35.5q0 -31 -22 -52.5t-52 -21.5q-24 0 -38 14z" />
    <glyph glyph-name="i" unicode="i" horiz-adv-x="317" 
d="M179.5 567q-16.5 16 -16.5 42q0 35 25.5 59.5t61.5 24.5q28 0 44.5 -15t16.5 -41q0 -36 -26 -61t-61 -25q-28 0 -44.5 16zM81 15q-12 9 -12 24q0 6 1 9l81 406q4 20 19.5 31.5t38.5 11.5q20 0 32 -9.5t12 -25.5q0 -6 -1 -9l-81 -406q-4 -20 -20 -30.5t-38 -10.5
q-20 0 -32 9z" />
    <glyph glyph-name="dotlessi" unicode="&#x131;" horiz-adv-x="326" 
d="M83 15.5q-12 12.5 -9 33.5l82 412q4 21 20 33.5t38 12.5q20 0 32 -10t12 -27q0 -6 -1 -9l-86 -413q-3 -20 -18 -32.5t-37 -12.5q-21 0 -33 12.5z" />
    <glyph glyph-name="iacute" unicode="&#xed;" horiz-adv-x="326" 
d="M83 15.5q-12 12.5 -9 33.5l82 412q4 21 20 33.5t38 12.5q20 0 32 -10t12 -27q0 -6 -1 -9l-86 -413q-3 -20 -18 -32.5t-37 -12.5q-21 0 -33 12.5zM156 564q-9 10 -9 22q0 9 6 20.5t18 20.5l96 80q19 15 29 21t21 6q14 0 23 -10t9 -24q0 -25 -28 -46l-102 -80
q-14 -11 -23 -15.5t-18 -4.5q-13 0 -22 10z" />
    <glyph glyph-name="ibreve" unicode="&#x12d;" horiz-adv-x="326" 
d="M83 15.5q-12 12.5 -9 33.5l82 412q4 21 20 33.5t38 12.5q20 0 32 -10t12 -27q0 -6 -1 -9l-86 -413q-3 -20 -18 -32.5t-37 -12.5q-21 0 -33 12.5zM149 575.5q-34 15.5 -53.5 42.5t-19.5 60q0 14 5 26q5 15 15.5 23t24.5 8q13 0 23 -6t9 -17q-1 -5 -1 -14q1 -34 22.5 -53
t56.5 -19q34 0 64 23.5t37 59.5q3 14 16 21.5t27 7.5t23 -9.5t8 -23.5q-4 -37 -30.5 -70.5t-66.5 -54t-83 -20.5t-77 15.5z" />
    <glyph glyph-name="uni01D0" unicode="&#x1d0;" horiz-adv-x="326" 
d="M83 15.5q-12 12.5 -9 33.5l82 412q4 21 20 33.5t38 12.5q20 0 32 -10t12 -27q0 -6 -1 -9l-86 -413q-3 -20 -18 -32.5t-37 -12.5q-21 0 -33 12.5zM391.5 748.5q8.5 -8.5 8.5 -21.5q0 -9 -3.5 -15t-12.5 -17q-45 -50 -68.5 -73.5t-49.5 -40.5t-51 -17q-23 0 -49 28t-58 73
q-9 13 -17 23t-8 25q1 15 15.5 27t29.5 12q9 0 16.5 -5.5t16.5 -16.5q30 -45 46.5 -66t24.5 -21q7 0 32 24.5t71 74.5q14 15 35 15q13 0 21.5 -8.5z" />
    <glyph glyph-name="icircumflex" unicode="&#xee;" horiz-adv-x="326" 
d="M83 15.5q-12 12.5 -9 33.5l82 412q4 21 20 33.5t38 12.5q20 0 32 -10t12 -27q0 -6 -1 -9l-86 -413q-3 -20 -18 -32.5t-37 -12.5q-21 0 -33 12.5zM309 574q-56 98 -68 98q-7 0 -29.5 -20t-52.5 -48l-20 -18q-22 -22 -41 -22q-14 0 -23 9.5t-9 22.5q0 18 17 32q2 2 32 29
q47 44 80.5 69.5t55.5 25.5q27 0 46 -20.5t47 -65.5q11 -19 30 -46q7 -9 7 -19q0 -16 -13 -29t-29 -13q-20 0 -30 15z" />
    <glyph glyph-name="idieresis" unicode="&#xef;" horiz-adv-x="326" 
d="M83 15.5q-12 12.5 -9 33.5l82 412q4 21 20 33.5t38 12.5q20 0 32 -10t12 -27q0 -6 -1 -9l-86 -413q-3 -20 -18 -32.5t-37 -12.5q-21 0 -33 12.5zM58 585.5q-15 14.5 -15 36.5q0 29 22.5 50.5t51.5 21.5q22 0 37.5 -15t15.5 -36q0 -28 -23 -50t-51 -22q-23 0 -38 14.5z
M310 585.5q-15 14.5 -15 36.5q0 29 22.5 50.5t51.5 21.5q22 0 37 -14.5t15 -36.5q0 -28 -22.5 -50t-50.5 -22q-23 0 -38 14.5z" />
    </font>
</defs>
</svg>
