<?xml version="1.0" standalone="no"?>
<!DOCTYPE svg PUBLIC "-//W3C//DTD SVG 1.1//EN" "http://www.w3.org/Graphics/SVG/1.1/DTD/svg11.dtd" >
<svg xmlns="http://www.w3.org/2000/svg" xmlns:xlink="http://www.w3.org/1999/xlink" version="1.1">
<metadata>
Created by FontForge 20170910 at Fri Sep  7 15:55:03 2018
 By Jimmy Wärting
Copyright 2018 The Mali Project Authors (https://github.com/cadsondemak/Mali)
</metadata>
<defs>
<font id="Mali-Italic" horiz-adv-x="0" >
  <font-face 
    font-family="Mali"
    font-weight="400"
    font-style="italic"
    font-stretch="normal"
    units-per-em="1000"
    panose-1="0 0 5 0 0 0 0 0 0 0"
    ascent="800"
    descent="-200"
    x-height="506"
    cap-height="709"
    bbox="-669 -516 1532 1410"
    underline-thickness="50"
    underline-position="-100"
    slope="-10"
    unicode-range="U+000D-FB02"
  />
<missing-glyph horiz-adv-x="522" 
d="M259 11l-140 -1q-10 0 -13 3t-4 12v56v278l5 339q0 24 27 24l92 -1q23 -1 74 -1l119 1q21 1 47 1q18 0 18 -19l-5 -339v-337q0 -9 -3.5 -13.5t-12.5 -4.5q-117 2 -204 2zM442 364l3 318h-150l-143 1q-9 0 -9 -12q0 -4 -1.5 -108.5t-1.5 -239.5v-223v-51l134 1l57 -1
q32 0 112 -2z" />
    <glyph glyph-name="fi" unicode="fi" horiz-adv-x="695" 
d="M433.5 708.5q34.5 -31.5 34.5 -84.5q0 -14 -3 -29q-4 -27 -15 -38t-32 -11q-19 0 -27 10t-5 24q5 30 5 47q0 25 -11 36.5t-39 11.5q-44 0 -67 -36t-35 -109l-10 -63q-4 -18 -6.5 -33.5t-4.5 -28.5h79q13 0 19.5 -7t6.5 -18q0 -35 -36 -36q-24 -1 -79 -1l-52 -309
q-3 -18 -14.5 -26t-28.5 -8q-35 0 -30 33q11 64 33 208l16 101l-60 -3q-30 0 -30 23q0 17 8.5 28t31.5 12q30 2 60 2q16 105 21 135q32 201 178 201q58 0 92.5 -31.5zM577.5 579.5q-14.5 13.5 -14.5 36.5q0 30 22.5 52t53.5 22q24 0 38 -13.5t14 -36.5q0 -30 -23 -52
t-53 -22q-23 0 -37.5 13.5zM474 15q-9 9 -6 24l85 425q3 17 15 26t30 9t27 -9t6 -27l-85 -424q-4 -16 -16 -24.5t-29 -8.5q-18 0 -27 9z" />
    <glyph glyph-name="fl" unicode="fl" horiz-adv-x="640" 
d="M433.5 708.5q34.5 -31.5 34.5 -84.5q0 -14 -3 -29q-4 -27 -15 -38t-32 -11q-19 0 -27 10t-5 24q5 30 5 47q0 25 -11 36.5t-39 11.5q-44 0 -67 -36t-35 -109l-10 -63q-4 -18 -6.5 -33.5t-4.5 -28.5h79q13 0 19.5 -7t6.5 -18q0 -35 -36 -36q-24 -1 -79 -1l-52 -309
q-3 -18 -14.5 -26t-28.5 -8q-35 0 -30 33q11 64 33 208l16 101l-60 -3q-30 0 -30 23q0 17 8.5 28t31.5 12q30 2 60 2q16 105 21 135q32 201 178 201q58 0 92.5 -31.5zM443 18q-9 9 -6 26l119 712q3 17 16 26.5t31 9.5q15 0 24 -7.5t7 -19.5l-121 -721q-3 -17 -15 -26t-29 -9
t-26 9z" />
    <glyph glyph-name="uni0E240E45" unicode="&#xe24;&#xe45;" horiz-adv-x="959" 
d="M856.5 551q41.5 -43 41.5 -115q0 -21 -4 -44t-5 -30l-48 -268l-30 -162q-5 -25 -17.5 -90.5t-20.5 -114.5q-2 -13 -14 -20.5t-28 -7.5q-17 0 -27 7.5t-8 20.5l30 162l38 209l30 163q16 80 21 110q6 38 6 66q0 51 -21.5 73t-65.5 22q-57 0 -94 -36.5t-50 -106.5
q-8 -44 -38 -214l-13 -77q-38 -218 -65 -367q-3 -16 -16 -24t-30 -8q-12 0 -22 8t-7 25q18 110 46 256l20 110q6 32 36 211q0 1 14 81q2 16 2 23q0 53 -42 86t-115 33q-60 0 -106 -18t-72 -41.5t-28 -39.5l91 -31q18 -7 18 -31q0 -12 -18 -82l-18 -78q14 7 34 7
q41 0 69.5 -26.5t28.5 -65.5q0 -56 -37.5 -91t-95.5 -35q-32 0 -54.5 13.5t-34.5 33.5t-12 40q0 34 38 171q5 20 13 50.5t9 41.5q1 9 -11 15.5t-36 13.5q-34 11 -51 21.5t-14 27.5q6 31 44 70.5t102 67.5t143 28q80 0 135.5 -30t68.5 -78q46 108 168 108q81 0 122.5 -43z
M251 166q-32 0 -52 -22.5t-20 -51.5q0 -21 14 -33t34 -12q29 0 53 21t24 55q0 43 -53 43z" />
    <glyph glyph-name="uni0E260E45" unicode="&#xe26;&#xe45;" horiz-adv-x="959" 
d="M900 437q0 -35 -10 -89q-18 -92 -14 -75l-43 -241q-39 -226 -54 -303q-3 -14 -15 -22t-28 -8t-26 8t-8 21l20 108l36 194q2 10 24 130l33 188q9 54 9 92q0 51 -20.5 74.5t-67.5 23.5q-57 0 -93.5 -38.5t-47.5 -100.5l-65 -369l-53 -301q-2 -13 -13.5 -21.5t-27.5 -8.5
t-26 8.5t-8 21.5l54 302q38 204 65 366q3 15 3 29q0 50 -30.5 81t-90.5 31q-56 0 -105.5 -20t-81 -46t-33.5 -39l92 -28q23 -7 23 -52q0 -40 -18.5 -126.5t-34.5 -130.5q-17 -49 -47.5 -72.5t-80.5 -23.5q-46 0 -73 29t-27 67q0 55 36 87.5t90 32.5q35 0 54 -19
q10 43 17 84.5t7 59.5q0 20 -8 23q-25 7 -31 8q-43 11 -62.5 20.5t-16.5 27.5q5 32 47.5 75t111 74t147.5 31q63 0 107 -29t58 -70q22 42 67 70.5t102 28.5q157 0 157 -163zM170.5 67.5q20.5 19.5 20.5 52.5q0 21 -12.5 33.5t-37.5 12.5q-28 0 -49.5 -20t-21.5 -50
q0 -21 13.5 -34.5t35.5 -13.5q31 0 51.5 19.5z" />
    <glyph glyph-name=".notdef" horiz-adv-x="522" 
d="M259 11l-140 -1q-10 0 -13 3t-4 12v56v278l5 339q0 24 27 24l92 -1q23 -1 74 -1l119 1q21 1 47 1q18 0 18 -19l-5 -339v-337q0 -9 -3.5 -13.5t-12.5 -4.5q-117 2 -204 2zM442 364l3 318h-150l-143 1q-9 0 -9 -12q0 -4 -1.5 -108.5t-1.5 -239.5v-223v-51l134 1l57 -1
q32 0 112 -2z" />
    <glyph glyph-name="NULL" 
 />
    <glyph glyph-name="NULL" 
 />
    <glyph glyph-name="nonmarkingreturn" unicode="&#xd;" horiz-adv-x="320" 
 />
    <glyph glyph-name="space" unicode=" " horiz-adv-x="320" 
 />
    <glyph glyph-name="A" unicode="A" horiz-adv-x="692" 
d="M593 181q-10 -14 -29 -14h-7l16 -133l1 -9q0 -16 -15 -25.5t-33 -9.5q-13 0 -22.5 6t-10.5 16l-18 155l-283 2q-48 -96 -78 -153q-12 -25 -42 -25q-19 0 -29 10.5t-7 21.5q0 4 4 12l169 334q51 98 117 229q33 64 52.5 88.5t49.5 24.5q28 0 45.5 -24t25.5 -79
q25 -171 48 -363h25q15 0 23 -8.5t8 -22.5q0 -19 -10 -33zM467 246l-34 288q-5 40 -9 58t-9 18t-14.5 -16t-30.5 -59l-48 -99q-45 -95 -91 -187z" />
    <glyph glyph-name="Aacute" unicode="&#xc1;" horiz-adv-x="692" 
d="M593 181q-10 -14 -29 -14h-7l16 -133l1 -9q0 -16 -15 -25.5t-33 -9.5q-13 0 -22.5 6t-10.5 16l-18 155l-283 2q-48 -96 -78 -153q-12 -25 -42 -25q-19 0 -29 10.5t-7 21.5q0 4 4 12l169 334q51 98 117 229q33 64 52.5 88.5t49.5 24.5q28 0 45.5 -24t25.5 -79
q25 -171 48 -363h25q15 0 23 -8.5t8 -22.5q0 -19 -10 -33zM467 246l-34 288q-5 40 -9 58t-9 18t-14.5 -16t-30.5 -59l-48 -99q-45 -95 -91 -187zM382 758.5q-7 6.5 -7 16.5q0 8 6 17.5t16 18.5l92 81q15 14 24.5 19.5t18.5 5.5q11 0 18.5 -7.5t7.5 -18.5q0 -21 -25 -41
l-99 -81q-20 -17 -35 -17q-10 0 -17 6.5z" />
    <glyph glyph-name="Abreve" unicode="&#x102;" horiz-adv-x="692" 
d="M593 181q-10 -14 -29 -14h-7l16 -133l1 -9q0 -16 -15 -25.5t-33 -9.5q-13 0 -22.5 6t-10.5 16l-18 155l-283 2q-48 -96 -78 -153q-12 -25 -42 -25q-19 0 -29 10.5t-7 21.5q0 4 4 12l169 334q51 98 117 229q33 64 52.5 88.5t49.5 24.5q28 0 45.5 -24t25.5 -79
q25 -171 48 -363h25q15 0 23 -8.5t8 -22.5q0 -19 -10 -33zM467 246l-34 288q-5 40 -9 58t-9 18t-14.5 -16t-30.5 -59l-48 -99q-45 -95 -91 -187zM373.5 781q-32.5 15 -50.5 41t-18 56q0 7 2 17q4 14 12.5 22t20.5 8q11 0 19 -4.5t7 -14.5q-1 -5 -1 -14q1 -34 25 -53.5
t61 -19.5t69 24.5t39 59.5q2 12 12.5 18.5t22.5 6.5t19 -8t5 -20q-6 -35 -31 -66t-62 -49.5t-78 -18.5t-73.5 15z" />
    <glyph glyph-name="uni1EAE" unicode="&#x1eae;" horiz-adv-x="692" 
d="M593 181q-10 -14 -29 -14h-7l16 -133l1 -9q0 -16 -15 -25.5t-33 -9.5q-13 0 -22.5 6t-10.5 16l-18 155l-283 2q-48 -96 -78 -153q-12 -25 -42 -25q-19 0 -29 10.5t-7 21.5q0 4 4 12l169 334q51 98 117 229q33 64 52.5 88.5t49.5 24.5q28 0 45.5 -24t25.5 -79
q25 -171 48 -363h25q15 0 23 -8.5t8 -22.5q0 -19 -10 -33zM467 246l-34 288q-5 40 -9 58t-9 18t-14.5 -16t-30.5 -59l-48 -99q-45 -95 -91 -187zM439 938.5q-6 6.5 -6 17.5q0 14 19 32l57 51q26 23 41 23q10 0 17 -7t7 -18t-6 -19.5t-17 -17.5l-64 -52q-12 -9 -18.5 -12.5
t-13.5 -3.5q-10 0 -16 6.5zM372.5 781q-32.5 15 -50.5 41t-18 56q0 7 2 17q4 14 12.5 22t20.5 8q11 0 19 -4.5t7 -14.5q-1 -5 -1 -14q1 -34 25 -53.5t61 -19.5t69 24.5t39 59.5q2 12 12.5 18.5t22.5 6.5t19 -8t5 -20q-6 -35 -31 -66t-62 -49.5t-78 -18.5t-73.5 15z" />
    <glyph glyph-name="uni1EB6" unicode="&#x1eb6;" horiz-adv-x="692" 
d="M593 181q-10 -14 -29 -14h-7l16 -133l1 -9q0 -16 -15 -25.5t-33 -9.5q-13 0 -22.5 6t-10.5 16l-18 155l-283 2q-48 -96 -78 -153q-12 -25 -42 -25q-19 0 -29 10.5t-7 21.5q0 4 4 12l169 334q51 98 117 229q33 64 52.5 88.5t49.5 24.5q28 0 45.5 -24t25.5 -79
q25 -171 48 -363h25q15 0 23 -8.5t8 -22.5q0 -19 -10 -33zM467 246l-34 288q-5 40 -9 58t-9 18t-14.5 -16t-30.5 -59l-48 -99q-45 -95 -91 -187zM234.5 -166.5q-12.5 12.5 -12.5 32.5q0 25 19 43.5t45 18.5q20 0 33 -12t13 -31q0 -26 -19 -45t-45 -19q-21 0 -33.5 12.5z
M373.5 781q-32.5 15 -50.5 41t-18 56q0 7 2 17q4 14 12.5 22t20.5 8q11 0 19 -4.5t7 -14.5q-1 -5 -1 -14q1 -34 25 -53.5t61 -19.5t69 24.5t39 59.5q2 12 12.5 18.5t22.5 6.5t19 -8t5 -20q-6 -35 -31 -66t-62 -49.5t-78 -18.5t-73.5 15z" />
    <glyph glyph-name="uni1EB0" unicode="&#x1eb0;" horiz-adv-x="692" 
d="M593 181q-10 -14 -29 -14h-7l16 -133l1 -9q0 -16 -15 -25.5t-33 -9.5q-13 0 -22.5 6t-10.5 16l-18 155l-283 2q-48 -96 -78 -153q-12 -25 -42 -25q-19 0 -29 10.5t-7 21.5q0 4 4 12l169 334q51 98 117 229q33 64 52.5 88.5t49.5 24.5q28 0 45.5 -24t25.5 -79
q25 -171 48 -363h25q15 0 23 -8.5t8 -22.5q0 -19 -10 -33zM467 246l-34 288q-5 40 -9 58t-9 18t-14.5 -16t-30.5 -59l-48 -99q-45 -95 -91 -187zM463.5 941.5q-5.5 3.5 -12.5 12.5l-46 52q-5 6 -8.5 12.5t-3.5 13.5q0 15 11 25.5t24 10.5q16 0 33 -23l39 -51q9 -13 9 -25
q0 -14 -10 -22.5t-22 -8.5q-8 0 -13.5 3.5zM373.5 781q-32.5 15 -50.5 41t-18 56q0 7 2 17q4 14 12.5 22t20.5 8q11 0 19 -4.5t7 -14.5q-1 -5 -1 -14q1 -34 25 -53.5t61 -19.5t69 24.5t39 59.5q2 12 12.5 18.5t22.5 6.5t19 -8t5 -20q-6 -35 -31 -66t-62 -49.5t-78 -18.5
t-73.5 15z" />
    <glyph glyph-name="uni1EB2" unicode="&#x1eb2;" horiz-adv-x="692" 
d="M593 181q-10 -14 -29 -14h-7l16 -133l1 -9q0 -16 -15 -25.5t-33 -9.5q-13 0 -22.5 6t-10.5 16l-18 155l-283 2q-48 -96 -78 -153q-12 -25 -42 -25q-19 0 -29 10.5t-7 21.5q0 4 4 12l169 334q51 98 117 229q33 64 52.5 88.5t49.5 24.5q28 0 45.5 -24t25.5 -79
q25 -171 48 -363h25q15 0 23 -8.5t8 -22.5q0 -19 -10 -33zM467 246l-34 288q-5 40 -9 58t-9 18t-14.5 -16t-30.5 -59l-48 -99q-45 -95 -91 -187zM456.5 927.5q-5.5 6.5 -4.5 15.5l5 27q1 8 8.5 15.5t21.5 18.5q14 10 21.5 18t7.5 16q0 19 -30 19q-17 0 -28.5 -7t-16.5 -18
q-3 -6 -8.5 -9t-11.5 -3q-16 0 -16 15q0 25 25 43.5t61 18.5q32 0 52 -14t20 -40q0 -19 -9.5 -30.5t-27.5 -22.5q-8 -5 -14.5 -10t-7.5 -11l-5 -25q-2 -11 -10 -17t-19 -6q-8 0 -13.5 6.5zM374.5 781q-32.5 15 -50.5 41t-18 56q0 7 2 17q4 14 12.5 22t20.5 8q11 0 19 -4.5
t7 -14.5q-1 -5 -1 -14q1 -34 25 -53.5t61 -19.5t69 24.5t39 59.5q2 12 12.5 18.5t22.5 6.5t19 -8t5 -20q-6 -35 -31 -66t-62 -49.5t-78 -18.5t-73.5 15z" />
    <glyph glyph-name="uni1EB4" unicode="&#x1eb4;" horiz-adv-x="692" 
d="M593 181q-10 -14 -29 -14h-7l16 -133l1 -9q0 -16 -15 -25.5t-33 -9.5q-13 0 -22.5 6t-10.5 16l-18 155l-283 2q-48 -96 -78 -153q-12 -25 -42 -25q-19 0 -29 10.5t-7 21.5q0 4 4 12l169 334q51 98 117 229q33 64 52.5 88.5t49.5 24.5q28 0 45.5 -24t25.5 -79
q25 -171 48 -363h25q15 0 23 -8.5t8 -22.5q0 -19 -10 -33zM467 246l-34 288q-5 40 -9 58t-9 18t-14.5 -16t-30.5 -59l-48 -99q-45 -95 -91 -187zM331.5 974q-6.5 7 -6.5 16q0 10 6 17q35 39 101 39q20 0 33 -3t32 -10q16 -7 29 -10t31 -3q23 0 41 13q12 9 21 9q11 0 18.5 -7
t7.5 -17q0 -8 -10 -18q-27 -32 -87 -32q-32 0 -72 14q-13 5 -27 8.5t-27 3.5q-24 0 -45 -15q-3 -2 -11 -7t-15 -5q-13 0 -19.5 7zM375.5 781q-32.5 15 -50.5 41t-18 56q0 7 2 17q4 14 12.5 22t20.5 8q11 0 19 -4.5t7 -14.5q-1 -5 -1 -14q1 -34 25 -53.5t61 -19.5t69 24.5
t39 59.5q2 12 12.5 18.5t22.5 6.5t19 -8t5 -20q-6 -35 -31 -66t-62 -49.5t-78 -18.5t-73.5 15z" />
    <glyph glyph-name="uni01CD" unicode="&#x1cd;" horiz-adv-x="692" 
d="M593 181q-10 -14 -29 -14h-7l16 -133l1 -9q0 -16 -15 -25.5t-33 -9.5q-13 0 -22.5 6t-10.5 16l-18 155l-283 2q-48 -96 -78 -153q-12 -25 -42 -25q-19 0 -29 10.5t-7 21.5q0 4 4 12l169 334q51 98 117 229q33 64 52.5 88.5t49.5 24.5q28 0 45.5 -24t25.5 -79
q25 -171 48 -363h25q15 0 23 -8.5t8 -22.5q0 -19 -10 -33zM467 246l-34 288q-5 40 -9 58t-9 18t-14.5 -16t-30.5 -59l-48 -99q-45 -95 -91 -187zM603.5 936q6.5 -7 6.5 -17q0 -6 -3 -11.5t-6 -8t-4 -4.5q-56 -63 -93 -96t-69 -33q-19 0 -39.5 22t-54.5 66q-15 21 -25 33
q-8 9 -6 22q1 11 12.5 20t22.5 9q14 0 27 -20q59 -90 76 -90q9 0 39 28.5t72 74.5q11 12 28 12q10 0 16.5 -7z" />
    <glyph glyph-name="Acircumflex" unicode="&#xc2;" horiz-adv-x="692" 
d="M593 181q-10 -14 -29 -14h-7l16 -133l1 -9q0 -16 -15 -25.5t-33 -9.5q-13 0 -22.5 6t-10.5 16l-18 155l-283 2q-48 -96 -78 -153q-12 -25 -42 -25q-19 0 -29 10.5t-7 21.5q0 4 4 12l169 334q51 98 117 229q33 64 52.5 88.5t49.5 24.5q28 0 45.5 -24t25.5 -79
q25 -171 48 -363h25q15 0 23 -8.5t8 -22.5q0 -19 -10 -33zM467 246l-34 288q-5 40 -9 58t-9 18t-14.5 -16t-30.5 -59l-48 -99q-45 -95 -91 -187zM537 776q-57 102 -74 102q-8 0 -33.5 -21.5t-74.5 -68.5q-20 -20 -35 -20q-10 0 -17.5 7.5t-7.5 18.5q0 13 14 26q14 10 32 29
q48 44 78.5 67.5t50.5 23.5q26 0 46 -23t51 -72l21 -34q6 -8 6 -15q0 -13 -10.5 -23t-23.5 -10q-16 0 -23 13z" />
    <glyph glyph-name="uni1EA4" unicode="&#x1ea4;" horiz-adv-x="692" 
d="M593 181q-10 -14 -29 -14h-7l16 -133l1 -9q0 -16 -15 -25.5t-33 -9.5q-13 0 -22.5 6t-10.5 16l-18 155l-283 2q-48 -96 -78 -153q-12 -25 -42 -25q-19 0 -29 10.5t-7 21.5q0 4 4 12l169 334q51 98 117 229q33 64 52.5 88.5t49.5 24.5q28 0 45.5 -24t25.5 -79
q25 -171 48 -363h25q15 0 23 -8.5t8 -22.5q0 -19 -10 -33zM467 246l-34 288q-5 40 -9 58t-9 18t-14.5 -16t-30.5 -59l-48 -99q-45 -95 -91 -187zM575.5 911q-6.5 6 -6.5 16q0 15 19 34l58 51q13 12 22 17.5t18 5.5q11 0 18 -7t7 -18t-6 -19.5t-17 -17.5l-64 -53
q-17 -15 -32 -15q-10 0 -16.5 6zM538 777q-57 102 -74 102q-8 0 -33.5 -21.5t-74.5 -68.5q-20 -20 -35 -20q-10 0 -17.5 7.5t-7.5 18.5q0 13 14 26q13 11 32 29q48 44 78.5 67.5t50.5 23.5q26 0 46 -23t51 -72l21 -34q6 -8 6 -15q0 -13 -10.5 -23t-23.5 -10q-17 0 -23 13z
" />
    <glyph glyph-name="uni1EAC" unicode="&#x1eac;" horiz-adv-x="692" 
d="M593 181q-10 -14 -29 -14h-7l16 -133l1 -9q0 -16 -15 -25.5t-33 -9.5q-13 0 -22.5 6t-10.5 16l-18 155l-283 2q-48 -96 -78 -153q-12 -25 -42 -25q-19 0 -29 10.5t-7 21.5q0 4 4 12l169 334q51 98 117 229q33 64 52.5 88.5t49.5 24.5q28 0 45.5 -24t25.5 -79
q25 -171 48 -363h25q15 0 23 -8.5t8 -22.5q0 -19 -10 -33zM467 246l-34 288q-5 40 -9 58t-9 18t-14.5 -16t-30.5 -59l-48 -99q-45 -95 -91 -187zM234.5 -166.5q-12.5 12.5 -12.5 32.5q0 25 19 43.5t45 18.5q20 0 33 -12t13 -31q0 -26 -19 -45t-45 -19q-21 0 -33.5 12.5z
M537 776q-57 102 -74 102q-8 0 -33.5 -21.5t-74.5 -68.5q-20 -20 -35 -20q-10 0 -17.5 7.5t-7.5 18.5q0 13 14 26q14 10 32 29q48 44 78.5 67.5t50.5 23.5q26 0 46 -23t51 -72l21 -34q6 -8 6 -15q0 -13 -10.5 -23t-23.5 -10q-16 0 -23 13z" />
    <glyph glyph-name="uni1EA6" unicode="&#x1ea6;" horiz-adv-x="692" 
d="M593 181q-10 -14 -29 -14h-7l16 -133l1 -9q0 -16 -15 -25.5t-33 -9.5q-13 0 -22.5 6t-10.5 16l-18 155l-283 2q-48 -96 -78 -153q-12 -25 -42 -25q-19 0 -29 10.5t-7 21.5q0 4 4 12l169 334q51 98 117 229q33 64 52.5 88.5t49.5 24.5q28 0 45.5 -24t25.5 -79
q25 -171 48 -363h25q15 0 23 -8.5t8 -22.5q0 -19 -10 -33zM467 246l-34 288q-5 40 -9 58t-9 18t-14.5 -16t-30.5 -59l-48 -99q-45 -95 -91 -187zM605 920l-45 53q-12 14 -12 27q0 14 11 24.5t25 10.5q8 0 14.5 -5t16.5 -18l40 -51q9 -12 9 -23q0 -13 -9.5 -23t-22.5 -10
q-14 0 -27 15zM537 777q-57 102 -74 102q-8 0 -33.5 -21.5t-74.5 -68.5q-20 -20 -35 -20q-10 0 -17.5 7.5t-7.5 18.5q0 13 14 26q14 11 32 29q48 44 78.5 67.5t50.5 23.5q26 0 46 -23t51 -72l21 -34q6 -8 6 -15q0 -13 -10.5 -23t-23.5 -10q-17 0 -23 13z" />
    <glyph glyph-name="uni1EA8" unicode="&#x1ea8;" horiz-adv-x="692" 
d="M593 181q-10 -14 -29 -14h-7l16 -133l1 -9q0 -16 -15 -25.5t-33 -9.5q-13 0 -22.5 6t-10.5 16l-18 155l-283 2q-48 -96 -78 -153q-12 -25 -42 -25q-19 0 -29 10.5t-7 21.5q0 4 4 12l169 334q51 98 117 229q33 64 52.5 88.5t49.5 24.5q28 0 45.5 -24t25.5 -79
q25 -171 48 -363h25q15 0 23 -8.5t8 -22.5q0 -19 -10 -33zM467 246l-34 288q-5 40 -9 58t-9 18t-14.5 -16t-30.5 -59l-48 -99q-45 -95 -91 -187zM608.5 908q-5.5 6 -4.5 15l5 28q1 8 8.5 15t21.5 17q15 11 22.5 18.5t7.5 16.5q0 10 -7 15t-24 5q-16 0 -28 -7t-18 -18
q-1 -6 -7 -9.5t-12 -3.5q-16 0 -16 15q0 27 26 45t60 18q30 0 51 -15t21 -38q0 -24 -10 -36t-28 -21q-8 -4 -14 -8.5t-7 -10.5q-2 -9 -4 -25q-2 -11 -10.5 -16.5t-18.5 -5.5q-9 0 -14.5 6zM537 777q-57 102 -74 102q-8 0 -33.5 -21.5t-74.5 -68.5q-20 -20 -35 -20
q-10 0 -17.5 7.5t-7.5 18.5q0 13 14 26q14 11 32 29q48 44 78.5 67.5t50.5 23.5q26 0 46 -23t51 -72l21 -34q6 -8 6 -15q0 -13 -10.5 -23t-23.5 -10q-17 0 -23 13z" />
    <glyph glyph-name="uni1EAA" unicode="&#x1eaa;" horiz-adv-x="692" 
d="M593 181q-10 -14 -29 -14h-7l16 -133l1 -9q0 -16 -15 -25.5t-33 -9.5q-13 0 -22.5 6t-10.5 16l-18 155l-283 2q-48 -96 -78 -153q-12 -25 -42 -25q-19 0 -29 10.5t-7 21.5q0 4 4 12l169 334q51 98 117 229q33 64 52.5 88.5t49.5 24.5q28 0 45.5 -24t25.5 -79
q25 -171 48 -363h25q15 0 23 -8.5t8 -22.5q0 -19 -10 -33zM467 246l-34 288q-5 40 -9 58t-9 18t-14.5 -16t-30.5 -59l-48 -99q-45 -95 -91 -187zM329.5 977.5q-6.5 5.5 -6.5 15.5q0 13 13 24q29 27 49 38t46 11q20 0 38.5 -5.5t41.5 -16.5q37 -20 53 -20q14 0 35 16
q5 3 13.5 9t15.5 6q11 0 17 -7t6 -17q0 -13 -13 -23q-24 -19 -43.5 -27.5t-39.5 -8.5q-16 0 -29 5t-26 11.5t-20 9.5q-34 17 -54 17q-11 0 -22 -7t-27 -21q-18 -15 -31 -15q-10 0 -16.5 5.5zM537 777q-57 102 -74 102q-8 0 -33.5 -21.5t-74.5 -68.5q-20 -20 -35 -20
q-10 0 -17.5 7.5t-7.5 18.5q0 13 14 26q14 11 32 29q48 44 78.5 67.5t50.5 23.5q26 0 46 -23t51 -72l21 -34q6 -8 6 -15q0 -13 -10.5 -23t-23.5 -10q-17 0 -23 13z" />
    <glyph glyph-name="Adieresis" unicode="&#xc4;" horiz-adv-x="692" 
d="M593 181q-10 -14 -29 -14h-7l16 -133l1 -9q0 -16 -15 -25.5t-33 -9.5q-13 0 -22.5 6t-10.5 16l-18 155l-283 2q-48 -96 -78 -153q-12 -25 -42 -25q-19 0 -29 10.5t-7 21.5q0 4 4 12l169 334q51 98 117 229q33 64 52.5 88.5t49.5 24.5q28 0 45.5 -24t25.5 -79
q25 -171 48 -363h25q15 0 23 -8.5t8 -22.5q0 -19 -10 -33zM467 246l-34 288q-5 40 -9 58t-9 18t-14.5 -16t-30.5 -59l-48 -99q-45 -95 -91 -187zM290.5 788.5q-12.5 12.5 -12.5 32.5q0 26 19 44t45 18q20 0 33.5 -12.5t13.5 -31.5q0 -25 -20 -44t-45 -19q-21 0 -33.5 12.5z
M530.5 788.5q-12.5 12.5 -12.5 32.5q0 26 19 44t45 18q20 0 33 -12t13 -31q0 -25 -19.5 -44.5t-44.5 -19.5q-21 0 -33.5 12.5z" />
    <glyph glyph-name="uni1EA0" unicode="&#x1ea0;" horiz-adv-x="692" 
d="M593 181q-10 -14 -29 -14h-7l16 -133l1 -9q0 -16 -15 -25.5t-33 -9.5q-13 0 -22.5 6t-10.5 16l-18 155l-283 2q-48 -96 -78 -153q-12 -25 -42 -25q-19 0 -29 10.5t-7 21.5q0 4 4 12l169 334q51 98 117 229q33 64 52.5 88.5t49.5 24.5q28 0 45.5 -24t25.5 -79
q25 -171 48 -363h25q15 0 23 -8.5t8 -22.5q0 -19 -10 -33zM467 246l-34 288q-5 40 -9 58t-9 18t-14.5 -16t-30.5 -59l-48 -99q-45 -95 -91 -187zM234.5 -166.5q-12.5 12.5 -12.5 32.5q0 25 19 43.5t45 18.5q20 0 33 -12t13 -31q0 -26 -19 -45t-45 -19q-21 0 -33.5 12.5z" />
    <glyph glyph-name="Agrave" unicode="&#xc0;" horiz-adv-x="692" 
d="M593 181q-10 -14 -29 -14h-7l16 -133l1 -9q0 -16 -15 -25.5t-33 -9.5q-13 0 -22.5 6t-10.5 16l-18 155l-283 2q-48 -96 -78 -153q-12 -25 -42 -25q-19 0 -29 10.5t-7 21.5q0 4 4 12l169 334q51 98 117 229q33 64 52.5 88.5t49.5 24.5q28 0 45.5 -24t25.5 -79
q25 -171 48 -363h25q15 0 23 -8.5t8 -22.5q0 -19 -10 -33zM467 246l-34 288q-5 40 -9 58t-9 18t-14.5 -16t-30.5 -59l-48 -99q-45 -95 -91 -187zM477 760.5q-6 3.5 -13 12.5l-64 86q-11 17 -11 27q0 15 10.5 25.5t23.5 10.5q17 0 33 -24l58 -85q10 -13 10 -24
q0 -13 -10 -22.5t-23 -9.5q-8 0 -14 3.5z" />
    <glyph glyph-name="uni1EA2" unicode="&#x1ea2;" horiz-adv-x="692" 
d="M593 181q-10 -14 -29 -14h-7l16 -133l1 -9q0 -16 -15 -25.5t-33 -9.5q-13 0 -22.5 6t-10.5 16l-18 155l-283 2q-48 -96 -78 -153q-12 -25 -42 -25q-19 0 -29 10.5t-7 21.5q0 4 4 12l169 334q51 98 117 229q33 64 52.5 88.5t49.5 24.5q28 0 45.5 -24t25.5 -79
q25 -171 48 -363h25q15 0 23 -8.5t8 -22.5q0 -19 -10 -33zM467 246l-34 288q-5 40 -9 58t-9 18t-14.5 -16t-30.5 -59l-48 -99q-45 -95 -91 -187zM423.5 768.5q-7.5 9.5 -5.5 22.5q1 7 8 38q3 11 14 22t30 24q21 15 31.5 25t12.5 22q3 18 -10 29t-39 11q-41 0 -73 -42
q-11 -15 -23 -15q-9 0 -17 6t-8 14q0 11 10 24q23 31 51 48t70 17q45 0 74 -22t29 -56q0 -31 -17 -50t-45 -36q-10 -6 -18 -13t-9 -12l-5 -32q-3 -16 -14 -25t-25 -9t-21.5 9.5z" />
    <glyph glyph-name="Amacron" unicode="&#x100;" horiz-adv-x="692" 
d="M593 181q-10 -14 -29 -14h-7l16 -133l1 -9q0 -16 -15 -25.5t-33 -9.5q-13 0 -22.5 6t-10.5 16l-18 155l-283 2q-48 -96 -78 -153q-12 -25 -42 -25q-19 0 -29 10.5t-7 21.5q0 4 4 12l169 334q51 98 117 229q33 64 52.5 88.5t49.5 24.5q28 0 45.5 -24t25.5 -79
q25 -171 48 -363h25q15 0 23 -8.5t8 -22.5q0 -19 -10 -33zM467 246l-34 288q-5 40 -9 58t-9 18t-14.5 -16t-30.5 -59l-48 -99q-45 -95 -91 -187zM347 809q-28 0 -50 8q-18 8 -18 25q0 18 13.5 28t29.5 7q29 -7 68 -7q21 0 69 4t77 4q12 0 36 -2q16 -2 25 -2q11 -1 18 -8
t7 -18q0 -16 -12.5 -26t-26.5 -8q-30 4 -52 4q-30 0 -74 -4q-42 -4 -66 -4z" />
    <glyph glyph-name="Aogonek" unicode="&#x104;" horiz-adv-x="692" 
d="M593 181q-10 -14 -29 -14h-7l16 -133l1 -9q0 -17 -18 -27l-2 -2q-34 -24 -51 -43.5t-17 -42.5q0 -25 37 -25q7 0 19.5 3.5t15.5 3.5q6 0 10 -4.5t4 -11.5q0 -21 -14.5 -31.5t-40.5 -10.5q-38 0 -64.5 21.5t-26.5 54.5q0 30 17 54t50 48l-18 155l-283 2q-48 -96 -78 -153
q-12 -25 -42 -25q-19 0 -29 10.5t-7 21.5q0 4 4 12l169 334q51 98 117 229q33 64 52.5 88.5t49.5 24.5q28 0 45.5 -24t25.5 -79q25 -171 48 -363h25q15 0 23 -8.5t8 -22.5q0 -19 -10 -33zM467 246l-34 288q-5 40 -9 58t-9 18t-14.5 -16t-30.5 -59l-48 -99q-45 -95 -91 -187z
" />
    <glyph glyph-name="Aring" unicode="&#xc5;" horiz-adv-x="692" 
d="M593 181q-10 -14 -29 -14h-7l16 -133l1 -9q0 -16 -15 -25.5t-33 -9.5q-13 0 -22.5 6t-10.5 16l-18 155l-283 2q-48 -96 -78 -153q-12 -25 -42 -25q-19 0 -29 10.5t-7 21.5q0 4 4 12l169 334q51 98 117 229q33 64 52.5 88.5t49.5 24.5q28 0 45.5 -24t25.5 -79
q25 -171 48 -363h25q15 0 23 -8.5t8 -22.5q0 -19 -10 -33zM467 246l-34 288q-5 40 -9 58t-9 18t-14.5 -16t-30.5 -59l-48 -99q-45 -95 -91 -187zM373.5 764q-27.5 27 -27.5 66q0 33 17 61t47 44.5t65 16.5q39 0 65 -28t26 -65q0 -51 -36.5 -86.5t-88.5 -35.5q-40 0 -67.5 27
zM495.5 807.5q20.5 19.5 20.5 47.5q0 19 -13.5 33t-35.5 14q-28 0 -48.5 -20.5t-20.5 -46.5q0 -20 13.5 -33.5t35.5 -13.5q28 0 48.5 19.5z" />
    <glyph glyph-name="Aringacute" unicode="&#x1fa;" horiz-adv-x="692" 
d="M465.5 987.5q-6.5 5.5 -6.5 14.5q0 17 19 36l50 50q24 24 42 24q11 0 17 -6.5t6 -17.5t-6 -20t-17 -19l-56 -51q-19 -16 -33 -16q-9 0 -15.5 5.5zM373.5 764q-27.5 27 -27.5 66q0 33 17 61t47 44.5t65 16.5q39 0 65 -28t26 -65q0 -51 -36.5 -86.5t-88.5 -35.5
q-40 0 -67.5 27zM418.5 881.5q-20.5 -20.5 -20.5 -46.5q0 -20 13.5 -33.5t35.5 -13.5q28 0 48.5 19.5t20.5 47.5q0 19 -13.5 33t-35.5 14q-28 0 -48.5 -20.5zM593 181q-10 -14 -29 -14h-7l16 -133l1 -9q0 -16 -15 -25.5t-33 -9.5q-13 0 -22.5 6t-10.5 16l-18 155l-283 2
q-48 -96 -78 -153q-12 -25 -42 -25q-19 0 -29 10.5t-7 21.5q0 4 4 12l169 334q51 98 117 229q33 64 52.5 88.5t49.5 24.5q28 0 45.5 -24t25.5 -79q25 -171 48 -363h25q15 0 23 -8.5t8 -22.5q0 -19 -10 -33zM467 246l-34 288q-5 40 -9 58t-9 18t-14.5 -16t-30.5 -59l-48 -99
q-45 -95 -91 -187z" />
    <glyph glyph-name="Atilde" unicode="&#xc3;" horiz-adv-x="692" 
d="M593 181q-10 -14 -29 -14h-7l16 -133l1 -9q0 -16 -15 -25.5t-33 -9.5q-13 0 -22.5 6t-10.5 16l-18 155l-283 2q-48 -96 -78 -153q-12 -25 -42 -25q-19 0 -29 10.5t-7 21.5q0 4 4 12l169 334q51 98 117 229q33 64 52.5 88.5t49.5 24.5q28 0 45.5 -24t25.5 -79
q25 -171 48 -363h25q15 0 23 -8.5t8 -22.5q0 -19 -10 -33zM467 246l-34 288q-5 40 -9 58t-9 18t-14.5 -16t-30.5 -59l-48 -99q-45 -95 -91 -187zM291 772.5q-6 6.5 -6 18.5q0 13 12 25q29 29 50 41t47 12q46 0 84 -22q6 -3 17.5 -9.5t19 -9.5t14.5 -3q13 0 32 17
q16 15 28 15q10 0 17 -8t7 -19q0 -14 -11 -25q-25 -20 -45 -29.5t-40 -9.5q-23 0 -55 18l-20 10q-5 2 -23 10.5t-31 8.5q-10 0 -19.5 -7t-27.5 -24q-19 -16 -33 -16q-11 0 -17 6.5z" />
    <glyph glyph-name="AE" unicode="&#xc6;" horiz-adv-x="913" 
d="M951 667q0 -6 -1 -9q-4 -21 -14 -28.5t-21 -6.5l-32 1q-68 4 -134 4q-83 0 -124 -3q-10 -86 -26 -170l-11 -61l107 -2q94 -2 111 -3q7 -1 10.5 -8.5t1.5 -19.5q-3 -14 -12.5 -21t-28.5 -7l-76 2l-65 2h-60q-14 -69 -37 -159l-26 -107q110 -10 174 -10q35 0 55 1.5t62 7.5
q12 2 22 -4.5t10 -21.5q0 -18 -11.5 -28.5t-26.5 -14.5q-24 -7 -98 -7q-32 0 -106 2q-132 3 -161 3q-32 0 -42 7.5t-8 24.5q4 20 15 28t33 8q15 51 32 122l-236 2l-112 -170q-7 -10 -13.5 -15t-17.5 -5q-20 0 -36 12.5t-8 24.5q106 165 193 294.5t179 241.5t137 116q2 1 7 1
l92 2q66 3 104 3q46 0 181 -9q18 -1 18 -20zM476 245q27 122 53 267q12 69 15 92q-69 -46 -278 -356z" />
    <glyph glyph-name="AEacute" unicode="&#x1fc;" horiz-adv-x="913" 
d="M951 667q0 -6 -1 -9q-4 -21 -14 -28.5t-21 -6.5l-32 1q-68 4 -134 4q-83 0 -124 -3q-10 -86 -26 -170l-11 -61l107 -2q94 -2 111 -3q7 -1 10.5 -8.5t1.5 -19.5q-3 -14 -12.5 -21t-28.5 -7l-76 2l-65 2h-60q-14 -69 -37 -159l-26 -107q110 -10 174 -10q35 0 55 1.5t62 7.5
q12 2 22 -4.5t10 -21.5q0 -18 -11.5 -28.5t-26.5 -14.5q-24 -7 -98 -7q-32 0 -106 2q-132 3 -161 3q-32 0 -42 7.5t-8 24.5q4 20 15 28t33 8q15 51 32 122l-236 2l-112 -170q-7 -10 -13.5 -15t-17.5 -5q-20 0 -36 12.5t-8 24.5q106 165 193 294.5t179 241.5t137 116q2 1 7 1
l92 2q66 3 104 3q46 0 181 -9q18 -1 18 -20zM476 245q27 122 53 267q12 69 15 92q-69 -46 -278 -356zM656 756.5q-7 6.5 -7 16.5q0 8 6 17.5t16 18.5l92 81q15 14 24.5 19.5t18.5 5.5q11 0 18.5 -7.5t7.5 -18.5q0 -21 -25 -41l-99 -81q-20 -17 -35 -17q-10 0 -17 6.5z" />
    <glyph glyph-name="B" unicode="B" horiz-adv-x="621" 
d="M47 5l-13 1q-27 3 -27 23q0 18 11.5 31.5t31.5 12.5h14q40 153 68 309q18 97 36 217q-7 -3 -16 -3t-14.5 5t-5.5 15q0 19 13 31t43 24q92 36 192 36q68 0 122 -21t84.5 -60t30.5 -90q0 -76 -56.5 -123t-145.5 -61q63 -14 98.5 -54t35.5 -88q0 -70 -43 -119t-113 -72.5
t-151 -20.5l-69 3l-52 1q-11 -25 -39 -25q-32 0 -35 28zM472 210q0 57 -52.5 81.5t-146.5 28.5q-19 1 -30.5 6t-11.5 20q0 43 53 45q73 4 127 15t91 41.5t37 88.5q0 51 -45 77.5t-125 26.5q-26 0 -60 -4t-60 -11q-14 -93 -40 -242q-28 -161 -71 -314l53 -1q22 -1 64 -1
q217 0 217 143z" />
    <glyph glyph-name="C" unicode="C" horiz-adv-x="714" 
d="M722 680q0 -6 -1 -9l-21 -112q-8 -45 -48 -45q-20 0 -30 16q-21 36 -38 58.5t-46.5 38t-72.5 15.5q-83 0 -158.5 -54t-122 -139.5t-46.5 -172.5q0 -69 30.5 -116t80 -69.5t108.5 -22.5q84 0 153.5 45.5t92.5 131.5q4 17 13.5 27.5t31.5 10.5q19 0 28 -7t9 -21
q0 -4 -2 -16q-13 -66 -57 -121.5t-113.5 -88t-155.5 -32.5q-79 0 -147 31t-109 93.5t-41 152.5q0 108 56.5 210t150 165.5t198.5 63.5q62 0 105.5 -23t67.5 -65l9 49q2 15 12.5 24.5t29.5 9.5q33 0 33 -28z" />
    <glyph glyph-name="Cacute" unicode="&#x106;" horiz-adv-x="714" 
d="M722 680q0 -6 -1 -9l-21 -112q-8 -45 -48 -45q-20 0 -30 16q-21 36 -38 58.5t-46.5 38t-72.5 15.5q-83 0 -158.5 -54t-122 -139.5t-46.5 -172.5q0 -69 30.5 -116t80 -69.5t108.5 -22.5q84 0 153.5 45.5t92.5 131.5q4 17 13.5 27.5t31.5 10.5q19 0 28 -7t9 -21
q0 -4 -2 -16q-13 -66 -57 -121.5t-113.5 -88t-155.5 -32.5q-79 0 -147 31t-109 93.5t-41 152.5q0 108 56.5 210t150 165.5t198.5 63.5q62 0 105.5 -23t67.5 -65l9 49q2 15 12.5 24.5t29.5 9.5q33 0 33 -28zM422 758.5q-7 6.5 -7 16.5q0 8 6 17.5t16 18.5l92 81
q15 14 24.5 19.5t18.5 5.5q11 0 18.5 -7.5t7.5 -18.5q0 -21 -25 -41l-99 -81q-20 -17 -35 -17q-10 0 -17 6.5z" />
    <glyph glyph-name="Ccaron" unicode="&#x10c;" horiz-adv-x="714" 
d="M722 680q0 -6 -1 -9l-21 -112q-8 -45 -48 -45q-20 0 -30 16q-21 36 -38 58.5t-46.5 38t-72.5 15.5q-83 0 -158.5 -54t-122 -139.5t-46.5 -172.5q0 -69 30.5 -116t80 -69.5t108.5 -22.5q84 0 153.5 45.5t92.5 131.5q4 17 13.5 27.5t31.5 10.5q19 0 28 -7t9 -21
q0 -4 -2 -16q-13 -66 -57 -121.5t-113.5 -88t-155.5 -32.5q-79 0 -147 31t-109 93.5t-41 152.5q0 108 56.5 210t150 165.5t198.5 63.5q62 0 105.5 -23t67.5 -65l9 49q2 15 12.5 24.5t29.5 9.5q33 0 33 -28zM643.5 936q6.5 -7 6.5 -17q0 -6 -3 -11.5t-6 -8t-4 -4.5
q-56 -63 -93 -96t-69 -33q-19 0 -39.5 22t-54.5 66q-15 21 -25 33q-8 9 -6 22q1 11 12.5 20t22.5 9q14 0 27 -20q59 -90 76 -90q9 0 39 28.5t72 74.5q11 12 28 12q10 0 16.5 -7z" />
    <glyph glyph-name="Ccedilla" unicode="&#xc7;" horiz-adv-x="714" 
d="M722 680q0 -6 -1 -9l-21 -112q-8 -45 -48 -45q-20 0 -30 16q-21 36 -38 58.5t-46.5 38t-72.5 15.5q-83 0 -158.5 -54t-122 -139.5t-46.5 -172.5q0 -69 30.5 -116t80 -69.5t108.5 -22.5q84 0 153.5 45.5t92.5 131.5q4 17 13.5 27.5t31.5 10.5q19 0 28 -7t9 -21
q0 -4 -2 -16q-13 -66 -57 -121.5t-113.5 -88t-155.5 -32.5h-8l-41 -51q33 -8 53 -28.5t20 -53.5q0 -44 -37.5 -65.5t-101.5 -21.5q-19 0 -44 4.5t-40 9.5q-16 6 -16 25q0 14 10 24t24 10q4 -1 27 -7t41 -6q36 0 53.5 5t17.5 26q0 15 -11.5 20t-30.5 8.5t-26 4.5q-12 1 -19 7
t-7 15q0 6 3 12l57 70q-97 20 -159 89t-62 180q0 108 56.5 210t150 165.5t198.5 63.5q62 0 105.5 -23t67.5 -65l9 49q2 15 12.5 24.5t29.5 9.5q33 0 33 -28z" />
    <glyph glyph-name="Ccircumflex" unicode="&#x108;" horiz-adv-x="714" 
d="M722 680q0 -6 -1 -9l-21 -112q-8 -45 -48 -45q-20 0 -30 16q-21 36 -38 58.5t-46.5 38t-72.5 15.5q-83 0 -158.5 -54t-122 -139.5t-46.5 -172.5q0 -69 30.5 -116t80 -69.5t108.5 -22.5q84 0 153.5 45.5t92.5 131.5q4 17 13.5 27.5t31.5 10.5q19 0 28 -7t9 -21
q0 -4 -2 -16q-13 -66 -57 -121.5t-113.5 -88t-155.5 -32.5q-79 0 -147 31t-109 93.5t-41 152.5q0 108 56.5 210t150 165.5t198.5 63.5q62 0 105.5 -23t67.5 -65l9 49q2 15 12.5 24.5t29.5 9.5q33 0 33 -28zM577 776q-57 102 -74 102q-8 0 -33.5 -21.5t-74.5 -68.5
q-20 -20 -35 -20q-10 0 -17.5 7.5t-7.5 18.5q0 13 14 26q14 10 32 29q48 44 78.5 67.5t50.5 23.5q26 0 46 -23t51 -72l21 -34q6 -8 6 -15q0 -13 -10.5 -23t-23.5 -10q-16 0 -23 13z" />
    <glyph glyph-name="Cdotaccent" unicode="&#x10a;" horiz-adv-x="714" 
d="M722 680q0 -6 -1 -9l-21 -112q-8 -45 -48 -45q-20 0 -30 16q-21 36 -38 58.5t-46.5 38t-72.5 15.5q-83 0 -158.5 -54t-122 -139.5t-46.5 -172.5q0 -69 30.5 -116t80 -69.5t108.5 -22.5q84 0 153.5 45.5t92.5 131.5q4 17 13.5 27.5t31.5 10.5q19 0 28 -7t9 -21
q0 -4 -2 -16q-13 -66 -57 -121.5t-113.5 -88t-155.5 -32.5q-79 0 -147 31t-109 93.5t-41 152.5q0 108 56.5 210t150 165.5t198.5 63.5q62 0 105.5 -23t67.5 -65l9 49q2 15 12.5 24.5t29.5 9.5q33 0 33 -28zM449.5 788.5q-12.5 12.5 -12.5 32.5q0 25 19 43.5t45 18.5
q20 0 33 -12t13 -31q0 -26 -19 -45t-45 -19q-21 0 -33.5 12.5z" />
    <glyph glyph-name="D" unicode="D" horiz-adv-x="687" 
d="M561 613.5q101 -71.5 101 -212.5q0 -116 -64.5 -205.5t-178 -139t-253.5 -49.5h-87q-19 0 -28 6.5t-9 21.5q0 17 10.5 29t28.5 12h35l82 554h-3q-21 0 -32.5 5.5t-11.5 21.5q0 26 13 34.5t39 8.5h12q10 15 36 15q15 0 22 -4.5t9 -13.5q178 -12 279 -83.5zM391 124
q90 42 142.5 114t52.5 163q0 117 -84.5 167.5t-226.5 59.5l-83 -551q109 5 199 47z" />
    <glyph glyph-name="Eth" unicode="&#xd0;" horiz-adv-x="726" 
d="M593.5 614q101.5 -74 101.5 -216q0 -117 -68.5 -206t-185.5 -137t-258 -48h-71q-37 0 -37 26q0 42 45 42h25l37 252l-75 1q-23 0 -35 8t-12 22q0 21 16 33.5t45 11.5l72 -2l34 230q-42 3 -42 31q0 21 14 29t46 9q11 14 36 14q28 0 34 -16q177 -10 278.5 -84zM425 124
q87 42 137 115.5t50 170.5q0 193 -301 218l-34 -229l111 -2q19 -1 30 -9.5t11 -22.5q0 -19 -14.5 -30.5t-39.5 -11.5l-109 2l-37 -249q109 6 196 48z" />
    <glyph glyph-name="Dcaron" unicode="&#x10e;" horiz-adv-x="687" 
d="M561 613.5q101 -71.5 101 -212.5q0 -116 -64.5 -205.5t-178 -139t-253.5 -49.5h-87q-19 0 -28 6.5t-9 21.5q0 17 10.5 29t28.5 12h35l82 554h-3q-21 0 -32.5 5.5t-11.5 21.5q0 26 13 34.5t39 8.5h12q10 15 36 15q15 0 22 -4.5t9 -13.5q178 -12 279 -83.5zM391 124
q90 42 142.5 114t52.5 163q0 117 -84.5 167.5t-226.5 59.5l-83 -551q109 5 199 47zM593.5 936q6.5 -7 6.5 -17q0 -6 -3 -11.5t-6 -8t-4 -4.5q-56 -63 -93 -96t-69 -33q-19 0 -39.5 22t-54.5 66q-15 21 -25 33q-8 9 -6 22q1 11 12.5 20t22.5 9q14 0 27 -20q59 -90 76 -90
q9 0 39 28.5t72 74.5q11 12 28 12q10 0 16.5 -7z" />
    <glyph glyph-name="Dcroat" unicode="&#x110;" horiz-adv-x="726" 
d="M593.5 614q101.5 -74 101.5 -216q0 -117 -68.5 -206t-185.5 -137t-258 -48h-71q-37 0 -37 26q0 42 45 42h25l37 252l-75 1q-23 0 -35 8t-12 22q0 21 16 33.5t45 11.5l72 -2l34 230q-42 3 -42 31q0 21 14 29t46 9q11 14 36 14q28 0 34 -16q177 -10 278.5 -84zM425 124
q87 42 137 115.5t50 170.5q0 193 -301 218l-34 -229l111 -2q19 -1 30 -9.5t11 -22.5q0 -19 -14.5 -30.5t-39.5 -11.5l-109 2l-37 -249q109 6 196 48z" />
    <glyph glyph-name="uni1E0C" unicode="&#x1e0c;" horiz-adv-x="687" 
d="M561 613.5q101 -71.5 101 -212.5q0 -116 -64.5 -205.5t-178 -139t-253.5 -49.5h-87q-19 0 -28 6.5t-9 21.5q0 17 10.5 29t28.5 12h35l82 554h-3q-21 0 -32.5 5.5t-11.5 21.5q0 26 13 34.5t39 8.5h12q10 15 36 15q15 0 22 -4.5t9 -13.5q178 -12 279 -83.5zM391 124
q90 42 142.5 114t52.5 163q0 117 -84.5 167.5t-226.5 59.5l-83 -551q109 5 199 47zM230.5 -166.5q-12.5 12.5 -12.5 32.5q0 25 19 43.5t45 18.5q20 0 33 -12t13 -31q0 -26 -19 -45t-45 -19q-21 0 -33.5 12.5z" />
    <glyph glyph-name="uni1E0E" unicode="&#x1e0e;" horiz-adv-x="687" 
d="M561 613.5q101 -71.5 101 -212.5q0 -116 -64.5 -205.5t-178 -139t-253.5 -49.5h-87q-19 0 -28 6.5t-9 21.5q0 17 10.5 29t28.5 12h35l82 554h-3q-21 0 -32.5 5.5t-11.5 21.5q0 26 13 34.5t39 8.5h12q10 15 36 15q15 0 22 -4.5t9 -13.5q178 -12 279 -83.5zM391 124
q90 42 142.5 114t52.5 163q0 117 -84.5 167.5t-226.5 59.5l-83 -551q109 5 199 47zM118 -157q-6 6 -6 17q0 15 8.5 25.5t21.5 12.5q75 9 184 9q35 0 73 -2q12 -1 29 -1q13 0 20.5 -7t7.5 -18q0 -16 -11 -25.5t-27 -9.5l-26 1q-57 3 -78 3q-50 0 -143 -8q-25 -3 -38 -3
q-9 0 -15 6z" />
    <glyph glyph-name="E" unicode="E" horiz-adv-x="573" 
d="M602.5 681.5q7.5 -4.5 7.5 -17.5q0 -20 -12 -32.5t-28 -10.5q-98 8 -182 8q-64 0 -136 -4q-19 -133 -35 -221l67 -1l110 -3l59 -1q24 0 24 -24q0 -19 -10 -32.5t-26 -13.5l-53 1q-45 3 -118 3q-42 0 -66 1q-14 -74 -28 -128t-33 -120q64 -5 154 -5q54 0 86 2t78 7
q37 4 37 -26q0 -18 -9.5 -29.5t-27.5 -14.5q-38 -8 -185 -8q-132 0 -236 12q-22 3 -22 25q0 18 9.5 30.5t22.5 12.5h17q18 54 31.5 109.5t28.5 133.5h-12q-30 0 -30 26q0 18 10.5 31t27.5 13h16q9 51 10 58q22 119 28 159h-7q-16 0 -16 25q0 26 13 34.5t34 10.5q58 6 173 6
q145 0 206 -9q15 -3 22.5 -7.5z" />
    <glyph glyph-name="Eacute" unicode="&#xc9;" horiz-adv-x="573" 
d="M602.5 681.5q7.5 -4.5 7.5 -17.5q0 -20 -12 -32.5t-28 -10.5q-98 8 -182 8q-64 0 -136 -4q-19 -133 -35 -221l67 -1l110 -3l59 -1q24 0 24 -24q0 -19 -10 -32.5t-26 -13.5l-53 1q-45 3 -118 3q-42 0 -66 1q-14 -74 -28 -128t-33 -120q64 -5 154 -5q54 0 86 2t78 7
q37 4 37 -26q0 -18 -9.5 -29.5t-27.5 -14.5q-38 -8 -185 -8q-132 0 -236 12q-22 3 -22 25q0 18 9.5 30.5t22.5 12.5h17q18 54 31.5 109.5t28.5 133.5h-12q-30 0 -30 26q0 18 10.5 31t27.5 13h16q9 51 10 58q22 119 28 159h-7q-16 0 -16 25q0 26 13 34.5t34 10.5q58 6 173 6
q145 0 206 -9q15 -3 22.5 -7.5zM334 758.5q-7 6.5 -7 16.5q0 8 6 17.5t16 18.5l92 81q15 14 24.5 19.5t18.5 5.5q11 0 18.5 -7.5t7.5 -18.5q0 -21 -25 -41l-99 -81q-20 -17 -35 -17q-10 0 -17 6.5z" />
    <glyph glyph-name="Ebreve" unicode="&#x114;" horiz-adv-x="573" 
d="M602.5 681.5q7.5 -4.5 7.5 -17.5q0 -20 -12 -32.5t-28 -10.5q-98 8 -182 8q-64 0 -136 -4q-19 -133 -35 -221l67 -1l110 -3l59 -1q24 0 24 -24q0 -19 -10 -32.5t-26 -13.5l-53 1q-45 3 -118 3q-42 0 -66 1q-14 -74 -28 -128t-33 -120q64 -5 154 -5q54 0 86 2t78 7
q37 4 37 -26q0 -18 -9.5 -29.5t-27.5 -14.5q-38 -8 -185 -8q-132 0 -236 12q-22 3 -22 25q0 18 9.5 30.5t22.5 12.5h17q18 54 31.5 109.5t28.5 133.5h-12q-30 0 -30 26q0 18 10.5 31t27.5 13h16q9 51 10 58q22 119 28 159h-7q-16 0 -16 25q0 26 13 34.5t34 10.5q58 6 173 6
q145 0 206 -9q15 -3 22.5 -7.5zM325.5 781q-32.5 15 -50.5 41t-18 56q0 7 2 17q4 14 12.5 22t20.5 8q11 0 19 -4.5t7 -14.5q-1 -5 -1 -14q1 -34 25 -53.5t61 -19.5t69 24.5t39 59.5q2 12 12.5 18.5t22.5 6.5t19 -8t5 -20q-6 -35 -31 -66t-62 -49.5t-78 -18.5t-73.5 15z" />
    <glyph glyph-name="Ecaron" unicode="&#x11a;" horiz-adv-x="573" 
d="M602.5 681.5q7.5 -4.5 7.5 -17.5q0 -20 -12 -32.5t-28 -10.5q-98 8 -182 8q-64 0 -136 -4q-19 -133 -35 -221l67 -1l110 -3l59 -1q24 0 24 -24q0 -19 -10 -32.5t-26 -13.5l-53 1q-45 3 -118 3q-42 0 -66 1q-14 -74 -28 -128t-33 -120q64 -5 154 -5q54 0 86 2t78 7
q37 4 37 -26q0 -18 -9.5 -29.5t-27.5 -14.5q-38 -8 -185 -8q-132 0 -236 12q-22 3 -22 25q0 18 9.5 30.5t22.5 12.5h17q18 54 31.5 109.5t28.5 133.5h-12q-30 0 -30 26q0 18 10.5 31t27.5 13h16q9 51 10 58q22 119 28 159h-7q-16 0 -16 25q0 26 13 34.5t34 10.5q58 6 173 6
q145 0 206 -9q15 -3 22.5 -7.5zM555.5 936q6.5 -7 6.5 -17q0 -6 -3 -11.5t-6 -8t-4 -4.5q-56 -63 -93 -96t-69 -33q-19 0 -39.5 22t-54.5 66q-15 21 -25 33q-8 9 -6 22q1 11 12.5 20t22.5 9q14 0 27 -20q59 -90 76 -90q9 0 39 28.5t72 74.5q11 12 28 12q10 0 16.5 -7z" />
    <glyph glyph-name="Ecircumflex" unicode="&#xca;" horiz-adv-x="573" 
d="M602.5 681.5q7.5 -4.5 7.5 -17.5q0 -20 -12 -32.5t-28 -10.5q-98 8 -182 8q-64 0 -136 -4q-19 -133 -35 -221l67 -1l110 -3l59 -1q24 0 24 -24q0 -19 -10 -32.5t-26 -13.5l-53 1q-45 3 -118 3q-42 0 -66 1q-14 -74 -28 -128t-33 -120q64 -5 154 -5q54 0 86 2t78 7
q37 4 37 -26q0 -18 -9.5 -29.5t-27.5 -14.5q-38 -8 -185 -8q-132 0 -236 12q-22 3 -22 25q0 18 9.5 30.5t22.5 12.5h17q18 54 31.5 109.5t28.5 133.5h-12q-30 0 -30 26q0 18 10.5 31t27.5 13h16q9 51 10 58q22 119 28 159h-7q-16 0 -16 25q0 26 13 34.5t34 10.5q58 6 173 6
q145 0 206 -9q15 -3 22.5 -7.5zM489 776q-57 102 -74 102q-8 0 -33.5 -21.5t-74.5 -68.5q-20 -20 -35 -20q-10 0 -17.5 7.5t-7.5 18.5q0 13 14 26q14 10 32 29q48 44 78.5 67.5t50.5 23.5q26 0 46 -23t51 -72l21 -34q6 -8 6 -15q0 -13 -10.5 -23t-23.5 -10q-16 0 -23 13z
" />
    <glyph glyph-name="uni1EBE" unicode="&#x1ebe;" horiz-adv-x="573" 
d="M602.5 681.5q7.5 -4.5 7.5 -17.5q0 -20 -12 -32.5t-28 -10.5q-98 8 -182 8q-64 0 -136 -4q-19 -133 -35 -221l67 -1l110 -3l59 -1q24 0 24 -24q0 -19 -10 -32.5t-26 -13.5l-53 1q-45 3 -118 3q-42 0 -66 1q-14 -74 -28 -128t-33 -120q64 -5 154 -5q54 0 86 2t78 7
q37 4 37 -26q0 -18 -9.5 -29.5t-27.5 -14.5q-38 -8 -185 -8q-132 0 -236 12q-22 3 -22 25q0 18 9.5 30.5t22.5 12.5h17q18 54 31.5 109.5t28.5 133.5h-12q-30 0 -30 26q0 18 10.5 31t27.5 13h16q9 51 10 58q22 119 28 159h-7q-16 0 -16 25q0 26 13 34.5t34 10.5q58 6 173 6
q145 0 206 -9q15 -3 22.5 -7.5zM527.5 911q-6.5 6 -6.5 16q0 15 19 34l58 51q13 12 22 17.5t18 5.5q11 0 18 -7t7 -18t-6 -19.5t-17 -17.5l-64 -53q-17 -15 -32 -15q-10 0 -16.5 6zM490 777q-57 102 -74 102q-8 0 -33.5 -21.5t-74.5 -68.5q-20 -20 -35 -20q-10 0 -17.5 7.5
t-7.5 18.5q0 13 14 26q13 11 32 29q48 44 78.5 67.5t50.5 23.5q26 0 46 -23t51 -72l21 -34q6 -8 6 -15q0 -13 -10.5 -23t-23.5 -10q-17 0 -23 13z" />
    <glyph glyph-name="uni1EC6" unicode="&#x1ec6;" horiz-adv-x="573" 
d="M602.5 681.5q7.5 -4.5 7.5 -17.5q0 -20 -12 -32.5t-28 -10.5q-98 8 -182 8q-64 0 -136 -4q-19 -133 -35 -221l67 -1l110 -3l59 -1q24 0 24 -24q0 -19 -10 -32.5t-26 -13.5l-53 1q-45 3 -118 3q-42 0 -66 1q-14 -74 -28 -128t-33 -120q64 -5 154 -5q54 0 86 2t78 7
q37 4 37 -26q0 -18 -9.5 -29.5t-27.5 -14.5q-38 -8 -185 -8q-132 0 -236 12q-22 3 -22 25q0 18 9.5 30.5t22.5 12.5h17q18 54 31.5 109.5t28.5 133.5h-12q-30 0 -30 26q0 18 10.5 31t27.5 13h16q9 51 10 58q22 119 28 159h-7q-16 0 -16 25q0 26 13 34.5t34 10.5q58 6 173 6
q145 0 206 -9q15 -3 22.5 -7.5zM192.5 -166.5q-12.5 12.5 -12.5 32.5q0 25 19 43.5t45 18.5q20 0 33 -12t13 -31q0 -26 -19 -45t-45 -19q-21 0 -33.5 12.5zM489 776q-57 102 -74 102q-8 0 -33.5 -21.5t-74.5 -68.5q-20 -20 -35 -20q-10 0 -17.5 7.5t-7.5 18.5q0 13 14 26
q14 10 32 29q48 44 78.5 67.5t50.5 23.5q26 0 46 -23t51 -72l21 -34q6 -8 6 -15q0 -13 -10.5 -23t-23.5 -10q-16 0 -23 13z" />
    <glyph glyph-name="uni1EC0" unicode="&#x1ec0;" horiz-adv-x="573" 
d="M602.5 681.5q7.5 -4.5 7.5 -17.5q0 -20 -12 -32.5t-28 -10.5q-98 8 -182 8q-64 0 -136 -4q-19 -133 -35 -221l67 -1l110 -3l59 -1q24 0 24 -24q0 -19 -10 -32.5t-26 -13.5l-53 1q-45 3 -118 3q-42 0 -66 1q-14 -74 -28 -128t-33 -120q64 -5 154 -5q54 0 86 2t78 7
q37 4 37 -26q0 -18 -9.5 -29.5t-27.5 -14.5q-38 -8 -185 -8q-132 0 -236 12q-22 3 -22 25q0 18 9.5 30.5t22.5 12.5h17q18 54 31.5 109.5t28.5 133.5h-12q-30 0 -30 26q0 18 10.5 31t27.5 13h16q9 51 10 58q22 119 28 159h-7q-16 0 -16 25q0 26 13 34.5t34 10.5q58 6 173 6
q145 0 206 -9q15 -3 22.5 -7.5zM557 920l-45 53q-12 14 -12 27q0 14 11 24.5t25 10.5q8 0 14.5 -5t16.5 -18l40 -51q9 -12 9 -23q0 -13 -9.5 -23t-22.5 -10q-14 0 -27 15zM489 777q-57 102 -74 102q-8 0 -33.5 -21.5t-74.5 -68.5q-20 -20 -35 -20q-10 0 -17.5 7.5t-7.5 18.5
q0 13 14 26q14 11 32 29q48 44 78.5 67.5t50.5 23.5q26 0 46 -23t51 -72l21 -34q6 -8 6 -15q0 -13 -10.5 -23t-23.5 -10q-17 0 -23 13z" />
    <glyph glyph-name="uni1EC2" unicode="&#x1ec2;" horiz-adv-x="573" 
d="M602.5 681.5q7.5 -4.5 7.5 -17.5q0 -20 -12 -32.5t-28 -10.5q-98 8 -182 8q-64 0 -136 -4q-19 -133 -35 -221l67 -1l110 -3l59 -1q24 0 24 -24q0 -19 -10 -32.5t-26 -13.5l-53 1q-45 3 -118 3q-42 0 -66 1q-14 -74 -28 -128t-33 -120q64 -5 154 -5q54 0 86 2t78 7
q37 4 37 -26q0 -18 -9.5 -29.5t-27.5 -14.5q-38 -8 -185 -8q-132 0 -236 12q-22 3 -22 25q0 18 9.5 30.5t22.5 12.5h17q18 54 31.5 109.5t28.5 133.5h-12q-30 0 -30 26q0 18 10.5 31t27.5 13h16q9 51 10 58q22 119 28 159h-7q-16 0 -16 25q0 26 13 34.5t34 10.5q58 6 173 6
q145 0 206 -9q15 -3 22.5 -7.5zM560.5 908q-5.5 6 -4.5 15l5 28q1 8 8.5 15t21.5 17q15 11 22.5 18.5t7.5 16.5q0 10 -7 15t-24 5q-16 0 -28 -7t-18 -18q-1 -6 -7 -9.5t-12 -3.5q-16 0 -16 15q0 27 26 45t60 18q30 0 51 -15t21 -38q0 -24 -10 -36t-28 -21q-8 -4 -14 -8.5
t-7 -10.5q-2 -9 -4 -25q-2 -11 -10.5 -16.5t-18.5 -5.5q-9 0 -14.5 6zM489 777q-57 102 -74 102q-8 0 -33.5 -21.5t-74.5 -68.5q-20 -20 -35 -20q-10 0 -17.5 7.5t-7.5 18.5q0 13 14 26q14 11 32 29q48 44 78.5 67.5t50.5 23.5q26 0 46 -23t51 -72l21 -34q6 -8 6 -15
q0 -13 -10.5 -23t-23.5 -10q-17 0 -23 13z" />
    <glyph glyph-name="uni1EC4" unicode="&#x1ec4;" horiz-adv-x="573" 
d="M602.5 681.5q7.5 -4.5 7.5 -17.5q0 -20 -12 -32.5t-28 -10.5q-98 8 -182 8q-64 0 -136 -4q-19 -133 -35 -221l67 -1l110 -3l59 -1q24 0 24 -24q0 -19 -10 -32.5t-26 -13.5l-53 1q-45 3 -118 3q-42 0 -66 1q-14 -74 -28 -128t-33 -120q64 -5 154 -5q54 0 86 2t78 7
q37 4 37 -26q0 -18 -9.5 -29.5t-27.5 -14.5q-38 -8 -185 -8q-132 0 -236 12q-22 3 -22 25q0 18 9.5 30.5t22.5 12.5h17q18 54 31.5 109.5t28.5 133.5h-12q-30 0 -30 26q0 18 10.5 31t27.5 13h16q9 51 10 58q22 119 28 159h-7q-16 0 -16 25q0 26 13 34.5t34 10.5q58 6 173 6
q145 0 206 -9q15 -3 22.5 -7.5zM281.5 977.5q-6.5 5.5 -6.5 15.5q0 13 13 24q29 27 49 38t46 11q20 0 38.5 -5.5t41.5 -16.5q37 -20 53 -20q14 0 35 16q5 3 13.5 9t15.5 6q11 0 17 -7t6 -17q0 -13 -13 -23q-24 -19 -43.5 -27.5t-39.5 -8.5q-16 0 -29 5t-26 11.5t-20 9.5
q-34 17 -54 17q-11 0 -22 -7t-27 -21q-18 -15 -31 -15q-10 0 -16.5 5.5zM489 777q-57 102 -74 102q-8 0 -33.5 -21.5t-74.5 -68.5q-20 -20 -35 -20q-10 0 -17.5 7.5t-7.5 18.5q0 13 14 26q14 11 32 29q48 44 78.5 67.5t50.5 23.5q26 0 46 -23t51 -72l21 -34q6 -8 6 -15
q0 -13 -10.5 -23t-23.5 -10q-17 0 -23 13z" />
    <glyph glyph-name="Edieresis" unicode="&#xcb;" horiz-adv-x="573" 
d="M602.5 681.5q7.5 -4.5 7.5 -17.5q0 -20 -12 -32.5t-28 -10.5q-98 8 -182 8q-64 0 -136 -4q-19 -133 -35 -221l67 -1l110 -3l59 -1q24 0 24 -24q0 -19 -10 -32.5t-26 -13.5l-53 1q-45 3 -118 3q-42 0 -66 1q-14 -74 -28 -128t-33 -120q64 -5 154 -5q54 0 86 2t78 7
q37 4 37 -26q0 -18 -9.5 -29.5t-27.5 -14.5q-38 -8 -185 -8q-132 0 -236 12q-22 3 -22 25q0 18 9.5 30.5t22.5 12.5h17q18 54 31.5 109.5t28.5 133.5h-12q-30 0 -30 26q0 18 10.5 31t27.5 13h16q9 51 10 58q22 119 28 159h-7q-16 0 -16 25q0 26 13 34.5t34 10.5q58 6 173 6
q145 0 206 -9q15 -3 22.5 -7.5zM242.5 788.5q-12.5 12.5 -12.5 32.5q0 26 19 44t45 18q20 0 33.5 -12.5t13.5 -31.5q0 -25 -20 -44t-45 -19q-21 0 -33.5 12.5zM482.5 788.5q-12.5 12.5 -12.5 32.5q0 26 19 44t45 18q20 0 33 -12t13 -31q0 -25 -19.5 -44.5t-44.5 -19.5
q-21 0 -33.5 12.5z" />
    <glyph glyph-name="Edotaccent" unicode="&#x116;" horiz-adv-x="573" 
d="M602.5 681.5q7.5 -4.5 7.5 -17.5q0 -20 -12 -32.5t-28 -10.5q-98 8 -182 8q-64 0 -136 -4q-19 -133 -35 -221l67 -1l110 -3l59 -1q24 0 24 -24q0 -19 -10 -32.5t-26 -13.5l-53 1q-45 3 -118 3q-42 0 -66 1q-14 -74 -28 -128t-33 -120q64 -5 154 -5q54 0 86 2t78 7
q37 4 37 -26q0 -18 -9.5 -29.5t-27.5 -14.5q-38 -8 -185 -8q-132 0 -236 12q-22 3 -22 25q0 18 9.5 30.5t22.5 12.5h17q18 54 31.5 109.5t28.5 133.5h-12q-30 0 -30 26q0 18 10.5 31t27.5 13h16q9 51 10 58q22 119 28 159h-7q-16 0 -16 25q0 26 13 34.5t34 10.5q58 6 173 6
q145 0 206 -9q15 -3 22.5 -7.5zM361.5 788.5q-12.5 12.5 -12.5 32.5q0 25 19 43.5t45 18.5q20 0 33 -12t13 -31q0 -26 -19 -45t-45 -19q-21 0 -33.5 12.5z" />
    <glyph glyph-name="uni1EB8" unicode="&#x1eb8;" horiz-adv-x="573" 
d="M602.5 681.5q7.5 -4.5 7.5 -17.5q0 -20 -12 -32.5t-28 -10.5q-98 8 -182 8q-64 0 -136 -4q-19 -133 -35 -221l67 -1l110 -3l59 -1q24 0 24 -24q0 -19 -10 -32.5t-26 -13.5l-53 1q-45 3 -118 3q-42 0 -66 1q-14 -74 -28 -128t-33 -120q64 -5 154 -5q54 0 86 2t78 7
q37 4 37 -26q0 -18 -9.5 -29.5t-27.5 -14.5q-38 -8 -185 -8q-132 0 -236 12q-22 3 -22 25q0 18 9.5 30.5t22.5 12.5h17q18 54 31.5 109.5t28.5 133.5h-12q-30 0 -30 26q0 18 10.5 31t27.5 13h16q9 51 10 58q22 119 28 159h-7q-16 0 -16 25q0 26 13 34.5t34 10.5q58 6 173 6
q145 0 206 -9q15 -3 22.5 -7.5zM192.5 -166.5q-12.5 12.5 -12.5 32.5q0 25 19 43.5t45 18.5q20 0 33 -12t13 -31q0 -26 -19 -45t-45 -19q-21 0 -33.5 12.5z" />
    <glyph glyph-name="Egrave" unicode="&#xc8;" horiz-adv-x="573" 
d="M602.5 681.5q7.5 -4.5 7.5 -17.5q0 -20 -12 -32.5t-28 -10.5q-98 8 -182 8q-64 0 -136 -4q-19 -133 -35 -221l67 -1l110 -3l59 -1q24 0 24 -24q0 -19 -10 -32.5t-26 -13.5l-53 1q-45 3 -118 3q-42 0 -66 1q-14 -74 -28 -128t-33 -120q64 -5 154 -5q54 0 86 2t78 7
q37 4 37 -26q0 -18 -9.5 -29.5t-27.5 -14.5q-38 -8 -185 -8q-132 0 -236 12q-22 3 -22 25q0 18 9.5 30.5t22.5 12.5h17q18 54 31.5 109.5t28.5 133.5h-12q-30 0 -30 26q0 18 10.5 31t27.5 13h16q9 51 10 58q22 119 28 159h-7q-16 0 -16 25q0 26 13 34.5t34 10.5q58 6 173 6
q145 0 206 -9q15 -3 22.5 -7.5zM429 760.5q-6 3.5 -13 12.5l-64 86q-11 17 -11 27q0 15 10.5 25.5t23.5 10.5q17 0 33 -24l58 -85q10 -13 10 -24q0 -13 -10 -22.5t-23 -9.5q-8 0 -14 3.5z" />
    <glyph glyph-name="uni1EBA" unicode="&#x1eba;" horiz-adv-x="573" 
d="M602.5 681.5q7.5 -4.5 7.5 -17.5q0 -20 -12 -32.5t-28 -10.5q-98 8 -182 8q-64 0 -136 -4q-19 -133 -35 -221l67 -1l110 -3l59 -1q24 0 24 -24q0 -19 -10 -32.5t-26 -13.5l-53 1q-45 3 -118 3q-42 0 -66 1q-14 -74 -28 -128t-33 -120q64 -5 154 -5q54 0 86 2t78 7
q37 4 37 -26q0 -18 -9.5 -29.5t-27.5 -14.5q-38 -8 -185 -8q-132 0 -236 12q-22 3 -22 25q0 18 9.5 30.5t22.5 12.5h17q18 54 31.5 109.5t28.5 133.5h-12q-30 0 -30 26q0 18 10.5 31t27.5 13h16q9 51 10 58q22 119 28 159h-7q-16 0 -16 25q0 26 13 34.5t34 10.5q58 6 173 6
q145 0 206 -9q15 -3 22.5 -7.5zM375.5 768.5q-7.5 9.5 -5.5 22.5q1 7 8 38q3 11 14 22t30 24q21 15 31.5 25t12.5 22q3 18 -10 29t-39 11q-41 0 -73 -42q-11 -15 -23 -15q-9 0 -17 6t-8 14q0 11 10 24q23 31 51 48t70 17q45 0 74 -22t29 -56q0 -31 -17 -50t-45 -36
q-10 -6 -18 -13t-9 -12l-5 -32q-3 -16 -14 -25t-25 -9t-21.5 9.5z" />
    <glyph glyph-name="Emacron" unicode="&#x112;" horiz-adv-x="573" 
d="M602.5 681.5q7.5 -4.5 7.5 -17.5q0 -20 -12 -32.5t-28 -10.5q-98 8 -182 8q-64 0 -136 -4q-19 -133 -35 -221l67 -1l110 -3l59 -1q24 0 24 -24q0 -19 -10 -32.5t-26 -13.5l-53 1q-45 3 -118 3q-42 0 -66 1q-14 -74 -28 -128t-33 -120q64 -5 154 -5q54 0 86 2t78 7
q37 4 37 -26q0 -18 -9.5 -29.5t-27.5 -14.5q-38 -8 -185 -8q-132 0 -236 12q-22 3 -22 25q0 18 9.5 30.5t22.5 12.5h17q18 54 31.5 109.5t28.5 133.5h-12q-30 0 -30 26q0 18 10.5 31t27.5 13h16q9 51 10 58q22 119 28 159h-7q-16 0 -16 25q0 26 13 34.5t34 10.5q58 6 173 6
q145 0 206 -9q15 -3 22.5 -7.5zM213 790q-5 6 -5 16q0 15 9 26t25 13q5 1 43.5 7.5t123.5 6.5h148q15 0 23 -9t5 -24q-6 -28 -37 -28q-18 0 -32 1l-109 1q-67 0 -146 -12q-32 -4 -34 -4q-9 0 -14 6z" />
    <glyph glyph-name="Eogonek" unicode="&#x118;" horiz-adv-x="573" 
d="M602.5 681.5q7.5 -4.5 7.5 -17.5q0 -20 -12 -32.5t-28 -10.5q-98 8 -182 8q-64 0 -136 -4q-19 -133 -35 -221l67 -1l110 -3l59 -1q24 0 24 -24q0 -19 -10 -32.5t-26 -13.5l-53 1q-45 3 -118 3q-42 0 -66 1q-14 -74 -28 -128t-33 -120q64 -5 154 -5q54 0 86 2t78 7
q37 4 37 -26q0 -23 -16 -36l-5 -4q-34 -24 -51 -43.5t-17 -42.5q0 -25 37 -25q7 0 19.5 3.5t15.5 3.5q6 0 10 -4.5t4 -11.5q0 -21 -14.5 -31.5t-40.5 -10.5q-38 0 -64.5 21.5t-26.5 54.5q0 42 35 75q-33 -1 -108 -1q-132 0 -236 12q-22 3 -22 25q0 18 9.5 30.5t22.5 12.5h17
q18 54 31.5 109.5t28.5 133.5h-12q-30 0 -30 26q0 18 10.5 31t27.5 13h16q9 51 10 58q22 119 28 159h-7q-16 0 -16 25q0 26 13 34.5t34 10.5q58 6 173 6q145 0 206 -9q15 -3 22.5 -7.5z" />
    <glyph glyph-name="uni1EBC" unicode="&#x1ebc;" horiz-adv-x="573" 
d="M602.5 681.5q7.5 -4.5 7.5 -17.5q0 -20 -12 -32.5t-28 -10.5q-98 8 -182 8q-64 0 -136 -4q-19 -133 -35 -221l67 -1l110 -3l59 -1q24 0 24 -24q0 -19 -10 -32.5t-26 -13.5l-53 1q-45 3 -118 3q-42 0 -66 1q-14 -74 -28 -128t-33 -120q64 -5 154 -5q54 0 86 2t78 7
q37 4 37 -26q0 -18 -9.5 -29.5t-27.5 -14.5q-38 -8 -185 -8q-132 0 -236 12q-22 3 -22 25q0 18 9.5 30.5t22.5 12.5h17q18 54 31.5 109.5t28.5 133.5h-12q-30 0 -30 26q0 18 10.5 31t27.5 13h16q9 51 10 58q22 119 28 159h-7q-16 0 -16 25q0 26 13 34.5t34 10.5q58 6 173 6
q145 0 206 -9q15 -3 22.5 -7.5zM243 772.5q-6 6.5 -6 18.5q0 13 12 25q29 29 50 41t47 12q46 0 84 -22q6 -3 17.5 -9.5t19 -9.5t14.5 -3q13 0 32 17q16 15 28 15q10 0 17 -8t7 -19q0 -14 -11 -25q-25 -20 -45 -29.5t-40 -9.5q-23 0 -55 18l-20 10q-5 2 -23 10.5t-31 8.5
q-10 0 -19.5 -7t-27.5 -24q-19 -16 -33 -16q-11 0 -17 6.5z" />
    <glyph glyph-name="F" unicode="F" horiz-adv-x="559" 
d="M602 664q0 -19 -11 -32t-30 -11q-104 13 -184 13q-61 0 -121 -3q-12 -116 -33 -241q39 3 87 3q44 0 91.5 -2t64.5 -5q26 -4 26 -28q0 -16 -10 -28.5t-31 -11.5q-70 5 -136 5q-60 0 -104 -3q-25 -141 -59 -283q-5 -14 -16.5 -22.5t-28.5 -8.5q-19 0 -27 9t-5 23
q17 69 29 124t30 151l-45 -6q-12 -1 -19 5.5t-7 19.5q0 18 10.5 30.5t29.5 14.5q30 4 43 5q21 121 32 245l-29 -2q-32 -1 -32 24q0 42 41 45l25 1l1 13q1 17 13.5 27t31.5 10q34 0 33 -38v-7q61 3 122 3q65 0 117 -3.5t75 -9.5q26 -6 26 -26z" />
    <glyph glyph-name="G" unicode="G" horiz-adv-x="741" 
d="M291.5 573q-71.5 -46 -113 -121.5t-41.5 -159.5q0 -64 26 -114t75 -78t116 -28q91 0 145.5 54t77.5 160l-141 3q-32 1 -32 29q0 20 13 31t30 11l241 -5q34 0 34 -27q0 -19 -11.5 -30.5t-30.5 -11.5l-29 1q-60 -286 -297 -286q-90 0 -157 38.5t-102.5 105t-35.5 148.5
q0 104 53 195.5t143 146.5t195 55q72 0 119.5 -25t74.5 -62l8 29q4 16 14 22t29 6q16 0 25.5 -7.5t7.5 -19.5q-11 -69 -27 -94q-8 -12 -20 -17t-24 -5q-11 0 -19 4.5t-20 17.5q-25 26 -44.5 42t-50 27t-73.5 11q-87 0 -158.5 -46z" />
    <glyph glyph-name="Gbreve" unicode="&#x11e;" horiz-adv-x="741" 
d="M291.5 573q-71.5 -46 -113 -121.5t-41.5 -159.5q0 -64 26 -114t75 -78t116 -28q91 0 145.5 54t77.5 160l-141 3q-32 1 -32 29q0 20 13 31t30 11l241 -5q34 0 34 -27q0 -19 -11.5 -30.5t-30.5 -11.5l-29 1q-60 -286 -297 -286q-90 0 -157 38.5t-102.5 105t-35.5 148.5
q0 104 53 195.5t143 146.5t195 55q72 0 119.5 -25t74.5 -62l8 29q4 16 14 22t29 6q16 0 25.5 -7.5t7.5 -19.5q-11 -69 -27 -94q-8 -12 -20 -17t-24 -5q-11 0 -19 4.5t-20 17.5q-25 26 -44.5 42t-50 27t-73.5 11q-87 0 -158.5 -46zM399.5 781q-32.5 15 -50.5 41t-18 56
q0 7 2 17q4 14 12.5 22t20.5 8q11 0 19 -4.5t7 -14.5q-1 -5 -1 -14q1 -34 25 -53.5t61 -19.5t69 24.5t39 59.5q2 12 12.5 18.5t22.5 6.5t19 -8t5 -20q-6 -35 -31 -66t-62 -49.5t-78 -18.5t-73.5 15z" />
    <glyph glyph-name="Gcaron" unicode="&#x1e6;" horiz-adv-x="741" 
d="M291.5 573q-71.5 -46 -113 -121.5t-41.5 -159.5q0 -64 26 -114t75 -78t116 -28q91 0 145.5 54t77.5 160l-141 3q-32 1 -32 29q0 20 13 31t30 11l241 -5q34 0 34 -27q0 -19 -11.5 -30.5t-30.5 -11.5l-29 1q-60 -286 -297 -286q-90 0 -157 38.5t-102.5 105t-35.5 148.5
q0 104 53 195.5t143 146.5t195 55q72 0 119.5 -25t74.5 -62l8 29q4 16 14 22t29 6q16 0 25.5 -7.5t7.5 -19.5q-11 -69 -27 -94q-8 -12 -20 -17t-24 -5q-11 0 -19 4.5t-20 17.5q-25 26 -44.5 42t-50 27t-73.5 11q-87 0 -158.5 -46zM629.5 936q6.5 -7 6.5 -17q0 -6 -3 -11.5
t-6 -8t-4 -4.5q-56 -63 -93 -96t-69 -33q-19 0 -39.5 22t-54.5 66q-15 21 -25 33q-8 9 -6 22q1 11 12.5 20t22.5 9q14 0 27 -20q59 -90 76 -90q9 0 39 28.5t72 74.5q11 12 28 12q10 0 16.5 -7z" />
    <glyph glyph-name="Gcircumflex" unicode="&#x11c;" horiz-adv-x="741" 
d="M291.5 573q-71.5 -46 -113 -121.5t-41.5 -159.5q0 -64 26 -114t75 -78t116 -28q91 0 145.5 54t77.5 160l-141 3q-32 1 -32 29q0 20 13 31t30 11l241 -5q34 0 34 -27q0 -19 -11.5 -30.5t-30.5 -11.5l-29 1q-60 -286 -297 -286q-90 0 -157 38.5t-102.5 105t-35.5 148.5
q0 104 53 195.5t143 146.5t195 55q72 0 119.5 -25t74.5 -62l8 29q4 16 14 22t29 6q16 0 25.5 -7.5t7.5 -19.5q-11 -69 -27 -94q-8 -12 -20 -17t-24 -5q-11 0 -19 4.5t-20 17.5q-25 26 -44.5 42t-50 27t-73.5 11q-87 0 -158.5 -46zM563 776q-57 102 -74 102q-8 0 -33.5 -21.5
t-74.5 -68.5q-20 -20 -35 -20q-10 0 -17.5 7.5t-7.5 18.5q0 13 14 26q14 10 32 29q48 44 78.5 67.5t50.5 23.5q26 0 46 -23t51 -72l21 -34q6 -8 6 -15q0 -13 -10.5 -23t-23.5 -10q-16 0 -23 13z" />
    <glyph glyph-name="uni0122" unicode="&#x122;" horiz-adv-x="741" 
d="M291.5 573q-71.5 -46 -113 -121.5t-41.5 -159.5q0 -64 26 -114t75 -78t116 -28q91 0 145.5 54t77.5 160l-141 3q-32 1 -32 29q0 20 13 31t30 11l241 -5q34 0 34 -27q0 -19 -11.5 -30.5t-30.5 -11.5l-29 1q-60 -286 -297 -286q-90 0 -157 38.5t-102.5 105t-35.5 148.5
q0 104 53 195.5t143 146.5t195 55q72 0 119.5 -25t74.5 -62l8 29q4 16 14 22t29 6q16 0 25.5 -7.5t7.5 -19.5q-11 -69 -27 -94q-8 -12 -20 -17t-24 -5q-11 0 -19 4.5t-20 17.5q-25 26 -44.5 42t-50 27t-73.5 11q-87 0 -158.5 -46zM359 -86q14 -14 14 -34q0 -36 -33.5 -78
t-78.5 -73q-8 -7 -18 -7q-8 0 -15 6t-7 15t6 15l19 18q34 32 44 44q-15 2 -25.5 13.5t-10.5 27.5q0 27 21.5 47t48.5 20q21 0 35 -14z" />
    <glyph glyph-name="Gdotaccent" unicode="&#x120;" horiz-adv-x="741" 
d="M291.5 573q-71.5 -46 -113 -121.5t-41.5 -159.5q0 -64 26 -114t75 -78t116 -28q91 0 145.5 54t77.5 160l-141 3q-32 1 -32 29q0 20 13 31t30 11l241 -5q34 0 34 -27q0 -19 -11.5 -30.5t-30.5 -11.5l-29 1q-60 -286 -297 -286q-90 0 -157 38.5t-102.5 105t-35.5 148.5
q0 104 53 195.5t143 146.5t195 55q72 0 119.5 -25t74.5 -62l8 29q4 16 14 22t29 6q16 0 25.5 -7.5t7.5 -19.5q-11 -69 -27 -94q-8 -12 -20 -17t-24 -5q-11 0 -19 4.5t-20 17.5q-25 26 -44.5 42t-50 27t-73.5 11q-87 0 -158.5 -46zM435.5 788.5q-12.5 12.5 -12.5 32.5
q0 25 19 43.5t45 18.5q20 0 33 -12t13 -31q0 -26 -19 -45t-45 -19q-21 0 -33.5 12.5z" />
    <glyph glyph-name="uni1E20" unicode="&#x1e20;" horiz-adv-x="741" 
d="M291.5 573q-71.5 -46 -113 -121.5t-41.5 -159.5q0 -64 26 -114t75 -78t116 -28q91 0 145.5 54t77.5 160l-141 3q-32 1 -32 29q0 20 13 31t30 11l241 -5q34 0 34 -27q0 -19 -11.5 -30.5t-30.5 -11.5l-29 1q-60 -286 -297 -286q-90 0 -157 38.5t-102.5 105t-35.5 148.5
q0 104 53 195.5t143 146.5t195 55q72 0 119.5 -25t74.5 -62l8 29q4 16 14 22t29 6q16 0 25.5 -7.5t7.5 -19.5q-11 -69 -27 -94q-8 -12 -20 -17t-24 -5q-11 0 -19 4.5t-20 17.5q-25 26 -44.5 42t-50 27t-73.5 11q-87 0 -158.5 -46zM287 790q-5 6 -5 16q0 15 9 26t25 13
q5 1 43.5 7.5t123.5 6.5h148q15 0 23 -9t5 -24q-6 -28 -37 -28q-18 0 -32 1l-109 1q-67 0 -146 -12q-32 -4 -34 -4q-9 0 -14 6z" />
    <glyph glyph-name="H" unicode="H" horiz-adv-x="713" 
d="M670 344q8 -7 8 -23q0 -20 -12.5 -30.5t-35.5 -10.5h-20l-36 -243q-3 -18 -14.5 -28t-29.5 -10q-19 0 -27.5 9.5t-6.5 26.5l36 246l-328 5l-68 -264q-8 -28 -43 -28q-34 0 -34 24q0 7 1 10l67 260h-25q-13 0 -21.5 7.5t-8.5 23.5q0 18 11.5 28.5t32.5 10.5h29l84 329
q5 18 17.5 26.5t28.5 8.5q32 0 32 -28l-2 -12l-83 -325l321 -5l49 332q2 16 13.5 27t30.5 11q18 0 26.5 -10t6.5 -25l-49 -336h23q19 0 27 -7z" />
    <glyph glyph-name="Hbar" unicode="&#x126;" horiz-adv-x="728" 
d="M653 488l-20 -137h23q19 0 27 -7t8 -23q0 -20 -12.5 -30.5t-35.5 -10.5h-20l-36 -243q-3 -18 -14.5 -28t-29.5 -10q-19 0 -27.5 9.5t-6.5 26.5l36 246l-328 5l-68 -264q-8 -28 -43 -28q-34 0 -34 24q0 7 1 10l67 260h-25q-13 0 -21.5 7.5t-8.5 23.5q0 18 11.5 28.5
t32.5 10.5h29l35 138l-48 1q-17 1 -27 8t-10 20q0 16 15.5 26t34.5 10l51 -1l33 127q5 18 17.5 26.5t28.5 8.5q32 0 32 -28l-2 -12l-31 -123l299 -4l19 129q2 16 13.5 27t30.5 11q18 0 26.5 -10t6.5 -25l-20 -134h28q18 0 28.5 -7t10.5 -19q0 -19 -14.5 -29t-36.5 -10h-25z
M576 490l-306 5l-35 -138l321 -5z" />
    <glyph glyph-name="uni1E2A" unicode="&#x1e2a;" horiz-adv-x="713" 
d="M670 344q8 -7 8 -23q0 -20 -12.5 -30.5t-35.5 -10.5h-20l-36 -243q-3 -18 -14.5 -28t-29.5 -10q-19 0 -27.5 9.5t-6.5 26.5l36 246l-328 5l-68 -264q-8 -28 -43 -28q-34 0 -34 24q0 7 1 10l67 260h-25q-13 0 -21.5 7.5t-8.5 23.5q0 18 11.5 28.5t32.5 10.5h29l84 329
q5 18 17.5 26.5t28.5 8.5q32 0 32 -28l-2 -12l-83 -325l321 -5l49 332q2 16 13.5 27t30.5 11q18 0 26.5 -10t6.5 -25l-49 -336h23q19 0 27 -7zM213.5 -201q-32.5 15 -50.5 41t-18 56q0 7 2 17q4 14 12.5 22t20.5 8q11 0 19 -4.5t7 -14.5q-1 -5 -1 -14q1 -34 25 -53.5
t61 -19.5t69 24.5t39 59.5q2 12 12.5 18.5t22.5 6.5t19 -8t5 -20q-6 -35 -31 -66t-62 -49.5t-78 -18.5t-73.5 15z" />
    <glyph glyph-name="Hcircumflex" unicode="&#x124;" horiz-adv-x="713" 
d="M670 344q8 -7 8 -23q0 -20 -12.5 -30.5t-35.5 -10.5h-20l-36 -243q-3 -18 -14.5 -28t-29.5 -10q-19 0 -27.5 9.5t-6.5 26.5l36 246l-328 5l-68 -264q-8 -28 -43 -28q-34 0 -34 24q0 7 1 10l67 260h-25q-13 0 -21.5 7.5t-8.5 23.5q0 18 11.5 28.5t32.5 10.5h29l84 329
q5 18 17.5 26.5t28.5 8.5q32 0 32 -28l-2 -12l-83 -325l321 -5l49 332q2 16 13.5 27t30.5 11q18 0 26.5 -10t6.5 -25l-49 -336h23q19 0 27 -7zM554 776q-57 102 -74 102q-8 0 -33.5 -21.5t-74.5 -68.5q-20 -20 -35 -20q-10 0 -17.5 7.5t-7.5 18.5q0 13 14 26q14 10 32 29
q48 44 78.5 67.5t50.5 23.5q26 0 46 -23t51 -72l21 -34q6 -8 6 -15q0 -13 -10.5 -23t-23.5 -10q-16 0 -23 13z" />
    <glyph glyph-name="uni1E24" unicode="&#x1e24;" horiz-adv-x="713" 
d="M670 344q8 -7 8 -23q0 -20 -12.5 -30.5t-35.5 -10.5h-20l-36 -243q-3 -18 -14.5 -28t-29.5 -10q-19 0 -27.5 9.5t-6.5 26.5l36 246l-328 5l-68 -264q-8 -28 -43 -28q-34 0 -34 24q0 7 1 10l67 260h-25q-13 0 -21.5 7.5t-8.5 23.5q0 18 11.5 28.5t32.5 10.5h29l84 329
q5 18 17.5 26.5t28.5 8.5q32 0 32 -28l-2 -12l-83 -325l321 -5l49 332q2 16 13.5 27t30.5 11q18 0 26.5 -10t6.5 -25l-49 -336h23q19 0 27 -7zM247.5 -166.5q-12.5 12.5 -12.5 32.5q0 25 19 43.5t45 18.5q20 0 33 -12t13 -31q0 -26 -19 -45t-45 -19q-21 0 -33.5 12.5z" />
    <glyph glyph-name="I" unicode="I" horiz-adv-x="438" 
d="M483 677q0 -20 -12 -32t-30 -11q-30 2 -91 4q-29 -162 -56.5 -292t-62.5 -270l112 -1q16 0 22.5 -6.5t6.5 -20.5q0 -20 -11 -32t-31 -12l-303 4q-25 1 -25 28q0 20 12 31.5t28 11.5l114 -2q70 299 116 560l-70 -4q-60 -4 -75 -4q-9 0 -15 7t-6 22q0 19 11 29t28 13
q54 9 159 9q94 0 153 -6q26 -2 26 -26z" />
    <glyph glyph-name="IJ" unicode="&#x132;" horiz-adv-x="987" 
d="M483 677q0 -20 -12 -32t-30 -11q-30 2 -91 4q-29 -162 -56.5 -292t-62.5 -270l112 -1q16 0 22.5 -6.5t6.5 -20.5q0 -20 -11 -32t-31 -12l-303 4q-25 1 -25 28q0 20 12 31.5t28 11.5l114 -2q70 299 116 560l-70 -4q-60 -4 -75 -4q-9 0 -15 7t-6 22q0 19 11 29t28 13
q54 9 159 9q94 0 153 -6q26 -2 26 -26zM1053 675q0 -44 -44 -44h-51q-30 -159 -69 -373q-44 -258 -249 -258q-88 0 -137 49t-49 137q0 35 7 69q4 24 14 32.5t33 8.5q34 0 34 -29q0 -7 -1 -11q-8 -42 -8 -72q0 -113 102 -113q65 0 111.5 46.5t63.5 145.5q32 172 65 337l6 30
q-27 -1 -70 -1q-15 0 -24 7t-9 20q0 19 10.5 29.5t22.5 11.5q48 4 151 4q45 0 64 -1q27 -3 27 -25z" />
    <glyph glyph-name="Iacute" unicode="&#xcd;" horiz-adv-x="438" 
d="M483 677q0 -20 -12 -32t-30 -11q-30 2 -91 4q-29 -162 -56.5 -292t-62.5 -270l112 -1q16 0 22.5 -6.5t6.5 -20.5q0 -20 -11 -32t-31 -12l-303 4q-25 1 -25 28q0 20 12 31.5t28 11.5l114 -2q70 299 116 560l-70 -4q-60 -4 -75 -4q-9 0 -15 7t-6 22q0 19 11 29t28 13
q54 9 159 9q94 0 153 -6q26 -2 26 -26zM258 758.5q-7 6.5 -7 16.5q0 8 6 17.5t16 18.5l92 81q15 14 24.5 19.5t18.5 5.5q11 0 18.5 -7.5t7.5 -18.5q0 -21 -25 -41l-99 -81q-20 -17 -35 -17q-10 0 -17 6.5z" />
    <glyph glyph-name="Ibreve" unicode="&#x12c;" horiz-adv-x="438" 
d="M483 677q0 -20 -12 -32t-30 -11q-30 2 -91 4q-29 -162 -56.5 -292t-62.5 -270l112 -1q16 0 22.5 -6.5t6.5 -20.5q0 -20 -11 -32t-31 -12l-303 4q-25 1 -25 28q0 20 12 31.5t28 11.5l114 -2q70 299 116 560l-70 -4q-60 -4 -75 -4q-9 0 -15 7t-6 22q0 19 11 29t28 13
q54 9 159 9q94 0 153 -6q26 -2 26 -26zM249.5 781q-32.5 15 -50.5 41t-18 56q0 7 2 17q4 14 12.5 22t20.5 8q11 0 19 -4.5t7 -14.5q-1 -5 -1 -14q1 -34 25 -53.5t61 -19.5t69 24.5t39 59.5q2 12 12.5 18.5t22.5 6.5t19 -8t5 -20q-6 -35 -31 -66t-62 -49.5t-78 -18.5
t-73.5 15z" />
    <glyph glyph-name="uni01CF" unicode="&#x1cf;" horiz-adv-x="438" 
d="M483 677q0 -20 -12 -32t-30 -11q-30 2 -91 4q-29 -162 -56.5 -292t-62.5 -270l112 -1q16 0 22.5 -6.5t6.5 -20.5q0 -20 -11 -32t-31 -12l-303 4q-25 1 -25 28q0 20 12 31.5t28 11.5l114 -2q70 299 116 560l-70 -4q-60 -4 -75 -4q-9 0 -15 7t-6 22q0 19 11 29t28 13
q54 9 159 9q94 0 153 -6q26 -2 26 -26zM479.5 936q6.5 -7 6.5 -17q0 -6 -3 -11.5t-6 -8t-4 -4.5q-56 -63 -93 -96t-69 -33q-19 0 -39.5 22t-54.5 66q-15 21 -25 33q-8 9 -6 22q1 11 12.5 20t22.5 9q14 0 27 -20q59 -90 76 -90q9 0 39 28.5t72 74.5q11 12 28 12q10 0 16.5 -7
z" />
    <glyph glyph-name="Icircumflex" unicode="&#xce;" horiz-adv-x="438" 
d="M483 677q0 -20 -12 -32t-30 -11q-30 2 -91 4q-29 -162 -56.5 -292t-62.5 -270l112 -1q16 0 22.5 -6.5t6.5 -20.5q0 -20 -11 -32t-31 -12l-303 4q-25 1 -25 28q0 20 12 31.5t28 11.5l114 -2q70 299 116 560l-70 -4q-60 -4 -75 -4q-9 0 -15 7t-6 22q0 19 11 29t28 13
q54 9 159 9q94 0 153 -6q26 -2 26 -26zM413 776q-57 102 -74 102q-8 0 -33.5 -21.5t-74.5 -68.5q-20 -20 -35 -20q-10 0 -17.5 7.5t-7.5 18.5q0 13 14 26q14 10 32 29q48 44 78.5 67.5t50.5 23.5q26 0 46 -23t51 -72l21 -34q6 -8 6 -15q0 -13 -10.5 -23t-23.5 -10
q-16 0 -23 13z" />
    <glyph glyph-name="Idieresis" unicode="&#xcf;" horiz-adv-x="438" 
d="M483 677q0 -20 -12 -32t-30 -11q-30 2 -91 4q-29 -162 -56.5 -292t-62.5 -270l112 -1q16 0 22.5 -6.5t6.5 -20.5q0 -20 -11 -32t-31 -12l-303 4q-25 1 -25 28q0 20 12 31.5t28 11.5l114 -2q70 299 116 560l-70 -4q-60 -4 -75 -4q-9 0 -15 7t-6 22q0 19 11 29t28 13
q54 9 159 9q94 0 153 -6q26 -2 26 -26zM166.5 788.5q-12.5 12.5 -12.5 32.5q0 26 19 44t45 18q20 0 33.5 -12.5t13.5 -31.5q0 -25 -20 -44t-45 -19q-21 0 -33.5 12.5zM406.5 788.5q-12.5 12.5 -12.5 32.5q0 26 19 44t45 18q20 0 33 -12t13 -31q0 -25 -19.5 -44.5
t-44.5 -19.5q-21 0 -33.5 12.5z" />
    <glyph glyph-name="Idotaccent" unicode="&#x130;" horiz-adv-x="438" 
d="M483 677q0 -20 -12 -32t-30 -11q-30 2 -91 4q-29 -162 -56.5 -292t-62.5 -270l112 -1q16 0 22.5 -6.5t6.5 -20.5q0 -20 -11 -32t-31 -12l-303 4q-25 1 -25 28q0 20 12 31.5t28 11.5l114 -2q70 299 116 560l-70 -4q-60 -4 -75 -4q-9 0 -15 7t-6 22q0 19 11 29t28 13
q54 9 159 9q94 0 153 -6q26 -2 26 -26zM285.5 788.5q-12.5 12.5 -12.5 32.5q0 25 19 43.5t45 18.5q20 0 33 -12t13 -31q0 -26 -19 -45t-45 -19q-21 0 -33.5 12.5z" />
    <glyph glyph-name="uni1ECA" unicode="&#x1eca;" horiz-adv-x="438" 
d="M483 677q0 -20 -12 -32t-30 -11q-30 2 -91 4q-29 -162 -56.5 -292t-62.5 -270l112 -1q16 0 22.5 -6.5t6.5 -20.5q0 -20 -11 -32t-31 -12l-303 4q-25 1 -25 28q0 20 12 31.5t28 11.5l114 -2q70 299 116 560l-70 -4q-60 -4 -75 -4q-9 0 -15 7t-6 22q0 19 11 29t28 13
q54 9 159 9q94 0 153 -6q26 -2 26 -26zM116.5 -166.5q-12.5 12.5 -12.5 32.5q0 25 19 43.5t45 18.5q20 0 33 -12t13 -31q0 -26 -19 -45t-45 -19q-21 0 -33.5 12.5z" />
    <glyph glyph-name="Igrave" unicode="&#xcc;" horiz-adv-x="438" 
d="M483 677q0 -20 -12 -32t-30 -11q-30 2 -91 4q-29 -162 -56.5 -292t-62.5 -270l112 -1q16 0 22.5 -6.5t6.5 -20.5q0 -20 -11 -32t-31 -12l-303 4q-25 1 -25 28q0 20 12 31.5t28 11.5l114 -2q70 299 116 560l-70 -4q-60 -4 -75 -4q-9 0 -15 7t-6 22q0 19 11 29t28 13
q54 9 159 9q94 0 153 -6q26 -2 26 -26zM353 760.5q-6 3.5 -13 12.5l-64 86q-11 17 -11 27q0 15 10.5 25.5t23.5 10.5q17 0 33 -24l58 -85q10 -13 10 -24q0 -13 -10 -22.5t-23 -9.5q-8 0 -14 3.5z" />
    <glyph glyph-name="uni1EC8" unicode="&#x1ec8;" horiz-adv-x="438" 
d="M483 677q0 -20 -12 -32t-30 -11q-30 2 -91 4q-29 -162 -56.5 -292t-62.5 -270l112 -1q16 0 22.5 -6.5t6.5 -20.5q0 -20 -11 -32t-31 -12l-303 4q-25 1 -25 28q0 20 12 31.5t28 11.5l114 -2q70 299 116 560l-70 -4q-60 -4 -75 -4q-9 0 -15 7t-6 22q0 19 11 29t28 13
q54 9 159 9q94 0 153 -6q26 -2 26 -26zM299.5 768.5q-7.5 9.5 -5.5 22.5q1 7 8 38q3 11 14 22t30 24q21 15 31.5 25t12.5 22q3 18 -10 29t-39 11q-41 0 -73 -42q-11 -15 -23 -15q-9 0 -17 6t-8 14q0 11 10 24q23 31 51 48t70 17q45 0 74 -22t29 -56q0 -31 -17 -50t-45 -36
q-10 -6 -18 -13t-9 -12l-5 -32q-3 -16 -14 -25t-25 -9t-21.5 9.5z" />
    <glyph glyph-name="Imacron" unicode="&#x12a;" horiz-adv-x="438" 
d="M483 677q0 -20 -12 -32t-30 -11q-30 2 -91 4q-29 -162 -56.5 -292t-62.5 -270l112 -1q16 0 22.5 -6.5t6.5 -20.5q0 -20 -11 -32t-31 -12l-303 4q-25 1 -25 28q0 20 12 31.5t28 11.5l114 -2q70 299 116 560l-70 -4q-60 -4 -75 -4q-9 0 -15 7t-6 22q0 19 11 29t28 13
q54 9 159 9q94 0 153 -6q26 -2 26 -26zM137 790q-5 6 -5 16q0 15 9 26t25 13q5 1 43.5 7.5t123.5 6.5h148q15 0 23 -9t5 -24q-6 -28 -37 -28q-18 0 -32 1l-109 1q-67 0 -146 -12q-32 -4 -34 -4q-9 0 -14 6z" />
    <glyph glyph-name="Iogonek" unicode="&#x12e;" horiz-adv-x="438" 
d="M483 677q0 -20 -12 -32t-30 -11q-30 2 -91 4q-29 -162 -56.5 -292t-62.5 -270l112 -1q16 0 22.5 -6.5t6.5 -20.5q0 -27 -20 -39q-34 -24 -51 -43.5t-17 -42.5q0 -25 37 -25q7 0 19.5 3.5t15.5 3.5q6 0 10 -4.5t4 -11.5q0 -21 -14.5 -31.5t-40.5 -10.5q-38 0 -64.5 21.5
t-26.5 54.5q0 24 10.5 43.5t31.5 38.5l-239 3q-25 1 -25 28q0 20 12 31.5t28 11.5l114 -2q70 299 116 560l-70 -4q-60 -4 -75 -4q-9 0 -15 7t-6 22q0 19 11 29t28 13q54 9 159 9q94 0 153 -6q26 -2 26 -26z" />
    <glyph glyph-name="Itilde" unicode="&#x128;" horiz-adv-x="438" 
d="M483 677q0 -20 -12 -32t-30 -11q-30 2 -91 4q-29 -162 -56.5 -292t-62.5 -270l112 -1q16 0 22.5 -6.5t6.5 -20.5q0 -20 -11 -32t-31 -12l-303 4q-25 1 -25 28q0 20 12 31.5t28 11.5l114 -2q70 299 116 560l-70 -4q-60 -4 -75 -4q-9 0 -15 7t-6 22q0 19 11 29t28 13
q54 9 159 9q94 0 153 -6q26 -2 26 -26zM167 772.5q-6 6.5 -6 18.5q0 13 12 25q29 29 50 41t47 12q46 0 84 -22q6 -3 17.5 -9.5t19 -9.5t14.5 -3q13 0 32 17q16 15 28 15q10 0 17 -8t7 -19q0 -14 -11 -25q-25 -20 -45 -29.5t-40 -9.5q-23 0 -55 18l-20 10q-5 2 -23 10.5
t-31 8.5q-10 0 -19.5 -7t-27.5 -24q-19 -16 -33 -16q-11 0 -17 6.5z" />
    <glyph glyph-name="J" unicode="J" horiz-adv-x="549" 
d="M615 675q0 -44 -44 -44h-51q-30 -159 -69 -373q-44 -258 -249 -258q-88 0 -137 49t-49 137q0 35 7 69q4 24 14 32.5t33 8.5q34 0 34 -29q0 -7 -1 -11q-8 -42 -8 -72q0 -113 102 -113q65 0 111.5 46.5t63.5 145.5q32 172 65 337l6 30q-27 -1 -70 -1q-15 0 -24 7t-9 20
q0 19 10.5 29.5t22.5 11.5q48 4 151 4q45 0 64 -1q27 -3 27 -25z" />
    <glyph glyph-name="Jcircumflex" unicode="&#x134;" horiz-adv-x="549" 
d="M615 675q0 -44 -44 -44h-51q-30 -159 -69 -373q-44 -258 -249 -258q-88 0 -137 49t-49 137q0 35 7 69q4 24 14 32.5t33 8.5q34 0 34 -29q0 -7 -1 -11q-8 -42 -8 -72q0 -113 102 -113q65 0 111.5 46.5t63.5 145.5q32 172 65 337l6 30q-27 -1 -70 -1q-15 0 -24 7t-9 20
q0 19 10.5 29.5t22.5 11.5q48 4 151 4q45 0 64 -1q27 -3 27 -25zM594 776q-57 102 -74 102q-8 0 -33.5 -21.5t-74.5 -68.5q-20 -20 -35 -20q-10 0 -17.5 7.5t-7.5 18.5q0 13 14 26q14 10 32 29q48 44 78.5 67.5t50.5 23.5q26 0 46 -23t51 -72l21 -34q6 -8 6 -15
q0 -13 -10.5 -23t-23.5 -10q-16 0 -23 13z" />
    <glyph glyph-name="K" unicode="K" horiz-adv-x="607" 
d="M654.5 685q9.5 -9 9.5 -22q0 -21 -19 -34q-97 -63 -226 -139q-54 -33 -138 -80l-69 -40l35 -39q57 -64 106 -112q47 -47 79.5 -75.5t90.5 -76.5q10 -9 10 -23q0 -19 -14 -32t-30 -13q-11 0 -21 7q-33 24 -64 53t-74 73l-30 30q-73 72 -131 144q-23 -118 -51 -269
q-3 -18 -15.5 -27.5t-30.5 -9.5q-16 0 -24.5 8t-6.5 23q12 70 37 198l28 151l22 129q8 52 26 156q3 15 15.5 24.5t29.5 9.5q18 0 26.5 -10.5t5.5 -26.5q-5 -26 -8.5 -48.5t-6.5 -42.5q-11 -70 -24 -141q42 24 124 74l65 39q104 62 225 143q11 8 25 8t23.5 -9z" />
    <glyph glyph-name="uni0136" unicode="&#x136;" horiz-adv-x="607" 
d="M654.5 685q9.5 -9 9.5 -22q0 -21 -19 -34q-97 -63 -226 -139q-54 -33 -138 -80l-69 -40l35 -39q57 -64 106 -112q47 -47 79.5 -75.5t90.5 -76.5q10 -9 10 -23q0 -19 -14 -32t-30 -13q-11 0 -21 7q-33 24 -64 53t-74 73l-30 30q-73 72 -131 144q-23 -118 -51 -269
q-3 -18 -15.5 -27.5t-30.5 -9.5q-16 0 -24.5 8t-6.5 23q12 70 37 198l28 151l22 129q8 52 26 156q3 15 15.5 24.5t29.5 9.5q18 0 26.5 -10.5t5.5 -26.5q-5 -26 -8.5 -48.5t-6.5 -42.5q-11 -70 -24 -141q42 24 124 74l65 39q104 62 225 143q11 8 25 8t23.5 -9zM286 -86
q14 -14 14 -34q0 -36 -33.5 -78t-78.5 -73q-8 -7 -18 -7q-8 0 -15 6t-7 15t6 15l19 18q34 32 44 44q-15 2 -25.5 13.5t-10.5 27.5q0 27 21.5 47t48.5 20q21 0 35 -14z" />
    <glyph glyph-name="L" unicode="L" horiz-adv-x="526" 
d="M114 12.5q-37 13.5 -53 43t-16 78.5q0 140 135 538q5 14 17.5 22.5t29.5 8.5q12 0 21.5 -5.5t9.5 -16.5q0 -2 -2 -10l-10 -30q-60 -175 -92.5 -293.5t-32.5 -213.5q0 -29 7.5 -43t27.5 -18.5t62 -4.5q48 0 86 5t96 15l35 6l8 1q14 0 21 -7.5t7 -19.5q0 -38 -49 -47
q-71 -12 -113 -17t-92 -5q-66 0 -103 13.5z" />
    <glyph glyph-name="Lacute" unicode="&#x139;" horiz-adv-x="526" 
d="M114 12.5q-37 13.5 -53 43t-16 78.5q0 140 135 538q5 14 17.5 22.5t29.5 8.5q12 0 21.5 -5.5t9.5 -16.5q0 -2 -2 -10l-10 -30q-60 -175 -92.5 -293.5t-32.5 -213.5q0 -29 7.5 -43t27.5 -18.5t62 -4.5q48 0 86 5t96 15l35 6l8 1q14 0 21 -7.5t7 -19.5q0 -38 -49 -47
q-71 -12 -113 -17t-92 -5q-66 0 -103 13.5zM191 758.5q-7 6.5 -7 16.5q0 8 6 17.5t16 18.5l92 81q15 14 24.5 19.5t18.5 5.5q11 0 18.5 -7.5t7.5 -18.5q0 -21 -25 -41l-99 -81q-20 -17 -35 -17q-10 0 -17 6.5z" />
    <glyph glyph-name="Lcaron" unicode="&#x13d;" horiz-adv-x="526" 
d="M114 12.5q-37 13.5 -53 43t-16 78.5q0 140 135 538q5 14 17.5 22.5t29.5 8.5q12 0 21.5 -5.5t9.5 -16.5q0 -2 -2 -10l-10 -30q-60 -175 -92.5 -293.5t-32.5 -213.5q0 -29 7.5 -43t27.5 -18.5t62 -4.5q48 0 86 5t96 15l35 6l8 1q14 0 21 -7.5t7 -19.5q0 -38 -49 -47
q-71 -12 -113 -17t-92 -5q-66 0 -103 13.5zM522.5 700q13.5 -14 13.5 -34q0 -64 -111 -151q-2 -1 -5.5 -4t-8.5 -3q-11 0 -18 7.5t-7 16.5q0 6 3.5 9.5t4.5 5.5q2 2 24.5 20t36.5 38q-15 0 -26 12.5t-11 29.5q0 27 21.5 47t48.5 20q21 0 34.5 -14z" />
    <glyph glyph-name="uni013B" unicode="&#x13b;" horiz-adv-x="526" 
d="M114 12.5q-37 13.5 -53 43t-16 78.5q0 140 135 538q5 14 17.5 22.5t29.5 8.5q12 0 21.5 -5.5t9.5 -16.5q0 -2 -2 -10l-10 -30q-60 -175 -92.5 -293.5t-32.5 -213.5q0 -29 7.5 -43t27.5 -18.5t62 -4.5q48 0 86 5t96 15l35 6l8 1q14 0 21 -7.5t7 -19.5q0 -38 -49 -47
q-71 -12 -113 -17t-92 -5q-66 0 -103 13.5zM246 -86q14 -14 14 -34q0 -36 -33.5 -78t-78.5 -73q-8 -7 -18 -7q-8 0 -15 6t-7 15t6 15l19 18q34 32 44 44q-15 2 -25.5 13.5t-10.5 27.5q0 27 21.5 47t48.5 20q21 0 35 -14z" />
    <glyph glyph-name="Ldot" unicode="&#x13f;" horiz-adv-x="526" 
d="M114 12.5q-37 13.5 -53 43t-16 78.5q0 140 135 538q5 14 17.5 22.5t29.5 8.5q12 0 21.5 -5.5t9.5 -16.5q0 -2 -2 -10l-10 -30q-60 -175 -92.5 -293.5t-32.5 -213.5q0 -29 7.5 -43t27.5 -18.5t62 -4.5q48 0 86 5t96 15l35 6l8 1q14 0 21 -7.5t7 -19.5q0 -38 -49 -47
q-71 -12 -113 -17t-92 -5q-66 0 -103 13.5zM268.5 281q-18.5 18 -18.5 47q0 42 26.5 68t69.5 26q30 0 48 -18t18 -48q0 -42 -26 -67.5t-68 -25.5q-31 0 -49.5 18z" />
    <glyph glyph-name="uni1E36" unicode="&#x1e36;" horiz-adv-x="526" 
d="M114 12.5q-37 13.5 -53 43t-16 78.5q0 140 135 538q5 14 17.5 22.5t29.5 8.5q12 0 21.5 -5.5t9.5 -16.5q0 -2 -2 -10l-10 -30q-60 -175 -92.5 -293.5t-32.5 -213.5q0 -29 7.5 -43t27.5 -18.5t62 -4.5q48 0 86 5t96 15l35 6l8 1q14 0 21 -7.5t7 -19.5q0 -38 -49 -47
q-71 -12 -113 -17t-92 -5q-66 0 -103 13.5zM154.5 -166.5q-12.5 12.5 -12.5 32.5q0 25 19 43.5t45 18.5q20 0 33 -12t13 -31q0 -26 -19 -45t-45 -19q-21 0 -33.5 12.5z" />
    <glyph glyph-name="uni1E38" unicode="&#x1e38;" horiz-adv-x="526" 
d="M114 12.5q-37 13.5 -53 43t-16 78.5q0 140 135 538q5 14 17.5 22.5t29.5 8.5q12 0 21.5 -5.5t9.5 -16.5q0 -2 -2 -10l-10 -30q-60 -175 -92.5 -293.5t-32.5 -213.5q0 -29 7.5 -43t27.5 -18.5t62 -4.5q48 0 86 5t96 15l35 6l8 1q14 0 21 -7.5t7 -19.5q0 -38 -49 -47
q-71 -12 -113 -17t-92 -5q-66 0 -103 13.5zM154.5 -166.5q-12.5 12.5 -12.5 32.5q0 25 19 43.5t45 18.5q20 0 33 -12t13 -31q0 -26 -19 -45t-45 -19q-21 0 -33.5 12.5zM70 790q-5 6 -5 16q0 15 9 26t25 13q5 1 43.5 7.5t123.5 6.5h148q15 0 23 -9t5 -24q-6 -28 -37 -28
q-18 0 -32 1l-109 1q-67 0 -146 -12q-32 -4 -34 -4q-9 0 -14 6z" />
    <glyph glyph-name="uni1E3A" unicode="&#x1e3a;" horiz-adv-x="526" 
d="M114 12.5q-37 13.5 -53 43t-16 78.5q0 140 135 538q5 14 17.5 22.5t29.5 8.5q12 0 21.5 -5.5t9.5 -16.5q0 -2 -2 -10l-10 -30q-60 -175 -92.5 -293.5t-32.5 -213.5q0 -29 7.5 -43t27.5 -18.5t62 -4.5q48 0 86 5t96 15l35 6l8 1q14 0 21 -7.5t7 -19.5q0 -38 -49 -47
q-71 -12 -113 -17t-92 -5q-66 0 -103 13.5zM42 -157q-6 6 -6 17q0 15 8.5 25.5t21.5 12.5q75 9 184 9q35 0 73 -2q12 -1 29 -1q13 0 20.5 -7t7.5 -18q0 -16 -11 -25.5t-27 -9.5l-26 1q-57 3 -78 3q-50 0 -143 -8q-25 -3 -38 -3q-9 0 -15 6z" />
    <glyph glyph-name="Lslash" unicode="&#x141;" horiz-adv-x="526" 
d="M443 95q14 0 21 -7.5t7 -19.5q0 -38 -49 -47q-71 -12 -113 -17t-92 -5q-66 0 -103 13.5t-53 43t-16 78.5q0 52 15 121q-12 -3 -21 -3q-17 0 -23 9t-6 17q0 21 32 44l39 28q37 139 99 322q5 14 17.5 22.5t29.5 8.5q12 0 21.5 -5.5t9.5 -16.5q0 -2 -2 -10
q-57 -165 -84 -258l148 104q15 9 29 9q19 0 26 -12q4 -7 4 -16q0 -11 -7.5 -23t-21.5 -22l-206 -145q-23 -103 -23 -174q0 -29 7.5 -43t27.5 -18.5t62 -4.5q48 0 86 5t96 15l35 6z" />
    <glyph glyph-name="M" unicode="M" horiz-adv-x="797" 
d="M740 679.5q15 -32.5 15 -97.5q0 -148 -76 -550q-3 -17 -14 -27.5t-30 -10.5q-18 0 -27.5 10.5t-6.5 26.5q42 222 63 349.5t21 187.5q0 54 -17 54q-18 0 -51.5 -43t-64.5 -94q-27 -44 -47 -86.5t-51 -116.5q-12 -30 -49 -30q-17 0 -26.5 6.5t-11.5 21.5q-6 40 -9 73
q-9 77 -20 127q-13 56 -30 100t-33 44q-22 0 -49.5 -86.5t-52.5 -210.5q-38 -191 -54 -296q-5 -32 -45 -32q-32 0 -32 29q0 6 1 10q13 81 38 206q4 23 8 44t8 40q37 200 80 292t101 92q67 0 100 -100t40 -241q33 83 79.5 161.5t98 129t95.5 50.5q34 0 49 -32.5z" />
    <glyph glyph-name="uni1E42" unicode="&#x1e42;" horiz-adv-x="797" 
d="M740 679.5q15 -32.5 15 -97.5q0 -148 -76 -550q-3 -17 -14 -27.5t-30 -10.5q-18 0 -27.5 10.5t-6.5 26.5q42 222 63 349.5t21 187.5q0 54 -17 54q-18 0 -51.5 -43t-64.5 -94q-27 -44 -47 -86.5t-51 -116.5q-12 -30 -49 -30q-17 0 -26.5 6.5t-11.5 21.5q-6 40 -9 73
q-9 77 -20 127q-13 56 -30 100t-33 44q-22 0 -49.5 -86.5t-52.5 -210.5q-38 -191 -54 -296q-5 -32 -45 -32q-32 0 -32 29q0 6 1 10q13 81 38 206q4 23 8 44t8 40q37 200 80 292t101 92q67 0 100 -100t40 -241q33 83 79.5 161.5t98 129t95.5 50.5q34 0 49 -32.5z
M296.5 -166.5q-12.5 12.5 -12.5 32.5q0 25 19 43.5t45 18.5q20 0 33 -12t13 -31q0 -26 -19 -45t-45 -19q-21 0 -33.5 12.5z" />
    <glyph glyph-name="N" unicode="N" horiz-adv-x="738" 
d="M728 701q8 -12 5 -28q-26 -157 -56 -313l-12 -64q-20 -112 -38.5 -173.5t-37 -86t-43.5 -24.5q-30 0 -57.5 31.5t-58 92t-86.5 183.5q-53 118 -80.5 176.5t-47.5 92.5q-15 -80 -31 -185l-9 -58q-33 -208 -53 -303q-2 -12 -14.5 -22t-28.5 -10q-17 0 -27 9.5t-8 22.5l8 43
l46 261q12 65 28 170q8 40 22 127q6 31 18.5 47t36.5 16q28 0 50.5 -23.5t45 -68.5t67.5 -144q9 -21 17 -38.5t14 -31.5q87 -192 146 -293q9 29 18 71.5t12 58.5q6 33 15 72q16 76 66 369q3 17 15 26t30 9q20 0 28 -12z" />
    <glyph glyph-name="Nacute" unicode="&#x143;" horiz-adv-x="738" 
d="M728 701q8 -12 5 -28q-26 -157 -56 -313l-12 -64q-20 -112 -38.5 -173.5t-37 -86t-43.5 -24.5q-30 0 -57.5 31.5t-58 92t-86.5 183.5q-53 118 -80.5 176.5t-47.5 92.5q-15 -80 -31 -185l-9 -58q-33 -208 -53 -303q-2 -12 -14.5 -22t-28.5 -10q-17 0 -27 9.5t-8 22.5l8 43
l46 261q12 65 28 170q8 40 22 127q6 31 18.5 47t36.5 16q28 0 50.5 -23.5t45 -68.5t67.5 -144q9 -21 17 -38.5t14 -31.5q87 -192 146 -293q9 29 18 71.5t12 58.5q6 33 15 72q16 76 66 369q3 17 15 26t30 9q20 0 28 -12zM408 758.5q-7 6.5 -7 16.5q0 8 6 17.5t16 18.5l92 81
q15 14 24.5 19.5t18.5 5.5q11 0 18.5 -7.5t7.5 -18.5q0 -21 -25 -41l-99 -81q-20 -17 -35 -17q-10 0 -17 6.5z" />
    <glyph glyph-name="Ncaron" unicode="&#x147;" horiz-adv-x="738" 
d="M728 701q8 -12 5 -28q-26 -157 -56 -313l-12 -64q-20 -112 -38.5 -173.5t-37 -86t-43.5 -24.5q-30 0 -57.5 31.5t-58 92t-86.5 183.5q-53 118 -80.5 176.5t-47.5 92.5q-15 -80 -31 -185l-9 -58q-33 -208 -53 -303q-2 -12 -14.5 -22t-28.5 -10q-17 0 -27 9.5t-8 22.5l8 43
l46 261q12 65 28 170q8 40 22 127q6 31 18.5 47t36.5 16q28 0 50.5 -23.5t45 -68.5t67.5 -144q9 -21 17 -38.5t14 -31.5q87 -192 146 -293q9 29 18 71.5t12 58.5q6 33 15 72q16 76 66 369q3 17 15 26t30 9q20 0 28 -12zM629.5 936q6.5 -7 6.5 -17q0 -6 -3 -11.5t-6 -8
t-4 -4.5q-56 -63 -93 -96t-69 -33q-19 0 -39.5 22t-54.5 66q-15 21 -25 33q-8 9 -6 22q1 11 12.5 20t22.5 9q14 0 27 -20q59 -90 76 -90q9 0 39 28.5t72 74.5q11 12 28 12q10 0 16.5 -7z" />
    <glyph glyph-name="uni0145" unicode="&#x145;" horiz-adv-x="738" 
d="M728 701q8 -12 5 -28q-26 -157 -56 -313l-12 -64q-20 -112 -38.5 -173.5t-37 -86t-43.5 -24.5q-30 0 -57.5 31.5t-58 92t-86.5 183.5q-53 118 -80.5 176.5t-47.5 92.5q-15 -80 -31 -185l-9 -58q-33 -208 -53 -303q-2 -12 -14.5 -22t-28.5 -10q-17 0 -27 9.5t-8 22.5l8 43
l46 261q12 65 28 170q8 40 22 127q6 31 18.5 47t36.5 16q28 0 50.5 -23.5t45 -68.5t67.5 -144q9 -21 17 -38.5t14 -31.5q87 -192 146 -293q9 29 18 71.5t12 58.5q6 33 15 72q16 76 66 369q3 17 15 26t30 9q20 0 28 -12zM358 -86q14 -14 14 -34q0 -36 -33.5 -78t-78.5 -73
q-8 -7 -18 -7q-8 0 -15 6t-7 15t6 15l19 18q34 32 44 44q-15 2 -25.5 13.5t-10.5 27.5q0 27 21.5 47t48.5 20q21 0 35 -14z" />
    <glyph glyph-name="uni1E44" unicode="&#x1e44;" horiz-adv-x="738" 
d="M728 701q8 -12 5 -28q-26 -157 -56 -313l-12 -64q-20 -112 -38.5 -173.5t-37 -86t-43.5 -24.5q-30 0 -57.5 31.5t-58 92t-86.5 183.5q-53 118 -80.5 176.5t-47.5 92.5q-15 -80 -31 -185l-9 -58q-33 -208 -53 -303q-2 -12 -14.5 -22t-28.5 -10q-17 0 -27 9.5t-8 22.5l8 43
l46 261q12 65 28 170q8 40 22 127q6 31 18.5 47t36.5 16q28 0 50.5 -23.5t45 -68.5t67.5 -144q9 -21 17 -38.5t14 -31.5q87 -192 146 -293q9 29 18 71.5t12 58.5q6 33 15 72q16 76 66 369q3 17 15 26t30 9q20 0 28 -12zM435.5 788.5q-12.5 12.5 -12.5 32.5q0 25 19 43.5
t45 18.5q20 0 33 -12t13 -31q0 -26 -19 -45t-45 -19q-21 0 -33.5 12.5z" />
    <glyph glyph-name="uni1E46" unicode="&#x1e46;" horiz-adv-x="738" 
d="M728 701q8 -12 5 -28q-26 -157 -56 -313l-12 -64q-20 -112 -38.5 -173.5t-37 -86t-43.5 -24.5q-30 0 -57.5 31.5t-58 92t-86.5 183.5q-53 118 -80.5 176.5t-47.5 92.5q-15 -80 -31 -185l-9 -58q-33 -208 -53 -303q-2 -12 -14.5 -22t-28.5 -10q-17 0 -27 9.5t-8 22.5l8 43
l46 261q12 65 28 170q8 40 22 127q6 31 18.5 47t36.5 16q28 0 50.5 -23.5t45 -68.5t67.5 -144q9 -21 17 -38.5t14 -31.5q87 -192 146 -293q9 29 18 71.5t12 58.5q6 33 15 72q16 76 66 369q3 17 15 26t30 9q20 0 28 -12zM266.5 -166.5q-12.5 12.5 -12.5 32.5q0 25 19 43.5
t45 18.5q20 0 33 -12t13 -31q0 -26 -19 -45t-45 -19q-21 0 -33.5 12.5z" />
    <glyph glyph-name="Eng" unicode="&#x14a;" horiz-adv-x="738" 
d="M728 701q8 -12 5 -28q-26 -157 -56 -313l-12 -64q-8 -44 -18 -90l-38 -209q-23 -123 -82.5 -183.5t-136.5 -60.5q-55 0 -90 30t-35 82q0 19 4 31q10 31 45 31q36 0 31 -33q-2 -12 -2 -22q0 -28 17.5 -41t42.5 -13q47 0 75.5 45.5t46.5 133.5l4 18q-26 8 -51.5 42.5
t-54.5 92.5t-79 169q-53 118 -80.5 176.5t-47.5 92.5q-15 -80 -31 -185l-9 -58q-33 -208 -53 -303q-2 -12 -14.5 -22t-28.5 -10q-17 0 -27 9.5t-8 22.5l8 43l46 261q12 65 28 170q8 40 22 127q6 31 18.5 47t36.5 16q28 0 50.5 -23.5t45 -68.5t67.5 -144q9 -21 17 -38.5
t14 -31.5q87 -192 146 -293q7 25 21 89l40 196q22 117 50 286q3 17 15 26t30 9q20 0 28 -12z" />
    <glyph glyph-name="uni1E48" unicode="&#x1e48;" horiz-adv-x="738" 
d="M728 701q8 -12 5 -28q-26 -157 -56 -313l-12 -64q-20 -112 -38.5 -173.5t-37 -86t-43.5 -24.5q-30 0 -57.5 31.5t-58 92t-86.5 183.5q-53 118 -80.5 176.5t-47.5 92.5q-15 -80 -31 -185l-9 -58q-33 -208 -53 -303q-2 -12 -14.5 -22t-28.5 -10q-17 0 -27 9.5t-8 22.5l8 43
l46 261q12 65 28 170q8 40 22 127q6 31 18.5 47t36.5 16q28 0 50.5 -23.5t45 -68.5t67.5 -144q9 -21 17 -38.5t14 -31.5q87 -192 146 -293q9 29 18 71.5t12 58.5q6 33 15 72q16 76 66 369q3 17 15 26t30 9q20 0 28 -12zM154 -157q-6 6 -6 17q0 15 8.5 25.5t21.5 12.5
q75 9 184 9q35 0 73 -2q12 -1 29 -1q13 0 20.5 -7t7.5 -18q0 -16 -11 -25.5t-27 -9.5l-26 1q-57 3 -78 3q-50 0 -143 -8q-25 -3 -38 -3q-9 0 -15 6z" />
    <glyph glyph-name="Ntilde" unicode="&#xd1;" horiz-adv-x="738" 
d="M728 701q8 -12 5 -28q-26 -157 -56 -313l-12 -64q-20 -112 -38.5 -173.5t-37 -86t-43.5 -24.5q-30 0 -57.5 31.5t-58 92t-86.5 183.5q-53 118 -80.5 176.5t-47.5 92.5q-15 -80 -31 -185l-9 -58q-33 -208 -53 -303q-2 -12 -14.5 -22t-28.5 -10q-17 0 -27 9.5t-8 22.5l8 43
l46 261q12 65 28 170q8 40 22 127q6 31 18.5 47t36.5 16q28 0 50.5 -23.5t45 -68.5t67.5 -144q9 -21 17 -38.5t14 -31.5q87 -192 146 -293q9 29 18 71.5t12 58.5q6 33 15 72q16 76 66 369q3 17 15 26t30 9q20 0 28 -12zM317 772.5q-6 6.5 -6 18.5q0 13 12 25q29 29 50 41
t47 12q46 0 84 -22q6 -3 17.5 -9.5t19 -9.5t14.5 -3q13 0 32 17q16 15 28 15q10 0 17 -8t7 -19q0 -14 -11 -25q-25 -20 -45 -29.5t-40 -9.5q-23 0 -55 18l-20 10q-5 2 -23 10.5t-31 8.5q-10 0 -19.5 -7t-27.5 -24q-19 -16 -33 -16q-11 0 -17 6.5z" />
    <glyph glyph-name="O" unicode="O" horiz-adv-x="792" 
d="M211 40q-67 32 -106.5 94t-39.5 148q0 115 50.5 212.5t139.5 155t199 57.5q90 0 160 -39t109.5 -108t39.5 -156q0 -115 -51.5 -205t-144 -140.5t-209.5 -50.5q-80 0 -147 32zM529 121.5q73 42.5 114.5 116.5t41.5 166q0 69 -28 121.5t-79.5 81.5t-119.5 29
q-89 0 -161 -49t-113 -130t-41 -172q0 -73 32 -119t82.5 -66.5t108.5 -20.5q90 0 163 42.5z" />
    <glyph glyph-name="Oacute" unicode="&#xd3;" horiz-adv-x="792" 
d="M211 40q-67 32 -106.5 94t-39.5 148q0 115 50.5 212.5t139.5 155t199 57.5q90 0 160 -39t109.5 -108t39.5 -156q0 -115 -51.5 -205t-144 -140.5t-209.5 -50.5q-80 0 -147 32zM529 121.5q73 42.5 114.5 116.5t41.5 166q0 69 -28 121.5t-79.5 81.5t-119.5 29
q-89 0 -161 -49t-113 -130t-41 -172q0 -73 32 -119t82.5 -66.5t108.5 -20.5q90 0 163 42.5zM427 758.5q-7 6.5 -7 16.5q0 8 6 17.5t16 18.5l92 81q15 14 24.5 19.5t18.5 5.5q11 0 18.5 -7.5t7.5 -18.5q0 -21 -25 -41l-99 -81q-20 -17 -35 -17q-10 0 -17 6.5z" />
    <glyph glyph-name="Obreve" unicode="&#x14e;" horiz-adv-x="792" 
d="M211 40q-67 32 -106.5 94t-39.5 148q0 115 50.5 212.5t139.5 155t199 57.5q90 0 160 -39t109.5 -108t39.5 -156q0 -115 -51.5 -205t-144 -140.5t-209.5 -50.5q-80 0 -147 32zM529 121.5q73 42.5 114.5 116.5t41.5 166q0 69 -28 121.5t-79.5 81.5t-119.5 29
q-89 0 -161 -49t-113 -130t-41 -172q0 -73 32 -119t82.5 -66.5t108.5 -20.5q90 0 163 42.5zM418.5 781q-32.5 15 -50.5 41t-18 56q0 7 2 17q4 14 12.5 22t20.5 8q11 0 19 -4.5t7 -14.5q-1 -5 -1 -14q1 -34 25 -53.5t61 -19.5t69 24.5t39 59.5q2 12 12.5 18.5t22.5 6.5t19 -8
t5 -20q-6 -35 -31 -66t-62 -49.5t-78 -18.5t-73.5 15z" />
    <glyph glyph-name="uni01D1" unicode="&#x1d1;" horiz-adv-x="792" 
d="M211 40q-67 32 -106.5 94t-39.5 148q0 115 50.5 212.5t139.5 155t199 57.5q90 0 160 -39t109.5 -108t39.5 -156q0 -115 -51.5 -205t-144 -140.5t-209.5 -50.5q-80 0 -147 32zM529 121.5q73 42.5 114.5 116.5t41.5 166q0 69 -28 121.5t-79.5 81.5t-119.5 29
q-89 0 -161 -49t-113 -130t-41 -172q0 -73 32 -119t82.5 -66.5t108.5 -20.5q90 0 163 42.5zM648.5 936q6.5 -7 6.5 -17q0 -6 -3 -11.5t-6 -8t-4 -4.5q-56 -63 -93 -96t-69 -33q-19 0 -39.5 22t-54.5 66q-15 21 -25 33q-8 9 -6 22q1 11 12.5 20t22.5 9q14 0 27 -20
q59 -90 76 -90q9 0 39 28.5t72 74.5q11 12 28 12q10 0 16.5 -7z" />
    <glyph glyph-name="Ocircumflex" unicode="&#xd4;" horiz-adv-x="792" 
d="M211 40q-67 32 -106.5 94t-39.5 148q0 115 50.5 212.5t139.5 155t199 57.5q90 0 160 -39t109.5 -108t39.5 -156q0 -115 -51.5 -205t-144 -140.5t-209.5 -50.5q-80 0 -147 32zM529 121.5q73 42.5 114.5 116.5t41.5 166q0 69 -28 121.5t-79.5 81.5t-119.5 29
q-89 0 -161 -49t-113 -130t-41 -172q0 -73 32 -119t82.5 -66.5t108.5 -20.5q90 0 163 42.5zM582 776q-57 102 -74 102q-8 0 -33.5 -21.5t-74.5 -68.5q-20 -20 -35 -20q-10 0 -17.5 7.5t-7.5 18.5q0 13 14 26q14 10 32 29q48 44 78.5 67.5t50.5 23.5q26 0 46 -23t51 -72
l21 -34q6 -8 6 -15q0 -13 -10.5 -23t-23.5 -10q-16 0 -23 13z" />
    <glyph glyph-name="uni1ED0" unicode="&#x1ed0;" horiz-adv-x="792" 
d="M211 40q-67 32 -106.5 94t-39.5 148q0 115 50.5 212.5t139.5 155t199 57.5q90 0 160 -39t109.5 -108t39.5 -156q0 -115 -51.5 -205t-144 -140.5t-209.5 -50.5q-80 0 -147 32zM529 121.5q73 42.5 114.5 116.5t41.5 166q0 69 -28 121.5t-79.5 81.5t-119.5 29
q-89 0 -161 -49t-113 -130t-41 -172q0 -73 32 -119t82.5 -66.5t108.5 -20.5q90 0 163 42.5zM620.5 911q-6.5 6 -6.5 16q0 15 19 34l58 51q13 12 22 17.5t18 5.5q11 0 18 -7t7 -18t-6 -19.5t-17 -17.5l-64 -53q-17 -15 -32 -15q-10 0 -16.5 6zM583 777q-57 102 -74 102
q-8 0 -33.5 -21.5t-74.5 -68.5q-20 -20 -35 -20q-10 0 -17.5 7.5t-7.5 18.5q0 13 14 26q13 11 32 29q48 44 78.5 67.5t50.5 23.5q26 0 46 -23t51 -72l21 -34q6 -8 6 -15q0 -13 -10.5 -23t-23.5 -10q-17 0 -23 13z" />
    <glyph glyph-name="uni1ED8" unicode="&#x1ed8;" horiz-adv-x="792" 
d="M211 40q-67 32 -106.5 94t-39.5 148q0 115 50.5 212.5t139.5 155t199 57.5q90 0 160 -39t109.5 -108t39.5 -156q0 -115 -51.5 -205t-144 -140.5t-209.5 -50.5q-80 0 -147 32zM529 121.5q73 42.5 114.5 116.5t41.5 166q0 69 -28 121.5t-79.5 81.5t-119.5 29
q-89 0 -161 -49t-113 -130t-41 -172q0 -73 32 -119t82.5 -66.5t108.5 -20.5q90 0 163 42.5zM285.5 -166.5q-12.5 12.5 -12.5 32.5q0 25 19 43.5t45 18.5q20 0 33 -12t13 -31q0 -26 -19 -45t-45 -19q-21 0 -33.5 12.5zM582 776q-57 102 -74 102q-8 0 -33.5 -21.5t-74.5 -68.5
q-20 -20 -35 -20q-10 0 -17.5 7.5t-7.5 18.5q0 13 14 26q14 10 32 29q48 44 78.5 67.5t50.5 23.5q26 0 46 -23t51 -72l21 -34q6 -8 6 -15q0 -13 -10.5 -23t-23.5 -10q-16 0 -23 13z" />
    <glyph glyph-name="uni1ED2" unicode="&#x1ed2;" horiz-adv-x="792" 
d="M211 40q-67 32 -106.5 94t-39.5 148q0 115 50.5 212.5t139.5 155t199 57.5q90 0 160 -39t109.5 -108t39.5 -156q0 -115 -51.5 -205t-144 -140.5t-209.5 -50.5q-80 0 -147 32zM529 121.5q73 42.5 114.5 116.5t41.5 166q0 69 -28 121.5t-79.5 81.5t-119.5 29
q-89 0 -161 -49t-113 -130t-41 -172q0 -73 32 -119t82.5 -66.5t108.5 -20.5q90 0 163 42.5zM650 920l-45 53q-12 14 -12 27q0 14 11 24.5t25 10.5q8 0 14.5 -5t16.5 -18l40 -51q9 -12 9 -23q0 -13 -9.5 -23t-22.5 -10q-14 0 -27 15zM582 777q-57 102 -74 102
q-8 0 -33.5 -21.5t-74.5 -68.5q-20 -20 -35 -20q-10 0 -17.5 7.5t-7.5 18.5q0 13 14 26q14 11 32 29q48 44 78.5 67.5t50.5 23.5q26 0 46 -23t51 -72l21 -34q6 -8 6 -15q0 -13 -10.5 -23t-23.5 -10q-17 0 -23 13z" />
    <glyph glyph-name="uni1ED4" unicode="&#x1ed4;" horiz-adv-x="792" 
d="M211 40q-67 32 -106.5 94t-39.5 148q0 115 50.5 212.5t139.5 155t199 57.5q90 0 160 -39t109.5 -108t39.5 -156q0 -115 -51.5 -205t-144 -140.5t-209.5 -50.5q-80 0 -147 32zM529 121.5q73 42.5 114.5 116.5t41.5 166q0 69 -28 121.5t-79.5 81.5t-119.5 29
q-89 0 -161 -49t-113 -130t-41 -172q0 -73 32 -119t82.5 -66.5t108.5 -20.5q90 0 163 42.5zM653.5 908q-5.5 6 -4.5 15l5 28q1 8 8.5 15t21.5 17q15 11 22.5 18.5t7.5 16.5q0 10 -7 15t-24 5q-16 0 -28 -7t-18 -18q-1 -6 -7 -9.5t-12 -3.5q-16 0 -16 15q0 27 26 45t60 18
q30 0 51 -15t21 -38q0 -24 -10 -36t-28 -21q-8 -4 -14 -8.5t-7 -10.5q-2 -9 -4 -25q-2 -11 -10.5 -16.5t-18.5 -5.5q-9 0 -14.5 6zM582 777q-57 102 -74 102q-8 0 -33.5 -21.5t-74.5 -68.5q-20 -20 -35 -20q-10 0 -17.5 7.5t-7.5 18.5q0 13 14 26q14 11 32 29
q48 44 78.5 67.5t50.5 23.5q26 0 46 -23t51 -72l21 -34q6 -8 6 -15q0 -13 -10.5 -23t-23.5 -10q-17 0 -23 13z" />
    <glyph glyph-name="uni1ED6" unicode="&#x1ed6;" horiz-adv-x="792" 
d="M211 40q-67 32 -106.5 94t-39.5 148q0 115 50.5 212.5t139.5 155t199 57.5q90 0 160 -39t109.5 -108t39.5 -156q0 -115 -51.5 -205t-144 -140.5t-209.5 -50.5q-80 0 -147 32zM529 121.5q73 42.5 114.5 116.5t41.5 166q0 69 -28 121.5t-79.5 81.5t-119.5 29
q-89 0 -161 -49t-113 -130t-41 -172q0 -73 32 -119t82.5 -66.5t108.5 -20.5q90 0 163 42.5zM374.5 977.5q-6.5 5.5 -6.5 15.5q0 13 13 24q29 27 49 38t46 11q20 0 38.5 -5.5t41.5 -16.5q37 -20 53 -20q14 0 35 16q5 3 13.5 9t15.5 6q11 0 17 -7t6 -17q0 -13 -13 -23
q-24 -19 -43.5 -27.5t-39.5 -8.5q-16 0 -29 5t-26 11.5t-20 9.5q-34 17 -54 17q-11 0 -22 -7t-27 -21q-18 -15 -31 -15q-10 0 -16.5 5.5zM582 777q-57 102 -74 102q-8 0 -33.5 -21.5t-74.5 -68.5q-20 -20 -35 -20q-10 0 -17.5 7.5t-7.5 18.5q0 13 14 26q14 11 32 29
q48 44 78.5 67.5t50.5 23.5q26 0 46 -23t51 -72l21 -34q6 -8 6 -15q0 -13 -10.5 -23t-23.5 -10q-17 0 -23 13z" />
    <glyph glyph-name="Odieresis" unicode="&#xd6;" horiz-adv-x="792" 
d="M211 40q-67 32 -106.5 94t-39.5 148q0 115 50.5 212.5t139.5 155t199 57.5q90 0 160 -39t109.5 -108t39.5 -156q0 -115 -51.5 -205t-144 -140.5t-209.5 -50.5q-80 0 -147 32zM529 121.5q73 42.5 114.5 116.5t41.5 166q0 69 -28 121.5t-79.5 81.5t-119.5 29
q-89 0 -161 -49t-113 -130t-41 -172q0 -73 32 -119t82.5 -66.5t108.5 -20.5q90 0 163 42.5zM335.5 788.5q-12.5 12.5 -12.5 32.5q0 26 19 44t45 18q20 0 33.5 -12.5t13.5 -31.5q0 -25 -20 -44t-45 -19q-21 0 -33.5 12.5zM575.5 788.5q-12.5 12.5 -12.5 32.5q0 26 19 44
t45 18q20 0 33 -12t13 -31q0 -25 -19.5 -44.5t-44.5 -19.5q-21 0 -33.5 12.5z" />
    <glyph glyph-name="uni1ECC" unicode="&#x1ecc;" horiz-adv-x="792" 
d="M211 40q-67 32 -106.5 94t-39.5 148q0 115 50.5 212.5t139.5 155t199 57.5q90 0 160 -39t109.5 -108t39.5 -156q0 -115 -51.5 -205t-144 -140.5t-209.5 -50.5q-80 0 -147 32zM529 121.5q73 42.5 114.5 116.5t41.5 166q0 69 -28 121.5t-79.5 81.5t-119.5 29
q-89 0 -161 -49t-113 -130t-41 -172q0 -73 32 -119t82.5 -66.5t108.5 -20.5q90 0 163 42.5zM285.5 -166.5q-12.5 12.5 -12.5 32.5q0 25 19 43.5t45 18.5q20 0 33 -12t13 -31q0 -26 -19 -45t-45 -19q-21 0 -33.5 12.5z" />
    <glyph glyph-name="Ograve" unicode="&#xd2;" horiz-adv-x="792" 
d="M211 40q-67 32 -106.5 94t-39.5 148q0 115 50.5 212.5t139.5 155t199 57.5q90 0 160 -39t109.5 -108t39.5 -156q0 -115 -51.5 -205t-144 -140.5t-209.5 -50.5q-80 0 -147 32zM529 121.5q73 42.5 114.5 116.5t41.5 166q0 69 -28 121.5t-79.5 81.5t-119.5 29
q-89 0 -161 -49t-113 -130t-41 -172q0 -73 32 -119t82.5 -66.5t108.5 -20.5q90 0 163 42.5zM522 760.5q-6 3.5 -13 12.5l-64 86q-11 17 -11 27q0 15 10.5 25.5t23.5 10.5q17 0 33 -24l58 -85q10 -13 10 -24q0 -13 -10 -22.5t-23 -9.5q-8 0 -14 3.5z" />
    <glyph glyph-name="uni1ECE" unicode="&#x1ece;" horiz-adv-x="792" 
d="M211 40q-67 32 -106.5 94t-39.5 148q0 115 50.5 212.5t139.5 155t199 57.5q90 0 160 -39t109.5 -108t39.5 -156q0 -115 -51.5 -205t-144 -140.5t-209.5 -50.5q-80 0 -147 32zM529 121.5q73 42.5 114.5 116.5t41.5 166q0 69 -28 121.5t-79.5 81.5t-119.5 29
q-89 0 -161 -49t-113 -130t-41 -172q0 -73 32 -119t82.5 -66.5t108.5 -20.5q90 0 163 42.5zM468.5 768.5q-7.5 9.5 -5.5 22.5q1 7 8 38q3 11 14 22t30 24q21 15 31.5 25t12.5 22q3 18 -10 29t-39 11q-41 0 -73 -42q-11 -15 -23 -15q-9 0 -17 6t-8 14q0 11 10 24q23 31 51 48
t70 17q45 0 74 -22t29 -56q0 -31 -17 -50t-45 -36q-10 -6 -18 -13t-9 -12l-5 -32q-3 -16 -14 -25t-25 -9t-21.5 9.5z" />
    <glyph glyph-name="Ohorn" unicode="&#x1a0;" horiz-adv-x="819" 
d="M882.5 695.5q5.5 -7.5 3.5 -20.5q-9 -56 -43 -105t-92 -74q12 -43 12 -92q0 -115 -51.5 -205t-144 -140.5t-209.5 -50.5q-80 0 -147 32t-106.5 94t-39.5 148q0 115 50.5 212.5t139.5 155t199 57.5q96 0 169.5 -44.5t110.5 -121.5q39 18 64.5 53.5t33.5 81.5q5 27 32 27
q13 0 18.5 -7.5zM529 121.5q73 42.5 114.5 116.5t41.5 166q0 69 -28 121.5t-79.5 81.5t-119.5 29q-89 0 -161 -49t-113 -130t-41 -172q0 -73 32 -119t82.5 -66.5t108.5 -20.5q90 0 163 42.5z" />
    <glyph glyph-name="uni1EDA" unicode="&#x1eda;" horiz-adv-x="819" 
d="M882.5 695.5q5.5 -7.5 3.5 -20.5q-9 -56 -43 -105t-92 -74q12 -43 12 -92q0 -115 -51.5 -205t-144 -140.5t-209.5 -50.5q-80 0 -147 32t-106.5 94t-39.5 148q0 115 50.5 212.5t139.5 155t199 57.5q96 0 169.5 -44.5t110.5 -121.5q39 18 64.5 53.5t33.5 81.5q5 27 32 27
q13 0 18.5 -7.5zM529 121.5q73 42.5 114.5 116.5t41.5 166q0 69 -28 121.5t-79.5 81.5t-119.5 29q-89 0 -161 -49t-113 -130t-41 -172q0 -73 32 -119t82.5 -66.5t108.5 -20.5q90 0 163 42.5zM427 758.5q-7 6.5 -7 16.5q0 8 6 17.5t16 18.5l92 81q15 14 24.5 19.5t18.5 5.5
q11 0 18.5 -7.5t7.5 -18.5q0 -21 -25 -41l-99 -81q-20 -17 -35 -17q-10 0 -17 6.5z" />
    <glyph glyph-name="uni1EE2" unicode="&#x1ee2;" horiz-adv-x="819" 
d="M882.5 695.5q5.5 -7.5 3.5 -20.5q-9 -56 -43 -105t-92 -74q12 -43 12 -92q0 -115 -51.5 -205t-144 -140.5t-209.5 -50.5q-80 0 -147 32t-106.5 94t-39.5 148q0 115 50.5 212.5t139.5 155t199 57.5q96 0 169.5 -44.5t110.5 -121.5q39 18 64.5 53.5t33.5 81.5q5 27 32 27
q13 0 18.5 -7.5zM529 121.5q73 42.5 114.5 116.5t41.5 166q0 69 -28 121.5t-79.5 81.5t-119.5 29q-89 0 -161 -49t-113 -130t-41 -172q0 -73 32 -119t82.5 -66.5t108.5 -20.5q90 0 163 42.5zM285.5 -166.5q-12.5 12.5 -12.5 32.5q0 25 19 43.5t45 18.5q20 0 33 -12t13 -31
q0 -26 -19 -45t-45 -19q-21 0 -33.5 12.5z" />
    <glyph glyph-name="uni1EDC" unicode="&#x1edc;" horiz-adv-x="819" 
d="M882.5 695.5q5.5 -7.5 3.5 -20.5q-9 -56 -43 -105t-92 -74q12 -43 12 -92q0 -115 -51.5 -205t-144 -140.5t-209.5 -50.5q-80 0 -147 32t-106.5 94t-39.5 148q0 115 50.5 212.5t139.5 155t199 57.5q96 0 169.5 -44.5t110.5 -121.5q39 18 64.5 53.5t33.5 81.5q5 27 32 27
q13 0 18.5 -7.5zM529 121.5q73 42.5 114.5 116.5t41.5 166q0 69 -28 121.5t-79.5 81.5t-119.5 29q-89 0 -161 -49t-113 -130t-41 -172q0 -73 32 -119t82.5 -66.5t108.5 -20.5q90 0 163 42.5zM522 760.5q-6 3.5 -13 12.5l-64 86q-11 17 -11 27q0 15 10.5 25.5t23.5 10.5
q17 0 33 -24l58 -85q10 -13 10 -24q0 -13 -10 -22.5t-23 -9.5q-8 0 -14 3.5z" />
    <glyph glyph-name="uni1EDE" unicode="&#x1ede;" horiz-adv-x="819" 
d="M882.5 695.5q5.5 -7.5 3.5 -20.5q-9 -56 -43 -105t-92 -74q12 -43 12 -92q0 -115 -51.5 -205t-144 -140.5t-209.5 -50.5q-80 0 -147 32t-106.5 94t-39.5 148q0 115 50.5 212.5t139.5 155t199 57.5q96 0 169.5 -44.5t110.5 -121.5q39 18 64.5 53.5t33.5 81.5q5 27 32 27
q13 0 18.5 -7.5zM529 121.5q73 42.5 114.5 116.5t41.5 166q0 69 -28 121.5t-79.5 81.5t-119.5 29q-89 0 -161 -49t-113 -130t-41 -172q0 -73 32 -119t82.5 -66.5t108.5 -20.5q90 0 163 42.5zM468.5 768.5q-7.5 9.5 -5.5 22.5q1 7 8 38q3 11 14 22t30 24q21 15 31.5 25
t12.5 22q3 18 -10 29t-39 11q-41 0 -73 -42q-11 -15 -23 -15q-9 0 -17 6t-8 14q0 11 10 24q23 31 51 48t70 17q45 0 74 -22t29 -56q0 -31 -17 -50t-45 -36q-10 -6 -18 -13t-9 -12l-5 -32q-3 -16 -14 -25t-25 -9t-21.5 9.5z" />
    <glyph glyph-name="uni1EE0" unicode="&#x1ee0;" horiz-adv-x="819" 
d="M882.5 695.5q5.5 -7.5 3.5 -20.5q-9 -56 -43 -105t-92 -74q12 -43 12 -92q0 -115 -51.5 -205t-144 -140.5t-209.5 -50.5q-80 0 -147 32t-106.5 94t-39.5 148q0 115 50.5 212.5t139.5 155t199 57.5q96 0 169.5 -44.5t110.5 -121.5q39 18 64.5 53.5t33.5 81.5q5 27 32 27
q13 0 18.5 -7.5zM529 121.5q73 42.5 114.5 116.5t41.5 166q0 69 -28 121.5t-79.5 81.5t-119.5 29q-89 0 -161 -49t-113 -130t-41 -172q0 -73 32 -119t82.5 -66.5t108.5 -20.5q90 0 163 42.5zM336 772.5q-6 6.5 -6 18.5q0 13 12 25q29 29 50 41t47 12q46 0 84 -22
q6 -3 17.5 -9.5t19 -9.5t14.5 -3q13 0 32 17q16 15 28 15q10 0 17 -8t7 -19q0 -14 -11 -25q-25 -20 -45 -29.5t-40 -9.5q-23 0 -55 18l-20 10q-5 2 -23 10.5t-31 8.5q-10 0 -19.5 -7t-27.5 -24q-19 -16 -33 -16q-11 0 -17 6.5z" />
    <glyph glyph-name="Ohungarumlaut" unicode="&#x150;" horiz-adv-x="792" 
d="M211 40q-67 32 -106.5 94t-39.5 148q0 115 50.5 212.5t139.5 155t199 57.5q90 0 160 -39t109.5 -108t39.5 -156q0 -115 -51.5 -205t-144 -140.5t-209.5 -50.5q-80 0 -147 32zM529 121.5q73 42.5 114.5 116.5t41.5 166q0 69 -28 121.5t-79.5 81.5t-119.5 29
q-89 0 -161 -49t-113 -130t-41 -172q0 -73 32 -119t82.5 -66.5t108.5 -20.5q90 0 163 42.5zM349.5 763q-6.5 6 -6.5 16q0 15 19 34l88 85q24 24 41 24q11 0 17.5 -7t6.5 -18q0 -20 -23 -38l-95 -87q-18 -15 -32 -15q-9 0 -15.5 6zM500.5 763q-6.5 6 -6.5 16q0 16 20 34
l87 85q24 24 42 24q11 0 17.5 -7t6.5 -18q0 -20 -24 -38l-94 -86q-17 -16 -33 -16q-9 0 -15.5 6z" />
    <glyph glyph-name="Omacron" unicode="&#x14c;" horiz-adv-x="792" 
d="M211 40q-67 32 -106.5 94t-39.5 148q0 115 50.5 212.5t139.5 155t199 57.5q90 0 160 -39t109.5 -108t39.5 -156q0 -115 -51.5 -205t-144 -140.5t-209.5 -50.5q-80 0 -147 32zM529 121.5q73 42.5 114.5 116.5t41.5 166q0 69 -28 121.5t-79.5 81.5t-119.5 29
q-89 0 -161 -49t-113 -130t-41 -172q0 -73 32 -119t82.5 -66.5t108.5 -20.5q90 0 163 42.5zM306 790q-5 6 -5 16q0 15 9 26t25 13q5 1 43.5 7.5t123.5 6.5h148q15 0 23 -9t5 -24q-6 -28 -37 -28q-18 0 -32 1l-109 1q-67 0 -146 -12q-32 -4 -34 -4q-9 0 -14 6z" />
    <glyph glyph-name="Oslash" unicode="&#xd8;" horiz-adv-x="792" 
d="M796.5 733q7.5 -9 5.5 -21q-4 -13 -16 -24l-90 -88q67 -81 67 -196t-51.5 -205t-144 -140.5t-209.5 -50.5q-57 0 -108.5 16.5t-90.5 48.5l-78 -77q-19 -19 -35 -19q-12 0 -20.5 8t-6.5 20q1 5 4 10t9 11l88 86q-55 71 -55 170q0 115 50.5 212.5t139.5 155t199 57.5
q60 0 111.5 -17.5t91.5 -50.5l85 83q20 20 35 20q12 0 19.5 -9zM175 166l430 422q-59 48 -147 48q-89 0 -161 -49t-113 -130t-41 -172q0 -71 32 -119zM643 548l-430 -422q59 -47 153 -47q90 0 163 42.5t114.5 116.5t41.5 166q0 83 -42 144z" />
    <glyph glyph-name="Oslashacute" unicode="&#x1fe;" horiz-adv-x="792" 
d="M796.5 733q7.5 -9 5.5 -21q-4 -13 -16 -24l-90 -88q67 -81 67 -196t-51.5 -205t-144 -140.5t-209.5 -50.5q-57 0 -108.5 16.5t-90.5 48.5l-78 -77q-19 -19 -35 -19q-12 0 -20.5 8t-6.5 20q1 5 4 10t9 11l88 86q-55 71 -55 170q0 115 50.5 212.5t139.5 155t199 57.5
q60 0 111.5 -17.5t91.5 -50.5l85 83q20 20 35 20q12 0 19.5 -9zM175 166l430 422q-59 48 -147 48q-89 0 -161 -49t-113 -130t-41 -172q0 -71 32 -119zM643 548l-430 -422q59 -47 153 -47q90 0 163 42.5t114.5 116.5t41.5 166q0 83 -42 144zM427 758.5q-7 6.5 -7 16.5
q0 8 6 17.5t16 18.5l92 81q15 14 24.5 19.5t18.5 5.5q11 0 18.5 -7.5t7.5 -18.5q0 -21 -25 -41l-99 -81q-20 -17 -35 -17q-10 0 -17 6.5z" />
    <glyph glyph-name="Otilde" unicode="&#xd5;" horiz-adv-x="792" 
d="M211 40q-67 32 -106.5 94t-39.5 148q0 115 50.5 212.5t139.5 155t199 57.5q90 0 160 -39t109.5 -108t39.5 -156q0 -115 -51.5 -205t-144 -140.5t-209.5 -50.5q-80 0 -147 32zM529 121.5q73 42.5 114.5 116.5t41.5 166q0 69 -28 121.5t-79.5 81.5t-119.5 29
q-89 0 -161 -49t-113 -130t-41 -172q0 -73 32 -119t82.5 -66.5t108.5 -20.5q90 0 163 42.5zM336 772.5q-6 6.5 -6 18.5q0 13 12 25q29 29 50 41t47 12q46 0 84 -22q6 -3 17.5 -9.5t19 -9.5t14.5 -3q13 0 32 17q16 15 28 15q10 0 17 -8t7 -19q0 -14 -11 -25
q-25 -20 -45 -29.5t-40 -9.5q-23 0 -55 18l-20 10q-5 2 -23 10.5t-31 8.5q-10 0 -19.5 -7t-27.5 -24q-19 -16 -33 -16q-11 0 -17 6.5z" />
    <glyph glyph-name="OE" unicode="&#x152;" horiz-adv-x="980" 
d="M1017 665q0 -20 -11.5 -30t-25.5 -8q-37 4 -57 5t-68 1q-104 0 -132 -2q-5 -57 -16 -130q-6 -40 -20 -108l104 -1q27 -1 65 -1q30 0 30 -25q0 -16 -11 -28t-29 -12q-40 0 -65 1l-109 1q-11 -52 -25 -115t-32 -131q16 -1 27 -2t19 -2q52 -5 106 -5q25 0 53 2q37 3 58 4
q26 1 26 -21q0 -18 -9.5 -27t-24.5 -11q-16 -3 -53.5 -4.5t-69.5 -0.5l-55 2q-19 2 -161 6q-22 1 -30 5t-8 16q0 33 45 33l21 80q-32 -64 -101 -105.5t-153 -41.5q-71 0 -124.5 32.5t-83.5 96t-30 153.5q0 112 45 209t124 154.5t176 57.5q96 0 155.5 -55t68.5 -141l3 24
q5 37 7 61t3 31q-16 0 -16 20q0 37 39 38l47 2q132 3 134 3q69 0 148 -7q16 -1 16 -24zM463 129.5q61 52.5 93.5 133.5t32.5 165q0 101 -48 161.5t-130 60.5q-74 0 -134.5 -49t-95 -130.5t-34.5 -173.5q0 -110 48.5 -165t127.5 -55t140 52.5z" />
    <glyph glyph-name="P" unicode="P" horiz-adv-x="611" 
d="M505 679q56 -26 88.5 -72t32.5 -105q0 -73 -41.5 -127.5t-110.5 -83.5t-151 -29q-86 0 -140 31l-49 -262q-3 -18 -15.5 -28t-30.5 -10q-19 0 -27 11t-6 26q14 82 28 151l26 137q21 117 39 244l-4 -2q-10 -5 -18 -5q-11 0 -17.5 9.5t-6.5 23.5q0 18 8.5 27t30.5 20
q16 8 19 10l3 16q7 45 49 45q18 0 27 -6t7 -16v-3q66 24 136 24q67 0 123 -26zM429.5 350q50.5 22 80.5 62t30 90q0 59 -48.5 96t-121.5 37q-55 0 -137 -33q-4 -35 -11 -69l-4 -25q-4 -20 -6.5 -38.5t-4.5 -33.5q-8 -55 -12 -76q50 -32 125 -32q59 0 109.5 22z" />
    <glyph glyph-name="Thorn" unicode="&#xde;" horiz-adv-x="631" 
d="M519 621q53 -25 84.5 -71t31.5 -107q0 -69 -38.5 -124.5t-106 -86.5t-152.5 -31q-75 0 -140 24l-39 -196q-3 -15 -16.5 -25.5t-30.5 -10.5q-19 0 -30.5 8.5t-8.5 23.5q18 99 40 203q6 32 14.5 73t10.5 58q3 22 16 92l12 63l-16 -9q-11 -7 -23 -7t-20 11t-8 21q0 17 21 30
q23 15 60 33q16 83 25 146q2 16 15.5 26t33.5 10q18 0 27.5 -9t6.5 -27l-18 -114q74 21 134 21q62 0 115 -25zM448 292q47 21 74 59.5t27 89.5q0 60 -46.5 97t-115.5 37q-55 0 -129 -22q-13 -77 -21 -123l-12 -59l-15 -75q72 -25 134 -25q57 0 104 21z" />
    <glyph glyph-name="Q" unicode="Q" horiz-adv-x="781" 
d="M677 86q9 -10 9 -21q0 -18 -15 -32.5t-33 -14.5q-17 0 -26 11l-46 55q-52 -34 -112.5 -52.5t-122.5 -18.5q-87 0 -147 36.5t-89.5 99.5t-29.5 143q0 113 56.5 209t150.5 153t202 57q77 0 141 -38.5t101.5 -106.5t37.5 -153q0 -78 -32 -149t-89 -126zM428.5 99
q47.5 15 89.5 42l-58 70q-7 8 -7 18q0 15 18.5 30.5t34.5 15.5q10 0 16 -6l62 -73q43 46 67.5 101.5t24.5 115.5q0 66 -26.5 117.5t-74 80.5t-107.5 29q-84 0 -159 -49.5t-120 -130t-45 -168.5q0 -95 50.5 -151.5t138.5 -56.5q48 0 95.5 15z" />
    <glyph glyph-name="R" unicode="R" horiz-adv-x="641" 
d="M585.5 388.5q-44.5 -51.5 -117.5 -78.5t-158 -27q-57 0 -106 13l319 -210q15 -10 15 -24q0 -18 -12.5 -33.5t-32.5 -15.5q-8 0 -17 3.5t-14 7.5l-296 211l-9 -48l-27 -157q-3 -17 -14.5 -26t-28.5 -9t-25.5 9.5t-8.5 22.5q0 6 1 9q18 89 30.5 161.5t29.5 177.5
q19 118 29 187q-6 -2 -9 -2q-13 0 -16 9t-3 26q0 14 7 22.5t25 17.5l7 3l3 21q3 23 14 33t31 10q37 0 33 -28v-2q41 16 75 22t71 6q75 0 131.5 -23.5t87 -66t30.5 -99.5q0 -71 -44.5 -122.5zM308 620.5q-37 -8.5 -84 -26.5q-18 -136 -34 -228q51 -15 124 -15
q99 0 164.5 41.5t65.5 118.5q0 54 -44 86t-119 32q-36 0 -73 -8.5z" />
    <glyph glyph-name="Racute" unicode="&#x154;" horiz-adv-x="641" 
d="M585.5 388.5q-44.5 -51.5 -117.5 -78.5t-158 -27q-57 0 -106 13l319 -210q15 -10 15 -24q0 -18 -12.5 -33.5t-32.5 -15.5q-8 0 -17 3.5t-14 7.5l-296 211l-9 -48l-27 -157q-3 -17 -14.5 -26t-28.5 -9t-25.5 9.5t-8.5 22.5q0 6 1 9q18 89 30.5 161.5t29.5 177.5
q19 118 29 187q-6 -2 -9 -2q-13 0 -16 9t-3 26q0 14 7 22.5t25 17.5l7 3l3 21q3 23 14 33t31 10q37 0 33 -28v-2q41 16 75 22t71 6q75 0 131.5 -23.5t87 -66t30.5 -99.5q0 -71 -44.5 -122.5zM308 620.5q-37 -8.5 -84 -26.5q-18 -136 -34 -228q51 -15 124 -15
q99 0 164.5 41.5t65.5 118.5q0 54 -44 86t-119 32q-36 0 -73 -8.5zM356 758.5q-7 6.5 -7 16.5q0 8 6 17.5t16 18.5l92 81q15 14 24.5 19.5t18.5 5.5q11 0 18.5 -7.5t7.5 -18.5q0 -21 -25 -41l-99 -81q-20 -17 -35 -17q-10 0 -17 6.5z" />
    <glyph glyph-name="Rcaron" unicode="&#x158;" horiz-adv-x="641" 
d="M585.5 388.5q-44.5 -51.5 -117.5 -78.5t-158 -27q-57 0 -106 13l319 -210q15 -10 15 -24q0 -18 -12.5 -33.5t-32.5 -15.5q-8 0 -17 3.5t-14 7.5l-296 211l-9 -48l-27 -157q-3 -17 -14.5 -26t-28.5 -9t-25.5 9.5t-8.5 22.5q0 6 1 9q18 89 30.5 161.5t29.5 177.5
q19 118 29 187q-6 -2 -9 -2q-13 0 -16 9t-3 26q0 14 7 22.5t25 17.5l7 3l3 21q3 23 14 33t31 10q37 0 33 -28v-2q41 16 75 22t71 6q75 0 131.5 -23.5t87 -66t30.5 -99.5q0 -71 -44.5 -122.5zM308 620.5q-37 -8.5 -84 -26.5q-18 -136 -34 -228q51 -15 124 -15
q99 0 164.5 41.5t65.5 118.5q0 54 -44 86t-119 32q-36 0 -73 -8.5zM577.5 936q6.5 -7 6.5 -17q0 -6 -3 -11.5t-6 -8t-4 -4.5q-56 -63 -93 -96t-69 -33q-19 0 -39.5 22t-54.5 66q-15 21 -25 33q-8 9 -6 22q1 11 12.5 20t22.5 9q14 0 27 -20q59 -90 76 -90q9 0 39 28.5
t72 74.5q11 12 28 12q10 0 16.5 -7z" />
    <glyph glyph-name="uni0156" unicode="&#x156;" horiz-adv-x="641" 
d="M585.5 388.5q-44.5 -51.5 -117.5 -78.5t-158 -27q-57 0 -106 13l319 -210q15 -10 15 -24q0 -18 -12.5 -33.5t-32.5 -15.5q-8 0 -17 3.5t-14 7.5l-296 211l-9 -48l-27 -157q-3 -17 -14.5 -26t-28.5 -9t-25.5 9.5t-8.5 22.5q0 6 1 9q18 89 30.5 161.5t29.5 177.5
q19 118 29 187q-6 -2 -9 -2q-13 0 -16 9t-3 26q0 14 7 22.5t25 17.5l7 3l3 21q3 23 14 33t31 10q37 0 33 -28v-2q41 16 75 22t71 6q75 0 131.5 -23.5t87 -66t30.5 -99.5q0 -71 -44.5 -122.5zM308 620.5q-37 -8.5 -84 -26.5q-18 -136 -34 -228q51 -15 124 -15
q99 0 164.5 41.5t65.5 118.5q0 54 -44 86t-119 32q-36 0 -73 -8.5zM306 -86q14 -14 14 -34q0 -36 -33.5 -78t-78.5 -73q-8 -7 -18 -7q-8 0 -15 6t-7 15t6 15l19 18q34 32 44 44q-15 2 -25.5 13.5t-10.5 27.5q0 27 21.5 47t48.5 20q21 0 35 -14z" />
    <glyph glyph-name="uni1E5A" unicode="&#x1e5a;" horiz-adv-x="641" 
d="M585.5 388.5q-44.5 -51.5 -117.5 -78.5t-158 -27q-57 0 -106 13l319 -210q15 -10 15 -24q0 -18 -12.5 -33.5t-32.5 -15.5q-8 0 -17 3.5t-14 7.5l-296 211l-9 -48l-27 -157q-3 -17 -14.5 -26t-28.5 -9t-25.5 9.5t-8.5 22.5q0 6 1 9q18 89 30.5 161.5t29.5 177.5
q19 118 29 187q-6 -2 -9 -2q-13 0 -16 9t-3 26q0 14 7 22.5t25 17.5l7 3l3 21q3 23 14 33t31 10q37 0 33 -28v-2q41 16 75 22t71 6q75 0 131.5 -23.5t87 -66t30.5 -99.5q0 -71 -44.5 -122.5zM308 620.5q-37 -8.5 -84 -26.5q-18 -136 -34 -228q51 -15 124 -15
q99 0 164.5 41.5t65.5 118.5q0 54 -44 86t-119 32q-36 0 -73 -8.5zM214.5 -166.5q-12.5 12.5 -12.5 32.5q0 25 19 43.5t45 18.5q20 0 33 -12t13 -31q0 -26 -19 -45t-45 -19q-21 0 -33.5 12.5z" />
    <glyph glyph-name="uni1E5C" unicode="&#x1e5c;" horiz-adv-x="641" 
d="M585.5 388.5q-44.5 -51.5 -117.5 -78.5t-158 -27q-57 0 -106 13l319 -210q15 -10 15 -24q0 -18 -12.5 -33.5t-32.5 -15.5q-8 0 -17 3.5t-14 7.5l-296 211l-9 -48l-27 -157q-3 -17 -14.5 -26t-28.5 -9t-25.5 9.5t-8.5 22.5q0 6 1 9q18 89 30.5 161.5t29.5 177.5
q19 118 29 187q-6 -2 -9 -2q-13 0 -16 9t-3 26q0 14 7 22.5t25 17.5l7 3l3 21q3 23 14 33t31 10q37 0 33 -28v-2q41 16 75 22t71 6q75 0 131.5 -23.5t87 -66t30.5 -99.5q0 -71 -44.5 -122.5zM308 620.5q-37 -8.5 -84 -26.5q-18 -136 -34 -228q51 -15 124 -15
q99 0 164.5 41.5t65.5 118.5q0 54 -44 86t-119 32q-36 0 -73 -8.5zM214.5 -166.5q-12.5 12.5 -12.5 32.5q0 25 19 43.5t45 18.5q20 0 33 -12t13 -31q0 -26 -19 -45t-45 -19q-21 0 -33.5 12.5zM235 790q-5 6 -5 16q0 15 9 26t25 13q5 1 43.5 7.5t123.5 6.5h148q15 0 23 -9
t5 -24q-6 -28 -37 -28q-18 0 -32 1l-109 1q-67 0 -146 -12q-32 -4 -34 -4q-9 0 -14 6z" />
    <glyph glyph-name="uni1E5E" unicode="&#x1e5e;" horiz-adv-x="641" 
d="M585.5 388.5q-44.5 -51.5 -117.5 -78.5t-158 -27q-57 0 -106 13l319 -210q15 -10 15 -24q0 -18 -12.5 -33.5t-32.5 -15.5q-8 0 -17 3.5t-14 7.5l-296 211l-9 -48l-27 -157q-3 -17 -14.5 -26t-28.5 -9t-25.5 9.5t-8.5 22.5q0 6 1 9q18 89 30.5 161.5t29.5 177.5
q19 118 29 187q-6 -2 -9 -2q-13 0 -16 9t-3 26q0 14 7 22.5t25 17.5l7 3l3 21q3 23 14 33t31 10q37 0 33 -28v-2q41 16 75 22t71 6q75 0 131.5 -23.5t87 -66t30.5 -99.5q0 -71 -44.5 -122.5zM308 620.5q-37 -8.5 -84 -26.5q-18 -136 -34 -228q51 -15 124 -15
q99 0 164.5 41.5t65.5 118.5q0 54 -44 86t-119 32q-36 0 -73 -8.5zM102 -157q-6 6 -6 17q0 15 8.5 25.5t21.5 12.5q75 9 184 9q35 0 73 -2q12 -1 29 -1q13 0 20.5 -7t7.5 -18q0 -16 -11 -25.5t-27 -9.5l-26 1q-57 3 -78 3q-50 0 -143 -8q-25 -3 -38 -3q-9 0 -15 6z" />
    <glyph glyph-name="S" unicode="S" horiz-adv-x="563" 
d="M110 52.5q-56 51.5 -56 140.5q0 35 10.5 48.5t35.5 13.5q24 0 29.5 -11.5t5.5 -46.5q1 -66 35.5 -96t92.5 -30q68 0 113 36t45 92q0 33 -17 54t-45 34t-79 30q-47 15 -83 33.5t-64 54t-28 90.5q0 59 33.5 107.5t90 76.5t122.5 28q58 0 103.5 -22t71 -60.5t25.5 -87.5
q0 -36 -12.5 -48.5t-34.5 -12.5q-20 0 -26.5 7t-6.5 21l1 21q0 47 -31 79.5t-90 32.5q-45 0 -84 -20t-61.5 -53t-22.5 -70q0 -31 16 -50t40 -30t65 -24l26 -9q70 -24 119 -65t49 -121q0 -58 -30 -102t-83 -68t-120 -24q-99 0 -155 51.5z" />
    <glyph glyph-name="Sacute" unicode="&#x15a;" horiz-adv-x="563" 
d="M110 52.5q-56 51.5 -56 140.5q0 35 10.5 48.5t35.5 13.5q24 0 29.5 -11.5t5.5 -46.5q1 -66 35.5 -96t92.5 -30q68 0 113 36t45 92q0 33 -17 54t-45 34t-79 30q-47 15 -83 33.5t-64 54t-28 90.5q0 59 33.5 107.5t90 76.5t122.5 28q58 0 103.5 -22t71 -60.5t25.5 -87.5
q0 -36 -12.5 -48.5t-34.5 -12.5q-20 0 -26.5 7t-6.5 21l1 21q0 47 -31 79.5t-90 32.5q-45 0 -84 -20t-61.5 -53t-22.5 -70q0 -31 16 -50t40 -30t65 -24l26 -9q70 -24 119 -65t49 -121q0 -58 -30 -102t-83 -68t-120 -24q-99 0 -155 51.5zM322 758.5q-7 6.5 -7 16.5
q0 8 6 17.5t16 18.5l92 81q15 14 24.5 19.5t18.5 5.5q11 0 18.5 -7.5t7.5 -18.5q0 -21 -25 -41l-99 -81q-20 -17 -35 -17q-10 0 -17 6.5z" />
    <glyph glyph-name="Scaron" unicode="&#x160;" horiz-adv-x="563" 
d="M110 52.5q-56 51.5 -56 140.5q0 35 10.5 48.5t35.5 13.5q24 0 29.5 -11.5t5.5 -46.5q1 -66 35.5 -96t92.5 -30q68 0 113 36t45 92q0 33 -17 54t-45 34t-79 30q-47 15 -83 33.5t-64 54t-28 90.5q0 59 33.5 107.5t90 76.5t122.5 28q58 0 103.5 -22t71 -60.5t25.5 -87.5
q0 -36 -12.5 -48.5t-34.5 -12.5q-20 0 -26.5 7t-6.5 21l1 21q0 47 -31 79.5t-90 32.5q-45 0 -84 -20t-61.5 -53t-22.5 -70q0 -31 16 -50t40 -30t65 -24l26 -9q70 -24 119 -65t49 -121q0 -58 -30 -102t-83 -68t-120 -24q-99 0 -155 51.5zM543.5 936q6.5 -7 6.5 -17
q0 -6 -3 -11.5t-6 -8t-4 -4.5q-56 -63 -93 -96t-69 -33q-19 0 -39.5 22t-54.5 66q-15 21 -25 33q-8 9 -6 22q1 11 12.5 20t22.5 9q14 0 27 -20q59 -90 76 -90q9 0 39 28.5t72 74.5q11 12 28 12q10 0 16.5 -7z" />
    <glyph glyph-name="Scedilla" unicode="&#x15e;" horiz-adv-x="563" 
d="M454.5 685q45.5 -22 71 -60.5t25.5 -87.5q0 -36 -12.5 -48.5t-34.5 -12.5q-20 0 -26.5 7t-6.5 21l1 21q0 47 -31 79.5t-90 32.5q-45 0 -84 -20t-61.5 -53t-22.5 -70q0 -31 16 -50t40 -30t65 -24l26 -9q70 -24 119 -65t49 -121q0 -76 -50 -127t-133 -63l-1 -2l-46 -57
q33 -8 53 -28.5t20 -53.5q0 -44 -37.5 -65.5t-101.5 -21.5q-19 0 -44 4.5t-40 9.5q-16 6 -16 25q0 14 10 24t24 10q4 -1 27 -7t41 -6q36 0 53.5 5t17.5 26q0 15 -11.5 20t-30.5 8.5t-26 4.5q-12 1 -19 7t-7 15q0 6 3 12l55 67q-87 7 -136 57.5t-49 133.5q0 35 10.5 48.5
t35.5 13.5q24 0 29.5 -11.5t5.5 -46.5q1 -66 35.5 -96t92.5 -30q68 0 113 36t45 92q0 33 -17 54t-45 34t-79 30q-47 15 -83 33.5t-64 54t-28 90.5q0 59 33.5 107.5t90 76.5t122.5 28q58 0 103.5 -22z" />
    <glyph glyph-name="Scircumflex" unicode="&#x15c;" horiz-adv-x="563" 
d="M110 52.5q-56 51.5 -56 140.5q0 35 10.5 48.5t35.5 13.5q24 0 29.5 -11.5t5.5 -46.5q1 -66 35.5 -96t92.5 -30q68 0 113 36t45 92q0 33 -17 54t-45 34t-79 30q-47 15 -83 33.5t-64 54t-28 90.5q0 59 33.5 107.5t90 76.5t122.5 28q58 0 103.5 -22t71 -60.5t25.5 -87.5
q0 -36 -12.5 -48.5t-34.5 -12.5q-20 0 -26.5 7t-6.5 21l1 21q0 47 -31 79.5t-90 32.5q-45 0 -84 -20t-61.5 -53t-22.5 -70q0 -31 16 -50t40 -30t65 -24l26 -9q70 -24 119 -65t49 -121q0 -58 -30 -102t-83 -68t-120 -24q-99 0 -155 51.5zM477 776q-57 102 -74 102
q-8 0 -33.5 -21.5t-74.5 -68.5q-20 -20 -35 -20q-10 0 -17.5 7.5t-7.5 18.5q0 13 14 26q14 10 32 29q48 44 78.5 67.5t50.5 23.5q26 0 46 -23t51 -72l21 -34q6 -8 6 -15q0 -13 -10.5 -23t-23.5 -10q-16 0 -23 13z" />
    <glyph glyph-name="uni0218" unicode="&#x218;" horiz-adv-x="563" 
d="M110 52.5q-56 51.5 -56 140.5q0 35 10.5 48.5t35.5 13.5q24 0 29.5 -11.5t5.5 -46.5q1 -66 35.5 -96t92.5 -30q68 0 113 36t45 92q0 33 -17 54t-45 34t-79 30q-47 15 -83 33.5t-64 54t-28 90.5q0 59 33.5 107.5t90 76.5t122.5 28q58 0 103.5 -22t71 -60.5t25.5 -87.5
q0 -36 -12.5 -48.5t-34.5 -12.5q-20 0 -26.5 7t-6.5 21l1 21q0 47 -31 79.5t-90 32.5q-45 0 -84 -20t-61.5 -53t-22.5 -70q0 -31 16 -50t40 -30t65 -24l26 -9q70 -24 119 -65t49 -121q0 -58 -30 -102t-83 -68t-120 -24q-99 0 -155 51.5zM302 -86q14 -14 14 -34
q0 -36 -33.5 -78t-78.5 -73q-8 -7 -18 -7q-8 0 -15 6t-7 15t6 15l19 18q34 32 44 44q-15 2 -25.5 13.5t-10.5 27.5q0 27 21.5 47t48.5 20q21 0 35 -14z" />
    <glyph glyph-name="uni1E60" unicode="&#x1e60;" horiz-adv-x="563" 
d="M110 52.5q-56 51.5 -56 140.5q0 35 10.5 48.5t35.5 13.5q24 0 29.5 -11.5t5.5 -46.5q1 -66 35.5 -96t92.5 -30q68 0 113 36t45 92q0 33 -17 54t-45 34t-79 30q-47 15 -83 33.5t-64 54t-28 90.5q0 59 33.5 107.5t90 76.5t122.5 28q58 0 103.5 -22t71 -60.5t25.5 -87.5
q0 -36 -12.5 -48.5t-34.5 -12.5q-20 0 -26.5 7t-6.5 21l1 21q0 47 -31 79.5t-90 32.5q-45 0 -84 -20t-61.5 -53t-22.5 -70q0 -31 16 -50t40 -30t65 -24l26 -9q70 -24 119 -65t49 -121q0 -58 -30 -102t-83 -68t-120 -24q-99 0 -155 51.5zM349.5 788.5q-12.5 12.5 -12.5 32.5
q0 25 19 43.5t45 18.5q20 0 33 -12t13 -31q0 -26 -19 -45t-45 -19q-21 0 -33.5 12.5z" />
    <glyph glyph-name="uni1E62" unicode="&#x1e62;" horiz-adv-x="563" 
d="M110 52.5q-56 51.5 -56 140.5q0 35 10.5 48.5t35.5 13.5q24 0 29.5 -11.5t5.5 -46.5q1 -66 35.5 -96t92.5 -30q68 0 113 36t45 92q0 33 -17 54t-45 34t-79 30q-47 15 -83 33.5t-64 54t-28 90.5q0 59 33.5 107.5t90 76.5t122.5 28q58 0 103.5 -22t71 -60.5t25.5 -87.5
q0 -36 -12.5 -48.5t-34.5 -12.5q-20 0 -26.5 7t-6.5 21l1 21q0 47 -31 79.5t-90 32.5q-45 0 -84 -20t-61.5 -53t-22.5 -70q0 -31 16 -50t40 -30t65 -24l26 -9q70 -24 119 -65t49 -121q0 -58 -30 -102t-83 -68t-120 -24q-99 0 -155 51.5zM210.5 -166.5q-12.5 12.5 -12.5 32.5
q0 25 19 43.5t45 18.5q20 0 33 -12t13 -31q0 -26 -19 -45t-45 -19q-21 0 -33.5 12.5z" />
    <glyph glyph-name="uni1E9E" unicode="&#x1e9e;" horiz-adv-x="673" 
d="M290.5 33q-46.5 35 -65.5 72q-17 33 -14 47q3 15 15.5 25.5t27.5 10.5q13 0 20 -8t17 -25q8 -16 14 -24q20 -28 45.5 -46t61.5 -18q44 0 75.5 26.5t31.5 64.5q0 26 -16 47.5t-50 54.5q-40 38 -61 68t-21 69q0 29 15 54.5t44 60.5q25 30 37 49t12 39q0 33 -30 58t-81 25
q-64 0 -103 -50t-55 -140q-3 -15 -22 -144q-25 -170 -49 -309q-3 -20 -15 -30t-37 -10q-18 0 -27 10t-6 26l74 467q17 105 77.5 176t162.5 71q56 0 100.5 -19t69.5 -53.5t25 -77.5q0 -33 -15.5 -60.5t-45.5 -64.5q-23 -28 -33.5 -44.5t-10.5 -33.5q0 -27 16 -48t49 -51
q41 -39 61.5 -68.5t20.5 -71.5q0 -48 -26 -84t-69.5 -56t-96.5 -20q-76 0 -122.5 35z" />
    <glyph glyph-name="uni018F" unicode="&#x18f;" horiz-adv-x="793" 
d="M200.5 24.5q-66.5 32.5 -104 87t-37.5 118.5q0 59 17.5 87.5t56.5 29.5l528 8q5 0 6.5 2t2.5 8q5 30 5 52q0 93 -62.5 148.5t-167.5 55.5q-66 0 -114.5 -21.5t-77.5 -49t-58 -64.5q-7 -8 -13.5 -13t-17.5 -5q-14 0 -27.5 10t-13.5 23t16 34q59 76 136.5 117t172.5 41
q92 0 161 -36.5t106 -99.5t37 -140q0 -121 -52.5 -218t-144.5 -152t-205 -55q-83 0 -149.5 32.5zM494.5 90.5q70.5 36.5 114.5 91.5t44 107q0 6 -13 6l-484 -9q-23 0 -23 -58q0 -47 29 -87t78.5 -63.5t109.5 -23.5q74 0 144.5 36.5z" />
    <glyph glyph-name="T" unicode="T" horiz-adv-x="557" 
d="M588 681q8 -6 8 -21q0 -19 -12.5 -31.5t-32.5 -11.5q-94 7 -162 8q-28 -113 -65 -290q-42 -198 -60 -303q-4 -21 -15 -31.5t-34 -10.5q-18 0 -26 7.5t-8 22.5q0 11 3 26q21 104 62 288l66 291q-81 -2 -171 -11q-33 -3 -33 29q0 18 10 28.5t27 12.5q61 6 107 9t112 3
q52 0 115 -2t87 -5q14 -2 22 -8z" />
    <glyph glyph-name="Tbar" unicode="&#x166;" horiz-adv-x="557" 
d="M588 681q8 -6 8 -21q0 -19 -12.5 -31.5t-32.5 -11.5q-94 7 -162 8q-21 -81 -42 -184l100 -3q29 -2 29 -24q0 -18 -11 -28t-28 -10l-103 4q-2 -8 -4.5 -19t-5.5 -26q-42 -198 -60 -303q-4 -21 -15 -31.5t-34 -10.5q-18 0 -26 7.5t-8 22.5q0 11 3 26q21 104 62 288
q14 57 11 48l-101 4q-12 0 -19 7t-7 18q0 16 12 25.5t27 9.5l102 -3l41 182q-81 -2 -171 -11q-33 -3 -33 29q0 18 10 28.5t27 12.5q61 6 107 9t112 3q52 0 115 -2t87 -5q14 -2 22 -8z" />
    <glyph glyph-name="Tcaron" unicode="&#x164;" horiz-adv-x="557" 
d="M588 681q8 -6 8 -21q0 -19 -12.5 -31.5t-32.5 -11.5q-94 7 -162 8q-28 -113 -65 -290q-42 -198 -60 -303q-4 -21 -15 -31.5t-34 -10.5q-18 0 -26 7.5t-8 22.5q0 11 3 26q21 104 62 288l66 291q-81 -2 -171 -11q-33 -3 -33 29q0 18 10 28.5t27 12.5q61 6 107 9t112 3
q52 0 115 -2t87 -5q14 -2 22 -8zM526.5 936q6.5 -7 6.5 -17q0 -6 -3 -11.5t-6 -8t-4 -4.5q-56 -63 -93 -96t-69 -33q-19 0 -39.5 22t-54.5 66q-15 21 -25 33q-8 9 -6 22q1 11 12.5 20t22.5 9q14 0 27 -20q59 -90 76 -90q9 0 39 28.5t72 74.5q11 12 28 12q10 0 16.5 -7z" />
    <glyph glyph-name="uni0162" unicode="&#x162;" horiz-adv-x="557" 
d="M588 681q8 -6 8 -21q0 -19 -12.5 -31.5t-32.5 -11.5q-94 7 -162 8q-28 -113 -65 -290q-42 -198 -60 -303q-1 -9 -5 -18l-1 -2l-5 -7l-1 -2l-46 -57q33 -8 53 -28.5t20 -53.5q0 -44 -37.5 -65.5t-101.5 -21.5q-19 0 -44 4.5t-40 9.5q-16 6 -16 25q0 14 10 24t24 10
q4 -1 27 -7t41 -6q36 0 53.5 5t17.5 26q0 15 -11.5 20t-30.5 8.5t-26 4.5q-12 1 -19 7t-7 15q0 6 3 12l60 73q-1 3 -1 11q0 12 3 27q21 104 62 288l66 291q-81 -2 -171 -11q-33 -3 -33 29q0 18 10 28.5t27 12.5q61 6 107 9t112 3q52 0 115 -2t87 -5q14 -2 22 -8z" />
    <glyph glyph-name="uni021A" unicode="&#x21a;" horiz-adv-x="557" 
d="M588 681q8 -6 8 -21q0 -19 -12.5 -31.5t-32.5 -11.5q-94 7 -162 8q-28 -113 -65 -290q-42 -198 -60 -303q-4 -21 -15 -31.5t-34 -10.5q-18 0 -26 7.5t-8 22.5q0 11 3 26q21 104 62 288l66 291q-81 -2 -171 -11q-33 -3 -33 29q0 18 10 28.5t27 12.5q61 6 107 9t112 3
q52 0 115 -2t87 -5q14 -2 22 -8zM240 -86q14 -14 14 -34q0 -36 -33.5 -78t-78.5 -73q-8 -7 -18 -7q-8 0 -15 6t-7 15t6 15l19 18q34 32 44 44q-15 2 -25.5 13.5t-10.5 27.5q0 27 21.5 47t48.5 20q21 0 35 -14z" />
    <glyph glyph-name="uni1E6C" unicode="&#x1e6c;" horiz-adv-x="557" 
d="M588 681q8 -6 8 -21q0 -19 -12.5 -31.5t-32.5 -11.5q-94 7 -162 8q-28 -113 -65 -290q-42 -198 -60 -303q-4 -21 -15 -31.5t-34 -10.5q-18 0 -26 7.5t-8 22.5q0 11 3 26q21 104 62 288l66 291q-81 -2 -171 -11q-33 -3 -33 29q0 18 10 28.5t27 12.5q61 6 107 9t112 3
q52 0 115 -2t87 -5q14 -2 22 -8zM148.5 -166.5q-12.5 12.5 -12.5 32.5q0 25 19 43.5t45 18.5q20 0 33 -12t13 -31q0 -26 -19 -45t-45 -19q-21 0 -33.5 12.5z" />
    <glyph glyph-name="uni1E6E" unicode="&#x1e6e;" horiz-adv-x="557" 
d="M588 681q8 -6 8 -21q0 -19 -12.5 -31.5t-32.5 -11.5q-94 7 -162 8q-28 -113 -65 -290q-42 -198 -60 -303q-4 -21 -15 -31.5t-34 -10.5q-18 0 -26 7.5t-8 22.5q0 11 3 26q21 104 62 288l66 291q-81 -2 -171 -11q-33 -3 -33 29q0 18 10 28.5t27 12.5q61 6 107 9t112 3
q52 0 115 -2t87 -5q14 -2 22 -8zM36 -157q-6 6 -6 17q0 15 8.5 25.5t21.5 12.5q75 9 184 9q35 0 73 -2q12 -1 29 -1q13 0 20.5 -7t7.5 -18q0 -16 -11 -25.5t-27 -9.5l-26 1q-57 3 -78 3q-50 0 -143 -8q-25 -3 -38 -3q-9 0 -15 6z" />
    <glyph glyph-name="U" unicode="U" horiz-adv-x="667" 
d="M655 700q9 -8 9 -21q0 -5 -1 -8q-23 -127 -43 -255q-17 -112 -64 -385q-6 -33 -43 -33q-33 0 -33 28q0 8 1 12l13 76q-35 -50 -92.5 -81t-128.5 -31q-68 0 -114 28.5t-68 73.5t-22 95q0 33 16 119t53 267l17 84q6 33 43 33q16 0 25 -6.5t9 -19.5q0 -5 -1 -8
q-44 -204 -63 -310t-19 -159q0 -58 31.5 -92t92.5 -34q58 0 112 31t90.5 79.5t46.5 98.5q14 73 33.5 187.5t32.5 203.5q5 35 41 35q17 0 26 -8z" />
    <glyph glyph-name="Uacute" unicode="&#xda;" horiz-adv-x="667" 
d="M655 700q9 -8 9 -21q0 -5 -1 -8q-23 -127 -43 -255q-17 -112 -64 -385q-6 -33 -43 -33q-33 0 -33 28q0 8 1 12l13 76q-35 -50 -92.5 -81t-128.5 -31q-68 0 -114 28.5t-68 73.5t-22 95q0 33 16 119t53 267l17 84q6 33 43 33q16 0 25 -6.5t9 -19.5q0 -5 -1 -8
q-44 -204 -63 -310t-19 -159q0 -58 31.5 -92t92.5 -34q58 0 112 31t90.5 79.5t46.5 98.5q14 73 33.5 187.5t32.5 203.5q5 35 41 35q17 0 26 -8zM365 758.5q-7 6.5 -7 16.5q0 8 6 17.5t16 18.5l92 81q15 14 24.5 19.5t18.5 5.5q11 0 18.5 -7.5t7.5 -18.5q0 -21 -25 -41
l-99 -81q-20 -17 -35 -17q-10 0 -17 6.5z" />
    <glyph glyph-name="Ubreve" unicode="&#x16c;" horiz-adv-x="667" 
d="M655 700q9 -8 9 -21q0 -5 -1 -8q-23 -127 -43 -255q-17 -112 -64 -385q-6 -33 -43 -33q-33 0 -33 28q0 8 1 12l13 76q-35 -50 -92.5 -81t-128.5 -31q-68 0 -114 28.5t-68 73.5t-22 95q0 33 16 119t53 267l17 84q6 33 43 33q16 0 25 -6.5t9 -19.5q0 -5 -1 -8
q-44 -204 -63 -310t-19 -159q0 -58 31.5 -92t92.5 -34q58 0 112 31t90.5 79.5t46.5 98.5q14 73 33.5 187.5t32.5 203.5q5 35 41 35q17 0 26 -8zM356.5 781q-32.5 15 -50.5 41t-18 56q0 7 2 17q4 14 12.5 22t20.5 8q11 0 19 -4.5t7 -14.5q-1 -5 -1 -14q1 -34 25 -53.5
t61 -19.5t69 24.5t39 59.5q2 12 12.5 18.5t22.5 6.5t19 -8t5 -20q-6 -35 -31 -66t-62 -49.5t-78 -18.5t-73.5 15z" />
    <glyph glyph-name="uni01D3" unicode="&#x1d3;" horiz-adv-x="667" 
d="M655 700q9 -8 9 -21q0 -5 -1 -8q-23 -127 -43 -255q-17 -112 -64 -385q-6 -33 -43 -33q-33 0 -33 28q0 8 1 12l13 76q-35 -50 -92.5 -81t-128.5 -31q-68 0 -114 28.5t-68 73.5t-22 95q0 33 16 119t53 267l17 84q6 33 43 33q16 0 25 -6.5t9 -19.5q0 -5 -1 -8
q-44 -204 -63 -310t-19 -159q0 -58 31.5 -92t92.5 -34q58 0 112 31t90.5 79.5t46.5 98.5q14 73 33.5 187.5t32.5 203.5q5 35 41 35q17 0 26 -8zM586.5 936q6.5 -7 6.5 -17q0 -6 -3 -11.5t-6 -8t-4 -4.5q-56 -63 -93 -96t-69 -33q-19 0 -39.5 22t-54.5 66q-15 21 -25 33
q-8 9 -6 22q1 11 12.5 20t22.5 9q14 0 27 -20q59 -90 76 -90q9 0 39 28.5t72 74.5q11 12 28 12q10 0 16.5 -7z" />
    <glyph glyph-name="Ucircumflex" unicode="&#xdb;" horiz-adv-x="667" 
d="M655 700q9 -8 9 -21q0 -5 -1 -8q-23 -127 -43 -255q-17 -112 -64 -385q-6 -33 -43 -33q-33 0 -33 28q0 8 1 12l13 76q-35 -50 -92.5 -81t-128.5 -31q-68 0 -114 28.5t-68 73.5t-22 95q0 33 16 119t53 267l17 84q6 33 43 33q16 0 25 -6.5t9 -19.5q0 -5 -1 -8
q-44 -204 -63 -310t-19 -159q0 -58 31.5 -92t92.5 -34q58 0 112 31t90.5 79.5t46.5 98.5q14 73 33.5 187.5t32.5 203.5q5 35 41 35q17 0 26 -8zM520 776q-57 102 -74 102q-8 0 -33.5 -21.5t-74.5 -68.5q-20 -20 -35 -20q-10 0 -17.5 7.5t-7.5 18.5q0 13 14 26q14 10 32 29
q48 44 78.5 67.5t50.5 23.5q26 0 46 -23t51 -72l21 -34q6 -8 6 -15q0 -13 -10.5 -23t-23.5 -10q-16 0 -23 13z" />
    <glyph glyph-name="Udieresis" unicode="&#xdc;" horiz-adv-x="667" 
d="M655 700q9 -8 9 -21q0 -5 -1 -8q-23 -127 -43 -255q-17 -112 -64 -385q-6 -33 -43 -33q-33 0 -33 28q0 8 1 12l13 76q-35 -50 -92.5 -81t-128.5 -31q-68 0 -114 28.5t-68 73.5t-22 95q0 33 16 119t53 267l17 84q6 33 43 33q16 0 25 -6.5t9 -19.5q0 -5 -1 -8
q-44 -204 -63 -310t-19 -159q0 -58 31.5 -92t92.5 -34q58 0 112 31t90.5 79.5t46.5 98.5q14 73 33.5 187.5t32.5 203.5q5 35 41 35q17 0 26 -8zM273.5 788.5q-12.5 12.5 -12.5 32.5q0 26 19 44t45 18q20 0 33.5 -12.5t13.5 -31.5q0 -25 -20 -44t-45 -19q-21 0 -33.5 12.5z
M513.5 788.5q-12.5 12.5 -12.5 32.5q0 26 19 44t45 18q20 0 33 -12t13 -31q0 -25 -19.5 -44.5t-44.5 -19.5q-21 0 -33.5 12.5z" />
    <glyph glyph-name="uni01D7" unicode="&#x1d7;" horiz-adv-x="667" 
d="M655 700q9 -8 9 -21q0 -5 -1 -8q-23 -127 -43 -255q-17 -112 -64 -385q-6 -33 -43 -33q-33 0 -33 28q0 8 1 12l13 76q-35 -50 -92.5 -81t-128.5 -31q-68 0 -114 28.5t-68 73.5t-22 95q0 33 16 119t53 267l17 84q6 33 43 33q16 0 25 -6.5t9 -19.5q0 -5 -1 -8
q-44 -204 -63 -310t-19 -159q0 -58 31.5 -92t92.5 -34q58 0 112 31t90.5 79.5t46.5 98.5q14 73 33.5 187.5t32.5 203.5q5 35 41 35q17 0 26 -8zM275.5 788.5q-12.5 12.5 -12.5 32.5q0 26 19 44t45 18q20 0 33.5 -12.5t13.5 -31.5q0 -25 -20 -44t-45 -19q-21 0 -33.5 12.5z
M515.5 788.5q-12.5 12.5 -12.5 32.5q0 26 19 44t45 18q20 0 33 -12t13 -31q0 -25 -19.5 -44.5t-44.5 -19.5q-21 0 -33.5 12.5zM414 888.5q-7 6.5 -7 16.5q0 8 6 17.5t16 18.5l92 81q15 14 24.5 19.5t18.5 5.5q11 0 18.5 -7.5t7.5 -18.5q0 -21 -25 -41l-99 -81
q-20 -17 -35 -17q-10 0 -17 6.5z" />
    <glyph glyph-name="uni01D9" unicode="&#x1d9;" horiz-adv-x="667" 
d="M655 700q9 -8 9 -21q0 -5 -1 -8q-23 -127 -43 -255q-17 -112 -64 -385q-6 -33 -43 -33q-33 0 -33 28q0 8 1 12l13 76q-35 -50 -92.5 -81t-128.5 -31q-68 0 -114 28.5t-68 73.5t-22 95q0 33 16 119t53 267l17 84q6 33 43 33q16 0 25 -6.5t9 -19.5q0 -5 -1 -8
q-44 -204 -63 -310t-19 -159q0 -58 31.5 -92t92.5 -34q58 0 112 31t90.5 79.5t46.5 98.5q14 73 33.5 187.5t32.5 203.5q5 35 41 35q17 0 26 -8zM275.5 788.5q-12.5 12.5 -12.5 32.5q0 26 19 44t45 18q20 0 33.5 -12.5t13.5 -31.5q0 -25 -20 -44t-45 -19q-21 0 -33.5 12.5z
M515.5 788.5q-12.5 12.5 -12.5 32.5q0 26 19 44t45 18q20 0 33 -12t13 -31q0 -25 -19.5 -44.5t-44.5 -19.5q-21 0 -33.5 12.5zM609.5 1067q6.5 -7 6.5 -17q0 -6 -3 -11.5t-6 -8t-4 -4.5q-56 -63 -93 -96t-69 -33q-19 0 -39.5 22t-54.5 66q-15 21 -25 33q-8 9 -6 22
q1 11 12.5 20t22.5 9q14 0 27 -20q59 -90 76 -90q9 0 39 28.5t72 74.5q11 12 28 12q10 0 16.5 -7z" />
    <glyph glyph-name="uni01DB" unicode="&#x1db;" horiz-adv-x="667" 
d="M655 700q9 -8 9 -21q0 -5 -1 -8q-23 -127 -43 -255q-17 -112 -64 -385q-6 -33 -43 -33q-33 0 -33 28q0 8 1 12l13 76q-35 -50 -92.5 -81t-128.5 -31q-68 0 -114 28.5t-68 73.5t-22 95q0 33 16 119t53 267l17 84q6 33 43 33q16 0 25 -6.5t9 -19.5q0 -5 -1 -8
q-44 -204 -63 -310t-19 -159q0 -58 31.5 -92t92.5 -34q58 0 112 31t90.5 79.5t46.5 98.5q14 73 33.5 187.5t32.5 203.5q5 35 41 35q17 0 26 -8zM275.5 788.5q-12.5 12.5 -12.5 32.5q0 26 19 44t45 18q20 0 33.5 -12.5t13.5 -31.5q0 -25 -20 -44t-45 -19q-21 0 -33.5 12.5z
M515.5 788.5q-12.5 12.5 -12.5 32.5q0 26 19 44t45 18q20 0 33 -12t13 -31q0 -25 -19.5 -44.5t-44.5 -19.5q-21 0 -33.5 12.5zM425 900.5q-6 3.5 -13 12.5l-64 86q-11 17 -11 27q0 15 10.5 25.5t23.5 10.5q17 0 33 -24l58 -85q10 -13 10 -24q0 -13 -10 -22.5t-23 -9.5
q-8 0 -14 3.5z" />
    <glyph glyph-name="uni01D5" unicode="&#x1d5;" horiz-adv-x="667" 
d="M655 700q9 -8 9 -21q0 -5 -1 -8q-23 -127 -43 -255q-17 -112 -64 -385q-6 -33 -43 -33q-33 0 -33 28q0 8 1 12l13 76q-35 -50 -92.5 -81t-128.5 -31q-68 0 -114 28.5t-68 73.5t-22 95q0 33 16 119t53 267l17 84q6 33 43 33q16 0 25 -6.5t9 -19.5q0 -5 -1 -8
q-44 -204 -63 -310t-19 -159q0 -58 31.5 -92t92.5 -34q58 0 112 31t90.5 79.5t46.5 98.5q14 73 33.5 187.5t32.5 203.5q5 35 41 35q17 0 26 -8zM275.5 788.5q-12.5 12.5 -12.5 32.5q0 26 19 44t45 18q20 0 33.5 -12.5t13.5 -31.5q0 -25 -20 -44t-45 -19q-21 0 -33.5 12.5z
M515.5 788.5q-12.5 12.5 -12.5 32.5q0 26 19 44t45 18q20 0 33 -12t13 -31q0 -25 -19.5 -44.5t-44.5 -19.5q-21 0 -33.5 12.5zM355 932q-28 0 -50 8q-18 8 -18 25q0 18 13.5 28t29.5 7q29 -7 68 -7q21 0 69 4t77 4q12 0 36 -2q16 -2 25 -2q11 -1 18 -8t7 -18
q0 -16 -12.5 -26t-26.5 -8q-30 4 -52 4q-30 0 -74 -4q-42 -4 -66 -4z" />
    <glyph glyph-name="uni1EE4" unicode="&#x1ee4;" horiz-adv-x="667" 
d="M655 700q9 -8 9 -21q0 -5 -1 -8q-23 -127 -43 -255q-17 -112 -64 -385q-6 -33 -43 -33q-33 0 -33 28q0 8 1 12l13 76q-35 -50 -92.5 -81t-128.5 -31q-68 0 -114 28.5t-68 73.5t-22 95q0 33 16 119t53 267l17 84q6 33 43 33q16 0 25 -6.5t9 -19.5q0 -5 -1 -8
q-44 -204 -63 -310t-19 -159q0 -58 31.5 -92t92.5 -34q58 0 112 31t90.5 79.5t46.5 98.5q14 73 33.5 187.5t32.5 203.5q5 35 41 35q17 0 26 -8zM223.5 -166.5q-12.5 12.5 -12.5 32.5q0 25 19 43.5t45 18.5q20 0 33 -12t13 -31q0 -26 -19 -45t-45 -19q-21 0 -33.5 12.5z" />
    <glyph glyph-name="Ugrave" unicode="&#xd9;" horiz-adv-x="667" 
d="M655 700q9 -8 9 -21q0 -5 -1 -8q-23 -127 -43 -255q-17 -112 -64 -385q-6 -33 -43 -33q-33 0 -33 28q0 8 1 12l13 76q-35 -50 -92.5 -81t-128.5 -31q-68 0 -114 28.5t-68 73.5t-22 95q0 33 16 119t53 267l17 84q6 33 43 33q16 0 25 -6.5t9 -19.5q0 -5 -1 -8
q-44 -204 -63 -310t-19 -159q0 -58 31.5 -92t92.5 -34q58 0 112 31t90.5 79.5t46.5 98.5q14 73 33.5 187.5t32.5 203.5q5 35 41 35q17 0 26 -8zM460 760.5q-6 3.5 -13 12.5l-64 86q-11 17 -11 27q0 15 10.5 25.5t23.5 10.5q17 0 33 -24l58 -85q10 -13 10 -24
q0 -13 -10 -22.5t-23 -9.5q-8 0 -14 3.5z" />
    <glyph glyph-name="uni1EE6" unicode="&#x1ee6;" horiz-adv-x="667" 
d="M655 700q9 -8 9 -21q0 -5 -1 -8q-23 -127 -43 -255q-17 -112 -64 -385q-6 -33 -43 -33q-33 0 -33 28q0 8 1 12l13 76q-35 -50 -92.5 -81t-128.5 -31q-68 0 -114 28.5t-68 73.5t-22 95q0 33 16 119t53 267l17 84q6 33 43 33q16 0 25 -6.5t9 -19.5q0 -5 -1 -8
q-44 -204 -63 -310t-19 -159q0 -58 31.5 -92t92.5 -34q58 0 112 31t90.5 79.5t46.5 98.5q14 73 33.5 187.5t32.5 203.5q5 35 41 35q17 0 26 -8zM406.5 768.5q-7.5 9.5 -5.5 22.5q1 7 8 38q3 11 14 22t30 24q21 15 31.5 25t12.5 22q3 18 -10 29t-39 11q-41 0 -73 -42
q-11 -15 -23 -15q-9 0 -17 6t-8 14q0 11 10 24q23 31 51 48t70 17q45 0 74 -22t29 -56q0 -31 -17 -50t-45 -36q-10 -6 -18 -13t-9 -12l-5 -32q-3 -16 -14 -25t-25 -9t-21.5 9.5z" />
    <glyph glyph-name="Uhorn" unicode="&#x1af;" horiz-adv-x="722" 
d="M785.5 705.5q5.5 -7.5 3.5 -20.5q-10 -61 -49.5 -113t-106.5 -74l-6 -35l-7 -47q-17 -112 -64 -385q-6 -33 -43 -33q-33 0 -33 28q0 8 1 12l13 76q-35 -50 -92.5 -81t-128.5 -31q-68 0 -114 28.5t-68 73.5t-22 95q0 33 16 119t53 267l17 84q6 33 43 33q16 0 25 -6.5
t9 -19.5q0 -5 -1 -8q-44 -204 -63 -310t-19 -159q0 -58 31.5 -92t92.5 -34q58 0 112 31t90.5 79.5t46.5 98.5q14 73 33.5 187.5t32.5 203.5q5 35 41 35q17 0 26 -8t9 -21q0 -5 -1 -8l-21 -118q37 18 61 53.5t32 79.5q5 27 32 27q13 0 18.5 -7.5z" />
    <glyph glyph-name="uni1EE8" unicode="&#x1ee8;" horiz-adv-x="722" 
d="M785.5 705.5q5.5 -7.5 3.5 -20.5q-10 -61 -49.5 -113t-106.5 -74l-6 -35l-7 -47q-17 -112 -64 -385q-6 -33 -43 -33q-33 0 -33 28q0 8 1 12l13 76q-35 -50 -92.5 -81t-128.5 -31q-68 0 -114 28.5t-68 73.5t-22 95q0 33 16 119t53 267l17 84q6 33 43 33q16 0 25 -6.5
t9 -19.5q0 -5 -1 -8q-44 -204 -63 -310t-19 -159q0 -58 31.5 -92t92.5 -34q58 0 112 31t90.5 79.5t46.5 98.5q14 73 33.5 187.5t32.5 203.5q5 35 41 35q17 0 26 -8t9 -21q0 -5 -1 -8l-21 -118q37 18 61 53.5t32 79.5q5 27 32 27q13 0 18.5 -7.5zM365 758.5q-7 6.5 -7 16.5
q0 8 6 17.5t16 18.5l92 81q15 14 24.5 19.5t18.5 5.5q11 0 18.5 -7.5t7.5 -18.5q0 -21 -25 -41l-99 -81q-20 -17 -35 -17q-10 0 -17 6.5z" />
    <glyph glyph-name="uni1EF0" unicode="&#x1ef0;" horiz-adv-x="722" 
d="M785.5 705.5q5.5 -7.5 3.5 -20.5q-10 -61 -49.5 -113t-106.5 -74l-6 -35l-7 -47q-17 -112 -64 -385q-6 -33 -43 -33q-33 0 -33 28q0 8 1 12l13 76q-35 -50 -92.5 -81t-128.5 -31q-68 0 -114 28.5t-68 73.5t-22 95q0 33 16 119t53 267l17 84q6 33 43 33q16 0 25 -6.5
t9 -19.5q0 -5 -1 -8q-44 -204 -63 -310t-19 -159q0 -58 31.5 -92t92.5 -34q58 0 112 31t90.5 79.5t46.5 98.5q14 73 33.5 187.5t32.5 203.5q5 35 41 35q17 0 26 -8t9 -21q0 -5 -1 -8l-21 -118q37 18 61 53.5t32 79.5q5 27 32 27q13 0 18.5 -7.5zM223.5 -166.5
q-12.5 12.5 -12.5 32.5q0 25 19 43.5t45 18.5q20 0 33 -12t13 -31q0 -26 -19 -45t-45 -19q-21 0 -33.5 12.5z" />
    <glyph glyph-name="uni1EEA" unicode="&#x1eea;" horiz-adv-x="722" 
d="M785.5 705.5q5.5 -7.5 3.5 -20.5q-10 -61 -49.5 -113t-106.5 -74l-6 -35l-7 -47q-17 -112 -64 -385q-6 -33 -43 -33q-33 0 -33 28q0 8 1 12l13 76q-35 -50 -92.5 -81t-128.5 -31q-68 0 -114 28.5t-68 73.5t-22 95q0 33 16 119t53 267l17 84q6 33 43 33q16 0 25 -6.5
t9 -19.5q0 -5 -1 -8q-44 -204 -63 -310t-19 -159q0 -58 31.5 -92t92.5 -34q58 0 112 31t90.5 79.5t46.5 98.5q14 73 33.5 187.5t32.5 203.5q5 35 41 35q17 0 26 -8t9 -21q0 -5 -1 -8l-21 -118q37 18 61 53.5t32 79.5q5 27 32 27q13 0 18.5 -7.5zM460 760.5q-6 3.5 -13 12.5
l-64 86q-11 17 -11 27q0 15 10.5 25.5t23.5 10.5q17 0 33 -24l58 -85q10 -13 10 -24q0 -13 -10 -22.5t-23 -9.5q-8 0 -14 3.5z" />
    <glyph glyph-name="uni1EEC" unicode="&#x1eec;" horiz-adv-x="722" 
d="M785.5 705.5q5.5 -7.5 3.5 -20.5q-10 -61 -49.5 -113t-106.5 -74l-6 -35l-7 -47q-17 -112 -64 -385q-6 -33 -43 -33q-33 0 -33 28q0 8 1 12l13 76q-35 -50 -92.5 -81t-128.5 -31q-68 0 -114 28.5t-68 73.5t-22 95q0 33 16 119t53 267l17 84q6 33 43 33q16 0 25 -6.5
t9 -19.5q0 -5 -1 -8q-44 -204 -63 -310t-19 -159q0 -58 31.5 -92t92.5 -34q58 0 112 31t90.5 79.5t46.5 98.5q14 73 33.5 187.5t32.5 203.5q5 35 41 35q17 0 26 -8t9 -21q0 -5 -1 -8l-21 -118q37 18 61 53.5t32 79.5q5 27 32 27q13 0 18.5 -7.5zM406.5 768.5
q-7.5 9.5 -5.5 22.5q1 7 8 38q3 11 14 22t30 24q21 15 31.5 25t12.5 22q3 18 -10 29t-39 11q-41 0 -73 -42q-11 -15 -23 -15q-9 0 -17 6t-8 14q0 11 10 24q23 31 51 48t70 17q45 0 74 -22t29 -56q0 -31 -17 -50t-45 -36q-10 -6 -18 -13t-9 -12l-5 -32q-3 -16 -14 -25t-25 -9
t-21.5 9.5z" />
    <glyph glyph-name="uni1EEE" unicode="&#x1eee;" horiz-adv-x="722" 
d="M785.5 705.5q5.5 -7.5 3.5 -20.5q-10 -61 -49.5 -113t-106.5 -74l-6 -35l-7 -47q-17 -112 -64 -385q-6 -33 -43 -33q-33 0 -33 28q0 8 1 12l13 76q-35 -50 -92.5 -81t-128.5 -31q-68 0 -114 28.5t-68 73.5t-22 95q0 33 16 119t53 267l17 84q6 33 43 33q16 0 25 -6.5
t9 -19.5q0 -5 -1 -8q-44 -204 -63 -310t-19 -159q0 -58 31.5 -92t92.5 -34q58 0 112 31t90.5 79.5t46.5 98.5q14 73 33.5 187.5t32.5 203.5q5 35 41 35q17 0 26 -8t9 -21q0 -5 -1 -8l-21 -118q37 18 61 53.5t32 79.5q5 27 32 27q13 0 18.5 -7.5zM274 772.5q-6 6.5 -6 18.5
q0 13 12 25q29 29 50 41t47 12q46 0 84 -22q6 -3 17.5 -9.5t19 -9.5t14.5 -3q13 0 32 17q16 15 28 15q10 0 17 -8t7 -19q0 -14 -11 -25q-25 -20 -45 -29.5t-40 -9.5q-23 0 -55 18l-20 10q-5 2 -23 10.5t-31 8.5q-10 0 -19.5 -7t-27.5 -24q-19 -16 -33 -16q-11 0 -17 6.5z
" />
    <glyph glyph-name="Uhungarumlaut" unicode="&#x170;" horiz-adv-x="667" 
d="M655 700q9 -8 9 -21q0 -5 -1 -8q-23 -127 -43 -255q-17 -112 -64 -385q-6 -33 -43 -33q-33 0 -33 28q0 8 1 12l13 76q-35 -50 -92.5 -81t-128.5 -31q-68 0 -114 28.5t-68 73.5t-22 95q0 33 16 119t53 267l17 84q6 33 43 33q16 0 25 -6.5t9 -19.5q0 -5 -1 -8
q-44 -204 -63 -310t-19 -159q0 -58 31.5 -92t92.5 -34q58 0 112 31t90.5 79.5t46.5 98.5q14 73 33.5 187.5t32.5 203.5q5 35 41 35q17 0 26 -8zM287.5 763q-6.5 6 -6.5 16q0 15 19 34l88 85q24 24 41 24q11 0 17.5 -7t6.5 -18q0 -20 -23 -38l-95 -87q-18 -15 -32 -15
q-9 0 -15.5 6zM438.5 763q-6.5 6 -6.5 16q0 16 20 34l87 85q24 24 42 24q11 0 17.5 -7t6.5 -18q0 -20 -24 -38l-94 -86q-17 -16 -33 -16q-9 0 -15.5 6z" />
    <glyph glyph-name="Umacron" unicode="&#x16a;" horiz-adv-x="667" 
d="M655 700q9 -8 9 -21q0 -5 -1 -8q-23 -127 -43 -255q-17 -112 -64 -385q-6 -33 -43 -33q-33 0 -33 28q0 8 1 12l13 76q-35 -50 -92.5 -81t-128.5 -31q-68 0 -114 28.5t-68 73.5t-22 95q0 33 16 119t53 267l17 84q6 33 43 33q16 0 25 -6.5t9 -19.5q0 -5 -1 -8
q-44 -204 -63 -310t-19 -159q0 -58 31.5 -92t92.5 -34q58 0 112 31t90.5 79.5t46.5 98.5q14 73 33.5 187.5t32.5 203.5q5 35 41 35q17 0 26 -8zM244 790q-5 6 -5 16q0 15 9 26t25 13q5 1 43.5 7.5t123.5 6.5h148q15 0 23 -9t5 -24q-6 -28 -37 -28q-18 0 -32 1l-109 1
q-67 0 -146 -12q-32 -4 -34 -4q-9 0 -14 6z" />
    <glyph glyph-name="Uogonek" unicode="&#x172;" horiz-adv-x="667" 
d="M655 700q9 -8 9 -21q0 -5 -1 -8q-23 -127 -43 -255q-17 -112 -64 -385q-5 -22 -20 -29q-34 -24 -50.5 -43t-16.5 -42q0 -25 37 -25q7 0 19.5 3.5t15.5 3.5q6 0 10 -4.5t4 -11.5q0 -21 -14.5 -31.5t-40.5 -10.5q-38 0 -64.5 21.5t-26.5 54.5q0 31 18 55.5t53 49.5
q0 10 1 16l13 76q-35 -50 -92.5 -81t-128.5 -31q-68 0 -114 28.5t-68 73.5t-22 95q0 33 16 119t53 267l17 84q6 33 43 33q16 0 25 -6.5t9 -19.5q0 -5 -1 -8q-44 -204 -63 -310t-19 -159q0 -58 31.5 -92t92.5 -34q58 0 112 31t90.5 79.5t46.5 98.5q14 73 33.5 187.5
t32.5 203.5q5 35 41 35q17 0 26 -8z" />
    <glyph glyph-name="Uring" unicode="&#x16e;" horiz-adv-x="667" 
d="M655 700q9 -8 9 -21q0 -5 -1 -8q-23 -127 -43 -255q-17 -112 -64 -385q-6 -33 -43 -33q-33 0 -33 28q0 8 1 12l13 76q-35 -50 -92.5 -81t-128.5 -31q-68 0 -114 28.5t-68 73.5t-22 95q0 33 16 119t53 267l17 84q6 33 43 33q16 0 25 -6.5t9 -19.5q0 -5 -1 -8
q-44 -204 -63 -310t-19 -159q0 -58 31.5 -92t92.5 -34q58 0 112 31t90.5 79.5t46.5 98.5q14 73 33.5 187.5t32.5 203.5q5 35 41 35q17 0 26 -8zM356.5 764q-27.5 27 -27.5 66q0 33 17 61t47 44.5t65 16.5q39 0 65 -28t26 -65q0 -51 -36.5 -86.5t-88.5 -35.5q-40 0 -67.5 27z
M478.5 807.5q20.5 19.5 20.5 47.5q0 19 -13.5 33t-35.5 14q-28 0 -48.5 -20.5t-20.5 -46.5q0 -20 13.5 -33.5t35.5 -13.5q28 0 48.5 19.5z" />
    <glyph glyph-name="Utilde" unicode="&#x168;" horiz-adv-x="667" 
d="M655 700q9 -8 9 -21q0 -5 -1 -8q-23 -127 -43 -255q-17 -112 -64 -385q-6 -33 -43 -33q-33 0 -33 28q0 8 1 12l13 76q-35 -50 -92.5 -81t-128.5 -31q-68 0 -114 28.5t-68 73.5t-22 95q0 33 16 119t53 267l17 84q6 33 43 33q16 0 25 -6.5t9 -19.5q0 -5 -1 -8
q-44 -204 -63 -310t-19 -159q0 -58 31.5 -92t92.5 -34q58 0 112 31t90.5 79.5t46.5 98.5q14 73 33.5 187.5t32.5 203.5q5 35 41 35q17 0 26 -8zM274 772.5q-6 6.5 -6 18.5q0 13 12 25q29 29 50 41t47 12q46 0 84 -22q6 -3 17.5 -9.5t19 -9.5t14.5 -3q13 0 32 17q16 15 28 15
q10 0 17 -8t7 -19q0 -14 -11 -25q-25 -20 -45 -29.5t-40 -9.5q-23 0 -55 18l-20 10q-5 2 -23 10.5t-31 8.5q-10 0 -19.5 -7t-27.5 -24q-19 -16 -33 -16q-11 0 -17 6.5z" />
    <glyph glyph-name="V" unicode="V" horiz-adv-x="668" 
d="M259 12.5q-20 12.5 -28 35.5q-19 56 -57 325q-11 73 -22 174q-9 79 -14 120l-1 16q0 11 12.5 18t30.5 7q15 0 23 -8t9 -19q9 -66 25 -204l10 -91q17 -134 26 -193.5t17 -84t19 -24.5q12 0 29 24.5t47.5 86.5t89.5 191l134 301q6 11 13 15t19 4q17 0 29.5 -8.5t12.5 -20.5
q0 -6 -3 -14q-47 -105 -131 -287q-123 -269 -162 -328q-30 -48 -82 -48q-26 0 -46 12.5z" />
    <glyph glyph-name="W" unicode="W" horiz-adv-x="878" 
d="M203.5 11.5q-13.5 9.5 -15.5 26.5q-8 62 -16 221q-4 87 -7 126q-3 44 -13 119q-13 98 -13 151q0 11 1 16q3 14 15 23.5t31 9.5q15 0 22 -6.5t9 -21.5q2 -16 2 -23q16 -151 23 -251l6 -97q5 -92 9 -139t9 -47q4 0 15 16t21 32.5t15 25.5l38 63l15 25q45 73 65 100.5
t34 27.5t25 -23.5t33 -91.5l17 -50l18 -55q12 -39 18.5 -54.5t10.5 -15.5q3 0 15 29.5t23 58t18 47.5q23 64 56 147q27 67 35 88q68 168 76 188q5 13 16 19.5t26 6.5q33 0 33 -37q0 -4 -3 -10q-27 -55 -68 -161l-43 -109q-27 -67 -60 -157q-33 -93 -72 -185q-17 -40 -60 -40
q-18 0 -31.5 14t-26.5 44.5t-33 91.5q-7 21 -22 81q-5 21 -9.5 37t-7.5 16q-4 0 -15 -17.5t-19.5 -32t-12.5 -21.5q-17 -33 -44 -76q-37 -59 -58 -88t-36 -40t-32 -11q-19 0 -32.5 9.5z" />
    <glyph glyph-name="Wacute" unicode="&#x1e82;" horiz-adv-x="878" 
d="M203.5 11.5q-13.5 9.5 -15.5 26.5q-8 62 -16 221q-4 87 -7 126q-3 44 -13 119q-13 98 -13 151q0 11 1 16q3 14 15 23.5t31 9.5q15 0 22 -6.5t9 -21.5q2 -16 2 -23q16 -151 23 -251l6 -97q5 -92 9 -139t9 -47q4 0 15 16t21 32.5t15 25.5l38 63l15 25q45 73 65 100.5
t34 27.5t25 -23.5t33 -91.5l17 -50l18 -55q12 -39 18.5 -54.5t10.5 -15.5q3 0 15 29.5t23 58t18 47.5q23 64 56 147q27 67 35 88q68 168 76 188q5 13 16 19.5t26 6.5q33 0 33 -37q0 -4 -3 -10q-27 -55 -68 -161l-43 -109q-27 -67 -60 -157q-33 -93 -72 -185q-17 -40 -60 -40
q-18 0 -31.5 14t-26.5 44.5t-33 91.5q-7 21 -22 81q-5 21 -9.5 37t-7.5 16q-4 0 -15 -17.5t-19.5 -32t-12.5 -21.5q-17 -33 -44 -76q-37 -59 -58 -88t-36 -40t-32 -11q-19 0 -32.5 9.5zM475 758.5q-7 6.5 -7 16.5q0 8 6 17.5t16 18.5l92 81q15 14 24.5 19.5t18.5 5.5
q11 0 18.5 -7.5t7.5 -18.5q0 -21 -25 -41l-99 -81q-20 -17 -35 -17q-10 0 -17 6.5z" />
    <glyph glyph-name="Wcircumflex" unicode="&#x174;" horiz-adv-x="878" 
d="M203.5 11.5q-13.5 9.5 -15.5 26.5q-8 62 -16 221q-4 87 -7 126q-3 44 -13 119q-13 98 -13 151q0 11 1 16q3 14 15 23.5t31 9.5q15 0 22 -6.5t9 -21.5q2 -16 2 -23q16 -151 23 -251l6 -97q5 -92 9 -139t9 -47q4 0 15 16t21 32.5t15 25.5l38 63l15 25q45 73 65 100.5
t34 27.5t25 -23.5t33 -91.5l17 -50l18 -55q12 -39 18.5 -54.5t10.5 -15.5q3 0 15 29.5t23 58t18 47.5q23 64 56 147q27 67 35 88q68 168 76 188q5 13 16 19.5t26 6.5q33 0 33 -37q0 -4 -3 -10q-27 -55 -68 -161l-43 -109q-27 -67 -60 -157q-33 -93 -72 -185q-17 -40 -60 -40
q-18 0 -31.5 14t-26.5 44.5t-33 91.5q-7 21 -22 81q-5 21 -9.5 37t-7.5 16q-4 0 -15 -17.5t-19.5 -32t-12.5 -21.5q-17 -33 -44 -76q-37 -59 -58 -88t-36 -40t-32 -11q-19 0 -32.5 9.5zM630 776q-57 102 -74 102q-8 0 -33.5 -21.5t-74.5 -68.5q-20 -20 -35 -20
q-10 0 -17.5 7.5t-7.5 18.5q0 13 14 26q14 10 32 29q48 44 78.5 67.5t50.5 23.5q26 0 46 -23t51 -72l21 -34q6 -8 6 -15q0 -13 -10.5 -23t-23.5 -10q-16 0 -23 13z" />
    <glyph glyph-name="Wdieresis" unicode="&#x1e84;" horiz-adv-x="878" 
d="M203.5 11.5q-13.5 9.5 -15.5 26.5q-8 62 -16 221q-4 87 -7 126q-3 44 -13 119q-13 98 -13 151q0 11 1 16q3 14 15 23.5t31 9.5q15 0 22 -6.5t9 -21.5q2 -16 2 -23q16 -151 23 -251l6 -97q5 -92 9 -139t9 -47q4 0 15 16t21 32.5t15 25.5l38 63l15 25q45 73 65 100.5
t34 27.5t25 -23.5t33 -91.5l17 -50l18 -55q12 -39 18.5 -54.5t10.5 -15.5q3 0 15 29.5t23 58t18 47.5q23 64 56 147q27 67 35 88q68 168 76 188q5 13 16 19.5t26 6.5q33 0 33 -37q0 -4 -3 -10q-27 -55 -68 -161l-43 -109q-27 -67 -60 -157q-33 -93 -72 -185q-17 -40 -60 -40
q-18 0 -31.5 14t-26.5 44.5t-33 91.5q-7 21 -22 81q-5 21 -9.5 37t-7.5 16q-4 0 -15 -17.5t-19.5 -32t-12.5 -21.5q-17 -33 -44 -76q-37 -59 -58 -88t-36 -40t-32 -11q-19 0 -32.5 9.5zM383.5 788.5q-12.5 12.5 -12.5 32.5q0 26 19 44t45 18q20 0 33.5 -12.5t13.5 -31.5
q0 -25 -20 -44t-45 -19q-21 0 -33.5 12.5zM623.5 788.5q-12.5 12.5 -12.5 32.5q0 26 19 44t45 18q20 0 33 -12t13 -31q0 -25 -19.5 -44.5t-44.5 -19.5q-21 0 -33.5 12.5z" />
    <glyph glyph-name="Wgrave" unicode="&#x1e80;" horiz-adv-x="878" 
d="M203.5 11.5q-13.5 9.5 -15.5 26.5q-8 62 -16 221q-4 87 -7 126q-3 44 -13 119q-13 98 -13 151q0 11 1 16q3 14 15 23.5t31 9.5q15 0 22 -6.5t9 -21.5q2 -16 2 -23q16 -151 23 -251l6 -97q5 -92 9 -139t9 -47q4 0 15 16t21 32.5t15 25.5l38 63l15 25q45 73 65 100.5
t34 27.5t25 -23.5t33 -91.5l17 -50l18 -55q12 -39 18.5 -54.5t10.5 -15.5q3 0 15 29.5t23 58t18 47.5q23 64 56 147q27 67 35 88q68 168 76 188q5 13 16 19.5t26 6.5q33 0 33 -37q0 -4 -3 -10q-27 -55 -68 -161l-43 -109q-27 -67 -60 -157q-33 -93 -72 -185q-17 -40 -60 -40
q-18 0 -31.5 14t-26.5 44.5t-33 91.5q-7 21 -22 81q-5 21 -9.5 37t-7.5 16q-4 0 -15 -17.5t-19.5 -32t-12.5 -21.5q-17 -33 -44 -76q-37 -59 -58 -88t-36 -40t-32 -11q-19 0 -32.5 9.5zM570 760.5q-6 3.5 -13 12.5l-64 86q-11 17 -11 27q0 15 10.5 25.5t23.5 10.5
q17 0 33 -24l58 -85q10 -13 10 -24q0 -13 -10 -22.5t-23 -9.5q-8 0 -14 3.5z" />
    <glyph glyph-name="X" unicode="X" horiz-adv-x="664" 
d="M667 626l-266 -288l157 -280q7 -10 7 -21q0 -16 -16 -28.5t-34 -12.5q-16 0 -24 15l-149 264q-63 -69 -211 -228l-32 -35q-10 -10 -16 -12.5t-18 -2.5q-17 0 -31.5 13t-12.5 26q2 9 6.5 15.5t10.5 11.5l26 27q76 82 135.5 146t102.5 110q-118 211 -163 295q-7 11 -4 20
q2 16 16.5 27t32.5 11q10 0 16 -6.5t15 -20.5q60 -110 146 -263l248 266q10 12 17.5 17t15.5 5q18 0 29.5 -13.5t11.5 -29.5q0 -12 -16 -28z" />
    <glyph glyph-name="Y" unicode="Y" horiz-adv-x="655" 
d="M261.5 14.5q-8.5 11.5 -5.5 26.5l48 287q-46 17 -98 131q-23 49 -34.5 88.5t-26.5 107.5q-1 3 -1 10q0 17 14 26t33 9q27 0 35 -35q16 -65 25.5 -97.5t24.5 -71.5q15 -40 36 -73t39 -33q17 0 47.5 29t69.5 79q31 40 56 78t59 93q11 18 17 23.5t17 5.5q17 0 30 -8.5
t13 -21.5q0 -10 -6 -19q-67 -118 -125 -192q-46 -57 -85.5 -89.5t-62.5 -39.5l-47 -285q-8 -40 -45 -40q-19 0 -27.5 11.5z" />
    <glyph glyph-name="Yacute" unicode="&#xdd;" horiz-adv-x="655" 
d="M261.5 14.5q-8.5 11.5 -5.5 26.5l48 287q-46 17 -98 131q-23 49 -34.5 88.5t-26.5 107.5q-1 3 -1 10q0 17 14 26t33 9q27 0 35 -35q16 -65 25.5 -97.5t24.5 -71.5q15 -40 36 -73t39 -33q17 0 47.5 29t69.5 79q31 40 56 78t59 93q11 18 17 23.5t17 5.5q17 0 30 -8.5
t13 -21.5q0 -10 -6 -19q-67 -118 -125 -192q-46 -57 -85.5 -89.5t-62.5 -39.5l-47 -285q-8 -40 -45 -40q-19 0 -27.5 11.5zM363 758.5q-7 6.5 -7 16.5q0 8 6 17.5t16 18.5l92 81q15 14 24.5 19.5t18.5 5.5q11 0 18.5 -7.5t7.5 -18.5q0 -21 -25 -41l-99 -81q-20 -17 -35 -17
q-10 0 -17 6.5z" />
    <glyph glyph-name="Ycircumflex" unicode="&#x176;" horiz-adv-x="655" 
d="M261.5 14.5q-8.5 11.5 -5.5 26.5l48 287q-46 17 -98 131q-23 49 -34.5 88.5t-26.5 107.5q-1 3 -1 10q0 17 14 26t33 9q27 0 35 -35q16 -65 25.5 -97.5t24.5 -71.5q15 -40 36 -73t39 -33q17 0 47.5 29t69.5 79q31 40 56 78t59 93q11 18 17 23.5t17 5.5q17 0 30 -8.5
t13 -21.5q0 -10 -6 -19q-67 -118 -125 -192q-46 -57 -85.5 -89.5t-62.5 -39.5l-47 -285q-8 -40 -45 -40q-19 0 -27.5 11.5zM518 776q-57 102 -74 102q-8 0 -33.5 -21.5t-74.5 -68.5q-20 -20 -35 -20q-10 0 -17.5 7.5t-7.5 18.5q0 13 14 26q14 10 32 29q48 44 78.5 67.5
t50.5 23.5q26 0 46 -23t51 -72l21 -34q6 -8 6 -15q0 -13 -10.5 -23t-23.5 -10q-16 0 -23 13z" />
    <glyph glyph-name="Ydieresis" unicode="&#x178;" horiz-adv-x="655" 
d="M261.5 14.5q-8.5 11.5 -5.5 26.5l48 287q-46 17 -98 131q-23 49 -34.5 88.5t-26.5 107.5q-1 3 -1 10q0 17 14 26t33 9q27 0 35 -35q16 -65 25.5 -97.5t24.5 -71.5q15 -40 36 -73t39 -33q17 0 47.5 29t69.5 79q31 40 56 78t59 93q11 18 17 23.5t17 5.5q17 0 30 -8.5
t13 -21.5q0 -10 -6 -19q-67 -118 -125 -192q-46 -57 -85.5 -89.5t-62.5 -39.5l-47 -285q-8 -40 -45 -40q-19 0 -27.5 11.5zM271.5 788.5q-12.5 12.5 -12.5 32.5q0 26 19 44t45 18q20 0 33.5 -12.5t13.5 -31.5q0 -25 -20 -44t-45 -19q-21 0 -33.5 12.5zM511.5 788.5
q-12.5 12.5 -12.5 32.5q0 26 19 44t45 18q20 0 33 -12t13 -31q0 -25 -19.5 -44.5t-44.5 -19.5q-21 0 -33.5 12.5z" />
    <glyph glyph-name="uni1E8E" unicode="&#x1e8e;" horiz-adv-x="655" 
d="M261.5 14.5q-8.5 11.5 -5.5 26.5l48 287q-46 17 -98 131q-23 49 -34.5 88.5t-26.5 107.5q-1 3 -1 10q0 17 14 26t33 9q27 0 35 -35q16 -65 25.5 -97.5t24.5 -71.5q15 -40 36 -73t39 -33q17 0 47.5 29t69.5 79q31 40 56 78t59 93q11 18 17 23.5t17 5.5q17 0 30 -8.5
t13 -21.5q0 -10 -6 -19q-67 -118 -125 -192q-46 -57 -85.5 -89.5t-62.5 -39.5l-47 -285q-8 -40 -45 -40q-19 0 -27.5 11.5zM390.5 788.5q-12.5 12.5 -12.5 32.5q0 25 19 43.5t45 18.5q20 0 33 -12t13 -31q0 -26 -19 -45t-45 -19q-21 0 -33.5 12.5z" />
    <glyph glyph-name="uni1EF4" unicode="&#x1ef4;" horiz-adv-x="655" 
d="M261.5 14.5q-8.5 11.5 -5.5 26.5l48 287q-46 17 -98 131q-23 49 -34.5 88.5t-26.5 107.5q-1 3 -1 10q0 17 14 26t33 9q27 0 35 -35q16 -65 25.5 -97.5t24.5 -71.5q15 -40 36 -73t39 -33q17 0 47.5 29t69.5 79q31 40 56 78t59 93q11 18 17 23.5t17 5.5q17 0 30 -8.5
t13 -21.5q0 -10 -6 -19q-67 -118 -125 -192q-46 -57 -85.5 -89.5t-62.5 -39.5l-47 -285q-8 -40 -45 -40q-19 0 -27.5 11.5zM221.5 -166.5q-12.5 12.5 -12.5 32.5q0 25 19 43.5t45 18.5q20 0 33 -12t13 -31q0 -26 -19 -45t-45 -19q-21 0 -33.5 12.5z" />
    <glyph glyph-name="Ygrave" unicode="&#x1ef2;" horiz-adv-x="655" 
d="M261.5 14.5q-8.5 11.5 -5.5 26.5l48 287q-46 17 -98 131q-23 49 -34.5 88.5t-26.5 107.5q-1 3 -1 10q0 17 14 26t33 9q27 0 35 -35q16 -65 25.5 -97.5t24.5 -71.5q15 -40 36 -73t39 -33q17 0 47.5 29t69.5 79q31 40 56 78t59 93q11 18 17 23.5t17 5.5q17 0 30 -8.5
t13 -21.5q0 -10 -6 -19q-67 -118 -125 -192q-46 -57 -85.5 -89.5t-62.5 -39.5l-47 -285q-8 -40 -45 -40q-19 0 -27.5 11.5zM458 760.5q-6 3.5 -13 12.5l-64 86q-11 17 -11 27q0 15 10.5 25.5t23.5 10.5q17 0 33 -24l58 -85q10 -13 10 -24q0 -13 -10 -22.5t-23 -9.5
q-8 0 -14 3.5z" />
    <glyph glyph-name="uni1EF6" unicode="&#x1ef6;" horiz-adv-x="655" 
d="M261.5 14.5q-8.5 11.5 -5.5 26.5l48 287q-46 17 -98 131q-23 49 -34.5 88.5t-26.5 107.5q-1 3 -1 10q0 17 14 26t33 9q27 0 35 -35q16 -65 25.5 -97.5t24.5 -71.5q15 -40 36 -73t39 -33q17 0 47.5 29t69.5 79q31 40 56 78t59 93q11 18 17 23.5t17 5.5q17 0 30 -8.5
t13 -21.5q0 -10 -6 -19q-67 -118 -125 -192q-46 -57 -85.5 -89.5t-62.5 -39.5l-47 -285q-8 -40 -45 -40q-19 0 -27.5 11.5zM404.5 768.5q-7.5 9.5 -5.5 22.5q1 7 8 38q3 11 14 22t30 24q21 15 31.5 25t12.5 22q3 18 -10 29t-39 11q-41 0 -73 -42q-11 -15 -23 -15q-9 0 -17 6
t-8 14q0 11 10 24q23 31 51 48t70 17q45 0 74 -22t29 -56q0 -31 -17 -50t-45 -36q-10 -6 -18 -13t-9 -12l-5 -32q-3 -16 -14 -25t-25 -9t-21.5 9.5z" />
    <glyph glyph-name="uni1EF8" unicode="&#x1ef8;" horiz-adv-x="655" 
d="M261.5 14.5q-8.5 11.5 -5.5 26.5l48 287q-46 17 -98 131q-23 49 -34.5 88.5t-26.5 107.5q-1 3 -1 10q0 17 14 26t33 9q27 0 35 -35q16 -65 25.5 -97.5t24.5 -71.5q15 -40 36 -73t39 -33q17 0 47.5 29t69.5 79q31 40 56 78t59 93q11 18 17 23.5t17 5.5q17 0 30 -8.5
t13 -21.5q0 -10 -6 -19q-67 -118 -125 -192q-46 -57 -85.5 -89.5t-62.5 -39.5l-47 -285q-8 -40 -45 -40q-19 0 -27.5 11.5zM272 772.5q-6 6.5 -6 18.5q0 13 12 25q29 29 50 41t47 12q46 0 84 -22q6 -3 17.5 -9.5t19 -9.5t14.5 -3q13 0 32 17q16 15 28 15q10 0 17 -8t7 -19
q0 -14 -11 -25q-25 -20 -45 -29.5t-40 -9.5q-23 0 -55 18l-20 10q-5 2 -23 10.5t-31 8.5q-10 0 -19.5 -7t-27.5 -24q-19 -16 -33 -16q-11 0 -17 6.5z" />
    <glyph glyph-name="Z" unicode="Z" horiz-adv-x="673" 
d="M501 19q-51 4 -99.5 7t-105.5 3q-67 0 -177 -4l-67 -2q-25 0 -34 7t-9 19q0 24 43 67.5t157 141.5q66 57 148 130q136 121 178.5 160t76.5 75q-115 -11 -188 -11q-59 0 -131.5 5.5t-105.5 13.5q-32 8 -32 29q0 18 11.5 29.5t31.5 11.5l21 -3q122 -16 210 -16q42 0 85.5 3
t104.5 8l37 3q11 1 24 -2.5t21 -10.5q13 -10 13 -25q0 -30 -57 -86.5t-193 -176.5q-2 -2 -44 -38l-133 -116q-70 -59 -105.5 -91t-60.5 -59q135 7 220 7q59 0 103.5 -3t103.5 -10q13 -2 20.5 -9t7.5 -18q0 -18 -14.5 -31t-32.5 -10q-20 2 -28 2z" />
    <glyph glyph-name="Zacute" unicode="&#x179;" horiz-adv-x="673" 
d="M501 19q-51 4 -99.5 7t-105.5 3q-67 0 -177 -4l-67 -2q-25 0 -34 7t-9 19q0 24 43 67.5t157 141.5q66 57 148 130q136 121 178.5 160t76.5 75q-115 -11 -188 -11q-59 0 -131.5 5.5t-105.5 13.5q-32 8 -32 29q0 18 11.5 29.5t31.5 11.5l21 -3q122 -16 210 -16q42 0 85.5 3
t104.5 8l37 3q11 1 24 -2.5t21 -10.5q13 -10 13 -25q0 -30 -57 -86.5t-193 -176.5q-2 -2 -44 -38l-133 -116q-70 -59 -105.5 -91t-60.5 -59q135 7 220 7q59 0 103.5 -3t103.5 -10q13 -2 20.5 -9t7.5 -18q0 -18 -14.5 -31t-32.5 -10q-20 2 -28 2zM369 758.5q-7 6.5 -7 16.5
q0 8 6 17.5t16 18.5l92 81q15 14 24.5 19.5t18.5 5.5q11 0 18.5 -7.5t7.5 -18.5q0 -21 -25 -41l-99 -81q-20 -17 -35 -17q-10 0 -17 6.5z" />
    <glyph glyph-name="Zcaron" unicode="&#x17d;" horiz-adv-x="673" 
d="M501 19q-51 4 -99.5 7t-105.5 3q-67 0 -177 -4l-67 -2q-25 0 -34 7t-9 19q0 24 43 67.5t157 141.5q66 57 148 130q136 121 178.5 160t76.5 75q-115 -11 -188 -11q-59 0 -131.5 5.5t-105.5 13.5q-32 8 -32 29q0 18 11.5 29.5t31.5 11.5l21 -3q122 -16 210 -16q42 0 85.5 3
t104.5 8l37 3q11 1 24 -2.5t21 -10.5q13 -10 13 -25q0 -30 -57 -86.5t-193 -176.5q-2 -2 -44 -38l-133 -116q-70 -59 -105.5 -91t-60.5 -59q135 7 220 7q59 0 103.5 -3t103.5 -10q13 -2 20.5 -9t7.5 -18q0 -18 -14.5 -31t-32.5 -10q-20 2 -28 2zM590.5 936q6.5 -7 6.5 -17
q0 -6 -3 -11.5t-6 -8t-4 -4.5q-56 -63 -93 -96t-69 -33q-19 0 -39.5 22t-54.5 66q-15 21 -25 33q-8 9 -6 22q1 11 12.5 20t22.5 9q14 0 27 -20q59 -90 76 -90q9 0 39 28.5t72 74.5q11 12 28 12q10 0 16.5 -7z" />
    <glyph glyph-name="Zdotaccent" unicode="&#x17b;" horiz-adv-x="673" 
d="M501 19q-51 4 -99.5 7t-105.5 3q-67 0 -177 -4l-67 -2q-25 0 -34 7t-9 19q0 24 43 67.5t157 141.5q66 57 148 130q136 121 178.5 160t76.5 75q-115 -11 -188 -11q-59 0 -131.5 5.5t-105.5 13.5q-32 8 -32 29q0 18 11.5 29.5t31.5 11.5l21 -3q122 -16 210 -16q42 0 85.5 3
t104.5 8l37 3q11 1 24 -2.5t21 -10.5q13 -10 13 -25q0 -30 -57 -86.5t-193 -176.5q-2 -2 -44 -38l-133 -116q-70 -59 -105.5 -91t-60.5 -59q135 7 220 7q59 0 103.5 -3t103.5 -10q13 -2 20.5 -9t7.5 -18q0 -18 -14.5 -31t-32.5 -10q-20 2 -28 2zM396.5 788.5
q-12.5 12.5 -12.5 32.5q0 25 19 43.5t45 18.5q20 0 33 -12t13 -31q0 -26 -19 -45t-45 -19q-21 0 -33.5 12.5z" />
    <glyph glyph-name="uni1E92" unicode="&#x1e92;" horiz-adv-x="673" 
d="M501 19q-51 4 -99.5 7t-105.5 3q-67 0 -177 -4l-67 -2q-25 0 -34 7t-9 19q0 24 43 67.5t157 141.5q66 57 148 130q136 121 178.5 160t76.5 75q-115 -11 -188 -11q-59 0 -131.5 5.5t-105.5 13.5q-32 8 -32 29q0 18 11.5 29.5t31.5 11.5l21 -3q122 -16 210 -16q42 0 85.5 3
t104.5 8l37 3q11 1 24 -2.5t21 -10.5q13 -10 13 -25q0 -30 -57 -86.5t-193 -176.5q-2 -2 -44 -38l-133 -116q-70 -59 -105.5 -91t-60.5 -59q135 7 220 7q59 0 103.5 -3t103.5 -10q13 -2 20.5 -9t7.5 -18q0 -18 -14.5 -31t-32.5 -10q-20 2 -28 2zM227.5 -166.5
q-12.5 12.5 -12.5 32.5q0 25 19 43.5t45 18.5q20 0 33 -12t13 -31q0 -26 -19 -45t-45 -19q-21 0 -33.5 12.5z" />
    <glyph glyph-name="a" unicode="a" horiz-adv-x="623" 
d="M550.5 445.5q-3.5 -12.5 -5.5 -17.5q-6 -14 -16 -51q-17 -63 -34.5 -153.5t-17.5 -123.5q0 -17 6 -25.5t22 -9.5q12 -2 18 -6.5t6 -14.5q0 -18 -9.5 -30t-25.5 -12q-40 0 -57 12.5t-25 46.5q-55 -70 -163 -70q-67 0 -111.5 28.5t-65 74t-20.5 95.5q0 83 34.5 152.5
t97 110.5t142.5 41q50 0 87.5 -21t52.5 -55l10 33q5 17 14 27t27 10q17 0 27 -6.5t10 -16.5q0 -6 -3.5 -18.5zM434 325q0 55 -34 80t-74 25q-55 0 -99.5 -35t-70 -91t-25.5 -115q0 -57 27.5 -95.5t92.5 -38.5q59 0 103 30.5t55 87.5q25 127 25 152z" />
    <glyph glyph-name="aacute" unicode="&#xe1;" horiz-adv-x="623" 
d="M550.5 445.5q-3.5 -12.5 -5.5 -17.5q-6 -14 -16 -51q-17 -63 -34.5 -153.5t-17.5 -123.5q0 -17 6 -25.5t22 -9.5q12 -2 18 -6.5t6 -14.5q0 -18 -9.5 -30t-25.5 -12q-40 0 -57 12.5t-25 46.5q-55 -70 -163 -70q-67 0 -111.5 28.5t-65 74t-20.5 95.5q0 83 34.5 152.5
t97 110.5t142.5 41q50 0 87.5 -21t52.5 -55l10 33q5 17 14 27t27 10q17 0 27 -6.5t10 -16.5q0 -6 -3.5 -18.5zM434 325q0 55 -34 80t-74 25q-55 0 -99.5 -35t-70 -91t-25.5 -115q0 -57 27.5 -95.5t92.5 -38.5q59 0 103 30.5t55 87.5q25 127 25 152zM304 558.5
q-7 6.5 -7 16.5q0 8 6 17.5t16 18.5l92 81q15 14 24.5 19.5t18.5 5.5q11 0 18.5 -7.5t7.5 -18.5q0 -21 -25 -41l-99 -81q-20 -17 -35 -17q-10 0 -17 6.5z" />
    <glyph glyph-name="abreve" unicode="&#x103;" horiz-adv-x="623" 
d="M550.5 445.5q-3.5 -12.5 -5.5 -17.5q-6 -14 -16 -51q-17 -63 -34.5 -153.5t-17.5 -123.5q0 -17 6 -25.5t22 -9.5q12 -2 18 -6.5t6 -14.5q0 -18 -9.5 -30t-25.5 -12q-40 0 -57 12.5t-25 46.5q-55 -70 -163 -70q-67 0 -111.5 28.5t-65 74t-20.5 95.5q0 83 34.5 152.5
t97 110.5t142.5 41q50 0 87.5 -21t52.5 -55l10 33q5 17 14 27t27 10q17 0 27 -6.5t10 -16.5q0 -6 -3.5 -18.5zM434 325q0 55 -34 80t-74 25q-55 0 -99.5 -35t-70 -91t-25.5 -115q0 -57 27.5 -95.5t92.5 -38.5q59 0 103 30.5t55 87.5q25 127 25 152zM295.5 581
q-32.5 15 -50.5 41t-18 56q0 7 2 17q4 14 12.5 22t20.5 8q11 0 19 -4.5t7 -14.5q-1 -5 -1 -14q1 -34 25 -53.5t61 -19.5t69 24.5t39 59.5q2 12 12.5 18.5t22.5 6.5t19 -8t5 -20q-6 -35 -31 -66t-62 -49.5t-78 -18.5t-73.5 15z" />
    <glyph glyph-name="uni1EAF" unicode="&#x1eaf;" horiz-adv-x="623" 
d="M550.5 445.5q-3.5 -12.5 -5.5 -17.5q-6 -14 -16 -51q-17 -63 -34.5 -153.5t-17.5 -123.5q0 -17 6 -25.5t22 -9.5q12 -2 18 -6.5t6 -14.5q0 -18 -9.5 -30t-25.5 -12q-40 0 -57 12.5t-25 46.5q-55 -70 -163 -70q-67 0 -111.5 28.5t-65 74t-20.5 95.5q0 83 34.5 152.5
t97 110.5t142.5 41q50 0 87.5 -21t52.5 -55l10 33q5 17 14 27t27 10q17 0 27 -6.5t10 -16.5q0 -6 -3.5 -18.5zM434 325q0 55 -34 80t-74 25q-55 0 -99.5 -35t-70 -91t-25.5 -115q0 -57 27.5 -95.5t92.5 -38.5q59 0 103 30.5t55 87.5q25 127 25 152zM361 738.5
q-6 6.5 -6 17.5q0 14 19 32l57 51q26 23 41 23q10 0 17 -7t7 -18t-6 -19.5t-17 -17.5l-64 -52q-12 -9 -18.5 -12.5t-13.5 -3.5q-10 0 -16 6.5zM294.5 581q-32.5 15 -50.5 41t-18 56q0 7 2 17q4 14 12.5 22t20.5 8q11 0 19 -4.5t7 -14.5q-1 -5 -1 -14q1 -34 25 -53.5
t61 -19.5t69 24.5t39 59.5q2 12 12.5 18.5t22.5 6.5t19 -8t5 -20q-6 -35 -31 -66t-62 -49.5t-78 -18.5t-73.5 15z" />
    <glyph glyph-name="uni1EB7" unicode="&#x1eb7;" horiz-adv-x="623" 
d="M550.5 445.5q-3.5 -12.5 -5.5 -17.5q-6 -14 -16 -51q-17 -63 -34.5 -153.5t-17.5 -123.5q0 -17 6 -25.5t22 -9.5q12 -2 18 -6.5t6 -14.5q0 -18 -9.5 -30t-25.5 -12q-40 0 -57 12.5t-25 46.5q-55 -70 -163 -70q-67 0 -111.5 28.5t-65 74t-20.5 95.5q0 83 34.5 152.5
t97 110.5t142.5 41q50 0 87.5 -21t52.5 -55l10 33q5 17 14 27t27 10q17 0 27 -6.5t10 -16.5q0 -6 -3.5 -18.5zM434 325q0 55 -34 80t-74 25q-55 0 -99.5 -35t-70 -91t-25.5 -115q0 -57 27.5 -95.5t92.5 -38.5q59 0 103 30.5t55 87.5q25 127 25 152zM197.5 -166.5
q-12.5 12.5 -12.5 32.5q0 25 19 43.5t45 18.5q20 0 33 -12t13 -31q0 -26 -19 -45t-45 -19q-21 0 -33.5 12.5zM295.5 581q-32.5 15 -50.5 41t-18 56q0 7 2 17q4 14 12.5 22t20.5 8q11 0 19 -4.5t7 -14.5q-1 -5 -1 -14q1 -34 25 -53.5t61 -19.5t69 24.5t39 59.5
q2 12 12.5 18.5t22.5 6.5t19 -8t5 -20q-6 -35 -31 -66t-62 -49.5t-78 -18.5t-73.5 15z" />
    <glyph glyph-name="uni1EB1" unicode="&#x1eb1;" horiz-adv-x="623" 
d="M550.5 445.5q-3.5 -12.5 -5.5 -17.5q-6 -14 -16 -51q-17 -63 -34.5 -153.5t-17.5 -123.5q0 -17 6 -25.5t22 -9.5q12 -2 18 -6.5t6 -14.5q0 -18 -9.5 -30t-25.5 -12q-40 0 -57 12.5t-25 46.5q-55 -70 -163 -70q-67 0 -111.5 28.5t-65 74t-20.5 95.5q0 83 34.5 152.5
t97 110.5t142.5 41q50 0 87.5 -21t52.5 -55l10 33q5 17 14 27t27 10q17 0 27 -6.5t10 -16.5q0 -6 -3.5 -18.5zM434 325q0 55 -34 80t-74 25q-55 0 -99.5 -35t-70 -91t-25.5 -115q0 -57 27.5 -95.5t92.5 -38.5q59 0 103 30.5t55 87.5q25 127 25 152zM385.5 741.5
q-5.5 3.5 -12.5 12.5l-46 52q-5 6 -8.5 12.5t-3.5 13.5q0 15 11 25.5t24 10.5q16 0 33 -23l39 -51q9 -13 9 -25q0 -14 -10 -22.5t-22 -8.5q-8 0 -13.5 3.5zM295.5 581q-32.5 15 -50.5 41t-18 56q0 7 2 17q4 14 12.5 22t20.5 8q11 0 19 -4.5t7 -14.5q-1 -5 -1 -14
q1 -34 25 -53.5t61 -19.5t69 24.5t39 59.5q2 12 12.5 18.5t22.5 6.5t19 -8t5 -20q-6 -35 -31 -66t-62 -49.5t-78 -18.5t-73.5 15z" />
    <glyph glyph-name="uni1EB3" unicode="&#x1eb3;" horiz-adv-x="623" 
d="M550.5 445.5q-3.5 -12.5 -5.5 -17.5q-6 -14 -16 -51q-17 -63 -34.5 -153.5t-17.5 -123.5q0 -17 6 -25.5t22 -9.5q12 -2 18 -6.5t6 -14.5q0 -18 -9.5 -30t-25.5 -12q-40 0 -57 12.5t-25 46.5q-55 -70 -163 -70q-67 0 -111.5 28.5t-65 74t-20.5 95.5q0 83 34.5 152.5
t97 110.5t142.5 41q50 0 87.5 -21t52.5 -55l10 33q5 17 14 27t27 10q17 0 27 -6.5t10 -16.5q0 -6 -3.5 -18.5zM434 325q0 55 -34 80t-74 25q-55 0 -99.5 -35t-70 -91t-25.5 -115q0 -57 27.5 -95.5t92.5 -38.5q59 0 103 30.5t55 87.5q25 127 25 152zM378.5 727.5
q-5.5 6.5 -4.5 15.5l5 27q1 8 8.5 15.5t21.5 18.5q14 10 21.5 18t7.5 16q0 19 -30 19q-17 0 -28.5 -7t-16.5 -18q-3 -6 -8.5 -9t-11.5 -3q-16 0 -16 15q0 25 25 43.5t61 18.5q32 0 52 -14t20 -40q0 -19 -9.5 -30.5t-27.5 -22.5q-8 -5 -14.5 -10t-7.5 -11l-5 -25
q-2 -11 -10 -17t-19 -6q-8 0 -13.5 6.5zM296.5 581q-32.5 15 -50.5 41t-18 56q0 7 2 17q4 14 12.5 22t20.5 8q11 0 19 -4.5t7 -14.5q-1 -5 -1 -14q1 -34 25 -53.5t61 -19.5t69 24.5t39 59.5q2 12 12.5 18.5t22.5 6.5t19 -8t5 -20q-6 -35 -31 -66t-62 -49.5t-78 -18.5
t-73.5 15z" />
    <glyph glyph-name="uni1EB5" unicode="&#x1eb5;" horiz-adv-x="623" 
d="M550.5 445.5q-3.5 -12.5 -5.5 -17.5q-6 -14 -16 -51q-17 -63 -34.5 -153.5t-17.5 -123.5q0 -17 6 -25.5t22 -9.5q12 -2 18 -6.5t6 -14.5q0 -18 -9.5 -30t-25.5 -12q-40 0 -57 12.5t-25 46.5q-55 -70 -163 -70q-67 0 -111.5 28.5t-65 74t-20.5 95.5q0 83 34.5 152.5
t97 110.5t142.5 41q50 0 87.5 -21t52.5 -55l10 33q5 17 14 27t27 10q17 0 27 -6.5t10 -16.5q0 -6 -3.5 -18.5zM434 325q0 55 -34 80t-74 25q-55 0 -99.5 -35t-70 -91t-25.5 -115q0 -57 27.5 -95.5t92.5 -38.5q59 0 103 30.5t55 87.5q25 127 25 152zM253.5 774
q-6.5 7 -6.5 16q0 10 6 17q35 39 101 39q20 0 33 -3t32 -10q16 -7 29 -10t31 -3q23 0 41 13q12 9 21 9q11 0 18.5 -7t7.5 -17q0 -8 -10 -18q-27 -32 -87 -32q-32 0 -72 14q-13 5 -27 8.5t-27 3.5q-24 0 -45 -15q-3 -2 -11 -7t-15 -5q-13 0 -19.5 7zM297.5 581
q-32.5 15 -50.5 41t-18 56q0 7 2 17q4 14 12.5 22t20.5 8q11 0 19 -4.5t7 -14.5q-1 -5 -1 -14q1 -34 25 -53.5t61 -19.5t69 24.5t39 59.5q2 12 12.5 18.5t22.5 6.5t19 -8t5 -20q-6 -35 -31 -66t-62 -49.5t-78 -18.5t-73.5 15z" />
    <glyph glyph-name="uni01CE" unicode="&#x1ce;" horiz-adv-x="623" 
d="M550.5 445.5q-3.5 -12.5 -5.5 -17.5q-6 -14 -16 -51q-17 -63 -34.5 -153.5t-17.5 -123.5q0 -17 6 -25.5t22 -9.5q12 -2 18 -6.5t6 -14.5q0 -18 -9.5 -30t-25.5 -12q-40 0 -57 12.5t-25 46.5q-55 -70 -163 -70q-67 0 -111.5 28.5t-65 74t-20.5 95.5q0 83 34.5 152.5
t97 110.5t142.5 41q50 0 87.5 -21t52.5 -55l10 33q5 17 14 27t27 10q17 0 27 -6.5t10 -16.5q0 -6 -3.5 -18.5zM434 325q0 55 -34 80t-74 25q-55 0 -99.5 -35t-70 -91t-25.5 -115q0 -57 27.5 -95.5t92.5 -38.5q59 0 103 30.5t55 87.5q25 127 25 152zM525.5 736
q6.5 -7 6.5 -17q0 -6 -3 -11.5t-6 -8t-4 -4.5q-56 -63 -93 -96t-69 -33q-19 0 -39.5 22t-54.5 66q-15 21 -25 33q-8 9 -6 22q1 11 12.5 20t22.5 9q14 0 27 -20q59 -90 76 -90q9 0 39 28.5t72 74.5q11 12 28 12q10 0 16.5 -7z" />
    <glyph glyph-name="acircumflex" unicode="&#xe2;" horiz-adv-x="623" 
d="M550.5 445.5q-3.5 -12.5 -5.5 -17.5q-6 -14 -16 -51q-17 -63 -34.5 -153.5t-17.5 -123.5q0 -17 6 -25.5t22 -9.5q12 -2 18 -6.5t6 -14.5q0 -18 -9.5 -30t-25.5 -12q-40 0 -57 12.5t-25 46.5q-55 -70 -163 -70q-67 0 -111.5 28.5t-65 74t-20.5 95.5q0 83 34.5 152.5
t97 110.5t142.5 41q50 0 87.5 -21t52.5 -55l10 33q5 17 14 27t27 10q17 0 27 -6.5t10 -16.5q0 -6 -3.5 -18.5zM434 325q0 55 -34 80t-74 25q-55 0 -99.5 -35t-70 -91t-25.5 -115q0 -57 27.5 -95.5t92.5 -38.5q59 0 103 30.5t55 87.5q25 127 25 152zM459 576q-57 102 -74 102
q-8 0 -33.5 -21.5t-74.5 -68.5q-20 -20 -35 -20q-10 0 -17.5 7.5t-7.5 18.5q0 13 14 26q14 10 32 29q48 44 78.5 67.5t50.5 23.5q26 0 46 -23t51 -72l21 -34q6 -8 6 -15q0 -13 -10.5 -23t-23.5 -10q-16 0 -23 13z" />
    <glyph glyph-name="uni1EA5" unicode="&#x1ea5;" horiz-adv-x="623" 
d="M550.5 445.5q-3.5 -12.5 -5.5 -17.5q-6 -14 -16 -51q-17 -63 -34.5 -153.5t-17.5 -123.5q0 -17 6 -25.5t22 -9.5q12 -2 18 -6.5t6 -14.5q0 -18 -9.5 -30t-25.5 -12q-40 0 -57 12.5t-25 46.5q-55 -70 -163 -70q-67 0 -111.5 28.5t-65 74t-20.5 95.5q0 83 34.5 152.5
t97 110.5t142.5 41q50 0 87.5 -21t52.5 -55l10 33q5 17 14 27t27 10q17 0 27 -6.5t10 -16.5q0 -6 -3.5 -18.5zM434 325q0 55 -34 80t-74 25q-55 0 -99.5 -35t-70 -91t-25.5 -115q0 -57 27.5 -95.5t92.5 -38.5q59 0 103 30.5t55 87.5q25 127 25 152zM497.5 711
q-6.5 6 -6.5 16q0 15 19 34l58 51q13 12 22 17.5t18 5.5q11 0 18 -7t7 -18t-6 -19.5t-17 -17.5l-64 -53q-17 -15 -32 -15q-10 0 -16.5 6zM460 577q-57 102 -74 102q-8 0 -33.5 -21.5t-74.5 -68.5q-20 -20 -35 -20q-10 0 -17.5 7.5t-7.5 18.5q0 13 14 26q13 11 32 29
q48 44 78.5 67.5t50.5 23.5q26 0 46 -23t51 -72l21 -34q6 -8 6 -15q0 -13 -10.5 -23t-23.5 -10q-17 0 -23 13z" />
    <glyph glyph-name="uni1EAD" unicode="&#x1ead;" horiz-adv-x="623" 
d="M550.5 445.5q-3.5 -12.5 -5.5 -17.5q-6 -14 -16 -51q-17 -63 -34.5 -153.5t-17.5 -123.5q0 -17 6 -25.5t22 -9.5q12 -2 18 -6.5t6 -14.5q0 -18 -9.5 -30t-25.5 -12q-40 0 -57 12.5t-25 46.5q-55 -70 -163 -70q-67 0 -111.5 28.5t-65 74t-20.5 95.5q0 83 34.5 152.5
t97 110.5t142.5 41q50 0 87.5 -21t52.5 -55l10 33q5 17 14 27t27 10q17 0 27 -6.5t10 -16.5q0 -6 -3.5 -18.5zM434 325q0 55 -34 80t-74 25q-55 0 -99.5 -35t-70 -91t-25.5 -115q0 -57 27.5 -95.5t92.5 -38.5q59 0 103 30.5t55 87.5q25 127 25 152zM197.5 -166.5
q-12.5 12.5 -12.5 32.5q0 25 19 43.5t45 18.5q20 0 33 -12t13 -31q0 -26 -19 -45t-45 -19q-21 0 -33.5 12.5zM459 576q-57 102 -74 102q-8 0 -33.5 -21.5t-74.5 -68.5q-20 -20 -35 -20q-10 0 -17.5 7.5t-7.5 18.5q0 13 14 26q14 10 32 29q48 44 78.5 67.5t50.5 23.5
q26 0 46 -23t51 -72l21 -34q6 -8 6 -15q0 -13 -10.5 -23t-23.5 -10q-16 0 -23 13z" />
    <glyph glyph-name="uni1EA7" unicode="&#x1ea7;" horiz-adv-x="623" 
d="M550.5 445.5q-3.5 -12.5 -5.5 -17.5q-6 -14 -16 -51q-17 -63 -34.5 -153.5t-17.5 -123.5q0 -17 6 -25.5t22 -9.5q12 -2 18 -6.5t6 -14.5q0 -18 -9.5 -30t-25.5 -12q-40 0 -57 12.5t-25 46.5q-55 -70 -163 -70q-67 0 -111.5 28.5t-65 74t-20.5 95.5q0 83 34.5 152.5
t97 110.5t142.5 41q50 0 87.5 -21t52.5 -55l10 33q5 17 14 27t27 10q17 0 27 -6.5t10 -16.5q0 -6 -3.5 -18.5zM434 325q0 55 -34 80t-74 25q-55 0 -99.5 -35t-70 -91t-25.5 -115q0 -57 27.5 -95.5t92.5 -38.5q59 0 103 30.5t55 87.5q25 127 25 152zM527 720l-45 53
q-12 14 -12 27q0 14 11 24.5t25 10.5q8 0 14.5 -5t16.5 -18l40 -51q9 -12 9 -23q0 -13 -9.5 -23t-22.5 -10q-14 0 -27 15zM459 577q-57 102 -74 102q-8 0 -33.5 -21.5t-74.5 -68.5q-20 -20 -35 -20q-10 0 -17.5 7.5t-7.5 18.5q0 13 14 26q14 11 32 29q48 44 78.5 67.5
t50.5 23.5q26 0 46 -23t51 -72l21 -34q6 -8 6 -15q0 -13 -10.5 -23t-23.5 -10q-17 0 -23 13z" />
    <glyph glyph-name="uni1EA9" unicode="&#x1ea9;" horiz-adv-x="623" 
d="M550.5 445.5q-3.5 -12.5 -5.5 -17.5q-6 -14 -16 -51q-17 -63 -34.5 -153.5t-17.5 -123.5q0 -17 6 -25.5t22 -9.5q12 -2 18 -6.5t6 -14.5q0 -18 -9.5 -30t-25.5 -12q-40 0 -57 12.5t-25 46.5q-55 -70 -163 -70q-67 0 -111.5 28.5t-65 74t-20.5 95.5q0 83 34.5 152.5
t97 110.5t142.5 41q50 0 87.5 -21t52.5 -55l10 33q5 17 14 27t27 10q17 0 27 -6.5t10 -16.5q0 -6 -3.5 -18.5zM434 325q0 55 -34 80t-74 25q-55 0 -99.5 -35t-70 -91t-25.5 -115q0 -57 27.5 -95.5t92.5 -38.5q59 0 103 30.5t55 87.5q25 127 25 152zM530.5 708
q-5.5 6 -4.5 15l5 28q1 8 8.5 15t21.5 17q15 11 22.5 18.5t7.5 16.5q0 10 -7 15t-24 5q-16 0 -28 -7t-18 -18q-1 -6 -7 -9.5t-12 -3.5q-16 0 -16 15q0 27 26 45t60 18q30 0 51 -15t21 -38q0 -24 -10 -36t-28 -21q-8 -4 -14 -8.5t-7 -10.5q-2 -9 -4 -25q-2 -11 -10.5 -16.5
t-18.5 -5.5q-9 0 -14.5 6zM459 577q-57 102 -74 102q-8 0 -33.5 -21.5t-74.5 -68.5q-20 -20 -35 -20q-10 0 -17.5 7.5t-7.5 18.5q0 13 14 26q14 11 32 29q48 44 78.5 67.5t50.5 23.5q26 0 46 -23t51 -72l21 -34q6 -8 6 -15q0 -13 -10.5 -23t-23.5 -10q-17 0 -23 13z" />
    <glyph glyph-name="uni1EAB" unicode="&#x1eab;" horiz-adv-x="623" 
d="M550.5 445.5q-3.5 -12.5 -5.5 -17.5q-6 -14 -16 -51q-17 -63 -34.5 -153.5t-17.5 -123.5q0 -17 6 -25.5t22 -9.5q12 -2 18 -6.5t6 -14.5q0 -18 -9.5 -30t-25.5 -12q-40 0 -57 12.5t-25 46.5q-55 -70 -163 -70q-67 0 -111.5 28.5t-65 74t-20.5 95.5q0 83 34.5 152.5
t97 110.5t142.5 41q50 0 87.5 -21t52.5 -55l10 33q5 17 14 27t27 10q17 0 27 -6.5t10 -16.5q0 -6 -3.5 -18.5zM434 325q0 55 -34 80t-74 25q-55 0 -99.5 -35t-70 -91t-25.5 -115q0 -57 27.5 -95.5t92.5 -38.5q59 0 103 30.5t55 87.5q25 127 25 152zM251.5 777.5
q-6.5 5.5 -6.5 15.5q0 13 13 24q29 27 49 38t46 11q20 0 38.5 -5.5t41.5 -16.5q37 -20 53 -20q14 0 35 16q5 3 13.5 9t15.5 6q11 0 17 -7t6 -17q0 -13 -13 -23q-24 -19 -43.5 -27.5t-39.5 -8.5q-16 0 -29 5t-26 11.5t-20 9.5q-34 17 -54 17q-11 0 -22 -7t-27 -21
q-18 -15 -31 -15q-10 0 -16.5 5.5zM459 577q-57 102 -74 102q-8 0 -33.5 -21.5t-74.5 -68.5q-20 -20 -35 -20q-10 0 -17.5 7.5t-7.5 18.5q0 13 14 26q14 11 32 29q48 44 78.5 67.5t50.5 23.5q26 0 46 -23t51 -72l21 -34q6 -8 6 -15q0 -13 -10.5 -23t-23.5 -10q-17 0 -23 13z
" />
    <glyph glyph-name="adieresis" unicode="&#xe4;" horiz-adv-x="623" 
d="M550.5 445.5q-3.5 -12.5 -5.5 -17.5q-6 -14 -16 -51q-17 -63 -34.5 -153.5t-17.5 -123.5q0 -17 6 -25.5t22 -9.5q12 -2 18 -6.5t6 -14.5q0 -18 -9.5 -30t-25.5 -12q-40 0 -57 12.5t-25 46.5q-55 -70 -163 -70q-67 0 -111.5 28.5t-65 74t-20.5 95.5q0 83 34.5 152.5
t97 110.5t142.5 41q50 0 87.5 -21t52.5 -55l10 33q5 17 14 27t27 10q17 0 27 -6.5t10 -16.5q0 -6 -3.5 -18.5zM434 325q0 55 -34 80t-74 25q-55 0 -99.5 -35t-70 -91t-25.5 -115q0 -57 27.5 -95.5t92.5 -38.5q59 0 103 30.5t55 87.5q25 127 25 152zM212.5 588.5
q-12.5 12.5 -12.5 32.5q0 26 19 44t45 18q20 0 33.5 -12.5t13.5 -31.5q0 -25 -20 -44t-45 -19q-21 0 -33.5 12.5zM452.5 588.5q-12.5 12.5 -12.5 32.5q0 26 19 44t45 18q20 0 33 -12t13 -31q0 -25 -19.5 -44.5t-44.5 -19.5q-21 0 -33.5 12.5z" />
    <glyph glyph-name="uni1EA1" unicode="&#x1ea1;" horiz-adv-x="623" 
d="M550.5 445.5q-3.5 -12.5 -5.5 -17.5q-6 -14 -16 -51q-17 -63 -34.5 -153.5t-17.5 -123.5q0 -17 6 -25.5t22 -9.5q12 -2 18 -6.5t6 -14.5q0 -18 -9.5 -30t-25.5 -12q-40 0 -57 12.5t-25 46.5q-55 -70 -163 -70q-67 0 -111.5 28.5t-65 74t-20.5 95.5q0 83 34.5 152.5
t97 110.5t142.5 41q50 0 87.5 -21t52.5 -55l10 33q5 17 14 27t27 10q17 0 27 -6.5t10 -16.5q0 -6 -3.5 -18.5zM434 325q0 55 -34 80t-74 25q-55 0 -99.5 -35t-70 -91t-25.5 -115q0 -57 27.5 -95.5t92.5 -38.5q59 0 103 30.5t55 87.5q25 127 25 152zM197.5 -166.5
q-12.5 12.5 -12.5 32.5q0 25 19 43.5t45 18.5q20 0 33 -12t13 -31q0 -26 -19 -45t-45 -19q-21 0 -33.5 12.5z" />
    <glyph glyph-name="agrave" unicode="&#xe0;" horiz-adv-x="623" 
d="M550.5 445.5q-3.5 -12.5 -5.5 -17.5q-6 -14 -16 -51q-17 -63 -34.5 -153.5t-17.5 -123.5q0 -17 6 -25.5t22 -9.5q12 -2 18 -6.5t6 -14.5q0 -18 -9.5 -30t-25.5 -12q-40 0 -57 12.5t-25 46.5q-55 -70 -163 -70q-67 0 -111.5 28.5t-65 74t-20.5 95.5q0 83 34.5 152.5
t97 110.5t142.5 41q50 0 87.5 -21t52.5 -55l10 33q5 17 14 27t27 10q17 0 27 -6.5t10 -16.5q0 -6 -3.5 -18.5zM434 325q0 55 -34 80t-74 25q-55 0 -99.5 -35t-70 -91t-25.5 -115q0 -57 27.5 -95.5t92.5 -38.5q59 0 103 30.5t55 87.5q25 127 25 152zM399 560.5
q-6 3.5 -13 12.5l-64 86q-11 17 -11 27q0 15 10.5 25.5t23.5 10.5q17 0 33 -24l58 -85q10 -13 10 -24q0 -13 -10 -22.5t-23 -9.5q-8 0 -14 3.5z" />
    <glyph glyph-name="uni1EA3" unicode="&#x1ea3;" horiz-adv-x="623" 
d="M550.5 445.5q-3.5 -12.5 -5.5 -17.5q-6 -14 -16 -51q-17 -63 -34.5 -153.5t-17.5 -123.5q0 -17 6 -25.5t22 -9.5q12 -2 18 -6.5t6 -14.5q0 -18 -9.5 -30t-25.5 -12q-40 0 -57 12.5t-25 46.5q-55 -70 -163 -70q-67 0 -111.5 28.5t-65 74t-20.5 95.5q0 83 34.5 152.5
t97 110.5t142.5 41q50 0 87.5 -21t52.5 -55l10 33q5 17 14 27t27 10q17 0 27 -6.5t10 -16.5q0 -6 -3.5 -18.5zM434 325q0 55 -34 80t-74 25q-55 0 -99.5 -35t-70 -91t-25.5 -115q0 -57 27.5 -95.5t92.5 -38.5q59 0 103 30.5t55 87.5q25 127 25 152zM345.5 568.5
q-7.5 9.5 -5.5 22.5q1 7 8 38q3 11 14 22t30 24q21 15 31.5 25t12.5 22q3 18 -10 29t-39 11q-41 0 -73 -42q-11 -15 -23 -15q-9 0 -17 6t-8 14q0 11 10 24q23 31 51 48t70 17q45 0 74 -22t29 -56q0 -31 -17 -50t-45 -36q-10 -6 -18 -13t-9 -12l-5 -32q-3 -16 -14 -25t-25 -9
t-21.5 9.5z" />
    <glyph glyph-name="uni0251" unicode="&#x251;" horiz-adv-x="623" 
d="M550.5 445.5q-3.5 -12.5 -5.5 -17.5q-6 -14 -16 -51q-17 -63 -34.5 -153.5t-17.5 -123.5q0 -17 6 -25.5t22 -9.5q12 -2 18 -6.5t6 -14.5q0 -18 -9.5 -30t-25.5 -12q-40 0 -57 12.5t-25 46.5q-55 -70 -163 -70q-67 0 -111.5 28.5t-65 74t-20.5 95.5q0 83 34.5 152.5
t97 110.5t142.5 41q50 0 87.5 -21t52.5 -55l10 33q5 17 14 27t27 10q17 0 27 -6.5t10 -16.5q0 -6 -3.5 -18.5zM434 325q0 55 -34 80t-74 25q-55 0 -99.5 -35t-70 -91t-25.5 -115q0 -57 27.5 -95.5t92.5 -38.5q59 0 103 30.5t55 87.5q25 127 25 152z" />
    <glyph glyph-name="amacron" unicode="&#x101;" horiz-adv-x="623" 
d="M550.5 445.5q-3.5 -12.5 -5.5 -17.5q-6 -14 -16 -51q-17 -63 -34.5 -153.5t-17.5 -123.5q0 -17 6 -25.5t22 -9.5q12 -2 18 -6.5t6 -14.5q0 -18 -9.5 -30t-25.5 -12q-40 0 -57 12.5t-25 46.5q-55 -70 -163 -70q-67 0 -111.5 28.5t-65 74t-20.5 95.5q0 83 34.5 152.5
t97 110.5t142.5 41q50 0 87.5 -21t52.5 -55l10 33q5 17 14 27t27 10q17 0 27 -6.5t10 -16.5q0 -6 -3.5 -18.5zM434 325q0 55 -34 80t-74 25q-55 0 -99.5 -35t-70 -91t-25.5 -115q0 -57 27.5 -95.5t92.5 -38.5q59 0 103 30.5t55 87.5q25 127 25 152zM183 590q-5 6 -5 16
q0 15 9 26t25 13q5 1 43.5 7.5t123.5 6.5h148q15 0 23 -9t5 -24q-6 -28 -37 -28q-18 0 -32 1l-109 1q-67 0 -146 -12q-32 -4 -34 -4q-9 0 -14 6z" />
    <glyph glyph-name="aogonek" unicode="&#x105;" horiz-adv-x="623" 
d="M550.5 445.5q-3.5 -12.5 -5.5 -17.5q-6 -14 -16 -51q-17 -63 -34.5 -153.5t-17.5 -123.5q0 -17 6 -25.5t22 -9.5q12 -2 18 -6.5t6 -14.5q0 -12 -5 -22t-13 -15l-3 -3q-34 -24 -51 -43.5t-17 -42.5q0 -25 37 -25q7 0 19.5 3.5t15.5 3.5q6 0 10 -4.5t4 -11.5
q0 -21 -14.5 -31.5t-40.5 -10.5q-38 0 -64.5 21.5t-26.5 54.5q0 28 14.5 50.5t43.5 45.5q-19 13 -26 47q-55 -70 -163 -70q-67 0 -111.5 28.5t-65 74t-20.5 95.5q0 83 34.5 152.5t97 110.5t142.5 41q50 0 87.5 -21t52.5 -55l10 33q5 17 14 27t27 10q17 0 27 -6.5t10 -16.5
q0 -6 -3.5 -18.5zM434 325q0 55 -34 80t-74 25q-55 0 -99.5 -35t-70 -91t-25.5 -115q0 -57 27.5 -95.5t92.5 -38.5q59 0 103 30.5t55 87.5q25 127 25 152z" />
    <glyph glyph-name="aring" unicode="&#xe5;" horiz-adv-x="623" 
d="M550.5 445.5q-3.5 -12.5 -5.5 -17.5q-6 -14 -16 -51q-17 -63 -34.5 -153.5t-17.5 -123.5q0 -17 6 -25.5t22 -9.5q12 -2 18 -6.5t6 -14.5q0 -18 -9.5 -30t-25.5 -12q-40 0 -57 12.5t-25 46.5q-55 -70 -163 -70q-67 0 -111.5 28.5t-65 74t-20.5 95.5q0 83 34.5 152.5
t97 110.5t142.5 41q50 0 87.5 -21t52.5 -55l10 33q5 17 14 27t27 10q17 0 27 -6.5t10 -16.5q0 -6 -3.5 -18.5zM434 325q0 55 -34 80t-74 25q-55 0 -99.5 -35t-70 -91t-25.5 -115q0 -57 27.5 -95.5t92.5 -38.5q59 0 103 30.5t55 87.5q25 127 25 152zM295.5 564
q-27.5 27 -27.5 66q0 33 17 61t47 44.5t65 16.5q39 0 65 -28t26 -65q0 -51 -36.5 -86.5t-88.5 -35.5q-40 0 -67.5 27zM417.5 607.5q20.5 19.5 20.5 47.5q0 19 -13.5 33t-35.5 14q-28 0 -48.5 -20.5t-20.5 -46.5q0 -20 13.5 -33.5t35.5 -13.5q28 0 48.5 19.5z" />
    <glyph glyph-name="aringacute" unicode="&#x1fb;" horiz-adv-x="623" 
d="M550.5 445.5q-3.5 -12.5 -5.5 -17.5q-6 -14 -16 -51q-17 -63 -34.5 -153.5t-17.5 -123.5q0 -17 6 -25.5t22 -9.5q12 -2 18 -6.5t6 -14.5q0 -18 -9.5 -30t-25.5 -12q-40 0 -57 12.5t-25 46.5q-55 -70 -163 -70q-67 0 -111.5 28.5t-65 74t-20.5 95.5q0 83 34.5 152.5
t97 110.5t142.5 41q50 0 87.5 -21t52.5 -55l10 33q5 17 14 27t27 10q17 0 27 -6.5t10 -16.5q0 -6 -3.5 -18.5zM434 325q0 55 -34 80t-74 25q-55 0 -99.5 -35t-70 -91t-25.5 -115q0 -57 27.5 -95.5t92.5 -38.5q59 0 103 30.5t55 87.5q25 127 25 152zM295.5 564
q-27.5 27 -27.5 66q0 33 17 61t47 44.5t65 16.5q39 0 65 -28t26 -65q0 -51 -36.5 -86.5t-88.5 -35.5q-40 0 -67.5 27zM417.5 607.5q20.5 19.5 20.5 47.5q0 19 -13.5 33t-35.5 14q-28 0 -48.5 -20.5t-20.5 -46.5q0 -20 13.5 -33.5t35.5 -13.5q28 0 48.5 19.5zM349 810.5
q-7 6.5 -7 16.5q0 8 6 17.5t16 18.5l92 81q15 14 24.5 19.5t18.5 5.5q11 0 18.5 -7.5t7.5 -18.5q0 -21 -25 -41l-99 -81q-20 -17 -35 -17q-10 0 -17 6.5z" />
    <glyph glyph-name="atilde" unicode="&#xe3;" horiz-adv-x="623" 
d="M550.5 445.5q-3.5 -12.5 -5.5 -17.5q-6 -14 -16 -51q-17 -63 -34.5 -153.5t-17.5 -123.5q0 -17 6 -25.5t22 -9.5q12 -2 18 -6.5t6 -14.5q0 -18 -9.5 -30t-25.5 -12q-40 0 -57 12.5t-25 46.5q-55 -70 -163 -70q-67 0 -111.5 28.5t-65 74t-20.5 95.5q0 83 34.5 152.5
t97 110.5t142.5 41q50 0 87.5 -21t52.5 -55l10 33q5 17 14 27t27 10q17 0 27 -6.5t10 -16.5q0 -6 -3.5 -18.5zM434 325q0 55 -34 80t-74 25q-55 0 -99.5 -35t-70 -91t-25.5 -115q0 -57 27.5 -95.5t92.5 -38.5q59 0 103 30.5t55 87.5q25 127 25 152zM213 572.5
q-6 6.5 -6 18.5q0 13 12 25q29 29 50 41t47 12q46 0 84 -22q6 -3 17.5 -9.5t19 -9.5t14.5 -3q13 0 32 17q16 15 28 15q10 0 17 -8t7 -19q0 -14 -11 -25q-25 -20 -45 -29.5t-40 -9.5q-23 0 -55 18l-20 10q-5 2 -23 10.5t-31 8.5q-10 0 -19.5 -7t-27.5 -24q-19 -16 -33 -16
q-11 0 -17 6.5z" />
    <glyph glyph-name="ae" unicode="&#xe6;" horiz-adv-x="993" 
d="M836.5 488q49.5 -26 77.5 -68.5t28 -88.5q0 -15 -3 -30q-6 -30 -19 -40t-42 -11l-374 -9l-2 -15q-4 -21 -4 -45q0 -68 36.5 -98.5t117.5 -30.5q116 0 186 93q10 13 26 13q12 0 20.5 -9t8.5 -21q0 -15 -13 -32q-82 -106 -228 -106q-81 0 -132.5 26.5t-67.5 75.5
q-26 -48 -81.5 -75t-131.5 -27q-104 0 -152 32.5t-48 103.5q0 83 54 124t168 44l180 4l2 14q2 16 2 24q0 49 -33 80t-97 31q-57 0 -94.5 -17t-81.5 -55q-10 -9 -23 -9q-14 0 -22 9.5t-8 18.5q0 14 18 30q48 43 98 64.5t113 21.5q68 0 119 -34t62 -87q35 55 95.5 90t135.5 35
q60 0 109.5 -26zM637.5 432.5q-43.5 -20.5 -75.5 -56t-45 -76.5l349 9l2 10q1 5 1 14q0 29 -17 56.5t-49 45.5t-76 18q-46 0 -89.5 -20.5zM430 238l-169 -4q-76 -2 -112.5 -29t-36.5 -79q0 -40 30.5 -57.5t96.5 -17.5q69 0 119.5 29.5t59.5 83.5z" />
    <glyph glyph-name="aeacute" unicode="&#x1fd;" horiz-adv-x="993" 
d="M836.5 488q49.5 -26 77.5 -68.5t28 -88.5q0 -15 -3 -30q-6 -30 -19 -40t-42 -11l-374 -9l-2 -15q-4 -21 -4 -45q0 -68 36.5 -98.5t117.5 -30.5q116 0 186 93q10 13 26 13q12 0 20.5 -9t8.5 -21q0 -15 -13 -32q-82 -106 -228 -106q-81 0 -132.5 26.5t-67.5 75.5
q-26 -48 -81.5 -75t-131.5 -27q-104 0 -152 32.5t-48 103.5q0 83 54 124t168 44l180 4l2 14q2 16 2 24q0 49 -33 80t-97 31q-57 0 -94.5 -17t-81.5 -55q-10 -9 -23 -9q-14 0 -22 9.5t-8 18.5q0 14 18 30q48 43 98 64.5t113 21.5q68 0 119 -34t62 -87q35 55 95.5 90t135.5 35
q60 0 109.5 -26zM637.5 432.5q-43.5 -20.5 -75.5 -56t-45 -76.5l349 9l2 10q1 5 1 14q0 29 -17 56.5t-49 45.5t-76 18q-46 0 -89.5 -20.5zM430 238l-169 -4q-76 -2 -112.5 -29t-36.5 -79q0 -40 30.5 -57.5t96.5 -17.5q69 0 119.5 29.5t59.5 83.5zM468 568q-6 6 -7 15
q0 16 15 31l106 106q13 13 22 18t20 5q12 0 19.5 -7t7.5 -18t-6.5 -21.5t-20.5 -23.5l-105 -94q-10 -10 -18 -13.5t-17 -3.5q-10 0 -16 6z" />
    <glyph glyph-name="b" unicode="b" horiz-adv-x="637" 
d="M471 480.5q52 -25.5 81.5 -72.5t29.5 -109q0 -88 -37 -156.5t-103 -107t-150 -38.5q-44 0 -83 13.5t-66 33t-34 37.5q-9 -22 -29 -41t-37 -26q-8 -4 -17 -4q-14 0 -21.5 10.5t-7.5 23.5q0 10 13 18q27 16 38 39q8 17 13 40.5t15 89.5q4 24 9.5 61.5t14.5 92.5l18 111
q43 275 52 343q1 15 14 23.5t30 8.5q16 0 25 -8t7 -22q-11 -85 -37 -248l-24 -155q66 68 170 68q64 0 116 -25.5zM402.5 92q48.5 32 75 86.5t26.5 118.5q0 70 -40.5 108t-108.5 38q-55 0 -103.5 -30t-77.5 -67l-16 -90q-4 -24 -8 -52.5t-4 -37.5q0 -29 20 -53t53.5 -38.5
t72.5 -14.5q62 0 110.5 32z" />
    <glyph glyph-name="c" unicode="c" horiz-adv-x="588" 
d="M155 29q-51 28 -77.5 74.5t-26.5 101.5q0 83 39.5 154t108 112.5t151.5 41.5q50 0 97.5 -21t76.5 -56t29 -74q0 -33 -39 -33q-15 0 -24 7t-9 20q0 22 -16.5 44t-46.5 36t-68 14q-60 0 -111.5 -35.5t-81.5 -92.5t-30 -117q0 -62 39 -101.5t109 -39.5q52 0 97 21t71 53
t26 63q0 10 10 17t25 7q16 0 24.5 -5.5t8.5 -19.5q0 -56 -38.5 -101.5t-99 -71.5t-124.5 -26q-69 0 -120 28z" />
    <glyph glyph-name="cacute" unicode="&#x107;" horiz-adv-x="588" 
d="M155 29q-51 28 -77.5 74.5t-26.5 101.5q0 83 39.5 154t108 112.5t151.5 41.5q50 0 97.5 -21t76.5 -56t29 -74q0 -33 -39 -33q-15 0 -24 7t-9 20q0 22 -16.5 44t-46.5 36t-68 14q-60 0 -111.5 -35.5t-81.5 -92.5t-30 -117q0 -62 39 -101.5t109 -39.5q52 0 97 21t71 53
t26 63q0 10 10 17t25 7q16 0 24.5 -5.5t8.5 -19.5q0 -56 -38.5 -101.5t-99 -71.5t-124.5 -26q-69 0 -120 28zM308 558.5q-7 6.5 -7 16.5q0 8 6 17.5t16 18.5l92 81q15 14 24.5 19.5t18.5 5.5q11 0 18.5 -7.5t7.5 -18.5q0 -21 -25 -41l-99 -81q-20 -17 -35 -17q-10 0 -17 6.5
z" />
    <glyph glyph-name="ccaron" unicode="&#x10d;" horiz-adv-x="588" 
d="M155 29q-51 28 -77.5 74.5t-26.5 101.5q0 83 39.5 154t108 112.5t151.5 41.5q50 0 97.5 -21t76.5 -56t29 -74q0 -33 -39 -33q-15 0 -24 7t-9 20q0 22 -16.5 44t-46.5 36t-68 14q-60 0 -111.5 -35.5t-81.5 -92.5t-30 -117q0 -62 39 -101.5t109 -39.5q52 0 97 21t71 53
t26 63q0 10 10 17t25 7q16 0 24.5 -5.5t8.5 -19.5q0 -56 -38.5 -101.5t-99 -71.5t-124.5 -26q-69 0 -120 28zM529.5 736q6.5 -7 6.5 -17q0 -6 -3 -11.5t-6 -8t-4 -4.5q-56 -63 -93 -96t-69 -33q-19 0 -39.5 22t-54.5 66q-15 21 -25 33q-8 9 -6 22q1 11 12.5 20t22.5 9
q14 0 27 -20q59 -90 76 -90q9 0 39 28.5t72 74.5q11 12 28 12q10 0 16.5 -7z" />
    <glyph glyph-name="ccedilla" unicode="&#xe7;" horiz-adv-x="588" 
d="M238.5 414.5q-51.5 -35.5 -81.5 -92.5t-30 -117q0 -62 39 -101.5t109 -39.5q52 0 97 21t71 53t26 63q0 10 10 17t25 7q16 0 24.5 -5.5t8.5 -19.5q0 -52 -33 -95t-86.5 -70t-112.5 -33l-46 -56q33 -8 53 -28.5t20 -53.5q0 -44 -37.5 -65.5t-101.5 -21.5q-19 0 -44 4.5
t-40 9.5q-16 6 -16 25q0 14 10 24t24 10q4 -1 27 -7t41 -6q36 0 53.5 5t17.5 26q0 15 -11.5 20t-30.5 8.5t-26 4.5q-12 1 -19 7t-7 15q0 6 3 12l57 69q-85 12 -133 68.5t-48 132.5q0 83 39.5 154t108 112.5t151.5 41.5q50 0 97.5 -21t76.5 -56t29 -74q0 -33 -39 -33
q-15 0 -24 7t-9 20q0 22 -16.5 44t-46.5 36t-68 14q-60 0 -111.5 -35.5z" />
    <glyph glyph-name="ccircumflex" unicode="&#x109;" horiz-adv-x="588" 
d="M155 29q-51 28 -77.5 74.5t-26.5 101.5q0 83 39.5 154t108 112.5t151.5 41.5q50 0 97.5 -21t76.5 -56t29 -74q0 -33 -39 -33q-15 0 -24 7t-9 20q0 22 -16.5 44t-46.5 36t-68 14q-60 0 -111.5 -35.5t-81.5 -92.5t-30 -117q0 -62 39 -101.5t109 -39.5q52 0 97 21t71 53
t26 63q0 10 10 17t25 7q16 0 24.5 -5.5t8.5 -19.5q0 -56 -38.5 -101.5t-99 -71.5t-124.5 -26q-69 0 -120 28zM463 576q-57 102 -74 102q-8 0 -33.5 -21.5t-74.5 -68.5q-20 -20 -35 -20q-10 0 -17.5 7.5t-7.5 18.5q0 13 14 26q14 10 32 29q48 44 78.5 67.5t50.5 23.5
q26 0 46 -23t51 -72l21 -34q6 -8 6 -15q0 -13 -10.5 -23t-23.5 -10q-16 0 -23 13z" />
    <glyph glyph-name="cdotaccent" unicode="&#x10b;" horiz-adv-x="588" 
d="M155 29q-51 28 -77.5 74.5t-26.5 101.5q0 83 39.5 154t108 112.5t151.5 41.5q50 0 97.5 -21t76.5 -56t29 -74q0 -33 -39 -33q-15 0 -24 7t-9 20q0 22 -16.5 44t-46.5 36t-68 14q-60 0 -111.5 -35.5t-81.5 -92.5t-30 -117q0 -62 39 -101.5t109 -39.5q52 0 97 21t71 53
t26 63q0 10 10 17t25 7q16 0 24.5 -5.5t8.5 -19.5q0 -56 -38.5 -101.5t-99 -71.5t-124.5 -26q-69 0 -120 28zM335.5 588.5q-12.5 12.5 -12.5 32.5q0 25 19 43.5t45 18.5q20 0 33 -12t13 -31q0 -26 -19 -45t-45 -19q-21 0 -33.5 12.5z" />
    <glyph glyph-name="d" unicode="d" horiz-adv-x="634" 
d="M112 46.5q-60 50.5 -60 147.5q0 85 40 157t109 114t151 42q61 0 104.5 -21t64.5 -58l82 414q3 14 15 23t28 9q17 0 26.5 -9.5t6.5 -24.5l-132 -688q-3 -17 -4.5 -36.5t-0.5 -27.5q1 -17 11 -29.5t10 -13.5q0 -3 -8.5 -14.5t-20 -21.5t-21.5 -10q-22 0 -37.5 24.5
t-14.5 58.5q-68 -86 -192 -86q-97 0 -157 50.5zM367.5 83q41.5 19 69 50.5t34.5 67.5l29 153q-13 37 -55 61.5t-95 24.5q-60 0 -110.5 -32.5t-80 -86t-29.5 -113.5q0 -70 42 -107t107 -37q47 0 88.5 19z" />
    <glyph glyph-name="eth" unicode="&#xf0;" horiz-adv-x="614" 
d="M548.5 461.5q15.5 -65.5 15.5 -127.5q0 -98 -36 -173.5t-102.5 -117t-157.5 -41.5q-64 0 -112.5 28t-75 75t-26.5 102q0 81 38 149t104.5 108t147.5 40q63 0 114 -27q-13 33 -28 61q-23 39 -52 68l-91 -46q-14 -7 -25 -7q-15 0 -22 9t-5 23t21 24l72 37q-33 23 -60 32
q-14 6 -14 20q0 15 12 28.5t29 13.5q12 0 34 -11q47 -23 74 -44l91 47q10 5 17 5q12 0 21 -8t9 -19q0 -12 -7 -19.5t-21 -15.5l-62 -32q30 -30 52 -67q30 -49 45.5 -114.5zM381.5 102.5q48.5 35.5 74.5 95.5t26 132q0 14 -1 22q-22 45 -57.5 67t-79.5 22q-57 0 -106 -34.5
t-78 -89t-29 -110.5q0 -62 37 -101t100 -39q65 0 113.5 35.5z" />
    <glyph glyph-name="dcaron" unicode="&#x10f;" horiz-adv-x="772" 
d="M112 46.5q-60 50.5 -60 147.5q0 85 40 157t109 114t151 42q61 0 104.5 -21t64.5 -58l82 414q3 14 15 23t28 9q17 0 26.5 -9.5t6.5 -24.5l-132 -688q-3 -17 -4.5 -36.5t-0.5 -27.5q1 -17 11 -29.5t10 -13.5q0 -3 -8.5 -14.5t-20 -21.5t-21.5 -10q-22 0 -37.5 24.5
t-14.5 58.5q-68 -86 -192 -86q-97 0 -157 50.5zM367.5 83q41.5 19 69 50.5t34.5 67.5l29 153q-13 37 -55 61.5t-95 24.5q-60 0 -110.5 -32.5t-80 -86t-29.5 -113.5q0 -70 42 -107t107 -37q47 0 88.5 19zM842.5 821q13.5 -14 13.5 -34q0 -64 -111 -151q-2 -1 -5.5 -4t-8.5 -3
q-11 0 -18 7.5t-7 16.5q0 6 3.5 9.5t4.5 5.5q2 2 24.5 20t36.5 38q-15 0 -26 12.5t-11 29.5q0 27 21.5 47t48.5 20q21 0 34.5 -14z" />
    <glyph glyph-name="dcroat" unicode="&#x111;" horiz-adv-x="721" 
d="M742 706q9 -6 9 -17q0 -17 -12 -28t-31 -11l-66 -1l-95 -497q-3 -17 -4.5 -36.5t-0.5 -27.5q1 -17 11 -29.5t10 -13.5q0 -3 -8.5 -14.5t-20 -21.5t-21.5 -10q-22 0 -37.5 24.5t-14.5 58.5q-68 -86 -192 -86q-97 0 -157 50.5t-60 147.5q0 85 40 157t109 114t151 42
q61 0 104.5 -21t64.5 -58l43 219l-83 -1q-14 0 -22 6.5t-8 17.5q0 16 11 25t29 10l85 2l27 135q3 14 15 23t28 9q17 0 26.5 -9.5t6.5 -24.5l-25 -131l64 2q15 1 24 -5zM500 354q-13 37 -55 61.5t-95 24.5q-60 0 -110.5 -32.5t-80 -86t-29.5 -113.5q0 -70 42 -107t107 -37
q47 0 88.5 19t69 50.5t34.5 67.5z" />
    <glyph glyph-name="uni1E0D" unicode="&#x1e0d;" horiz-adv-x="634" 
d="M112 46.5q-60 50.5 -60 147.5q0 85 40 157t109 114t151 42q61 0 104.5 -21t64.5 -58l82 414q3 14 15 23t28 9q17 0 26.5 -9.5t6.5 -24.5l-132 -688q-3 -17 -4.5 -36.5t-0.5 -27.5q1 -17 11 -29.5t10 -13.5q0 -3 -8.5 -14.5t-20 -21.5t-21.5 -10q-22 0 -37.5 24.5
t-14.5 58.5q-68 -86 -192 -86q-97 0 -157 50.5zM367.5 83q41.5 19 69 50.5t34.5 67.5l29 153q-13 37 -55 61.5t-95 24.5q-60 0 -110.5 -32.5t-80 -86t-29.5 -113.5q0 -70 42 -107t107 -37q47 0 88.5 19zM205.5 -166.5q-12.5 12.5 -12.5 32.5q0 25 19 43.5t45 18.5
q20 0 33 -12t13 -31q0 -26 -19 -45t-45 -19q-21 0 -33.5 12.5z" />
    <glyph glyph-name="uni1E0F" unicode="&#x1e0f;" horiz-adv-x="634" 
d="M112 46.5q-60 50.5 -60 147.5q0 85 40 157t109 114t151 42q61 0 104.5 -21t64.5 -58l82 414q3 14 15 23t28 9q17 0 26.5 -9.5t6.5 -24.5l-132 -688q-3 -17 -4.5 -36.5t-0.5 -27.5q1 -17 11 -29.5t10 -13.5q0 -3 -8.5 -14.5t-20 -21.5t-21.5 -10q-22 0 -37.5 24.5
t-14.5 58.5q-68 -86 -192 -86q-97 0 -157 50.5zM367.5 83q41.5 19 69 50.5t34.5 67.5l29 153q-13 37 -55 61.5t-95 24.5q-60 0 -110.5 -32.5t-80 -86t-29.5 -113.5q0 -70 42 -107t107 -37q47 0 88.5 19zM93 -157q-6 6 -6 17q0 15 8.5 25.5t21.5 12.5q75 9 184 9q35 0 73 -2
q12 -1 29 -1q13 0 20.5 -7t7.5 -18q0 -16 -11 -25.5t-27 -9.5l-26 1q-57 3 -78 3q-50 0 -143 -8q-25 -3 -38 -3q-9 0 -15 6z" />
    <glyph glyph-name="e" unicode="e" horiz-adv-x="619" 
d="M162 25.5q-52 29.5 -79 79t-27 107.5q0 80 39.5 149.5t108.5 110.5t153 41q61 0 109 -22t74.5 -61.5t26.5 -91.5q0 -50 -14.5 -73.5t-48.5 -23.5l-375 -8q-2 -18 -2 -25q0 -64 44.5 -105.5t114.5 -41.5q42 0 74 12.5t51.5 28.5t49.5 45q9 9 20 9q12 0 23 -8.5t11 -19.5
q0 -13 -12 -26q-27 -31 -50 -51t-65.5 -37.5t-101.5 -17.5q-72 0 -124 29.5zM486 302q12 0 15 7.5t3 27.5q0 51 -40.5 82.5t-106.5 31.5q-55 0 -103 -28t-79 -66t-35 -64z" />
    <glyph glyph-name="eacute" unicode="&#xe9;" horiz-adv-x="619" 
d="M162 25.5q-52 29.5 -79 79t-27 107.5q0 80 39.5 149.5t108.5 110.5t153 41q61 0 109 -22t74.5 -61.5t26.5 -91.5q0 -50 -14.5 -73.5t-48.5 -23.5l-375 -8q-2 -18 -2 -25q0 -64 44.5 -105.5t114.5 -41.5q42 0 74 12.5t51.5 28.5t49.5 45q9 9 20 9q12 0 23 -8.5t11 -19.5
q0 -13 -12 -26q-27 -31 -50 -51t-65.5 -37.5t-101.5 -17.5q-72 0 -124 29.5zM486 302q12 0 15 7.5t3 27.5q0 51 -40.5 82.5t-106.5 31.5q-55 0 -103 -28t-79 -66t-35 -64zM307 568q-6 6 -7 15q0 16 15 31l106 106q13 13 22 18t20 5q12 0 19.5 -7t7.5 -18t-6.5 -21.5
t-20.5 -23.5l-105 -94q-10 -10 -18 -13.5t-17 -3.5q-10 0 -16 6z" />
    <glyph glyph-name="ebreve" unicode="&#x115;" horiz-adv-x="619" 
d="M162 25.5q-52 29.5 -79 79t-27 107.5q0 80 39.5 149.5t108.5 110.5t153 41q61 0 109 -22t74.5 -61.5t26.5 -91.5q0 -50 -14.5 -73.5t-48.5 -23.5l-375 -8q-2 -18 -2 -25q0 -64 44.5 -105.5t114.5 -41.5q42 0 74 12.5t51.5 28.5t49.5 45q9 9 20 9q12 0 23 -8.5t11 -19.5
q0 -13 -12 -26q-27 -31 -50 -51t-65.5 -37.5t-101.5 -17.5q-72 0 -124 29.5zM486 302q12 0 15 7.5t3 27.5q0 51 -40.5 82.5t-106.5 31.5q-55 0 -103 -28t-79 -66t-35 -64zM303.5 581q-32.5 15 -50.5 41t-18 56q0 7 2 17q4 14 12.5 22t20.5 8q11 0 19 -4.5t7 -14.5
q-1 -5 -1 -14q1 -34 25 -53.5t61 -19.5t69 24.5t39 59.5q2 12 12.5 18.5t22.5 6.5t19 -8t5 -20q-6 -35 -31 -66t-62 -49.5t-78 -18.5t-73.5 15z" />
    <glyph glyph-name="ecaron" unicode="&#x11b;" horiz-adv-x="619" 
d="M162 25.5q-52 29.5 -79 79t-27 107.5q0 80 39.5 149.5t108.5 110.5t153 41q61 0 109 -22t74.5 -61.5t26.5 -91.5q0 -50 -14.5 -73.5t-48.5 -23.5l-375 -8q-2 -18 -2 -25q0 -64 44.5 -105.5t114.5 -41.5q42 0 74 12.5t51.5 28.5t49.5 45q9 9 20 9q12 0 23 -8.5t11 -19.5
q0 -13 -12 -26q-27 -31 -50 -51t-65.5 -37.5t-101.5 -17.5q-72 0 -124 29.5zM486 302q12 0 15 7.5t3 27.5q0 51 -40.5 82.5t-106.5 31.5q-55 0 -103 -28t-79 -66t-35 -64zM533.5 736q6.5 -7 6.5 -17q0 -6 -3 -11.5t-6 -8t-4 -4.5q-56 -63 -93 -96t-69 -33q-19 0 -39.5 22
t-54.5 66q-15 21 -25 33q-8 9 -6 22q1 11 12.5 20t22.5 9q14 0 27 -20q59 -90 76 -90q9 0 39 28.5t72 74.5q11 12 28 12q10 0 16.5 -7z" />
    <glyph glyph-name="ecircumflex" unicode="&#xea;" horiz-adv-x="619" 
d="M162 25.5q-52 29.5 -79 79t-27 107.5q0 80 39.5 149.5t108.5 110.5t153 41q61 0 109 -22t74.5 -61.5t26.5 -91.5q0 -50 -14.5 -73.5t-48.5 -23.5l-375 -8q-2 -18 -2 -25q0 -64 44.5 -105.5t114.5 -41.5q42 0 74 12.5t51.5 28.5t49.5 45q9 9 20 9q12 0 23 -8.5t11 -19.5
q0 -13 -12 -26q-27 -31 -50 -51t-65.5 -37.5t-101.5 -17.5q-72 0 -124 29.5zM486 302q12 0 15 7.5t3 27.5q0 51 -40.5 82.5t-106.5 31.5q-55 0 -103 -28t-79 -66t-35 -64zM467 576q-57 102 -74 102q-8 0 -33.5 -21.5t-74.5 -68.5q-20 -20 -35 -20q-10 0 -17.5 7.5t-7.5 18.5
q0 13 14 26q14 10 32 29q48 44 78.5 67.5t50.5 23.5q26 0 46 -23t51 -72l21 -34q6 -8 6 -15q0 -13 -10.5 -23t-23.5 -10q-16 0 -23 13z" />
    <glyph glyph-name="uni1EBF" unicode="&#x1ebf;" horiz-adv-x="619" 
d="M162 25.5q-52 29.5 -79 79t-27 107.5q0 80 39.5 149.5t108.5 110.5t153 41q61 0 109 -22t74.5 -61.5t26.5 -91.5q0 -50 -14.5 -73.5t-48.5 -23.5l-375 -8q-2 -18 -2 -25q0 -64 44.5 -105.5t114.5 -41.5q42 0 74 12.5t51.5 28.5t49.5 45q9 9 20 9q12 0 23 -8.5t11 -19.5
q0 -13 -12 -26q-27 -31 -50 -51t-65.5 -37.5t-101.5 -17.5q-72 0 -124 29.5zM486 302q12 0 15 7.5t3 27.5q0 51 -40.5 82.5t-106.5 31.5q-55 0 -103 -28t-79 -66t-35 -64zM505.5 711q-6.5 6 -6.5 16q0 15 19 34l58 51q13 12 22 17.5t18 5.5q11 0 18 -7t7 -18t-6 -19.5
t-17 -17.5l-64 -53q-17 -15 -32 -15q-10 0 -16.5 6zM468 577q-57 102 -74 102q-8 0 -33.5 -21.5t-74.5 -68.5q-20 -20 -35 -20q-10 0 -17.5 7.5t-7.5 18.5q0 13 14 26q13 11 32 29q48 44 78.5 67.5t50.5 23.5q26 0 46 -23t51 -72l21 -34q6 -8 6 -15q0 -13 -10.5 -23
t-23.5 -10q-17 0 -23 13z" />
    <glyph glyph-name="uni1EC7" unicode="&#x1ec7;" horiz-adv-x="619" 
d="M162 25.5q-52 29.5 -79 79t-27 107.5q0 80 39.5 149.5t108.5 110.5t153 41q61 0 109 -22t74.5 -61.5t26.5 -91.5q0 -50 -14.5 -73.5t-48.5 -23.5l-375 -8q-2 -18 -2 -25q0 -64 44.5 -105.5t114.5 -41.5q42 0 74 12.5t51.5 28.5t49.5 45q9 9 20 9q12 0 23 -8.5t11 -19.5
q0 -13 -12 -26q-27 -31 -50 -51t-65.5 -37.5t-101.5 -17.5q-72 0 -124 29.5zM486 302q12 0 15 7.5t3 27.5q0 51 -40.5 82.5t-106.5 31.5q-55 0 -103 -28t-79 -66t-35 -64zM205.5 -166.5q-12.5 12.5 -12.5 32.5q0 25 19 43.5t45 18.5q20 0 33 -12t13 -31q0 -26 -19 -45
t-45 -19q-21 0 -33.5 12.5zM467 576q-57 102 -74 102q-8 0 -33.5 -21.5t-74.5 -68.5q-20 -20 -35 -20q-10 0 -17.5 7.5t-7.5 18.5q0 13 14 26q14 10 32 29q48 44 78.5 67.5t50.5 23.5q26 0 46 -23t51 -72l21 -34q6 -8 6 -15q0 -13 -10.5 -23t-23.5 -10q-16 0 -23 13z" />
    <glyph glyph-name="uni1EC1" unicode="&#x1ec1;" horiz-adv-x="619" 
d="M162 25.5q-52 29.5 -79 79t-27 107.5q0 80 39.5 149.5t108.5 110.5t153 41q61 0 109 -22t74.5 -61.5t26.5 -91.5q0 -50 -14.5 -73.5t-48.5 -23.5l-375 -8q-2 -18 -2 -25q0 -64 44.5 -105.5t114.5 -41.5q42 0 74 12.5t51.5 28.5t49.5 45q9 9 20 9q12 0 23 -8.5t11 -19.5
q0 -13 -12 -26q-27 -31 -50 -51t-65.5 -37.5t-101.5 -17.5q-72 0 -124 29.5zM486 302q12 0 15 7.5t3 27.5q0 51 -40.5 82.5t-106.5 31.5q-55 0 -103 -28t-79 -66t-35 -64zM535 720l-45 53q-12 14 -12 27q0 14 11 24.5t25 10.5q8 0 14.5 -5t16.5 -18l40 -51q9 -12 9 -23
q0 -13 -9.5 -23t-22.5 -10q-14 0 -27 15zM467 577q-57 102 -74 102q-8 0 -33.5 -21.5t-74.5 -68.5q-20 -20 -35 -20q-10 0 -17.5 7.5t-7.5 18.5q0 13 14 26q14 11 32 29q48 44 78.5 67.5t50.5 23.5q26 0 46 -23t51 -72l21 -34q6 -8 6 -15q0 -13 -10.5 -23t-23.5 -10
q-17 0 -23 13z" />
    <glyph glyph-name="uni1EC3" unicode="&#x1ec3;" horiz-adv-x="619" 
d="M162 25.5q-52 29.5 -79 79t-27 107.5q0 80 39.5 149.5t108.5 110.5t153 41q61 0 109 -22t74.5 -61.5t26.5 -91.5q0 -50 -14.5 -73.5t-48.5 -23.5l-375 -8q-2 -18 -2 -25q0 -64 44.5 -105.5t114.5 -41.5q42 0 74 12.5t51.5 28.5t49.5 45q9 9 20 9q12 0 23 -8.5t11 -19.5
q0 -13 -12 -26q-27 -31 -50 -51t-65.5 -37.5t-101.5 -17.5q-72 0 -124 29.5zM486 302q12 0 15 7.5t3 27.5q0 51 -40.5 82.5t-106.5 31.5q-55 0 -103 -28t-79 -66t-35 -64zM538.5 708q-5.5 6 -4.5 15l5 28q1 8 8.5 15t21.5 17q15 11 22.5 18.5t7.5 16.5q0 10 -7 15t-24 5
q-16 0 -28 -7t-18 -18q-1 -6 -7 -9.5t-12 -3.5q-16 0 -16 15q0 27 26 45t60 18q30 0 51 -15t21 -38q0 -24 -10 -36t-28 -21q-8 -4 -14 -8.5t-7 -10.5q-2 -9 -4 -25q-2 -11 -10.5 -16.5t-18.5 -5.5q-9 0 -14.5 6zM467 577q-57 102 -74 102q-8 0 -33.5 -21.5t-74.5 -68.5
q-20 -20 -35 -20q-10 0 -17.5 7.5t-7.5 18.5q0 13 14 26q14 11 32 29q48 44 78.5 67.5t50.5 23.5q26 0 46 -23t51 -72l21 -34q6 -8 6 -15q0 -13 -10.5 -23t-23.5 -10q-17 0 -23 13z" />
    <glyph glyph-name="uni1EC5" unicode="&#x1ec5;" horiz-adv-x="619" 
d="M162 25.5q-52 29.5 -79 79t-27 107.5q0 80 39.5 149.5t108.5 110.5t153 41q61 0 109 -22t74.5 -61.5t26.5 -91.5q0 -50 -14.5 -73.5t-48.5 -23.5l-375 -8q-2 -18 -2 -25q0 -64 44.5 -105.5t114.5 -41.5q42 0 74 12.5t51.5 28.5t49.5 45q9 9 20 9q12 0 23 -8.5t11 -19.5
q0 -13 -12 -26q-27 -31 -50 -51t-65.5 -37.5t-101.5 -17.5q-72 0 -124 29.5zM486 302q12 0 15 7.5t3 27.5q0 51 -40.5 82.5t-106.5 31.5q-55 0 -103 -28t-79 -66t-35 -64zM259.5 777.5q-6.5 5.5 -6.5 15.5q0 13 13 24q29 27 49 38t46 11q20 0 38.5 -5.5t41.5 -16.5
q37 -20 53 -20q14 0 35 16q5 3 13.5 9t15.5 6q11 0 17 -7t6 -17q0 -13 -13 -23q-24 -19 -43.5 -27.5t-39.5 -8.5q-16 0 -29 5t-26 11.5t-20 9.5q-34 17 -54 17q-11 0 -22 -7t-27 -21q-18 -15 -31 -15q-10 0 -16.5 5.5zM467 577q-57 102 -74 102q-8 0 -33.5 -21.5
t-74.5 -68.5q-20 -20 -35 -20q-10 0 -17.5 7.5t-7.5 18.5q0 13 14 26q14 11 32 29q48 44 78.5 67.5t50.5 23.5q26 0 46 -23t51 -72l21 -34q6 -8 6 -15q0 -13 -10.5 -23t-23.5 -10q-17 0 -23 13z" />
    <glyph glyph-name="edieresis" unicode="&#xeb;" horiz-adv-x="619" 
d="M162 25.5q-52 29.5 -79 79t-27 107.5q0 80 39.5 149.5t108.5 110.5t153 41q61 0 109 -22t74.5 -61.5t26.5 -91.5q0 -50 -14.5 -73.5t-48.5 -23.5l-375 -8q-2 -18 -2 -25q0 -64 44.5 -105.5t114.5 -41.5q42 0 74 12.5t51.5 28.5t49.5 45q9 9 20 9q12 0 23 -8.5t11 -19.5
q0 -13 -12 -26q-27 -31 -50 -51t-65.5 -37.5t-101.5 -17.5q-72 0 -124 29.5zM486 302q12 0 15 7.5t3 27.5q0 51 -40.5 82.5t-106.5 31.5q-55 0 -103 -28t-79 -66t-35 -64zM220.5 588.5q-12.5 12.5 -12.5 32.5q0 26 19 44t45 18q20 0 33.5 -12.5t13.5 -31.5q0 -25 -20 -44
t-45 -19q-21 0 -33.5 12.5zM460.5 588.5q-12.5 12.5 -12.5 32.5q0 26 19 44t45 18q20 0 33 -12t13 -31q0 -25 -19.5 -44.5t-44.5 -19.5q-21 0 -33.5 12.5z" />
    <glyph glyph-name="edotaccent" unicode="&#x117;" horiz-adv-x="619" 
d="M162 25.5q-52 29.5 -79 79t-27 107.5q0 80 39.5 149.5t108.5 110.5t153 41q61 0 109 -22t74.5 -61.5t26.5 -91.5q0 -50 -14.5 -73.5t-48.5 -23.5l-375 -8q-2 -18 -2 -25q0 -64 44.5 -105.5t114.5 -41.5q42 0 74 12.5t51.5 28.5t49.5 45q9 9 20 9q12 0 23 -8.5t11 -19.5
q0 -13 -12 -26q-27 -31 -50 -51t-65.5 -37.5t-101.5 -17.5q-72 0 -124 29.5zM486 302q12 0 15 7.5t3 27.5q0 51 -40.5 82.5t-106.5 31.5q-55 0 -103 -28t-79 -66t-35 -64zM339.5 588.5q-12.5 12.5 -12.5 32.5q0 25 19 43.5t45 18.5q20 0 33 -12t13 -31q0 -26 -19 -45
t-45 -19q-21 0 -33.5 12.5z" />
    <glyph glyph-name="uni1EB9" unicode="&#x1eb9;" horiz-adv-x="619" 
d="M162 25.5q-52 29.5 -79 79t-27 107.5q0 80 39.5 149.5t108.5 110.5t153 41q61 0 109 -22t74.5 -61.5t26.5 -91.5q0 -50 -14.5 -73.5t-48.5 -23.5l-375 -8q-2 -18 -2 -25q0 -64 44.5 -105.5t114.5 -41.5q42 0 74 12.5t51.5 28.5t49.5 45q9 9 20 9q12 0 23 -8.5t11 -19.5
q0 -13 -12 -26q-27 -31 -50 -51t-65.5 -37.5t-101.5 -17.5q-72 0 -124 29.5zM486 302q12 0 15 7.5t3 27.5q0 51 -40.5 82.5t-106.5 31.5q-55 0 -103 -28t-79 -66t-35 -64zM205.5 -166.5q-12.5 12.5 -12.5 32.5q0 25 19 43.5t45 18.5q20 0 33 -12t13 -31q0 -26 -19 -45
t-45 -19q-21 0 -33.5 12.5z" />
    <glyph glyph-name="egrave" unicode="&#xe8;" horiz-adv-x="619" 
d="M162 25.5q-52 29.5 -79 79t-27 107.5q0 80 39.5 149.5t108.5 110.5t153 41q61 0 109 -22t74.5 -61.5t26.5 -91.5q0 -50 -14.5 -73.5t-48.5 -23.5l-375 -8q-2 -18 -2 -25q0 -64 44.5 -105.5t114.5 -41.5q42 0 74 12.5t51.5 28.5t49.5 45q9 9 20 9q12 0 23 -8.5t11 -19.5
q0 -13 -12 -26q-27 -31 -50 -51t-65.5 -37.5t-101.5 -17.5q-72 0 -124 29.5zM486 302q12 0 15 7.5t3 27.5q0 51 -40.5 82.5t-106.5 31.5q-55 0 -103 -28t-79 -66t-35 -64zM407 560.5q-6 3.5 -13 12.5l-64 86q-11 17 -11 27q0 15 10.5 25.5t23.5 10.5q17 0 33 -24l58 -85
q10 -13 10 -24q0 -13 -10 -22.5t-23 -9.5q-8 0 -14 3.5z" />
    <glyph glyph-name="uni1EBB" unicode="&#x1ebb;" horiz-adv-x="619" 
d="M162 25.5q-52 29.5 -79 79t-27 107.5q0 80 39.5 149.5t108.5 110.5t153 41q61 0 109 -22t74.5 -61.5t26.5 -91.5q0 -50 -14.5 -73.5t-48.5 -23.5l-375 -8q-2 -18 -2 -25q0 -64 44.5 -105.5t114.5 -41.5q42 0 74 12.5t51.5 28.5t49.5 45q9 9 20 9q12 0 23 -8.5t11 -19.5
q0 -13 -12 -26q-27 -31 -50 -51t-65.5 -37.5t-101.5 -17.5q-72 0 -124 29.5zM486 302q12 0 15 7.5t3 27.5q0 51 -40.5 82.5t-106.5 31.5q-55 0 -103 -28t-79 -66t-35 -64zM353.5 568.5q-7.5 9.5 -5.5 22.5q1 7 8 38q3 11 14 22t30 24q21 15 31.5 25t12.5 22q3 18 -10 29
t-39 11q-41 0 -73 -42q-11 -15 -23 -15q-9 0 -17 6t-8 14q0 11 10 24q23 31 51 48t70 17q45 0 74 -22t29 -56q0 -31 -17 -50t-45 -36q-10 -6 -18 -13t-9 -12l-5 -32q-3 -16 -14 -25t-25 -9t-21.5 9.5z" />
    <glyph glyph-name="emacron" unicode="&#x113;" horiz-adv-x="619" 
d="M162 25.5q-52 29.5 -79 79t-27 107.5q0 80 39.5 149.5t108.5 110.5t153 41q61 0 109 -22t74.5 -61.5t26.5 -91.5q0 -50 -14.5 -73.5t-48.5 -23.5l-375 -8q-2 -18 -2 -25q0 -64 44.5 -105.5t114.5 -41.5q42 0 74 12.5t51.5 28.5t49.5 45q9 9 20 9q12 0 23 -8.5t11 -19.5
q0 -13 -12 -26q-27 -31 -50 -51t-65.5 -37.5t-101.5 -17.5q-72 0 -124 29.5zM486 302q12 0 15 7.5t3 27.5q0 51 -40.5 82.5t-106.5 31.5q-55 0 -103 -28t-79 -66t-35 -64zM191 590q-5 6 -5 16q0 15 9 26t25 13q5 1 43.5 7.5t123.5 6.5h148q15 0 23 -9t5 -24q-6 -28 -37 -28
q-18 0 -32 1l-109 1q-67 0 -146 -12q-32 -4 -34 -4q-9 0 -14 6z" />
    <glyph glyph-name="eogonek" unicode="&#x119;" horiz-adv-x="619" 
d="M129 233q-2 -18 -2 -25q0 -64 44.5 -105.5t114.5 -41.5q42 0 74 12.5t51.5 28.5t49.5 45q9 9 20 9q12 0 23 -8.5t11 -19.5q0 -13 -12 -26q-22 -25 -38.5 -40.5t-41.5 -30.5q-33 -30 -33 -59q0 -25 37 -25q7 0 19.5 3.5t15.5 3.5q6 0 10 -4.5t4 -11.5q0 -21 -14.5 -31.5
t-40.5 -10.5q-38 0 -64.5 21.5t-26.5 54.5q0 16 4 28q-20 -4 -48 -4q-72 0 -124 29.5t-79 79t-27 107.5q0 80 39.5 149.5t108.5 110.5t153 41q61 0 109 -22t74.5 -61.5t26.5 -91.5q0 -50 -14.5 -73.5t-48.5 -23.5zM254 423q-48 -28 -79 -66t-35 -64l346 9q12 0 15 7.5
t3 27.5q0 51 -40.5 82.5t-106.5 31.5q-55 0 -103 -28z" />
    <glyph glyph-name="uni1EBD" unicode="&#x1ebd;" horiz-adv-x="619" 
d="M162 25.5q-52 29.5 -79 79t-27 107.5q0 80 39.5 149.5t108.5 110.5t153 41q61 0 109 -22t74.5 -61.5t26.5 -91.5q0 -50 -14.5 -73.5t-48.5 -23.5l-375 -8q-2 -18 -2 -25q0 -64 44.5 -105.5t114.5 -41.5q42 0 74 12.5t51.5 28.5t49.5 45q9 9 20 9q12 0 23 -8.5t11 -19.5
q0 -13 -12 -26q-27 -31 -50 -51t-65.5 -37.5t-101.5 -17.5q-72 0 -124 29.5zM486 302q12 0 15 7.5t3 27.5q0 51 -40.5 82.5t-106.5 31.5q-55 0 -103 -28t-79 -66t-35 -64zM221 572.5q-6 6.5 -6 18.5q0 13 12 25q29 29 50 41t47 12q46 0 84 -22q6 -3 17.5 -9.5t19 -9.5
t14.5 -3q13 0 32 17q16 15 28 15q10 0 17 -8t7 -19q0 -14 -11 -25q-25 -20 -45 -29.5t-40 -9.5q-23 0 -55 18l-20 10q-5 2 -23 10.5t-31 8.5q-10 0 -19.5 -7t-27.5 -24q-19 -16 -33 -16q-11 0 -17 6.5z" />
    <glyph glyph-name="uni0259" unicode="&#x259;" horiz-adv-x="619" 
d="M457 474.5q52 -29.5 79 -79t27 -107.5q0 -80 -39.5 -149.5t-108.5 -110.5t-153 -41q-61 0 -109 22t-74.5 61.5t-26.5 91.5q0 50 14.5 73.5t48.5 23.5l375 8q2 18 2 25q0 64 -44.5 105.5t-114.5 41.5q-42 0 -74 -12.5t-51.5 -28.5t-49.5 -45q-9 -9 -20 -9q-12 0 -23 8.5
t-11 19.5q0 13 12 26q27 31 50 51t65.5 37.5t101.5 17.5q72 0 124 -29.5zM133 198q-12 0 -15 -7.5t-3 -27.5q0 -51 40.5 -82.5t106.5 -31.5q55 0 103 28t79 66t35 64z" />
    <glyph glyph-name="f" unicode="f" horiz-adv-x="389" 
d="M433.5 708.5q34.5 -31.5 34.5 -84.5q0 -14 -3 -29q-4 -27 -15 -38t-32 -11q-19 0 -27 10t-5 24q5 30 5 47q0 25 -11 36.5t-39 11.5q-44 0 -67 -36t-35 -109l-10 -63q-4 -18 -6.5 -33.5t-4.5 -28.5h79q13 0 19.5 -7t6.5 -18q0 -35 -36 -36q-24 -1 -79 -1l-52 -309
q-3 -18 -14.5 -26t-28.5 -8q-35 0 -30 33q11 64 33 208l16 101l-60 -3q-30 0 -30 23q0 17 8.5 28t31.5 12q30 2 60 2q16 105 21 135q32 201 178 201q58 0 92.5 -31.5z" />
    <glyph glyph-name="g" unicode="g" horiz-adv-x="580" 
d="M536.5 523q12.5 -7 12.5 -18q0 -6 -3 -12q-8 -16 -34 -75l-4 -124q-4 -88 -4 -123q0 -93 -13 -193q-15 -113 -89 -170.5t-187 -57.5q-52 0 -94 19.5t-66 53.5t-24 76q0 23 10.5 34t33.5 11q24 0 24 -24q0 -47 32 -76t84 -29q84 0 134.5 37.5t65.5 122.5q6 36 10 103
q-30 -34 -74.5 -54t-100.5 -20q-64 0 -110.5 29t-70.5 77t-24 103q0 79 37 146t100.5 107t140.5 40q46 0 79.5 -13.5t50.5 -32.5q23 45 28 55q8 15 30 15q13 0 25.5 -7zM328.5 89.5q35.5 14.5 63 36.5t36.5 43l3 100q2 70 4 106q-3 13 -19 27.5t-42 24.5t-56 10
q-54 0 -99 -31.5t-71.5 -83.5t-26.5 -109q0 -60 35 -99t105 -39q32 0 67.5 14.5z" />
    <glyph glyph-name="gbreve" unicode="&#x11f;" horiz-adv-x="580" 
d="M536.5 523q12.5 -7 12.5 -18q0 -6 -3 -12q-8 -16 -34 -75l-4 -124q-4 -88 -4 -123q0 -93 -13 -193q-15 -113 -89 -170.5t-187 -57.5q-52 0 -94 19.5t-66 53.5t-24 76q0 23 10.5 34t33.5 11q24 0 24 -24q0 -47 32 -76t84 -29q84 0 134.5 37.5t65.5 122.5q6 36 10 103
q-30 -34 -74.5 -54t-100.5 -20q-64 0 -110.5 29t-70.5 77t-24 103q0 79 37 146t100.5 107t140.5 40q46 0 79.5 -13.5t50.5 -32.5q23 45 28 55q8 15 30 15q13 0 25.5 -7zM328.5 89.5q35.5 14.5 63 36.5t36.5 43l3 100q2 70 4 106q-3 13 -19 27.5t-42 24.5t-56 10
q-54 0 -99 -31.5t-71.5 -83.5t-26.5 -109q0 -60 35 -99t105 -39q32 0 67.5 14.5zM277.5 581q-32.5 15 -50.5 41t-18 56q0 7 2 17q4 14 12.5 22t20.5 8q11 0 19 -4.5t7 -14.5q-1 -5 -1 -14q1 -34 25 -53.5t61 -19.5t69 24.5t39 59.5q2 12 12.5 18.5t22.5 6.5t19 -8t5 -20
q-6 -35 -31 -66t-62 -49.5t-78 -18.5t-73.5 15z" />
    <glyph glyph-name="gcaron" unicode="&#x1e7;" horiz-adv-x="580" 
d="M536.5 523q12.5 -7 12.5 -18q0 -6 -3 -12q-8 -16 -34 -75l-4 -124q-4 -88 -4 -123q0 -93 -13 -193q-15 -113 -89 -170.5t-187 -57.5q-52 0 -94 19.5t-66 53.5t-24 76q0 23 10.5 34t33.5 11q24 0 24 -24q0 -47 32 -76t84 -29q84 0 134.5 37.5t65.5 122.5q6 36 10 103
q-30 -34 -74.5 -54t-100.5 -20q-64 0 -110.5 29t-70.5 77t-24 103q0 79 37 146t100.5 107t140.5 40q46 0 79.5 -13.5t50.5 -32.5q23 45 28 55q8 15 30 15q13 0 25.5 -7zM328.5 89.5q35.5 14.5 63 36.5t36.5 43l3 100q2 70 4 106q-3 13 -19 27.5t-42 24.5t-56 10
q-54 0 -99 -31.5t-71.5 -83.5t-26.5 -109q0 -60 35 -99t105 -39q32 0 67.5 14.5zM507.5 736q6.5 -7 6.5 -17q0 -6 -3 -11.5t-6 -8t-4 -4.5q-56 -63 -93 -96t-69 -33q-19 0 -39.5 22t-54.5 66q-15 21 -25 33q-8 9 -6 22q1 11 12.5 20t22.5 9q14 0 27 -20q59 -90 76 -90
q9 0 39 28.5t72 74.5q11 12 28 12q10 0 16.5 -7z" />
    <glyph glyph-name="gcircumflex" unicode="&#x11d;" horiz-adv-x="580" 
d="M536.5 523q12.5 -7 12.5 -18q0 -6 -3 -12q-8 -16 -34 -75l-4 -124q-4 -88 -4 -123q0 -93 -13 -193q-15 -113 -89 -170.5t-187 -57.5q-52 0 -94 19.5t-66 53.5t-24 76q0 23 10.5 34t33.5 11q24 0 24 -24q0 -47 32 -76t84 -29q84 0 134.5 37.5t65.5 122.5q6 36 10 103
q-30 -34 -74.5 -54t-100.5 -20q-64 0 -110.5 29t-70.5 77t-24 103q0 79 37 146t100.5 107t140.5 40q46 0 79.5 -13.5t50.5 -32.5q23 45 28 55q8 15 30 15q13 0 25.5 -7zM328.5 89.5q35.5 14.5 63 36.5t36.5 43l3 100q2 70 4 106q-3 13 -19 27.5t-42 24.5t-56 10
q-54 0 -99 -31.5t-71.5 -83.5t-26.5 -109q0 -60 35 -99t105 -39q32 0 67.5 14.5zM441 576q-57 102 -74 102q-8 0 -33.5 -21.5t-74.5 -68.5q-20 -20 -35 -20q-10 0 -17.5 7.5t-7.5 18.5q0 13 14 26q14 10 32 29q48 44 78.5 67.5t50.5 23.5q26 0 46 -23t51 -72l21 -34
q6 -8 6 -15q0 -13 -10.5 -23t-23.5 -10q-16 0 -23 13z" />
    <glyph glyph-name="uni0123" unicode="&#x123;" horiz-adv-x="580" 
d="M536.5 523q12.5 -7 12.5 -18q0 -6 -3 -12q-8 -16 -34 -75l-4 -124q-4 -88 -4 -123q0 -93 -13 -193q-15 -113 -89 -170.5t-187 -57.5q-52 0 -94 19.5t-66 53.5t-24 76q0 23 10.5 34t33.5 11q24 0 24 -24q0 -47 32 -76t84 -29q84 0 134.5 37.5t65.5 122.5q6 36 10 103
q-30 -34 -74.5 -54t-100.5 -20q-64 0 -110.5 29t-70.5 77t-24 103q0 79 37 146t100.5 107t140.5 40q46 0 79.5 -13.5t50.5 -32.5q23 45 28 55q8 15 30 15q13 0 25.5 -7zM328.5 89.5q35.5 14.5 63 36.5t36.5 43l3 100q2 70 4 106q-3 13 -19 27.5t-42 24.5t-56 10
q-54 0 -99 -31.5t-71.5 -83.5t-26.5 -109q0 -60 35 -99t105 -39q32 0 67.5 14.5zM431 761q6 -6 6 -16q0 -11 -10 -19q-41 -33 -64 -57q18 -2 30.5 -14t12.5 -30q0 -27 -22 -45.5t-49 -18.5q-21 0 -35 14t-14 35q0 35 34.5 77.5t79.5 73.5q9 6 16 6q9 0 15 -6z" />
    <glyph glyph-name="gdotaccent" unicode="&#x121;" horiz-adv-x="580" 
d="M536.5 523q12.5 -7 12.5 -18q0 -6 -3 -12q-8 -16 -34 -75l-4 -124q-4 -88 -4 -123q0 -93 -13 -193q-15 -113 -89 -170.5t-187 -57.5q-52 0 -94 19.5t-66 53.5t-24 76q0 23 10.5 34t33.5 11q24 0 24 -24q0 -47 32 -76t84 -29q84 0 134.5 37.5t65.5 122.5q6 36 10 103
q-30 -34 -74.5 -54t-100.5 -20q-64 0 -110.5 29t-70.5 77t-24 103q0 79 37 146t100.5 107t140.5 40q46 0 79.5 -13.5t50.5 -32.5q23 45 28 55q8 15 30 15q13 0 25.5 -7zM328.5 89.5q35.5 14.5 63 36.5t36.5 43l3 100q2 70 4 106q-3 13 -19 27.5t-42 24.5t-56 10
q-54 0 -99 -31.5t-71.5 -83.5t-26.5 -109q0 -60 35 -99t105 -39q32 0 67.5 14.5zM313.5 588.5q-12.5 12.5 -12.5 32.5q0 25 19 43.5t45 18.5q20 0 33 -12t13 -31q0 -26 -19 -45t-45 -19q-21 0 -33.5 12.5z" />
    <glyph glyph-name="uni1E21" unicode="&#x1e21;" horiz-adv-x="580" 
d="M536.5 523q12.5 -7 12.5 -18q0 -6 -3 -12q-8 -16 -34 -75l-4 -124q-4 -88 -4 -123q0 -93 -13 -193q-15 -113 -89 -170.5t-187 -57.5q-52 0 -94 19.5t-66 53.5t-24 76q0 23 10.5 34t33.5 11q24 0 24 -24q0 -47 32 -76t84 -29q84 0 134.5 37.5t65.5 122.5q6 36 10 103
q-30 -34 -74.5 -54t-100.5 -20q-64 0 -110.5 29t-70.5 77t-24 103q0 79 37 146t100.5 107t140.5 40q46 0 79.5 -13.5t50.5 -32.5q23 45 28 55q8 15 30 15q13 0 25.5 -7zM328.5 89.5q35.5 14.5 63 36.5t36.5 43l3 100q2 70 4 106q-3 13 -19 27.5t-42 24.5t-56 10
q-54 0 -99 -31.5t-71.5 -83.5t-26.5 -109q0 -60 35 -99t105 -39q32 0 67.5 14.5zM165 590q-5 6 -5 16q0 15 9 26t25 13q5 1 43.5 7.5t123.5 6.5h148q15 0 23 -9t5 -24q-6 -28 -37 -28q-18 0 -32 1l-109 1q-67 0 -146 -12q-32 -4 -34 -4q-9 0 -14 6z" />
    <glyph glyph-name="h" unicode="h" horiz-adv-x="564" 
d="M487 469q39 -46 39 -137q0 -80 -39 -302q-2 -13 -14 -21.5t-29 -8.5t-26 8.5t-6 25.5q20 119 29.5 186.5t9.5 111.5q0 57 -18 85.5t-61 28.5q-40 0 -77 -23t-64 -56t-40 -63q-12 -28 -21 -72t-21 -122q-4 -23 -7.5 -43.5t-6.5 -37.5q-2 -12 -15 -20t-29 -8q-17 0 -26 8
t-7 21q39 219 74 390q26 126 74 330q9 35 44 35q32 0 32 -22q0 -6 -1 -10q-8 -28 -75 -325q70 87 171 87q71 0 110 -46z" />
    <glyph glyph-name="hbar" unicode="&#x127;" horiz-adv-x="572" 
d="M495 469q39 -46 39 -137q0 -80 -39 -302q-2 -13 -14 -21.5t-29 -8.5t-26 8.5t-6 25.5q20 119 29.5 186.5t9.5 111.5q0 57 -18 85.5t-61 28.5q-40 0 -77 -23t-64 -56t-40 -63q-12 -28 -21 -72t-21 -122q-4 -23 -7.5 -43.5t-6.5 -37.5q-2 -12 -15 -20t-29 -8q-17 0 -26 8
t-7 21q39 219 74 390q16 79 38 172l-45 2q-12 0 -19 7.5t-7 18.5q0 15 11.5 24.5t26.5 9.5l46 -2l23 98q9 35 44 35q32 0 32 -22q0 -6 -1 -10l-24 -103l108 -4q29 0 29 -30q0 -14 -11.5 -22t-27.5 -8l-112 4l-37 -162q70 87 171 87q71 0 110 -46z" />
    <glyph glyph-name="uni1E2B" unicode="&#x1e2b;" horiz-adv-x="564" 
d="M487 469q39 -46 39 -137q0 -80 -39 -302q-2 -13 -14 -21.5t-29 -8.5t-26 8.5t-6 25.5q20 119 29.5 186.5t9.5 111.5q0 57 -18 85.5t-61 28.5q-40 0 -77 -23t-64 -56t-40 -63q-12 -28 -21 -72t-21 -122q-4 -23 -7.5 -43.5t-6.5 -37.5q-2 -12 -15 -20t-29 -8q-17 0 -26 8
t-7 21q39 219 74 390q26 126 74 330q9 35 44 35q32 0 32 -22q0 -6 -1 -10q-8 -28 -75 -325q70 87 171 87q71 0 110 -46zM176.5 -201q-32.5 15 -50.5 41t-18 56q0 7 2 17q4 14 12.5 22t20.5 8q11 0 19 -4.5t7 -14.5q-1 -5 -1 -14q1 -34 25 -53.5t61 -19.5t69 24.5t39 59.5
q2 12 12.5 18.5t22.5 6.5t19 -8t5 -20q-6 -35 -31 -66t-62 -49.5t-78 -18.5t-73.5 15z" />
    <glyph glyph-name="hcircumflex" unicode="&#x125;" horiz-adv-x="564" 
d="M487 469q39 -46 39 -137q0 -80 -39 -302q-2 -13 -14 -21.5t-29 -8.5t-26 8.5t-6 25.5q20 119 29.5 186.5t9.5 111.5q0 57 -18 85.5t-61 28.5q-40 0 -77 -23t-64 -56t-40 -63q-12 -28 -21 -72t-21 -122q-4 -23 -7.5 -43.5t-6.5 -37.5q-2 -12 -15 -20t-29 -8q-17 0 -26 8
t-7 21q39 219 74 390q26 126 74 330q9 35 44 35q32 0 32 -22q0 -6 -1 -10q-8 -28 -75 -325q70 87 171 87q71 0 110 -46zM358 861q-57 102 -74 102q-8 0 -33.5 -21.5t-74.5 -68.5q-20 -20 -35 -20q-10 0 -17.5 7.5t-7.5 18.5q0 13 14 26q14 10 32 29q48 44 78.5 67.5
t50.5 23.5q26 0 46 -23t51 -72l21 -34q6 -8 6 -15q0 -13 -10.5 -23t-23.5 -10q-16 0 -23 13z" />
    <glyph glyph-name="uni1E25" unicode="&#x1e25;" horiz-adv-x="564" 
d="M487 469q39 -46 39 -137q0 -80 -39 -302q-2 -13 -14 -21.5t-29 -8.5t-26 8.5t-6 25.5q20 119 29.5 186.5t9.5 111.5q0 57 -18 85.5t-61 28.5q-40 0 -77 -23t-64 -56t-40 -63q-12 -28 -21 -72t-21 -122q-4 -23 -7.5 -43.5t-6.5 -37.5q-2 -12 -15 -20t-29 -8q-17 0 -26 8
t-7 21q39 219 74 390q26 126 74 330q9 35 44 35q32 0 32 -22q0 -6 -1 -10q-8 -28 -75 -325q70 87 171 87q71 0 110 -46zM210.5 -166.5q-12.5 12.5 -12.5 32.5q0 25 19 43.5t45 18.5q20 0 33 -12t13 -31q0 -26 -19 -45t-45 -19q-21 0 -33.5 12.5z" />
    <glyph glyph-name="i" unicode="i" horiz-adv-x="306" 
d="M188.5 579.5q-14.5 13.5 -14.5 36.5q0 30 22.5 52t53.5 22q24 0 38 -13.5t14 -36.5q0 -30 -23 -52t-53 -22q-23 0 -37.5 13.5zM85 15q-9 9 -6 24l85 425q3 17 15 26t30 9t27 -9t6 -27l-85 -424q-4 -16 -16 -24.5t-29 -8.5q-18 0 -27 9z" />
    <glyph glyph-name="dotlessi" unicode="&#x131;" horiz-adv-x="314" 
d="M85 14.5q-9 10.5 -6 27.5l85 426q3 18 15 28t30 10t27 -10t6 -28l-89 -427q-3 -17 -14 -27t-28 -10t-26 10.5z" />
    <glyph glyph-name="iacute" unicode="&#xed;" horiz-adv-x="314" 
d="M85 14.5q-9 10.5 -6 27.5l85 426q3 18 15 28t30 10t27 -10t6 -28l-89 -427q-3 -17 -14 -27t-28 -10t-26 10.5zM156 558.5q-7 6.5 -7 16.5q0 8 6 17.5t16 18.5l92 81q15 14 24.5 19.5t18.5 5.5q11 0 18.5 -7.5t7.5 -18.5q0 -21 -25 -41l-99 -81q-20 -17 -35 -17
q-10 0 -17 6.5z" />
    <glyph glyph-name="ibreve" unicode="&#x12d;" horiz-adv-x="314" 
d="M85 14.5q-9 10.5 -6 27.5l85 426q3 18 15 28t30 10t27 -10t6 -28l-89 -427q-3 -17 -14 -27t-28 -10t-26 10.5zM147.5 581q-32.5 15 -50.5 41t-18 56q0 7 2 17q4 14 12.5 22t20.5 8q11 0 19 -4.5t7 -14.5q-1 -5 -1 -14q1 -34 25 -53.5t61 -19.5t69 24.5t39 59.5
q2 12 12.5 18.5t22.5 6.5t19 -8t5 -20q-6 -35 -31 -66t-62 -49.5t-78 -18.5t-73.5 15z" />
    <glyph glyph-name="uni01D0" unicode="&#x1d0;" horiz-adv-x="314" 
d="M85 14.5q-9 10.5 -6 27.5l85 426q3 18 15 28t30 10t27 -10t6 -28l-89 -427q-3 -17 -14 -27t-28 -10t-26 10.5zM377.5 736q6.5 -7 6.5 -17q0 -6 -3 -11.5t-6 -8t-4 -4.5q-56 -63 -93 -96t-69 -33q-19 0 -39.5 22t-54.5 66q-15 21 -25 33q-8 9 -6 22q1 11 12.5 20t22.5 9
q14 0 27 -20q59 -90 76 -90q9 0 39 28.5t72 74.5q11 12 28 12q10 0 16.5 -7z" />
    <glyph glyph-name="icircumflex" unicode="&#xee;" horiz-adv-x="314" 
d="M85 14.5q-9 10.5 -6 27.5l85 426q3 18 15 28t30 10t27 -10t6 -28l-89 -427q-3 -17 -14 -27t-28 -10t-26 10.5zM311 576q-57 102 -74 102q-8 0 -33.5 -21.5t-74.5 -68.5q-20 -20 -35 -20q-10 0 -17.5 7.5t-7.5 18.5q0 13 14 26q14 10 32 29q48 44 78.5 67.5t50.5 23.5
q26 0 46 -23t51 -72l21 -34q6 -8 6 -15q0 -13 -10.5 -23t-23.5 -10q-16 0 -23 13z" />
    <glyph glyph-name="idieresis" unicode="&#xef;" horiz-adv-x="314" 
d="M85 14.5q-9 10.5 -6 27.5l85 426q3 18 15 28t30 10t27 -10t6 -28l-89 -427q-3 -17 -14 -27t-28 -10t-26 10.5zM64.5 588.5q-12.5 12.5 -12.5 32.5q0 26 19 44t45 18q20 0 33.5 -12.5t13.5 -31.5q0 -25 -20 -44t-45 -19q-21 0 -33.5 12.5zM304.5 588.5
q-12.5 12.5 -12.5 32.5q0 26 19 44t45 18q20 0 33 -12t13 -31q0 -25 -19.5 -44.5t-44.5 -19.5q-21 0 -33.5 12.5z" />
    <glyph glyph-name="uni1ECB" unicode="&#x1ecb;" horiz-adv-x="306" 
d="M188.5 579.5q-14.5 13.5 -14.5 36.5q0 30 22.5 52t53.5 22q24 0 38 -13.5t14 -36.5q0 -30 -23 -52t-53 -22q-23 0 -37.5 13.5zM85 15q-9 9 -6 24l85 425q3 17 15 26t30 9t27 -9t6 -27l-85 -424q-4 -16 -16 -24.5t-29 -8.5q-18 0 -27 9zM45.5 -166.5
q-12.5 12.5 -12.5 32.5q0 25 19 43.5t45 18.5q20 0 33 -12t13 -31q0 -26 -19 -45t-45 -19q-21 0 -33.5 12.5z" />
    <glyph glyph-name="igrave" unicode="&#xec;" horiz-adv-x="314" 
d="M85 14.5q-9 10.5 -6 27.5l85 426q3 18 15 28t30 10t27 -10t6 -28l-89 -427q-3 -17 -14 -27t-28 -10t-26 10.5zM251 560.5q-6 3.5 -13 12.5l-64 86q-11 17 -11 27q0 15 10.5 25.5t23.5 10.5q17 0 33 -24l58 -85q10 -13 10 -24q0 -13 -10 -22.5t-23 -9.5q-8 0 -14 3.5z" />
    <glyph glyph-name="uni1EC9" unicode="&#x1ec9;" horiz-adv-x="314" 
d="M85 14.5q-9 10.5 -6 27.5l85 426q3 18 15 28t30 10t27 -10t6 -28l-89 -427q-3 -17 -14 -27t-28 -10t-26 10.5zM197.5 568.5q-7.5 9.5 -5.5 22.5q1 7 8 38q3 11 14 22t30 24q21 15 31.5 25t12.5 22q3 18 -10 29t-39 11q-41 0 -73 -42q-11 -15 -23 -15q-9 0 -17 6t-8 14
q0 11 10 24q23 31 51 48t70 17q45 0 74 -22t29 -56q0 -31 -17 -50t-45 -36q-10 -6 -18 -13t-9 -12l-5 -32q-3 -16 -14 -25t-25 -9t-21.5 9.5z" />
    <glyph glyph-name="ij" unicode="&#x133;" horiz-adv-x="642" 
d="M188.5 579.5q-14.5 13.5 -14.5 36.5q0 30 22.5 52t53.5 22q24 0 38 -13.5t14 -36.5q0 -30 -23 -52t-53 -22q-23 0 -37.5 13.5zM85 15q-9 9 -6 24l85 425q3 17 15 26t30 9t27 -9t6 -27l-85 -424q-4 -16 -16 -24.5t-29 -8.5q-18 0 -27 9zM528 581.5q-15 14.5 -15 37.5
q0 28 22 49t53 21q25 0 39.5 -14t14.5 -37q0 -30 -23.5 -50.5t-51.5 -20.5q-24 0 -39 14.5zM200 -204q-35 32 -35 91q0 30 11 44t37 14q18 0 22.5 -9t4.5 -39q0 -35 8.5 -52.5t40.5 -17.5q54 0 84 51.5t50 145.5q18 83 41.5 210t30.5 163l13 71q2 13 13 21.5t30 8.5t27 -9
t6 -23q-60 -317 -87 -442q-29 -135 -81.5 -197.5t-126.5 -62.5q-54 0 -89 32z" />
    <glyph glyph-name="imacron" unicode="&#x12b;" horiz-adv-x="314" 
d="M85 14.5q-9 10.5 -6 27.5l85 426q3 18 15 28t30 10t27 -10t6 -28l-89 -427q-3 -17 -14 -27t-28 -10t-26 10.5zM35 590q-5 6 -5 16q0 15 9 26t25 13q5 1 43.5 7.5t123.5 6.5h148q15 0 23 -9t5 -24q-6 -28 -37 -28q-18 0 -32 1l-109 1q-67 0 -146 -12q-32 -4 -34 -4
q-9 0 -14 6z" />
    </font>
</defs>
</svg>
